<?xml version="1.0" encoding="utf-8"?>
<!-- Generator: Adobe Illustrator 24.2.1, SVG Export Plug-In . SVG Version: 6.00 Build 0)  -->
<svg version="1.1" id="Layer_1" xmlns="http://www.w3.org/2000/svg" xmlns:xlink="http://www.w3.org/1999/xlink" x="0px" y="0px"
	 viewBox="0 0 100 100" style="enable-background:new 0 0 100 100;" xml:space="preserve">
<g>
	<g>
		<g>
			
				<image style="overflow:visible;" width="77.3" height="44.4" xlink:href="CD42F75B6B03C298.png"  transform="matrix(1 0 0 1 11.2846 13.3243)"/>
		</g>
		<g>
			
				<image style="overflow:visible;" width="77.4" height="45.2" xlink:href="CD42F75B6B03C299.png"  transform="matrix(1 0 0 1 11.3031 23.0044)"/>
		</g>
		<g>
			
				<image style="overflow:visible;" width="1" height="9.7" xlink:href="CD42F75B6B03C286.png"  transform="matrix(1 0 0 1 49.8414 13.9)"/>
		</g>
		<g>
			
				<image style="overflow:visible;" width="1" height="10.8" xlink:href="CD42F75B6B03C287.png"  transform="matrix(1 0 0 1 11.0918 35.3808)"/>
		</g>
		<g>
			
				<image style="overflow:visible;" width="1" height="10.8" xlink:href="CD42F75B6B03C288.png"  transform="matrix(1 0 0 1 87.6082 35.3808)"/>
		</g>
		<g>
			
				<image style="overflow:visible;" width="1" height="10.5" xlink:href="CD42F75B6B03C28D.png"  transform="matrix(1 0 0 1 49.1394 57.1423)"/>
		</g>
		<g>
			
				<image style="overflow:visible;" width="77.3" height="44.4" xlink:href="CD42F75B6B03C28E.png"  transform="matrix(1 0 0 1 11.2846 36.911)"/>
		</g>
		<g>
			
				<image style="overflow:visible;" width="77.4" height="45.2" xlink:href="CD42F75B6B03C28F.png"  transform="matrix(1 0 0 1 11.3031 46.5911)"/>
		</g>
		<g>
			
				<image style="overflow:visible;" width="1" height="9.7" xlink:href="CD42F75B6B03C284.png"  transform="matrix(1 0 0 1 49.8414 37.4867)"/>
		</g>
		<g>
			
				<image style="overflow:visible;" width="1" height="10.8" xlink:href="AAADC036778B1F84.png"  transform="matrix(1 0 0 1 11.0918 58.9675)"/>
		</g>
		<g>
			
				<image style="overflow:visible;" width="1" height="10.8" xlink:href="AAADC036778B1F85.png"  transform="matrix(1 0 0 1 87.6082 58.9675)"/>
		</g>
		<g>
			
				<image style="overflow:visible;" width="1" height="10.5" xlink:href="AAADC036778B1F86.png"  transform="matrix(1 0 0 1 49.1394 80.729)"/>
		</g>
	</g>
</g>
</svg>
