<?xml version="1.0" encoding="UTF-8"?>
<svg enable-background="new 0 0 100 100" version="1.1" viewBox="0 0 100 100" xml:space="preserve" xmlns="http://www.w3.org/2000/svg" xmlns:xlink="http://www.w3.org/1999/xlink">
<style type="text/css">
	.st0{fill:#FFFFFF;}
	.st1{fill-rule:evenodd;clip-rule:evenodd;fill:#FFFFFF;}
	.st2{clip-path:url(#a);}
	.st3{fill-rule:evenodd;clip-rule:evenodd;fill:#D1A250;}
	.st4{fill-rule:evenodd;clip-rule:evenodd;fill:#FFEBCA;}
</style>
		<path class="st0" d="m63.1 63.3h-30.6v-18.6c0.1-3 1.3-5.8 3.3-7.9 2.1-2.4 5.1-3.8 8.3-3.8h19v30.3zm-29.5-1.2h28.2v-28.1h-17.7c-2.9 0.1-5.6 1.3-7.5 3.5-1.8 1.9-2.9 4.5-3 7.1v17.5z"/>
	<g transform="translate(1.29 1.27)">
				<path class="st1" d="m33.5 51.3v-7.7c0-4.6 5.1-9.7 9.5-9.7h16.5v17.3h-26z"/>
					<defs>
						<path id="b" d="m33.5 51.3v-7.7c0-4.6 5.1-9.7 9.5-9.7h16.5v17.3h-26z"/>
					</defs>
					<clipPath id="a">
						<use xlink:href="#b"/>
					</clipPath>
					<g class="st2">
						<path class="st1" d="m33.5 50.9l26-0.1v0.5h-26v-0.4z"/>
						<path class="st1" d="M33.5,34.6l26-0.1v16.2l-26,0.1V34.6z"/>
						<path class="st1" d="m59.4 34.6l-26 0.1v-0.8h26v0.7z"/>
					</g>
		<g transform="translate(0 4)">
			<path class="st1" d="m33.5 55.7h26v-18.6l-26 10.1v8.5z"/>
		</g>
	</g>
<g transform="translate(1.512 3.83)">
			<path class="st3" d="m37.9 35.9l27.6 1.9-1.5 23.4-30.3-4.4 4.2-20.9z"/>
	<g transform="translate(1.569 7.896)">
		<path class="st1" d="m34.9 46.5l0.8-4.3 6.3 0.7-0.8 4.5-6.3-0.9z"/>
	</g>
	<g transform="translate(6.301 8.449)">
		<path class="st1" d="m39.4 42.6l6.7 0.8-0.7 4.6-6.8-0.9 0.8-4.5z"/>
	</g>
	<g transform="translate(11.271 8.995)">
		<path class="st1" d="m43.2 43.1l7 0.9-0.4 4.8-7.2-1 0.6-4.7z"/>
	</g>
	<g transform="translate(11.708 5.555)">
		<path class="st1" d="m43.5 40.3l6.9 0.8-0.4 4.4-7-0.9 0.5-4.3z"/>
	</g>
	<g transform="translate(12.158 2.058)">
		<path class="st1" d="m43.8 37.6l6.7 0.5-0.4 4.5-6.9-0.9 0.6-4.1z"/>
	</g>
	<g transform="translate(2.315 1.698)">
		<path class="st4" d="m46.7 37.3l5.2 0.5-7.5 6v0.1l-2.7 2.4-6.2-0.8 11.2-8.2z"/>
	</g>
	<g transform="translate(3.241 1.26)">
		<path class="st1" d="m36.2 36.9l4.5 0.4 7.8 10.7-4.6-0.6-7.7-10.5z"/>
	</g>
</g>
</svg>
