<!--?xml version="1.0" encoding="utf-8"?-->
<!-- Generator: Adobe Illustrator 24.2.1, SVG Export Plug-In . SVG Version: 6.00 Build 0)  -->
<svg version="1.1" id="Layer_1" xmlns="http://www.w3.org/2000/svg" xmlns:xlink="http://www.w3.org/1999/xlink" x="0px" y="0px" viewBox="0 0 100 100" style="" xml:space="preserve">
<style type="text/css">
	.st0{fill:#D1A250;}
	.st1{fill:none;stroke:#D1A250;stroke-width:0.5;stroke-miterlimit:10;}
</style>
<g id="Group_134" transform="translate(1.523 19.058)">
	<g id="Group_133">
		<path id="Path_87" class="st0 kArhvoyO_0" d="M16.9,58.2c-0.1-0.1-0.3-0.2-0.5-0.3c-0.1-0.1-0.3-0.1-0.5-0.1c-0.2,0-0.3,0-0.5,0.2
			c-0.1,0.1-0.2,0.2-0.2,0.4c0,0.1,0,0.2,0.1,0.3s0.1,0.1,0.2,0.2c0.1,0.1,0.2,0.1,0.3,0.1s0.2,0.1,0.4,0.1c0.4,0.1,0.8,0.4,1,0.7
			c0.2,0.4,0.4,0.8,0.3,1.2c0,0.3,0,0.6-0.1,0.9c-0.1,0.3-0.2,0.5-0.4,0.7c-0.2,0.2-0.4,0.3-0.7,0.4c-0.3,0.1-0.6,0.2-0.9,0.2
			c-0.7,0-1.4-0.3-2-0.7l0.6-1.3c0.2,0.2,0.4,0.4,0.6,0.5c0.2,0.1,0.4,0.2,0.6,0.2c0.2,0,0.4-0.1,0.5-0.2c0.1-0.1,0.2-0.3,0.2-0.4
			c0-0.1,0-0.2,0-0.3s-0.1-0.1-0.1-0.2c-0.1-0.1-0.2-0.1-0.3-0.2c-0.1-0.1-0.2-0.1-0.4-0.2c-0.2-0.1-0.4-0.1-0.6-0.2
			c-0.2-0.1-0.3-0.2-0.5-0.3c-0.1-0.1-0.3-0.3-0.3-0.5c-0.1-0.3-0.1-0.5-0.1-0.8s0-0.6,0.1-0.9c0.1-0.2,0.2-0.5,0.4-0.7
			s0.4-0.3,0.6-0.4c0.3-0.1,0.5-0.2,0.8-0.2s0.6,0,0.9,0.1s0.6,0.2,0.9,0.4L16.9,58.2z"></path>
		<path id="Path_88" class="st0 kArhvoyO_1" d="M18.4,63l1-6.4h1.4l1.1,3.4l1.1-3.4h1.4l1,6.4h-1.5l-0.5-3.7L22.1,63h-0.6l-1.3-3.7L19.8,63
			H18.4z"></path>
		<path id="Path_89" class="st0 kArhvoyO_2" d="M29.8,61.9h-2.1L27.3,63h-1.6l2.1-6.4h1.6l2.1,6.4h-1.6L29.8,61.9z M29.4,60.6l-0.7-2.1L28,60.6
			H29.4z"></path>
		<path id="Path_90" class="st0 kArhvoyO_3" d="M36.9,63h-1.8l-1.4-2.5V63h-1.5v-6.4h2.3c0.3,0,0.6,0,0.8,0.2c0.2,0.1,0.4,0.2,0.6,0.4
			c0.2,0.2,0.3,0.4,0.3,0.6c0.1,0.2,0.1,0.5,0.1,0.8c0,0.4-0.1,0.8-0.3,1.2c-0.2,0.3-0.5,0.5-0.9,0.6L36.9,63z M33.7,59.5H34
			c0.2,0,0.5-0.1,0.7-0.2c0.3-0.3,0.3-0.8,0-1.2c-0.2-0.1-0.4-0.2-0.7-0.2h-0.3V59.5z"></path>
		<path id="Path_91" class="st0 kArhvoyO_4" d="M39.7,58v5h-1.5v-5H37v-1.4h3.9V58H39.7z"></path>
		<path id="Path_92" class="st0 kArhvoyO_5" d="M46.2,63h-1.8L43,60.6V63h-1.5v-6.4h2.3c0.3,0,0.6,0,0.8,0.2c0.2,0.1,0.4,0.2,0.6,0.4
			c0.2,0.2,0.3,0.4,0.3,0.6c0.1,0.2,0.1,0.5,0.1,0.8c0,0.4-0.1,0.8-0.3,1.2c-0.2,0.3-0.5,0.5-0.9,0.6L46.2,63z M43,59.5h0.3
			c0.2,0,0.5-0.1,0.7-0.2c0.3-0.3,0.3-0.8,0-1.2c-0.2-0.1-0.4-0.2-0.7-0.2H43V59.5z"></path>
		<path id="Path_93" class="st0 kArhvoyO_6" d="M50,58h-1.7v1.1h1.6v1.4h-1.6v1.1H50V63h-3.2v-6.4H50V58z"></path>
		<path id="Path_94" class="st0 kArhvoyO_7" d="M54.5,61.9h-2.1L52.1,63h-1.6l2.1-6.4h1.6l2.1,6.4h-1.6L54.5,61.9z M54.1,60.6l-0.7-2.1
			l-0.7,2.1H54.1z"></path>
		<path id="Path_95" class="st0 kArhvoyO_8" d="M58.5,56.6v5h1.7V63H57v-6.4H58.5z"></path>
		<path id="Path_96" class="st0 kArhvoyO_9" d="M62.8,58v5h-1.5v-5h-1.2v-1.4H64V58H62.8z"></path>
		<path id="Path_97" class="st0 kArhvoyO_10" d="M66.4,60l-2-3.3h1.7l1,1.8l1-1.8h1.7l-2,3.3v3h-1.5L66.4,60z"></path>
		<path id="Path_98" class="st0 kArhvoyO_11" d="M69.7,62.2c0-0.1,0-0.3,0.1-0.4c0-0.1,0.1-0.2,0.2-0.3s0.2-0.2,0.3-0.2c0.2-0.1,0.5-0.1,0.7,0
			c0.1,0.1,0.2,0.1,0.3,0.2c0.1,0.1,0.1,0.2,0.2,0.3c0.1,0.3,0.1,0.5,0,0.8c0,0.1-0.1,0.2-0.2,0.3s-0.2,0.2-0.3,0.2
			c-0.2,0.1-0.5,0.1-0.7,0C70.2,63,70.1,63,70,62.9c-0.1-0.1-0.1-0.2-0.2-0.3S69.7,62.4,69.7,62.2z"></path>
		<path id="Path_99" class="st0 kArhvoyO_12" d="M76.4,58.8c-0.3-0.4-0.7-0.7-1.2-0.7c-0.2,0-0.4,0-0.6,0.1s-0.3,0.2-0.5,0.4
			c-0.1,0.2-0.2,0.4-0.3,0.6c-0.1,0.2-0.1,0.5-0.1,0.7s0,0.5,0.1,0.7s0.2,0.4,0.3,0.6c0.1,0.2,0.3,0.3,0.5,0.4
			c0.2,0.1,0.4,0.1,0.6,0.1c0.5,0,1-0.3,1.3-0.7v2l-0.2,0c-0.2,0.1-0.4,0.2-0.6,0.2s-0.4,0.1-0.6,0.1c-0.4,0-0.8-0.1-1.1-0.3
			c-0.4-0.2-0.7-0.4-0.9-0.7c-0.3-0.3-0.5-0.7-0.7-1.1c-0.3-0.9-0.3-1.9,0-2.7c0.1-0.4,0.4-0.8,0.6-1.1c0.3-0.3,0.6-0.5,0.9-0.7
			c0.4-0.2,0.7-0.3,1.1-0.3c0.2,0,0.4,0,0.7,0.1c0.2,0.1,0.5,0.1,0.7,0.3V58.8z"></path>
		<path id="Path_100" class="st0 kArhvoyO_13" d="M77.2,59.8c0-0.5,0.1-0.9,0.2-1.3c0.1-0.4,0.4-0.8,0.6-1.1c0.3-0.3,0.6-0.6,1-0.7
			c0.8-0.3,1.7-0.3,2.5,0c0.4,0.2,0.7,0.4,1,0.7s0.5,0.7,0.6,1.1c0.3,0.9,0.3,1.8,0,2.7c-0.1,0.4-0.4,0.8-0.6,1.1
			c-0.3,0.3-0.6,0.6-1,0.7c-0.8,0.3-1.7,0.3-2.5,0c-0.4-0.2-0.7-0.4-1-0.7s-0.5-0.7-0.6-1.1C77.3,60.7,77.2,60.3,77.2,59.8z
			 M78.7,59.8c0,0.2,0,0.5,0.1,0.7s0.2,0.4,0.3,0.6c0.1,0.2,0.3,0.3,0.5,0.4c0.4,0.2,0.8,0.2,1.2,0c0.2-0.1,0.4-0.2,0.5-0.4
			s0.3-0.4,0.3-0.6c0.2-0.5,0.2-1,0-1.4c-0.1-0.2-0.2-0.4-0.3-0.6c-0.1-0.2-0.3-0.3-0.5-0.4c-0.4-0.2-0.8-0.2-1.2,0
			c-0.2,0.1-0.4,0.2-0.5,0.4s-0.3,0.4-0.3,0.6C78.7,59.3,78.7,59.6,78.7,59.8z"></path>
	</g>
</g>
<path class="st1 kArhvoyO_14" d="M63.8,41.4H37.7v-0.2c0.1-0.1,0.3-0.3,0.4-0.4c3.6-3.1,8.2-6.1,11.7-9.2c0.2-0.1,0.3-0.2,0.5-0.1
	c4.8,3.1,8.5,6.3,13.3,9.5c0.1,0.1,0.2,0.1,0.2,0.2L63.8,41.4z M49.9,15.4c15.4,0,27.9,12.5,27.9,27.9S65.3,71.2,49.9,71.2
	S22,58.7,22,43.3S34.5,15.4,49.9,15.4z"></path>
<g>
	<path class="st0 kArhvoyO_15" d="M42.8,52.5l0.8-1.8c0.7,0.5,1.8,0.8,2.8,0.8s1.4-0.3,1.4-0.7c0-1.3-4.8-0.4-4.8-3.5c0-1.5,1.2-2.7,3.7-2.7
		c1.1,0,2.2,0.3,3,0.7L49,47.2c-0.8-0.4-1.6-0.6-2.3-0.6c-1,0-1.4,0.3-1.4,0.8c0,1.3,4.8,0.3,4.8,3.4c0,1.5-1.2,2.7-3.7,2.7
		C44.9,53.4,43.6,53,42.8,52.5z"></path>
	<path class="st0 kArhvoyO_16" d="M54.8,51h-1.3v2.2h-2.4v-8.4H55c2.3,0,3.7,1.2,3.7,3.1c0,1.2-0.6,2.1-1.6,2.7l1.8,2.6h-2.5L54.8,51z
		 M54.8,46.7h-1.3v2.5h1.3c1,0,1.5-0.5,1.5-1.2C56.3,47.2,55.8,46.7,54.8,46.7z"></path>
</g>
<style data-made-with="vivus-instant">.kArhvoyO_0{stroke-dasharray:26 28;stroke-dashoffset:27;animation:kArhvoyO_draw 2000ms linear 0ms forwards;}.kArhvoyO_1{stroke-dasharray:42 44;stroke-dashoffset:43;animation:kArhvoyO_draw 2000ms linear 62ms forwards;}.kArhvoyO_2{stroke-dasharray:29 31;stroke-dashoffset:30;animation:kArhvoyO_draw 2000ms linear 125ms forwards;}.kArhvoyO_3{stroke-dasharray:31 33;stroke-dashoffset:32;animation:kArhvoyO_draw 2000ms linear 187ms forwards;}.kArhvoyO_4{stroke-dasharray:21 23;stroke-dashoffset:22;animation:kArhvoyO_draw 2000ms linear 250ms forwards;}.kArhvoyO_5{stroke-dasharray:31 33;stroke-dashoffset:32;animation:kArhvoyO_draw 2000ms linear 312ms forwards;}.kArhvoyO_6{stroke-dasharray:26 28;stroke-dashoffset:27;animation:kArhvoyO_draw 2000ms linear 375ms forwards;}.kArhvoyO_7{stroke-dasharray:29 31;stroke-dashoffset:30;animation:kArhvoyO_draw 2000ms linear 437ms forwards;}.kArhvoyO_8{stroke-dasharray:20 22;stroke-dashoffset:21;animation:kArhvoyO_draw 2000ms linear 500ms forwards;}.kArhvoyO_9{stroke-dasharray:21 23;stroke-dashoffset:22;animation:kArhvoyO_draw 2000ms linear 562ms forwards;}.kArhvoyO_10{stroke-dasharray:23 25;stroke-dashoffset:24;animation:kArhvoyO_draw 2000ms linear 625ms forwards;}.kArhvoyO_11{stroke-dasharray:7 9;stroke-dashoffset:8;animation:kArhvoyO_draw 2000ms linear 687ms forwards;}.kArhvoyO_12{stroke-dasharray:26 28;stroke-dashoffset:27;animation:kArhvoyO_draw 2000ms linear 750ms forwards;}.kArhvoyO_13{stroke-dasharray:32 34;stroke-dashoffset:33;animation:kArhvoyO_draw 2000ms linear 812ms forwards;}.kArhvoyO_14{stroke-dasharray:235 237;stroke-dashoffset:236;animation:kArhvoyO_draw 2000ms linear 875ms forwards;}.kArhvoyO_15{stroke-dasharray:44 46;stroke-dashoffset:45;animation:kArhvoyO_draw 2000ms linear 937ms forwards;}.kArhvoyO_16{stroke-dasharray:45 47;stroke-dashoffset:46;animation:kArhvoyO_draw 2000ms linear 1000ms forwards;}@keyframes kArhvoyO_draw{100%{stroke-dashoffset:0;}}@keyframes kArhvoyO_fade{0%{stroke-opacity:1;}94.44444444444444%{stroke-opacity:1;}100%{stroke-opacity:0;}}</style></svg>
