<?xml version="1.0" encoding="utf-8"?>
<!-- Generator: Adobe Illustrator 24.2.1, SVG Export Plug-In . SVG Version: 6.00 Build 0)  -->
<svg version="1.1" id="Layer_1" xmlns="http://www.w3.org/2000/svg" xmlns:xlink="http://www.w3.org/1999/xlink" x="0px" y="0px"
	 viewBox="0 0 100 100" style="enable-background:new 0 0 100 100;" xml:space="preserve">
<style type="text/css">
	.st0{enable-background:new    ;}
	.st1{fill:none;stroke:#D1A250;stroke-width:0.25;stroke-linecap:round;stroke-linejoin:round;stroke-miterlimit:10;}
	.st2{fill:none;stroke:#D1A250;stroke-linecap:round;stroke-linejoin:round;stroke-miterlimit:10;}
</style>
<g class="st0">
	<path class="st1" d="M17.4,76.9v5.4h-1.2v-4.4h-1.1v-1C15.1,76.9,17.4,76.9,17.4,76.9z"/>
	<path class="st1" d="M20.4,76.9v5.4h-1.2v-4.4h-1.1v-1C18.1,76.9,20.4,76.9,20.4,76.9z"/>
	<path class="st1" d="M25.5,76.9v0.8l-2,4.6h-1.4l1.9-4.4h-1.8v0.9h-1.1v-1.9H25.5z"/>
	<path class="st1" d="M25.9,79.6c0-1.8,1-2.8,2.3-2.8s2.3,1,2.3,2.8s-1,2.8-2.3,2.8S25.9,81.4,25.9,79.6z M29.3,79.6
		c0-1.2-0.4-1.7-1.1-1.7c-0.6,0-1,0.5-1,1.7s0.4,1.7,1,1.7C28.9,81.4,29.3,80.9,29.3,79.6z"/>
</g>
<g class="st0">
	<path class="st1" d="M35.9,81.4h-2l-0.4,0.9h-1l1.9-4.3h1l1.9,4.3h-1L35.9,81.4z M35.6,80.6L34.9,79l-0.7,1.6H35.6z"/>
	<path class="st1" d="M41.3,80.7c0,1-0.7,1.7-1.6,1.7c-0.4,0-0.8-0.1-1-0.4v1.5h-1V79h0.9v0.4c0.2-0.3,0.6-0.4,1-0.4
		C40.6,79,41.3,79.6,41.3,80.7z M40.4,80.7c0-0.6-0.4-0.9-0.8-0.9c-0.5,0-0.8,0.3-0.8,0.9s0.4,0.9,0.8,0.9S40.4,81.2,40.4,80.7z"/>
	<path class="st1" d="M44.9,80.4v1.9H44v-0.4c-0.2,0.3-0.5,0.5-1,0.5c-0.8,0-1.2-0.4-1.2-1s0.4-1,1.4-1H44c0-0.4-0.2-0.7-0.8-0.7
		c-0.4,0-0.7,0.1-1,0.3l-0.3-0.7c0.4-0.3,0.9-0.4,1.4-0.4C44.3,79,44.9,79.4,44.9,80.4z M43.9,81.3V81h-0.7c-0.4,0-0.6,0.2-0.6,0.4
		s0.2,0.4,0.5,0.4C43.5,81.7,43.8,81.6,43.9,81.3z"/>
	<path class="st1" d="M47.8,79v0.9h-0.2c-0.5,0-0.9,0.3-0.9,0.9v1.6h-1V79h0.9v0.4C46.9,79.1,47.3,79,47.8,79z"/>
	<path class="st1" d="M50.6,82.2c-0.2,0.1-0.5,0.2-0.8,0.2c-0.8,0-1.2-0.4-1.2-1.2v-1.4h-0.5v-0.7h0.5v-0.8h1v0.8h0.8v0.7h-0.8v1.3
		c0,0.3,0.2,0.4,0.4,0.4c0.1,0,0.3,0,0.4-0.1C50.4,81.4,50.6,82.2,50.6,82.2z"/>
	<path class="st1" d="M56.7,80.4v1.9h-1v-1.7c0-0.5-0.2-0.8-0.6-0.8s-0.7,0.3-0.7,0.9v1.7h-1v-1.7c0-0.5-0.2-0.8-0.6-0.8
		s-0.7,0.3-0.7,0.9v1.7h-1V79H52v0.4c0.2-0.3,0.6-0.4,1-0.4c0.5,0,0.9,0.2,1.1,0.5c0.3-0.3,0.7-0.5,1.2-0.5
		C56.2,79,56.7,79.4,56.7,80.4z"/>
	<path class="st1" d="M60.8,80.9h-2.5c0.1,0.4,0.4,0.7,0.9,0.7c0.4,0,0.6-0.1,0.8-0.3l0.5,0.6c-0.3,0.3-0.8,0.5-1.4,0.5
		c-1.1,0-1.9-0.7-1.9-1.7S58,79,59,79s1.7,0.7,1.7,1.7C60.9,80.8,60.8,80.9,60.8,80.9z M58.3,80.4H60c-0.1-0.4-0.4-0.7-0.8-0.7
		C58.7,79.7,58.4,80,58.3,80.4z"/>
	<path class="st1" d="M64.9,80.4v1.9h-1v-1.7c0-0.5-0.2-0.8-0.7-0.8s-0.8,0.3-0.8,0.9v1.6h-1V79h0.9v0.4c0.3-0.3,0.6-0.4,1.1-0.4
		C64.3,79,64.9,79.4,64.9,80.4z"/>
	<path class="st1" d="M67.9,82.2c-0.2,0.1-0.5,0.2-0.8,0.2c-0.8,0-1.2-0.4-1.2-1.2v-1.4h-0.5v-0.7h0.5v-0.8h1v0.8h0.8v0.7h-0.8v1.3
		c0,0.3,0.2,0.4,0.4,0.4c0.1,0,0.3,0,0.4-0.1C67.7,81.4,67.9,82.2,67.9,82.2z"/>
	<path class="st1" d="M70,80.2c0-1.3,1-2.2,2.3-2.2c0.7,0,1.4,0.3,1.8,0.8l-0.6,0.6c-0.3-0.3-0.7-0.5-1.1-0.5
		c-0.8,0-1.4,0.6-1.4,1.4s0.6,1.4,1.4,1.4c0.4,0,0.8-0.2,1.1-0.5l0.6,0.6c-0.4,0.5-1,0.8-1.8,0.8C71,82.4,70,81.5,70,80.2z"/>
	<path class="st1" d="M74.3,80.7c0-1,0.8-1.7,1.8-1.7c1.1,0,1.8,0.7,1.8,1.7s-0.8,1.7-1.8,1.7S74.3,81.7,74.3,80.7z M77,80.7
		c0-0.6-0.4-0.9-0.8-0.9c-0.5,0-0.8,0.3-0.8,0.9s0.4,0.9,0.8,0.9S77,81.2,77,80.7z"/>
	<path class="st1" d="M80.6,79v0.9h-0.2c-0.5,0-0.9,0.3-0.9,0.9v1.6h-1V79h0.9v0.4C79.7,79.1,80.1,79,80.6,79z"/>
	<path class="st1" d="M84.8,80.7c0,1-0.7,1.7-1.6,1.7c-0.4,0-0.8-0.1-1-0.4v1.5h-1V79h0.9v0.4c0.2-0.3,0.6-0.4,1-0.4
		C84.1,79,84.8,79.6,84.8,80.7z M83.8,80.7c0-0.6-0.4-0.9-0.8-0.9s-0.8,0.3-0.8,0.9s0.4,0.9,0.8,0.9S83.8,81.2,83.8,80.7z"/>
</g>
<path class="st2" d="M23.1,29.2l27.1-15.3l26.5,15.3L50,44.7C50,44.7,23.1,29.2,23.1,29.2z M23.1,36.9l26.6,15.3l27.1-15.3
	L50.2,20.8C50.2,20.8,23.1,36.9,23.1,36.9z M50.2,13.9v6.9 M22.6,36.9v-7.7 M77.1,29.2v7.7 M49.7,52.2v-7.5 M50,61.5L76.7,46
	L50.2,30.7L23.1,46L50,61.5z M23.1,53.7L49.7,69l27.1-15.3L50.2,37.6C50.2,37.6,23.1,53.7,23.1,53.7z M50.2,30.7v6.9 M22.6,53.7V46
	 M77.1,46v7.7 M49.7,69v-7.5"/>
</svg>
