<?xml version="1.0" encoding="utf-8"?>
<!-- Generator: Adobe Illustrator 24.2.1, SVG Export Plug-In . SVG Version: 6.00 Build 0)  -->
<svg version="1.1" id="Layer_1" xmlns="http://www.w3.org/2000/svg" xmlns:xlink="http://www.w3.org/1999/xlink" x="0px" y="0px"
	 viewBox="0 0 100 100" style="enable-background:new 0 0 100 100;" xml:space="preserve">
<style type="text/css">
	.st0{fill:url(#SVGID_1_);}
	.st1{fill:url(#SVGID_2_);}
	.st2{fill:none;stroke:url(#SVGID_3_);stroke-width:2;stroke-linecap:round;stroke-linejoin:round;stroke-miterlimit:10;}
</style>
<g>
	<radialGradient id="SVGID_1_" cx="57.1386" cy="57.9558" r="1.8128" gradientUnits="userSpaceOnUse">
		<stop  offset="0.8924" style="stop-color:#CCBDA8"/>
		<stop  offset="1" style="stop-color:#F9F1E5"/>
	</radialGradient>
	<path class="st0" d="M57,56.2h-1.8v3.4H57c1.4,0,2-0.7,2-1.6C59.1,56.9,58.4,56.2,57,56.2z"/>
	<radialGradient id="SVGID_2_" cx="49.9796" cy="51.3464" r="38.3686" gradientUnits="userSpaceOnUse">
		<stop  offset="0.8924" style="stop-color:#CCBDA8"/>
		<stop  offset="1" style="stop-color:#F9F1E5"/>
	</radialGradient>
	<path class="st1" d="M50,13c-21.2,0-38.4,17.2-38.4,38.4c0,21.2,17.2,38.4,38.4,38.4c21.2,0,38.4-17.2,38.4-38.4
		C88.3,30.2,71.2,13,50,13z M45.5,65.5c-2-0.1-3.8-0.7-4.9-1.4l1.1-2.5c1,0.7,2.5,1.1,3.8,1.1s1.9-0.4,1.9-1c0-1.8-6.6-0.5-6.6-4.8
		c0-2,1.6-3.7,5.1-3.7c1.5,0,3,0.4,4.1,1l-1,2.6c-1.1-0.5-2.2-0.8-3.1-0.8c-1.4,0-1.9,0.4-1.9,1.1c0,1.8,6.6,0.4,6.6,4.6
		C50.6,63.9,48.9,65.5,45.5,65.5z M59.2,65.1l-2.2-3h-1.8v3h-3.3V53.7h5.3c3.1,0,5.1,1.6,5.1,4.2c0,1.6-0.8,2.9-2.2,3.7l2.5,3.6
		H59.2z"/>
</g>
<linearGradient id="SVGID_3_" gradientUnits="userSpaceOnUse" x1="11.1976" y1="51.604" x2="89.4197" y2="51.604">
	<stop  offset="0" style="stop-color:#CCBDA8"/>
	<stop  offset="1" style="stop-color:#F9F1E5"/>
</linearGradient>
<path class="st2" d="M69.3,49H33.6v-0.3c0.1-0.1,0.4-0.4,0.5-0.5c4.9-4.2,11.2-8.3,16-12.6c0.3-0.1,0.4-0.3,0.7-0.1
	c6.6,4.2,11.6,8.6,18.2,13c0.1,0.1,0.3,0.1,0.3,0.3L69.3,49z M50.3,13.5c21,0,38.1,17.1,38.1,38.1S71.3,89.7,50.3,89.7
	S12.2,72.6,12.2,51.6S29.3,13.5,50.3,13.5z"/>
</svg>
