<!--?xml version="1.0" encoding="UTF-8"?-->
<svg enable-background="new 0 0 100 100" version="1.1" viewBox="0 0 100 100" xml:space="preserve" xmlns="http://www.w3.org/2000/svg" style="">
<style type="text/css">
	.st0{enable-background:new    ;}
	.st1{fill:#D1A250;}
	.st2{fill:none;stroke:#D1A250;stroke-linecap:round;stroke-linejoin:round;stroke-miterlimit:10;}
</style>
<g class="st0">
	<path class="st1 YIrrTUxp_0" d="m17.4 76.9v5.4h-1.2v-4.4h-1.1v-1h2.3z"></path>
	<path class="st1 YIrrTUxp_1" d="m20.4 76.9v5.4h-1.2v-4.4h-1.1v-1h2.3z"></path>
	<path class="st1 YIrrTUxp_2" d="m25.5 76.9v0.8l-2 4.6h-1.4l1.9-4.4h-1.8v0.9h-1.1v-1.9h4.4z"></path>
	<path class="st1 YIrrTUxp_3" d="m25.9 79.6c0-1.8 1-2.8 2.3-2.8s2.3 1 2.3 2.8-1 2.8-2.3 2.8-2.3-1-2.3-2.8zm3.4 0c0-1.2-0.4-1.7-1.1-1.7-0.6 0-1 0.5-1 1.7s0.4 1.7 1 1.7c0.7 0.1 1.1-0.4 1.1-1.7z"></path>
</g>
<g class="st0">
	<path class="st1 YIrrTUxp_4" d="m35.9 81.4h-2l-0.4 0.9h-1l1.9-4.3h1l1.9 4.3h-1l-0.4-0.9zm-0.3-0.8-0.7-1.6-0.7 1.6h1.4z"></path>
	<path class="st1 YIrrTUxp_5" d="m41.3 80.7c0 1-0.7 1.7-1.6 1.7-0.4 0-0.8-0.1-1-0.4v1.5h-1v-4.5h0.9v0.4c0.2-0.3 0.6-0.4 1-0.4 1 0 1.7 0.6 1.7 1.7zm-0.9 0c0-0.6-0.4-0.9-0.8-0.9-0.5 0-0.8 0.3-0.8 0.9s0.4 0.9 0.8 0.9 0.8-0.4 0.8-0.9z"></path>
	<path class="st1 YIrrTUxp_6" d="m44.9 80.4v1.9h-0.9v-0.4c-0.2 0.3-0.5 0.5-1 0.5-0.8 0-1.2-0.4-1.2-1s0.4-1 1.4-1h0.8c0-0.4-0.2-0.7-0.8-0.7-0.4 0-0.7 0.1-1 0.3l-0.3-0.7c0.4-0.3 0.9-0.4 1.4-0.4 1 0.1 1.6 0.5 1.6 1.5zm-1 0.9v-0.3h-0.7c-0.4 0-0.6 0.2-0.6 0.4s0.2 0.4 0.5 0.4c0.4-0.1 0.7-0.2 0.8-0.5z"></path>
	<path class="st1 YIrrTUxp_7" d="m47.8 79v0.9h-0.2c-0.5 0-0.9 0.3-0.9 0.9v1.6h-1v-3.4h0.9v0.4c0.3-0.3 0.7-0.4 1.2-0.4z"></path>
	<path class="st1 YIrrTUxp_8" d="m50.6 82.2c-0.2 0.1-0.5 0.2-0.8 0.2-0.8 0-1.2-0.4-1.2-1.2v-1.4h-0.5v-0.7h0.5v-0.8h1v0.8h0.8v0.7h-0.8v1.3c0 0.3 0.2 0.4 0.4 0.4 0.1 0 0.3 0 0.4-0.1l0.2 0.8z"></path>
	<path class="st1 YIrrTUxp_9" d="m56.7 80.4v1.9h-1v-1.7c0-0.5-0.2-0.8-0.6-0.8s-0.7 0.3-0.7 0.9v1.7h-1v-1.7c0-0.5-0.2-0.8-0.6-0.8s-0.7 0.3-0.7 0.9v1.7h-1v-3.5h0.9v0.4c0.2-0.3 0.6-0.4 1-0.4 0.5 0 0.9 0.2 1.1 0.5 0.3-0.3 0.7-0.5 1.2-0.5 0.9 0 1.4 0.4 1.4 1.4z"></path>
	<path class="st1 YIrrTUxp_10" d="m60.8 80.9h-2.5c0.1 0.4 0.4 0.7 0.9 0.7 0.4 0 0.6-0.1 0.8-0.3l0.5 0.6c-0.3 0.3-0.8 0.5-1.4 0.5-1.1 0-1.9-0.7-1.9-1.7s0.8-1.7 1.8-1.7 1.7 0.7 1.7 1.7c0.2 0.1 0.1 0.2 0.1 0.2zm-2.5-0.5h1.7c-0.1-0.4-0.4-0.7-0.8-0.7-0.5 0-0.8 0.3-0.9 0.7z"></path>
	<path class="st1 YIrrTUxp_11" d="m64.9 80.4v1.9h-1v-1.7c0-0.5-0.2-0.8-0.7-0.8s-0.8 0.3-0.8 0.9v1.6h-1v-3.3h0.9v0.4c0.3-0.3 0.6-0.4 1.1-0.4 0.9 0 1.5 0.4 1.5 1.4z"></path>
	<path class="st1 YIrrTUxp_12" d="m67.9 82.2c-0.2 0.1-0.5 0.2-0.8 0.2-0.8 0-1.2-0.4-1.2-1.2v-1.4h-0.5v-0.7h0.5v-0.8h1v0.8h0.8v0.7h-0.8v1.3c0 0.3 0.2 0.4 0.4 0.4 0.1 0 0.3 0 0.4-0.1l0.2 0.8z"></path>
	<path class="st1 YIrrTUxp_13" d="m70 80.2c0-1.3 1-2.2 2.3-2.2 0.7 0 1.4 0.3 1.8 0.8l-0.6 0.6c-0.3-0.3-0.7-0.5-1.1-0.5-0.8 0-1.4 0.6-1.4 1.4s0.6 1.4 1.4 1.4c0.4 0 0.8-0.2 1.1-0.5l0.6 0.6c-0.4 0.5-1 0.8-1.8 0.8-1.3-0.2-2.3-1.1-2.3-2.4z"></path>
	<path class="st1 YIrrTUxp_14" d="m74.3 80.7c0-1 0.8-1.7 1.8-1.7 1.1 0 1.8 0.7 1.8 1.7s-0.8 1.7-1.8 1.7-1.8-0.7-1.8-1.7zm2.7 0c0-0.6-0.4-0.9-0.8-0.9-0.5 0-0.8 0.3-0.8 0.9s0.4 0.9 0.8 0.9 0.8-0.4 0.8-0.9z"></path>
	<path class="st1 YIrrTUxp_15" d="m80.6 79v0.9h-0.2c-0.5 0-0.9 0.3-0.9 0.9v1.6h-1v-3.4h0.9v0.4c0.3-0.3 0.7-0.4 1.2-0.4z"></path>
	<path class="st1 YIrrTUxp_16" d="m84.8 80.7c0 1-0.7 1.7-1.6 1.7-0.4 0-0.8-0.1-1-0.4v1.5h-1v-4.5h0.9v0.4c0.2-0.3 0.6-0.4 1-0.4 1 0 1.7 0.6 1.7 1.7zm-1 0c0-0.6-0.4-0.9-0.8-0.9s-0.8 0.3-0.8 0.9 0.4 0.9 0.8 0.9 0.8-0.4 0.8-0.9z"></path>
</g>
<path class="st2 YIrrTUxp_17" d="m23.1 29.2 27.1-15.3 26.5 15.3-26.7 15.5-26.9-15.5zm0 7.7 26.6 15.3 27.1-15.3-26.6-16.1-27.1 16.1zm27.1-23v6.9m-27.6 16.1v-7.7m54.5 0v7.7m-27.4 15.3v-7.5m0.3 16.8 26.7-15.5-26.5-15.3-27.1 15.3 26.9 15.5zm-26.9-7.8 26.6 15.3 27.1-15.3-26.6-16.1-27.1 16.1zm27.1-23v6.9m-27.6 16.1v-7.7m54.5 0v7.7m-27.4 15.3v-7.5"></path>
<style data-made-with="vivus-instant">.YIrrTUxp_0{stroke-dasharray:16 18;stroke-dashoffset:17;animation:YIrrTUxp_draw 2000ms linear 0ms forwards;}.YIrrTUxp_1{stroke-dasharray:16 18;stroke-dashoffset:17;animation:YIrrTUxp_draw 2000ms linear 58ms forwards;}.YIrrTUxp_2{stroke-dasharray:23 25;stroke-dashoffset:24;animation:YIrrTUxp_draw 2000ms linear 117ms forwards;}.YIrrTUxp_3{stroke-dasharray:26 28;stroke-dashoffset:27;animation:YIrrTUxp_draw 2000ms linear 176ms forwards;}.YIrrTUxp_4{stroke-dasharray:22 24;stroke-dashoffset:23;animation:YIrrTUxp_draw 2000ms linear 235ms forwards;}.YIrrTUxp_5{stroke-dasharray:22 24;stroke-dashoffset:23;animation:YIrrTUxp_draw 2000ms linear 294ms forwards;}.YIrrTUxp_6{stroke-dasharray:20 22;stroke-dashoffset:21;animation:YIrrTUxp_draw 2000ms linear 352ms forwards;}.YIrrTUxp_7{stroke-dasharray:12 14;stroke-dashoffset:13;animation:YIrrTUxp_draw 2000ms linear 411ms forwards;}.YIrrTUxp_8{stroke-dasharray:14 16;stroke-dashoffset:15;animation:YIrrTUxp_draw 2000ms linear 470ms forwards;}.YIrrTUxp_9{stroke-dasharray:28 30;stroke-dashoffset:29;animation:YIrrTUxp_draw 2000ms linear 529ms forwards;}.YIrrTUxp_10{stroke-dasharray:20 22;stroke-dashoffset:21;animation:YIrrTUxp_draw 2000ms linear 588ms forwards;}.YIrrTUxp_11{stroke-dasharray:18 20;stroke-dashoffset:19;animation:YIrrTUxp_draw 2000ms linear 647ms forwards;}.YIrrTUxp_12{stroke-dasharray:14 16;stroke-dashoffset:15;animation:YIrrTUxp_draw 2000ms linear 705ms forwards;}.YIrrTUxp_13{stroke-dasharray:20 22;stroke-dashoffset:21;animation:YIrrTUxp_draw 2000ms linear 764ms forwards;}.YIrrTUxp_14{stroke-dasharray:17 19;stroke-dashoffset:18;animation:YIrrTUxp_draw 2000ms linear 823ms forwards;}.YIrrTUxp_15{stroke-dasharray:12 14;stroke-dashoffset:13;animation:YIrrTUxp_draw 2000ms linear 882ms forwards;}.YIrrTUxp_16{stroke-dasharray:22 24;stroke-dashoffset:23;animation:YIrrTUxp_draw 2000ms linear 941ms forwards;}.YIrrTUxp_17{stroke-dasharray:556 558;stroke-dashoffset:557;animation:YIrrTUxp_draw 2000ms linear 1000ms forwards;}@keyframes YIrrTUxp_draw{100%{stroke-dashoffset:0;}}@keyframes YIrrTUxp_fade{0%{stroke-opacity:1;}94.44444444444444%{stroke-opacity:1;}100%{stroke-opacity:0;}}</style></svg>
