<?xml version="1.0" encoding="utf-8"?>
<!-- Generator: Adobe Illustrator 24.2.1, SVG Export Plug-In . SVG Version: 6.00 Build 0)  -->
<svg version="1.1" xmlns="http://www.w3.org/2000/svg" xmlns:xlink="http://www.w3.org/1999/xlink" x="0px" y="0px"
	 viewBox="0 0 100 100" style="enable-background:new 0 0 100 100;" xml:space="preserve">
<style type="text/css">
	.st0{fill:#FFEBCA;}
</style>
<g id="Layer_1">
	<path class="st0" d="M58.1,60.8L58.1,60.8c-1.4,0-2.5-1.1-2.5-2.5v-1c0-1.4,1.1-2.5,2.5-2.5h0c1.4,0,2.5,1.1,2.5,2.5v1
		C60.6,59.7,59.5,60.8,58.1,60.8z"/>
	<g>
		<path class="st0" d="M60.6,194.8C60.6,194.8,60.6,194.8,60.6,194.8"/>
	</g>
</g>
<g id="Layer_2">
	<path class="st0" d="M58.1,68.1L58.1,68.1c-1.4,0-2.5-1.1-2.5-2.5v-8.3c0-1.4,1.1-2.5,2.5-2.5h0c1.4,0,2.5,1.1,2.5,2.5v8.3
		C60.6,67,59.5,68.1,58.1,68.1z"/>
</g>
<g id="Layer_3">
	<path class="st0" d="M58.1,72.5L58.1,72.5c-1.4,0-2.5-1.1-2.5-2.5V57.4c0-1.4,1.1-2.5,2.5-2.5h0c1.4,0,2.5,1.1,2.5,2.5v12.7
		C60.6,71.4,59.5,72.5,58.1,72.5z"/>
</g>
<g id="Layer_4">
	<path class="st0" d="M60.6,57.4v12.3c0,1.6-1.1,2.8-2.5,2.8h0c-1.4,0-2.5-1.3-2.5-2.8V57.4"/>
	<g>
		<path class="st0" d="M60.6,57.4c0-1.5-1.2-2.6-2.7-2.5c-1.3,0.1-2.3,1.4-2.3,2.6v11h0c-1-0.3-2.1,0.4-2.2,1.5v0
			c-0.2,1.7,0.9,3.2,2.5,3.6l4.7,1.2V57.4z"/>
	</g>
</g>
<g id="Layer_5">
	<g>
		<path class="st0" d="M60.6,57.4c0-2-2.2-3.4-4.4-1.9c-0.4,0.3-0.6,0.8-0.6,1.3l0,11.1c0,0.5-0.1,0.6-0.2,0.6l-2.8-0.7
			c-1.8-0.4-3.5,0.9-3.5,2.7v0c0,0.9,0.6,1.6,1.4,1.8l9.8,2.5c0.1,0,0.2,0,0.2-0.1V57.4z"/>
	</g>
</g>
<g id="Layer_6">
	<path class="st0" d="M60.6,74.8V57.4c0-1.3-1-2.4-2.3-2.5c-1.5-0.1-2.7,1.2-2.7,2.7v10.9c0,0,0,0,0,0L49.8,67
		c-1.2-0.3-2.5,0.2-3.1,1.3l0,0c-0.7,1.3-0.1,2.9,1.4,3.3L60.6,74.8"/>
	<path class="st0" d="M55.5,36.2c0,0.3,1,1.4,2.3,1.4c1.5,0,2.7-1.1,2.7-1.5h0c0-0.3-1.1-1.2-2.4-1.2h0C56.7,35,55.5,35.9,55.5,36.2
		L55.5,36.2z"/>
</g>
<g id="Layer_7">
	<path class="st0" d="M45.3,71l15.2,3.8c0,0,0,0,0,0V57.4c0-1.3-1-2.4-2.3-2.5c-1.5-0.1-2.7,1.2-2.7,2.7l0,10.7c0,0.2,0,0.2,0,0.2
		l-7.9-2C46,66.1,45.6,66,44.2,67l-0.4,0.5C42.5,69.3,43.9,70.6,45.3,71z"/>
	<path class="st0" d="M55.5,35.9c0,0.9,1,1.6,2.3,1.7c1.5,0.1,2.7-0.8,2.7-1.8l0-3.9c0-0.9-1.1-1.6-2.4-1.6h0
		c-1.5,0-2.6,0.8-2.6,1.8V35.9z"/>
</g>
<g id="Layer_8">
	<g>
		<path class="st0" d="M45.7,66l9.8,2.5c0,0,0,0,0,0V57.6c0-1.5,1.2-2.8,2.7-2.7c1.3,0.1,2.3,1.2,2.3,2.5v17.4c0,0,0,0,0,0l-19.7-5
			c0,0,0,0,0,0V56.5c0-1.2,0.9-2.8,2.4-2.5l0,0c1.6,0.8,2.5,2.4,2.5,4.1L45.7,66C45.7,66,45.7,66,45.7,66z"/>
		<path class="st0" d="M55.5,35.1c0,1.3,1,2.4,2.3,2.5c1.5,0.1,2.7-1.2,2.7-2.7l0-5.8c0-1.3-1.1-2.4-2.4-2.4h0
			c-1.5,0-2.6,1.2-2.6,2.6V35.1z"/>
	</g>
</g>
<g id="Layer_9">
	<g>
		<path class="st0" d="M40.8,69.8l19.7,5c0,0,0,0,0,0V57.6c0-1.5-1.2-2.8-2.7-2.7c-1.3,0.1-2.3,1.2-2.3,2.5v11.1c0,0,0,0,0,0
			L45.7,66c0,0,0,0,0,0V55.7c0,0,0,0,0,0l3.8-2.2c1.4-0.8,1.6-2.6,0.5-3.7l0,0c-0.9-0.9-2.2-1-3.2-0.4l-5.9,3.5c0,0,0,0,0,0
			L40.8,69.8C40.8,69.8,40.8,69.8,40.8,69.8z"/>
		<path class="st0" d="M55.5,35.1c0,1.3,1,2.4,2.3,2.5c1.5,0.1,2.7-1.2,2.7-2.7l0-10.9c0-2.3-1.1-3.3-2.4-3.3H58
			c-1.4,0-2.5,1.1-2.5,2.5V35.1z"/>
	</g>
</g>
<g id="Layer_10">
	<g>
		<path class="st0" d="M58.1,47.1l0-1c0-1.5-1.7-2.4-3-1.7l-14.3,8.3c0,0,0,0,0,0v17c0,0,0,0,0,0l19.7,5c0,0,0,0,0,0V57.6
			c0-1.5-1.2-2.8-2.7-2.7c-1.3,0.1-2.3,1.2-2.3,2.5v11.1c0,0,0,0,0,0L45.7,66c0,0,0,0,0,0V55.7c0,0,0,0,0,0l11.2-6.5
			C57.7,48.8,58.1,48,58.1,47.1z"/>
	</g>
	<path class="st0" d="M55.5,35.1c0,1.3,1,2.4,2.3,2.5c1.5,0.1,2.7-1.2,2.7-2.7l0-16.4c0-2.3-1.1-3.3-2.4-3.3H58
		c-1.4,0-2.5,1.1-2.5,2.5V35.1z"/>
</g>
<g id="Layer_11">
	<g>
		<path class="st0" d="M40.8,52.8v17c0,0,0,0,0,0l19.7,5c0,0,0,0,0,0l0-17.2c0-1.5-1.2-2.8-2.7-2.7c-1.3,0.1-2.3,1.2-2.3,2.5v11.1
			c0,0,0,0,0,0L45.7,66c0,0,0,0,0,0V55.7c0,0,0,0,0,0l12.4-7.2c0,0,0,0,0,0l4.9,2.8c1,0.6,2.3,0.3,2.9-0.7l0,0
			c0.9-1.3,0.4-3.1-0.9-3.8l-7-3.9c0,0,0,0,0,0L40.8,52.8C40.8,52.8,40.8,52.8,40.8,52.8z"/>
	</g>
	<g>
		<path class="st0" d="M57.8,37.6c1.5,0.1,2.7-1.2,2.7-2.7l0-23c0-1.6-1.4-2.7-3-2.4l0,0c-1.2,0.2-2,1.3-2,2.5v23.1
			C55.5,36.4,56.5,37.5,57.8,37.6z"/>
	</g>
</g>
<g id="Layer_12">
	<g>
		<path class="st0" d="M57.8,37.6c1.5,0.1,2.7-1.2,2.7-2.7l0-30c0,0,0,0,0,0L54,8.5c-0.7,0.4-1.1,1.1-1.1,1.9v1.4
			c0,1.3,1.4,2.2,2.6,1.5l0,0c0,0,0,0,0,0v21.8C55.5,36.4,56.5,37.5,57.8,37.6z"/>
	</g>
	<path class="st0" d="M58,42.8l-17.2,10c0,0,0,0,0,0v17c0,0,0,0,0,0l19.7,5c0,0,0,0,0,0l0-17.2c0-1.5-1.2-2.8-2.7-2.7
		c-1.3,0.1-2.3,1.2-2.3,2.5v11.1c0,0,0,0,0,0L45.7,66c0,0,0,0,0,0V55.7c0,0,0,0,0,0l12.4-7.2c0,0,0,0,0,0l9.5,5.3
		c1,0.6,2.3,0.5,3.2-0.2v0c1.3-1,1.1-3-0.3-3.8L58,42.8C58,42.8,58,42.8,58,42.8z"/>
</g>
<g id="Layer_13">
	<g>
		<path class="st0" d="M72.5,50.9L58,42.8l-17.2,10v17l19.8,5l0-17.2c0-1.5-1.2-2.7-2.7-2.7c-1.3,0.1-2.3,1.2-2.3,2.5v11.1L45.7,66
			V55.7l12.4-7.2l11.4,6.4c1,0.5,2.2,0.5,3.1-0.1l0,0C74.1,53.9,74,51.8,72.5,50.9z"/>
	</g>
	<g>
		<path class="st0" d="M55.5,13.3v21.6c0,1.5,1.2,2.7,2.7,2.7c1.3-0.1,2.3-1.2,2.3-2.5V4.9l-13.9,7.7c-1,0.6-1.4,1.8-0.9,2.9l0,0
			c0.7,1.4,2.4,2,3.8,1.2L55.5,13.3z"/>
	</g>
</g>
<g id="Layer_14">
	<g>
		<path class="st0" d="M40.8,52.8v17l19.8,5V57.6c0-1.5-1.2-2.7-2.7-2.7c-1.3,0.1-2.3,1.2-2.3,2.5v11.1L45.7,66V55.7l12.4-7.2
			l13,7.3v4c0,1.5,1.2,2.7,2.7,2.8l0,0c1.2,0,2.2-0.9,2.2-2.2v-7.5L58,42.8L40.8,52.8z"/>
	</g>
	<g>
		<path class="st0" d="M55.5,13.3v21.6c0,1.5,1.2,2.7,2.7,2.7c1.3-0.1,2.3-1.2,2.3-2.5V4.9l-17.2,9.5c-1,0.6-1.5,1.8-1.1,2.9v0
			c0.6,1.4,2.3,2,3.6,1.3L55.5,13.3z"/>
	</g>
</g>
<g id="Layer_15">
	<g>
		<path class="st0" d="M40.8,52.8v17c0,0,0,0,0,0l19.7,5c0,0,0,0,0,0V57.6c0-1.5-1.2-2.8-2.7-2.7c-1.3,0.1-2.3,1.2-2.3,2.5v11.1
			c0,0,0,0,0,0L45.7,66c0,0,0,0,0,0V55.7c0,0,0,0,0,0l12.4-7.2c0,0,0,0,0,0l13,7.3c0,0,0,0,0,0V68c0,1.5,1.2,2.7,2.7,2.8l0,0
			c1.2,0,2.2-0.9,2.2-2.1V52.9c0,0,0,0,0,0L58,42.8c0,0,0,0,0,0L40.8,52.8C40.8,52.8,40.8,52.8,40.8,52.8z"/>
	</g>
	<g>
		<path class="st0" d="M55.5,13.3l0,21.6c0,1.5,1.2,2.8,2.7,2.7c1.3-0.1,2.3-1.2,2.3-2.5V4.9c0,0,0,0,0,0L37.8,17.4
			c-1,0.6-1.5,1.8-1,2.9l0,0c0.6,1.4,2.3,2,3.6,1.3L55.5,13.3C55.5,13.3,55.5,13.3,55.5,13.3z"/>
	</g>
</g>
<g id="Layer_16">
	<path class="st0" d="M40.8,52.8v17l19.8,5V57.6c0-1.5-1.2-2.7-2.7-2.7c-1.3,0.1-2.3,1.2-2.3,2.5v11.1L45.7,66V55.7l12.4-7.2l13,7.3
		v23.1c0,1.4,1.1,2.5,2.5,2.6l0,0c1.3,0,2.4-1,2.4-2.3V52.9L58,42.8L40.8,52.8z"/>
	<path class="st0" d="M57.8,37.6c1.5,0.1,2.7-1.2,2.7-2.7v-30c0,0,0,0,0,0L35,18.9c-1.3,0.7-1.9,2.2-1.4,3.5v0
		c0.4,1.3,1.9,1.9,3,1.2l18.9-10.4c0,0,0,0,0,0v21.8C55.5,36.4,56.5,37.5,57.8,37.6z"/>
	<path class="st0" d="M35.3,32.6"/>
</g>
<g id="Layer_17">
	<g>
		<path class="st0" d="M40.7,52.7v17l19.8,5l0-17.2c0-1.5-1.2-2.7-2.7-2.7c-1.3,0.1-2.3,1.2-2.3,2.5v11.1l-9.9-2.5V55.6L58,48.4
			l13,7.3v29.1c0,1.6,1.3,2.9,2.9,2.9l0,0c1.1,0,2-0.9,2-2V52.8l-18-10.1L40.7,52.7z"/>
	</g>
	<g>
		<path class="st0" d="M55.4,13.2v21.6c0,1.5,1.2,2.7,2.7,2.7c1.3-0.1,2.3-1.2,2.3-2.5V4.8L30.1,21.5c-1,0.5-1.4,1.7-1.1,2.7l0,0
			c0.5,1.5,2.2,2.3,3.6,1.5L55.4,13.2z"/>
	</g>
</g>
<g id="Layer_18">
	<g>
		<path class="st0" d="M58,42.8l-17.2,10v17l19.8,5V57.6c0-1.5-1.2-2.7-2.7-2.7c-1.3,0.1-2.3,1.2-2.3,2.5v11.1L45.7,66V55.7
			l12.4-7.2l13,7.3V89l-3.2-0.8c-1.3-0.3-2.6,0.6-2.8,2l0,0.1c-0.2,1.3,0.7,2.5,2,2.8l8.9,2.1V52.9L58,42.8z"/>
	</g>
	<g>
		<path class="st0" d="M27.4,23.1l33-18.2c0,0,0,0,0,0l0,30c0,1.5-1.2,2.8-2.7,2.7c-1.3-0.1-2.3-1.2-2.3-2.5V13.3c0,0,0,0,0,0
			L30.9,26.9c-1.2,0.6-2.6,0.6-3.7-0.2l0,0C26,25.8,26.1,23.9,27.4,23.1z"/>
	</g>
</g>
<g id="Layer_19">
	<g>
		<path class="st0" d="M24,25v7.4c0,1.5,1.2,2.6,2.7,2.6h0C28,35,29,33.9,29,32.6v-4.7l26.5-14.6l0,21.6c0,1.5,1.2,2.7,2.7,2.7
			c1.3-0.1,2.3-1.2,2.3-2.5V4.9L24,25z"/>
	</g>
	<path class="st0" d="M58,42.8l-17.2,10v17l19.8,5V57.6c0-1.5-1.2-2.7-2.7-2.7c-1.3,0.1-2.3,1.2-2.3,2.5v11.1L45.7,66V55.7l12.4-7.2
		l13,7.3V89l-22.5-5.4c-1.3-0.3-2.6,0.5-2.9,1.8l0,0c-0.3,1.3,0.6,2.7,1.9,3L76,95.2V52.9L58,42.8z"/>
</g>
<g id="Layer_21">
	<g>
		<path class="st0" d="M29,48.5V27.9l26.5-14.6v21.6c0,1.5,1.2,2.7,2.7,2.7c1.3-0.1,2.3-1.2,2.3-2.5V4.9L24,25v23.4
			c0,1.2,0.9,2.3,2,2.5h0C27.6,51.2,29,50.1,29,48.5z"/>
		<path class="st0" d="M58,42.8l-17.2,10c0,0,0,0,0,0v17c0,0,0,0,0,0l19.7,5c0,0,0,0,0,0l0-17.2c0-1.5-1.2-2.8-2.7-2.7
			c-1.3,0.1-2.3,1.2-2.3,2.5v11.1c0,0,0,0,0,0L45.7,66c0,0,0,0,0,0V55.7c0,0,0,0,0,0l12.4-7.2c0,0,0,0,0,0l13,7.3c0,0,0,0,0,0V89
			c0,0,0,0,0,0l-32.7-7.8c-1.4-0.3-2.8,0.6-3.1,1.9v0c-0.3,1.3,0.5,2.5,1.8,2.8L76,95.2c0,0,0,0,0,0V52.9c0,0,0,0,0,0L58,42.8
			C58,42.8,58,42.8,58,42.8z"/>
	</g>
</g>
<g id="Layer_22">
	<g>
		<path class="st0" d="M58,42.8l-17.2,10v17l19.8,5l0-17.2c0-1.5-1.2-2.7-2.7-2.7c-1.3,0.1-2.3,1.2-2.3,2.5v11.1L45.7,66V55.7
			l12.4-7.2l13,7.3V89L29,79c-1.2-0.3-2.5,0.5-2.7,1.7l0,0c-0.3,1.4,0.6,2.8,2,3.2L76,95.2V52.9L58,42.8z"/>
		<path class="st0" d="M29,59.5V27.9c0,0,0,0,0,0l26.4-14.6c0,0,0,0,0,0v21.6c0,1.5,1.2,2.8,2.7,2.7c1.3-0.1,2.3-1.2,2.3-2.5V4.9
			c0,0,0,0,0,0L24,25c0,0,0,0,0,0v33.7c0,1.4,1,2.6,2.4,2.9h0C27.7,61.9,29,60.9,29,59.5z"/>
	</g>
</g>
<g id="Layer_24">
	<g>
		<path class="st0" d="M29.1,67.5V28l26.5-14.6l0,21.6c0,1.5,1.2,2.7,2.7,2.7c1.3-0.1,2.3-1.2,2.3-2.5V5L24.1,25.1v41
			c0,1.6,1.1,3,2.7,3.3h0C28,69.6,29.1,68.7,29.1,67.5z"/>
		<path class="st0" d="M58.1,42.9l-17.2,10v17l19.8,5V57.7c0-1.5-1.2-2.7-2.7-2.7c-1.3,0.1-2.3,1.2-2.3,2.5v11.1l-9.9-2.5V55.8
			l12.4-7.2l13,7.3v33.2l-42.1-10v-4.4c0-1.5-1-2.7-2.4-3l-0.2-0.1c-1.2-0.2-2.3,0.7-2.3,1.9V83l52,12.3V53L58.1,42.9z"/>
	</g>
</g>
<g id="Layer_23">
	<g>
		<path class="st0" d="M26.6,71.8c1.2,0.3,2.4-0.7,2.4-1.9v-42l26.5-14.6v21.6c0,1.5,1.2,2.7,2.7,2.7c1.3-0.1,2.3-1.2,2.3-2.5V4.9
			L24,25v43.6C24,70.2,25.1,71.5,26.6,71.8z"/>
		<path class="st0" d="M58,42.8l-17.2,10v17l19.8,5V57.6c0-1.5-1.2-2.7-2.7-2.7c-1.3,0.1-2.3,1.2-2.3,2.5v11.1L45.7,66V55.7
			l12.4-7.2l13,7.3V89L26.9,78.2C25.4,77.9,24,79,24,80.5v0.4c0,1.2,0.8,2.2,1.9,2.5L76,95.2V52.9L58,42.8z"/>
	</g>
</g>
<g id="Layer_25">
	<path d="M58,42.8l-17.2,10v17l19.8,5V57.4c0-1.4-1.1-2.5-2.5-2.5c-1.4,0-2.5,1.1-2.5,2.5v11.1L45.7,66V55.7l12.4-7.2l13,7.3V89
		L29,79V27.9l26.5-14.6v21.8c0,1.4,1.1,2.5,2.5,2.5s2.5-1.1,2.5-2.5V4.9L24,25v57.9l52,12.3V52.9L58,42.8z"/>
</g>
</svg>
