
<svg xmlns="http://www.w3.org/2000/svg" version="1.1" xmlns:xlink="http://www.w3.org/1999/xlink" preserveAspectRatio="none" x="0px" y="0px" width="100px" height="100px" viewBox="0 0 100 100">
<defs>
<g id="Tween_1_0_Layer0_0_FILL">
<path fill="#FFEBCA" stroke="none" d="
M 36.6 52.55
Q 36.6 51.55 35.9 50.8 35.15 50.1 34.15 50.1 33.15 50.1 32.4 50.8 31.7 51.55 31.7 52.55
L 31.7 53.5
Q 31.7 54.55 32.4 55.3 33.15 56 34.15 56 35.15 56 35.9 55.3 36.6 54.55 36.6 53.5
L 36.6 52.55 Z"/>
</g>
</defs>

<g transform="matrix( 1, 0, 0, 1, 14.9,0.6) ">
<g transform="matrix( 1, 0, 0, 1, 34.15,53.05) ">
<g transform="matrix( 1, 0, 0, 1, -34.15,-53.05) ">
<use xlink:href="#Tween_1_0_Layer0_0_FILL"/>
</g>
</g>
</g>
</svg>
