<?xml version="1.0" encoding="utf-8"?>
<!-- Generator: Adobe Illustrator 24.2.1, SVG Export Plug-In . SVG Version: 6.00 Build 0)  -->
<svg version="1.1" id="Layer_1" xmlns="http://www.w3.org/2000/svg" xmlns:xlink="http://www.w3.org/1999/xlink" x="0px" y="0px"
	 viewBox="0 0 44.4 42.9" style="enable-background:new 0 0 44.4 42.9;" xml:space="preserve">
<style type="text/css">
	.st0{fill:#3C5178;}
</style>
<g transform="translate(15 10)">
	<path class="st0" d="M0,11.5c0-3.1,0-6.2,0-9.3C0,0.8,0.9,0,2.4,0C5.6,0,8.8,0,12,0c1.2-0.1,2.2,0.7,2.4,1.8c0,0.1,0,0.2,0,0.3
		c0,6.2,0,12.4,0,18.6c0,1.2-1,2.2-2.2,2.2c-0.1,0-0.1,0-0.2,0c-3.2,0-6.4,0-9.6,0c-1.2,0.1-2.2-0.7-2.4-1.9c0-0.1,0-0.2,0-0.3
		C0,17.7,0,14.6,0,11.5L0,11.5z M12.8,18.3V3.4H1.6v14.9H12.8z M8.5,20.6c0-0.7-0.5-1.2-1.2-1.2c0,0-0.1,0-0.1,0
		c-0.6-0.1-1.2,0.4-1.3,1c-0.1,0.6,0.4,1.2,1,1.3c0.1,0,0.1,0,0.2,0C7.8,21.8,8.4,21.3,8.5,20.6C8.5,20.6,8.5,20.6,8.5,20.6
		L8.5,20.6z"/>
</g>
</svg>
