<?xml version="1.0" encoding="utf-8"?>
<!-- Generator: Adobe Illustrator 24.2.1, SVG Export Plug-In . SVG Version: 6.00 Build 0)  -->
<svg version="1.1" id="Layer_1" xmlns="http://www.w3.org/2000/svg" xmlns:xlink="http://www.w3.org/1999/xlink" x="0px" y="0px"
	 viewBox="0 0 375.1 157.6" style="enable-background:new 0 0 375.1 157.6;" xml:space="preserve">
<style type="text/css">
	.st0{opacity:0.41;fill:url(#Path_103_1_);enable-background:new    ;}
	.st1{fill:none;stroke:#D1A250;stroke-miterlimit:10;stroke-dasharray:6;}
	.st2{fill:#D1A250;}
	.st3{font-family:'Montserrat-SemiBold';}
	.st4{font-size:18.6896px;}
</style>
<g id="graphics" transform="translate(0.182 0.405)">
	
		<linearGradient id="Path_103_1_" gradientUnits="userSpaceOnUse" x1="137.9499" y1="127.8185" x2="137.9499" y2="128.8185" gradientTransform="matrix(374.895 0 0 -129.73 -51529.2773 16738.6035)">
		<stop  offset="0" style="stop-color:#FFFFFF;stop-opacity:0"/>
		<stop  offset="1" style="stop-color:#C69C6D"/>
	</linearGradient>
	<path id="Path_103" class="st0" d="M0,156.7l130.1-42.2l36.1,1L255,98.3L374.9,27v129.7L0,156.7z"/>
	<g id="Group_139" transform="translate(0)">
		<path id="Path_104" class="st1" d="M0,156.7l130.5-51.2l36.2,1.2l89.1-20.9l118.7-69.6"/>
		<circle id="Ellipse_11" class="st2" cx="166.7" cy="106.7" r="9.4"/>
		<circle id="Ellipse_12" class="st2" cx="130.6" cy="106.5" r="5.3"/>
		<circle id="Ellipse_13" class="st2" cx="255.9" cy="85.8" r="9.4"/>
		<line id="Line_15" class="st1" x1="167.1" y1="157" x2="167.1" y2="113.5"/>
		<line id="Line_16" class="st1" x1="130.5" y1="156.8" x2="130.5" y2="105.5"/>
		<line id="Line_17" class="st1" x1="255.7" y1="157" x2="255.7" y2="92.6"/>
	</g>
	<g id="Group_142" transform="translate(286.841 111.294)">
		<g id="Group_141" transform="translate(0 0)">
			<rect id="Rectangle_27" x="22.5" y="15.2" class="st2" width="22.2" height="4.3"/>
			<rect id="Rectangle_28" x="22.5" y="18.9" class="st2" width="15.5" height="2.4"/>
			<rect id="Rectangle_29" x="22.5" y="7.1" class="st2" width="30.2" height="4.3"/>
			<rect id="Rectangle_30" x="22.5" y="10.7" class="st2" width="23.6" height="2.4"/>
			<rect id="Rectangle_31" x="22.5" y="23.4" class="st2" width="14.1" height="4.3"/>
			<path id="Path_126" class="st2" d="M22.5,32.1v-5h8.8l-3.5,5H22.5"/>
			<g id="Group_140">
				<path id="Path_127" class="st2" d="M22.5,4.8h24.9c1.1-2.4,1.3-5.1,0.3-7.6c-1.7-3.9-5.4-6.5-9.6-6.8c-1-0.1-2-0.1-3,0
					c0,0,7,2.8,5.5,8.5c-0.1,0.3-0.2,0.7-0.2,0.7s-0.8-3.5-6.9-7.9c-4.6-2.9-7.6-7.8-8.1-13.2c0-1.5,0.2-2.9,0.7-4.3
					c-2.3,2.9-3.7,6.4-4.2,10c-0.2,4.7,1.1,9.2,3.8,13.1c0.6,0.9,1.3,2,1.3,2c-2.2-0.7-4-2.5-4.6-4.8L22.5,4.8"/>
			</g>
		</g>
	</g>
	<text transform="matrix(1 0 0 1 201.5094 138.7066)" class="st2 st3 st4">K</text>
</g>
</svg>
