<?xml version="1.0" encoding="UTF-8"?>
<svg viewBox="0 0 10.376 8.789" xmlns="http://www.w3.org/2000/svg">
<path transform="translate(1007.2 123.42)" d="M-1005.143-115.132a1.527,1.527,0,0,1-1.527-1.7q0-1.6,0-3.206c0-.4.142-.5.473-.308,1.292.743,2.585,1.483,3.872,2.237a.616.616,0,0,0,.693,0c1.282-.749,2.569-1.485,3.857-2.222a.611.611,0,0,1,.248-.088c.143-.011.232.065.232.241,0,1.205.01,2.41-.012,3.615a1.46,1.46,0,0,1-1.281,1.416c-.709.021-1.418.019-2.127.018-.3,0-.6,0-.894,0h-.37l-1.978,0Q-1004.549-115.129-1005.143-115.132Zm2.959-4c-1.4-.79-2.791-1.6-4.184-2.4-.245-.141-.273-.239-.143-.506a1.393,1.393,0,0,1,1.294-.877c1.081-.013,2.163,0,3.244,0s2.149-.008,3.224,0a1.407,1.407,0,0,1,1.306.9c.11.23.069.359-.139.479-1.4.808-2.8,1.619-4.2,2.414a.4.4,0,0,1-.192.043A.438.438,0,0,1-1002.183-119.128Z" fill="#1f2633" stroke="rgba(0,0,0,0)" stroke-miterlimit="10"/>
</svg>
