<?xml version="1.0" encoding="utf-8"?>
<!-- Generator: Adobe Illustrator 24.2.1, SVG Export Plug-In . SVG Version: 6.00 Build 0)  -->
<svg version="1.1" id="Layer_1" xmlns="http://www.w3.org/2000/svg" xmlns:xlink="http://www.w3.org/1999/xlink" x="0px" y="0px"
	 viewBox="0 0 100 100" style="enable-background:new 0 0 100 100;" xml:space="preserve">
<style type="text/css">
	
		.st0{opacity:0.26;fill:none;stroke:url(#SVGID_1_);stroke-width:2;stroke-linecap:round;stroke-linejoin:round;stroke-miterlimit:10;enable-background:new    ;}
	.st1{opacity:0.28;}
	.st2{fill:#BCA49A;}
	.st3{fill:none;stroke:url(#SVGID_2_);stroke-width:2;stroke-linecap:round;stroke-linejoin:round;stroke-miterlimit:10;}
	.st4{fill:none;stroke:#BCA49A;stroke-miterlimit:10;}
</style>
<linearGradient id="SVGID_1_" gradientUnits="userSpaceOnUse" x1="4.6" y1="-620.6" x2="98.2" y2="-620.6" gradientTransform="matrix(1 0 0 -1 0 -568)">
	<stop  offset="0" style="stop-color:#D1C4B0"/>
	<stop  offset="1" style="stop-color:#F9F2E7"/>
</linearGradient>
<path class="st0" d="M51.4,6.8c25.2,0,45.8,20.6,45.8,45.8S76.6,98.4,51.4,98.4S5.6,77.9,5.6,52.6S26.1,6.8,51.4,6.8z"/>
<g class="st1">
	<path class="st2" d="M50,5.2C24.5,5.2,3.8,25.9,3.8,51.4S24.5,97.6,50,97.6s46.2-20.7,46.2-46.2C96,25.9,75.5,5.2,50,5.2z"/>
</g>
<linearGradient id="SVGID_2_" gradientUnits="userSpaceOnUse" x1="3.6" y1="-619.6" x2="97.2" y2="-619.6" gradientTransform="matrix(1 0 0 -1 0 -568)">
	<stop  offset="0" style="stop-color:#D1C4B0"/>
	<stop  offset="1" style="stop-color:#F9F2E7"/>
</linearGradient>
<path class="st3" d="M50.4,5.8c25.2,0,45.8,20.6,45.8,45.8S75.6,97.4,50.4,97.4S4.6,76.9,4.6,51.6S25.1,5.8,50.4,5.8z"/>
<g id="Group_141" transform="translate(0 0)">
	<path id="Path_105" class="st2" d="M50.3,60.9c0.2-0.1,0.4-0.1,0.6-0.1c0.3,0,0.6,0.1,0.8,0.4c0-0.1,0.1-0.1,0.1-0.1
		c0.1-0.2,0.1-0.3,0.1-0.5c0-0.1-0.1-0.1-0.1-0.2c0,0,0,0-0.1,0c-0.3-0.1-0.5-0.1-0.8-0.1c-1.5,0-2.4,1.5-2.7,2.4h-0.1v-2.4
		c-0.5,0.4-1.1,0.6-1.8,0.4h-1.7V61h1.8v7.9h-1.8v0.3H50v-0.3h-1.9v-4.3C48.3,62,49.8,61,50.3,60.9"/>
	<path id="Path_106" class="st2" d="M27.9,56.1H26v-0.3h6c2.9,0,4.5,1.4,4.5,3.1c0,3-2.5,3.3-3.9,3.4v0.1c2.1,0.2,4.3,1.1,4.3,3.6
		c0,2.6-2.3,3.7-4.2,3.7h-6.6v-0.3H28L27.9,56.1 M29.9,62h1.3c1.8,0,3.4-0.4,3.4-3.1c0-1.1-0.8-2.9-3.6-2.9h-1L29.9,62L29.9,62z
		 M29.9,69.2h1.6c2.1,0,3.1-1.3,3.1-3.6c0-2.2-1.5-3.3-3.7-3.3h-1.1L29.9,69.2L29.9,69.2z"/>
	<path id="Path_107" class="st2" d="M39.5,66.1c0,1.5,0.2,3.1,2.1,3.1c1.7,0.1,3.1-1.2,3.3-2.9h0.4c-0.3,1.9-1.8,3.3-3.7,3.2
		c-2.4,0-4.1-1.9-4.1-4.6c0-2,1.6-4.6,3.9-4.6c2.4,0,3.8,2.8,3.8,3.6c0,0.1-0.1,0.2-0.1,0.2s0,0-0.1,0h-5.4v2 M43.1,63.2
		c0-1.3-0.4-2.6-1.8-2.6c-1.4,0-1.9,1.3-1.9,2.6v0.6H43c0.1,0,0.1-0.1,0.1-0.1s0,0,0-0.1V63.2z"/>
	<path id="Path_108" class="st2" d="M61,66.1c0,1.5,0.2,3.1,2.1,3.1c1.7,0.1,3.1-1.2,3.3-2.9h0.3c-0.3,1.9-1.8,3.3-3.7,3.2
		c-2.4,0-4.1-1.9-4.1-4.6c0-2,1.6-4.6,3.9-4.6c2.4,0,3.8,2.8,3.8,3.6c0,0.1-0.1,0.2-0.1,0.2s0,0-0.1,0H61V66.1 M64.6,63.2
		c0-1.3-0.4-2.6-1.8-2.6c-1.4,0-1.9,1.3-1.9,2.6v0.6h3.5c0.1,0,0.1-0.1,0.1-0.1s0,0,0-0.1C64.6,63.6,64.6,63.2,64.6,63.2z"/>
	<path id="Path_109" class="st2" d="M68.2,61.1h-1.6v-0.3h1.6c1,0,1.4,0,1.8-0.4v2.1l0,0c0.6-1.3,1.8-2.1,3.1-2.1
		c2.3,0,2.9,1.1,2.9,2.4V69h1.6v0.3h-5.1V69h1.6v-6.9c0-1.1-0.6-1.5-1.3-1.5c-1.8,0-2.6,1.8-3,2.4v6h1.6v0.3h-5V69H68L68.2,61.1"/>
	<path id="Path_110" class="st2" d="M28.5,71.9L28.5,71.9c-0.1-0.4-0.4-0.8-0.8-0.8s-0.6,0.3-0.6,1.2c0,0.9,0.1,1.2,0.6,1.2
		c0.4-0.1,0.7-0.3,0.8-0.8v-0.1h0.1v0.9h-0.1c0-0.1-0.1-0.1-0.1-0.1c-0.1,0-0.3,0.2-0.7,0.2c-0.6,0-1.1-0.6-1.1-1.2l0,0
		C26.5,71.6,27,71,27.7,71c0.3,0,0.5,0.2,0.6,0.2s0.1-0.1,0.1-0.1h0.1L28.5,71.9"/>
	<path id="Path_111" class="st2" d="M30.2,70.9c0.7,0.1,1.1,0.6,1.1,1.3l0,0c0.1,0.6-0.4,1.2-0.9,1.3c-0.6,0.1-1.2-0.4-1.3-0.9
		c0-0.1,0-0.2,0-0.3C29,71.6,29.6,71,30.2,70.9C30.2,71,30.2,70.9,30.2,70.9 M30.7,72.2c0-1.1-0.3-1.2-0.5-1.2s-0.5,0.1-0.5,1.2
		c0,0.9,0.1,1.2,0.5,1.2S30.7,73.1,30.7,72.2L30.7,72.2z"/>
	<path id="Path_112" class="st2" d="M31.7,73.4L31.7,73.4c0.3,0,0.3-0.1,0.3-0.3v-2h-0.3V71h0.9l0.6,1.7l0,0l0.6-1.7h0.9l0,0h-0.3
		v2.3h0.3v0.1h-1.1v-0.1h0.3V71l0,0l-0.8,2.3H33L32.1,71l0,0v2c0,0.3,0.1,0.3,0.3,0.3h0.1v0.1H31.7L31.7,73.4"/>
	<path id="Path_113" class="st2" d="M35.4,73.4L35.4,73.4c0.3,0,0.3-0.1,0.3-0.3v-2h-0.3V71h0.9l0.6,1.7l0,0l0.6-1.7h0.8l0,0H38v2.3
		h0.3v0.1h-1.1v-0.1h0.3V71l0,0l-0.8,2.3h-0.1L35.8,71l0,0v2c0,0.3,0.1,0.3,0.3,0.3h0.1v0.1H35.4L35.4,73.4"/>
	<path id="Path_114" class="st2" d="M38.6,71h1.1l0,0h-0.3v1.5c0,0.4,0.1,0.8,0.6,0.8c0.3,0,0.6-0.3,0.6-0.6v-0.1v-1.3
		c0-0.2-0.1-0.3-0.3-0.3h-0.1l0,0H41l0,0h-0.1c-0.1,0-0.2,0.1-0.2,0.3v1.3c0,0.5-0.3,0.9-0.9,0.9c-0.4,0.1-0.9-0.3-0.9-0.8
		c0-0.1,0-0.1,0-0.1V71L38.6,71L38.6,71"/>
	<path id="Path_115" class="st2" d="M41.3,73.4L41.3,73.4c0.2,0,0.3-0.1,0.3-0.3v-1.9L41.4,71h-0.1l0,0H42l1.3,1.7l0,0v-1.4
		c0-0.1-0.1-0.2-0.3-0.2l0,0V71h0.6l0,0h-0.1c-0.1,0-0.2,0.1-0.2,0.2l0,0v2.3h-0.1l-1.6-2.1l0,0v1.8c0,0.2,0.1,0.3,0.3,0.3H42v0.1
		L41.3,73.4L41.3,73.4"/>
	<path id="Path_116" class="st2" d="M44.1,73.4h0.3V71h-0.3l0,0h1.1l0,0H45v2.3h0.3v0.1H44.1L44.1,73.4"/>
	<path id="Path_117" class="st2" d="M46.1,73.4h0.3V71h-0.1c-0.4,0-0.6,0.3-0.6,0.7h-0.1V71h2.2v0.8h-0.1c-0.1-0.4-0.2-0.7-0.6-0.7
		H47v2.3h0.3v0.1L46.1,73.4L46.1,73.4"/>
	<path id="Path_118" class="st2" d="M48.8,73.4H49v-0.8L48.3,71H48v-0.1h1.1V71h-0.3l0.6,1.3l0.4-0.9c0.1-0.1,0.1-0.1,0.1-0.3
		c0-0.1-0.1-0.1-0.2-0.1h-0.1v-0.1h0.6V71l0,0c-0.1,0-0.2,0.1-0.3,0.3l-0.4,1.1v0.9h0.3v0.1H48.8L48.8,73.4"/>
	<path id="Path_119" class="st2" d="M61.7,71.8L61.7,71.8c-0.1-0.4-0.4-0.8-0.8-0.8c-0.4,0-0.6,0.3-0.6,1.2s0.1,1.2,0.6,1.2
		c0.4-0.1,0.7-0.3,0.8-0.8v-0.1h0.1v0.9h-0.1c0-0.1-0.1-0.1-0.1-0.1c-0.2,0.1-0.4,0.2-0.7,0.2c-0.6,0-1.1-0.6-1.1-1.2l0,0
		c-0.1-0.7,0.4-1.3,1.1-1.3c0.3,0,0.5,0.2,0.6,0.2s0.1,0,0.1-0.1l0,0h0.1L61.7,71.8"/>
	<path id="Path_120" class="st2" d="M63.4,70.9c0.7,0.1,1.1,0.6,1.1,1.3l0,0c0.1,0.6-0.4,1.2-0.9,1.3c-0.6,0.1-1.2-0.4-1.3-0.9
		c0-0.1,0-0.2,0-0.3C62.2,71.5,62.7,71,63.4,70.9L63.4,70.9 M63.9,72.2c0-1.1-0.3-1.2-0.5-1.2s-0.5,0.1-0.5,1.2
		c0,0.9,0.1,1.2,0.5,1.2C63.8,73.4,63.9,73.1,63.9,72.2L63.9,72.2z"/>
	<path id="Path_121" class="st2" d="M64.9,73.4h0.3V71h-0.3l0,0H66l0,0h-0.3v2.3h0.4c0.6,0,0.8-0.3,0.8-0.7v-0.1H67v0.8L64.9,73.4
		L64.9,73.4"/>
	<path id="Path_122" class="st2" d="M67.5,73.4h0.3V71h-0.3l0,0h1.1l0,0h-0.3v2.3h0.4c0.6,0,0.8-0.3,0.8-0.7v-0.1h0.1v0.8L67.5,73.4
		L67.5,73.4"/>
	<path id="Path_123" class="st2" d="M70,73.4h0.3V71H70l0,0h1.9v0.7h-0.1v-0.1c0-0.3-0.3-0.6-0.6-0.6h-0.1h-0.4v1.1H71
		c0.3,0,0.4-0.1,0.4-0.4v-0.1h0.1v1.1h-0.1v-0.1c0-0.3-0.1-0.4-0.4-0.4h-0.3v1.2h0.5c0.4,0,0.6-0.3,0.6-0.6v-0.1v-0.1H72v0.8H70
		L70,73.4"/>
	<path id="Path_124" class="st2" d="M74.7,73.2c-0.3,0.2-0.6,0.3-0.9,0.3c-0.7-0.1-1.3-0.7-1.2-1.4c0.1-0.6,0.5-1.1,1.1-1.1
		c0.3,0.1,0.4,0.1,0.7,0.2c0.1,0,0.1-0.1,0.1-0.1l0,0h0.1v0.8h-0.1c0-0.4-0.3-0.8-0.8-0.8c-0.4,0-0.6,0.5-0.6,1.2
		c0,1.1,0.3,1.2,0.6,1.2c0.2,0,0.4-0.1,0.4-0.3v-0.1v-0.4h-0.3v-0.1h1v0.1h-0.2v0.5"/>
	<path id="Path_125" class="st2" d="M75.3,73.4h0.3V71h-0.3l0,0h1.9v0.7h-0.1v-0.1c0-0.3-0.3-0.6-0.6-0.6h-0.1H76v1.1h0.3
		c0.3,0,0.4-0.1,0.4-0.4v-0.1h0.1v1.1h-0.1v-0.1c0-0.3-0.1-0.4-0.4-0.4H76v1.2h0.5c0.4,0,0.6-0.3,0.6-0.6v-0.1v-0.1h0.1v0.8h-2.1
		H75.3"/>
	<g>
		<path class="st4" d="M44.3,43.5h13.3v-0.9H62v-2.4H44.4L44.3,43.5z"/>
		<path class="st4" d="M44.3,48.7h9.5v-0.9h3.1v-2.4H44.3V48.7z"/>
		<path class="st4" d="M44.3,54.9l2.6,0.1l2.1-2.2h3.3v-2.4h-8C44.3,50.4,44.3,54.9,44.3,54.9z"/>
	</g>
	<g id="Group_140">
		<path id="Path_127" class="st4" d="M43.9,38.9H59c0.7-1.4,0.8-3.1,0.2-4.6c-1-2.3-3.3-3.9-5.8-4.1c-0.6-0.1-1.2-0.1-1.8,0
			c0,0,4.3,1.7,3.4,5.1c-0.1,0.2-0.1,0.4-0.1,0.4s-0.5-2.1-4.2-4.8c-2.8-1.8-4.6-4.7-4.9-8c0-0.9,0.1-1.8,0.4-2.6
			c-1.4,1.8-2.3,3.9-2.6,6.1c-0.1,2.8,0.7,5.6,2.3,7.9c0.4,0.6,0.8,1.3,0.8,1.3c-1.4-0.4-2.4-1.5-2.8-2.9L43.9,38.9"/>
	</g>
	<path id="Path_128" class="st2" d="M51.8,72.2c-0.1,0.1-0.1,0.1-0.1,0.2c-0.6,1.4,1.3,2.4,2.9,2.4c2.1,0,4.2-1.4,4.2-3.4
		c0-1.1-0.9-1.4-1.9-1.4h-4.3c-1.1,0-1.7-0.8-1.7-1.9c-0.1-1,0.5-1.9,1.5-2.1c0.2,0,0.4,0,0.6,0v-0.1c-0.9-0.4-1.5-1.4-1.6-2.4
		c0.2-1.9,1.9-3.4,3.8-3.3c0.8,0.1,1.5,0.4,2.1,0.9l0,0l0,0c0.4-0.6,1.1-0.9,1.8-0.9c0.3,0,0.5,0,0.8,0.1c0.1,0,0.1,0.1,0.1,0.1
		s0,0,0,0.1c-0.1,0.2-0.1,0.3-0.1,0.5c0,0.1,0,0.1-0.1,0.1c-0.2-0.3-0.5-0.4-0.8-0.4c-0.2,0-0.4,0.1-0.6,0.1
		c-0.3,0.1-0.6,0.3-0.9,0.6c0.5,0.6,0.8,1.3,0.8,2c0,1.8-1.8,3.1-3.4,3.1c-0.6,0-1.1-0.1-1.6-0.4c-1.1,0-2.1,0.3-2.1,1.3
		c0,0.5,0.4,0.9,0.9,0.9h0.1H57c1.1-0.1,2.2,0.7,2.3,1.8c0,0.2,0,0.4,0,0.6c0,2.8-2.3,4.4-4.8,4.4c-1.9,0-4-0.7-4-2.7
		c0,0,0-0.2,0.1-0.3c0.3,0,0.6-0.1,0.8,0h0.4 M54.8,66.2c1.7,0,1.7-1.3,1.7-2.8c0-1.7,0-2.8-1.7-2.8s-1.7,1.7-1.7,2.8
		C53.1,64.8,53.1,66.2,54.8,66.2L54.8,66.2z"/>
</g>
</svg>
