<?xml version="1.0" encoding="utf-8"?>
<!-- Generator: Adobe Illustrator 24.2.1, SVG Export Plug-In . SVG Version: 6.00 Build 0)  -->
<svg version="1.1" id="Layer_1" xmlns="http://www.w3.org/2000/svg" xmlns:xlink="http://www.w3.org/1999/xlink" x="0px" y="0px"
	 viewBox="0 0 51.1 48.3" style="enable-background:new 0 0 51.1 48.3;" xml:space="preserve">
<style type="text/css">
	.st0{fill:#3C5178;}
</style>
<g transform="translate(15 15)">
	<path class="st0" d="M0,9.6h8.7c0,0.3,0,0.5,0,0.8c0,0.4,0.3,0.8,0.7,0.9c0.1,0,0.1,0,0.2,0c0.7,0,1.4,0,2.1,0
		c0.4,0,0.8-0.3,0.9-0.7c0-0.3,0-0.6,0-1h8.7v0.2c0,2.4,0,4.9,0,7.3c0,0.7-0.4,1.1-1.2,1.1H1.2c-0.8,0-1.2-0.4-1.2-1.1V9.6L0,9.6z"
		/>
	<path class="st0" d="M0,7.7V7.4c0-1.1,0-2.2,0-3.3c0-0.8,0.4-1.2,1.2-1.2c2.5,0,4.9,0,7.4,0c3.7,0,7.5,0,11.2,0c0.2,0,0.3,0,0.5,0
		c0.5,0.1,0.8,0.5,0.8,1c0,1.2,0,2.5,0,3.7c0,0,0,0,0,0.1c-0.1,0-0.1,0-0.2,0c-2.7,0-5.4,0-8.1,0c-0.2,0-0.3,0-0.3-0.2
		C12.4,7,12,6.7,11.5,6.7c-0.6,0-1.3,0-1.9,0C9.1,6.7,8.7,7,8.7,7.5c0,0.1-0.1,0.2-0.2,0.2c0,0-0.1,0-0.1,0L0,7.7L0,7.7z"/>
	<path class="st0" d="M13.5,2.8h-0.9V0.9H8.7v1.6c0,0.3,0,0.3-0.3,0.3c-0.2,0-0.4,0-0.6,0c0,0-0.1,0-0.1,0c0-0.5,0-1,0-1.5
		c0-0.2,0-0.4,0-0.5C7.8,0.4,8.2,0,8.6,0C8.8,0,8.9,0,9,0c1,0,2.1,0,3.1,0c0.9,0,1.3,0.4,1.3,1.3L13.5,2.8z"/>
	<path class="st0" d="M11.5,10.5H9.6V8h1.9V10.5z"/>
</g>
</svg>
