<?xml version="1.0" encoding="utf-8"?>
<!-- Generator: Adobe Illustrator 28.3.0, SVG Export Plug-In . SVG Version: 6.00 Build 0)  -->
<svg version="1.1" id="Layer_1" xmlns="http://www.w3.org/2000/svg" xmlns:xlink="http://www.w3.org/1999/xlink" x="0px" y="0px"
	 viewBox="0 0 100 100" style="enable-background:new 0 0 100 100;" xml:space="preserve">
<style type="text/css">
	.st0{fill:#7A4A5D;}
</style>
<g>
	<g>
		<path class="st0" d="M62,43.5c0-0.1,0.1-0.2,0.1-0.2c0.1-0.8,0.1-0.8,0.9-0.8c0.8,0,1.6,0,2.5,0c0,0.2,0,0.4,0,0.6
			c0,4.1,0,8.1,0,12.2c0,0.5-0.1,0.7-0.6,0.6c-0.7,0-1.4,0-2.2,0c-0.5,0-0.7-0.1-0.6-0.6c0-0.1,0-0.2,0-0.3C62,55,61.9,55,61.8,55
			c-2.9,2.2-7.8,1-9.5-2.7c-1.6-3.5-0.4-7.6,2.9-9.4c2.2-1.2,4.4-1,6.5,0.2C61.7,43.3,61.9,43.4,62,43.5z M62,49.2
			c0-0.6,0-1.1,0-1.7c0-0.2,0-0.4-0.1-0.5c-1.1-1.6-3.9-2-5.4-0.8c-1.6,1.4-1.8,4-0.3,5.5c1.4,1.5,4,1.4,5.5-0.1
			c0.3-0.3,0.5-0.6,0.4-1C62,50.2,62,49.7,62,49.2z"/>
		<path class="st0" d="M87.9,54.8c-1.8,1.4-3.7,1.6-5.7,1c-1.4-0.4-2.6-1.3-3.5-2.5c-1.8-2.6-1.7-6.4,0.3-8.8
			c1.1-1.3,2.5-2.1,4.2-2.3c1.7-0.2,3.2,0.2,4.7,1.2c0-0.1,0.1-0.2,0.1-0.2c0.1-0.7,0.1-0.7,0.8-0.7c0.7,0,1.3,0,2,0
			c0.4,0,0.6,0.1,0.6,0.6c0,2.9,0,5.7,0,8.6c0,1.3,0,2.5,0,3.8c0,0.4-0.1,0.5-0.5,0.5c-0.8,0-1.5,0-2.3,0c-0.4,0-0.7-0.1-0.6-0.6
			C88,55.2,88,55.1,87.9,54.8z M87.9,49.2c0-0.6,0-1.1,0-1.7c0-0.2,0-0.4-0.1-0.5c-1.2-1.6-3.8-2.2-5.4-0.8
			c-1.6,1.3-1.8,3.9-0.4,5.5c1.3,1.5,3.9,1.6,5.4,0.1c0.4-0.4,0.7-0.8,0.6-1.4C87.8,50.1,87.9,49.6,87.9,49.2z"/>
		<path class="st0" d="M12.9,51.9c0.6,0.6,1.2,1.2,1.9,1.9c-0.2,0.2-0.3,0.4-0.5,0.5c-2.6,2.4-7.3,2.5-9.9,0c-1.9-1.7-2.3-3.9-2-6.4
			c0.3-2.2,1.4-4,3.4-5c3.7-2,8.1,0,9.1,4.3c0.2,0.7,0.2,1.5,0.2,2.2c0,0.5-0.1,0.6-0.6,0.6c-2.7,0-5.5,0-8.2,0
			c-0.6,0-0.7,0.1-0.5,0.7c0.6,2,2.7,3.1,4.7,2.4C11.4,52.8,12.1,52.3,12.9,51.9z M11.5,47.4c0-1.2-1.2-2.3-2.5-2.4
			c-1.5,0-2.9,1.1-2.9,2.4C7.8,47.4,9.7,47.4,11.5,47.4z"/>
		<path class="st0" d="M17.3,42.5c1,0,2.1,0,3.1,0c0.1,0,0.2,0.2,0.3,0.3c0,0.2,0,0.4,0,0.7c0.2-0.1,0.4-0.2,0.5-0.3
			c2-1.3,4-1.4,6.1-0.4c2.1,1,3.2,2.8,3.2,5.2c0.1,2.5,0.1,4.9,0.1,7.4c0,0.4-0.1,0.5-0.5,0.5c-0.9,0-1.7,0-2.6,0
			c-0.4,0-0.6-0.1-0.6-0.5c0-2.2,0-4.3,0-6.5c0-0.2,0-0.5,0-0.7c-0.2-2.3-2.1-2.9-3.6-2.5c-0.4,0.1-0.9,0.3-1.3,0.5
			c-0.8,0.4-1.3,1-1.2,2.1c0.1,2.4,0,4.7,0,7.1c0,0.5-0.2,0.6-0.6,0.6c-0.8,0-1.7,0-2.6,0c-0.3,0-0.4-0.1-0.4-0.4
			c0-4.2,0-8.4,0-12.6C17.2,42.7,17.2,42.6,17.3,42.5z"/>
		<path class="st0" d="M46.4,43.7c0.7-0.7,1.5-1.2,2.5-1.3c0.7-0.1,1.5-0.1,2.2-0.1c0.1,0,0.3,0.1,0.3,0.2c0,1,0,2.1,0,3.2
			c-0.4-0.1-0.7-0.1-1.1-0.1c-1.6-0.2-2.8,0.4-3.7,1.7c-0.1,0.2-0.2,0.5-0.2,0.7c0,2.5,0,4.9,0,7.4c0,0.5-0.1,0.6-0.6,0.6
			c-0.8,0-1.7,0-2.5,0c-0.3,0-0.5-0.1-0.5-0.4c0-4.2,0-8.3,0-12.5c0-0.3,0.1-0.4,0.4-0.4c0.9,0,1.7,0,2.6,0c0.4,0,0.5,0.1,0.4,0.5
			c0,0.2,0,0.4,0,0.7C46.3,43.6,46.3,43.7,46.4,43.7z"/>
		<path class="st0" d="M68.3,52.2c0-4.5,0-8.9,0-13.4c1.1,0,2.2,0,3.3,0c0.1,0,0.2,0.3,0.2,0.4c0,0.9,0,1.8,0,2.7c0,0.2,0,0.4,0,0.6
			c0.9,0,1.7,0,2.6,0c0.5,0,0.9,0,1.4,0c0.3,0,0.4,0.1,0.4,0.4c0,0.7,0,1.4,0,2.2c0,0.3-0.1,0.5-0.4,0.4c-1.2,0-2.3,0-3.5,0
			c-0.4,0-0.5,0.1-0.5,0.5c0,1.9,0,3.8,0,5.7c0,0.4-0.1,0.6-0.6,0.6C70.3,52.2,69.3,52.2,68.3,52.2z"/>
		<path class="st0" d="M40.8,45.5c-1.4,0-2.6,0-3.9,0c-0.5,0-0.6,0.1-0.6,0.6c0,1.8,0,3.7,0,5.5c0,0.2,0,0.4,0,0.7
			c-0.8,0-1.6,0-2.4,0c-1.2,0-1.2,0-1.2-1.2c0-3.9,0-7.8,0-11.6c0-0.5,0.1-0.7,0.6-0.6c0.8,0,1.7,0,2.5,0c0.3,0,0.4,0.1,0.4,0.4
			c0,0.9,0,1.9,0,2.8c0,0.4,0.1,0.5,0.5,0.5c1.1,0,2.3,0,3.4,0c0.4,0,0.5,0.1,0.5,0.5C40.7,43.8,40.8,44.6,40.8,45.5z"/>
		<path class="st0" d="M36.4,52.2c1.1,0,2.2,0,3.2,0c0.1,0,0.3,0.2,0.3,0.3c0,1,0,2,0,2.9c0,0.1-0.2,0.3-0.3,0.3c-0.9,0-1.9,0-2.8,0
			c-0.1,0-0.3-0.2-0.3-0.3C36.4,54.5,36.4,53.4,36.4,52.2z"/>
		<path class="st0" d="M71.9,52.2c1.1,0,2.2,0,3.3,0c0.1,0,0.3,0.2,0.3,0.3c0,1,0,2,0,3c0,0.1-0.2,0.3-0.3,0.3c-1,0-1.9,0-2.9,0
			c-0.1,0-0.3-0.2-0.3-0.3C71.9,54.5,71.9,53.4,71.9,52.2z"/>
	</g>
</g>
</svg>
