<?xml version="1.0" encoding="utf-8"?>
<!-- Generator: Adobe Illustrator 24.2.1, SVG Export Plug-In . SVG Version: 6.00 Build 0)  -->
<svg version="1.1" id="Layer_1" xmlns="http://www.w3.org/2000/svg" xmlns:xlink="http://www.w3.org/1999/xlink" x="0px" y="0px"
	 viewBox="0 0 800 1362" style="enable-background:new 0 0 800 1362;" xml:space="preserve">
<style type="text/css">
	.st0{opacity:5.000000e-02;enable-background:new    ;}
	.st1{fill:#4A306E;}
	.st2{fill:#C78D79;}
	.st3{fill:#654296;}
	.st4{fill:#BDDCFF;}
	.st5{fill:#3772CE;}
	.st6{fill:#E2E8F2;}
	.st7{fill:#936C61;}
</style>
<path class="st0" d="M723.6,121.4c0.4-0.7,0.7-1.4,1-2.1c0.3-0.7,0.6-1.3,0.9-1.9c0.5-0.7,0.8-1.1,1.1-1.3c0.2-0.2,0.3-0.3,0.4-0.3
	c1,0.3,2-0.3,2.3-1.2c0-0.1,0.1-0.2,0.1-0.3c2.2-0.9,5.8-2.5,10.1-4.9c0,0,0.3-0.7,0.5-1.9l4.6-2.5l16.4-6.2c0,0,0.1,0,0.1,0
	c0.5,0,1-0.2,1.4-0.3c0.3-0.2,0.6-0.4,0.8-0.6c0.5-0.5,0.8-1.2,1.2-1.8c0.2-0.4,0.4-0.7,0.6-1.1c0.2-0.4,0.4-0.8,0.5-1.2
	c0.1-0.4,0.1-0.9-0.1-1.3c0-0.1-0.1-0.2-0.2-0.2c-0.1,0-0.1,0-0.2,0c-0.8,0-1.5,0.6-2.1,1.1c-0.9,0.7-1.7,1.5-2.5,2.3
	c-0.2,0.1-0.3,0.3-0.5,0.4c-0.1,0-0.1,0-0.2,0.1l-17.5,4.2l-3.2,1.2c0-0.1-0.1-0.2-0.1-0.3c0,0-0.2-0.4-0.5-1l3.8-2.2l12.2-4.9
	c0.3-0.1,0.5-0.3,0.7-0.5c0.1,0,0.1,0,0.2,0l0.8-0.2c0.3-0.1,0.7-0.2,0.9-0.5c0.3-0.3,0.3-0.8,0.3-1.2c0.1-1.5,0.2-3,0-4.5
	c0-0.3-0.1-0.7-0.3-1c-0.2-0.3-0.5-0.5-0.9-0.4c-0.4,0.1-0.6,0.5-0.8,0.8c-0.6,1.2-1.2,2.5-1.4,3.8c0,0-0.1,0-0.1,0
	c-0.3,0.2-0.2,0.8-0.6,0.9c0,0-14,4.2-14,4.2l-4.1,1.9c-0.5-0.4-1.1-0.7-1.7-1c0,0-9.3,3.8-16,9.8v0l-2.8,0.5l1.3-1.3
	c0.2-0.2,0.3-0.3,0.3-0.5c0.7-0.7,0.9-1.8,0.5-2.8c-0.2-0.3-0.3-0.6-0.5-0.8c0-0.1,0-0.2,0-0.2l-0.5-1.9l1.2-0.6
	c0.5-0.6,0.5-1.8-0.1-3c-0.5-1.2-1.5-2-2.2-2l-0.8,0.3c-0.5-0.4-1.2-0.6-1.8-0.3l0,0c-0.8,0.3-1.3,1-1.3,1.8l-0.4,0.2l0,0
	c-0.7,0.5-0.7,1.8-0.1,3.2c0.5,1,1.2,1.8,1.9,2l0.4,1.3c-0.3,0.6-0.3,1.3,0,1.9l-7.7,8.1c-0.6,0.7-0.7,1.6-0.2,2.3
	c0,0.3,0.2,0.5,0.5,0.7l0.3,0.4l0.5,0.5l-0.7,0.3c-0.5-0.8-1.1-1.4-2-1.6c-0.9-0.2-1.9,0-2.8,0.4c0,0-0.1,0-0.2,0.1
	c-0.3-0.1-0.5-0.2-0.8-0.2c0,0,0,0-0.1,0c-0.5-0.3-1.2-0.3-1.8-0.2c-0.9,0.2-1.7,0.7-2.1,1.5c-0.4,0.7-0.5,1.5-0.5,2.3
	c0,0.3,0,0.7,0,1c0,0.3,0,0.6,0,0.9c-0.1,1,0.2,2.2,1,3.5c1.4,2.4,4.1,2.6,6.5,1.7c0.8-0.3,1.8-0.7,2.7-1.2c0.7-0.4,1.4-0.9,1.9-1.5
	c0.5-0.3,0.8-0.6,1.2-1c0.5-0.7,1-1.5,1.5-2.2l0.9,1c0,0,0,0,0.1,0.1c0.2,0.3,0.3,0.5,0.6,0.7l4.3,2.8c0.6,0.4,1.5,1,2.6,1.2
	C720.1,124.9,722.3,123.7,723.6,121.4z M718.7,120.9c-0.3,0-0.7-0.3-1.1-0.6l-2.7-1.7l0.3-0.3l6.6-4l0.1,0.3l1,0.1
	c-0.2,0.2-0.3,0.5-0.5,0.8c-0.5,0.8-0.9,1.7-1.2,2.5c-0.3,0.6-0.5,1.2-0.8,1.7C719.9,120.4,719.2,120.9,718.7,120.9z"/>
<g>
	<g>
		<g>
			<g>
				<g>
					<g>
						<g>
							<g>
								<g>
									<g>
										<g>
											<g>
												<g>
													<g>
														<g>
															<g>
																<g>
																	<g>
																		<g>
																			<g>
																				<g>
																					<g>
																						<path class="st1" d="M766.3,29.6c0.1-1,0-2-0.1-2.9c-0.2-2.5-1.5-4.9-4.3-5.2c-5.1-0.6-6.1,3-6.3,7.2
																							c1.6,1.8,3.5,3.7,4.4,5.9c0.2,0.5,2.8,0.5,3.2,0.3c0.8-0.3,1.8-1.8,2.3-2.5C766,31.6,766.2,30.6,766.3,29.6z"
																							/>
																					</g>
																				</g>
																			</g>
																		</g>
																	</g>
																</g>
															</g>
														</g>
													</g>
												</g>
											</g>
										</g>
									</g>
								</g>
							</g>
						</g>
					</g>
				</g>
			</g>
		</g>
	</g>
	<g>
		<g>
			<g>
				<g>
					<g>
						<g>
							<g>
								<g>
									<g>
										<g>
											<g>
												<g>
													<g>
														<g>
															<g>
																<g>
																	<g>
																		<g>
																			<g>
																				<g>
																					<g>
																						<g>
																							<path class="st1" d="M759.1,89c0,0.3,0,0.7-0.1,1c-0.2,0.4-0.6,0.6-0.9,0.8c-1.3,0.7-2.7,1.5-4.2,1.9
																								c-0.3,0.1-0.7,0.2-1,0.2c-0.3,0-0.7-0.3-0.8-0.6c-0.1-0.4,0.2-0.8,0.5-1.1c1.1-1.3,2.2-2.7,3.8-3.4
																								c0.5-0.2,1-0.4,1.5-0.3c0.5,0,1,0.4,1.1,0.8L759.1,89z"/>
																						</g>
																					</g>
																				</g>
																			</g>
																		</g>
																	</g>
																</g>
															</g>
														</g>
													</g>
												</g>
											</g>
										</g>
									</g>
								</g>
							</g>
						</g>
					</g>
				</g>
			</g>
		</g>
	</g>
	<g>
		<g>
			<g>
				<g>
					<g>
						<g>
							<g>
								<g>
									<g>
										<g>
											<g>
												<g>
													<g>
														<g>
															<g>
																<g>
																	<g>
																		<g>
																			<g>
																				<g>
																					<g>
																						<g>
																							<path class="st1" d="M767.1,92.3c0,0.4-0.1,0.7-0.2,1c-0.3,0.7-0.7,1.3-1.2,1.8c-0.3,0.3-0.5,0.7-0.8,1
																								c-0.3,0.3-0.5,0.7-0.9,1c-0.3,0.3-0.8,0.5-1.2,0.4c-0.1,0-0.2,0-0.3-0.1c0,0-0.1-0.1-0.1-0.2
																								c-0.3-0.8-0.1-1.6,0.1-2.4c0.3-1.1,0.7-2.2,1-3.2c0.2-0.8,0.5-1.8,1.4-2C766.5,89.5,767.2,91,767.1,92.3z"/>
																						</g>
																					</g>
																				</g>
																			</g>
																		</g>
																	</g>
																</g>
															</g>
														</g>
													</g>
												</g>
											</g>
										</g>
									</g>
								</g>
							</g>
						</g>
					</g>
				</g>
			</g>
		</g>
	</g>
	<g>
		<g>
			<g>
				<g>
					<g>
						<g>
							<g>
								<g>
									<g>
										<g>
											<g>
												<g>
													<g>
														<g>
															<g>
																<g>
																	<g>
																		<g>
																			<g>
																				<g>
																					<g>
																						<path class="st2" d="M765.8,73.3l1-16.2l-0.3-3.9l-8,1.2l-4.3-0.2L754,72.9c0,0,2,14.4,2,14.5
																							c0,0.3-0.6,0.5-0.6,0.9c0,0.4,0.2,1,1.1,1.2c0.3,0.1,1.3-0.2,1.6-0.4c0.5-0.4,1-1,0.9-1.7l-0.6-13.2l1.2-14.1
																							l0.3,6.6l0.4,6.7l3.4,17.6c0,0.7,0.3,1.3,1,1.3h0.8c0.7,0,1.2-0.6,1.2-1.4L765.8,73.3z"/>
																					</g>
																				</g>
																			</g>
																		</g>
																	</g>
																</g>
															</g>
														</g>
													</g>
												</g>
											</g>
										</g>
									</g>
								</g>
							</g>
						</g>
					</g>
				</g>
			</g>
		</g>
	</g>
	<g>
		<g>
			<g>
				<g>
					<g>
						<g>
							<g>
								<g>
									<g>
										<g>
											<g>
												<g>
													<g>
														<g>
															<g>
																<g>
																	<g>
																		<g>
																			<g>
																				<g>
																					<g>
																						<g>
																							<path class="st3" d="M765.1,48.7l2.7,4.5c0,0,0.5,5.5-0.2,13.7c0,0-2.9,3-7.7,3c0,0-4.6,0-7.5-2.6
																								c0,0-0.4-10,2.3-18.6L765.1,48.7z"/>
																						</g>
																					</g>
																				</g>
																			</g>
																		</g>
																	</g>
																</g>
															</g>
														</g>
													</g>
												</g>
											</g>
										</g>
									</g>
								</g>
							</g>
						</g>
					</g>
				</g>
			</g>
		</g>
	</g>
	<g>
		<g>
			<g>
				<g>
					<g>
						<g>
							<g>
								<g>
									<g>
										<g>
											<g>
												<g>
													<g>
														<g>
															<g>
																<g>
																	<g>
																		<g>
																			<g>
																				<g>
																					<g>
																						<path class="st4" d="M757.1,33.4L757.1,33.4c0.9,0.4,1.4,1.4,1,2.3l-4.7,11.7c-0.4,0.9-1.4,1.4-2.3,1l0,0
																							c-0.9-0.4-1.4-1.4-1-2.3l4.7-11.7C755.1,33.5,756.2,33,757.1,33.4z"/>
																					</g>
																				</g>
																			</g>
																		</g>
																	</g>
																</g>
															</g>
														</g>
													</g>
												</g>
											</g>
										</g>
									</g>
								</g>
							</g>
						</g>
					</g>
				</g>
			</g>
		</g>
	</g>
	<g>
		<g>
			<g>
				<g>
					<g>
						<g>
							<g>
								<g>
									<g>
										<g>
											<g>
												<g>
													<g>
														<g>
															<g>
																<g>
																	<g>
																		<g>
																			<g>
																				<g>
																					<g>
																						<path class="st5" d="M758.4,31.5L758.4,31.5C758.5,31.5,758.5,31.4,758.4,31.5
																							C758.4,31.4,758.4,31.5,758.4,31.5z"/>
																					</g>
																				</g>
																			</g>
																		</g>
																	</g>
																</g>
															</g>
														</g>
													</g>
												</g>
											</g>
										</g>
									</g>
								</g>
							</g>
						</g>
					</g>
				</g>
			</g>
		</g>
	</g>
	<g>
		<g>
			<g>
				<g>
					<g>
						<g>
							<g>
								<g>
									<g>
										<g>
											<g>
												<g>
													<g>
														<g>
															<g>
																<g>
																	<g>
																		<g>
																			<g>
																				<g>
																					<g>
																						<path class="st4" d="M765.7,41l-0.9,8c-0.1,0.1-0.2,0.2-0.3,0.2c-1.8,1.6-4.4,1.7-6.8,1.7
																							c-0.5-0.2-1.1-0.3-1.7-0.6c-0.5-0.2-1-0.7-1.1-1.4l-1.7-6.7l0-0.1c-0.2-0.9,0-1.8,0.4-2.6l1.3-2.5l0.4-1.3
																							c0.1-1.5,1.3-2.9,2.4-2.3l0.5,0.2l0.8,0.3l3.4,1.2l1,0.3l1.9,0.7c0.9,0.3,1.4,1.4,1.2,2.4L765.7,41z"/>
																					</g>
																				</g>
																			</g>
																		</g>
																	</g>
																</g>
															</g>
														</g>
													</g>
												</g>
											</g>
										</g>
									</g>
								</g>
							</g>
						</g>
					</g>
				</g>
			</g>
		</g>
	</g>
	<g>
		<g>
			<g>
				<g>
					<g>
						<g>
							<g>
								<g>
									<g>
										<g>
											<g>
												<g>
													<g>
														<g>
															<g>
																<g>
																	<g>
																		<g>
																			<g>
																				<g>
																					<g>
																						<path class="st6" d="M766.4,38.4l-0.7,2.5c-0.3,0.4-0.7,0.8-1,1.3c-0.7,0.9-1.5,1.8-2.5,2.3
																							c-1.7,0.8-3.6,0.2-5.3-0.6c-1-0.4-2.1-0.9-3.1-1.4c-0.2-0.1-0.4-0.2-0.6-0.3l0-0.1c-0.2-0.9,0-1.8,0.4-2.6
																							l1.3-2.5l0.5-1.7c0-1.1,0.9-2.3,2.3-1.9l0.5,0.2l0.8,0.3l3.4,1.2l1,0.3l1.9,0.7
																							C766.1,36.4,766.7,37.4,766.4,38.4z"/>
																					</g>
																				</g>
																			</g>
																		</g>
																	</g>
																</g>
															</g>
														</g>
													</g>
												</g>
											</g>
										</g>
									</g>
								</g>
							</g>
						</g>
					</g>
				</g>
			</g>
		</g>
	</g>
	<g>
		<g>
			<g>
				<g>
					<g>
						<g>
							<g>
								<g>
									<g>
										<g>
											<g>
												<g>
													<g>
														<g>
															<g>
																<g>
																	<g>
																		<g>
																			<g>
																				<g>
																					<g>
																						<path class="st2" d="M763.3,35.4c-0.5,0.8-1.2,1.5-1.8,2.1c-0.5,0.5-1.1,0.9-1.8,1.1c-0.7,0.2-1.5,0.2-2-0.3
																							c-0.4-0.3-0.7-0.9-0.7-1.5s0.1-1.1,0.3-1.7s0.5-1.1,0.8-1.6l0.8,0.3l3.4,1.2L763.3,35.4z"/>
																					</g>
																				</g>
																			</g>
																		</g>
																	</g>
																</g>
															</g>
														</g>
													</g>
												</g>
											</g>
										</g>
									</g>
								</g>
							</g>
						</g>
					</g>
				</g>
			</g>
		</g>
	</g>
	<g>
		<g>
			<g>
				<g>
					<g>
						<g>
							<g>
								<g>
									<g>
										<g>
											<g>
												<g>
													<g>
														<g>
															<g>
																<g>
																	<g>
																		<g>
																			<g>
																				<g>
																					<g>
																						<path class="st6" d="M752.1,41.3L752.1,41.3L752.1,41.3C752.1,41.3,752.1,41.3,752.1,41.3z"/>
																					</g>
																				</g>
																			</g>
																		</g>
																	</g>
																</g>
															</g>
														</g>
													</g>
												</g>
											</g>
										</g>
									</g>
								</g>
							</g>
						</g>
					</g>
				</g>
			</g>
		</g>
	</g>
	<g>
		<g>
			<g>
				<g>
					<g>
						<g>
							<g>
								<g>
									<g>
										<g>
											<g>
												<g>
													<g>
														<g>
															<g>
																<g>
																	<g>
																		<g>
																			<g>
																				<g>
																					<g>
																						<rect x="758.8" y="29.7" class="st2" width="3.5" height="6.5"/>
																					</g>
																				</g>
																			</g>
																		</g>
																	</g>
																</g>
															</g>
														</g>
													</g>
												</g>
											</g>
										</g>
									</g>
								</g>
							</g>
						</g>
					</g>
				</g>
			</g>
		</g>
	</g>
	<g>
		<g>
			<g>
				<g>
					<g>
						<g>
							<g>
								<g>
									<g>
										<g>
											<g>
												<g>
													<g>
														<g>
															<g>
																<g>
																	<g>
																		<g>
																			<g>
																				<g>
																					<g>
																						<polygon class="st7" points="762,30.8 758.8,34.2 758.8,34.2 758.8,31.9 																						"/>
																					</g>
																				</g>
																			</g>
																		</g>
																	</g>
																</g>
															</g>
														</g>
													</g>
												</g>
											</g>
										</g>
									</g>
								</g>
							</g>
						</g>
					</g>
				</g>
			</g>
		</g>
	</g>
	<g>
		<g>
			<g>
				<g>
					<g>
						<g>
							<g>
								<g>
									<g>
										<g>
											<g>
												<g>
													<g>
														<g>
															<g>
																<g>
																	<g>
																		<g>
																			<g>
																				<g>
																					<g>
																						<g>
																							<ellipse class="st5" cx="757.4" cy="26.7" rx="2.7" ry="3"/>
																						</g>
																					</g>
																				</g>
																			</g>
																		</g>
																	</g>
																</g>
															</g>
														</g>
													</g>
												</g>
											</g>
										</g>
									</g>
								</g>
							</g>
						</g>
					</g>
				</g>
			</g>
		</g>
	</g>
	<g>
		<g>
			<g>
				<g>
					<g>
						<g>
							<g>
								<g>
									<g>
										<g>
											<g>
												<g>
													<g>
														<g>
															<g>
																<g>
																	<g>
																		<g>
																			<g>
																				<g>
																					<g>
																						<path class="st5" d="M762.1,28.4L762.1,28.4C762.2,28.4,762.2,28.4,762.1,28.4
																							C762.1,28.4,762.1,28.4,762.1,28.4z"/>
																					</g>
																				</g>
																			</g>
																		</g>
																	</g>
																</g>
															</g>
														</g>
													</g>
												</g>
											</g>
										</g>
									</g>
								</g>
							</g>
						</g>
					</g>
				</g>
			</g>
		</g>
	</g>
	<g>
		<g>
			<g>
				<g>
					<g>
						<g>
							<g>
								<g>
									<g>
										<g>
											<g>
												<g>
													<g>
														<g>
															<g>
																<g>
																	<g>
																		<g>
																			<g>
																				<g>
																					<g>
																						<path class="st2" d="M762.3,29.5c-0.4-2.3-1.9-4.6-4.3-5c-0.2,0-0.3-0.2-0.2-0.4c0-0.1,0-0.2,0-0.3
																							c0,0,0,0-0.1,0c-0.5-0.1-1-0.1-1.4,0.2c-0.3,0.2-0.5,0.5-0.6,0.8c0,0.1,0,0.2,0,0.3c0,0.9-0.1,1.8-0.1,2.8
																							c0,0.4,0,0.8,0,1.3c0,1,0.2,2,0.8,2.8c0.7,0.8,1.7,1.2,2.7,1.2c0.5,0,1.1-0.4,1.6-0.7
																							c0.9-0.5,1.3-1.5,1.6-2.6c0-0.1,0-0.2,0-0.2C762.3,29.6,762.3,29.5,762.3,29.5z"/>
																					</g>
																				</g>
																			</g>
																		</g>
																	</g>
																</g>
															</g>
														</g>
													</g>
												</g>
											</g>
										</g>
									</g>
								</g>
							</g>
						</g>
					</g>
				</g>
			</g>
		</g>
	</g>
	<g>
		<g>
			<g>
				<g>
					<g>
						<g>
							<g>
								<g>
									<g>
										<g>
											<g>
												<g>
													<g>
														<g>
															<g>
																<g>
																	<g>
																		<g>
																			<g>
																				<g>
																					<g>
																						<path class="st1" d="M760.7,23.5c-0.1-0.5-0.5-1-1-1.3c-0.3-0.2-0.6-0.2-0.9-0.2c-0.5-0.1-0.9,0.1-1.3,0.3
																							c-0.3,0.1-0.6,0.3-0.9,0.5c-0.7,0.4-1.4,0.8-1.8,1.4c-0.5,0.7-0.7,1.7-0.5,2.5c0.2,0.5,0.5,1.2,0.9,1.5
																							c0.1,0.3,0.3-0.3,0.3,0c0.1-0.8,0.6-0.7,1.3-1.2c0.7-0.5,1.5-0.8,2.3-1.2c0.5-0.2,1-0.5,1.3-1
																							c0.1-0.1,0.2-0.2,0.2-0.4C760.8,24.3,760.8,24,760.7,23.5z"/>
																					</g>
																				</g>
																			</g>
																		</g>
																	</g>
																</g>
															</g>
														</g>
													</g>
												</g>
											</g>
										</g>
									</g>
								</g>
							</g>
						</g>
					</g>
				</g>
			</g>
		</g>
	</g>
	<g>
		<g>
			<g>
				<g>
					<g>
						<g>
							<g>
								<g>
									<g>
										<g>
											<g>
												<g>
													<g>
														<g>
															<g>
																<g>
																	<g>
																		<g>
																			<g>
																				<g>
																					<g>
																						<ellipse class="st4" cx="750.8" cy="47.2" rx="2.5" ry="2.4"/>
																					</g>
																				</g>
																			</g>
																		</g>
																	</g>
																</g>
															</g>
														</g>
													</g>
												</g>
											</g>
										</g>
									</g>
								</g>
							</g>
						</g>
					</g>
				</g>
			</g>
		</g>
	</g>
	<g>
		<g>
			<g>
				<g>
					<g>
						<g>
							<g>
								<g>
									<g>
										<g>
											<g>
												<g>
													<g>
														<g>
															<g>
																<g>
																	<g>
																		<g>
																			<g>
																				<g>
																					<g>
																						<path class="st2" d="M751.3,47.3L751.3,47.3c0.1,1.1-0.6,2-1.7,2.2l-6.5,1c-1.1,0.1-2-0.6-2.2-1.7l0,0
																							c-0.1-1.1,0.6-2,1.7-2.2l6.5-1C750.2,45.5,751.2,46.2,751.3,47.3z"/>
																					</g>
																				</g>
																			</g>
																		</g>
																	</g>
																</g>
															</g>
														</g>
													</g>
												</g>
											</g>
										</g>
									</g>
								</g>
							</g>
						</g>
					</g>
				</g>
			</g>
		</g>
	</g>
	<g>
		<g>
			<g>
				<g>
					<g>
						<g>
							<g>
								<g>
									<g>
										<g>
											<g>
												<g>
													<g>
														<g>
															<g>
																<g>
																	<g>
																		<g>
																			<g>
																				<g>
																					<g>
																						<path class="st6" d="M747.6,51.2c-0.3,0.7-1.4,1.2-2.7,1.2s-2.4-0.5-2.7-1.2l-0.1-0.9v-3.9h0.1
																							c0.3-0.7,1.4-1.2,2.8-1.2c1.3,0,2.5,0.5,2.8,1.2h0.1v0.3L747.6,51.2z"/>
																					</g>
																				</g>
																			</g>
																		</g>
																	</g>
																</g>
															</g>
														</g>
													</g>
												</g>
											</g>
										</g>
									</g>
								</g>
							</g>
						</g>
					</g>
				</g>
			</g>
		</g>
		<g>
			<g>
				<g>
					<g>
						<g>
							<g>
								<g>
									<g>
										<g>
											<g>
												<g>
													<g>
														<g>
															<g>
																<g>
																	<g>
																		<g>
																			<g>
																				<g>
																					<g>
																						<path class="st6" d="M742,46.5c0,0.8,1.3,1.6,2.8,1.6c1.6,0,2.8-0.7,2.8-1.6c0-0.8-1.3-1.6-2.8-1.6
																							C743.3,44.9,742,45.7,742,46.5z"/>
																					</g>
																				</g>
																			</g>
																		</g>
																	</g>
																</g>
															</g>
														</g>
													</g>
												</g>
											</g>
										</g>
									</g>
								</g>
							</g>
						</g>
					</g>
				</g>
			</g>
		</g>
		<g>
			<g>
				<g>
					<g>
						<g>
							<g>
								<g>
									<g>
										<g>
											<g>
												<g>
													<g>
														<g>
															<g>
																<g>
																	<g>
																		<g>
																			<g>
																				<g>
																					<g>
																						<path class="st5" d="M742.9,46.5c0,0.6,0.9,1.1,2,1.1s2-0.5,2-1.1s-0.9-1.1-2-1.1
																							C743.8,45.3,742.9,45.8,742.9,46.5z"/>
																					</g>
																				</g>
																			</g>
																		</g>
																	</g>
																</g>
															</g>
														</g>
													</g>
												</g>
											</g>
										</g>
									</g>
								</g>
							</g>
						</g>
					</g>
				</g>
			</g>
		</g>
	</g>
	<g>
		<g>
			<g>
				<g>
					<g>
						<g>
							<g>
								<g>
									<g>
										<g>
											<g>
												<g>
													<g>
														<g>
															<g>
																<g>
																	<g>
																		<g>
																			<g>
																				<g>
																					<g>
																						<path class="st1" d="M762.4,29.3c-1.7-1.1-2.8-3.2-2.7-5.2c1,0.3,2,1.2,2.4,2.2c0.5,1,0.6,2.2,0.2,3.2
																							L762.4,29.3z"/>
																					</g>
																				</g>
																			</g>
																		</g>
																	</g>
																</g>
															</g>
														</g>
													</g>
												</g>
											</g>
										</g>
									</g>
								</g>
							</g>
						</g>
					</g>
				</g>
			</g>
		</g>
	</g>
	<g>
		<g>
			<g>
				<g>
					<g>
						<g>
							<g>
								<g>
									<g>
										<g>
											<g>
												<g>
													<g>
														<g>
															<g>
																<g>
																	<g>
																		<g>
																			<g>
																				<g>
																					<g>
																						<path class="st6" d="M772.1,47.3c-0.5,0.7-1,1.2-1.5,1.8c-0.5,0.5-1,1.1-1.3,1.6c-0.5,0.7-0.7,1.2-0.8,1.5
																							c-0.1,0.3-0.1,0.4-0.1,0.5c0.7,0.8,0.6,1.9-0.2,2.6c-0.3,0.3-0.8,0.5-1.2,0.5c-0.5,0-1-0.2-1.4-0.6
																							c-0.8-1-1.1-2.1-0.8-3.5c0.2-0.9,0.7-1.9,1.3-3c0.5-0.8,1.2-1.5,1.7-2.2c0.5-0.5,0.8-0.9,1.2-1.4
																							c0.5-0.8,0.8-1.7,0.5-2.1c-0.2-0.3-0.6-0.5-1-0.8l-4.3-2.8c-0.9-0.5-1.1-1.7-0.6-2.6c0.5-0.9,1.7-1.1,2.6-0.6
																							l4.3,2.8c0.6,0.4,1.5,1,2.1,1.8C773.8,42.7,773.6,45.2,772.1,47.3z"/>
																					</g>
																				</g>
																			</g>
																		</g>
																	</g>
																</g>
															</g>
														</g>
													</g>
												</g>
											</g>
										</g>
									</g>
								</g>
							</g>
						</g>
					</g>
				</g>
			</g>
		</g>
	</g>
	<g>
		<g>
			<g>
				<g>
					<g>
						<g>
							<g>
								<g>
									<g>
										<g>
											<g>
												<g>
													<g>
														<g>
															<g>
																<g>
																	<g>
																		<g>
																			<g>
																				<g>
																					<path class="st1" d="M765.8,30.8c0-0.8-0.1-1.7-0.3-2.4c-0.1-0.6-0.3-1.1-0.7-1.6c-0.4-0.4-1-0.7-1.5-0.4
																						c-0.8,0.4-0.8,1.5-0.7,2.4c0.3,5.2-5,8.3-4.9,13.4c0,1.9,0.9,3.6,1.8,5.2c0.2,0.3,0.5,0.7,0.9,0.7
																						c0.2,0,0.3-0.2,0.5-0.3c1.1-1.3,1.7-2.9,1.9-4.5c0.4-2.6,0-5,1-7.5c0.4-0.9,1-1.7,1.5-2.5
																						C765.7,32.7,765.8,31.8,765.8,30.8z"/>
																				</g>
																			</g>
																		</g>
																	</g>
																</g>
															</g>
														</g>
													</g>
												</g>
											</g>
										</g>
									</g>
								</g>
							</g>
						</g>
					</g>
				</g>
			</g>
		</g>
	</g>
	<g>
		<g>
			<g>
				<g>
					<g>
						<g>
							<g>
								<g>
									<g>
										<g>
											<g>
												<g>
													<g>
														<g>
															<g>
																<g>
																	<g>
																		<g>
																			<g>
																				<g>
																					<g>
																						<g>
																							<path class="st2" d="M761.9,29.7c0.1,0.1,0.2,0,0.2,0c0,0,0-0.1,0-0.1L761.9,29.7z"/>
																						</g>
																					</g>
																				</g>
																			</g>
																		</g>
																	</g>
																</g>
															</g>
														</g>
													</g>
												</g>
											</g>
										</g>
									</g>
								</g>
							</g>
						</g>
					</g>
				</g>
			</g>
		</g>
		<g>
			<g>
				<g>
					<g>
						<g>
							<g>
								<g>
									<g>
										<g>
											<g>
												<g>
													<g>
														<g>
															<g>
																<g>
																	<g>
																		<g>
																			<g>
																				<g>
																					<g>
																						<g>
																							<path class="st2" d="M763.6,27.9c-0.4-0.1-0.8,0.3-0.9,0.8c-0.1,0.2-0.2,0.5-0.3,0.7
																								c-0.1,0.1-0.2,0.2-0.3,0.2c-0.1,0.4,0.1,0.8,0.4,1c0.3,0.1,0.7-0.1,0.9-0.4c0.3-0.3,0.5-0.7,0.6-1.2
																								C764.1,28.6,763.9,28,763.6,27.9z"/>
																						</g>
																					</g>
																				</g>
																			</g>
																		</g>
																	</g>
																</g>
															</g>
														</g>
													</g>
												</g>
											</g>
										</g>
									</g>
								</g>
							</g>
						</g>
					</g>
				</g>
			</g>
		</g>
	</g>
	<g>
		<g>
			<g>
				<g>
					<g>
						<g>
							<g>
								<g>
									<g>
										<g>
											<g>
												<g>
													<g>
														<g>
															<g>
																<g>
																	<g>
																		<g>
																			<g>
																				<g>
																					<path class="st2" d="M768.2,55.4c-0.3,0.3-0.8,0.5-1.2,0.5c-0.5,0-1-0.2-1.4-0.6c-0.8-1-1.1-2.1-0.8-3.5
																						c1,0.8,2.5,1.1,3.7,0.6c-0.1,0.3-0.1,0.4-0.1,0.5C769.1,53.6,769,54.7,768.2,55.4z"/>
																				</g>
																			</g>
																		</g>
																	</g>
																</g>
															</g>
														</g>
													</g>
												</g>
											</g>
										</g>
									</g>
								</g>
							</g>
						</g>
					</g>
				</g>
			</g>
		</g>
	</g>
</g>
</svg>
