<?xml version="1.0" encoding="utf-8"?>
<!-- Generator: Adobe Illustrator 24.2.1, SVG Export Plug-In . SVG Version: 6.00 Build 0)  -->
<svg version="1.1" id="Layer_1" xmlns="http://www.w3.org/2000/svg" xmlns:xlink="http://www.w3.org/1999/xlink" x="0px" y="0px"
	 viewBox="0 0 1024 1498.7" style="enable-background:new 0 0 1024 1498.7;" xml:space="preserve">
<style type="text/css">
	.st0{fill:url(#XMLID_5_);}
	.st1{clip-path:url(#SVGID_2_);fill:url(#SVGID_3_);}
	.st2{clip-path:url(#SVGID_5_);}
	.st3{clip-path:url(#SVGID_7_);fill:url(#SVGID_8_);}
	.st4{fill:url(#XMLID_6_);}
	.st5{clip-path:url(#SVGID_10_);fill:url(#SVGID_11_);}
	.st6{clip-path:url(#SVGID_13_);}
	.st7{clip-path:url(#SVGID_15_);fill:url(#SVGID_16_);}
	.st8{fill:url(#XMLID_7_);}
	.st9{clip-path:url(#SVGID_18_);fill:url(#SVGID_19_);}
	.st10{clip-path:url(#SVGID_21_);}
	.st11{clip-path:url(#SVGID_23_);fill:url(#SVGID_24_);}
	.st12{fill:url(#SVGID_25_);}
	.st13{fill:none;}
	.st14{fill:#486975;}
	.st15{fill:#375460;}
	.st16{fill:#213540;}
	.st17{fill:#446B77;}
	.st18{fill:url(#SVGID_26_);}
	.st19{fill:url(#SVGID_27_);}
	.st20{fill:url(#SVGID_28_);}
	.st21{fill:#A6DAE8;}
	.st22{enable-background:new    ;}
	.st23{fill:#DCDCDC;}
	.st24{fill:url(#SVGID_29_);}
	.st25{fill:none;stroke:url(#SVGID_30_);stroke-width:16;stroke-linecap:round;stroke-linejoin:round;stroke-miterlimit:10;}
	.st26{fill:url(#SVGID_31_);}
	.st27{fill:url(#SVGID_32_);}
	.st28{opacity:0.28;}
	.st29{fill:#D0D2D3;}
	.st30{fill:#E3E3E6;}
	.st31{opacity:0.7;}
	.st32{opacity:0.72;}
	.st33{opacity:0.68;fill:#D0D2D3;enable-background:new    ;}
	.st34{opacity:0.68;}
	.st35{opacity:0.68;fill:#E3E3E6;enable-background:new    ;}
	.st36{fill:url(#SVGID_33_);}
	.st37{fill:url(#SVGID_34_);}
	.st38{fill:url(#SVGID_35_);}
</style>
<g>
	<g>
		
			<linearGradient id="XMLID_5_" gradientUnits="userSpaceOnUse" x1="495.9307" y1="694.4448" x2="495.9307" y2="1319.5012" gradientTransform="matrix(1 0 0 -1 0 1498)">
			<stop  offset="0" style="stop-color:#ECCBAB"/>
			<stop  offset="0.5843" style="stop-color:#C69C6D"/>
		</linearGradient>
		<path id="XMLID_1_" class="st0" d="M-31.2,420c0,0-27.5-149.8,215.2-148.7c242.7,1,317-40.8,411.1-77.4s363-12.6,428.9,122.4
			c-0.4,44.6-0.9,89.1-1.3,133.7c-282.9,340.5-671,431-884,289C106,717.2-22.1,640.6-31.2,420z"/>
	</g>
	<g>
		<defs>
			<path id="SVGID_1_" d="M-31.2,420c0,0-27.5-149.8,215.2-148.7c242.7,1,317-40.8,411.1-77.4s363-12.6,428.9,122.4
				c-0.4,44.6-0.9,89.1-1.3,133.7c-282.9,340.5-671,431-884,289C106,717.2-22.1,640.6-31.2,420z"/>
		</defs>
		<clipPath id="SVGID_2_">
			<use xlink:href="#SVGID_1_"  style="overflow:visible;"/>
		</clipPath>
		
			<linearGradient id="SVGID_3_" gradientUnits="userSpaceOnUse" x1="455.95" y1="-2864" x2="455.95" y2="-1629.6" gradientTransform="matrix(1 0 0 1 0 3004)">
			<stop  offset="0" style="stop-color:#ECCBAB"/>
			<stop  offset="0.5843" style="stop-color:#C69C6D"/>
		</linearGradient>
		<rect x="-187.4" y="140" class="st1" width="1286.7" height="1234.4"/>
	</g>
	<g>
		<defs>
			<path id="SVGID_4_" d="M-31.2,420c0,0-27.5-149.8,215.2-148.7c242.7,1,317-40.8,411.1-77.4s363-12.6,428.9,122.4
				c-0.4,44.6-0.9,89.1-1.3,133.7c-282.9,340.5-671,431-884,289C106,717.2-22.1,640.6-31.2,420z"/>
		</defs>
		<clipPath id="SVGID_5_">
			<use xlink:href="#SVGID_4_"  style="overflow:visible;"/>
		</clipPath>
		<g class="st2">
			<g>
				<g>
					<defs>
						<rect id="SVGID_6_" x="-127.5" y="143.6" width="1180" height="2557.7"/>
					</defs>
					<clipPath id="SVGID_7_">
						<use xlink:href="#SVGID_6_"  style="overflow:visible;"/>
					</clipPath>
					
						<linearGradient id="SVGID_8_" gradientUnits="userSpaceOnUse" x1="-95.5" y1="-3163.1853" x2="1490.9" y2="-3163.1853" gradientTransform="matrix(1 0 0 1 0 3004)">
						<stop  offset="0" style="stop-color:#ECCBAB"/>
						<stop  offset="0.5843" style="stop-color:#C69C6D"/>
					</linearGradient>
					<path class="st3" d="M1242.1,936.1c-245.2,54.8-393.5,8.3-481.8-40.6C561.8,785.6,536.4,690.7,316.9,526.2
						C168,414.7,8.7,377-95.5,362.2C-29.7-154,47.8-763.1,113.5-1279.2l1377.4,175.3C1490.8-1103.9,1227.6,934.3,1242.1,936.1z"/>
				</g>
			</g>
		</g>
	</g>
</g>
<g>
	<g>
		
			<linearGradient id="XMLID_6_" gradientUnits="userSpaceOnUse" x1="1037.8722" y1="-391.9504" x2="1037.8722" y2="205.5353" gradientTransform="matrix(0.8626 0.5058 0.5058 -0.8626 399.0283 580.9835)">
			<stop  offset="0" style="stop-color:#ECCBAB"/>
			<stop  offset="0.5843" style="stop-color:#C69C6D"/>
		</linearGradient>
		<path id="XMLID_2_" class="st4" d="M846.8,872.9c0,0,49.7-136.8,249.4-18.6s281.1,119.6,376.4,135
			c95.3,15.3,305.4,165.2,294.5,308.3c-21.9,36.5-43.8,73.1-65.7,109.6c-397.9,144-761.7,31-868.8-189.2
			C816.2,1184.2,747.6,1059.2,846.8,872.9z"/>
	</g>
	<g>
		<defs>
			<path id="SVGID_9_" d="M846.8,872.9c0,0,49.7-136.8,249.4-18.6s281.1,119.6,376.4,135c95.3,15.3,305.4,165.2,294.5,308.3
				c-21.9,36.5-43.8,73.1-65.7,109.6c-397.9,144-761.7,31-868.8-189.2C816.2,1184.2,747.6,1059.2,846.8,872.9z"/>
		</defs>
		<clipPath id="SVGID_10_">
			<use xlink:href="#SVGID_9_"  style="overflow:visible;"/>
		</clipPath>
		
			<linearGradient id="SVGID_11_" gradientUnits="userSpaceOnUse" x1="999.5772" y1="-1748.5884" x2="999.5772" y2="-568.5021" gradientTransform="matrix(0.8626 0.5058 -0.5058 0.8626 -362.7775 1880.175)">
			<stop  offset="0" style="stop-color:#ECCBAB"/>
			<stop  offset="0.5843" style="stop-color:#C69C6D"/>
		</linearGradient>
		<polygon class="st5" points="853.4,566.4 1914.4,1188.5 1317.5,2206.4 256.5,1584.3 		"/>
	</g>
	<g>
		<defs>
			<path id="SVGID_12_" d="M846.8,872.9c0,0,49.7-136.8,249.4-18.6s281.1,119.6,376.4,135c95.3,15.3,305.4,165.2,294.5,308.3
				c-21.9,36.5-43.8,73.1-65.7,109.6c-397.9,144-761.7,31-868.8-189.2C816.2,1184.2,747.6,1059.2,846.8,872.9z"/>
		</defs>
		<clipPath id="SVGID_13_">
			<use xlink:href="#SVGID_12_"  style="overflow:visible;"/>
		</clipPath>
		<g class="st6">
			<g>
				<g>
					<defs>
						
							<rect id="SVGID_14_" x="-453.4" y="1374.3" transform="matrix(0.5058 -0.8626 0.8626 0.5058 -1291.9646 1621.2969)" width="2445" height="1128"/>
					</defs>
					<clipPath id="SVGID_15_">
						<use xlink:href="#SVGID_14_"  style="overflow:visible;"/>
					</clipPath>
					
						<linearGradient id="SVGID_16_" gradientUnits="userSpaceOnUse" x1="472.3843" y1="-2034.5887" x2="1988.9545" y2="-2034.5887" gradientTransform="matrix(0.8626 0.5058 -0.5058 0.8626 -362.7777 1880.1752)">
						<stop  offset="0" style="stop-color:#ECCBAB"/>
						<stop  offset="0.5843" style="stop-color:#C69C6D"/>
					</linearGradient>
					<path class="st7" d="M1647.2,1914.1c-228.7-73.4-328.5-183.5-377.7-266.5c-110.5-186.5-85.6-277.2-187-518.9
						c-68.9-164-182.1-272.1-260.8-334.7c303.9-393.9,662.3-858.6,966-1252.5l1051.1,810.6
						C2838.8,352.1,1636.2,1905.6,1647.2,1914.1z"/>
				</g>
			</g>
		</g>
	</g>
</g>
<g>
	<g>
		
			<linearGradient id="XMLID_7_" gradientUnits="userSpaceOnUse" x1="1127.0306" y1="-2066.6309" x2="1127.0306" y2="-1469.1471" gradientTransform="matrix(-0.9876 0.157 0.157 0.9876 996.6208 2892.6409)">
			<stop  offset="0" style="stop-color:#ECCBAB"/>
			<stop  offset="0.5843" style="stop-color:#C69C6D"/>
		</linearGradient>
		<path id="XMLID_3_" class="st8" d="M114.3,1311.5c0,0,48.4,137.3-180.8,172.7c-229.3,35.4-293.1,86.1-376.5,134.8
			s-340.8,66.3-423.3-51.2c-6.3-42.1-12.6-84.3-18.8-126.4c216-363.9,568.8-507.6,791.3-405.5
			C-59.8,1051.6,72.6,1104.6,114.3,1311.5z"/>
	</g>
	<g>
		<defs>
			<path id="SVGID_17_" d="M114.3,1311.5c0,0,48.4,137.3-180.8,172.7c-229.3,35.4-293.1,86.1-376.5,134.8s-340.8,66.3-423.3-51.2
				c-6.3-42.1-12.6-84.3-18.8-126.4c216-363.9,568.8-507.6,791.3-405.5C-59.8,1051.6,72.6,1104.6,114.3,1311.5z"/>
		</defs>
		<clipPath id="SVGID_18_">
			<use xlink:href="#SVGID_17_"  style="overflow:visible;"/>
		</clipPath>
		
			<linearGradient id="SVGID_19_" gradientUnits="userSpaceOnUse" x1="1088.796" y1="-73.6049" x2="1088.796" y2="1106.3365" gradientTransform="matrix(-0.9876 0.157 -0.157 -0.9876 760.1884 1405.3181)">
			<stop  offset="0" style="stop-color:#ECCBAB"/>
			<stop  offset="0.5843" style="stop-color:#C69C6D"/>
		</linearGradient>
		<polygon class="st9" points="303.8,1552.4 -910.9,1745.5 -1096.2,580.2 118.6,387.1 		"/>
	</g>
	<g>
		<defs>
			<path id="SVGID_20_" d="M114.3,1311.5c0,0,48.4,137.3-180.8,172.7c-229.3,35.4-293.1,86.1-376.5,134.8s-340.8,66.3-423.3-51.2
				c-6.3-42.1-12.6-84.3-18.8-126.4c216-363.9,568.8-507.6,791.3-405.5C-59.8,1051.6,72.6,1104.6,114.3,1311.5z"/>
		</defs>
		<clipPath id="SVGID_21_">
			<use xlink:href="#SVGID_20_"  style="overflow:visible;"/>
		</clipPath>
		<g class="st10">
			<g>
				<g>
					<defs>
						
							<rect id="SVGID_22_" x="-1066.3" y="-783.4" transform="matrix(0.9876 -0.157 0.157 0.9876 -75.1769 -73.4143)" width="1128" height="2445.1"/>
					</defs>
					<clipPath id="SVGID_23_">
						<use xlink:href="#SVGID_22_"  style="overflow:visible;"/>
					</clipPath>
					
						<linearGradient id="SVGID_24_" gradientUnits="userSpaceOnUse" x1="561.5751" y1="-359.673" x2="2078.1128" y2="-359.673" gradientTransform="matrix(-0.9876 0.157 -0.157 -0.9876 760.1884 1405.3181)">
						<stop  offset="0" style="stop-color:#ECCBAB"/>
						<stop  offset="0.5843" style="stop-color:#C69C6D"/>
					</linearGradient>
					<path class="st11" d="M-1165.2,1015.4c223.3-88.6,370.3-66.9,461-34c203.8,73.9,242.1,159.8,474,282.1
						c157.4,82.9,313.4,94.6,414,93c15.4,497.3,33.6,1083.9,49,1581l-1326.7,41.2C-1093.9,2978.6-1151.3,1014.9-1165.2,1015.4z"/>
				</g>
			</g>
		</g>
	</g>
</g>
<g>
	<g>
		
			<linearGradient id="SVGID_25_" gradientUnits="userSpaceOnUse" x1="375.1" y1="-3579.5049" x2="375.1" y2="-3576.5049" gradientTransform="matrix(1 0 0 1 0 3004)">
			<stop  offset="0" style="stop-color:#486975"/>
			<stop  offset="0.584" style="stop-color:#213540"/>
		</linearGradient>
		<path class="st12" d="M375.1-572.5c1.9,0,1.9-3,0-3S373.2-572.5,375.1-572.5L375.1-572.5z"/>
	</g>
</g>
<g>
	<line class="st13" x1="-1226.7" y1="1101.8" x2="-1170.5" y2="1132.5"/>
	<g>
		<line class="st13" x1="-1137.6" y1="1004.5" x2="-1081.4" y2="1035.2"/>
		<line class="st13" x1="-1086.2" y1="923.4" x2="-1030" y2="954.1"/>
		<line class="st13" x1="-857.8" y1="822.3" x2="-915.2" y2="790.8"/>
	</g>
</g>
<g>
	<g>
		<g>
			<polygon class="st14" points="1007.8,531.8 736.6,689.4 463.5,531.8 734.8,374.1 			"/>
		</g>
		<g>
			<polygon class="st15" points="835.3,432 564,589.6 524.9,567.2 796.2,409.5 			"/>
		</g>
		<g>
			<polygon class="st16" points="1007.8,531.8 1007.2,579.4 735.9,737 736.6,689.4 			"/>
		</g>
		<g>
			<polygon class="st16" points="736.6,689.4 735.9,736.2 462.9,578.4 463.5,531.8 			"/>
		</g>
	</g>
</g>
<g>
	<g>
		<g>
			<polygon class="st14" points="411.6,636.8 342.4,677.1 272.7,636.8 341.9,596.6 			"/>
		</g>
		<g>
			<polygon class="st16" points="411.6,636.8 411.4,649 342.2,689.2 342.4,677.1 			"/>
		</g>
		<g>
			<polygon class="st16" points="342.4,677.1 342.2,689 272.5,648.7 272.7,636.8 			"/>
		</g>
	</g>
</g>
<g>
	<g>
		<g>
			<polygon class="st14" points="285.3,591.4 193.5,644.7 101.2,591.4 193,538 			"/>
		</g>
		<g>
			<polygon class="st16" points="285.3,591.4 285.1,607.5 193.3,660.8 193.5,644.7 			"/>
		</g>
		<g>
			<polygon class="st16" points="193.5,644.7 193.3,660.5 101,607.2 101.2,591.4 			"/>
		</g>
	</g>
</g>
<g>
	<g>
		<g>
			<polygon class="st17" points="868,321.9 867.7,451.3 770.5,395.2 770.8,265.9 			"/>
		</g>
	</g>
</g>
<g>
	<g>
		<g>
			<g>
				
					<linearGradient id="SVGID_26_" gradientUnits="userSpaceOnUse" x1="858.3984" y1="-2728.1248" x2="980.3887" y2="-2728.1248" gradientTransform="matrix(1 0 0 1 0 3004)">
					<stop  offset="0" style="stop-color:#486975"/>
					<stop  offset="0.584" style="stop-color:#213540"/>
				</linearGradient>
				<polygon class="st18" points="919.3,223.2 980.4,258.1 858.4,328.5 				"/>
			</g>
			<g>
				
					<linearGradient id="SVGID_27_" gradientUnits="userSpaceOnUse" x1="821.0648" y1="-2791.8713" x2="980.3887" y2="-2791.8713" gradientTransform="matrix(1 0 0 1 0 3004)">
					<stop  offset="0" style="stop-color:#486975"/>
					<stop  offset="0.584" style="stop-color:#213540"/>
				</linearGradient>
				<polygon class="st19" points="919.3,223.2 821.1,166.2 882.2,201 980.4,258.1 				"/>
			</g>
			<g>
				
					<linearGradient id="SVGID_28_" gradientUnits="userSpaceOnUse" x1="760.2814" y1="-2756.6541" x2="919.2665" y2="-2756.6541" gradientTransform="matrix(1 0 0 1 0 3004)">
					<stop  offset="0" style="stop-color:#486975"/>
					<stop  offset="0.584" style="stop-color:#213540"/>
				</linearGradient>
				<polygon class="st20" points="858.4,328.5 760.3,271.5 821.1,166.2 919.3,223.2 				"/>
			</g>
		</g>
	</g>
</g>
<g>
	<g>
		<polygon class="st21" points="964.6,265.9 964.3,396 867.7,452.1 868,321.9 		"/>
	</g>
</g>
<g>
	<g>
		<g class="st22">
			<g>
				<polygon class="st23" points="804.1,440.3 763.7,463.8 722.9,440.3 763.4,416.7 				"/>
			</g>
			<g>
				<polygon class="st17" points="763.7,463.8 763.6,538.5 722.8,514.9 722.9,440.3 				"/>
			</g>
		</g>
	</g>
</g>
<g>
	<g>
		<g>
			<g>
				<polygon class="st21" points="785.2,422.4 810.8,437.1 759.7,466.6 				"/>
			</g>
			<g>
				<polygon class="st14" points="785.2,422.4 744,398.5 769.7,413.1 810.8,437.1 				"/>
			</g>
			<g>
				<polygon class="st16" points="759.7,466.6 718.5,442.6 744,398.5 785.2,422.4 				"/>
			</g>
		</g>
	</g>
</g>
<g>
	<g>
		<g class="st22">
			<g>
				<polygon class="st23" points="688.7,376.9 661.8,392.5 634.7,376.9 661.7,361.2 				"/>
			</g>
			<g>
				<polygon class="st15" points="688.7,376.9 688.7,471.3 661.7,487 661.8,392.5 				"/>
			</g>
			<g>
				<polygon class="st16" points="661.8,392.5 661.7,487 634.7,471.3 634.7,376.9 				"/>
			</g>
		</g>
	</g>
</g>
<g>
	<g>
		<g>
			<g>
				<polygon class="st21" points="676.1,365 693.2,374.7 659.2,394.3 				"/>
			</g>
			<g>
				<polygon class="st16" points="676.1,365 648.8,349.1 665.8,358.8 693.2,374.7 				"/>
			</g>
			<g>
				<polygon class="st14" points="659.2,394.3 631.9,378.4 648.8,349.1 676.1,365 				"/>
			</g>
		</g>
	</g>
</g>
<g>
	<g>
		<g class="st22">
			<g>
				<polygon class="st23" points="638.4,466.3 611.5,481.9 584.4,466.3 611.3,450.6 				"/>
			</g>
			<g>
				<polygon class="st15" points="638.4,466.3 638.4,501.1 611.5,516.8 611.5,481.9 				"/>
			</g>
			<g>
				<polygon class="st16" points="611.5,481.9 611.5,516.8 584.4,501.1 584.4,466.3 				"/>
			</g>
		</g>
	</g>
</g>
<g>
	<g>
		<g>
			<g>
				<polygon class="st21" points="625.8,454.4 642.9,464.1 608.8,483.7 				"/>
			</g>
			<g>
				<polygon class="st16" points="625.8,454.4 598.4,438.5 615.4,448.2 642.9,464.1 				"/>
			</g>
			<g>
				<polygon class="st14" points="608.8,483.7 581.5,467.8 598.4,438.5 625.8,454.4 				"/>
			</g>
		</g>
	</g>
</g>
<g>
	<g>
		<polygon class="st21" points="804.1,440.3 804,515 763.6,538.6 763.7,463.8 		"/>
	</g>
</g>
<g>
	
		<linearGradient id="SVGID_29_" gradientUnits="userSpaceOnUse" x1="796.5991" y1="-2605.9387" x2="833.848" y2="-2605.9387" gradientTransform="matrix(1 1.1719 0 1 0 2056.8198)">
		<stop  offset="0" style="stop-color:#486975"/>
		<stop  offset="0.584" style="stop-color:#213540"/>
	</linearGradient>
	<path class="st24" d="M833.8,431.8L796.6,410v-19.3c0-9.9,8-13.3,17.9-7.4l0.7,0.4c10.2,6,18.6,19.2,18.6,29.5V431.8z"/>
</g>
<g>
	
		<linearGradient id="SVGID_30_" gradientUnits="userSpaceOnUse" x1="788.4297" y1="-2671.1829" x2="849.2979" y2="-2671.1829" gradientTransform="matrix(1 0.3378 0 1 0 2742.7473)">
		<stop  offset="0" style="stop-color:#486975"/>
		<stop  offset="0.584" style="stop-color:#213540"/>
	</linearGradient>
	<path class="st25" d="M796.4,330.1c0,0,1.5,21.8,23.3,29.1c21.8,7.4,21.6-14.3,21.6-14.3"/>
</g>
<g>
	
		<linearGradient id="SVGID_31_" gradientUnits="userSpaceOnUse" x1="1694.2124" y1="-1794.2616" x2="1706.9594" y2="-1794.2616" gradientTransform="matrix(0.7668 -0.2332 0.2332 1.2332 -73.3115 2930.6885)">
		<stop  offset="0" style="stop-color:#486975"/>
		<stop  offset="0.584" style="stop-color:#213540"/>
	</linearGradient>
	<path class="st26" d="M817.2,319.9c0.8,4.3-0.7,8.6-3.4,9.4c-2.7,0.8-5.5-2-6.3-6.3s0.7-8.6,3.4-9.4
		C813.4,312.7,816.3,315.5,817.2,319.9z"/>
</g>
<g>
	
		<linearGradient id="SVGID_32_" gradientUnits="userSpaceOnUse" x1="1708.1818" y1="-1787.5042" x2="1720.9285" y2="-1787.5042" gradientTransform="matrix(0.7668 -0.2332 0.2332 1.2332 -73.3115 2930.6885)">
		<stop  offset="0" style="stop-color:#486975"/>
		<stop  offset="0.584" style="stop-color:#213540"/>
	</linearGradient>
	<path class="st27" d="M829.4,325c0.8,4.3-0.7,8.6-3.4,9.4c-2.7,0.8-5.5-2-6.3-6.3c-0.8-4.3,0.7-8.6,3.4-9.4
		C825.7,317.8,828.6,320.7,829.4,325z"/>
</g>
<g>
	<g>
		<circle class="st14" cx="824.4" cy="490.4" r="16.1"/>
		<polygon class="st16" points="834.9,493.3 834.1,492.1 825,499.2 825,497.7 825,497.7 825,497.7 825,490.5 823.8,490.5 
			823.8,496.6 815.4,489.5 814.5,490.6 823.8,498.4 823.8,518.9 825,518.9 825,501 825,501 		"/>
	</g>
</g>
<g>
	<g>
		<circle class="st14" cx="693.2" cy="509.1" r="16.1"/>
		<polygon class="st16" points="703.9,512 703,510.9 693.9,518 693.9,516.5 693.9,516.5 693.9,516.5 693.9,509.3 692.6,509.3 
			692.6,515.4 684.3,508.3 683.4,509.4 692.6,517.2 692.6,537.6 693.9,537.6 693.9,519.8 693.9,519.8 		"/>
	</g>
</g>
<g>
	<g class="st28">
		<path class="st29" d="M759.6,343.4L759.6,343.4l-5.3-3c-0.2-0.2-0.4-0.3-0.7-0.4l0,0l-0.1-0.1c0,0-0.3-0.2-0.9-0.3
			c-0.4-0.1-0.9-0.2-1.4-0.3c-1.4-0.1-3.1,0.2-5,1.4l-2.4-1.3c-0.2-0.1-0.4-0.3-0.6-0.3L743,339l0,0c-1.9-0.8-4.9-1-9.6,2
			c-8.6,5.6-8.9,12.3-8.9,12.3s-4.6,2.5-5.5,8.7c0,0-0.8-0.5-2.7,0.1c-0.6,0.2-1.3,0.4-2,0.9l0,0c-4.3,2.6-4.9,9.5-4.9,9.5l6.1,3.3
			l48.5-28C763.8,348,762.6,344.8,759.6,343.4z"/>
		<g>
			<line class="st13" x1="709.2" y1="372.7" x2="715.3" y2="376"/>
			<g>
				<line class="st13" x1="718.9" y1="362.2" x2="724.9" y2="365.5"/>
				<line class="st13" x1="724.5" y1="353.5" x2="730.5" y2="356.8"/>
				<line class="st13" x1="749.1" y1="342.6" x2="742.8" y2="339.2"/>
			</g>
		</g>
		<path class="st30" d="M715.3,376l48.5-28c0,0-3.5-8.8-12.4-3.6c0,0-3-5.4-12.2,0c-8.8,5.2-8.9,12.3-8.9,12.3s-4.6,2.5-5.5,8.7
			C724.9,365.5,717.8,363.4,715.3,376z"/>
	</g>
</g>
<g>
	<g class="st31">
		<path class="st29" d="M656.4,437.1L656.4,437.1l-5.3-3c-0.2-0.2-0.4-0.3-0.7-0.4l0,0l-0.1-0.1c0,0-0.3-0.2-0.9-0.3
			c-0.4-0.1-0.9-0.2-1.4-0.3c-1.4-0.1-3.1,0.2-5,1.4l-2.4-1.3c-0.2-0.1-0.4-0.3-0.6-0.3l-0.2-0.1l0,0c-1.9-0.8-4.9-1-9.6,2
			c-8.6,5.6-8.9,12.3-8.9,12.3s-4.6,2.5-5.5,8.7c0,0-0.8-0.5-2.7,0.1c-0.6,0.2-1.3,0.4-2,0.9l0,0c-4.3,2.6-4.9,9.5-4.9,9.5l6.1,3.3
			l48.5-28C660.6,441.7,659.4,438.5,656.4,437.1z"/>
		<g>
			<line class="st13" x1="606" y1="466.4" x2="612.1" y2="469.7"/>
			<g>
				<line class="st13" x1="615.7" y1="455.9" x2="621.7" y2="459.2"/>
				<line class="st13" x1="621.2" y1="447.1" x2="627.3" y2="450.4"/>
				<line class="st13" x1="645.8" y1="436.3" x2="639.6" y2="432.8"/>
			</g>
		</g>
		<path class="st30" d="M612.1,469.7l48.5-28c0,0-3.5-8.8-12.4-3.6c0,0-3-5.4-12.2,0c-8.8,5.2-8.9,12.3-8.9,12.3s-4.6,2.5-5.5,8.7
			C621.7,459.2,614.6,457.1,612.1,469.7z"/>
	</g>
</g>
<g>
	<g class="st28">
		<path class="st29" d="M615.7,410L615.7,410l-5.3-3c-0.2-0.2-0.4-0.3-0.7-0.4l0,0l-0.1-0.1c0,0-0.3-0.2-0.9-0.3
			c-0.4-0.1-0.9-0.2-1.4-0.3c-1.4-0.1-3.1,0.2-5,1.4l-2.4-1.3c-0.2-0.1-0.4-0.3-0.6-0.3l-0.2-0.1l0,0c-1.9-0.8-4.9-1-9.6,2
			c-8.6,5.6-8.9,12.3-8.9,12.3s-4.6,2.5-5.5,8.7c0,0-0.8-0.5-2.7,0.1c-0.6,0.2-1.3,0.4-2,0.9l0,0c-4.3,2.6-4.9,9.5-4.9,9.5l6.1,3.3
			l48.5-28C619.9,414.5,618.6,411.4,615.7,410z"/>
		<g>
			<line class="st13" x1="565.3" y1="439.3" x2="571.4" y2="442.6"/>
			<g>
				<line class="st13" x1="574.9" y1="428.8" x2="581" y2="432.1"/>
				<line class="st13" x1="580.5" y1="420" x2="586.6" y2="423.3"/>
				<line class="st13" x1="605.1" y1="409.1" x2="598.9" y2="405.7"/>
			</g>
		</g>
		<path class="st30" d="M571.4,442.6l48.5-28c0,0-3.5-8.8-12.4-3.6c0,0-3-5.4-12.2,0c-8.8,5.2-8.9,12.3-8.9,12.3s-4.6,2.5-5.5,8.7
			C581,432.1,573.8,430,571.4,442.6z"/>
	</g>
</g>
<g class="st32">
	<path class="st33" d="M613.7,334.9L613.7,334.9l-3.9-2.1c-0.2-0.1-0.3-0.2-0.5-0.3l0,0l-0.1-0.1c0,0-0.3-0.1-0.7-0.3
		c-0.3-0.1-0.7-0.2-1-0.2c-0.9-0.1-2.3,0.1-3.6,1l-1.7-0.9c-0.2-0.1-0.3-0.2-0.4-0.3l-0.1-0.1l0,0c-1.4-0.6-3.6-0.7-6.9,1.4
		c-6.2,4.1-6.4,8.8-6.4,8.8s-3.3,1.9-4,6.3c0,0-0.6-0.4-1.9,0.1c-0.4,0.1-0.9,0.3-1.4,0.7l0,0c-3.1,1.9-3.6,6.9-3.6,6.9l4.4,2.4
		l35-20.1C616.8,338.2,615.9,335.8,613.7,334.9z"/>
	<g class="st34">
		<line class="st13" x1="577.4" y1="356" x2="581.8" y2="358.3"/>
		<g>
			<line class="st13" x1="584.4" y1="348.3" x2="588.8" y2="350.8"/>
			<line class="st13" x1="588.4" y1="342.1" x2="592.7" y2="344.4"/>
			<line class="st13" x1="606.1" y1="334.2" x2="601.7" y2="331.7"/>
		</g>
	</g>
	<path class="st35" d="M581.8,358.3l35-20.1c0,0-2.5-6.3-8.9-2.5c0,0-2.2-3.9-8.7,0c-6.3,3.8-6.4,8.8-6.4,8.8s-3.3,1.9-4,6.3
		C588.8,350.8,583.6,349.3,581.8,358.3z"/>
	<path class="st33" d="M649.1,335.9L649.1,335.9l-3.9-2.1c-0.2-0.1-0.3-0.2-0.5-0.3l0,0l-0.1-0.1c0,0-0.3-0.1-0.7-0.3
		c-0.3-0.1-0.7-0.2-1-0.2c-0.9-0.1-2.3,0.1-3.6,1l-1.7-0.9c-0.2-0.1-0.3-0.2-0.4-0.3l-0.1-0.1l0,0c-1.4-0.6-3.6-0.7-6.9,1.4
		c-6.2,4.1-6.4,8.8-6.4,8.8s-3.3,1.9-4,6.3c0,0-0.6-0.4-1.9,0.1c-0.4,0.1-0.9,0.3-1.4,0.7l0,0c-3.1,1.9-3.6,6.9-3.6,6.9l4.4,2.4
		l35-20.1C652.2,339.2,651.2,336.9,649.1,335.9z"/>
	<g class="st34">
		<line class="st13" x1="612.8" y1="357" x2="617.2" y2="359.4"/>
		<g>
			<line class="st13" x1="619.8" y1="349.4" x2="624.2" y2="351.8"/>
			<line class="st13" x1="623.8" y1="343.1" x2="628.1" y2="345.5"/>
			<line class="st13" x1="641.5" y1="335.3" x2="637.1" y2="332.8"/>
		</g>
	</g>
	<path class="st35" d="M617.2,359.4l35-20.1c0,0-2.5-6.3-8.9-2.5c0,0-2.2-3.9-8.7,0c-6.3,3.8-6.4,8.8-6.4,8.8s-3.3,1.9-4,6.3
		C624.2,351.8,619,350.3,617.2,359.4z"/>
	<path class="st33" d="M618.7,373.3L618.7,373.3l-3.9-2.1c-0.2-0.1-0.3-0.2-0.5-0.3l0,0l-0.1-0.1c0,0-0.3-0.1-0.7-0.3
		c-0.3-0.1-0.7-0.2-1-0.2c-0.9-0.1-2.3,0.1-3.6,1l-1.7-0.9c-0.2-0.1-0.3-0.2-0.4-0.3l-0.1-0.1l0,0c-1.4-0.6-3.6-0.7-6.9,1.4
		c-6.2,4.1-6.4,8.8-6.4,8.8s-3.3,1.9-4,6.3c0,0-0.6-0.4-1.9,0.1c-0.4,0.1-0.9,0.3-1.4,0.7l0,0c-3.1,1.9-3.6,6.9-3.6,6.9l4.4,2.4
		l35-20.1C621.7,376.6,620.8,374.2,618.7,373.3z"/>
	<g class="st34">
		<line class="st13" x1="582.3" y1="394.4" x2="586.7" y2="396.8"/>
		<g>
			<line class="st13" x1="589.3" y1="386.8" x2="593.7" y2="389.2"/>
			<line class="st13" x1="593.3" y1="380.5" x2="597.7" y2="382.9"/>
			<line class="st13" x1="611" y1="372.6" x2="606.6" y2="370.2"/>
		</g>
	</g>
	<path class="st35" d="M586.7,396.8l35-20.1c0,0-2.5-6.3-8.9-2.5c0,0-2.2-3.9-8.7,0c-6.3,3.8-6.4,8.8-6.4,8.8s-3.3,1.9-4,6.3
		C593.7,389.2,588.5,387.7,586.7,396.8z"/>
</g>
<path class="st29" d="M458.6,365.7L458.6,365.7l-23.8-13c-1-0.6-2-1.2-3.1-1.7l0,0l-0.6-0.3c0,0-1.5-0.7-4-1.3c-2-0.6-4.2-0.9-6.5-1
	c-5.9-0.4-13.9,0.7-22.3,6l-10.6-5.8c-0.9-0.5-1.8-1.1-2.7-1.5l-0.6-0.3l0,0c-8.3-3.6-21.8-4.3-42.4,9
	c-38.2,24.7-39.3,54.3-39.3,54.3s-20.1,11.3-24.5,38.8c0,0-3.7-2.4-12,0.4c-2.8,0.8-5.8,2.1-8.8,4.2l0,0c-19.3,11.5-21.7,42-21.7,42
	l26.9,14.7l214.9-124.1C477.3,386,471.7,371.9,458.6,365.7z"/>
<path class="st30" d="M262.4,510.1L477.3,386c0,0-15.5-38.9-54.6-15.5c0,0-13.6-23.9-53.9,0c-39.1,23.2-39.3,54.3-39.3,54.3
	s-20.1,11.3-24.5,38.8C305,463.6,273.3,454.3,262.4,510.1z"/>
<g>
	<circle class="st14" cx="908.3" cy="476.6" r="19.3"/>
	<polygon class="st16" points="921.1,480 920,478.6 909.2,487.2 909.2,485.4 909.2,485.4 909.2,485.4 909.2,476.7 907.6,476.7 
		907.6,484 897.6,475.6 896.5,476.9 907.6,486.3 907.6,510.9 909.2,510.9 909.2,489.4 909.2,489.4 	"/>
</g>
<g>
	<circle class="st14" cx="860.5" cy="520.4" r="15.6"/>
	<polygon class="st16" points="870.8,523.2 869.9,522.1 861.2,528.9 861.2,527.5 861.2,527.4 861.2,527.4 861.2,520.4 859.9,520.4 
		859.9,526.4 851.9,519.5 850.9,520.6 859.9,528.2 859.9,548 861.2,548 861.2,530.7 861.2,530.7 	"/>
</g>
<linearGradient id="SVGID_33_" gradientUnits="userSpaceOnUse" x1="365.6" y1="1272.9" x2="419" y2="1272.9" gradientTransform="matrix(1 0 0 -1 0 1498)">
	<stop  offset="0" style="stop-color:#ECCBAB"/>
	<stop  offset="0.5843" style="stop-color:#C69C6D"/>
</linearGradient>
<circle class="st36" cx="392.3" cy="225.1" r="26.7"/>
<linearGradient id="SVGID_34_" gradientUnits="userSpaceOnUse" x1="154.2" y1="1380.8" x2="207.6" y2="1380.8" gradientTransform="matrix(1 0 0 -1 0 1498)">
	<stop  offset="0" style="stop-color:#ECCBAB"/>
	<stop  offset="0.5843" style="stop-color:#C69C6D"/>
</linearGradient>
<circle class="st37" cx="180.9" cy="117.2" r="26.7"/>
<linearGradient id="SVGID_35_" gradientUnits="userSpaceOnUse" x1="75.2" y1="1310.1" x2="167.101" y2="1310.1" gradientTransform="matrix(1 0 0 -1 0 1498)">
	<stop  offset="0" style="stop-color:#ECCBAB"/>
	<stop  offset="0.5843" style="stop-color:#C69C6D"/>
</linearGradient>
<circle class="st38" cx="121.2" cy="187.9" r="46"/>
<g>
	<g>
		<g>
			<polygon class="st14" points="261,577.5 191.8,617.8 122.1,577.5 191.3,537.3 			"/>
		</g>
		<g>
			<polygon class="st16" points="261,577.5 260.8,589.7 191.6,629.9 191.8,617.8 			"/>
		</g>
		<g>
			<polygon class="st16" points="191.8,617.8 191.6,629.7 121.9,589.4 122.1,577.5 			"/>
		</g>
	</g>
</g>
<g>
	<g>
		<g class="st22">
			<g>
				<polygon class="st23" points="231.2,501.2 190.7,524.8 150,501.2 190.4,477.7 				"/>
			</g>
			<g>
				<polygon class="st17" points="190.7,524.8 190.6,599.4 149.8,575.9 150,501.2 				"/>
			</g>
		</g>
	</g>
</g>
<g>
	<g>
		<g>
			<g>
				<polygon class="st21" points="212.2,483.4 237.9,498 186.7,527.5 				"/>
			</g>
			<g>
				<polygon class="st14" points="212.2,483.4 171.1,459.5 196.7,474 237.9,498 				"/>
			</g>
			<g>
				<polygon class="st16" points="186.7,527.5 145.6,503.6 171.1,459.5 212.2,483.4 				"/>
			</g>
		</g>
	</g>
</g>
<g>
	<g>
		<polygon class="st21" points="231.2,501.2 231.1,576 190.6,599.5 190.7,524.8 		"/>
	</g>
</g>
</svg>
