<?xml version="1.0" encoding="utf-8"?>
<!-- Generator: Adobe Illustrator 24.2.1, SVG Export Plug-In . SVG Version: 6.00 Build 0)  -->
<svg version="1.1" id="Layer_1" xmlns="http://www.w3.org/2000/svg" xmlns:xlink="http://www.w3.org/1999/xlink" x="0px" y="0px"
	 viewBox="0 0 1125 1799.6" style="enable-background:new 0 0 1125 1799.6;" xml:space="preserve">
<style type="text/css">
	.st0{fill:url(#SVGID_1_);}
	.st1{fill:none;}
	.st2{opacity:0.44;fill:url(#SVGID_2_);}
	.st3{opacity:0.44;fill:url(#SVGID_3_);}
	.st4{opacity:0.29;fill:url(#SVGID_4_);}
	.st5{opacity:0.29;fill:url(#SVGID_5_);}
	.st6{opacity:0.29;fill:url(#SVGID_6_);}
</style>
<g>
	<g>
		
			<linearGradient id="SVGID_1_" gradientUnits="userSpaceOnUse" x1="425.6" y1="-6384.1655" x2="425.6" y2="-6381.1655" gradientTransform="matrix(1 0 0 1 0 6277.3213)">
			<stop  offset="0" style="stop-color:#486975"/>
			<stop  offset="0.584" style="stop-color:#213540"/>
		</linearGradient>
		<path class="st0" d="M425.6-103.8c1.9,0,1.9-3,0-3S423.7-103.8,425.6-103.8L425.6-103.8z"/>
	</g>
</g>
<g>
	<line class="st1" x1="-1176.2" y1="1570.5" x2="-1120" y2="1601.2"/>
	<g>
		<line class="st1" x1="-1087.1" y1="1473.2" x2="-1030.9" y2="1503.9"/>
		<line class="st1" x1="-1035.7" y1="1392.1" x2="-979.5" y2="1422.8"/>
		<line class="st1" x1="-807.3" y1="1291" x2="-864.7" y2="1259.5"/>
	</g>
</g>
<linearGradient id="SVGID_2_" gradientUnits="userSpaceOnUse" x1="482.7832" y1="-3020.7378" x2="567.4685" y2="-3020.7378" gradientTransform="matrix(1 0 0 1 0 3941.3213)">
	<stop  offset="0" style="stop-color:#ECCBAB"/>
	<stop  offset="0.5843" style="stop-color:#C69C6D"/>
</linearGradient>
<circle class="st2" cx="525.1" cy="920.6" r="42.3"/>
<linearGradient id="SVGID_3_" gradientUnits="userSpaceOnUse" x1="7.6513" y1="-3484.6489" x2="184.5226" y2="-3484.6489" gradientTransform="matrix(1 0 0 1 0 3941.3213)">
	<stop  offset="0" style="stop-color:#ECCBAB"/>
	<stop  offset="0.5843" style="stop-color:#C69C6D"/>
</linearGradient>
<circle class="st3" cx="96.1" cy="456.7" r="88.4"/>
<linearGradient id="SVGID_4_" gradientUnits="userSpaceOnUse" x1="540.8891" y1="354.5257" x2="1419.5693" y2="354.5257" gradientTransform="matrix(0.9769 0.2136 -0.2136 0.9769 98.3772 -201.2394)">
	<stop  offset="0" style="stop-color:#ECCBAB"/>
	<stop  offset="0.5843" style="stop-color:#C69C6D"/>
</linearGradient>
<path class="st4" d="M1469.2,137.7c17.3-123.2-65.7-239.2-189.2-261.6c-33.9-6.2-67.5-4.6-98.8,3.3C1066.5-97.7,953.9-34,909.4,35
	c-16.2,25-31,49.4-47.9,74.7c-13.8,17.9-27.4,36.7-40.6,56.4C778.4,220.7,718.2,284,614,369c-85.8,70-116.7,129.4-124.5,173.9
	c-1.5,5.7-2.8,11.5-3.8,17.4c-23,126.7,61,248.1,187.7,271.1c17.2,3.1,34.4,4.3,51.2,3.6c120,8.9,298.9-127.7,350.4-207.5
	c16.2-25,31-49.4,47.9-74.7c13.8-17.9,27.4-36.7,40.6-56.4c42.5-54.5,102.8-117.8,207-202.8C1477.1,206.5,1471.4,183.8,1469.2,137.7
	z"/>
<linearGradient id="SVGID_5_" gradientUnits="userSpaceOnUse" x1="-753.7364" y1="1660.0487" x2="124.9438" y2="1660.0487" gradientTransform="matrix(-1 0 0 -1 -524.1764 3132.6599)">
	<stop  offset="0" style="stop-color:#ECCBAB"/>
	<stop  offset="0.5843" style="stop-color:#C69C6D"/>
</linearGradient>
<path class="st5" d="M-641.2,1788.9c9.5,124.1,115.3,219.6,240.8,215.1c34.5-1.2,66.9-9.9,95.8-24.3
	c107.1-46.9,203.5-133.1,232.3-210.1c10.5-27.9,19.7-54.8,30.8-83.3c9.7-20.4,18.9-41.7,27.6-63.8c29.9-62.3,75.2-137,158.9-242.3
	c68.9-86.7,86.4-151.3,84.4-196.5c0.2-5.9,0.3-11.8,0-17.8c-4.6-128.7-112.6-229.3-241.3-224.7c-17.5,0.6-34.5,3.2-50.8,7.4
	c-119.1,16.9-264.7,188.6-297.9,277.5c-10.5,27.9-19.7,54.8-30.8,83.3c-9.7,20.4-18.9,41.7-27.6,63.8
	c-29.9,62.3-75.2,137-158.9,242.3C-663.6,1723.4-653.1,1744.3-641.2,1788.9z"/>
<linearGradient id="SVGID_6_" gradientUnits="userSpaceOnUse" x1="684.5826" y1="1161.6625" x2="1479.9962" y2="1161.6625" gradientTransform="matrix(-0.286 0.9582 -0.9582 -0.286 2583.0791 698.4033)">
	<stop  offset="0" style="stop-color:#ECCBAB"/>
	<stop  offset="0.5843" style="stop-color:#C69C6D"/>
</linearGradient>
<path class="st6" d="M1323.1,1859.4c110.1,23.9,220.3-43.2,248.9-153.2c7.9-30.2,8.7-60.6,3.7-89.4c-13-105.1-62.8-211-122.1-255.9
	c-21.5-16.3-42.5-31.3-64.2-48.3c-15.2-13.7-31.3-27.2-48.2-40.4c-46.3-42.1-99.4-100.7-169.1-200.5
	c-57.4-82.2-108.9-114.1-148.6-124.1c-5.1-1.7-10.2-3.3-15.5-4.7c-112.8-29.3-228.1,38.3-257.4,151.2c-4,15.4-6.2,30.8-6.7,46
	c-16.1,107.7,95.1,278.5,163.6,330.3c21.5,16.3,42.5,31.3,64.2,48.3c15.2,13.7,31.3,27.2,48.2,40.4
	c46.3,42.1,99.4,100.7,169.1,200.5C1260.5,1861.9,1281.3,1858.2,1323.1,1859.4z"/>
</svg>
