<?xml version="1.0" encoding="utf-8"?>
<!-- Generator: Adobe Illustrator 24.2.1, SVG Export Plug-In . SVG Version: 6.00 Build 0)  -->
<svg version="1.1" id="Layer_1" xmlns="http://www.w3.org/2000/svg" xmlns:xlink="http://www.w3.org/1999/xlink" x="0px" y="0px"
	 viewBox="0 0 1125 1799.6" style="enable-background:new 0 0 1125 1799.6;" xml:space="preserve">
<style type="text/css">
	.st0{opacity:0.24;}
	.st1{opacity:0.24;fill:url(#XMLID_6_);enable-background:new    ;}
	.st2{clip-path:url(#SVGID_2_);fill:url(#SVGID_3_);}
	.st3{clip-path:url(#SVGID_5_);}
	.st4{clip-path:url(#SVGID_7_);fill:url(#SVGID_8_);}
	.st5{opacity:0.24;fill:url(#XMLID_7_);enable-background:new    ;}
	.st6{clip-path:url(#SVGID_10_);fill:url(#SVGID_11_);}
	.st7{clip-path:url(#SVGID_13_);}
	.st8{clip-path:url(#SVGID_15_);fill:url(#SVGID_16_);}
	.st9{opacity:0.24;fill:url(#XMLID_8_);enable-background:new    ;}
	.st10{clip-path:url(#SVGID_18_);fill:url(#SVGID_19_);}
	.st11{clip-path:url(#SVGID_21_);}
	.st12{clip-path:url(#SVGID_23_);fill:url(#SVGID_24_);}
	.st13{opacity:0.24;fill:url(#XMLID_9_);enable-background:new    ;}
	.st14{clip-path:url(#SVGID_26_);fill:url(#SVGID_27_);}
	.st15{clip-path:url(#SVGID_29_);}
	.st16{clip-path:url(#SVGID_31_);fill:url(#SVGID_32_);}
	.st17{fill:url(#SVGID_33_);}
	.st18{fill:none;}
	.st19{fill:url(#SVGID_34_);}
	.st20{fill:url(#SVGID_35_);}
</style>
<g class="st0">
	<g>
		
			<linearGradient id="XMLID_6_" gradientUnits="userSpaceOnUse" x1="-2896.8708" y1="2497.8203" x2="-2896.8708" y2="2885.1851" gradientTransform="matrix(-0.8719 0.4897 -0.4897 -0.8719 -1164.746 5302.8896)">
			<stop  offset="0" style="stop-color:#ECCBAB"/>
			<stop  offset="0.5843" style="stop-color:#C69C6D"/>
		</linearGradient>
		<path id="XMLID_2_" class="st1" d="M311.3,1563.3c-72.1,141.4-309.3,210.3-565.4,112.2c-13.8-23.9-27.5-47.9-41.3-71.8
			c-5.3-92.9,132.7-187.5,194.6-196.3c62-8.8,114.7-8.8,245.6-83c130.9-74.2,161.4,15.1,161.4,15.1
			C368.4,1461.4,322.4,1541.6,311.3,1563.3z"/>
	</g>
	<g>
		<g>
			<g>
				<defs>
					<path id="SVGID_1_" d="M311.3,1563.3c-72.1,141.4-309.3,210.3-565.4,112.2c-13.8-23.9-27.5-47.9-41.3-71.8
						c-5.3-92.9,132.7-187.5,194.6-196.3c62-8.8,114.7-8.8,245.6-83c130.9-74.2,161.4,15.1,161.4,15.1
						C368.4,1461.4,322.4,1541.6,311.3,1563.3z"/>
				</defs>
				<clipPath id="SVGID_2_">
					<use xlink:href="#SVGID_1_"  style="overflow:visible;"/>
				</clipPath>
				
					<linearGradient id="SVGID_3_" gradientUnits="userSpaceOnUse" x1="-2921.6804" y1="-4414.5977" x2="-2921.6804" y2="-3649.5024" gradientTransform="matrix(-0.8719 0.4897 0.4897 0.8719 -427.5603 6615.4761)">
					<stop  offset="0" style="stop-color:#ECCBAB"/>
					<stop  offset="0.5843" style="stop-color:#C69C6D"/>
				</linearGradient>
				<polygon class="st2" points="680.4,1807.7 -14.9,2198.2 -389.5,1531.2 305.7,1140.7 				"/>
			</g>
		</g>
	</g>
	<g>
		<g>
			<g>
				<defs>
					<path id="SVGID_4_" d="M311.3,1563.3c-72.1,141.4-309.3,210.3-565.4,112.2c-13.8-23.9-27.5-47.9-41.3-71.8
						c-5.3-92.9,132.7-187.5,194.6-196.3c62-8.8,114.7-8.8,245.6-83c130.9-74.2,161.4,15.1,161.4,15.1
						C368.4,1461.4,322.4,1541.6,311.3,1563.3z"/>
				</defs>
				<clipPath id="SVGID_5_">
					<use xlink:href="#SVGID_4_"  style="overflow:visible;"/>
				</clipPath>
				<g class="st3">
					<g>
						<g>
							<g>
								<g>
									<defs>
										
											<rect id="SVGID_6_" x="-21.7" y="1238.4" transform="matrix(0.8719 -0.4897 0.4897 0.8719 -950.4539 428.6061)" width="731.3" height="1585"/>
									</defs>
									<clipPath id="SVGID_7_">
										<use xlink:href="#SVGID_6_"  style="overflow:visible;"/>
									</clipPath>
									
										<linearGradient id="SVGID_8_" gradientUnits="userSpaceOnUse" x1="-3263.4329" y1="-4600.0713" x2="-2280.2263" y2="-4600.0713" gradientTransform="matrix(-0.8719 0.4897 0.4897 0.8719 -427.5601 6615.4761)">
										<stop  offset="0" style="stop-color:#ECCBAB"/>
										<stop  offset="0.5843" style="stop-color:#C69C6D"/>
									</linearGradient>
									<path class="st4" d="M-978.7,977.9l691.1-512.8c192.1,259,418.8,564.5,611.1,823.5c-51.8,39.6-126.5,108.3-173.1,213.8
										C81.7,1657.9,96.8,1717,22.9,1836.5c-32.9,53.2-98.9,123.4-248,168.2C-217.9,1999.4-978.7,977.9-978.7,977.9z"/>
								</g>
							</g>
						</g>
					</g>
				</g>
			</g>
		</g>
	</g>
</g>
<g class="st0">
	<g>
		
			<linearGradient id="XMLID_7_" gradientUnits="userSpaceOnUse" x1="-2183.8181" y1="2361.5598" x2="-2183.8181" y2="2959.0457" gradientTransform="matrix(-0.8626 -0.5058 -0.5058 0.8626 -559.7657 -2558.552)">
			<stop  offset="0" style="stop-color:#ECCBAB"/>
			<stop  offset="0.5843" style="stop-color:#C69C6D"/>
		</linearGradient>
		<path id="XMLID_3_" class="st5" d="M378.8,1154.2c0,0-49.7,136.8-249.4,18.6c-199.7-118.2-281.1-119.6-376.4-135
			c-95.3-15.3-305.4-165.2-294.5-308.3c21.9-36.5,43.8-73.1,65.7-109.6c397.9-144,761.7-31,868.8,189.2
			C409.4,842.9,478,967.9,378.8,1154.2z"/>
	</g>
	<g>
		<g>
			<g>
				<defs>
					<path id="SVGID_9_" d="M378.8,1154.2c0,0-49.7,136.8-249.4,18.6c-199.7-118.2-281.1-119.6-376.4-135
						c-95.3-15.3-305.4-165.2-294.5-308.3c21.9-36.5,43.8-73.1,65.7-109.6c397.9-144,761.7-31,868.8,189.2
						C409.4,842.9,478,967.9,378.8,1154.2z"/>
				</defs>
				<clipPath id="SVGID_10_">
					<use xlink:href="#SVGID_9_"  style="overflow:visible;"/>
				</clipPath>
				
					<linearGradient id="SVGID_11_" gradientUnits="userSpaceOnUse" x1="-2222.0869" y1="-4501.4307" x2="-2222.0869" y2="-3321.3186" gradientTransform="matrix(-0.8626 -0.5058 0.5058 -0.8626 201.718 -3857.1931)">
					<stop  offset="0" style="stop-color:#ECCBAB"/>
					<stop  offset="0.5843" style="stop-color:#C69C6D"/>
				</linearGradient>
				<polygon class="st6" points="372.2,1460.7 -688.8,838.5 -91.9,-179.4 969.1,442.8 				"/>
			</g>
		</g>
	</g>
	<g>
		<g>
			<g>
				<defs>
					<path id="SVGID_12_" d="M378.8,1154.2c0,0-49.7,136.8-249.4,18.6c-199.7-118.2-281.1-119.6-376.4-135
						c-95.3-15.3-305.4-165.2-294.5-308.3c21.9-36.5,43.8-73.1,65.7-109.6c397.9-144,761.7-31,868.8,189.2
						C409.4,842.9,478,967.9,378.8,1154.2z"/>
				</defs>
				<clipPath id="SVGID_13_">
					<use xlink:href="#SVGID_12_"  style="overflow:visible;"/>
				</clipPath>
				<g class="st7">
					<g>
						<g>
							<g>
								<g>
									<defs>
										
											<rect id="SVGID_14_" x="-765.7" y="-475.1" transform="matrix(0.5058 -0.8626 0.8626 0.5058 149.0205 437.9265)" width="2444.8" height="1128"/>
									</defs>
									<clipPath id="SVGID_15_">
										<use xlink:href="#SVGID_14_"  style="overflow:visible;"/>
									</clipPath>
									
										<linearGradient id="SVGID_16_" gradientUnits="userSpaceOnUse" x1="-2749.2188" y1="-4787.5117" x2="-1232.6842" y2="-4787.5117" gradientTransform="matrix(-0.8626 -0.5058 0.5058 -0.8626 201.7183 -3857.1931)">
										<stop  offset="0" style="stop-color:#ECCBAB"/>
										<stop  offset="0.5843" style="stop-color:#C69C6D"/>
									</linearGradient>
									<path class="st8" d="M-421.7,113C-193,186.4-93.2,296.5-44,379.5C66.5,566,41.6,656.7,143,898.4
										c68.9,164,182.1,272.1,260.8,334.7c-303.9,393.9-662.3,858.6-966,1252.5l-1051-810.7C-1613.2,1674.9-410.6,121.4-421.7,113
										z"/>
								</g>
							</g>
						</g>
					</g>
				</g>
			</g>
		</g>
	</g>
</g>
<g class="st0">
	<g>
		
			<linearGradient id="XMLID_8_" gradientUnits="userSpaceOnUse" x1="-3180.9587" y1="1640.4296" x2="-3180.9587" y2="2237.9153" gradientTransform="matrix(0.8626 0.5058 0.5058 -0.8626 2785.5962 3986.429)">
			<stop  offset="0" style="stop-color:#ECCBAB"/>
			<stop  offset="0.5843" style="stop-color:#C69C6D"/>
		</linearGradient>
		<path id="XMLID_4_" class="st9" d="M622.2,391.3c0,0,49.7-136.8,249.4-18.6c199.7,118.2,281.1,119.6,376.4,135
			c95.3,15.3,305.4,165.2,294.5,308.3c-21.9,36.5-43.8,73.1-65.7,109.6c-397.9,144-761.7,31-868.8-189.2
			C591.6,702.6,523,577.6,622.2,391.3z"/>
	</g>
	<g>
		<g>
			<g>
				<defs>
					<path id="SVGID_17_" d="M622.2,391.3c0,0,49.7-136.8,249.4-18.6c199.7,118.2,281.1,119.6,376.4,135
						c95.3,15.3,305.4,165.2,294.5,308.3c-21.9,36.5-43.8,73.1-65.7,109.6c-397.9,144-761.7,31-868.8-189.2
						C591.6,702.6,523,577.6,622.2,391.3z"/>
				</defs>
				<clipPath id="SVGID_18_">
					<use xlink:href="#SVGID_17_"  style="overflow:visible;"/>
				</clipPath>
				
					<linearGradient id="SVGID_19_" gradientUnits="userSpaceOnUse" x1="-3219.2278" y1="-3780.3" x2="-3219.2278" y2="-2600.1885" gradientTransform="matrix(0.8626 0.5058 -0.5058 0.8626 2024.1123 5285.0698)">
					<stop  offset="0" style="stop-color:#ECCBAB"/>
					<stop  offset="0.5843" style="stop-color:#C69C6D"/>
				</linearGradient>
				<polygon class="st10" points="628.8,84.8 1689.8,707 1092.9,1724.9 31.9,1102.7 				"/>
			</g>
		</g>
	</g>
	<g>
		<g>
			<g>
				<defs>
					<path id="SVGID_20_" d="M622.2,391.3c0,0,49.7-136.8,249.4-18.6c199.7,118.2,281.1,119.6,376.4,135
						c95.3,15.3,305.4,165.2,294.5,308.3c-21.9,36.5-43.8,73.1-65.7,109.6c-397.9,144-761.7,31-868.8-189.2
						C591.6,702.6,523,577.6,622.2,391.3z"/>
				</defs>
				<clipPath id="SVGID_21_">
					<use xlink:href="#SVGID_20_"  style="overflow:visible;"/>
				</clipPath>
				<g class="st11">
					<g>
						<g>
							<g>
								<g>
									<defs>
										
											<rect id="SVGID_22_" x="-678.2" y="892.7" transform="matrix(0.5058 -0.8626 0.8626 0.5058 -987.6409 1189.3165)" width="2444.8" height="1128"/>
									</defs>
									<clipPath id="SVGID_23_">
										<use xlink:href="#SVGID_22_"  style="overflow:visible;"/>
									</clipPath>
									
										<linearGradient id="SVGID_24_" gradientUnits="userSpaceOnUse" x1="-3746.3596" y1="-4066.3816" x2="-2229.825" y2="-4066.3816" gradientTransform="matrix(0.8626 0.5058 -0.5058 0.8626 2024.1121 5285.0698)">
										<stop  offset="0" style="stop-color:#ECCBAB"/>
										<stop  offset="0.5843" style="stop-color:#C69C6D"/>
									</linearGradient>
									<path class="st12" d="M1422.7,1432.5C1194,1359.1,1094.2,1249,1045,1166c-110.5-186.5-85.6-277.2-187-518.9
										c-68.9-164-182.1-272.1-260.8-334.7c303.9-393.9,662.3-858.6,966-1252.5l1051,810.7
										C2614.2-129.4,1411.6,1424.1,1422.7,1432.5z"/>
								</g>
							</g>
						</g>
					</g>
				</g>
			</g>
		</g>
	</g>
</g>
<g class="st0">
	<g>
		
			<linearGradient id="XMLID_9_" gradientUnits="userSpaceOnUse" x1="-573.3071" y1="1519.5554" x2="-573.3071" y2="2117.041" gradientTransform="matrix(0.8626 0.5058 0.5058 -0.8626 553.7839 3284.6287)">
			<stop  offset="0" style="stop-color:#ECCBAB"/>
			<stop  offset="0.5843" style="stop-color:#C69C6D"/>
		</linearGradient>
		<path id="XMLID_1_" class="st13" d="M578.6,1112.7c0,0,49.7-136.8,249.4-18.6c199.7,118.2,281.1,119.6,376.4,135
			c95.3,15.3,305.4,165.2,294.5,308.3c-21.9,36.5-43.8,73.1-65.7,109.6c-397.9,144-761.7,31-868.8-189.2
			C548,1424,479.4,1299,578.6,1112.7z"/>
	</g>
	<g>
		<g>
			<g>
				<defs>
					<path id="SVGID_25_" d="M578.6,1112.7c0,0,49.7-136.8,249.4-18.6c199.7,118.2,281.1,119.6,376.4,135
						c95.3,15.3,305.4,165.2,294.5,308.3c-21.9,36.5-43.8,73.1-65.7,109.6c-397.9,144-761.7,31-868.8-189.2
						C548,1424,479.4,1299,578.6,1112.7z"/>
				</defs>
				<clipPath id="SVGID_26_">
					<use xlink:href="#SVGID_25_"  style="overflow:visible;"/>
				</clipPath>
				
					<linearGradient id="SVGID_27_" gradientUnits="userSpaceOnUse" x1="-611.5762" y1="-3659.426" x2="-611.5762" y2="-2479.3142" gradientTransform="matrix(0.8626 0.5058 -0.5058 0.8626 -207.6999 4583.2695)">
					<stop  offset="0" style="stop-color:#ECCBAB"/>
					<stop  offset="0.5843" style="stop-color:#C69C6D"/>
				</linearGradient>
				<polygon class="st14" points="585.2,806.2 1646.2,1428.4 1049.3,2446.3 -11.7,1824.1 				"/>
			</g>
		</g>
	</g>
	<g>
		<g>
			<g>
				<defs>
					<path id="SVGID_28_" d="M578.6,1112.7c0,0,49.7-136.8,249.4-18.6c199.7,118.2,281.1,119.6,376.4,135
						c95.3,15.3,305.4,165.2,294.5,308.3c-21.9,36.5-43.8,73.1-65.7,109.6c-397.9,144-761.7,31-868.8-189.2
						C548,1424,479.4,1299,578.6,1112.7z"/>
				</defs>
				<clipPath id="SVGID_29_">
					<use xlink:href="#SVGID_28_"  style="overflow:visible;"/>
				</clipPath>
				<g class="st15">
					<g>
						<g>
							<g>
								<g>
									<defs>
										
											<rect id="SVGID_30_" x="-721.8" y="1614.1" transform="matrix(0.5058 -0.8626 0.8626 0.5058 -1631.5028 1508.2218)" width="2444.8" height="1128"/>
									</defs>
									<clipPath id="SVGID_31_">
										<use xlink:href="#SVGID_30_"  style="overflow:visible;"/>
									</clipPath>
									
										<linearGradient id="SVGID_32_" gradientUnits="userSpaceOnUse" x1="-1138.7079" y1="-3945.5073" x2="377.8267" y2="-3945.5073" gradientTransform="matrix(0.8626 0.5058 -0.5058 0.8626 -207.7002 4583.27)">
										<stop  offset="0" style="stop-color:#ECCBAB"/>
										<stop  offset="0.5843" style="stop-color:#C69C6D"/>
									</linearGradient>
									<path class="st16" d="M1379.1,2153.9c-228.7-73.4-328.5-183.5-377.7-266.5c-110.5-186.5-85.6-277.2-187-518.9
										c-68.9-164-182.1-272.1-260.8-334.7c303.9-393.9,662.3-858.6,966-1252.5l1051,810.7C2570.6,592,1368,2145.5,1379.1,2153.9z
										"/>
								</g>
							</g>
						</g>
					</g>
				</g>
			</g>
		</g>
	</g>
</g>
<g>
	<g>
		
			<linearGradient id="SVGID_33_" gradientUnits="userSpaceOnUse" x1="425.6" y1="-6384.1655" x2="425.6" y2="-6381.1655" gradientTransform="matrix(1 0 0 1 0 6277.3213)">
			<stop  offset="0" style="stop-color:#486975"/>
			<stop  offset="0.584" style="stop-color:#213540"/>
		</linearGradient>
		<path class="st17" d="M425.6-103.8c1.9,0,1.9-3,0-3S423.7-103.8,425.6-103.8L425.6-103.8z"/>
	</g>
</g>
<g>
	<line class="st18" x1="-1176.2" y1="1570.5" x2="-1120" y2="1601.2"/>
	<g>
		<line class="st18" x1="-1087.1" y1="1473.2" x2="-1030.9" y2="1503.9"/>
		<line class="st18" x1="-1035.7" y1="1392.1" x2="-979.5" y2="1422.8"/>
		<line class="st18" x1="-807.3" y1="1291" x2="-864.7" y2="1259.5"/>
	</g>
</g>
<linearGradient id="SVGID_34_" gradientUnits="userSpaceOnUse" x1="831.8353" y1="-2962.3103" x2="868.5415" y2="-2962.3103" gradientTransform="matrix(1 0 0 1 0 3941.3213)">
	<stop  offset="0" style="stop-color:#ECCBAB"/>
	<stop  offset="0.5843" style="stop-color:#C69C6D"/>
</linearGradient>
<circle class="st19" cx="850.2" cy="979" r="18.4"/>
<linearGradient id="SVGID_35_" gradientUnits="userSpaceOnUse" x1="482.7832" y1="-3020.7378" x2="567.4685" y2="-3020.7378" gradientTransform="matrix(1 0 0 1 0 3941.3213)">
	<stop  offset="0" style="stop-color:#ECCBAB"/>
	<stop  offset="0.5843" style="stop-color:#C69C6D"/>
</linearGradient>
<circle class="st20" cx="525.1" cy="920.6" r="42.3"/>
</svg>
