<?xml version="1.0" encoding="utf-8"?>
<!-- Generator: Adobe Illustrator 24.2.1, SVG Export Plug-In . SVG Version: 6.00 Build 0)  -->
<svg version="1.1" id="Layer_1" xmlns="http://www.w3.org/2000/svg" xmlns:xlink="http://www.w3.org/1999/xlink" x="0px" y="0px"
	 viewBox="0 0 800 1362" style="enable-background:new 0 0 800 1362;" xml:space="preserve">
<style type="text/css">
	.st0{opacity:5.000000e-02;enable-background:new    ;}
	.st1{fill:#4A306E;}
	.st2{fill:#C78D79;}
	.st3{fill:#654296;}
	.st4{fill:#BDDCFF;}
	.st5{fill:#3772CE;}
	.st6{fill:#E2E8F2;}
	.st7{fill:#936C61;}
</style>
<path class="st0" d="M672.2,390.9c0.8-1.4,1.4-2.8,2-4.2c0.6-1.4,1.1-2.7,1.8-3.7c0.9-1.4,1.7-2.2,2.1-2.7c0.4-0.4,0.7-0.5,0.8-0.5
	c1.9,0.5,3.9-0.5,4.5-2.4c0.1-0.2,0.2-0.5,0.2-0.7c4.3-1.8,11.4-5,19.9-9.7c0,0,0.5-1.4,0.9-3.8l9.1-4.9l32.3-12.3
	c0.1,0,0.2-0.1,0.2-0.1c0.9,0,1.9-0.3,2.8-0.7c0.7-0.3,1.2-0.8,1.7-1.2c1-1.1,1.7-2.3,2.3-3.6c0.4-0.8,0.8-1.4,1.2-2.2
	c0.5-0.8,0.8-1.5,1.1-2.3c0.2-0.8,0.2-1.7-0.2-2.5c-0.1-0.2-0.2-0.4-0.5-0.5c-0.2-0.1-0.2-0.1-0.4-0.1c-1.6,0.1-3,1.1-4.2,2.2
	c-1.7,1.4-3.3,3-5,4.5c-0.3,0.2-0.7,0.5-1,0.8c-0.2,0-0.2,0.1-0.4,0.2l-34.4,8.3l-6.4,2.4c-0.1-0.2-0.2-0.4-0.2-0.6
	c0,0-0.4-0.8-1.1-1.9l7.5-4.2L733,335c0.5-0.2,1-0.5,1.4-1c0.2,0,0.2,0,0.4,0l1.5-0.3c0.6-0.2,1.3-0.5,1.7-1
	c0.5-0.6,0.6-1.5,0.6-2.3c0.2-3,0.5-6,0-8.9c-0.1-0.7-0.2-1.4-0.6-2c-0.4-0.6-1.1-1-1.7-0.8c-0.8,0.2-1.2,1-1.5,1.7
	c-1.1,2.3-2.3,4.9-2.7,7.4c-0.1,0-0.2,0.1-0.2,0.1c-0.6,0.3-0.5,1.5-1.1,1.7c-0.1,0-27.5,8.3-27.5,8.3l-8.1,3.8
	c-1-0.8-2.1-1.4-3.3-2c0,0-18.3,7.5-31.5,19.4v0.1l-5.5,1l2.5-2.6c0.3-0.3,0.5-0.7,0.7-1.1c1.4-1.4,1.8-3.6,0.9-5.5
	c-0.3-0.6-0.6-1.1-1.1-1.5c0-0.2-0.1-0.3-0.1-0.5l-1.1-3.7l2.4-1.2c0.9-1.1,0.9-3.5-0.2-5.8c-1.1-2.3-2.9-3.9-4.3-4l-1.7,0.5
	c-1-0.8-2.3-1.1-3.6-0.7l0,0c-1.6,0.5-2.7,2-2.7,3.6l-0.8,0.4l0,0c-1.3,0.9-1.4,3.6-0.2,6.2c0.9,2,2.4,3.6,3.7,3.9l0.8,2.7
	c-0.5,1.1-0.6,2.5-0.1,3.8l-15.2,16c-1.2,1.3-1.3,3.2-0.3,4.5c0.1,0.5,0.4,1.1,0.9,1.4l0.7,0.8l0.9,1l-1.3,0.6
	c-0.9-1.5-2.2-2.7-3.9-3.2c-1.8-0.5-3.8,0.1-5.6,0.8c-0.1,0.1-0.2,0.1-0.3,0.2c-0.5-0.2-1-0.3-1.6-0.4c0,0-0.1,0-0.2,0
	c-1-0.5-2.3-0.7-3.5-0.5c-1.7,0.3-3.3,1.4-4.1,3c-0.8,1.4-0.9,3-1.1,4.5c-0.1,0.7-0.1,1.3-0.1,2c-0.1,0.6-0.1,1.2,0,1.7
	c-0.2,2,0.4,4.3,2,7c2.8,4.7,8.1,5.1,12.9,3.4c1.7-0.6,3.6-1.3,5.3-2.3c1.4-0.8,2.7-1.7,3.7-2.9c0.9-0.5,1.7-1.1,2.3-1.9
	c1.1-1.4,1.9-2.9,3-4.2l1.7,1.9c0.1,0.1,0.1,0.1,0.2,0.2c0.3,0.5,0.7,1.1,1.2,1.4l8.5,5.5c1.2,0.8,3,1.9,5.1,2.3
	C665.3,397.7,669.6,395.3,672.2,390.9z M662.4,389.8c-0.6-0.1-1.4-0.7-2.2-1.1l-5.2-3.4l0.7-0.5l13-8l0.2,0.5l2,0.2
	c-0.4,0.5-0.7,1-1.1,1.5c-1.1,1.6-1.7,3.3-2.4,4.9c-0.5,1.2-1,2.3-1.6,3.3C664.9,388.8,663.4,389.9,662.4,389.8z"/>
<g>
	<g>
		<g>
			<g>
				<g>
					<g>
						<g>
							<g>
								<g>
									<g>
										<g>
											<g>
												<g>
													<g>
														<g>
															<g>
																<g>
																	<g>
																		<g>
																			<g>
																				<g>
																					<g>
																						<path class="st1" d="M756.2,210c0.2-2,0-4-0.2-5.8c-0.5-5-3-9.7-8.5-10.3c-10-1.1-12,5.8-12.5,14.2
																							c3.1,3.6,6.8,7.2,8.7,11.6c0.4,0.9,5.5,1,6.2,0.7c1.7-0.7,3.6-3.5,4.6-4.9C755.7,213.9,756,212,756.2,210z"/>
																					</g>
																				</g>
																			</g>
																		</g>
																	</g>
																</g>
															</g>
														</g>
													</g>
												</g>
											</g>
										</g>
									</g>
								</g>
							</g>
						</g>
					</g>
				</g>
			</g>
		</g>
	</g>
	<g>
		<g>
			<g>
				<g>
					<g>
						<g>
							<g>
								<g>
									<g>
										<g>
											<g>
												<g>
													<g>
														<g>
															<g>
																<g>
																	<g>
																		<g>
																			<g>
																				<g>
																					<g>
																						<g>
																							<path class="st1" d="M742,327c0.1,0.7,0.1,1.4-0.2,2c-0.4,0.8-1.1,1.1-1.8,1.5c-2.7,1.4-5.2,2.9-8.2,3.7
																								c-0.7,0.2-1.4,0.4-2,0.3c-0.7-0.1-1.4-0.6-1.5-1.2c-0.2-0.8,0.4-1.5,0.9-2.1c2.2-2.6,4.4-5.2,7.4-6.7
																								c0.9-0.5,1.9-0.8,2.9-0.7c1,0.1,2,0.8,2.2,1.7L742,327z"/>
																						</g>
																					</g>
																				</g>
																			</g>
																		</g>
																	</g>
																</g>
															</g>
														</g>
													</g>
												</g>
											</g>
										</g>
									</g>
								</g>
							</g>
						</g>
					</g>
				</g>
			</g>
		</g>
	</g>
	<g>
		<g>
			<g>
				<g>
					<g>
						<g>
							<g>
								<g>
									<g>
										<g>
											<g>
												<g>
													<g>
														<g>
															<g>
																<g>
																	<g>
																		<g>
																			<g>
																				<g>
																					<g>
																						<g>
																							<path class="st1" d="M757.9,333.5c0,0.8-0.2,1.4-0.4,2c-0.5,1.4-1.4,2.5-2.3,3.6c-0.5,0.7-1,1.4-1.5,2
																								c-0.5,0.7-1.1,1.4-1.7,2c-0.7,0.5-1.5,0.9-2.3,0.8c-0.2,0-0.5-0.1-0.6-0.2c-0.1-0.1-0.2-0.2-0.2-0.3
																								c-0.6-1.5-0.2-3.2,0.2-4.7c0.6-2.2,1.4-4.2,2-6.4c0.4-1.5,0.9-3.6,2.7-3.9C756.7,328.1,758,331,757.9,333.5z
																								"/>
																						</g>
																					</g>
																				</g>
																			</g>
																		</g>
																	</g>
																</g>
															</g>
														</g>
													</g>
												</g>
											</g>
										</g>
									</g>
								</g>
							</g>
						</g>
					</g>
				</g>
			</g>
		</g>
	</g>
	<g>
		<g>
			<g>
				<g>
					<g>
						<g>
							<g>
								<g>
									<g>
										<g>
											<g>
												<g>
													<g>
														<g>
															<g>
																<g>
																	<g>
																		<g>
																			<g>
																				<g>
																					<g>
																						<path class="st2" d="M755.2,296l1.9-32l-0.7-7.7l-15.7,2.4l-8.4-0.4l-0.3,36.8c0,0,3.9,28.4,3.9,28.5
																							c0.1,0.7-1.1,1.1-1.1,1.7c0,0.8,0.4,2,2.1,2.3c0.7,0.2,2.6-0.3,3.1-0.8c1.1-0.8,1.9-2,1.8-3.4l-1.1-25.9
																							l2.4-27.7l0.7,13l0.8,13.2l6.7,34.7c0.1,1.4,0.6,2.6,1.9,2.6h1.7c1.4,0,2.4-1.2,2.4-2.8L755.2,296z"/>
																					</g>
																				</g>
																			</g>
																		</g>
																	</g>
																</g>
															</g>
														</g>
													</g>
												</g>
											</g>
										</g>
									</g>
								</g>
							</g>
						</g>
					</g>
				</g>
			</g>
		</g>
	</g>
	<g>
		<g>
			<g>
				<g>
					<g>
						<g>
							<g>
								<g>
									<g>
										<g>
											<g>
												<g>
													<g>
														<g>
															<g>
																<g>
																	<g>
																		<g>
																			<g>
																				<g>
																					<g>
																						<g>
																							<path class="st3" d="M753.9,247.6l5.3,8.8c0,0,1,10.9-0.4,27c0,0-5.8,5.9-15.2,5.8c0,0-9.1-0.1-14.7-5.2
																								c0,0-0.8-19.7,4.6-36.7L753.9,247.6z"/>
																						</g>
																					</g>
																				</g>
																			</g>
																		</g>
																	</g>
																</g>
															</g>
														</g>
													</g>
												</g>
											</g>
										</g>
									</g>
								</g>
							</g>
						</g>
					</g>
				</g>
			</g>
		</g>
	</g>
	<g>
		<g>
			<g>
				<g>
					<g>
						<g>
							<g>
								<g>
									<g>
										<g>
											<g>
												<g>
													<g>
														<g>
															<g>
																<g>
																	<g>
																		<g>
																			<g>
																				<g>
																					<g>
																						<path class="st4" d="M738.2,217.4L738.2,217.4c1.8,0.8,2.7,2.8,2,4.6l-9.2,23.1c-0.8,1.8-2.8,2.7-4.6,2l0,0
																							c-1.8-0.8-2.7-2.8-2-4.6l9.2-23.1C734.3,217.6,736.4,216.7,738.2,217.4z"/>
																					</g>
																				</g>
																			</g>
																		</g>
																	</g>
																</g>
															</g>
														</g>
													</g>
												</g>
											</g>
										</g>
									</g>
								</g>
							</g>
						</g>
					</g>
				</g>
			</g>
		</g>
	</g>
	<g>
		<g>
			<g>
				<g>
					<g>
						<g>
							<g>
								<g>
									<g>
										<g>
											<g>
												<g>
													<g>
														<g>
															<g>
																<g>
																	<g>
																		<g>
																			<g>
																				<g>
																					<g>
																						<path class="st5" d="M740.8,213.6L740.8,213.6c0.1,0,0.1-0.1,0.1-0.2C740.8,213.6,740.8,213.6,740.8,213.6z"
																							/>
																					</g>
																				</g>
																			</g>
																		</g>
																	</g>
																</g>
															</g>
														</g>
													</g>
												</g>
											</g>
										</g>
									</g>
								</g>
							</g>
						</g>
					</g>
				</g>
			</g>
		</g>
	</g>
	<g>
		<g>
			<g>
				<g>
					<g>
						<g>
							<g>
								<g>
									<g>
										<g>
											<g>
												<g>
													<g>
														<g>
															<g>
																<g>
																	<g>
																		<g>
																			<g>
																				<g>
																					<g>
																						<path class="st4" d="M755.1,232.4l-1.8,15.7c-0.2,0.2-0.4,0.3-0.6,0.5c-3.6,3.1-8.6,3.4-13.4,3.3
																							c-1.1-0.3-2.2-0.7-3.3-1.1c-1.1-0.5-1.9-1.4-2.1-2.7l-3.3-13.1l-0.1-0.2c-0.3-1.7-0.1-3.6,0.8-5.2l2.6-4.9
																							l0.8-2.7c0.2-2.9,2.7-5.8,4.7-4.5l1,0.3l1.5,0.5l6.7,2.3l2,0.7l3.8,1.4c1.8,0.6,2.8,2.7,2.3,4.7L755.1,232.4z
																							"/>
																					</g>
																				</g>
																			</g>
																		</g>
																	</g>
																</g>
															</g>
														</g>
													</g>
												</g>
											</g>
										</g>
									</g>
								</g>
							</g>
						</g>
					</g>
				</g>
			</g>
		</g>
	</g>
	<g>
		<g>
			<g>
				<g>
					<g>
						<g>
							<g>
								<g>
									<g>
										<g>
											<g>
												<g>
													<g>
														<g>
															<g>
																<g>
																	<g>
																		<g>
																			<g>
																				<g>
																					<g>
																						<path class="st6" d="M756.5,227.4l-1.4,5c-0.7,0.8-1.4,1.7-2,2.5c-1.4,1.7-2.9,3.6-4.9,4.5
																							c-3.3,1.5-7,0.3-10.4-1.1c-2-0.8-4.1-1.8-6.1-2.8c-0.4-0.2-0.8-0.4-1.2-0.6l-0.1-0.2
																							c-0.3-1.7-0.1-3.6,0.8-5.2l2.6-4.9l1-3.3c0.1-2.2,1.7-4.6,4.5-3.8l1,0.3l1.5,0.5l6.7,2.3l2,0.7l3.8,1.4
																							C756,223.3,757,225.4,756.5,227.4z"/>
																					</g>
																				</g>
																			</g>
																		</g>
																	</g>
																</g>
															</g>
														</g>
													</g>
												</g>
											</g>
										</g>
									</g>
								</g>
							</g>
						</g>
					</g>
				</g>
			</g>
		</g>
	</g>
	<g>
		<g>
			<g>
				<g>
					<g>
						<g>
							<g>
								<g>
									<g>
										<g>
											<g>
												<g>
													<g>
														<g>
															<g>
																<g>
																	<g>
																		<g>
																			<g>
																				<g>
																					<g>
																						<path class="st2" d="M750.4,221.4c-0.9,1.6-2.3,2.9-3.6,4.1c-1.1,0.9-2.1,1.8-3.5,2.2
																							c-1.3,0.5-2.9,0.3-3.9-0.5c-0.8-0.7-1.3-1.8-1.4-3c-0.1-1.1,0.2-2.2,0.6-3.3c0.4-1.1,0.9-2.1,1.5-3.2l1.5,0.5
																							l6.7,2.3L750.4,221.4z"/>
																					</g>
																				</g>
																			</g>
																		</g>
																	</g>
																</g>
															</g>
														</g>
													</g>
												</g>
											</g>
										</g>
									</g>
								</g>
							</g>
						</g>
					</g>
				</g>
			</g>
		</g>
	</g>
	<g>
		<g>
			<g>
				<g>
					<g>
						<g>
							<g>
								<g>
									<g>
										<g>
											<g>
												<g>
													<g>
														<g>
															<g>
																<g>
																	<g>
																		<g>
																			<g>
																				<g>
																					<g>
																						<path class="st6" d="M728.3,233l0.1,0.2h-0.1C728.3,233.1,728.3,233,728.3,233z"/>
																					</g>
																				</g>
																			</g>
																		</g>
																	</g>
																</g>
															</g>
														</g>
													</g>
												</g>
											</g>
										</g>
									</g>
								</g>
							</g>
						</g>
					</g>
				</g>
			</g>
		</g>
	</g>
	<g>
		<g>
			<g>
				<g>
					<g>
						<g>
							<g>
								<g>
									<g>
										<g>
											<g>
												<g>
													<g>
														<g>
															<g>
																<g>
																	<g>
																		<g>
																			<g>
																				<g>
																					<g>
																						<rect x="741.5" y="210.2" class="st2" width="7" height="12.8"/>
																					</g>
																				</g>
																			</g>
																		</g>
																	</g>
																</g>
															</g>
														</g>
													</g>
												</g>
											</g>
										</g>
									</g>
								</g>
							</g>
						</g>
					</g>
				</g>
			</g>
		</g>
	</g>
	<g>
		<g>
			<g>
				<g>
					<g>
						<g>
							<g>
								<g>
									<g>
										<g>
											<g>
												<g>
													<g>
														<g>
															<g>
																<g>
																	<g>
																		<g>
																			<g>
																				<g>
																					<g>
																						<polygon class="st7" points="747.8,212.4 741.5,219.1 741.4,218.9 741.4,214.5 																						"/>
																					</g>
																				</g>
																			</g>
																		</g>
																	</g>
																</g>
															</g>
														</g>
													</g>
												</g>
											</g>
										</g>
									</g>
								</g>
							</g>
						</g>
					</g>
				</g>
			</g>
		</g>
	</g>
	<g>
		<g>
			<g>
				<g>
					<g>
						<g>
							<g>
								<g>
									<g>
										<g>
											<g>
												<g>
													<g>
														<g>
															<g>
																<g>
																	<g>
																		<g>
																			<g>
																				<g>
																					<g>
																						<g>
																							<ellipse class="st5" cx="738.8" cy="204.2" rx="5.3" ry="5.9"/>
																						</g>
																					</g>
																				</g>
																			</g>
																		</g>
																	</g>
																</g>
															</g>
														</g>
													</g>
												</g>
											</g>
										</g>
									</g>
								</g>
							</g>
						</g>
					</g>
				</g>
			</g>
		</g>
	</g>
	<g>
		<g>
			<g>
				<g>
					<g>
						<g>
							<g>
								<g>
									<g>
										<g>
											<g>
												<g>
													<g>
														<g>
															<g>
																<g>
																	<g>
																		<g>
																			<g>
																				<g>
																					<g>
																						<path class="st5" d="M748.1,207.7L748.1,207.7c0.1,0,0.1-0.1,0.1-0.2C748.1,207.6,748.1,207.7,748.1,207.7z"
																							/>
																					</g>
																				</g>
																			</g>
																		</g>
																	</g>
																</g>
															</g>
														</g>
													</g>
												</g>
											</g>
										</g>
									</g>
								</g>
							</g>
						</g>
					</g>
				</g>
			</g>
		</g>
	</g>
	<g>
		<g>
			<g>
				<g>
					<g>
						<g>
							<g>
								<g>
									<g>
										<g>
											<g>
												<g>
													<g>
														<g>
															<g>
																<g>
																	<g>
																		<g>
																			<g>
																				<g>
																					<g>
																						<path class="st2" d="M748.3,209.8c-0.8-4.5-3.7-9.1-8.5-9.9c-0.5-0.1-0.5-0.5-0.4-0.8
																							c-0.1-0.2-0.1-0.5,0.1-0.6c-0.1,0-0.1,0-0.2,0c-0.9-0.2-1.9-0.2-2.7,0.3c-0.5,0.3-1,0.9-1.1,1.6
																							c-0.1,0.2-0.1,0.5,0,0.7c-0.1,1.8-0.2,3.6-0.2,5.5c0,0.8-0.1,1.7,0,2.5c0.1,2,0.4,4,1.6,5.5
																							c1.3,1.7,3.3,2.3,5.3,2.3c1.1,0,2.2-0.8,3.1-1.3c1.8-1.1,2.7-2.9,3.1-5.1c0-0.2,0.1-0.3,0.1-0.5
																							C748.4,209.9,748.4,209.9,748.3,209.8z"/>
																					</g>
																				</g>
																			</g>
																		</g>
																	</g>
																</g>
															</g>
														</g>
													</g>
												</g>
											</g>
										</g>
									</g>
								</g>
							</g>
						</g>
					</g>
				</g>
			</g>
		</g>
	</g>
	<g>
		<g>
			<g>
				<g>
					<g>
						<g>
							<g>
								<g>
									<g>
										<g>
											<g>
												<g>
													<g>
														<g>
															<g>
																<g>
																	<g>
																		<g>
																			<g>
																				<g>
																					<g>
																						<path class="st1" d="M745.2,198c-0.2-1-0.9-1.9-1.9-2.5c-0.6-0.4-1.2-0.5-1.8-0.5c-0.9-0.2-1.8,0.2-2.7,0.7
																							c-0.6,0.2-1.2,0.5-1.7,0.9c-1.4,0.8-2.7,1.6-3.6,2.8c-1.1,1.4-1.4,3.3-1,5c0.3,1.1,0.9,2.3,1.8,3
																							c0.2,0.5,0.5-0.6,0.7,0c0.2-1.7,1.2-1.4,2.6-2.3s3-1.6,4.5-2.3c1-0.5,2-1.1,2.7-1.9c0.2-0.2,0.4-0.5,0.5-0.8
																							C745.4,199.5,745.5,198.9,745.2,198z"/>
																					</g>
																				</g>
																			</g>
																		</g>
																	</g>
																</g>
															</g>
														</g>
													</g>
												</g>
											</g>
										</g>
									</g>
								</g>
							</g>
						</g>
					</g>
				</g>
			</g>
		</g>
	</g>
	<g>
		<g>
			<g>
				<g>
					<g>
						<g>
							<g>
								<g>
									<g>
										<g>
											<g>
												<g>
													<g>
														<g>
															<g>
																<g>
																	<g>
																		<g>
																			<g>
																				<g>
																					<g>
																						<ellipse class="st4" cx="725.6" cy="244.6" rx="4.9" ry="4.8"/>
																					</g>
																				</g>
																			</g>
																		</g>
																	</g>
																</g>
															</g>
														</g>
													</g>
												</g>
											</g>
										</g>
									</g>
								</g>
							</g>
						</g>
					</g>
				</g>
			</g>
		</g>
	</g>
	<g>
		<g>
			<g>
				<g>
					<g>
						<g>
							<g>
								<g>
									<g>
										<g>
											<g>
												<g>
													<g>
														<g>
															<g>
																<g>
																	<g>
																		<g>
																			<g>
																				<g>
																					<g>
																						<path class="st2" d="M726.8,244.9L726.8,244.9c0.2,2.1-1.2,4-3.3,4.3l-12.7,2c-2.1,0.2-4-1.2-4.3-3.3l0,0
																							c-0.2-2.1,1.2-4,3.3-4.3l12.7-2C724.6,241.2,726.5,242.7,726.8,244.9z"/>
																					</g>
																				</g>
																			</g>
																		</g>
																	</g>
																</g>
															</g>
														</g>
													</g>
												</g>
											</g>
										</g>
									</g>
								</g>
							</g>
						</g>
					</g>
				</g>
			</g>
		</g>
	</g>
	<g>
		<g>
			<g>
				<g>
					<g>
						<g>
							<g>
								<g>
									<g>
										<g>
											<g>
												<g>
													<g>
														<g>
															<g>
																<g>
																	<g>
																		<g>
																			<g>
																				<g>
																					<g>
																						<path class="st6" d="M719.5,252.4c-0.7,1.3-2.8,2.3-5.4,2.3s-4.8-1-5.4-2.3l-0.2-1.7V243h0.2
																							c0.6-1.4,2.8-2.4,5.5-2.4s4.9,1,5.5,2.4h0.2v0.7L719.5,252.4z"/>
																					</g>
																				</g>
																			</g>
																		</g>
																	</g>
																</g>
															</g>
														</g>
													</g>
												</g>
											</g>
										</g>
									</g>
								</g>
							</g>
						</g>
					</g>
				</g>
			</g>
		</g>
		<g>
			<g>
				<g>
					<g>
						<g>
							<g>
								<g>
									<g>
										<g>
											<g>
												<g>
													<g>
														<g>
															<g>
																<g>
																	<g>
																		<g>
																			<g>
																				<g>
																					<g>
																						<path class="st6" d="M708.4,243.3c0,1.7,2.5,3.1,5.6,3.1c3.1,0,5.6-1.4,5.6-3.1c0-1.7-2.5-3.1-5.6-3.1
																							C710.9,240.2,708.4,241.6,708.4,243.3z"/>
																					</g>
																				</g>
																			</g>
																		</g>
																	</g>
																</g>
															</g>
														</g>
													</g>
												</g>
											</g>
										</g>
									</g>
								</g>
							</g>
						</g>
					</g>
				</g>
			</g>
		</g>
		<g>
			<g>
				<g>
					<g>
						<g>
							<g>
								<g>
									<g>
										<g>
											<g>
												<g>
													<g>
														<g>
															<g>
																<g>
																	<g>
																		<g>
																			<g>
																				<g>
																					<g>
																						<path class="st5" d="M710.1,243.2c0,1.2,1.8,2.2,4,2.2c2.2,0,4-1,4-2.2s-1.8-2.2-4-2.2
																							C711.9,241,710.1,242,710.1,243.2z"/>
																					</g>
																				</g>
																			</g>
																		</g>
																	</g>
																</g>
															</g>
														</g>
													</g>
												</g>
											</g>
										</g>
									</g>
								</g>
							</g>
						</g>
					</g>
				</g>
			</g>
		</g>
	</g>
	<g>
		<g>
			<g>
				<g>
					<g>
						<g>
							<g>
								<g>
									<g>
										<g>
											<g>
												<g>
													<g>
														<g>
															<g>
																<g>
																	<g>
																		<g>
																			<g>
																				<g>
																					<g>
																						<path class="st1" d="M748.5,209.4c-3.4-2.2-5.5-6.3-5.3-10.3c2,0.7,3.9,2.3,4.8,4.2c1,2,1.1,4.3,0.4,6.4
																							L748.5,209.4z"/>
																					</g>
																				</g>
																			</g>
																		</g>
																	</g>
																</g>
															</g>
														</g>
													</g>
												</g>
											</g>
										</g>
									</g>
								</g>
							</g>
						</g>
					</g>
				</g>
			</g>
		</g>
	</g>
	<g>
		<g>
			<g>
				<g>
					<g>
						<g>
							<g>
								<g>
									<g>
										<g>
											<g>
												<g>
													<g>
														<g>
															<g>
																<g>
																	<g>
																		<g>
																			<g>
																				<g>
																					<g>
																						<path class="st6" d="M767.7,244.9c-0.9,1.4-2,2.4-3,3.6c-1,1.1-2,2.1-2.7,3.2c-0.9,1.4-1.4,2.4-1.5,3
																							c-0.2,0.5-0.2,0.8-0.2,0.9c1.3,1.5,1.1,3.8-0.4,5.2c-0.7,0.6-1.6,0.9-2.4,0.9c-1,0-2-0.4-2.7-1.2
																							c-1.7-1.9-2.2-4.2-1.6-7c0.4-1.7,1.3-3.7,2.6-5.8c1.1-1.7,2.3-3,3.4-4.2c0.9-1,1.7-1.8,2.3-2.8
																							c1.1-1.6,1.5-3.3,0.9-4.2c-0.3-0.5-1.2-1.1-2-1.5l-8.5-5.5c-1.7-1.1-2.2-3.4-1.1-5.1c1.1-1.7,3.4-2.2,5.1-1.1
																							l8.5,5.5c1.2,0.8,3,1.9,4.2,3.6C771,235.8,770.7,240.8,767.7,244.9z"/>
																					</g>
																				</g>
																			</g>
																		</g>
																	</g>
																</g>
															</g>
														</g>
													</g>
												</g>
											</g>
										</g>
									</g>
								</g>
							</g>
						</g>
					</g>
				</g>
			</g>
		</g>
	</g>
	<g>
		<g>
			<g>
				<g>
					<g>
						<g>
							<g>
								<g>
									<g>
										<g>
											<g>
												<g>
													<g>
														<g>
															<g>
																<g>
																	<g>
																		<g>
																			<g>
																				<g>
																					<path class="st1" d="M755.3,212.4c0-1.7-0.2-3.3-0.5-4.8c-0.2-1.1-0.5-2.2-1.3-3.1c-0.8-0.8-2-1.3-3-0.8
																						c-1.6,0.8-1.5,3-1.4,4.8c0.6,10.2-9.8,16.3-9.6,26.4c0.1,3.7,1.8,7.1,3.6,10.3c0.4,0.7,1,1.4,1.7,1.3
																						c0.4-0.1,0.7-0.4,0.9-0.7c2.1-2.5,3.3-5.7,3.8-8.9c0.8-5.2,0-9.8,2-14.7c0.8-1.7,2-3.3,2.9-5
																						C755.1,216,755.3,214.2,755.3,212.4z"/>
																				</g>
																			</g>
																		</g>
																	</g>
																</g>
															</g>
														</g>
													</g>
												</g>
											</g>
										</g>
									</g>
								</g>
							</g>
						</g>
					</g>
				</g>
			</g>
		</g>
	</g>
	<g>
		<g>
			<g>
				<g>
					<g>
						<g>
							<g>
								<g>
									<g>
										<g>
											<g>
												<g>
													<g>
														<g>
															<g>
																<g>
																	<g>
																		<g>
																			<g>
																				<g>
																					<g>
																						<g>
																							<path class="st2" d="M747.5,210.1c0.2,0.2,0.3,0.1,0.5,0.1c0-0.1,0-0.2,0-0.2L747.5,210.1z"/>
																						</g>
																					</g>
																				</g>
																			</g>
																		</g>
																	</g>
																</g>
															</g>
														</g>
													</g>
												</g>
											</g>
										</g>
									</g>
								</g>
							</g>
						</g>
					</g>
				</g>
			</g>
		</g>
		<g>
			<g>
				<g>
					<g>
						<g>
							<g>
								<g>
									<g>
										<g>
											<g>
												<g>
													<g>
														<g>
															<g>
																<g>
																	<g>
																		<g>
																			<g>
																				<g>
																					<g>
																						<g>
																							<path class="st2" d="M750.9,206.7c-0.8-0.2-1.5,0.6-1.8,1.5c-0.2,0.5-0.3,1-0.5,1.4
																								c-0.2,0.2-0.3,0.4-0.5,0.5c-0.2,0.8,0.2,1.7,0.8,1.9c0.7,0.2,1.3-0.2,1.8-0.8c0.6-0.6,1.1-1.4,1.2-2.3
																								C752,208,751.6,206.9,750.9,206.7z"/>
																						</g>
																					</g>
																				</g>
																			</g>
																		</g>
																	</g>
																</g>
															</g>
														</g>
													</g>
												</g>
											</g>
										</g>
									</g>
								</g>
							</g>
						</g>
					</g>
				</g>
			</g>
		</g>
	</g>
	<g>
		<g>
			<g>
				<g>
					<g>
						<g>
							<g>
								<g>
									<g>
										<g>
											<g>
												<g>
													<g>
														<g>
															<g>
																<g>
																	<g>
																		<g>
																			<g>
																				<g>
																					<path class="st2" d="M760.1,260.8c-0.7,0.6-1.6,0.9-2.4,0.9c-1,0-2-0.4-2.7-1.2c-1.7-1.9-2.2-4.2-1.6-7
																						c2,1.7,4.9,2.1,7.3,1.1c-0.2,0.5-0.2,0.8-0.2,0.9C761.7,257.2,761.6,259.5,760.1,260.8z"/>
																				</g>
																			</g>
																		</g>
																	</g>
																</g>
															</g>
														</g>
													</g>
												</g>
											</g>
										</g>
									</g>
								</g>
							</g>
						</g>
					</g>
				</g>
			</g>
		</g>
	</g>
</g>
</svg>
