<?xml version="1.0" encoding="utf-8"?>
<!-- Generator: Adobe Illustrator 24.2.1, SVG Export Plug-In . SVG Version: 6.00 Build 0)  -->
<svg version="1.1" id="Layer_1" xmlns="http://www.w3.org/2000/svg" xmlns:xlink="http://www.w3.org/1999/xlink" x="0px" y="0px"
	 viewBox="0 0 1024 731.5" style="enable-background:new 0 0 1024 731.5;" xml:space="preserve">
<style type="text/css">
	.st0{fill:#446B77;}
	.st1{fill:#F2D9B8;}
	.st2{fill:url(#SVGID_1_);}
	.st3{fill:none;}
	.st4{fill:#91BCC6;}
	.st5{fill:#405C68;}
	.st6{fill:url(#SVGID_2_);}
	.st7{fill:url(#SVGID_3_);}
	.st8{fill:url(#SVGID_4_);}
	.st9{fill:#A6DAE8;}
	.st10{fill:url(#SVGID_5_);}
	.st11{fill:none;stroke:url(#SVGID_6_);stroke-width:5;stroke-linecap:round;stroke-linejoin:round;stroke-miterlimit:10;}
	.st12{fill:url(#SVGID_7_);}
	.st13{fill:url(#SVGID_8_);}
	.st14{fill:#486975;}
	.st15{fill:#213540;}
	.st16{fill:#DDBF9B;}
	.st17{fill:#F9F0E5;}
	.st18{fill:url(#SVGID_9_);}
	.st19{fill:#C78D79;}
	.st20{fill:#3772CE;}
	.st21{fill:url(#SVGID_10_);}
	.st22{fill:#F9F1E5;}
	.st23{fill:#E2E8F2;}
	.st24{fill:#F2F4FA;}
	.st25{opacity:0.59;}
	.st26{fill:#3A5E66;}
</style>
<path id="XMLID_1_" class="st0" d="M522.9,270.5c0,0,24.3-42.9,103.7,2.6s112.9,48.7,151.9,57.1c39,8.3,125.5,64,117.1,110.2
	c-4.2,15.7-6.8,27.4-33.9,33.9c-168.5,33.1-315.8-16.3-354.1-91.8C501.7,370.8,476.8,327.7,522.9,270.5z"/>
<path id="XMLID_4_" class="st1" d="M533.3,273.7c0,0,17.7-48,106.8-14.7s124.1,31,165.5,33s139.5,44.6,138.6,93.4
	c-1.6,16.8-2.4,29.3-29.1,40.4c-167.3,62.2-326.8,36.2-378.7-34.8C528.4,380.2,495.5,340.2,533.3,273.7z"/>
<g>
	<g>
		
			<linearGradient id="SVGID_1_" gradientUnits="userSpaceOnUse" x1="375.1" y1="4311.5049" x2="375.1" y2="4308.5049" gradientTransform="matrix(1 0 0 -1 0 3736)">
			<stop  offset="0" style="stop-color:#486975"/>
			<stop  offset="0.584" style="stop-color:#213540"/>
		</linearGradient>
		<path class="st2" d="M375.1-572.5c1.9,0,1.9-3,0-3S373.2-572.5,375.1-572.5L375.1-572.5z"/>
	</g>
</g>
<g>
	<line class="st3" x1="-1226.7" y1="1101.8" x2="-1170.5" y2="1132.5"/>
	<g>
		<line class="st3" x1="-1137.6" y1="1004.5" x2="-1081.4" y2="1035.2"/>
		<line class="st3" x1="-1086.2" y1="923.4" x2="-1030" y2="954.1"/>
		<line class="st3" x1="-857.8" y1="822.3" x2="-915.2" y2="790.8"/>
	</g>
</g>
<g>
	<g>
		<g>
			<polygon class="st4" points="974,423.6 809.3,519.5 643.5,423.6 808.2,328 			"/>
		</g>
		<g>
			<polygon class="st5" points="974,423.6 973.5,452.7 808.9,548.3 809.3,519.5 			"/>
		</g>
		<g>
			<polygon class="st5" points="809.3,519.5 808.9,547.9 643,452 643.5,423.6 			"/>
		</g>
	</g>
</g>
<g>
	<g>
		<g>
			<g>
				<g>
					<polygon class="st0" points="813.6,356.7 813.3,470.9 727.5,421.4 727.7,307.3 					"/>
				</g>
			</g>
		</g>
		<g>
			<g>
				<g>
					<g>
						
							<linearGradient id="SVGID_2_" gradientUnits="userSpaceOnUse" x1="805.1325" y1="3419.9238" x2="912.8933" y2="3419.9238" gradientTransform="matrix(1 0 0 -1 0 3736)">
							<stop  offset="0" style="stop-color:#486975"/>
							<stop  offset="0.584" style="stop-color:#213540"/>
						</linearGradient>
						<polygon class="st6" points="858.9,269.6 912.9,300.4 805.1,362.6 						"/>
					</g>
					<g>
						
							<linearGradient id="SVGID_3_" gradientUnits="userSpaceOnUse" x1="772.1703" y1="3476.2383" x2="912.8933" y2="3476.2383" gradientTransform="matrix(1 0 0 -1 0 3736)">
							<stop  offset="0" style="stop-color:#486975"/>
							<stop  offset="0.584" style="stop-color:#213540"/>
						</linearGradient>
						<polygon class="st7" points="858.9,269.6 772.2,219.2 826.1,249.9 912.9,300.4 						"/>
					</g>
					<g>
						
							<linearGradient id="SVGID_4_" gradientUnits="userSpaceOnUse" x1="718.4675" y1="3445.1272" x2="858.8861" y2="3445.1272" gradientTransform="matrix(1 0 0 -1 0 3736)">
							<stop  offset="0" style="stop-color:#486975"/>
							<stop  offset="0.584" style="stop-color:#213540"/>
						</linearGradient>
						<polygon class="st8" points="805.1,362.6 718.5,312.2 772.2,219.2 858.9,269.6 						"/>
					</g>
				</g>
			</g>
		</g>
		<g>
			<g>
				<polygon class="st9" points="898.9,307.3 898.6,422.2 813.3,471.7 813.6,356.7 				"/>
			</g>
		</g>
		<g>
			
				<linearGradient id="SVGID_5_" gradientUnits="userSpaceOnUse" x1="750.552" y1="2715.0339" x2="783.4634" y2="2715.0339" gradientTransform="matrix(1 1.1719 0 -1 0 2247.4021)">
				<stop  offset="0" style="stop-color:#486975"/>
				<stop  offset="0.584" style="stop-color:#213540"/>
			</linearGradient>
			<path class="st10" d="M783.4,453.8l-32.9-19.3v-17c0-8.8,7.1-11.7,15.9-6.6l0.6,0.4c9,5.3,16.4,17,16.4,26.1V453.8z"/>
		</g>
		<g>
			
				<linearGradient id="SVGID_6_" gradientUnits="userSpaceOnUse" x1="747.9153" y1="3198.9373" x2="792.5206" y2="3198.9373" gradientTransform="matrix(1 0.3378 0 -1 0 3318.6838)">
				<stop  offset="0" style="stop-color:#486975"/>
				<stop  offset="0.584" style="stop-color:#213540"/>
			</linearGradient>
			<path class="st11" d="M750.4,364c0,0,1.4,19.2,20.5,25.7c19.2,6.5,19.1-12.6,19.1-12.6"/>
		</g>
	</g>
	<g>
		
			<linearGradient id="SVGID_7_" gradientUnits="userSpaceOnUse" x1="1593.7372" y1="2544.7583" x2="1604.9967" y2="2544.7583" gradientTransform="matrix(0.7668 -0.2332 -0.2332 -1.2332 131.4381 3867.438)">
			<stop  offset="0" style="stop-color:#486975"/>
			<stop  offset="0.584" style="stop-color:#213540"/>
		</linearGradient>
		<path class="st12" d="M768.7,354.9c0.8,3.8-0.6,7.6-3,8.3c-2.4,0.8-4.9-1.8-5.6-5.6c-0.8-3.8,0.6-7.6,3-8.3
			C765.4,348.6,768,351.1,768.7,354.9z"/>
	</g>
	<g>
		
			<linearGradient id="SVGID_8_" gradientUnits="userSpaceOnUse" x1="1606.0746" y1="2538.7671" x2="1617.3341" y2="2538.7671" gradientTransform="matrix(0.7668 -0.2332 -0.2332 -1.2332 131.4381 3867.438)">
			<stop  offset="0" style="stop-color:#486975"/>
			<stop  offset="0.584" style="stop-color:#213540"/>
		</linearGradient>
		<path class="st13" d="M779.6,359.4c0.8,3.8-0.6,7.6-3,8.3c-2.4,0.8-4.9-1.8-5.6-5.6c-0.8-3.8,0.6-7.6,3-8.3
			C776.3,353,778.8,355.6,779.6,359.4z"/>
	</g>
</g>
<g>
	<g>
		<circle class="st14" cx="888.7" cy="423.4" r="10.8"/>
		<polygon class="st15" points="895.8,425.4 895.2,424.5 889.1,429.4 889.1,428.3 889.1,428.3 889.1,428.3 889.1,423.5 888.2,423.5 
			888.2,427.6 882.6,422.9 882,423.6 888.2,428.9 888.2,442.6 889.1,442.6 889.1,430.5 889.1,430.5 		"/>
	</g>
</g>
<path class="st16" d="M641.1,314.5L641.1,314.5l-9.6-5.3c-0.4-0.3-0.8-0.5-1.3-0.7l0,0l-0.3-0.1c0,0-0.6-0.3-1.6-0.5
	c-0.8-0.3-1.7-0.4-2.6-0.4c-2.4-0.2-5.6,0.3-9,2.4l-4.3-2.3c-0.4-0.2-0.7-0.5-1.1-0.6l-0.3-0.1l0,0c-3.3-1.5-8.8-1.7-17.1,3.7
	c-15.4,10-15.9,22-15.9,22s-8.1,4.6-9.9,15.7c0,0-1.5-1-4.9,0.2c-1.1,0.3-2.3,0.9-3.5,1.7l0,0c-7.8,4.7-8.8,17-8.8,17l10.9,5.9
	l86.9-50.2C648.7,322.7,646.4,317,641.1,314.5z"/>
<path class="st17" d="M561.8,372.8l86.9-50.2c0,0-6.3-15.7-22.1-6.3c0,0-5.5-9.6-21.8,0c-15.8,9.4-15.9,22-15.9,22
	s-8.1,4.6-9.9,15.7C579.1,354.1,566.2,350.3,561.8,372.8z"/>
<g>
	<circle class="st14" cx="846.7" cy="424.9" r="24.6"/>
	<polygon class="st15" points="863,429.2 861.6,427.5 847.8,438.3 847.8,436.1 847.8,436.1 847.8,436.1 847.8,425 845.8,425 
		845.8,434.4 833,423.6 831.7,425.3 845.8,437.3 845.8,468.6 847.8,468.6 847.8,441.2 847.8,441.2 	"/>
</g>
<g>
	<circle class="st14" cx="885.9" cy="397.7" r="11.2"/>
	<polygon class="st15" points="893.2,399.7 892.6,398.9 886.4,403.8 886.4,402.8 886.4,402.7 886.4,402.7 886.4,397.7 885.5,397.7 
		885.5,402 879.6,397.1 879,397.8 885.5,403.2 885.5,417.5 886.4,417.5 886.4,405.1 886.4,405.1 	"/>
</g>
<g>
	<g>
		<g>
			<g>
				<g>
					<g>
						<g>
							<g>
								<g>
									<g>
										<path class="st15" d="M706.5,272.3c0.5-2.2,0.6-4.4,0.1-6.6c-1.1-4.2-4.5-7.4-8.2-9.5c-4.9-2.8-11.5-4.2-15.8-0.6
											c-4.9,4-5.2,10.9-6,16.5c-1.4,8.7-7.4,8.8-13.7,12.8c-4.8,3-7.1,9.3-5.4,14.7c7.6,24,43.6,5.9,45.1-13.4
											C702.9,280.7,705.4,277.4,706.5,272.3z"/>
									</g>
								</g>
							</g>
						</g>
					</g>
				</g>
			</g>
		</g>
		<g>
			<g>
				<g>
					<g>
						<g>
							<g>
								<g>
									<g>
										<path class="st15" d="M681.2,264.1l-0.4,2.1c0.1-0.1,0.1-0.1,0.1-0.2C681,265.4,681.1,264.8,681.2,264.1z"/>
									</g>
								</g>
							</g>
						</g>
					</g>
				</g>
			</g>
		</g>
	</g>
	<g>
		<g>
			<g>
				<g>
					<g>
						<g>
							<g>
								<g>
									
										<linearGradient id="SVGID_9_" gradientUnits="userSpaceOnUse" x1="699.7439" y1="302.5959" x2="712.8363" y2="302.5959" gradientTransform="matrix(1 0 0 -1 0 732)">
										<stop  offset="0" style="stop-color:#486975"/>
										<stop  offset="0.584" style="stop-color:#213540"/>
									</linearGradient>
									<path class="st18" d="M709.2,428c0.4,0.8,0.8,1.5,1.2,2.2c0.4,0.8,0.8,1.5,1.1,2.3c0.4,1.2,2,3.4,1,4.6
										c-1.5,1.6-4.8,0.3-6-0.9c-1.8-1.7-3.5-3.5-5.1-5.5c-0.7-0.9-1.3-1.7-1.5-2.8c-0.6-3.2,1.3-7.8,5.2-6.7
										c1.4,0.4,2,1.4,2.4,2.7C707.8,425.4,708.5,426.7,709.2,428z"/>
								</g>
							</g>
						</g>
					</g>
				</g>
			</g>
		</g>
	</g>
	<g>
		<g>
			<g>
				<g>
					<g>
						<g>
							<g>
								<g>
									<path class="st19" d="M707.8,423l2-13.2c-2.7-1.3-5.6-1.4-8.6-1.3c-0.4,5.3-0.9,14.2-0.9,14.3c-0.2,2.6,1.8,6,3.4,7.9
										c1.2,1.4,2.9,2.5,4.8,2.7c0.4,0.1,0.9,0,1.1-0.4c0.2-0.2,0.2-0.5,0.2-0.7C710,429,707.3,426.1,707.8,423z"/>
								</g>
							</g>
						</g>
					</g>
				</g>
			</g>
		</g>
	</g>
	<g>
		<g>
			<g>
				<g>
					<g>
						<g>
							<path class="st20" d="M664.5,398.6c-0.2,0.1-0.3,0.1-0.5,0.2l0.9-0.9c-0.1,0.2-0.2,0.4-0.3,0.5c-0.1,0.1-0.1,0.1-0.1,0.1
								C664.6,398.5,664.6,398.6,664.5,398.6L664.5,398.6z"/>
						</g>
					</g>
				</g>
			</g>
		</g>
	</g>
	<g>
		<g>
			<g>
				<g>
					<g>
						<g>
							
								<linearGradient id="SVGID_10_" gradientUnits="userSpaceOnUse" x1="657.7632" y1="326.4212" x2="666.5338" y2="326.4212" gradientTransform="matrix(1 0 0 -1 0 732)">
								<stop  offset="0" style="stop-color:#486975"/>
								<stop  offset="0.584" style="stop-color:#213540"/>
							</linearGradient>
							<path class="st21" d="M665.9,400.4c-1.1,2.8-2.1,6.5-0.9,9.4c0.5,1.1,1,2.2,0.8,3.3c-0.1,1.2-1.2,2.3-2.3,2.1
								c-0.6-0.1-1.1-0.6-1.5-1c-2.6-2.7-4.1-6.4-4.2-10.2c-0.2-4.1,0.3-6.1,4-7.4c0.2-0.2,0.5-0.4,0.8-0.6l-0.5,0.5
								c0.2-0.1,0.3-0.2,0.5-0.3c0.2-0.1,0.4-0.3,0.5-0.4c0.7-0.2,1.4-0.3,2-0.1c0.5,0.2,0.9,0.4,1.2,0.8
								C666.9,397.8,666.3,399.2,665.9,400.4z"/>
						</g>
					</g>
				</g>
			</g>
		</g>
	</g>
	<g>
		<g>
			<g>
				<g>
					<g>
						<g>
							<path class="st19" d="M666.6,397.4l-2.4,0.3C665,397.2,665.8,397.2,666.6,397.4z"/>
						</g>
					</g>
				</g>
			</g>
		</g>
	</g>
	<g>
		<g>
			<g>
				<g>
					<g>
						<g>
							<path class="st19" d="M666.7,397.4C666.7,397.4,666.6,397.4,666.7,397.4L666.7,397.4L666.7,397.4z"/>
						</g>
					</g>
				</g>
			</g>
		</g>
	</g>
	<g>
		<g>
			<g>
				<g>
					<g>
						<g>
							<path class="st19" d="M672.9,396.2c-2.3-1.6-4.3-3.4-6-5.6c-2.6,3.1-5,6-5,6c-1.6,2-2,5.9-1.8,8.4c0.1,1.7,0.8,3.4,1.9,4.7
								c0.2,0.3,0.3,0.5,0.5,0.7c0.6,0.8,1.6,1.3,2.5,1.1c0.2-0.1,0.4-0.1,0.6-0.2c-0.2-0.9-0.4-1.7-0.5-2.5c0-0.2-0.1-0.3-0.1-0.5
								c1-2.3,1-5.2,2.8-6.9L672.9,396.2z"/>
						</g>
					</g>
				</g>
			</g>
		</g>
	</g>
	<g>
		<g>
			<g>
				<g>
					<g>
						<g>
							<path class="st19" d="M699.3,415.9L699.3,415.9L699.3,415.9C699.4,415.9,699.4,415.9,699.3,415.9z"/>
						</g>
					</g>
				</g>
			</g>
		</g>
	</g>
	<g>
		<g>
			<g>
				<g>
					<g>
						<g>
							<path class="st22" d="M711.6,322.8c-3.3-7.4-10.4-10.6-18.7-10.2c-9.3,0.6-16.8,9.3-17.2,19c-0.1,2,0.2,4.1,0.6,6.1
								c0.5,2.7,5.6,29.1,4.6,29.3c-2.5,4-5,5.5-7.5,9.4c-3.4,5.4-14.5,16.8-5.8,22.3c0.4,0.3,0.8,0.5,1.3,0.5c0.6,0,1-0.3,1.5-0.6
								c6.4-4.3,10.3-11.1,15.4-16.7c2.7-2.9,5.9-4.6,7.1-8.6c1.3-4.1,0.8-8.6,1.4-12.8c0.5-3.2,0.3-6.4,0.6-9.6
								c0.2-1.5,1.4-4.5,1.1-5.8c1.3,7.4,3.9,26.3,3.7,33.7c-0.3,10.9-1.7,17.9-0.4,28.7c0.2,1.3,0.4,2.7,1.1,3.8
								c1.4,2.1,5,2.3,7.4,2.4c0.4,0,0.8,0,1.1-0.3c0.4-0.3,0.5-0.9,0.6-1.4c2.4-16.9,3.5-30.3,4.2-47.4c0.3-7,0.1-14,0.3-21
								c0.2-6.2,0.4-12.7-1.6-18.7C712.2,324.2,711.9,323.5,711.6,322.8z M712.1,325.4L712.1,325.4L712.1,325.4L712.1,325.4z"/>
						</g>
					</g>
				</g>
			</g>
		</g>
	</g>
	<g>
		<g>
			<g>
				<g>
					<g>
						<g>
							<g>
								<g>
									<g>
										<g>
											<g>
												<g>
													<g>
														<g>
															<g>
																<g>
																	<g>
																		<g>
																			<g>
																				<g>
																					<path class="st0" d="M729.4,333.4c0.1-0.1,0.2-0.2,0.2-0.2c1.7-1.6,1.8-4.4,0.3-6.1
																						c-11.2-12.2-20-27-25.5-42.9c-0.8-2.3-3.2-3.4-5.5-2.7c-2.2,0.8-3.4,3.3-2.6,5.5c5.9,16.9,15.3,32.8,27.3,45.9
																						C725.1,334.6,727.6,334.8,729.4,333.4z"/>
																				</g>
																			</g>
																		</g>
																	</g>
																</g>
															</g>
														</g>
													</g>
												</g>
											</g>
										</g>
									</g>
								</g>
							</g>
						</g>
					</g>
				</g>
			</g>
		</g>
	</g>
	<g>
		<g>
			<g>
				<g>
					<g>
						<g>
							<g>
								<g>
									<g>
										<g>
											<g>
												<g>
													<g>
														<g>
															<g>
																<g>
																	<g>
																		<g>
																			<g>
																				<path class="st15" d="M678.1,265.2c1.2-4.4,3.9-8.9,6.6-10.8c9.6-6.3,21.5,3.2,18.5,14.2
																					c-2.8,10.2-20.9,16.2-25.3,3.9C677.2,270.5,677.3,267.9,678.1,265.2z"/>
																			</g>
																		</g>
																	</g>
																</g>
															</g>
														</g>
													</g>
												</g>
											</g>
										</g>
									</g>
								</g>
							</g>
						</g>
					</g>
				</g>
			</g>
		</g>
	</g>
	<g>
		<g>
			<g>
				<g>
					<g>
						<g>
							<g>
								<g>
									<g>
										<g>
											<g>
												<g>
													<g>
														<g>
															<g>
																<g>
																	<g>
																		<g>
																			<g>
																				<path class="st20" d="M696.2,273.9C696.1,273.9,696.1,274,696.2,273.9c-0.1-0.1-0.1-0.1-0.1-0.2
																					C696.1,273.8,696.1,273.9,696.2,273.9z"/>
																			</g>
																		</g>
																	</g>
																</g>
															</g>
														</g>
													</g>
												</g>
											</g>
										</g>
									</g>
								</g>
							</g>
						</g>
					</g>
				</g>
			</g>
		</g>
	</g>
	<g>
		<g>
			<g>
				<g>
					<g>
						<g>
							<g>
								<g>
									<g>
										<g>
											<g>
												<g>
													<g>
														<g>
															<g>
																<g>
																	<g>
																		<g>
																			<g>
																				<path class="st23" d="M710.7,300.8l-0.1,0.2c0.1,0,0.1,0,0.1,0C710.7,300.9,710.7,300.8,710.7,300.8z"/>
																			</g>
																		</g>
																	</g>
																</g>
															</g>
														</g>
													</g>
												</g>
											</g>
										</g>
									</g>
								</g>
							</g>
						</g>
					</g>
				</g>
			</g>
		</g>
	</g>
	<g>
		<g>
			<g>
				<g>
					<g>
						<g>
							<g>
								<g>
									<g>
										<g>
											<g>
												<g>
													<g>
														<g>
															<g>
																<g>
																	<g>
																		<g>
																			<g>
																				<rect x="687.6" y="273.9" class="st19" width="8.5" height="11.6"/>
																			</g>
																		</g>
																	</g>
																</g>
															</g>
														</g>
													</g>
												</g>
											</g>
										</g>
									</g>
								</g>
							</g>
						</g>
					</g>
				</g>
			</g>
		</g>
	</g>
	<g>
		<g>
			<g>
				<g>
					<g>
						<g>
							<g>
								<g>
									<g>
										<g>
											<g>
												<g>
													<g>
														<g>
															<g>
																<g>
																	<g>
																		<g>
																			<g>
																				<polygon class="st19" points="688.6,276.5 696.1,283.6 696.1,283.5 696.1,278 																				"/>
																			</g>
																		</g>
																	</g>
																</g>
															</g>
														</g>
													</g>
												</g>
											</g>
										</g>
									</g>
								</g>
							</g>
						</g>
					</g>
				</g>
			</g>
		</g>
	</g>
	<g>
		<g>
			<g>
				<g>
					<g>
						<g>
							<g>
								<g>
									<g>
										<g>
											<g>
												<g>
													<g>
														<g>
															<g>
																<g>
																	<g>
																		<g>
																			<g>
																				<path class="st20" d="M688.3,269C688.2,269,688.2,269.1,688.3,269c-0.1-0.1-0.1-0.1-0.1-0.2
																					C688.2,268.9,688.2,269,688.3,269z"/>
																			</g>
																		</g>
																	</g>
																</g>
															</g>
														</g>
													</g>
												</g>
											</g>
										</g>
									</g>
								</g>
							</g>
						</g>
					</g>
				</g>
			</g>
		</g>
	</g>
	<g>
		<g>
			<g>
				<g>
					<g>
						<g>
							<g>
								<g>
									<g>
										<g>
											<g>
												<g>
													<g>
														<g>
															<g>
																<g>
																	<g>
																		<g>
																			<g>
																				<path class="st19" d="M687.5,270.2c1.2-6,5-12.4,11.5-13.4c0.6-0.1,0.7-0.7,0.5-1.1c0.1-0.3,0.1-0.7-0.1-0.9
																					c0.1,0,0.1,0,0.2,0c1.2-0.2,2.6-0.2,3.7,0.5c0.8,0.4,1.3,1.3,1.5,2.1c0.1,0.3,0.1,0.7,0.1,1
																					c0.1,2.5,0.2,5,0.3,7.5c0.1,1.1,0.1,2.2,0.1,3.4c-0.1,2.7-0.6,5.4-2.1,7.5c-1.7,2.2-4.5,3.1-7.1,3.2
																					c-1.4,0.1-2.9-1-4.2-1.8c-2.4-1.5-3.5-3.9-4.2-6.9c-0.1-0.2-0.1-0.4-0.1-0.6
																					C687.4,270.4,687.5,270.3,687.5,270.2z"/>
																			</g>
																		</g>
																	</g>
																</g>
															</g>
														</g>
													</g>
												</g>
											</g>
										</g>
									</g>
								</g>
							</g>
						</g>
					</g>
				</g>
			</g>
		</g>
	</g>
	<g>
		<g>
			<g>
				<g>
					<g>
						<g>
							<g>
								<g>
									<g>
										<g>
											<g>
												<g>
													<g>
														<g>
															<g>
																<g>
																	<g>
																		<g>
																			<g>
																				<g>
																					<path class="st19" d="M689,272.2c-0.2,0.2-0.4,0.2-0.6,0.1c0-0.1,0-0.2-0.1-0.2L689,272.2z"/>
																				</g>
																			</g>
																		</g>
																	</g>
																</g>
															</g>
														</g>
													</g>
												</g>
											</g>
										</g>
									</g>
								</g>
							</g>
						</g>
					</g>
				</g>
			</g>
		</g>
		<g>
			<g>
				<g>
					<g>
						<g>
							<g>
								<g>
									<g>
										<g>
											<g>
												<g>
													<g>
														<g>
															<g>
																<g>
																	<g>
																		<g>
																			<g>
																				<g>
																					<path class="st19" d="M684.6,267.7c1-0.4,1.9,0.8,2.4,2c0.2,0.6,0.4,1.3,0.7,1.9c0.2,0.3,0.5,0.6,0.7,0.7
																						c0.3,1-0.3,2.2-1.1,2.4c-0.8,0.3-1.7-0.3-2.4-1c-0.7-0.8-1.4-1.8-1.5-3C683.2,269.5,683.7,268,684.6,267.7z"/>
																				</g>
																			</g>
																		</g>
																	</g>
																</g>
															</g>
														</g>
													</g>
												</g>
											</g>
										</g>
									</g>
								</g>
							</g>
						</g>
					</g>
				</g>
			</g>
		</g>
	</g>
	<g>
		<g>
			<g>
				<g>
					<g>
						<g>
							<g>
								<g>
									<g>
										<g>
											<g>
												<g>
													<g>
														<g>
															<g>
																<g>
																	<g>
																		<g>
																			<g>
																				<g>
																					<path class="st19" d="M660.8,343.3L660.8,343.3c-0.9-1.4-0.3-3.1,1.4-3.7c1.4-0.5,3-0.5,4.5,0
																						c1,0.3,2,0.9,2.4,1.8c0.3,0.7,0.3,1.3,0.2,2c-0.2,1.4-0.5,2.8-1.3,4c-1.1,1.6-3,2.8-5.3,2.4
																						c-1-0.2-1.9-0.7-2.5-1.5C658.7,346.1,661.8,345.7,660.8,343.3z"/>
																				</g>
																			</g>
																		</g>
																	</g>
																</g>
															</g>
														</g>
													</g>
												</g>
											</g>
										</g>
									</g>
								</g>
							</g>
						</g>
					</g>
				</g>
			</g>
		</g>
	</g>
	<g>
		<g>
			<g>
				<g>
					<g>
						<g>
							<g>
								<g>
									<g>
										<g>
											<g>
												<g>
													<g>
														<g>
															<g>
																<g>
																	<g>
																		<g>
																			<g>
																				<path class="st15" d="M694.3,256.3c0.8,3,2.4,6.1,4.7,8.6c1.8,2,4.8,2.4,7,0.9c0.3-0.3,0.6-0.5,0.8-0.8
																					c1.7-2.5-1.3-8-3.2-9.6c-2.5-2.1-6-2.5-8.8-1.1c-0.4,0.2-0.8,0.5-1.2,0.7C693.9,255.4,694.1,255.8,694.3,256.3z
																					"/>
																			</g>
																		</g>
																	</g>
																</g>
															</g>
														</g>
													</g>
												</g>
											</g>
										</g>
									</g>
								</g>
							</g>
						</g>
					</g>
				</g>
			</g>
		</g>
	</g>
	<g>
		<g>
			<g>
				<g>
					<g>
						<g>
							<g>
								<g>
									<g>
										<g>
											<g>
												<g>
													<g>
														<g>
															<g>
																<g>
																	<g>
																		<g>
																			<g>
																				<path class="st19" d="M725.6,334.9L725.6,334.9c-1.6-0.3-2.5-1.9-1.8-3.5c0.6-1.4,1.7-2.6,3-3.4
																					c0.9-0.6,2-0.9,2.9-0.7c0.7,0.2,1.2,0.7,1.6,1.2c0.9,1,1.8,2.2,2.1,3.5c0.5,1.9,0.2,4.2-1.7,5.7
																					c-0.8,0.7-1.8,1-2.7,0.9C726.4,338.4,728.1,335.8,725.6,334.9z"/>
																			</g>
																		</g>
																	</g>
																</g>
															</g>
														</g>
													</g>
												</g>
											</g>
										</g>
									</g>
								</g>
							</g>
						</g>
					</g>
				</g>
			</g>
		</g>
	</g>
	<g>
		<g>
			<g>
				<g>
					<g>
						<g>
							<g>
								<g>
									<g>
										<g>
											<g>
												<g>
													<g>
														<g>
															<g>
																<g>
																	<g>
																		<g>
																			<g>
																				<path class="st15" d="M698.2,255.3c1.1,3.5,0.3,7.6-2.1,10.4s-5.3,6-8.9,5.6c-0.8-6.6,4.7-14.8,11.3-14.2
																					L698.2,255.3z"/>
																			</g>
																		</g>
																	</g>
																</g>
															</g>
														</g>
													</g>
												</g>
											</g>
										</g>
									</g>
								</g>
							</g>
						</g>
					</g>
				</g>
			</g>
		</g>
	</g>
	<g>
		<g>
			<g>
				<g>
					<g>
						<g>
							<path class="st24" d="M697.4,275c-0.1,0.1-0.1,0.2-0.2,0.3c0.1,1.6,1.2,2.2,2.5,1.4c1.4-0.8,2.5-2.7,2.5-4.3
								c-0.1-0.1-0.1-0.1-0.2-0.1L697.4,275z"/>
						</g>
					</g>
				</g>
			</g>
		</g>
	</g>
</g>
<g>
	<g>
		<g>
			<g>
				<g>
					<g>
						<g>
							<g>
								<g>
									<g>
										<g>
											<g>
												<g>
													<g>
														<g>
															<g>
																<g>
																	<g>
																		<g>
																			<g>
																				<path class="st0" d="M664.4,345.1c0.1,0,0.2,0.1,0.3,0.1c2.4,0.3,4.5-1.5,4.7-3.9c1.7-16.5,7-33,15.2-47.5
																					c1.2-2.1,0.5-4.8-1.6-5.9s-4.7-0.5-5.9,1.6c-8.8,15.6-14.4,33.2-16.3,50.9C660.7,342.6,662.2,344.7,664.4,345.1
																					z"/>
																			</g>
																		</g>
																	</g>
																</g>
															</g>
														</g>
													</g>
												</g>
											</g>
										</g>
									</g>
								</g>
							</g>
						</g>
					</g>
				</g>
			</g>
		</g>
	</g>
</g>
<g>
	<g>
		<g>
			<g>
				<g>
					<g>
						<g>
							<g>
								<g>
									<g>
										<g>
											<g>
												<g>
													<g>
														<g>
															<g>
																<g>
																	<g>
																		<g>
																			<g>
																				<path class="st0" d="M676.3,293.9l1.6,6.2l3.9,18.9c0.4,1.3,1.2,2.3,2.3,2.9c3,1.5,10.1,2.2,18.7-1.4
																					c1.3-0.6,2.3-1.8,2.6-3.3l2.7-13.9l0.1-0.3c0.4-2.2,0.1-4.4-0.9-6.3l-3.1-6v-3.2c0-3.8-3.3-6.6-6.7-5.5
																					l-1.2,0.4l-1.9,0.7l-8.2,2.9l-2.4,0.9l-4.7,1.6C676.9,288.8,675.7,291.4,676.3,293.9z"/>
																			</g>
																		</g>
																	</g>
																</g>
															</g>
														</g>
													</g>
												</g>
											</g>
										</g>
									</g>
								</g>
							</g>
						</g>
					</g>
				</g>
			</g>
		</g>
	</g>
	<g class="st25">
		<g>
			<g>
				<g>
					<g>
						<g>
							<g>
								<g>
									<g>
										<g>
											<g>
												<g>
													<g>
														<g>
															<g>
																<g>
																	<g>
																		<g>
																			<g>
																				<path class="st26" d="M676.3,293.9l1.6,6.2c0.8,1,1.6,2,2.5,3.1c1.7,2.2,3.5,4.4,6,5.5c4,1.9,8.6,0.4,12.7-1.4
																					c2.5-1.1,5-2.2,7.5-3.4c0.5-0.3,1-0.5,1.5-0.8l0.1-0.3c0.4-2.2,0.1-4.4-0.9-6.3l-3.1-6v-3.2
																					c0-3.8-3.3-6.6-6.7-5.5l-1.2,0.4l-1.9,0.7l-8.2,2.9l-2.4,0.9l-4.7,1.6C676.9,288.8,675.7,291.4,676.3,293.9z"/>
																			</g>
																		</g>
																	</g>
																</g>
															</g>
														</g>
													</g>
												</g>
											</g>
										</g>
									</g>
								</g>
							</g>
						</g>
					</g>
				</g>
			</g>
		</g>
	</g>
	<g>
		<g>
			<g>
				<g>
					<g>
						<g>
							<g>
								<g>
									<g>
										<g>
											<g>
												<g>
													<g>
														<g>
															<g>
																<g>
																	<g>
																		<g>
																			<g>
																				<path class="st19" d="M683.7,286.5c1.2,1.9,2.7,3.6,4.4,5.1c1.3,1.1,2.6,2.2,4.2,2.7c1.6,0.5,3.5,0.4,4.8-0.7
																					c1.1-0.9,1.6-2.3,1.6-3.7c0.1-1.4-0.3-2.7-0.8-4c-0.5-1.4-1.1-2.6-1.9-3.9l-1.9,0.7l-8.2,2.9L683.7,286.5z"/>
																			</g>
																		</g>
																	</g>
																</g>
															</g>
														</g>
													</g>
												</g>
											</g>
										</g>
									</g>
								</g>
							</g>
						</g>
					</g>
				</g>
			</g>
		</g>
	</g>
</g>
</svg>
