<?xml version="1.0" encoding="utf-8"?>
<!-- Generator: Adobe Illustrator 24.2.1, SVG Export Plug-In . SVG Version: 6.00 Build 0)  -->
<svg version="1.1" id="Layer_1" xmlns="http://www.w3.org/2000/svg" xmlns:xlink="http://www.w3.org/1999/xlink" x="0px" y="0px"
	 viewBox="0 0 1125 2436" style="enable-background:new 0 0 1125 2436;" xml:space="preserve">
<style type="text/css">
	.st0{fill:url(#SVGID_1_);}
	.st1{fill:#486975;}
	.st2{fill:#213540;}
	.st3{clip-path:url(#SVGID_3_);fill:url(#SVGID_4_);}
	.st4{clip-path:url(#SVGID_3_);fill:url(#SVGID_5_);}
	.st5{clip-path:url(#SVGID_3_);fill:url(#SVGID_6_);}
	.st6{clip-path:url(#SVGID_3_);}
	.st7{fill:#446B77;}
	.st8{fill:url(#SVGID_7_);}
	.st9{fill:url(#SVGID_8_);}
	.st10{fill:url(#SVGID_9_);}
	.st11{fill:#A6DAE8;}
	.st12{opacity:0.64;clip-path:url(#SVGID_3_);}
	.st13{fill:#375460;}
	.st14{clip-path:url(#SVGID_3_);fill:#213540;}
	.st15{clip-path:url(#SVGID_3_);fill:#486975;}
	.st16{clip-path:url(#SVGID_3_);fill:#ECCBAB;}
	.st17{clip-path:url(#SVGID_3_);fill:#BF8365;}
	.st18{enable-background:new    ;}
	.st19{fill:#DCDCDC;}
	.st20{clip-path:url(#SVGID_3_);fill:url(#SVGID_10_);}
	
		.st21{clip-path:url(#SVGID_3_);fill:none;stroke:url(#SVGID_11_);stroke-width:16;stroke-linecap:round;stroke-linejoin:round;stroke-miterlimit:10;}
	.st22{clip-path:url(#SVGID_3_);fill:url(#SVGID_12_);}
	.st23{clip-path:url(#SVGID_3_);fill:url(#SVGID_13_);}
	.st24{opacity:0.28;clip-path:url(#SVGID_3_);}
	.st25{fill:#D0D2D3;}
	.st26{fill:#E3E3E6;}
	.st27{opacity:0.7;clip-path:url(#SVGID_3_);}
	.st28{opacity:0.72;}
	.st29{opacity:0.68;fill:#D0D2D3;}
	.st30{opacity:0.68;}
	.st31{opacity:0.68;fill:#E3E3E6;}
</style>
<g>
	<g>
		
			<linearGradient id="SVGID_1_" gradientUnits="userSpaceOnUse" x1="2417.3999" y1="2175.6357" x2="2417.3999" y2="2172.6357" gradientTransform="matrix(1 0 0 -1 0 2436)">
			<stop  offset="0" style="stop-color:#486975"/>
			<stop  offset="0.584" style="stop-color:#213540"/>
		</linearGradient>
		<path class="st0" d="M2417.4,263.4c1.9,0,1.9-3,0-3S2415.5,263.4,2417.4,263.4L2417.4,263.4z"/>
	</g>
</g>
<g>
	<circle class="st1" cx="567.1" cy="2288.3" r="53.9"/>
	<polygon class="st2" points="602.8,2297.9 599.8,2294.1 569.5,2317.9 569.5,2312.9 569.5,2312.8 569.5,2312.8 569.5,2288.6 
		565.1,2288.6 565.1,2309.1 537.2,2285.5 534.1,2289.2 565.1,2315.4 565.1,2384 569.5,2384 569.5,2324 569.5,2324 	"/>
</g>
<g>
	<defs>
		<rect id="SVGID_2_" x="-3.7" y="-5.3" width="1128" height="2445.1"/>
	</defs>
	<clipPath id="SVGID_3_">
		<use xlink:href="#SVGID_2_"  style="overflow:visible;"/>
	</clipPath>
	
		<linearGradient id="SVGID_4_" gradientUnits="userSpaceOnUse" x1="554" y1="2511" x2="554" y2="1331" gradientTransform="matrix(1 0 0 -1 0 2436)">
		<stop  offset="0" style="stop-color:#ECCBAB"/>
		<stop  offset="0.5843" style="stop-color:#C69C6D"/>
	</linearGradient>
	<rect x="-61" y="-75" class="st3" width="1230" height="1180"/>
	
		<linearGradient id="SVGID_5_" gradientUnits="userSpaceOnUse" x1="-65.8" y1="3037.0303" x2="1450.7" y2="3037.0303" gradientTransform="matrix(1 0 0 -1 0 2436)">
		<stop  offset="0" style="stop-color:#ECCBAB"/>
		<stop  offset="0.5843" style="stop-color:#C69C6D"/>
	</linearGradient>
	<path class="st4" d="M1212.9,446c-234.4,52.4-376.2,7.9-460.6-38.8c-189.7-105-214-195.8-423.8-353
		C186.1-52.4,33.8-88.4-65.8-102.6C-2.9-596.1,71.2-1178.3,134-1671.7l1316.7,167.6C1450.7-1504.1,1199.1,444.3,1212.9,446z"/>
	
		<linearGradient id="SVGID_6_" gradientUnits="userSpaceOnUse" x1="560.5" y1="1830.8936" x2="560.5" y2="-88" gradientTransform="matrix(1 0 0 -1 0 2436)">
		<stop  offset="0" style="stop-color:#486975"/>
		<stop  offset="0.584" style="stop-color:#213540"/>
	</linearGradient>
	<path class="st5" d="M-75.4,656.3c214.8-77.5,353.9-52.7,439.1-18.7c191.5,76.2,225.3,159,442,282
		c147.1,83.5,295.1,99.2,390.7,100.6c0,472.9,0,1030.9,0,1503.8H-65.5C-65.5,2524-62.2,656.3-75.4,656.3z"/>
	<g class="st6">
		<g>
			<polygon class="st7" points="1030.5,1551.1 1029.7,1985 703.5,1796.7 704.3,1362.8 			"/>
		</g>
	</g>
	<g class="st6">
		<g>
			<g>
				
					<linearGradient id="SVGID_7_" gradientUnits="userSpaceOnUse" x1="998.5" y1="1039.55" x2="1408" y2="1039.55" gradientTransform="matrix(1 0 0 -1 0 2436)">
					<stop  offset="0" style="stop-color:#486975"/>
					<stop  offset="0.584" style="stop-color:#213540"/>
				</linearGradient>
				<polygon class="st8" points="1202.6,1219.7 1408,1336.8 998.5,1573.2 				"/>
			</g>
			<g>
				
					<linearGradient id="SVGID_8_" gradientUnits="userSpaceOnUse" x1="873" y1="1253.5" x2="1408" y2="1253.5" gradientTransform="matrix(1 0 0 -1 0 2436)">
					<stop  offset="0" style="stop-color:#486975"/>
					<stop  offset="0.584" style="stop-color:#213540"/>
				</linearGradient>
				<polygon class="st9" points="1202.6,1219.7 873,1028.2 1078.4,1145.3 1408,1336.8 				"/>
			</g>
			<g>
				
					<linearGradient id="SVGID_9_" gradientUnits="userSpaceOnUse" x1="669" y1="1135.3" x2="1202.6" y2="1135.3" gradientTransform="matrix(1 0 0 -1 0 2436)">
					<stop  offset="0" style="stop-color:#486975"/>
					<stop  offset="0.584" style="stop-color:#213540"/>
				</linearGradient>
				<polygon class="st10" points="998.5,1573.2 669,1381.7 873,1028.2 1202.6,1219.7 				"/>
			</g>
		</g>
	</g>
	<g class="st6">
		<polygon class="st11" points="1354.6,1362.8 1353.8,1799.6 1029.7,1988 1030.5,1551.1 		"/>
	</g>
	<g class="st12">
		<g>
			<g>
				<polygon class="st1" points="1500,2255.2 589.5,2784.3 -326.9,2255.2 583.6,1726.1 				"/>
			</g>
			<g>
				<polygon class="st13" points="921,1920.2 10.5,2449.3 -120.9,2374.2 789.6,1845.1 				"/>
			</g>
			<g>
				<polygon class="st2" points="1500,2255.2 1497.8,2414.9 587.3,2944 589.5,2784.3 				"/>
			</g>
			<g>
				<polygon class="st2" points="589.5,2784.3 587.3,2941.1 -329.1,2412 -326.9,2255.2 				"/>
			</g>
		</g>
	</g>
	<rect x="1521" y="1227" class="st14" width="229" height="229"/>
	<rect x="1521" y="962" class="st15" width="229" height="229"/>
	<rect x="1521" y="1544" class="st16" width="229" height="229"/>
	<rect x="1521" y="1861" class="st17" width="229" height="229"/>
	<g class="st6">
		<g class="st18">
			<g>
				<polygon class="st19" points="816.4,1948.2 680.5,2027.2 543.8,1948.2 679.6,1869.3 				"/>
			</g>
			<g>
				<polygon class="st7" points="680.5,2027.2 680.2,2277.8 543.4,2198.9 543.8,1948.2 				"/>
			</g>
		</g>
	</g>
	<g class="st6">
		<g>
			<g>
				<polygon class="st11" points="752.7,1888.3 838.8,1937.3 667.1,2036.4 				"/>
			</g>
			<g>
				<polygon class="st1" points="752.7,1888.3 614.5,1808 700.6,1857.1 838.8,1937.3 				"/>
			</g>
			<g>
				<polygon class="st2" points="667.1,2036.4 529,1956.2 614.5,1808 752.7,1888.3 				"/>
			</g>
		</g>
	</g>
	<g class="st6">
		<g class="st18">
			<g>
				<polygon class="st19" points="429.1,1735.4 338.8,1787.9 247.8,1735.4 338.2,1682.9 				"/>
			</g>
			<g>
				<polygon class="st13" points="429.1,1735.4 428.9,2052.5 338.5,2105 338.8,1787.9 				"/>
			</g>
			<g>
				<polygon class="st2" points="338.8,1787.9 338.5,2104.9 247.6,2052.4 247.8,1735.4 				"/>
			</g>
		</g>
	</g>
	<g class="st6">
		<g>
			<g>
				<polygon class="st11" points="386.7,1695.5 444,1728.1 329.8,1794 				"/>
			</g>
			<g>
				<polygon class="st2" points="386.7,1695.5 294.9,1642.1 352.1,1674.7 444,1728.1 				"/>
			</g>
			<g>
				<polygon class="st1" points="329.8,1794 238,1740.6 294.9,1642.1 386.7,1695.5 				"/>
			</g>
		</g>
	</g>
	<g class="st6">
		<g class="st18">
			<g>
				<polygon class="st19" points="260.1,2035.4 169.8,2087.9 78.8,2035.4 169.2,1982.9 				"/>
			</g>
			<g>
				<polygon class="st13" points="260.1,2035.4 259.9,2152.5 169.5,2205 169.8,2087.9 				"/>
			</g>
			<g>
				<polygon class="st2" points="169.8,2087.9 169.5,2204.9 78.6,2152.4 78.8,2035.4 				"/>
			</g>
		</g>
	</g>
	<g class="st6">
		<g>
			<g>
				<polygon class="st11" points="217.7,1995.5 275,2028.1 160.8,2094 				"/>
			</g>
			<g>
				<polygon class="st2" points="217.7,1995.5 125.9,1942.1 183.1,1974.7 275,2028.1 				"/>
			</g>
			<g>
				<polygon class="st1" points="160.8,2094 69,2040.6 125.9,1942.1 217.7,1995.5 				"/>
			</g>
		</g>
	</g>
	<g class="st6">
		<polygon class="st11" points="816.4,1948.2 816.1,2199 680.2,2278 680.5,2027.2 		"/>
	</g>
	
		<linearGradient id="SVGID_10_" gradientUnits="userSpaceOnUse" x1="791" y1="-54.3145" x2="916" y2="-54.3145" gradientTransform="matrix(1 1.1719 0 -1 0 779.5135)">
		<stop  offset="0" style="stop-color:#486975"/>
		<stop  offset="0.584" style="stop-color:#213540"/>
	</linearGradient>
	<path class="st20" d="M916,1919.8l-125-73.2v-64.7c0-33.3,27-44.5,60.3-25l2.2,1.3c34.5,20.2,62.5,64.6,62.5,99.1V1919.8z"/>
	
		<linearGradient id="SVGID_11_" gradientUnits="userSpaceOnUse" x1="782.5" y1="623.7143" x2="949.0001" y2="623.7143" gradientTransform="matrix(1 0.3378 0 -1 0 1970.2897)">
		<stop  offset="0" style="stop-color:#486975"/>
		<stop  offset="0.584" style="stop-color:#213540"/>
	</linearGradient>
	<path class="st21" d="M790.5,1578.6c0,0,5,73,78,97.6c72.9,24.6,72.5-48,72.5-48"/>
	
		<linearGradient id="SVGID_12_" gradientUnits="userSpaceOnUse" x1="972.0354" y1="737.074" x2="1014.817" y2="737.074" gradientTransform="matrix(0.7668 -0.2332 -0.2332 -1.2332 253.7265 2689.7263)">
		<stop  offset="0" style="stop-color:#486975"/>
		<stop  offset="0.584" style="stop-color:#213540"/>
	</linearGradient>
	<path class="st22" d="M860,1544.1c2.8,14.6-2.4,28.6-11.4,31.4c-9.1,2.8-18.6-6.8-21.4-21.4s2.4-28.6,11.4-31.4
		S857.3,1529.5,860,1544.1z"/>
	
		<linearGradient id="SVGID_13_" gradientUnits="userSpaceOnUse" x1="1018.9196" y1="714.3305" x2="1061.7009" y2="714.3305" gradientTransform="matrix(0.7668 -0.2332 -0.2332 -1.2332 253.7265 2689.7263)">
		<stop  offset="0" style="stop-color:#486975"/>
		<stop  offset="0.584" style="stop-color:#213540"/>
	</linearGradient>
	<path class="st23" d="M901.3,1561.2c2.8,14.6-2.4,28.6-11.4,31.4s-18.6-6.8-21.4-21.4s2.4-28.6,11.4-31.4
		C888.9,1537,898.5,1546.6,901.3,1561.2z"/>
	<g class="st6">
		<circle class="st1" cx="518.2" cy="1664.6" r="87"/>
		<polygon class="st2" points="575.8,1680.1 571,1674 522,1712.3 522,1704.3 522.1,1704.1 522,1704 522,1665 515,1665 515,1698.1 
			469.9,1660.1 464.9,1666.1 515,1708.3 515,1819 522,1819 522,1722.2 522,1722.2 		"/>
	</g>
	<g class="st6">
		<circle class="st1" cx="884.1" cy="2116.3" r="53.9"/>
		<polygon class="st2" points="919.8,2125.9 916.8,2122.1 886.5,2145.9 886.5,2140.9 886.5,2140.8 886.5,2140.8 886.5,2116.6 
			882.1,2116.6 882.1,2137.1 854.2,2113.5 851.1,2117.2 882.1,2143.4 882.1,2212 886.5,2212 886.5,2152 886.5,2152 		"/>
	</g>
	<g class="st6">
		<circle class="st1" cx="444.1" cy="2179.3" r="53.9"/>
		<polygon class="st2" points="479.8,2188.9 476.8,2185.1 446.5,2208.9 446.5,2203.9 446.5,2203.8 446.5,2203.8 446.5,2179.6 
			442.1,2179.6 442.1,2200.1 414.2,2176.5 411.1,2180.2 442.1,2206.4 442.1,2275 446.5,2275 446.5,2215 446.5,2215 		"/>
	</g>
	<g class="st24">
		<path class="st25" d="M666.9,1623.2L666.9,1623.2l-18-9.9c-0.7-0.5-1.5-0.9-2.3-1.3c0,0,0,0,0,0l-0.4-0.2c0,0-1.1-0.5-3-1
			c-1.5-0.4-3.2-0.7-4.9-0.8c-4.5-0.3-10.5,0.5-16.9,4.5l-8-4.4c-0.6-0.4-1.3-0.8-2.1-1.1l-0.5-0.3l-0.1,0
			c-6.3-2.8-16.5-3.3-32.1,6.9c-28.9,18.7-29.8,41.1-29.8,41.1s-15.3,8.6-18.6,29.4c0,0-2.8-1.8-9.1,0.3c-2.1,0.6-4.4,1.5-6.7,3.2
			c0,0,0,0,0,0c-14.6,8.7-16.4,31.8-16.4,31.8l20.4,11.1l162.9-94C681.1,1638.6,676.8,1627.8,666.9,1623.2z"/>
		<g>
			<line class="st26" x1="497.9" y1="1721.4" x2="518.2" y2="1732.6"/>
			<g>
				<line class="st26" x1="530.2" y1="1686.2" x2="550.5" y2="1697.3"/>
				<line class="st26" x1="548.8" y1="1656.8" x2="569.1" y2="1667.9"/>
				<line class="st26" x1="631.5" y1="1620.2" x2="610.7" y2="1608.8"/>
			</g>
		</g>
		<path class="st26" d="M518.2,1732.6l162.9-94c0,0-11.7-29.5-41.4-11.8c0,0-10.3-18.1-40.8,0c-29.6,17.6-29.8,41.1-29.8,41.1
			s-15.3,8.6-18.6,29.4C550.5,1697.3,526.5,1690.3,518.2,1732.6z"/>
	</g>
	<g class="st27">
		<path class="st25" d="M320.5,1937.7L320.5,1937.7l-18-9.9c-0.7-0.5-1.5-0.9-2.3-1.3c0,0,0,0,0,0l-0.4-0.2c0,0-1.1-0.5-3-1
			c-1.5-0.4-3.2-0.7-4.9-0.8c-4.5-0.3-10.5,0.5-16.9,4.5l-8-4.4c-0.6-0.4-1.3-0.8-2.1-1.1l-0.5-0.3l-0.1,0
			c-6.3-2.8-16.5-3.3-32.1,6.9c-28.9,18.7-29.8,41.1-29.8,41.1s-15.3,8.6-18.6,29.4c0,0-2.8-1.8-9.1,0.3c-2.1,0.6-4.4,1.5-6.7,3.2
			c0,0,0,0,0,0c-14.6,8.7-16.4,31.8-16.4,31.8l20.4,11.1l162.9-94C334.7,1953.1,330.4,1942.3,320.5,1937.7z"/>
		<g>
			<line class="st26" x1="151.5" y1="2035.9" x2="171.8" y2="2047.1"/>
			<g>
				<line class="st26" x1="183.7" y1="2000.7" x2="204.1" y2="2011.8"/>
				<line class="st26" x1="202.3" y1="1971.3" x2="222.7" y2="1982.4"/>
				<line class="st26" x1="285.1" y1="1934.7" x2="264.3" y2="1923.3"/>
			</g>
		</g>
		<path class="st26" d="M171.8,2047.1l162.9-94c0,0-11.7-29.5-41.4-11.8c0,0-10.3-18.1-40.8,0c-29.6,17.6-29.8,41.1-29.8,41.1
			s-15.3,8.6-18.6,29.4C204.1,2011.8,180.1,2004.8,171.8,2047.1z"/>
	</g>
	<g class="st24">
		<path class="st25" d="M183.7,1846.5L183.7,1846.5l-18-9.9c-0.7-0.5-1.5-0.9-2.3-1.3c0,0,0,0,0,0l-0.4-0.2c0,0-1.1-0.5-3-1
			c-1.5-0.4-3.2-0.7-4.9-0.8c-4.5-0.3-10.5,0.5-16.9,4.5l-8-4.4c-0.6-0.4-1.3-0.8-2.1-1.1l-0.5-0.3l-0.1,0
			c-6.3-2.8-16.5-3.3-32.1,6.9c-28.9,18.7-29.8,41.1-29.8,41.1s-15.3,8.6-18.6,29.4c0,0-2.8-1.8-9.1,0.3c-2.1,0.6-4.4,1.5-6.7,3.2
			c0,0,0,0,0,0c-14.6,8.7-16.4,31.8-16.4,31.8l20.4,11.1l162.9-94C197.9,1861.9,193.6,1851.2,183.7,1846.5z"/>
		<g>
			<line class="st26" x1="14.7" y1="1944.8" x2="35.1" y2="1955.9"/>
			<g>
				<line class="st26" x1="47" y1="1909.5" x2="67.4" y2="1920.7"/>
				<line class="st26" x1="65.6" y1="1880.1" x2="86" y2="1891.3"/>
				<line class="st26" x1="148.4" y1="1843.5" x2="127.6" y2="1832.1"/>
			</g>
		</g>
		<path class="st26" d="M35.1,1955.9l162.9-94c0,0-11.7-29.5-41.4-11.8c0,0-10.3-18.1-40.8,0c-29.6,17.6-29.8,41.1-29.8,41.1
			s-15.3,8.6-18.6,29.4C67.4,1920.7,43.3,1913.7,35.1,1955.9z"/>
	</g>
</g>
<g class="st28">
	<path class="st29" d="M960.6,1992.8L960.6,1992.8l-19.8-10.8c-0.8-0.5-1.7-1-2.6-1.4c0,0,0,0,0,0l-0.5-0.3c0,0-1.2-0.6-3.3-1.1
		c-1.7-0.5-3.5-0.8-5.4-0.8c-4.9-0.3-11.5,0.5-18.6,5l-8.8-4.8c-0.7-0.4-1.5-0.9-2.3-1.2l-0.5-0.3l-0.1,0c-6.9-3-18.1-3.6-35.3,7.5
		c-31.7,20.6-32.7,45.2-32.7,45.2s-16.8,9.4-20.4,32.3c0,0-3.1-2-10,0.3c-2.3,0.6-4.8,1.7-7.4,3.5c0,0,0,0,0,0
		c-16.1,9.6-18,34.9-18,34.9l22.3,12.2l178.8-103.2C976.2,2009.7,971.5,1997.9,960.6,1992.8z"/>
	<g class="st30">
		<line class="st26" x1="775" y1="2100.6" x2="797.4" y2="2112.9"/>
		<g>
			<line class="st26" x1="810.5" y1="2061.9" x2="832.8" y2="2074.2"/>
			<line class="st26" x1="830.9" y1="2029.7" x2="853.2" y2="2041.9"/>
			<line class="st26" x1="921.7" y1="1989.5" x2="898.9" y2="1977"/>
		</g>
	</g>
	<path class="st31" d="M797.4,2112.9l178.8-103.2c0,0-12.9-32.4-45.4-12.9c0,0-11.3-19.9-44.8,0c-32.5,19.3-32.7,45.2-32.7,45.2
		s-16.8,9.4-20.4,32.3C832.8,2074.2,806.4,2066.5,797.4,2112.9z"/>
	<path class="st29" d="M1141.6,1998.2L1141.6,1998.2l-19.8-10.8c-0.8-0.5-1.7-1-2.6-1.4c0,0,0,0,0,0l-0.5-0.3c0,0-1.2-0.6-3.3-1.1
		c-1.7-0.5-3.5-0.8-5.4-0.8c-4.9-0.3-11.5,0.5-18.6,5l-8.8-4.8c-0.7-0.4-1.5-0.9-2.3-1.2l-0.5-0.3l-0.1,0c-6.9-3-18.1-3.6-35.3,7.5
		c-31.7,20.6-32.7,45.2-32.7,45.2s-16.8,9.4-20.4,32.3c0,0-3.1-2-10,0.3c-2.3,0.6-4.8,1.7-7.4,3.5c0,0,0,0,0,0
		c-16.1,9.6-18,34.9-18,34.9l22.3,12.2l178.8-103.2C1157.2,2015.1,1152.5,2003.3,1141.6,1998.2z"/>
	<g class="st30">
		<line class="st26" x1="956" y1="2106.1" x2="978.4" y2="2118.3"/>
		<g>
			<line class="st26" x1="991.5" y1="2067.4" x2="1013.8" y2="2079.6"/>
			<line class="st26" x1="1011.9" y1="2035.1" x2="1034.2" y2="2047.4"/>
			<line class="st26" x1="1102.7" y1="1994.9" x2="1079.9" y2="1982.4"/>
		</g>
	</g>
	<path class="st31" d="M978.4,2118.3l178.8-103.2c0,0-12.9-32.4-45.4-12.9c0,0-11.3-19.9-44.8,0c-32.5,19.3-32.7,45.2-32.7,45.2
		s-16.8,9.4-20.4,32.3C1013.8,2079.6,987.4,2071.9,978.4,2118.3z"/>
	<path class="st29" d="M985.6,2189.3L985.6,2189.3l-19.8-10.8c-0.8-0.5-1.7-1-2.6-1.4c0,0,0,0,0,0l-0.5-0.3c0,0-1.2-0.6-3.3-1.1
		c-1.7-0.5-3.5-0.8-5.4-0.8c-4.9-0.3-11.5,0.5-18.6,5l-8.8-4.8c-0.7-0.4-1.5-0.9-2.3-1.2l-0.5-0.3l-0.1,0c-6.9-3-18.1-3.6-35.3,7.5
		c-31.7,20.6-32.7,45.2-32.7,45.2s-16.8,9.4-20.4,32.3c0,0-3.1-2-10,0.3c-2.3,0.6-4.8,1.7-7.4,3.5c0,0,0,0,0,0
		c-16.1,9.6-18,34.9-18,34.9l22.3,12.2l178.8-103.2C1001.2,2206.2,996.5,2194.4,985.6,2189.3z"/>
	<g class="st30">
		<line class="st26" x1="800.1" y1="2297.2" x2="822.4" y2="2309.4"/>
		<g>
			<line class="st26" x1="835.5" y1="2258.5" x2="857.9" y2="2270.7"/>
			<line class="st26" x1="856" y1="2226.2" x2="878.3" y2="2238.4"/>
			<line class="st26" x1="946.8" y1="2186" x2="924" y2="2173.5"/>
		</g>
	</g>
	<path class="st31" d="M822.4,2309.4l178.8-103.2c0,0-12.9-32.4-45.4-12.9c0,0-11.3-19.9-44.8,0c-32.5,19.3-32.7,45.2-32.7,45.2
		s-16.8,9.4-20.4,32.3C857.9,2270.7,831.5,2263,822.4,2309.4z"/>
</g>
<path class="st25" d="M1282.1,1666.5L1282.1,1666.5l-49.7-27.2c-2.1-1.3-4.2-2.5-6.5-3.6c0,0,0,0,0,0l-1.2-0.7c0,0-3.1-1.5-8.3-2.8
	c-4.2-1.2-8.7-1.9-13.5-2.1c-12.4-0.8-29,1.4-46.7,12.5l-22.2-12.1c-1.8-1.1-3.7-2.2-5.7-3.1l-1.3-0.7l-0.1,0.1
	c-17.4-7.6-45.6-9-88.7,18.9c-79.8,51.7-82.1,113.5-82.1,113.5s-42.1,23.7-51.3,81.1c0,0-7.8-5-25.2,0.8c-5.8,1.6-12.1,4.3-18.5,8.8
	c0,0,0,0,0,0c-40.4,24.1-45.4,87.8-45.4,87.8l56.2,30.8l449.5-259.5C1321.3,1708.9,1309.5,1679.3,1282.1,1666.5z"/>
<g>
	<line class="st26" x1="815.6" y1="1937.7" x2="871.8" y2="1968.4"/>
	<g>
		<line class="st26" x1="904.7" y1="1840.4" x2="960.9" y2="1871.1"/>
		<line class="st26" x1="956.1" y1="1759.3" x2="1012.3" y2="1790"/>
		<line class="st26" x1="1184.5" y1="1658.2" x2="1127.1" y2="1626.7"/>
	</g>
</g>
<path class="st26" d="M871.8,1968.4l449.5-259.5c0,0-32.4-81.4-114.2-32.4c0,0-28.5-50-112.7,0c-81.8,48.5-82.1,113.5-82.1,113.5
	s-42.1,23.7-51.3,81.1C960.9,1871.1,894.6,1851.8,871.8,1968.4z"/>
</svg>
