<?xml version="1.0" encoding="utf-8"?>
<!-- Generator: Adobe Illustrator 24.2.1, SVG Export Plug-In . SVG Version: 6.00 Build 0)  -->
<svg version="1.1" id="Layer_1" xmlns="http://www.w3.org/2000/svg" xmlns:xlink="http://www.w3.org/1999/xlink" x="0px" y="0px"
	 viewBox="0 0 1125 2436" style="enable-background:new 0 0 1125 2436;" xml:space="preserve">
<style type="text/css">
	.st0{fill:url(#SVGID_1_);}
	.st1{fill:url(#SVGID_2_);}
	.st2{fill:url(#SVGID_3_);}
	.st3{fill:url(#SVGID_4_);}
	.st4{fill:#DBD0BE;}
	.st5{fill:#EBDECC;}
	.st6{fill:#EEE3D1;}
	.st7{fill:#ECE1CE;}
	.st8{fill:#FEFEFE;}
	.st9{fill:#E5D8C8;}
	.st10{fill:#E2D6C6;}
	.st11{fill:#EAE5DB;}
	.st12{fill:#EBE3D5;}
	.st13{fill:#EDE4D4;}
	.st14{fill:#DDD0C2;}
	.st15{fill:#E7DDCA;}
	.st16{fill:#E0DED8;}
	.st17{fill:#D9CBBE;}
	.st18{fill:#DFD3C4;}
	.st19{fill:#E8E6E2;}
	.st20{fill:#D4C6BA;}
	.st21{fill:#D0C2B7;}
	.st22{fill:#CFC0B5;}
	.st23{fill:#CCBDB2;}
	.st24{fill:#C5B6AC;}
	.st25{fill:#C1B1A8;}
	.st26{fill:#C8B9AF;}
	.st27{fill:#BCACA4;}
	.st28{fill:#BEAFA6;}
	.st29{fill:#C8BEAF;}
	.st30{fill:#B9A8A1;}
	.st31{fill:#B6A59F;}
	.st32{fill:#C2B8A9;}
	.st33{fill:#B3A39C;}
	.st34{fill:#DDCBB1;}
	.st35{fill:#F4E5D3;}
	.st36{fill:#CCBDA8;}
	.st37{fill:#F9F1E5;}
	.st38{fill:none;stroke:url(#SVGID_5_);stroke-width:11;stroke-linecap:round;stroke-linejoin:round;stroke-miterlimit:10;}
	.st39{fill:url(#SVGID_6_);}
	.st40{fill:url(#SVGID_7_);}
	.st41{fill:url(#SVGID_8_);}
	.st42{fill:url(#SVGID_9_);}
	.st43{fill:url(#SVGID_10_);}
</style>
<image style="overflow:visible;" width="7890" height="2634" xlink:href="AdobeStock_332187918.jpeg"  transform="matrix(2.651118e-17 -0.3135 0.433 1.919652e-17 -13.8665 2457.7993)">
</image>
<radialGradient id="SVGID_1_" cx="633.2286" cy="-252.1918" r="789.5304" gradientTransform="matrix(0.9944 0.1061 0.1061 -0.9944 146.575 2302.2349)" gradientUnits="userSpaceOnUse">
	<stop  offset="2.066799e-05" style="stop-color:#F9F1E5"/>
	<stop  offset="1" style="stop-color:#CCBDA8"/>
</radialGradient>
<circle class="st0" cx="749.5" cy="2620.2" r="789.5"/>
<g>
	
		<radialGradient id="SVGID_2_" cx="119.2416" cy="-1941.3975" r="85.8223" gradientTransform="matrix(0.9977 6.841306e-02 -6.841306e-02 0.9977 218.8009 3620.3435)" gradientUnits="userSpaceOnUse">
		<stop  offset="2.066799e-05" style="stop-color:#F9F1E5"/>
		<stop  offset="1" style="stop-color:#CCBDA8"/>
	</radialGradient>
	<path class="st1" d="M364.4,1729c0,0,6.4-166,201.4-72.4c0,0,17.5,8.2,5.9,30.5s-33,12.8-33,12.8s-43-45-86.8-20
		s-49,42.7-48.2,59.8C404.6,1756.8,359,1749.7,364.4,1729z"/>
	
		<radialGradient id="SVGID_3_" cx="212.8918" cy="-1952.9081" r="34.0061" gradientTransform="matrix(0.9977 6.841306e-02 -6.841306e-02 0.9977 218.8009 3620.3435)" gradientUnits="userSpaceOnUse">
		<stop  offset="2.066799e-05" style="stop-color:#F9F1E5"/>
		<stop  offset="1" style="stop-color:#CCBDA8"/>
	</radialGradient>
	<circle class="st2" cx="564.8" cy="1686.6" r="34"/>
	
		<radialGradient id="SVGID_4_" cx="225.1015" cy="-1982.3939" r="12.0036" gradientTransform="matrix(0.9977 6.841306e-02 -6.841306e-02 0.9977 218.8009 3620.3435)" gradientUnits="userSpaceOnUse">
		<stop  offset="2.066799e-05" style="stop-color:#F9F1E5"/>
		<stop  offset="1" style="stop-color:#CCBDA8"/>
	</radialGradient>
	<circle class="st3" cx="579" cy="1658" r="12"/>
</g>
<g>
	<g>
		<path class="st4" d="M542.6,2023c-1.1-0.5-2.1-1-3.2-1.5c-1.1-0.5-1.7-1.5-1.6-2.7c0.2-2.1,0.3-4.3,0.6-6.4
			c0.8-4.9,1.6-9.7,2.5-14.5c1-4.8,2.1-9.6,3.4-14.4c1-4,2.1-8,3.4-11.9c1.2-4,2.6-8,4-12c1.6-4.4,3.1-8.8,4.9-13.1
			c1.8-4.5,3.9-8.8,5.9-13.2c2.7-5.9,5.8-11.6,9.6-17c1.7-2.5,3.6-4.9,6.1-6.7c2.7-2,5-1.2,5.8,2.1c0.9,3.6,0.9,7.3,0.3,11
			c-0.5,2.6-0.6,5.3-1.2,7.9c-0.8,3.8-1.7,7.7-2.8,11.4c-2.2,7.3-4.4,14.5-6.9,21.7c-2.4,7.1-5,14.3-7.9,21.2
			c-4.1,9.8-8.5,19.5-12.8,29.2c-0.8,1.7-1.8,3.3-2.7,4.9c-1.1,2.1-3,3.2-5.2,3.9C544.1,2023,543.4,2023,542.6,2023z"/>
	</g>
	<g>
		<path class="st5" d="M273.4,2052.4c0-0.2,0-0.3-0.1-0.5c0.7-2,1.5-4.1,2.2-6.1c0.2-0.3,0.4-0.6,0.6-0.9c1.2-1.1,2.3-2.2,3.5-3.4
			c0.1,0,0.3-0.1,0.4-0.1c0.7-0.5,1.4-1.1,2.1-1.6c0.2-0.1,0.4-0.3,0.7-0.4c0.6-0.5,1.3-1,1.9-1.6c0.1,0,0.3-0.1,0.4-0.1
			c1.7-1.1,3.5-2.1,5.2-3.2c1.3-0.3,2.7-0.6,4-0.9c0.4-0.1,0.8-0.1,1.2-0.2c1.3-0.1,2.6-0.2,3.9-0.3c1,0,1.9-0.1,2.9-0.1
			c0.1,0.5,0.2,1.1,0.3,1.6c0,0.4,0,0.8,0,1.2c0.1,0.7,0.3,1.4,0.4,2.1c-0.1,0.5-0.1,1-0.2,1.5c-0.1,0.3-0.5,0.7-0.7,0.8
			c-1.9,0.2-3.9,0.2-5.9,0.6c-1.8,0.3-3.6,0.8-5.1,1.7c-2.9,1.7-5.8,3.5-8.5,5.5c-3.4,2.6-5.4,6-5.3,10.4c0,2.3,0,4.7,0,7
			c0.1,1.9,0,3.9,0.4,5.8c1,4.5,2.3,9,3.4,13.5c0.4,1.8,1.5,2.9,2.9,3.7c2.6,1.4,5.3,1.9,8.3,0.9c3.2-1.2,6.6-2.1,9.8-3.2
			c2.1-0.7,4.3-1.3,6.5-1.1c2.8,0.2,5.6,0.8,8.4,1.3c1.5,0.2,2.9,0.3,4.3-0.4c2.9-1.4,5.9-2.7,8.9-4c0.3-0.1,0.7-0.3,0.8-0.6
			c0.5-1.5,1.5-1.2,2.5-0.8c2.1,0.8,4.3,1.8,6.4,2.7c0.3,0.1,0.4,0.4,0.8,0.7c-0.5,0.2-0.8,0.4-1.2,0.4c-2.4,0.5-4.7,0.9-7.1,1.5
			c-1,0.2-1.9,0.5-2.8,0.9c-1.9,0.9-3.8,1.8-5.6,2.8c-1,0.5-1.4,1.9-0.8,2.9c0.9,1.7,1.7,3.4,2.8,5c2.6,3.8,5.2,7.7,8.2,11.2
			c3.8,4.3,7.4,8.8,10.2,13.8c1.6,2.8,4,4.8,6.5,6.7c0.8-1.6,1.5-3.1,2.2-4.7c1.4-3.2,2.4-6.4,1.7-9.9c-0.3-1.4-0.4-2.9-0.7-4.4
			c-0.4-2.1-0.8-4.3-1.3-6.4c-0.3-1.3-0.9-2.6-1.6-3.7c-2.5-4-4.3-8.3-5.2-13c-0.2-1.3-0.7-2.1-2-2.5c-0.3-0.1-0.7-0.8-0.6-1
			c0.9-1.4,1.9-2.6,2.8-3.9c1.6,1.9,2.4,4.1,2.8,6.6c0.5,3.4,1.5,6.8,3.3,9.9c1.3,2.3,2.9,4.5,4,6.9c1.6,3.6,2.6,7.4,3.1,11.3
			c0.6,4.8,0.8,9.5,0.1,14.2c-0.7,4.8-2.3,9.2-5.9,12.7c-3.1,3-6.9,4.3-11,4.6c-8.3,0.5-15.8-2.2-23.1-5.6
			c-9.2-4.3-16.8-10.7-23.2-18.6c-5.8-7.2-10.3-15.1-13.7-23.7c-1.6-4-2.9-8.2-4.3-12.4c-0.3-1-0.6-2.1-0.9-3.1
			c-0.1-0.3-0.4-0.5-0.6-0.8c0-0.2-0.1-0.5-0.1-0.7c0.1-0.3,0.3-0.7,0.3-1c-0.3-1.8-0.7-3.6-1.1-5.4c-0.1-0.3-0.4-0.5-0.6-0.7
			c0-0.2-0.1-0.5-0.1-0.7c0.1-0.3,0.3-0.7,0.2-1c-0.1-0.7-0.4-1.4-0.6-2.1c-0.3-1.1-0.6-2.2-0.9-3.2c0-0.2-0.1-0.5-0.1-0.7
			c-0.2-1.8-0.5-3.6-0.6-5.4C273.4,2058,273.4,2055.2,273.4,2052.4z"/>
		<path class="st6" d="M531.2,1916.3c2.3-3.5,4.5-7,7-10.4c2.3-3.1,5-5.9,7.4-8.9c2.8-3.4,6.6-5.3,10.6-6.9c2.1-0.8,4.2-1.5,6.6-1.4
			c2.7,0.1,5.1,0.9,7.3,2.2c3.9,2.3,6.9,5.7,9.2,9.6c1.7,2.8,2.9,5.8,4.3,8.7c0,0.1,0.2,0.2,0.3,0.2c0.2,0.8,0.3,1.6,0.5,2.3
			c-0.3,0-0.8,0.1-1,0c-2.3-1.3-4.5-1.1-6.5,0.5c-0.9,0.7-1.8,1.2-2.8,1.9c0-0.7,0.2-1.5,0-2.2c-0.8-4.2-2.8-7.9-5.3-11.4
			c-2-2.8-4.4-5.2-7.7-6.3c-2.7-0.9-5.5-1.6-8,0.2c-2,1.5-3.9,3.2-5.7,5c-3.8,4-6.6,8.8-9,13.7c-1.9,3.8-3.8,7.7-5.6,11.6
			c-1.7,3.9-3.4,7.8-4.8,11.8c-1.1,3.2-2.1,6.3-3.9,9.2c-0.6,0.9-1.1,1.9-1.5,3c-0.3,0.8-0.4,1.7-0.6,2.6c-0.2,1.1-0.5,2.2-0.7,3.3
			c-0.8,0.4-1.7,0.6-2.3,1.2c-0.8,0.8-1.4,1.8-2.1,2.7c-1.4,1.9-2.9,3.7-4.3,5.6c-2.9,3.9-4.9,8.3-7.2,12.5
			c-0.6,1.2-1.3,2.6-2.2,3.5c-1.4,1.4-1.8,3-2,4.8c-0.3,2.4,0.7,4.5,2.2,6.2c2.5,2.8,5.1,5.5,7.8,8.2c4.4,4.4,9,8.5,14.2,12
			c3.5,2.3,7,4.6,11,6.1c1.3,0.5,2.5,0.4,3.6-0.4c0.5-0.4,1.1-0.7,1.6-1c-0.2,1.3-0.3,2.6-0.5,3.9c-0.1,1-1.1,1.7-2.2,1.3
			c-2-0.7-3.9-1.5-5.9-2.3c-0.9-0.4-1.8-1-2.7-1.6c-7.5-4.6-14-10.3-20.1-16.6c-6.6-7-13.2-14-19.8-21c-6.1-6.5-12.2-13-19-18.8
			c-3.5-3-7.2-5.7-11.6-7.4c0.2-0.1,0.4-0.2,0.6-0.2c1.5,0.6,3.2,1,4.5,1.9c5,3.5,9.9,7.3,14.9,10.8c1.7,1.2,3.6,2.3,5.6,3.1
			c2.4,0.9,4.8,0.8,6.4-1.6c0.4-0.6,1-1,1.6-1.4c0.8-0.5,1.8-0.8,2.7-1.3c2-1.1,2-1.1,1.1-3.4c-0.6-1.4-0.8-2.8,0.3-4
			c0,1,0.6,1.2,1.5,1.2c0.4,0,0.9,0,1.2,0.1c1.6,1,2.9,0.7,4-0.8c0.5-0.6,1.1-0.9,2-0.8c1.4,0.1,2.9-0.1,4-1.3
			c1.7-1.8,3.7-3.4,5.3-5.4c2.1-2.6,4.3-5.3,5.9-8.2c1.2-2.2,1.5-4.8,2.3-7.2c0.4-1.2,0.4-2.6,1.9-3.1c0.3-0.1,0.6-0.6,0.7-1
			c0.8-1.9,1.5-3.9,2.2-5.8c0.9-2.7,1.8-5.3,2.7-8C531.6,1917,532.1,1916.4,531.2,1916.3z"/>
		<path class="st7" d="M531.2,1916.3c0.9,0.1,0.4,0.7,0.3,0.9c-0.9,2.7-1.8,5.4-2.7,8c-0.7,2-1.4,3.9-2.2,5.8
			c-0.2,0.4-0.4,0.9-0.7,1c-1.5,0.5-1.5,1.9-1.9,3.1c-0.8,2.4-1.1,5.1-2.3,7.2c-1.6,2.9-3.8,5.6-5.9,8.2c-1.6,1.9-3.5,3.6-5.3,5.4
			c-1.1,1.1-2.6,1.4-4,1.3c-1-0.1-1.6,0.2-2,0.8c-1.2,1.5-2.4,1.8-4,0.8c-0.3-0.2-0.8-0.2-1.2-0.1c-0.9,0.1-1.5-0.2-1.5-1.2
			c-0.6-0.3-1.1-0.7-1.7-1c-0.5-0.3-0.9-0.5-1.4-0.8c1-0.5,2.1-1.1,3.1-1.6c1.3-0.4,2.6-0.6,3.7-1.2c3.5-1.8,6.4-4.2,9.4-6.8
			c2.9-2.4,5.1-5.2,5.6-9.1c0.2-1.2,0.9-2.2,2-2.7c1-0.5,1.4-1.3,1.6-2.4c0.2-0.9,0.4-1.8,0.5-2.7c0.1-0.8-0.1-1.5-0.1-2.3
			c-0.1,0.1-0.2,0.1-0.3,0.2c-0.6-0.3-1.4-0.4-1.9-0.9c-1.8-1.9-3.3-4.1-5.2-5.9c-3.2-3-6.5-5.8-10-8.4c-1.9-1.5-4.3-2.5-6.5-3.5
			c-8.9-4.4-18.3-7.3-28.2-8.2c-3.7-0.3-7.2,0-10.7,1.3c-3.2,1.2-5.2,3.7-7.1,6.4c-2.2,3.2-4.2,6.5-6.3,9.7
			c-0.7,1.1-1.7,2.1-2.4,3.3c-1.8,3-3.6,6-5,9.2c-1.4,3-1.4,3.9,0.3,5.4c-0.6,0.7-1.2,1.4-1.8,2.1c-1,0.2-2,0.6-2.9,0.5
			c-1,0-1.4,0.6-2,1.2c-0.8,0.9-1.9,1.5-2.9,2.3c0.2-0.4,0.4-0.7,0.6-1.1c1.3-0.1,1.4-0.9,1.1-1.9c0.2-0.5,0.5-0.9,0.7-1.4
			c0.8,0,1-0.4,0.7-1.1c1.1-2,2.3-3.9,3.4-5.9c3-5.1,6-10.1,9.1-15.2c1.5-2.5,3-4.9,4.5-7.3c2.4-4,4.7-7.9,7-11.9
			c0.2,0,0.3-0.1,0.5-0.1c1.5,0.1,3,0.3,4.5,0.4c13.1,1,25.5,4.6,37.3,10.4c3.1,1.5,6.1,3.1,8.9,5.1c6.3,4.4,11.8,9.6,15.9,16.2
			c0.4,0.6,0.6,1.2,1,1.8c0.3,0.6,0.6,1.2,1,2c0.6-1.6,1.1-3,1.8-4.3c1.7-3.5,3.4-6.9,5.2-10.4
			C530.9,1916.7,531.1,1916.5,531.2,1916.3z"/>
		<path class="st8" d="M273.4,2052.4c0,2.8-0.1,5.6,0,8.4c0.1,1.8,0.4,3.6,0.6,5.4c-0.6-3.1-1.3-6.3-1.9-9.4
			c0.2-0.3,0.5-0.6,0.5-0.9c0-0.8-0.1-1.6-0.2-2.4C272.4,2052.8,272.7,2052.4,273.4,2052.4z"/>
		<path class="st8" d="M275.6,2073.9c0.2,0.2,0.5,0.4,0.6,0.7c0.4,1.8,0.8,3.6,1.1,5.4c0.1,0.3-0.2,0.7-0.3,1
			C276.6,2078.6,276.1,2076.3,275.6,2073.9z"/>
		<path class="st8" d="M275.1,2070.1c0.2,0.7,0.5,1.4,0.6,2.1c0.1,0.3-0.2,0.6-0.2,1c-0.2-1-0.4-2-0.6-3.1
			C274.9,2070.2,275,2070.1,275.1,2070.1z"/>
		<path class="st8" d="M275.1,2070.1c-0.1,0-0.1,0-0.2,0c-0.2-1.1-0.4-2.2-0.7-3.3C274.5,2068,274.8,2069,275.1,2070.1z"/>
		<path class="st9" d="M346.5,2079.6c-1,1.3-1.9,2.6-2.8,3.9c-0.1,0.1,0.3,0.9,0.6,1c1.3,0.4,1.8,1.2,2,2.5c0.8,4.7,2.7,8.9,5.2,13
			c0.7,1.1,1.2,2.4,1.6,3.7c0.6,2.1,0.9,4.2,1.3,6.4c0.3,1.4,0.4,2.9,0.7,4.4c0.7,3.5-0.4,6.8-1.7,9.9c-0.7,1.5-1.4,3.1-2.2,4.7
			c-2.5-2-4.9-3.9-6.5-6.7c-2.8-5-6.4-9.5-10.2-13.8c-3.1-3.4-5.6-7.4-8.2-11.2c-1.1-1.6-1.9-3.3-2.8-5c-0.5-1-0.1-2.4,0.8-2.9
			c1.9-0.9,3.7-1.9,5.6-2.8c0.9-0.4,1.9-0.7,2.8-0.9c2.4-0.5,4.7-1,7.1-1.5c0.3-0.1,0.6-0.2,1.2-0.4c-0.4-0.3-0.6-0.6-0.8-0.7
			c-2.1-0.9-4.2-1.8-6.4-2.7c-1-0.4-2-0.7-2.5,0.8c-0.1,0.3-0.5,0.4-0.8,0.6c-3,1.3-6,2.6-8.9,4c-1.4,0.7-2.8,0.6-4.3,0.4
			c-2.8-0.4-5.6-1-8.4-1.3c-2.2-0.2-4.4,0.4-6.5,1.1c-3.3,1.1-6.6,2-9.8,3.2c-2.9,1-5.7,0.5-8.3-0.9c-1.4-0.8-2.5-1.9-2.9-3.7
			c-1.1-4.5-2.4-9-3.4-13.5c-0.4-1.9-0.4-3.9-0.4-5.8c-0.1-2.3,0-4.7,0-7c-0.1-4.4,1.9-7.9,5.3-10.4c2.7-2,5.6-3.9,8.5-5.5
			c1.5-0.9,3.4-1.3,5.1-1.7c1.9-0.4,3.9-0.3,5.9-0.6c0.3,0,0.6-0.5,0.7-0.8c0.2-0.5,0.2-1,0.2-1.5c0.1,0.2,0.3,0.3,0.3,0.5
			c0.3,1.2,0.7,2.4,1,3.7c0.3,1.5,0.6,2.9,0.9,4.6c-0.8-0.1-1.3-0.1-1.8-0.2c-2.5-0.4-5-0.1-7.4,0.8c-4.6,1.8-8.6,4.6-11.9,8.3
			c-1.7,1.9-2.9,4.1-2.9,6.8c0,2.4-0.2,4.8-0.1,7.1c0.1,2.1,0.4,4.1,0.9,6.1c0.6,2.7,1.6,5.4,2.3,8.1c0.3,1.1,0.8,1.7,1.8,1.9
			c0.7,0.1,1.5,0.2,2.2,0c1.9-0.4,3.7-1,5.5-1.6c2.5-0.9,5.1-1.7,7.5-2.9c2.2-1.1,4.4-1.9,6.8-2.1c3-0.4,6.1,0.1,9.1-0.8
			c2.8-0.8,5.7-1,8.6-1.6c1-0.2,1.8-0.4,2.8,0.2c2.4,1.3,4.9,2.6,7.4,3.7c3,1.3,7,0.3,9-2.3c2.3-3,4.7-6,6.6-9.1
			c1.4-2.2,2.3-4.7,3.1-7.2c0.6-1.7,0.7-3.7,0.8-5.5c0.1-2.7-0.1-5.5-0.2-8.2c-0.1-2.3-0.6-4.6-0.5-6.9c0.2-5.4,0.7-10.9,1.1-16.3
			c0.3-3.3,0.8-6.6,1.2-9.8c0.7-5.7,1.4-11.4,2-17.1c0.7-5.8,1.5-11.6,2-17.4c0.4-5.3,0.5-10.5,0.7-15.8c0.1-1.5,0.6-2.1,2-2.3
			c0.9-0.1,1.7-0.2,2.6-0.3c4-0.1,7.7,0.9,11.5,2c2.6,0.8,4.2,0.4,5.8-1.8c0-0.1,0.1-0.1,0.2-0.1c0,5.9,0.2,11.7,0.1,17.6
			c-0.1,8.6-0.7,17.1-1.9,25.5c-1,6.8-2.6,13.4-4.5,20c-1.3,4.3-3.3,8.3-5.6,12.1c-2.9,4.9-5.8,9.8-8.7,14.7c-1.5,2.6-3,5.2-4.6,7.8
			c-1.7,2.8-3.6,5.4-5.3,8.2C351.2,2072.1,348.9,2075.9,346.5,2079.6z M346.3,2115.9c0.2-0.1,0.3-0.1,0.5-0.2c0-0.4-0.1-0.7-0.1-1.1
			c-0.1-0.9-0.4-1.9-0.3-2.8c0.3-2.6,0.9-5.3,1.2-7.9c0.1-1.2,0.2-2.6-0.2-3.6c-1.9-4.3-3.5-8.7-4.5-13.3c-0.2-1.1-0.8-1.6-2-1.4
			c-2,0.3-3.9,0.6-5.9,0.9c-2.2,0.4-4,1.5-5.8,2.7c-0.9,0.6-1.2,1.4-0.5,2.4c3.2,4.5,6.3,9.1,9.5,13.6c1.4,2,3,3.9,4.5,5.9
			C343.9,2112.8,345.1,2114.4,346.3,2115.9z"/>
		<path class="st7" d="M521.4,1954.8c0.2-1.1,0.5-2.2,0.7-3.3c0.2-0.9,0.3-1.8,0.6-2.6c0.4-1,0.9-2,1.5-3c1.8-2.9,2.7-6.1,3.9-9.2
			c1.4-4,3.1-7.9,4.8-11.8s3.7-7.8,5.6-11.6c2.4-4.9,5.2-9.7,9-13.7c1.7-1.8,3.6-3.5,5.7-5c2.5-1.8,5.3-1.1,8-0.2
			c3.4,1.1,5.7,3.6,7.7,6.3c2.5,3.4,4.5,7.1,5.3,11.4c0.1,0.7,0,1.5,0,2.2c-0.8,1-1.6,2-2.3,3c-3.3,4.9-5.5,10.2-7.6,15.6
			c-5,13-8.7,26.4-12.3,39.8c-0.3,1.3-0.6,2.6-1,3.9c-0.5-0.2-1-0.3-1.4-0.6c-0.7-0.7-1.3-1.6-2.1-2.4c-0.7-0.7-1.5-1.3-2.2-2
			c-0.8-0.8-1.6-1.6-2.5-2.4c-2.9-2.4-5.8-4.8-8.8-7.1c-2.7-2-5.6-3.7-8.5-5.5C524.2,1956,522.7,1955.5,521.4,1954.8z"/>
		<path class="st10" d="M384.1,1962.5c-0.1,0-0.2,0-0.2,0.1c-1.6,2.2-3.1,2.5-5.8,1.8c-3.7-1.1-7.5-2.1-11.5-2
			c-0.9,0-1.7,0.1-2.6,0.3c-1.5,0.2-2,0.8-2,2.3c-0.2,5.3-0.2,10.6-0.7,15.8c-0.5,5.8-1.3,11.6-2,17.4c-0.7,5.7-1.3,11.4-2,17.1
			c-0.4,3.3-0.9,6.5-1.2,9.8c-0.5,5.4-0.9,10.8-1.1,16.3c-0.1,2.3,0.4,4.6,0.5,6.9c0.1,2.7,0.3,5.5,0.2,8.2c0,1.8-0.2,3.8-0.8,5.5
			c-0.8,2.5-1.8,5-3.1,7.2c-2,3.2-4.3,6.2-6.6,9.1c-2,2.6-6,3.6-9,2.3c-2.5-1.1-5-2.4-7.4-3.7c-1-0.5-1.8-0.4-2.8-0.2
			c-2.8,0.6-5.8,0.8-8.6,1.6c-3,0.9-6.1,0.5-9.1,0.8c-2.4,0.3-4.6,1.1-6.8,2.1c-2.4,1.2-5,2-7.5,2.9c-1.8,0.6-3.6,1.1-5.5,1.6
			c-0.7,0.2-1.5,0.1-2.2,0c-1.1-0.1-1.6-0.8-1.8-1.9c-0.7-2.7-1.6-5.4-2.3-8.1c-0.5-2-0.8-4.1-0.9-6.1c-0.1-2.4,0.2-4.8,0.1-7.1
			c0-2.7,1.2-4.9,2.9-6.8c3.3-3.7,7.3-6.5,11.9-8.3c2.4-0.9,4.8-1.1,7.4-0.8c0.5,0.1,1,0.1,1.8,0.2c-0.3-1.6-0.6-3.1-0.9-4.6
			c-0.3-1.2-0.6-2.5-1-3.7c0-0.2-0.2-0.3-0.3-0.5c-0.1-0.7-0.3-1.4-0.4-2.1c0.7-0.4,0.4-0.8,0-1.2c-0.1-0.5-0.2-1.1-0.3-1.6
			c0.1-0.4,0.3-0.8,0.4-1.2c2.2-5.6,4.5-11.2,6.7-16.8c0.2-0.5,0.1-1.1,0.2-1.6c0-0.1,0-0.1-0.1-0.1c1-0.3,0.8-1.2,0.9-1.9
			c0.1-0.2,0.2-0.4,0.3-0.6c0.2-0.6,0.4-1.3,0.6-1.9c0.3-1,0.7-1.9,1-2.9c0.1,0.1,0.3,0.2,0.2,0.2c-0.4,1.4-0.8,2.8-1.2,4.2
			c-0.6,2.1-1.2,4.1-1.7,6.2c-0.5,1.6-1,3.1-1.5,4.7c-0.3,0.3-0.7,0.6-0.9,1c-0.6,1.4-1.2,2.9-1.7,4.4c-0.5,1.3-0.9,2.7-1.4,4
			c-0.2,0.5-0.7,1-0.6,1.5c0.3,3.2,0.4,6.4,1.6,9.5c1.3,3.4,2.3,7,3.8,10.4c2.1,4.9,5,9.3,8.6,13.3c3.6,3.9,7.5,7.4,12.6,9.3
			c7.8,3,13.6,0.4,18.1-5.6c2-2.7,3-6,3.2-9.3c0.2-3.5,0.1-7.1-0.2-10.7c-0.3-4-0.6-8,0-12c1-7.7,2.2-15.3,3.3-22.9
			c1.5-10.6,3-21.2,4.3-31.8c0.6-5.4,0.8-10.9,0.9-16.3c0-1.8,1.1-3.2,2.8-3.8c2.4-0.9,4.8-0.9,7.3-0.6c2.9,0.4,5.8,0.9,8.7,1.4
			c3,0.5,4.9-1,4.6-3.9c-0.1-0.5-0.1-1-0.2-1.5c0-0.2-0.1-0.5-0.1-0.7c0-0.3,0-0.7,0-1c0-0.2-0.1-0.3-0.1-0.5c0-1.2,0.1-2.5,0-3.7
			c-0.2-4.4-1.6-8.5-4-12.3c-2.7-4.2-6.5-6.6-11.3-7.6c-2.3-0.5-4.5-1.2-6.8-1.4c-4.3-0.4-8.7,0-12.9,0.8c-5,1-9.9,2.3-14.9,3.5
			c-1.6,0.4-3.2,0.9-4.8,1.5c-3.2,1.2-6.4,2.5-9.6,3.8c-4.9,2-9.8,4.1-13.1,8.6c-0.7,0.9-0.9,1.8-0.8,2.9c0.1,0.5,0.2,0.9,0.3,1.4
			c0.4,3.1,0.7,6.2,1.2,9.3c0.2,1.5,0.7,2.9,1.1,4.4c0.7,2.5,1.3,5.1,2.1,7.6c1.3,3.9,2.7,7.8,4.1,11.7c0.3,0.8,0.8,1.4,1.1,2.2
			c0.1,0.5,0.2,1.1,0.3,1.6c-0.8,0.5-0.3,1,0.1,1.5c0.1,0.3,0.1,0.6,0.2,0.9c-0.1,0.3-0.2,0.6-0.3,0.9c-0.1,0.5-0.3,1-0.4,1.5
			c0-0.2-0.1-0.3-0.1-0.5c-0.2-1.8-0.4-3.7-0.7-5.5c-0.2-0.5-0.3-0.9-0.5-1.4c-0.3-0.8-0.7-1.7-1-2.5s-0.6-1.7-1-2.5
			c-0.8-2.3-1.6-4.6-2.3-7c-0.6-2-1.2-4-1.8-6c-0.9-3.2-1.8-6.5-2.7-9.7c-0.5-1.9-1-3.9-1.4-5.8c-0.5-1.9-0.8-3.7-1.4-5.6
			c-0.3-1,0.1-1.4,0.9-1.8c4-1.8,8-3.8,12-5.5c4.3-1.8,8.7-3.5,13.1-5.1c3-1.1,6.1-1.8,9.2-2.7c2.1-0.6,4.2-1.3,6.3-1.7
			c2.7-0.5,5.3-0.9,8-1.2c3.1-0.3,6.3-0.5,9.4-0.4c5.4,0.2,10.5,1.4,14.9,4.6c3.4,2.5,5.6,6,7,10c1.9,5.7,1.6,11.6,1.8,17.4
			C384,1962,384,1962.2,384.1,1962.5z M298.3,2056.1c-4.6,1.1-8,3.3-10.5,6.9c-0.6,0.9-1.8,1.7-1.4,3.1c0.2,0.6,0.3,1.1,0.5,1.7
			c1,4.4,1.6,8.9,1.5,13.5c0,1,0.3,1.2,1.2,0.8c1.6-0.6,3.2-1.3,4.8-1.7c2.9-0.7,5.2-2.4,7-4.7c1.6-2.1,3.4-3.9,6.3-4.2
			c3.7-0.4,7.3-1.1,11-0.5c0.3,0.1,0.7-0.1,1-0.1c-0.1-0.4-0.2-0.8-0.4-1.1c-0.3-0.5-0.8-0.9-1.2-1.3c-2.1-2.6-4.2-5.2-6.3-7.8
			c-0.9-1.1-1.8-2.7-3-3.2C305.4,2056.1,301.7,2055.7,298.3,2056.1z"/>
		<path class="st11" d="M546.3,1996c-0.2,0.7-0.4,1.4-0.5,2.1c-0.3,0.3-0.8,0.5-1,0.8c-2.2,3.5-4.4,7-6.5,10.6
			c-0.6,1-1.4,1.4-2.5,1.1c-1.9-0.5-3.9-0.9-5.7-1.6c-3.7-1.4-7.3-2.8-10.3-5.5c-4.8-4.3-9.5-8.6-14.2-12.9
			c-0.4-0.3-0.7-0.8-0.8-1.3c-0.7-2.8-1-5.6,0.3-8.3c0.5-0.9,0.9-1.9,1.3-2.8c2.1-4.4,4-8.9,7-12.7c1.3-1.7,2.9-3.3,4.4-4.8
			c1.4-1.3,2.8-1.2,4.5-0.2c5.1,3.1,9.5,7.1,13.6,11.4c2.9,3,5.2,6.3,7.1,10c0.7,1.4,1.4,2.9,1.9,4.5c0.4,1.3,0.6,2.6,0.7,3.9
			c0.1,1.4-0.2,2.8-0.1,4.1C545.6,1994.9,546.1,1995.4,546.3,1996z M536.6,1986.6C536.6,1986.6,536.7,1986.6,536.6,1986.6
			c-0.5-1.7-1-3.4-1.5-5.1c-0.7-2.3-1.6-4.5-3.4-6.2c-3.7-3.6-7.6-7.1-11.4-10.7c-1.1-1-3.3-0.9-4.2,0.2c-1.4,1.7-2.8,3.4-3.7,5.4
			c-1.9,3.9-3.5,7.9-5,12c-0.7,1.8-0.5,4.3,1.7,5.5c1.1,0.7,2,1.7,3,2.5c2.3,1.9,4.6,3.8,7,5.5c1.1,0.7,2.6,1.3,3.9,1.2
			c1.9-0.1,3.7-0.8,5.5-1.4c2.7-1,5-2.6,7.1-4.6c1.1-1.1,1.3-2.1,1.1-3.4C536.7,1987.2,536.7,1986.9,536.6,1986.6z"/>
		<path class="st12" d="M546.3,1996c-0.3-0.5-0.7-1.1-0.7-1.6c0-1.4,0.2-2.8,0.1-4.1c-0.1-1.3-0.3-2.7-0.7-3.9
			c-0.5-1.5-1.2-3-1.9-4.5c-1.9-3.7-4.2-7-7.1-10c-4.1-4.3-8.5-8.2-13.6-11.4c-1.6-1-3-1.1-4.5,0.2c-1.6,1.5-3.1,3.1-4.4,4.8
			c-3,3.8-4.9,8.4-7,12.7c-0.5,0.9-0.9,1.9-1.3,2.8c-1.3,2.7-1.1,5.5-0.3,8.3c0.1,0.5,0.4,1,0.8,1.3c4.7,4.3,9.4,8.7,14.2,12.9
			c3,2.6,6.6,4.1,10.3,5.5c1.8,0.7,3.8,1.1,5.7,1.6c1.1,0.3,1.9-0.1,2.5-1.1c2.1-3.6,4.3-7.1,6.5-10.6c0.2-0.3,0.6-0.5,1-0.8
			c-0.6,2.8-1.1,5.6-1.7,8.4c-0.6,2.9-1.3,5.8-1.9,8.7c-0.1,0.3-0.2,0.7-0.3,1c-0.5,0.3-1.1,0.6-1.6,1c-1.1,0.8-2.3,0.9-3.6,0.4
			c-4-1.5-7.5-3.8-11-6.1c-5.2-3.4-9.8-7.6-14.2-12c-2.7-2.7-5.3-5.4-7.8-8.2c-1.5-1.7-2.5-3.8-2.2-6.2c0.2-1.8,0.6-3.4,2-4.8
			c1-1,1.6-2.3,2.2-3.5c2.2-4.3,4.3-8.6,7.2-12.5c1.4-1.9,2.9-3.7,4.3-5.6c0.7-0.9,1.2-2,2.1-2.7c0.6-0.6,1.5-0.8,2.3-1.2
			c1.4,0.7,2.8,1.2,4.1,2c2.9,1.8,5.8,3.5,8.5,5.5c3,2.2,5.9,4.7,8.8,7.1c0.9,0.7,1.7,1.6,2.5,2.4c0.7,0.7,1.5,1.3,2.2,2
			c0.7,0.8,1.3,1.6,2.1,2.4c0.3,0.3,0.9,0.4,1.4,0.6C549.4,1983.1,547.9,1989.5,546.3,1996z"/>
		<path class="st13" d="M427.8,1941.6c1-0.8,2-1.4,2.9-2.3c0.6-0.6,1-1.2,2-1.2s2-0.3,2.9-0.5c0.3,0.4,0.6,0.8,0.9,1.1
			c0.6,0.5,1.2,1,1.8,1.6c-1.7,0.9-3.2,1.9-4,3.9c-0.9,2.2-2.2,4.3-3.4,6.4c-1,1.9-0.3,2.9,2,3.3c1.9,0.3,3.8,0.2,5.7,0.1
			c2.8-0.1,5.5-0.3,8.3-0.6c2.1-0.2,4.1-0.4,6.2-0.5c1.7-0.1,3.5-0.3,5.2-0.3c2.1,0.1,4.3,0,6.2,0.7c4,1.4,7.2,4.1,10.7,6.5
			c2.2,1.5,4.3,3,7.2,3.2c2.4,0.2,4.4-0.7,6.5-1.4c1.9-0.6,2.2-1.6,1.5-3.6c-0.3-0.9-0.5-1.8-0.8-2.7c1.7,0.4,3.4,1,5.2,0.4
			c0.5,0.3,0.9,0.5,1.4,0.8c0.6,0.3,1.1,0.7,1.7,1c-1.2,1.3-0.9,2.7-0.3,4c0.9,2.2,0.9,2.2-1.1,3.4c-0.9,0.5-1.8,0.8-2.7,1.3
			c-0.6,0.4-1.2,0.8-1.6,1.4c-1.7,2.5-4.1,2.5-6.4,1.6c-2-0.7-3.9-1.8-5.6-3.1c-5-3.5-9.9-7.3-14.9-10.8c-1.3-0.9-3-1.3-4.5-1.9
			c-0.2-0.1-0.4,0.1-0.6,0.2c-2.6-0.8-5.2-0.2-7.8,0.3c-7.9,1.5-15.8,3-23.6,4.6c-3.9,0.8-7.8,1.7-11.7,2.6
			c-0.4,0.1-0.8,0.2-1.3,0.3c0.6-1.1,1.1-2.1,1.7-3c1.7-2.8,3.4-5.5,5.1-8.3c1.4-2.4,2.7-4.8,4.1-7.1
			C427,1942.5,427.4,1942.1,427.8,1941.6z"/>
		<path class="st8" d="M309.7,2013.4c-0.1,0.5,0,1.1-0.2,1.6c-2.2,5.6-4.5,11.2-6.7,16.8c-0.2,0.4-0.3,0.8-0.4,1.2
			c-1,0-1.9,0.1-2.9,0.1c0.4-0.2,0.9-0.7,1.3-0.7c0.7,0.1,1-0.2,1.2-0.8c1-2.4,2.1-4.7,3.1-7.1c1.3-3.4,2.6-6.8,3.9-10.1
			C309.1,2014,309.4,2013.8,309.7,2013.4z"/>
		<path class="st14" d="M314.2,1994.5c0.1-0.5,0.3-1,0.4-1.5c0.1-0.3,0.2-0.6,0.3-0.9c0.3,4.3-0.7,8.4-1.6,12.5
			c0,0.1-0.3,0.1-0.5,0.2c0-0.1-0.1-0.3-0.1-0.4c0-0.2,0.1-0.5,0.1-0.7c0.3-1.4,0.6-2.9,0.8-4.3c0-0.1,0-0.1,0-0.2
			c0.1-0.6,0.2-1.2,0.3-1.8c0-0.3,0-0.7,0.1-1C314.1,1995.6,314.1,1995.1,314.2,1994.5z"/>
		<path class="st8" d="M312.7,2004.3c0,0.1,0.1,0.3,0.1,0.4c-0.1,0.1-0.1,0.2-0.2,0.3c0,0.3-0.1,0.5-0.1,0.8c0,0.1,0,0.1,0,0.2
			c-0.3,1-0.7,1.9-1,2.9c-0.2,0.6-0.4,1.3-0.6,1.9c-0.1-0.6-0.4-1.2-0.3-1.7c0.2-1.2,0.6-2.5,1-3.7
			C311.7,2005,312.3,2004.7,312.7,2004.3z"/>
		<path class="st8" d="M275.5,2045.8c-0.7,2-1.5,4.1-2.2,6.1c-0.7-0.5-0.7-1-0.3-1.8c0.4-0.9,0.7-1.9,0.9-2.8
			C274.1,2046.3,274.6,2045.9,275.5,2045.8z"/>
		<path class="st8" d="M290.4,2034.5c-1.7,1.1-3.5,2.1-5.2,3.2c0.1-0.4,0-1.1,0.3-1.2c1.2-0.7,2.5-1.4,3.8-2
			C289.6,2034.4,290.1,2034.5,290.4,2034.5z"/>
		<path class="st8" d="M279.6,2041.6c-1.2,1.1-2.3,2.2-3.5,3.4c-0.4-0.8,0.1-1.4,0.6-2c0.6-0.6,1.2-1.1,1.9-1.6
			C278.8,2041.3,279.3,2041.5,279.6,2041.6z"/>
		<path class="st8" d="M313.6,1999.2c-0.3,1.4-0.6,2.9-0.8,4.3C312,2002.2,312.5,1999.7,313.6,1999.2z"/>
		<path class="st8" d="M282.2,2039.8c-0.7,0.5-1.4,1.1-2.1,1.6C279.9,2040,280.9,2039.3,282.2,2039.8z"/>
		<path class="st8" d="M284.7,2037.9c-0.6,0.5-1.3,1-1.9,1.6c-0.3-0.9,0.2-1.4,0.8-1.7C283.9,2037.6,284.4,2037.8,284.7,2037.9z"/>
		<path class="st8" d="M311,1982.2c0.3,0.8,0.6,1.7,1,2.5C310.9,1984.5,310.3,1983,311,1982.2z"/>
		<path class="st8" d="M314.2,1994.5c-0.1,0.6-0.1,1.2-0.2,1.7c-0.9-0.6-0.8-1.7,0.1-2.2C314.1,1994.2,314.1,1994.3,314.2,1994.5z"
			/>
		<path class="st8" d="M310.5,2011.4c-0.1,0.7,0.1,1.6-0.9,1.9C309.5,2012.4,309.3,2011.6,310.5,2011.4z"/>
		<path class="st13" d="M429.5,1938.6c0.3,1,0.2,1.8-1.1,1.9C428.7,1939.9,429.1,1939.3,429.5,1938.6z"/>
		<path class="st8" d="M312.9,1987.1c0.2,0.5,0.3,0.9,0.5,1.4c-0.3-0.2-0.7-0.5-1-0.7C312.6,1987.6,312.7,1987.3,312.9,1987.1z"/>
		<path class="st8" d="M314,1997.2c-0.1,0.6-0.2,1.2-0.3,1.8C313.1,1998.3,312.8,1997.6,314,1997.2z"/>
		<path class="st8" d="M295.6,2033.4c-0.4,0.1-0.8,0.1-1.2,0.2c0.1-0.3,0.3-0.5,0.4-0.8C295.1,2033.1,295.3,2033.3,295.6,2033.4z"/>
		<path class="st13" d="M430.9,1936.1c0.2,0.7,0,1.1-0.7,1.1C430.4,1936.9,430.7,1936.5,430.9,1936.1z"/>
		<path class="st9" d="M302.7,2034.7c0.4,0.4,0.7,0.8,0,1.2C302.7,2035.5,302.7,2035.1,302.7,2034.7z"/>
		<path class="st15" d="M437.4,1935.6c-1.7-1.5-1.7-2.3-0.3-5.4c1.4-3.2,3.3-6.2,5-9.2c0.7-1.2,1.6-2.2,2.4-3.3
			c2.1-3.2,4.1-6.6,6.3-9.7c1.8-2.6,3.9-5.2,7.1-6.4c3.5-1.3,7-1.6,10.7-1.3c9.9,0.9,19.3,3.8,28.2,8.2c2.2,1.1,4.5,2.1,6.5,3.5
			c3.5,2.6,6.8,5.5,10,8.4c1.9,1.8,3.4,3.9,5.2,5.9c0.4,0.5,1.2,0.6,1.9,0.9c0.1-0.1,0.2-0.1,0.3-0.2c0,0.8,0.2,1.5,0.1,2.3
			c-0.1,0.9-0.3,1.8-0.5,2.7c-0.2,1-0.6,1.8-1.6,2.4c-1.1,0.6-1.8,1.5-2,2.7c-0.5,3.9-2.8,6.7-5.6,9.1c-2.9,2.5-5.9,5-9.4,6.8
			c-1.1,0.6-2.5,0.8-3.7,1.2c-0.4-0.6-0.7-1.2-1.1-1.7c1.3-0.5,2.6-0.9,3.8-1.6c3-1.5,5.3-3.8,7.7-6.1c1.3-1.3,2.7-2.5,3.3-4.3
			c1.2-3.2,2.7-6.2,4.6-9c2.1-3.1,2.1-3.2-0.3-6.1c-2-2.3-4.1-4.6-6.4-6.6c-3.2-2.7-6.4-5.5-10-7.5c-9.1-5-18.7-8.2-29.1-8.9
			c-3.8-0.3-7.5-0.1-11,1.4c-3.1,1.3-5.6,3.4-7.6,6.2c-1.9,2.7-3.9,5.3-5.9,8c-1.2,1.7-2.4,3.3-3.6,5.1c-0.5,0.8-0.9,1.7-1.3,2.5
			c-0.8,1.8-1.8,3.5-2.4,5.3c-0.7,2.2,0.1,3.6,2.3,4.4c0.3,0.1,0.6,0.4,0.9,0.7C440.4,1935.8,438.9,1935.7,437.4,1935.6z"/>
		<path class="st16" d="M496.9,1952.4c0.4,0.6,0.7,1.2,1.1,1.7c-1,0.5-2.1,1.1-3.1,1.6c-1.8,0.6-3.5,0-5.2-0.4
			c-0.8-0.5-1.8-0.9-2.5-1.5c-1.9-1.5-3.7-3.1-5.5-4.7c-0.2-0.2-0.6-0.2-0.9-0.3c-1.5-1.2-2.8-2.7-4.4-3.4
			c-3.4-1.4-6.8-2.7-10.4-3.4c-4.7-0.9-9.5-1.3-14.3-1.8c-1.6-0.1-3.3-0.7-4.9,0.3c-0.4-0.2-0.7-0.3-1.1-0.5
			c0.4-1.2,0.3-2.4-0.2-3.6c0.2,0,0.3-0.1,0.5-0.1c1.8,0.4,3.6,0.8,5.4,1.1c4.7,0.8,9.4,1.4,14,2.3c3.2,0.7,6.3,1.8,9.5,2.6
			c3.2,0.8,6.2,2.1,9,3.7c1,0.6,2,1,3.1,1.5c1.7,1.2,3.3,2.5,5,3.6c0.6,0.4,1.4,0.3,2.2,0.4C495,1951.8,495.9,1952.1,496.9,1952.4z"
			/>
		<path class="st12" d="M445.4,1936.4c0.5,1.2,0.6,2.4,0.2,3.6c-0.7,0.1-1.5,0.3-2.2,0.3c-1.7,0-3.4,0-5.1,0c-0.6-0.5-1.3-1-1.8-1.6
			c-0.3-0.3-0.6-0.7-0.9-1.1c0.6-0.7,1.2-1.4,1.8-2.1c1.5,0.1,3,0.2,4.5,0.3C443.1,1936,444.2,1936.2,445.4,1936.4z"/>
		<path class="st10" d="M346.3,2115.9c-1.2-1.6-2.4-3.1-3.6-4.7c-1.5-2-3-3.9-4.5-5.9c-3.2-4.5-6.3-9.1-9.5-13.6
			c-0.7-1-0.4-1.8,0.5-2.4c1.8-1.2,3.6-2.3,5.8-2.7c2-0.3,3.9-0.6,5.9-0.9c1.1-0.2,1.7,0.3,2,1.4c1,4.6,2.6,9,4.5,13.3
			c0.4,1,0.3,2.4,0.2,3.6c-0.3,2.6-0.9,5.3-1.2,7.9c-0.1,0.9,0.2,1.8,0.3,2.8c0,0.4,0.1,0.7,0.1,1.1
			C346.6,2115.8,346.4,2115.9,346.3,2115.9z"/>
		<path class="st17" d="M312.5,2006c0-0.1,0-0.1,0-0.2c0-0.3,0.1-0.5,0.1-0.8c0.1-0.1,0.1-0.2,0.2-0.3c0.2-0.1,0.5-0.1,0.5-0.2
			c0.9-4.1,1.9-8.2,1.6-12.5c-0.1-0.3-0.1-0.6-0.2-0.9c0-0.5,0-1-0.1-1.5s-0.2-1.1-0.3-1.6c-0.8-2.6-1.7-5.3-2.5-7.9
			c-0.9-3.2-2-6.3-2.7-9.5c-0.9-3.9-1.5-7.8-2.4-11.7c-0.8-3.5,0.2-6.7,1.2-9.9c0.1-0.4,0.3-0.7,0.6-1c1.5-1.3,2.9-2.8,4.5-3.9
			c2.3-1.5,4.7-2.9,7.2-4c2.8-1.3,5.7-2.3,8.7-3.3c3.5-1.2,7.1-2.5,10.7-3.3c4.3-1,8.8-1.8,13.2-2.4c2-0.3,4.1-0.5,6-0.1
			c3.5,0.7,7.1,1.4,10.4,2.9c4.5,2.1,7.7,5.5,9.8,9.9c1.8,3.7,2.1,7.9,2.7,11.9c0.1,1.1,0,2.2-0.1,3.3c-0.1,1.2-1.1,2.1-2.2,2
			c-2.4-0.2-4.7-0.6-7.1-0.7c-2.4-0.2-4.8-0.3-7.1-0.2c-3.4,0.2-5.9,2.1-8.4,4.2c-0.8,0.7-0.9,1.5-1,2.4c-0.3,5.5-0.4,11-1,16.5
			c-0.8,7.1-1.9,14.1-2.9,21.2c-0.7,5-1.3,9.9-2,14.9c-0.6,4.4-1.5,8.8-2,13.2c-0.7,6.2-1.1,12.5-1.6,18.8c-0.3,3.9,0,7.8-2.2,11.3
			c-0.4,0.6-0.9,1.2-1.5,1.6c-1.1,0.7-2.2,1.2-3.3,1.9c-1.6,1-3.3,1.4-5.2,1.3c-5.5-0.3-10.2-2.2-14.1-6.1
			c-3.6-3.6-6.5-7.6-8.7-12.1c-2-4-3.6-8.1-4.5-12.4c-0.4-1.9-0.5-3.9-1-5.7c-0.4-1.2-0.3-2.2,0.1-3.3c0.2-0.6,0.3-1.1,0.6-1.7
			c0.6-1.4,1.3-2.8,1.9-4.2c-0.5,1.6-1,3.1-1.4,4.7c-0.2,0.7-0.3,1.6-0.1,2.3c0.5,2,1.2,4,1.6,6c0.9,4.4,2.7,8.4,4.8,12.3
			c2.4,4.6,5.7,8.5,9.9,11.7c2.4,1.9,5.2,3.1,8.2,3.6c2.1,0.3,3.9-0.8,5.8-1.3c2.2-0.6,3.9-1.6,4.5-4c0.4-1.6,1.2-3.1,1.4-4.6
			c0.4-2.7,0.4-5.6,0.8-8.3c1.3-9.1,2.8-18.2,4.2-27.4c1.8-12,3.7-24,5.3-36c0.6-4.3,0.5-8.7,0.9-13.1c0.1-1,0.5-2,0.9-2.9
			c0.7-1.6,1.9-2.7,3.4-3.5c0.2,0,0.3-0.1,0.5-0.1c0.1-0.2,0.3-0.4,0.4-0.6c0.2,0,0.3-0.1,0.5-0.1c0.1-0.1,0.3-0.2,0.4-0.3
			c0.2,0,0.5-0.1,0.7-0.1c0.2-0.1,0.4-0.3,0.7-0.4c2-0.3,4-0.7,6-0.9c1.2-0.1,2.4,0,3.6,0c0.8,0.2,1.5,0.3,2.3,0.5
			c0.2,0,0.3-0.1,0.5-0.1c0.5,0.2,1,0.4,1.6,0.5c3.7,0.6,5.1-0.5,4.8-4c-0.3-3.6-0.8-7.2-2.4-10.5c-2.2-4.7-5.3-8.6-10.2-10.8
			c-4.2-1.9-8.7-2.8-13.3-2.8c-1.8,0-3.6,0.2-5.3,0.6c-3.6,0.7-7.1,1.4-10.6,2.4c-4.2,1.2-8.3,2.5-12.3,4c-4.2,1.5-8.3,3.3-11.8,6.2
			c-1.3,1.1-2.8,2.2-3.5,3.6c-1.1,2.2-1.7,4.8-2.4,7.2c-1.1,4.1-0.2,8.2,0.5,12.2c0.6,3,1.5,6,2.3,9c0.5,1.7,1.1,3.4,1.6,5.1
			c0.7,2.1,1.7,4.1,2,6.2c0.6,3.4,0.3,6.9-0.3,10.3c-0.3,1.8-0.6,3.5-0.9,5.3c0,0.3-0.1,0.5-0.1,0.8c-0.1,0.3-0.4,0.5-0.4,0.8
			c-1.1,4-2.1,8.1-3.2,12.1c-0.2,0.8-0.8,1.5-1.1,2.3c0.2-1,0.4-2,0.6-3.1c0.6-2.1,1.2-4.1,1.7-6.2c0.4-1.4,0.8-2.8,1.2-4.2
			C312.8,2006.2,312.6,2006.1,312.5,2006z"/>
		<path class="st14" d="M308.5,2022c-0.6,1.4-1.3,2.8-1.9,4.2c-0.2,0.5-0.4,1.1-0.6,1.7c-0.4,1.1-0.5,2.1-0.1,3.3
			c0.6,1.8,0.6,3.8,1,5.7c0.9,4.3,2.5,8.4,4.5,12.4c2.2,4.5,5.1,8.5,8.7,12.1c3.9,3.9,8.6,5.8,14.1,6.1c1.9,0.1,3.6-0.3,5.2-1.3
			c1.1-0.7,2.3-1.2,3.3-1.9c0.6-0.4,1.1-1,1.5-1.6c2.2-3.5,1.9-7.4,2.2-11.3c0.5-6.3,0.9-12.5,1.6-18.8c0.5-4.4,1.3-8.8,2-13.2
			c0.7-5,1.3-9.9,2-14.9c1-7.1,2.1-14.1,2.9-21.2c0.6-5.5,0.7-11,1-16.5c0.1-1,0.2-1.8,1-2.4c2.5-2.1,5-4.1,8.4-4.2
			c2.4-0.1,4.8,0.1,7.1,0.2c2.4,0.2,4.7,0.5,7.1,0.7c1.1,0.1,2-0.8,2.2-2c0.1-1.1,0.2-2.2,0.1-3.3c-0.5-4.1-0.9-8.2-2.7-11.9
			c-2.1-4.4-5.3-7.8-9.8-9.9c-3.3-1.5-6.9-2.3-10.4-2.9c-1.9-0.4-4.1-0.2-6,0.1c-4.4,0.7-8.8,1.4-13.2,2.4
			c-3.6,0.9-7.1,2.1-10.7,3.3c-2.9,1-5.9,2-8.7,3.3c-2.5,1.1-4.9,2.5-7.2,4c-1.6,1.1-3,2.5-4.5,3.9c-0.3,0.3-0.5,0.6-0.6,1
			c-1.1,3.2-2.1,6.4-1.2,9.9c0.9,3.9,1.5,7.8,2.4,11.7c0.8,3.2,1.8,6.3,2.7,9.5c0.8,2.6,1.6,5.3,2.5,7.9c-0.4-0.7-0.9-1.4-1.1-2.2
			c-1.4-3.9-2.8-7.7-4.1-11.7c-0.8-2.5-1.4-5.1-2.1-7.6c-0.4-1.5-0.9-2.9-1.1-4.4c-0.5-3.1-0.8-6.2-1.2-9.3
			c-0.1-0.5-0.2-0.9-0.3-1.4c-0.1-1.1,0.1-1.9,0.8-2.9c3.3-4.5,8.2-6.6,13.1-8.6c3.2-1.3,6.4-2.6,9.6-3.8c1.6-0.6,3.1-1.1,4.8-1.5
			c5-1.2,9.9-2.5,14.9-3.5c4.2-0.9,8.6-1.2,12.9-0.8c2.3,0.2,4.6,0.9,6.8,1.4c0.3,0.2,0.5,0.4,0.8,0.6c4.2,1.6,7.7,4.2,10.1,8
			c2.2,3.5,3.5,7.4,3.7,11.6c0.1,1.1,0.4,2.3,0.6,3.4c0,0.2,0.1,0.3,0.1,0.5c0,0.3,0,0.7,0,1c0,0.2,0.1,0.5,0.1,0.7
			c-0.2,0.5-0.3,1.1-0.5,1.6c-0.2,0.9-0.1,2.1-1.4,2.4c-1,0.2-2,0.3-2.9,0.2c-2-0.2-4-0.6-6-0.9c-4.8-0.8-9.3-0.7-13.1,2.8
			c-0.8,0.7-1.3,1.5-1.3,2.7c0.1,1.7,0,3.3-0.1,5c-0.8,7.3-1.5,14.6-2.4,21.9c-0.8,6.6-1.9,13.2-2.8,19.9
			c-0.7,5.4-1.4,10.8-2.2,16.2c-1.4,9.5-1,19.1-1.3,28.7c-0.2,4.4-1.5,8.1-5.2,10.9c-3.5,2.6-7.2,3.1-11.3,2.6
			c-5.2-0.7-9.4-3.5-13-7.1c-7-7.2-11.3-15.9-13.6-25.6c-0.6-2.7-1-5.4-1.4-8.1c0.4-1.3,0.9-2.7,1.4-4c0.5-1.5,1.1-3,1.7-4.4
			c0.2-0.4,0.6-0.6,0.9-1l0,0c0,0.2,0.1,0.3,0.1,0.5C308.4,2021.9,308.4,2022,308.5,2022z"/>
		<path class="st18" d="M298.3,2056.1c3.4-0.4,7.2,0,10.6,1.5c1.2,0.5,2,2,3,3.2c2.1,2.6,4.2,5.2,6.3,7.8c0.4,0.5,0.8,0.9,1.2,1.3
			c0.2,0.3,0.2,0.7,0.4,1.1c-0.3,0-0.7,0.2-1,0.1c-3.7-0.6-7.4,0.1-11,0.5c-2.9,0.3-4.6,2.1-6.3,4.2c-1.8,2.3-4.1,4-7,4.7
			c-1.6,0.4-3.2,1.1-4.8,1.7c-0.9,0.4-1.3,0.2-1.2-0.8c0.2-4.6-0.4-9-1.5-13.5c-0.1-0.6-0.3-1.1-0.5-1.7c-0.4-1.4,0.8-2.2,1.4-3.1
			C290.3,2059.5,293.7,2057.2,298.3,2056.1z"/>
		<path class="st18" d="M304.3,2030.7c0.5,2.7,0.8,5.4,1.4,8.1c2.3,9.7,6.6,18.4,13.6,25.6c3.5,3.7,7.8,6.4,13,7.1
			c4,0.6,7.8,0.1,11.3-2.6c3.7-2.8,5.1-6.5,5.2-10.9c0.4-9.6-0.1-19.2,1.3-28.7c0.8-5.4,1.4-10.8,2.2-16.2c0.9-6.6,2-13.2,2.8-19.9
			c0.9-7.3,1.6-14.6,2.4-21.9c0.2-1.7,0.2-3.3,0.1-5c0-1.2,0.5-1.9,1.3-2.7c3.8-3.5,8.4-3.6,13.1-2.8c2,0.3,4,0.7,6,0.9
			c1,0.1,2,0,2.9-0.2c1.2-0.3,1.1-1.5,1.4-2.4c0.1-0.5,0.3-1.1,0.5-1.6c0.1,0.5,0.2,1,0.2,1.5c0.4,2.9-1.5,4.4-4.6,3.9
			c-2.9-0.5-5.8-1.1-8.7-1.4c-2.4-0.3-4.9-0.2-7.3,0.6c-1.7,0.6-2.7,2-2.8,3.8c-0.1,5.4-0.3,10.9-0.9,16.3
			c-1.2,10.6-2.8,21.2-4.3,31.8c-1.1,7.7-2.2,15.3-3.3,22.9c-0.5,4-0.3,8,0,12c0.3,3.5,0.4,7.1,0.2,10.7c-0.2,3.3-1.2,6.6-3.2,9.3
			c-4.5,6-10.3,8.6-18.1,5.6c-5-1.9-9-5.4-12.6-9.3c-3.6-3.9-6.5-8.4-8.6-13.3c-1.4-3.4-2.5-6.9-3.8-10.4c-1.2-3.1-1.3-6.3-1.6-9.5
			C303.6,2031.7,304.1,2031.2,304.3,2030.7z"/>
		<path class="st18" d="M382.7,1955.4c-0.2-1.1-0.6-2.3-0.6-3.4c-0.3-4.2-1.6-8-3.7-11.6c-2.4-3.9-5.9-6.4-10.1-8
			c-0.3-0.1-0.6-0.4-0.8-0.6c4.8,1,8.7,3.4,11.3,7.6c2.4,3.7,3.7,7.9,4,12.3C382.7,1953,382.7,1954.2,382.7,1955.4z"/>
		<path class="st14" d="M309.8,2016.6c-0.2,1-0.4,2-0.6,3.1c0,0.1,0,0.2,0,0.2c-0.1,0.2-0.2,0.4-0.4,0.6c0,0.2-0.1,0.3-0.1,0.5
			c-0.1,0.1-0.3,0.2-0.4,0.3l0,0C308.8,2019.8,309.3,2018.2,309.8,2016.6z"/>
		<path class="st14" d="M314.7,1989.7c0,0.5,0,1,0.1,1.5C314.3,1990.7,313.9,1990.2,314.7,1989.7z"/>
		<path class="st18" d="M382.7,1956.9c0-0.3,0-0.7,0-1C382.7,1956.2,382.7,1956.6,382.7,1956.9z"/>
		<path class="st19" d="M536.6,1986.6c0.1,0.3,0.1,0.6,0.2,0.9c0.2,1.3,0,2.3-1.1,3.4c-2.1,2-4.4,3.7-7.1,4.6
			c-1.8,0.6-3.7,1.3-5.5,1.4c-1.3,0.1-2.8-0.5-3.9-1.2c-2.5-1.7-4.7-3.6-7-5.5c-1-0.8-1.9-1.8-3-2.5c-2.2-1.3-2.3-3.7-1.7-5.5
			c1.5-4.1,3.1-8.1,5-12c0.9-1.9,2.4-3.7,3.7-5.4c0.9-1.1,3.1-1.2,4.2-0.2c3.8,3.5,7.7,7,11.4,10.7c1.7,1.7,2.7,3.9,3.4,6.2
			C535.6,1983.2,536.1,1984.9,536.6,1986.6C536.7,1986.6,536.6,1986.6,536.6,1986.6z"/>
		<path class="st11" d="M438.4,1940.3c1.7,0,3.4,0.1,5.1,0c0.7,0,1.5-0.2,2.2-0.3c0.4,0.2,0.7,0.3,1.1,0.5c-0.9,0.3-1.8,0.7-2.7,1
			c-0.9,0.4-2.1,0.6-2.4,1.3c-0.7,1.5-1,3.2-1.4,4.8c0,0.1,0,0.2,0.1,0.2c1.6,1.2,2.7,3,4.9,3.1c4.3,0.2,8.6,0.3,12.9,0.5
			c3.2,0.1,6.4-0.2,9.5,0.8c1.8,0.6,3.6,1.1,5.4,1.5c2.8,0.5,5.6,0.9,8.4,1.3c1.1,0.1,1.7-0.6,1.3-1.6c-0.5-1.5-1.2-3-1.9-4.5
			c0.3,0.1,0.6,0.1,0.9,0.3c1.9,1.6,3.6,3.2,5.5,4.7c0.8,0.6,1.7,1,2.5,1.5c0.3,0.9,0.5,1.8,0.8,2.7c0.6,2,0.4,3-1.5,3.6
			c-2.1,0.7-4.1,1.5-6.5,1.4c-2.9-0.2-5-1.7-7.2-3.2c-3.4-2.4-6.7-5.1-10.7-6.5c-1.9-0.7-4.1-0.6-6.2-0.7c-1.7-0.1-3.5,0.1-5.2,0.3
			c-2.1,0.2-4.1,0.4-6.2,0.5c-2.8,0.2-5.5,0.4-8.3,0.6c-1.9,0.1-3.8,0.2-5.7-0.1c-2.3-0.4-3-1.5-2-3.3c1.2-2.1,2.5-4.2,3.4-6.4
			C435.2,1942.2,436.6,1941.1,438.4,1940.3z"/>
		<path class="st10" d="M312.6,2005.1c0,0.3-0.1,0.5-0.1,0.8C312.5,2005.6,312.6,2005.3,312.6,2005.1z"/>
		<path class="st9" d="M445.4,1936.4c-1.2-0.2-2.4-0.3-3.5-0.5c-0.3-0.2-0.6-0.5-0.9-0.7c-2.1-0.8-3-2.2-2.3-4.4
			c0.6-1.8,1.6-3.5,2.4-5.3c0.4-0.9,0.8-1.8,1.3-2.5c1.1-1.7,2.3-3.4,3.6-5.1c1.9-2.7,4-5.3,5.9-8c2-2.8,4.5-4.9,7.6-6.2
			c3.5-1.5,7.2-1.7,11-1.4c10.4,0.8,20.1,4,29.1,8.9c3.6,2,6.8,4.8,10,7.5c2.3,2,4.4,4.2,6.4,6.6c2.4,2.9,2.4,3,0.3,6.1
			c-1.9,2.8-3.4,5.8-4.6,9c-0.7,1.8-2,3-3.3,4.3c-2.4,2.3-4.7,4.6-7.7,6.1c-1.2,0.6-2.6,1-3.8,1.6c-1-0.3-1.9-0.6-2.9-0.9
			c4.2-1.1,8.1-2.8,11.3-5.9c1.3-1.3,2.6-2.6,3.7-4c1.2-1.7,2.1-3.7,3.2-5.6c0.6-1,1.1-2,1.7-2.9c0.1,0,0.2,0,0.2,0
			c1.7-0.9,2.7-2.8,2.1-4c-1-1.8-1.9-3.7-3.3-5.2c-1.8-2.1-3.9-4-6-5.8c-3.1-2.6-6.3-5.3-10.1-6.9c-5.5-2.4-11-4.6-17-5.7
			c-5.7-1-11.5-1.9-17.2-0.1c-1.7,0.5-3.6,1.2-4.9,2.3c-2.5,2.2-4.6,4.7-6.9,7.1c-1.6,1.7-3.1,3.5-4.6,5.3c-0.6,0.8-1.3,1.5-1.8,2.3
			c-0.5,0.9-0.9,1.9-1.4,2.8c-1,1.9-2.1,3.7-2.4,5.8c-0.1,0.9,0.1,1.6,0.8,2.3c1.1,1.1,2.5,1.5,4,1.7c0.2,0.5,0.3,0.9,0.5,1.4
			C445.7,1936.3,445.6,1936.4,445.4,1936.4z"/>
		<path class="st19" d="M480.7,1948.8c0.6,1.5,1.3,3,1.9,4.5c0.4,1.1-0.2,1.8-1.3,1.6c-2.8-0.3-5.6-0.7-8.4-1.3
			c-1.8-0.3-3.6-0.9-5.4-1.5c-3.1-1-6.3-0.7-9.5-0.8c-4.3-0.1-8.6-0.3-12.9-0.5c-2.2-0.1-3.4-2-4.9-3.1c-0.1,0-0.1-0.2-0.1-0.2
			c0.4-1.6,0.7-3.3,1.4-4.8c0.3-0.7,1.6-0.9,2.4-1.3c0.9-0.4,1.8-0.7,2.7-1c1.6-1,3.3-0.5,4.9-0.3c4.8,0.4,9.6,0.9,14.3,1.8
			c3.6,0.7,7,2,10.4,3.4C478,1946.1,479.3,1947.6,480.7,1948.8z"/>
		<path class="st18" d="M445.9,1936.3c-0.2-0.5-0.3-0.9-0.5-1.4c0-0.1,0-0.2,0-0.2c1.8,0.3,3.6,0.6,5.4,0.9
			c4.1,0.7,8.2,1.2,12.2,2.1s8,2,12,3.2c2.5,0.7,4.9,1.6,7.3,2.7c1.6,0.8,3,2.1,4.4,3.1c0.1,0.3,0.1,0.6,0.2,0.9
			c-1-0.5-2.1-1-3.1-1.5c-2.8-1.7-5.8-2.9-9-3.7c-3.2-0.8-6.3-2-9.5-2.6c-4.6-0.9-9.3-1.5-14-2.3
			C449.4,1937.1,447.7,1936.7,445.9,1936.3z"/>
		<path class="st10" d="M486.8,1947.6c-0.1-0.3-0.1-0.6-0.2-0.9c1,0.4,2.1,0.6,3.1,1.1c3.2,1.8,8.5,1.4,11.5-0.8
			c3.2-2.3,5.9-4.9,7.7-8.3c0.5-0.9,1.1-1.9,1.8-2.7c0.9-1.1,2-2,3-3c-0.6,1-1.1,2-1.7,2.9c-1,1.9-2,3.8-3.2,5.6
			c-1,1.5-2.4,2.8-3.7,4c-3.2,3.1-7.1,4.8-11.3,5.9c-0.7-0.1-1.6,0-2.2-0.4C490.1,1950,488.5,1948.8,486.8,1947.6z"/>
		<path class="st20" d="M309.3,2019.9c0-0.1,0-0.2,0-0.2c0.4-0.8,0.9-1.5,1.1-2.3c1.1-4,2.1-8,3.2-12.1c0.1-0.3,0.3-0.5,0.4-0.8
			c0.1,0.2,0.2,0.4,0.2,0.6c-0.2,1.1-0.5,2.2-0.8,3.3c-1.6,5.6-3.2,11.2-4.9,16.8c-0.3,1.1-0.5,2.2,0.5,3.2c0.3,0.3,0.4,0.9,0.6,1.4
			c0.8,2.8,1.5,5.6,2.4,8.3c2.7,7.8,7.9,13.7,14.8,18.1c1.1,0.7,2.3,1.7,3.8,1.4c2.2-0.4,4.3-0.8,6.5-1.3c0.4-0.1,1-0.4,1.1-0.7
			c1.1-2.8,2.6-5.5,3-8.7c0.3-3,0.8-5.9,1.4-8.9c1-5.4,2.2-10.8,3.1-16.2c0.8-4.5,1.5-9,2.2-13.4c1.2-7.7,2.6-15.5,3.6-23.3
			c0.8-6.3,1-12.6,1.5-18.9c0.5-0.8,1-1.5,1.5-2.3c0.3-0.3,0.5-0.6,0.8-0.9c0.5-0.3,1-0.7,1.5-1c0.1-0.1,0.3-0.2,0.4-0.3
			c0.5-0.2,0.9-0.3,1.4-0.5c0,0.1,0,0.2,0,0.2c-1.5,0.8-2.7,1.9-3.4,3.5c-0.4,0.9-0.8,1.9-0.9,2.9c-0.3,4.4-0.3,8.8-0.9,13.1
			c-1.6,12-3.5,24-5.3,36c-1.4,9.1-2.8,18.2-4.2,27.4c-0.4,2.7-0.4,5.6-0.8,8.3c-0.2,1.6-1,3.1-1.4,4.6c-0.6,2.4-2.3,3.4-4.5,4
			c-1.9,0.5-3.7,1.6-5.8,1.3c-3.1-0.4-5.8-1.7-8.2-3.6c-4.1-3.2-7.4-7.1-9.9-11.7c-2.1-3.9-3.8-7.9-4.8-12.3c-0.4-2-1.2-4-1.6-6
			c-0.2-0.7-0.1-1.6,0.1-2.3c0.4-1.6,0.9-3.1,1.4-4.7c0-0.1,0-0.2,0-0.2c0.1-0.3,0.2-0.5,0.3-0.8c0-0.2,0.1-0.3,0.1-0.5
			C309,2020.3,309.1,2020.1,309.3,2019.9z"/>
		<path class="st21" d="M353,1966.3c-0.5,6.3-0.7,12.6-1.5,18.9c-1,7.8-2.3,15.5-3.6,23.3c-0.7,4.5-1.4,9-2.2,13.4
			c-1,5.4-2.1,10.8-3.1,16.2c-0.5,2.9-1,5.9-1.4,8.9c-0.4,3.1-1.9,5.8-3,8.7c-0.1,0.3-0.7,0.6-1.1,0.7c-2.1,0.5-4.3,0.9-6.5,1.3
			c-1.6,0.3-2.7-0.7-3.8-1.4c-6.9-4.4-12.1-10.2-14.8-18.1c-0.9-2.7-1.6-5.6-2.4-8.3c-0.1-0.5-0.2-1.1-0.6-1.4c-1-1-0.8-2.1-0.5-3.2
			c1.6-5.6,3.3-11.2,4.9-16.8c0.3-1.1,0.5-2.2,0.8-3.3c0-0.2-0.1-0.4-0.2-0.6c0-0.3,0.1-0.5,0.1-0.8c0.3-0.2,0.6-0.4,0.8-0.7
			c-0.3,1.5-0.5,3.1-0.9,4.6c-1.3,5.2-2.8,10.4-4.1,15.6c-0.3,1.4-1,2.7,0.3,4.2c0.9,1.2,1.1,2.9,1.5,4.5c1.3,5.2,3.2,10.2,7.1,14
			c2.5,2.5,5.3,4.8,8.1,7c0.6,0.5,1.7,0.7,2.6,0.7c2,0,4-0.2,5.9-0.1c0.9,0,1.3-0.3,1.5-1c0.6-1.5,1.1-2.9,1.6-4.4
			c0.6-1.8,1.3-3.7,1.8-5.6c0.7-2.9,1.2-5.8,1.8-8.6c0.8-4,1.8-8,2.5-12c0.9-4.5,1.6-9.1,2.3-13.6c1.2-7.7,2.6-15.3,3.6-23
			c0.7-5.5,1-11.1,1.5-16.6C352.2,1967.9,352,1966.8,353,1966.3z"/>
		<path class="st20" d="M314.9,2003.1c-0.3,0.2-0.6,0.4-0.8,0.7c0.3-1.8,0.6-3.5,0.9-5.3c0.6-3.4,0.9-6.9,0.3-10.3
			c-0.4-2.1-1.3-4.1-2-6.2c-0.6-1.7-1.2-3.4-1.6-5.1c-0.8-3-1.7-6-2.3-9c-0.8-4-1.6-8.1-0.5-12.2c0.7-2.4,1.3-5,2.4-7.2
			c0.7-1.4,2.2-2.6,3.5-3.6c3.5-2.8,7.6-4.7,11.8-6.2c4.1-1.5,8.2-2.8,12.3-4c3.5-1,7.1-1.7,10.6-2.4c1.7-0.3,3.5-0.6,5.3-0.6
			c4.6,0,9,0.9,13.3,2.8c4.9,2.2,8,6.1,10.2,10.8c1.5,3.3,2,6.9,2.4,10.5c0.3,3.4-1.1,4.5-4.8,4c-0.5-0.1-1.1-0.3-1.6-0.5
			c0.4-0.1,0.8-0.2,1.2-0.2c0.2,0,0.3-0.1,0.5-0.1c0.9-0.1,1.8-0.1,2.6-0.4c0.3-0.1,0.5-0.7,0.8-1c0-0.1,0-0.2,0-0.2
			c0.1-0.5,0.3-1,0.4-1.6c0-0.2-0.1-0.5-0.1-0.7c0-0.1,0.2-0.3,0.1-0.4c-0.7-2.7-1.1-5.5-2.2-8c-1.6-3.9-4-7.4-7.6-9.8
			c-4.4-2.9-9.4-4.4-14.8-4.2c-2.6,0.1-5.3,0.7-7.9,1.1c-0.2,0-0.4,0.2-0.6,0.3c-0.2,0-0.3,0.1-0.5,0.1c-0.6,0.1-1.2,0-1.8,0.2
			c-2.2,0.6-4.5,1.1-6.7,1.8c-2.1,0.6-4.1,1.2-6.1,1.9c-2.4,0.9-4.7,1.9-7,3c-2.2,1.1-4.7,1.9-6.4,3.8c-1.2,1.4-2.5,2.7-3.7,4.1
			c-0.8,0.9-1.8,1.8-2.1,2.9c-0.9,3.1-2.2,6.1-1.8,9.4c0.1,1.1,0,2.2,0.1,3.3c0.2,2.6,0.3,5.3,0.9,7.9c0.5,2.6,1.4,5.1,2.2,7.7
			c0.3,0.8,0.8,1.6,1.2,2.4c0,0.2,0.1,0.3,0.1,0.5c0,0.3-0.1,0.7,0,1c0.3,1.2,0.6,2.4,1,3.7c0.1,0.4,0.3,0.8,0.5,1.2
			c0,0.3,0,0.7,0,1c0,0.2-0.1,0.3-0.1,0.5c0.1,1.2,0.2,2.4,0.2,3.6c-0.2,0.7-0.4,1.4-0.6,2.1c-0.1,0.9-0.1,1.8-0.2,2.7
			c-0.1,0.2-0.2,0.4-0.4,0.6c0,0.2,0.1,0.5,0.1,0.7c-0.1,0.2-0.2,0.4-0.4,0.6c0,0.2,0.1,0.5,0.1,0.7c-0.1,0.2-0.2,0.4-0.4,0.6
			C314.9,2002.3,314.9,2002.7,314.9,2003.1z"/>
		<path class="st21" d="M371.4,1958.9c-1.2,0-2.4-0.1-3.6,0c-2,0.2-4,0.6-6,0.9l0,0c0-0.2-0.1-0.5-0.1-0.7c0.2,0,0.5-0.1,0.7-0.1
			c0.5,0.2,1,0.3,1.1-0.5c0.4-0.1,0.8-0.2,1.2-0.2c0.4,0.7,0.8,0.4,1.2,0c1.9,0.1,3.8,0.2,5.7,0.3
			C371.5,1958.7,371.4,1958.8,371.4,1958.9z"/>
		<path class="st20" d="M371.4,1958.9c0.1-0.1,0.1-0.2,0.2-0.3c0.6,0,1.2,0.1,1.7,0.1c0.1,0.2,0.3,0.4,0.4,0.7
			C372.9,1959.3,372.1,1959.1,371.4,1958.9z"/>
		<path class="st21" d="M373.7,1959.4c-0.1-0.2-0.3-0.4-0.4-0.7c0.6-0.1,1.3-0.3,1.9-0.4c0,0.2,0.1,0.5,0.1,0.7
			c-0.4,0.1-0.8,0.2-1.2,0.2C374,1959.4,373.8,1959.4,373.7,1959.4z"/>
		<path class="st20" d="M360.4,1960.4c-0.1,0.1-0.3,0.2-0.4,0.3c0-0.2-0.1-0.3-0.1-0.5c0.2,0,0.3-0.1,0.5-0.1
			C360.4,1960.3,360.4,1960.3,360.4,1960.4z"/>
		<path class="st21" d="M358.7,1961.5c0-0.1,0-0.2,0-0.2c0.1-0.2,0.3-0.4,0.4-0.6c0,0.2,0.1,0.5,0.1,0.7
			C359,1961.4,358.8,1961.5,358.7,1961.5z"/>
		<path class="st20" d="M359.1,1961.4c0-0.2-0.1-0.5-0.1-0.7c0.2,0,0.3-0.1,0.5-0.1c0,0.1,0,0.2,0,0.2
			C359.4,1961,359.3,1961.2,359.1,1961.4z"/>
		<path class="st21" d="M360.4,1960.4c0-0.1,0-0.2,0-0.2c0.1-0.1,0.1-0.2,0.2-0.3c0.2,0,0.3-0.1,0.5-0.1c0,0.1,0,0.2,0,0.2
			c0,0.1,0,0.2,0,0.2C360.9,1960.3,360.6,1960.4,360.4,1960.4z"/>
		<path class="st20" d="M361.1,1960.3c0-0.1,0-0.2,0-0.2c0.2,0,0.5-0.1,0.7-0.1l0,0C361.5,1960,361.3,1960.2,361.1,1960.3z"/>
		<path class="st21" d="M359.5,1960.8c0-0.1,0-0.2,0-0.2c0.1-0.1,0.3-0.2,0.4-0.3c0,0.2,0.1,0.3,0.1,0.5
			C359.8,1960.8,359.7,1960.8,359.5,1960.8z"/>
		<path class="st17" d="M308.7,2021c-0.1,0.3-0.2,0.5-0.3,0.8c0-0.2-0.1-0.3-0.1-0.5C308.5,2021.2,308.6,2021.1,308.7,2021z"/>
		<path class="st17" d="M309.3,2019.9c-0.1,0.2-0.2,0.4-0.4,0.6C309,2020.3,309.1,2020.1,309.3,2019.9z"/>
		<path class="st14" d="M513.8,1933.1c-1,1-2.1,1.9-3,3c-0.7,0.8-1.3,1.7-1.8,2.7c-1.9,3.4-4.6,6.1-7.7,8.3c-3,2.1-8.3,2.5-11.5,0.8
			c-0.9-0.5-2-0.8-3.1-1.1c-1.5-1.1-2.8-2.4-4.4-3.1c-2.3-1.1-4.8-1.9-7.3-2.7c-4-1.2-7.9-2.3-12-3.2c-4-0.9-8.2-1.4-12.2-2.1
			c-1.8-0.3-3.6-0.6-5.4-0.9c-0.3-0.4-0.6-0.9-1-1.1c-2.1-1.6-2.5-2.3-1.5-4.8c0.8-1.9,1.8-3.8,2.8-5.7c0.4-0.8,0.7-1.7,1.3-2.4
			c3.1-3.1,6.2-6.1,9.3-9.1c2.8-2.6,5.9-4.7,9.8-5.1c2.6-0.2,5.2-0.3,7.8-0.2c5.1,0.2,10.1,1.4,14.9,3.1c4.3,1.4,8.6,3,12.2,5.8
			c3.7,2.8,7.4,5.7,10.4,9.3c1.9,2.4,4,5,2.6,8.5C513.9,1933,513.9,1933.1,513.8,1933.1z M479.6,1941c0.1,0.1,0.2,0.3,0.3,0.4
			c3.7,1.8,7.5,3.7,11.2,5.5c0.5,0.2,0.9,0.5,1.4,0.5c4.3,0.4,7.8-1.7,10.6-4.5c2.6-2.6,4.8-5.5,7.1-8.4c0.7-0.9,1.6-1.8,1.4-3.2
			c-0.3-2.2-0.9-4.3-2.4-5.9c-2.4-2.6-5-5-7.7-7.3c-1.6-1.4-3.3-2.8-5.2-3.7c-4.9-2.5-10.1-4.1-15.5-5c-4.3-0.7-8.6-0.9-12.8-0.5
			c-3.5,0.3-6.6,2.1-9.3,4.2c-3.1,2.4-6.1,5-9.2,7.5c-0.4,0.3-0.8,0.8-1.1,1.3c-0.9,1.6-1.8,3.3-2.7,4.9c-1.1,2-1.4,4.5,0.4,5.5
			c1.4,0.8,3.1,0.9,4.7,1.3c2.4,0.7,4.7,1.4,7.1,2c3.9,1,7.8,2,11.7,2.9C473,1939.3,476.3,1940.1,479.6,1941z"/>
		<path class="st10" d="M514,1933c1.4-3.5-0.7-6.2-2.6-8.5c-2.9-3.6-6.6-6.5-10.4-9.3c-3.7-2.8-8-4.3-12.2-5.8
			c-4.8-1.6-9.8-2.9-14.9-3.1c-2.6-0.1-5.2,0-7.8,0.2c-3.9,0.4-7,2.4-9.8,5.1c-3.1,3-6.3,6-9.3,9.1c-0.6,0.6-0.9,1.6-1.3,2.4
			c-0.9,1.9-2,3.7-2.8,5.7c-1,2.5-0.7,3.3,1.5,4.8c0.4,0.3,0.7,0.8,1,1.1c0,0.1,0,0.2,0,0.2c-1.5-0.2-2.9-0.6-4-1.7
			c-0.7-0.7-0.9-1.3-0.8-2.3c0.3-2.2,1.4-3.9,2.4-5.8c0.5-0.9,0.8-1.9,1.4-2.8c0.5-0.8,1.2-1.6,1.8-2.3c1.5-1.8,3-3.6,4.6-5.3
			c2.2-2.4,4.4-4.9,6.9-7.1c1.3-1.1,3.2-1.8,4.9-2.3c5.7-1.8,11.5-0.9,17.2,0.1c5.9,1.1,11.5,3.3,17,5.7c3.8,1.7,7,4.3,10.1,6.9
			c2.1,1.8,4.2,3.7,6,5.8c1.3,1.5,2.3,3.4,3.3,5.2C516.7,1930.3,515.7,1932.1,514,1933z"/>
		<path class="st22" d="M359.9,1960.3c-0.1,0.1-0.3,0.2-0.4,0.3c-0.2,0-0.3,0.1-0.5,0.1c-0.1,0.2-0.3,0.4-0.4,0.6
			c-0.5,0.2-0.9,0.3-1.4,0.5c-0.1,0.1-0.3,0.2-0.4,0.3c-0.5,0.3-1,0.7-1.5,1c-0.3,0.3-0.5,0.6-0.8,0.9c-0.5,0.8-1,1.5-1.5,2.3
			c-1,0.5-0.9,1.6-0.9,2.4c-0.5,5.5-0.8,11.1-1.5,16.6c-1,7.7-2.4,15.3-3.6,23c-0.7,4.6-1.5,9.1-2.3,13.6c-0.8,4-1.7,8-2.5,12
			c-0.6,2.9-1.1,5.8-1.8,8.6c-0.5,1.9-1.1,3.7-1.8,5.6c-0.5,1.5-1.1,2.9-1.6,4.4c-0.3,0.7-0.7,1-1.5,1c-2,0-4,0.2-5.9,0.1
			c-0.9,0-1.9-0.2-2.6-0.7c-2.8-2.2-5.6-4.5-8.1-7c-3.9-3.9-5.8-8.8-7.1-14c-0.4-1.5-0.6-3.3-1.5-4.5c-1.2-1.5-0.6-2.8-0.3-4.2
			c1.3-5.2,2.7-10.4,4.1-15.6c0.4-1.5,0.6-3,0.9-4.6c0-0.4,0-0.8,0-1.2c0.1-0.2,0.2-0.4,0.4-0.6c0-0.2-0.1-0.5-0.1-0.7
			c0.1-0.2,0.2-0.4,0.4-0.6c0-0.2-0.1-0.5-0.1-0.7c0.1-0.2,0.2-0.4,0.4-0.6c0.1-0.9,0.1-1.8,0.2-2.7c0.2-0.7,0.4-1.4,0.6-2.1
			c-0.1-1.2-0.2-2.4-0.2-3.6c0-0.2,0.1-0.3,0.1-0.5c0-0.3,0-0.7,0-1c0.1-2.1-0.5-4-1.4-5.8c0-0.2-0.1-0.3-0.1-0.5
			c-0.2-0.6-0.3-1.1-0.5-1.7c-0.8-2.9-1.8-5.7-2.3-8.6c-0.5-3.1-0.6-6.3-0.7-9.5c-0.2-4.5,0.2-8.9,3.3-12.6c2.4-2.8,4.7-5.7,8.2-7.6
			c4.6-2.4,9.3-4.5,14.3-5.9c2.6-0.7,5.2-1.2,7.8-1.9c0.4-0.1,0.7-0.4,1.1-0.7c0.2,0,0.3-0.1,0.5-0.1c0.3,0,0.5,0.1,0.8,0.1
			c2.8,0.1,5.5-1.4,8.4-0.8c1.7,0.4,3.5,0.3,5.2,0.5c0.2,0,0.4,0.2,0.6,0.3c-0.5,0-1,0.1-1.4,0c-4-0.8-7.9,0-11.7,0.8
			c-4.1,0.8-8,1.9-12,3.1c-2.6,0.8-5.1,1.8-7.5,3s-4.7,2.6-7,4c-1,0.6-1.9,1.4-2.6,2.3c-1.7,2.2-3.3,4.6-4.8,6.9
			c-0.6,0.9-1.1,2.1-1.1,3.2c-0.3,5.6-0.9,11.3,0.7,16.9c0.8,2.7,1.1,5.6,2,8.2c1.3,4,1.6,8,1,12.1c-0.2,1.4-0.5,2.8-0.8,4.2
			c-0.6,3.1-1.2,6.3-1.9,9.4c-1.1,4.7-2.3,9.3-3.4,13.9c-0.2,1-0.6,2.4-0.2,3.1c1.4,2.3,1.6,5,2.6,7.4c0.9,2.1,1.4,4.4,2.7,6.2
			c2.3,3,5.1,5.7,7.7,8.4c1.9,2.1,4.4,2.7,7.1,2.5c1.2-0.1,2.5,0.1,3.7-0.1c0.5-0.1,1.2-0.6,1.4-1c1-2.3,2-4.7,2.8-7.1
			c0.7-1.9,1.2-3.8,1.7-5.7c0.4-1.5,0.6-3,0.9-4.6c0.7-3.5,1.6-6.9,2.2-10.4c0.8-4.2,1.3-8.4,2-12.6c0.3-1.5,0.8-3,1.1-4.6
			c0.6-2.9,1.2-5.9,1.6-8.8c1-7.4,1.8-14.9,2.7-22.3c0.2-1.9-0.1-3.9,0.5-5.5c1.4-4,4.7-6.2,8.6-7.7c0.1,0,0.3,0.1,0.4,0.1
			c-0.1,0.1-0.1,0.2-0.2,0.3C360.2,1960.2,360,1960.2,359.9,1960.3z"/>
		<path class="st21" d="M354.5,1964.1c0.3-0.3,0.5-0.6,0.8-0.9C355.1,1963.5,354.8,1963.8,354.5,1964.1z"/>
		<path class="st21" d="M356.8,1962.1c0.1-0.1,0.3-0.2,0.4-0.3C357.1,1961.9,357,1962,356.8,1962.1z"/>
		<path class="st21" d="M346,1934.2c-0.4,0.2-0.7,0.6-1.1,0.7c-2.6,0.6-5.2,1.1-7.8,1.9c-5,1.4-9.7,3.5-14.3,5.9
			c-3.5,1.8-5.7,4.7-8.2,7.6c-3.1,3.6-3.5,8.1-3.3,12.6c0.1,3.2,0.2,6.4,0.7,9.5c0.5,2.9,1.5,5.8,2.3,8.6c0.2,0.6,0.3,1.1,0.5,1.7
			c-0.4-0.8-0.9-1.5-1.2-2.4c-0.8-2.5-1.7-5.1-2.2-7.7s-0.6-5.3-0.9-7.9c-0.1-1.1,0-2.2-0.1-3.3c-0.4-3.3,0.9-6.4,1.8-9.4
			c0.3-1.1,1.3-2,2.1-2.9c1.2-1.4,2.5-2.7,3.7-4.1c1.7-2,4.2-2.7,6.4-3.8c2.3-1.1,4.6-2.1,7-3c2-0.8,4.1-1.3,6.1-1.9
			c2.2-0.6,4.4-1.2,6.7-1.8C344.8,1934.3,345.5,1934.3,346,1934.2z"/>
		<path class="st21" d="M361.5,1934.3c-0.2-0.1-0.4-0.3-0.6-0.3c-1.7-0.2-3.5-0.1-5.2-0.5c-2.9-0.7-5.6,0.9-8.4,0.8
			c-0.3,0-0.5-0.1-0.8-0.1c0.2-0.1,0.4-0.3,0.6-0.3c2.6-0.4,5.3-1,7.9-1.1c5.3-0.2,10.3,1.3,14.8,4.2c3.6,2.3,6,5.8,7.6,9.8
			c1,2.6,1.5,5.3,2.2,8c0,0.1-0.1,0.3-0.1,0.4c-0.2-0.4-0.4-0.8-0.5-1.3c-0.6-2.1-1-4.4-1.8-6.4c-1.5-3.9-4-7.1-7.3-9.7
			c-0.9-0.7-2.1-1.1-3.1-1.6c-0.6-0.3-1.3-0.6-1.9-0.8c-0.2,0-0.3-0.1-0.5-0.1c-0.1,0-0.2,0-0.2,0c-0.4-0.2-0.9-0.3-1.3-0.5
			S361.9,1934.4,361.5,1934.3z"/>
		<path class="st22" d="M366.8,1936.1c1,0.5,2.2,0.9,3.1,1.6c3.3,2.5,5.8,5.8,7.3,9.7c0.8,2.1,1.2,4.3,1.8,6.4
			c0.1,0.4,0.3,0.9,0.5,1.3c0,0.2,0.1,0.5,0.1,0.7c-0.1,0.5-0.3,1-0.4,1.6c0,0.1,0,0.2,0,0.2c-0.8,0.3-1.6,0.7-2.5,1
			c-0.3,0.1-0.6,0.3-0.9,0.4c-0.2,0-0.3,0.1-0.5,0.1c0-0.2-0.1-0.5-0.1-0.7c0.3-0.1,0.5-0.1,0.8-0.2c1.8-0.4,2.7-1.5,2.4-3.4
			c-0.4-1.9-0.7-3.8-1.4-5.6c-1.8-5-4.7-9.1-9.2-12.1C367.4,1936.9,367.1,1936.5,366.8,1936.1z"/>
		<path class="st21" d="M315,1983c0.9,1.8,1.5,3.8,1.4,5.8c-0.2-0.4-0.4-0.8-0.5-1.2c-0.3-1.2-0.7-2.4-1-3.7
			C314.9,1983.7,315,1983.4,315,1983z"/>
		<path class="st21" d="M375.8,1959c0.3-0.1,0.6-0.3,0.9-0.4c0.8-0.3,1.6-0.7,2.5-1c-0.2,0.4-0.4,0.9-0.8,1
			C377.6,1958.9,376.7,1958.9,375.8,1959z"/>
		<path class="st21" d="M316.5,1994c-0.2,0.7-0.4,1.4-0.6,2.1C316.1,1995.4,316.3,1994.7,316.5,1994z"/>
		<path class="st21" d="M379.1,1957.4c0.1-0.5,0.3-1,0.4-1.6C379.4,1956.3,379.3,1956.8,379.1,1957.4z"/>
		<path class="st21" d="M315.8,1998.8c-0.1,0.2-0.2,0.4-0.4,0.6C315.5,1999.2,315.6,1999,315.8,1998.8z"/>
		<path class="st21" d="M315.5,2000.1c-0.1,0.2-0.2,0.4-0.4,0.6C315.3,2000.4,315.4,2000.3,315.5,2000.1z"/>
		<path class="st21" d="M316.4,1989.9c0,0.2-0.1,0.3-0.1,0.5C316.3,1990.2,316.4,1990,316.4,1989.9z"/>
		<path class="st21" d="M315.3,2001.3c-0.1,0.2-0.2,0.4-0.4,0.6C315,2001.7,315.2,2001.5,315.3,2001.3z"/>
		<path class="st23" d="M366.8,1936.1c0.3,0.3,0.6,0.7,1,1c4.5,2.9,7.4,7.1,9.2,12.1c0.7,1.8,1,3.7,1.4,5.6s-0.5,3-2.4,3.4
			c-0.3,0.1-0.5,0.1-0.8,0.2c-0.6,0.1-1.3,0.3-1.9,0.4c-0.6,0-1.2-0.1-1.7-0.1c-1.9-0.1-3.8-0.2-5.7-0.3c0-0.1,0-0.2,0-0.2
			c0.2-0.2,0.4-0.4,0.6-0.6c0.2,0,0.5-0.1,0.7-0.1c0.3,0,0.5,0.1,0.8,0.1c0.2,0,0.3-0.1,0.5-0.1c0.3,0,0.7,0,1,0
			c0.2,0,0.3-0.1,0.5-0.1c0.1,0.1,0.3,0.3,0.4,0.4c1.2,0.1,2.4,0.2,3.7,0.2c2,0.1,3.8-1.3,3.5-2.9c-0.4-2.2-0.9-4.5-1.7-6.6
			c-1.6-3.9-4.1-7.1-7.4-9.7c-4.2-3.4-8.9-4.3-13.9-3.6c-6.1,0.8-12,2.4-17.9,4.3c-2.2,0.7-4.4,1.5-6.5,2.6c-2.4,1.2-4.6,2.8-7,4.2
			c-1.2,0.7-2.2,1.5-2.9,2.7c-1.3,2.1-2.8,4.1-4,6.2c-0.7,1.2-1,2.7-1.3,4.1c-0.2,1.1-0.2,2.3-0.2,3.4c-0.1,3.9-0.5,7.8,0.5,11.6
			c0.6,2.2,1.1,4.5,1.6,6.7c0,0.2,0.2,0.4,0.2,0.6c0.5,2.1,1.2,4.1,1.3,6.2c0.3,6.4-1.4,12.5-2.5,18.8c-0.7,4.4-2,8.6-2.9,13
			c-0.4,2.1-1.1,4.2,0.4,6.2c0.1,0.2,0.1,0.5,0.2,0.7c0.8,2.3,1.5,4.6,2.6,6.8c2.1,4.1,5.2,7.5,8.7,10.5c0.6,0.5,1.5,0.9,2.2,0.9
			c2,0.2,4,0.2,6,0.3c1.8,0.1,1.9,0,2.7-1.7c0.1-0.3,0.3-0.7,0.4-1c1.5-3.9,3.7-7.5,4.5-11.7c1.4-6.9,3-13.9,4.3-20.8
			c1.7-9.1,3.9-18.1,4.7-27.4c0.3-4,0.6-8.1,0.9-12.1c0.1-2.1,0.4-4.2,2.1-5.8c0.2-0.2,0.3-0.5,0.4-0.8c0.2-0.2,0.4-0.4,0.6-0.6
			c0.5-0.4,1-0.8,1.5-1.3c0.2-0.2,0.4-0.4,0.6-0.6c0.2-0.1,0.4-0.3,0.7-0.4c0.4-0.1,0.8-0.2,1.2-0.2c0.1-0.2,0.3-0.4,0.4-0.6
			c0.2-0.1,0.4-0.3,0.7-0.4c0.2,0,0.3-0.1,0.5-0.1s0.3,0.1,0.5,0.1c0.1-0.2,0.3-0.4,0.4-0.6c0.2,0,0.5-0.1,0.7-0.1
			c0.2-0.1,0.4-0.3,0.7-0.4c0.2,0,0.5-0.1,0.7-0.1c0.2-0.1,0.4-0.3,0.7-0.4c0.8-0.2,1.6-0.3,2.4-0.5c0,0.2,0.1,0.5,0.1,0.7
			c-0.1,0-0.2,0-0.2,0c-0.4,0.1-0.8,0.2-1.2,0.2c-0.4,0.2-0.8,0.3-1.1,0.5c-0.2,0-0.5,0.1-0.7,0.1c-0.2,0.2-0.4,0.4-0.6,0.6
			c-0.2,0-0.3,0.1-0.5,0.1c-0.1,0-0.3-0.2-0.4-0.1c-3.9,1.4-7.2,3.7-8.6,7.7c-0.6,1.7-0.3,3.7-0.5,5.5c-0.9,7.4-1.7,14.9-2.7,22.3
			c-0.4,3-1,5.9-1.6,8.8c-0.3,1.5-0.9,3-1.1,4.6c-0.7,4.2-1.3,8.4-2,12.6c-0.6,3.5-1.5,6.9-2.2,10.4c-0.3,1.5-0.5,3.1-0.9,4.6
			c-0.5,1.9-1,3.8-1.7,5.7c-0.9,2.4-1.8,4.8-2.8,7.1c-0.2,0.5-0.9,1-1.4,1c-1.2,0.2-2.5,0-3.7,0.1c-2.8,0.2-5.2-0.5-7.1-2.5
			c-2.6-2.8-5.4-5.4-7.7-8.4c-1.3-1.7-1.8-4.1-2.7-6.2c-1-2.4-1.2-5.1-2.6-7.4c-0.4-0.7-0.1-2.1,0.2-3.1c1.1-4.7,2.3-9.3,3.4-13.9
			c0.7-3.1,1.3-6.2,1.9-9.4c0.3-1.4,0.6-2.8,0.8-4.2c0.6-4.1,0.3-8.1-1-12.1c-0.9-2.7-1.2-5.5-2-8.2c-1.6-5.6-1.1-11.2-0.7-16.9
			c0.1-1.1,0.5-2.3,1.1-3.2c1.5-2.4,3.1-4.7,4.8-6.9c0.7-0.9,1.6-1.7,2.6-2.3c2.3-1.4,4.6-2.9,7-4c2.4-1.2,4.9-2.2,7.5-3
			c4-1.2,7.9-2.3,12-3.1c3.8-0.7,7.7-1.5,11.7-0.8c0.5,0.1,0.9,0,1.4,0c0.4,0.2,0.9,0.3,1.3,0.5s0.9,0.3,1.3,0.5c0.1,0,0.2,0,0.2,0
			c0.2,0,0.3,0.1,0.5,0.1C365.5,1935.6,366.1,1935.9,366.8,1936.1z"/>
		<path class="st22" d="M362.3,1959.1c0.4-0.2,0.8-0.3,1.1-0.5C363.3,1959.4,362.9,1959.3,362.3,1959.1z"/>
		<path class="st22" d="M365.8,1958.1c0,0.1,0,0.2,0,0.2c-0.4,0.4-0.8,0.7-1.2,0c0.1,0,0.2,0,0.2,0
			C365.2,1958.2,365.5,1958.2,365.8,1958.1z"/>
		<path class="st22" d="M361,1959.8c0.2-0.2,0.4-0.4,0.6-0.6c0,0.2,0.1,0.5,0.1,0.7c-0.2,0-0.5,0.1-0.7,0.1
			C361,1960,361,1959.9,361,1959.8z"/>
		<path class="st20" d="M479.6,1941c-3.3-0.8-6.6-1.6-9.9-2.5c-3.9-1-7.8-1.9-11.7-2.9c-2.4-0.6-4.7-1.3-7.1-2
			c0.7-1.1-0.5-1.3-1-1.7c-1.5-1.3-1.8-3.4-0.8-5c0.9-1.4,1.6-2.9,2.5-4.4c0.5-0.8,1.1-1.6,1.8-2.2c0.8-0.8,1.8-1.4,2.8-2.1
			c2.9-2.1,5.9-4,9.4-5c1.8-0.5,3.5-1.3,5.3-1.6c2-0.4,4-0.8,6-0.6c3.2,0.3,6.4,1,9.5,1.9c3.5,0.9,7.2,1.8,10.1,4.1
			c2.9,2.3,5.6,4.8,8.4,7.2c2.5,2.1,2.8,4.7,1.8,7.7c-0.3,0.8-0.4,1.5-0.6,2.3c-0.7,2.2-1.7,4.3-3.5,5.9c-0.6,0.5-1.2,1-1.7,1.5
			c-1.6,1.8-3.8,2.7-6.1,3.2c-0.6,0.1-1.2,0.2-1.8,0.1c-2.4-0.7-4.8-1.5-7.2-2.2C483.8,1942,481.7,1941.5,479.6,1941z M484.9,1940.2
			c0.4,0.2,0.7,0.5,1.1,0.6c1.8,0.3,3.5,0.6,5.3,0.7c1.3,0,2.8,0,3.8-0.6c1.7-1,3.2-2.4,4.7-3.7c0.3-0.2,0.4-0.7,0.5-1
			c0.4-2.5,0.9-5.1,1.2-7.6c0.1-0.7-0.2-1.5-0.7-2.1c-1.5-1.9-3-3.8-4.6-5.6c-2-2.3-4.5-4-7.5-4.5c-3.4-0.6-6.8-1.1-10.1-1.6
			c-3.3-0.5-6.4,0.1-9.6,1.1c-2.7,0.8-5.2,1.9-7.9,2.7c-2.9,0.9-5.1,2.5-6.3,5.4c-0.5,1.1-1.1,2.2-1.8,3.1c-1,1.1-0.5,2.2-0.1,3.2
			c0.5,1.1,1.3,2,2.7,1.9c0.6,0.3,1.1,0.8,1.7,1c2.6,0.8,5.1,1.5,7.7,2.2c4.8,1.3,9.6,2.7,14.4,4
			C481.1,1939.8,483,1939.9,484.9,1940.2z"/>
		<path class="st17" d="M479.6,1941c2.1,0.5,4.2,1,6.2,1.6c2.4,0.7,4.8,1.5,7.2,2.2c0.5,0.2,1.2,0.1,1.8-0.1
			c2.3-0.5,4.5-1.4,6.1-3.2c0.5-0.6,1.1-1,1.7-1.5c1.8-1.6,2.8-3.7,3.5-5.9c0.2-0.8,0.4-1.6,0.6-2.3c1-2.9,0.7-5.5-1.8-7.7
			c-2.8-2.4-5.5-5-8.4-7.2c-2.9-2.3-6.6-3.1-10.1-4.1c-3.1-0.8-6.3-1.5-9.5-1.9c-1.9-0.2-4,0.2-6,0.6c-1.8,0.4-3.6,1.1-5.3,1.6
			c-3.5,1-6.5,2.9-9.4,5c-0.9,0.7-1.9,1.3-2.8,2.1c-0.7,0.6-1.3,1.4-1.8,2.2c-0.9,1.4-1.6,2.9-2.5,4.4c-1,1.6-0.7,3.7,0.8,5
			c0.5,0.4,1.6,0.6,1,1.7c-1.6-0.4-3.3-0.6-4.7-1.3c-1.9-1-1.5-3.5-0.4-5.5c0.9-1.7,1.8-3.3,2.7-4.9c0.3-0.5,0.6-0.9,1.1-1.3
			c3-2.5,6.1-5,9.2-7.5c2.8-2.2,5.8-3.9,9.3-4.2c4.3-0.4,8.6-0.3,12.8,0.5c5.4,0.9,10.6,2.5,15.5,5c1.9,1,3.6,2.3,5.2,3.7
			c2.7,2.3,5.2,4.8,7.7,7.3c1.5,1.6,2.1,3.7,2.4,5.9c0.2,1.3-0.7,2.3-1.4,3.2c-2.3,2.8-4.5,5.8-7.1,8.4c-2.9,2.8-6.3,4.9-10.6,4.5
			c-0.5,0-1-0.3-1.4-0.5c-3.8-1.8-7.5-3.7-11.2-5.5C479.8,1941.3,479.7,1941.1,479.6,1941z"/>
		<path class="st22" d="M364.1,1935.2c-0.4-0.2-0.9-0.3-1.3-0.5C363.2,1934.9,363.7,1935.1,364.1,1935.2z"/>
		<path class="st22" d="M364.9,1935.3c-0.2,0-0.3-0.1-0.5-0.1C364.5,1935.2,364.7,1935.3,364.9,1935.3z"/>
		<path class="st24" d="M353.3,1963.1c-0.2,0.2-0.4,0.4-0.6,0.6c-2.1,1.3-3.1,3.3-3.4,5.6c-0.3,2.8-0.4,5.7-0.6,8.6
			c-0.6,7.2-1.6,14.3-3.1,21.4c-1.3,6.2-2.5,12.4-3.8,18.6c-1,4.7-1.6,9.5-3.8,13.9c-1.2,2.3-2.2,4.8-3.3,7.1
			c-0.3,0.6-0.4,1.3-1.4,1.2c-2.7-0.2-5.3-0.3-8-0.6c-0.4,0-1-0.3-1.3-0.6c-1.2-1.3-2.4-2.5-3.4-3.9c-1.8-2.6-3.6-5.2-5.2-7.9
			c-1.2-2-2.1-4.1-1.6-6.5c1.3-6.9,2.7-13.8,3.8-20.7c1.1-6.5,2.1-12.9,0.1-19.6c-1.5-5.1-2.6-10.3-2.1-15.8
			c0.3-3.9,1.5-7.4,3.1-10.8c1.3-2.7,3.3-4.9,5.9-6.7c5.4-3.8,11.2-6.4,17.5-8.1c3.9-1.1,7.9-1.8,11.9-2.7c1.3-0.3,2.7-0.4,4-0.3
			c2.7,0.1,5.3,0.5,7.5,2.4c1.1,1,2.4,1.9,3.6,2.8c4.3,3.5,6.4,8.1,7.2,13.5c0.2,1.2-0.5,2-1.5,2.3c-0.8,0.3-1.9,1-2.7-0.1
			c2.5-0.5,2.9-1.2,2.4-3.7c-0.1-0.6-0.3-1.2-0.4-1.8c-0.3-2.5-1.5-4.5-3.2-6.3c-1.7-1.7-3.5-3.3-5.3-4.8c-1-0.8-2-1.7-3.2-2
			c-2.9-0.9-5.8-1.2-8.8-0.3c-2.3,0.7-4.8,0.9-7.1,1.6c-2.8,0.7-5.5,1.6-8.2,2.6c-2.3,0.9-4.7,1.7-6.9,3c-2.9,1.7-5.6,3.9-8.3,5.9
			c-0.5,0.4-1,0.9-1.2,1.4c-1.6,4.6-3.1,9.3-4.7,13.9c-0.2,0.5-0.2,1-0.1,1.5c0.3,2.3,0.7,4.6,1.1,6.8c0.3,1.7,0.3,3.5,0.8,5
			c0.9,2.6,1.3,5.3,1.1,8c-0.6,5.8-1.3,11.6-2.1,17.4c-0.6,4.5-1.5,9-2.2,13.4c-0.3,1.7-0.2,3.3,1.5,4.3c0.3,0.2,0.4,0.5,0.6,0.7
			c1.9,2.9,3.8,5.9,5.7,8.8c0.4,0.7,0.8,1.1,1.7,1.1c2.5,0.2,4.9,0.4,7.4,0.6c0.4,0,1-0.3,1.3-0.7c0.6-0.9,1-1.8,1.5-2.7
			c2.6-5.3,4.5-10.9,5.7-16.7c1.1-5.3,2.1-10.6,3.2-15.9c1.8-8.1,2.7-16.3,3.3-24.6c0.2-2.3,0.1-4.6,1.3-6.7
			c1.1-1.8,2.3-3.4,4.3-4.3l0,0C353.4,1962.7,353.4,1962.9,353.3,1963.1z"/>
		<path class="st25" d="M353.5,1962.6c-2,0.9-3.2,2.5-4.3,4.3c-1.2,2.1-1.1,4.4-1.3,6.7c-0.6,8.3-1.5,16.5-3.3,24.6
			c-1.2,5.3-2.1,10.6-3.2,15.9c-1.2,5.8-3.1,11.4-5.7,16.7c-0.5,0.9-0.9,1.9-1.5,2.7c-0.2,0.4-0.8,0.7-1.3,0.7
			c-2.5-0.1-4.9-0.4-7.4-0.6c-0.8-0.1-1.3-0.5-1.7-1.1c-1.9-3-3.8-5.9-5.7-8.8c-0.2-0.3-0.4-0.6-0.6-0.7c-1.6-1.1-1.7-2.6-1.5-4.3
			c0.7-4.5,1.6-8.9,2.2-13.4c0.8-5.8,1.6-11.6,2.1-17.4c0.3-2.7-0.2-5.4-1.1-8c-0.6-1.6-0.6-3.4-0.8-5c-0.4-2.3-0.8-4.6-1.1-6.8
			c-0.1-0.5-0.1-1.1,0.1-1.5c1.5-4.7,3.1-9.3,4.7-13.9c0.2-0.6,0.7-1.1,1.2-1.4c2.7-2,5.4-4.1,8.3-5.9c2.1-1.3,4.5-2.1,6.9-3
			c2.7-1,5.4-1.8,8.2-2.6c2.4-0.6,4.8-0.8,7.1-1.6c3-0.9,5.9-0.6,8.8,0.3c1.2,0.4,2.2,1.2,3.2,2c1.8,1.5,3.6,3.2,5.3,4.8
			c1.8,1.7,2.9,3.8,3.2,6.3c0.1,0.6,0.2,1.2,0.4,1.8c0.5,2.5,0.1,3.1-2.4,3.7c-0.3,0.1-0.6,0.1-0.9,0.2c-0.7,0-1.3-0.1-2-0.1
			c-0.2,0-0.5,0.1-0.7,0.1c-0.3,0-0.5-0.1-0.8-0.1c-0.2,0-0.5,0.1-0.7,0.1c-0.3,0-0.5-0.1-0.8-0.1c-0.5,0.1-1.1,0.2-1.6,0.3
			c-2.2-0.3-3.8,1.1-5.7,1.7c-0.1,0-0.1,0.3-0.2,0.5c-0.2,0-0.3,0.1-0.5,0.1s-0.5,0.1-0.7,0.1s-0.3,0.1-0.5,0.1
			c-0.3,0.3-0.7,0.6-1,0.9c-0.2,0.1-0.4,0.3-0.7,0.4C354.8,1961.6,354.1,1962.1,353.5,1962.6z M360.3,1957.5
			c1.7-0.4,3.4-0.9,5.1-1.3c0.3,0,0.7,0,1,0c0.2,0,0.5-0.1,0.7-0.1c0.1,0.1,0.3,0.4,0.4,0.4c1.8-0.4,3.6-0.7,5.3-1.2
			c1-0.3,1.1-1.1,0.7-2c-0.3-0.6-0.2-1.3-0.5-1.8c-0.6-1.4-1.2-2.9-2.1-4.1c-1.2-1.5-2.6-2.9-4.1-4.2c-1.6-1.4-2.9-3.3-5.4-3.4
			c-2-0.2-4-1.1-6.1-0.5c-4.5,1.2-9.1,2.4-13.6,3.7c-5,1.5-9.8,3.3-13.5,7.3c-1.9,2.1-4.5,3.7-5.4,6.7c-0.3,0.9-0.7,1.8-1,2.7
			c-1.1,3.2-2.4,6.3-2,9.7c0.1,1,0,2,0.1,3c0.2,2.3,0.5,4.7,0.8,7c0.3,1.8,0.9,3.6,0.9,5.4c-0.2,4.7-0.6,9.4-1,14.1
			c-0.5,5.5-1.1,10.9-1.5,16.4c-0.1,1.3,0.1,2.8,0.7,4c0.9,1.8,2.3,3.3,3.4,5c0.6,0.8,1.3,1.3,2.3,1.6c2.3,0.6,4.5,1.3,6.7,2
			c1.4,0.5,1.7,0.4,2.2-1c0.6-1.4,1.1-2.7,1.6-4.1c1.6-4.6,3.4-9.2,4.7-13.9c1.3-4.7,2.5-9.5,3.2-14.3c1.1-7.2,1.8-14.5,2.6-21.8
			c0.2-2.1,0.2-4.2,1.4-6c1.7-2.5,3.8-4.6,6.5-6.1c0.3-0.2,0.6-0.6,0.8-0.9c0.2,0,0.5-0.1,0.7-0.1c0.1-0.2,0.3-0.4,0.4-0.6
			c0.2,0,0.3-0.1,0.5-0.1c0.3-0.1,0.6-0.1,0.9-0.2c0.2,0,0.5-0.1,0.7-0.1c0.1-0.2,0.3-0.4,0.4-0.6c0.2,0,0.3-0.1,0.5-0.1
			C359.7,1957.8,360,1957.6,360.3,1957.5z"/>
		<path class="st26" d="M371.2,1957c0.3-0.1,0.6-0.1,0.9-0.2c0.9,1.1,1.9,0.4,2.7,0.1c1-0.3,1.6-1.2,1.5-2.3
			c-0.8-5.3-2.8-10-7.2-13.5c-1.2-0.9-2.4-1.8-3.6-2.8c-2.2-1.9-4.8-2.3-7.5-2.4c-1.3,0-2.7,0.1-4,0.3c-4,0.8-8,1.6-11.9,2.7
			c-6.3,1.7-12.1,4.3-17.5,8.1c-2.6,1.9-4.6,4-5.9,6.7c-1.6,3.4-2.8,7-3.1,10.8c-0.5,5.5,0.6,10.7,2.1,15.8c2,6.7,1,13.1-0.1,19.6
			c-1.1,6.9-2.5,13.8-3.8,20.7c-0.5,2.4,0.5,4.6,1.6,6.5c1.6,2.7,3.4,5.3,5.2,7.9c1,1.4,2.2,2.6,3.4,3.9c0.3,0.3,0.8,0.5,1.3,0.6
			c2.7,0.2,5.3,0.3,8,0.6c1,0.1,1.1-0.7,1.4-1.2c1.1-2.4,2.1-4.8,3.3-7.1c2.2-4.4,2.8-9.2,3.8-13.9c1.3-6.2,2.5-12.4,3.8-18.6
			c1.5-7.1,2.5-14.2,3.1-21.4c0.2-2.9,0.3-5.7,0.6-8.6c0.3-2.3,1.3-4.3,3.4-5.6c-0.1,0.3-0.2,0.6-0.4,0.8c-1.7,1.6-2,3.6-2.1,5.8
			c-0.3,4-0.5,8.1-0.9,12.1c-0.8,9.3-3,18.3-4.7,27.4c-1.3,7-2.9,13.9-4.3,20.8c-0.8,4.2-3,7.8-4.5,11.7c-0.1,0.3-0.3,0.7-0.4,1
			c-0.7,1.7-0.8,1.8-2.7,1.7c-2-0.1-4-0.1-6-0.3c-0.8-0.1-1.7-0.4-2.2-0.9c-3.5-3-6.6-6.4-8.7-10.5c-1.1-2.1-1.7-4.5-2.6-6.8
			c-0.1-0.2,0-0.5-0.2-0.7c-1.4-2-0.8-4.2-0.4-6.2c0.9-4.3,2.1-8.6,2.9-13c1.1-6.2,2.8-12.4,2.5-18.8c-0.1-2.1-0.8-4.1-1.3-6.2
			c0-0.2-0.2-0.4-0.2-0.6c-0.5-2.2-1-4.5-1.6-6.7c-1.1-3.8-0.7-7.7-0.5-11.6c0-1.2,0-2.3,0.2-3.4c0.3-1.4,0.7-2.9,1.3-4.1
			c1.2-2.2,2.7-4.1,4-6.2c0.7-1.2,1.7-2,2.9-2.7c2.3-1.4,4.6-3,7-4.2c2.1-1.1,4.3-1.9,6.5-2.6c5.9-1.9,11.8-3.5,17.9-4.3
			c5-0.7,9.7,0.3,13.9,3.6c3.3,2.7,5.9,5.9,7.4,9.7c0.8,2.1,1.3,4.3,1.7,6.6c0.3,1.6-1.5,3-3.5,2.9c-1.2,0-2.5-0.1-3.7-0.2
			c-0.1,0-0.3-0.2-0.4-0.4C370.3,1957.2,370.8,1957.1,371.2,1957z"/>
		<path class="st24" d="M358.8,1959.5c0.1-0.2,0.1-0.5,0.2-0.5c1.9-0.5,3.6-2,5.7-1.7c0,0.1,0,0.2,0,0.2c-0.8,0.2-1.6,0.3-2.4,0.5
			c-0.2,0.1-0.4,0.3-0.7,0.4c-0.2,0-0.5,0.1-0.7,0.1c-0.2,0.1-0.4,0.3-0.7,0.4c-0.2,0-0.5,0.1-0.7,0.1c-0.1,0.2-0.3,0.4-0.4,0.6
			C359.1,1959.6,358.9,1959.6,358.8,1959.5z"/>
		<path class="st26" d="M364.7,1957.6c0-0.1,0-0.2,0-0.2c0.5-0.1,1.1-0.2,1.6-0.3c0,0.2,0.1,0.3,0.1,0.5c-0.2,0.2-0.4,0.4-0.6,0.6
			c-0.3,0.1-0.6,0.1-0.9,0.2C364.8,1958.1,364.8,1957.8,364.7,1957.6z"/>
		<path class="st24" d="M353.5,1962.6c0.6-0.5,1.3-0.9,1.9-1.4c-0.2,0.2-0.4,0.4-0.6,0.6C354.4,1962,353.9,1962.3,353.5,1962.6
			L353.5,1962.6z"/>
		<path class="st24" d="M371.2,1957c-0.5,0.1-0.9,0.2-1.4,0.3c-0.2,0-0.3,0.1-0.5,0.1c0-0.2-0.1-0.3-0.1-0.5
			C369.9,1957,370.6,1957,371.2,1957z"/>
		<path class="st26" d="M353.5,1962.6c0.4-0.3,0.9-0.5,1.3-0.8c-0.5,0.4-1,0.8-1.5,1.3C353.4,1962.9,353.4,1962.7,353.5,1962.6z"/>
		<path class="st26" d="M369.2,1956.9c0,0.2,0.1,0.3,0.1,0.5c-0.3,0-0.7,0-1,0c0.1-0.1,0.1-0.2,0.2-0.3
			C368.8,1957,369,1957,369.2,1956.9z"/>
		<path class="st24" d="M356.1,1960.8c0.3-0.3,0.7-0.6,1-0.9c0,0.2,0.1,0.5,0.1,0.7C356.9,1960.6,356.5,1960.7,356.1,1960.8z"/>
		<path class="st26" d="M367.1,1957.1c0.2,0,0.5-0.1,0.7-0.1c0,0.2,0.1,0.3,0.1,0.5c-0.3,0-0.5-0.1-0.8-0.1
			C367.1,1957.3,367.1,1957.2,367.1,1957.1z"/>
		<path class="st24" d="M357.6,1959.8c0.2,0,0.5-0.1,0.7-0.1c-0.2,0.1-0.4,0.3-0.7,0.4C357.6,1959.9,357.6,1959.8,357.6,1959.8z"/>
		<path class="st26" d="M360.4,1959c0.2-0.1,0.4-0.3,0.7-0.4C360.8,1958.7,360.6,1958.8,360.4,1959z"/>
		<path class="st24" d="M367.9,1957.4c0-0.2-0.1-0.3-0.1-0.5c0.3,0,0.5,0.1,0.8,0.1c-0.1,0.1-0.1,0.2-0.2,0.3
			C368.2,1957.4,368,1957.4,367.9,1957.4z"/>
		<path class="st26" d="M361.7,1958.4c0.2-0.1,0.4-0.3,0.7-0.4C362.2,1958.2,361.9,1958.3,361.7,1958.4z"/>
		<path class="st24" d="M367.1,1957.1c0,0.1,0,0.2,0,0.2c-0.2,0-0.5,0.1-0.7,0.1c0-0.2-0.1-0.3-0.1-0.5
			C366.6,1957.1,366.8,1957.1,367.1,1957.1z"/>
		<path class="st26" d="M357.6,1959.8c0,0.1,0,0.2,0,0.2c-0.1,0.2-0.3,0.4-0.4,0.6c0-0.2-0.1-0.5-0.1-0.7
			C357.3,1959.8,357.4,1959.8,357.6,1959.8z"/>
		<path class="st26" d="M359.3,1959.7c0.1-0.2,0.3-0.4,0.4-0.6C359.5,1959.3,359.4,1959.5,359.3,1959.7z"/>
		<path class="st22" d="M484.9,1940.2c-1.8-0.3-3.7-0.4-5.5-0.9c-4.8-1.2-9.6-2.6-14.4-4c-2.6-0.7-5.1-1.4-7.7-2.2
			c-0.6-0.2-1.1-0.7-1.7-1c-0.2-0.4-0.4-0.8-0.7-1.2c-1.1-1.3-1.2-2.8-0.2-4.2c0.7-1.1,1.4-2.1,2.1-3.2c1.3-1.8,2.9-3.3,5.1-3.9
			c2.3-0.7,4.6-1.6,6.9-2.3c1.7-0.5,3.5-0.9,5.3-0.9c4.5-0.2,9.1,0.2,13.5,1.3c1.6,0.4,3.3,1.1,4.6,2c1.5,1.1,2.9,2.7,4,4.2
			c3.6,4.8,3.3,3.4,2.7,9.2c-0.2,1.8-0.7,3.3-2.4,4.2c-1.2,0.7-2.3,1.9-3.6,2.3c-1.7,0.5-3.6,0.3-5.4,0.4
			C486.6,1940.1,485.7,1940.1,484.9,1940.2z M470.2,1918.1c0,0.1,0,0.2,0,0.3c-1.5,0.4-3,0.8-4.5,1.2c-2.3,0.6-4.3,1.6-5.8,3.5
			c-1.3,1.6-2.6,3.2-4,4.8c-0.6,0.7-0.6,2,0.1,2.5c1.1,0.7,2.3,1.4,3.5,1.9c1.5,0.6,3.1,0.8,4.6,1.3c5.5,1.6,10.9,3.2,16.4,4.8
			c3.3,0.9,6.7,0.9,10.1,0.3c0.3-0.1,0.5-0.2,0.8-0.3c1.1-0.7,2.2-1.5,3.2-2.2c2.1-1.5,3-5.6,1.4-7.6c-1.7-2.3-3.5-4.5-5.4-6.7
			c-0.6-0.7-1.6-1.5-2.5-1.7c-3.1-0.7-6.2-1.4-9.4-1.7C476,1917.9,473.1,1918.1,470.2,1918.1z"/>
		<path class="st21" d="M484.9,1940.2c0.9,0,1.7,0,2.6-0.1c1.8-0.1,3.7,0.1,5.4-0.4c1.3-0.4,2.4-1.6,3.6-2.3c1.7-1,2.2-2.4,2.4-4.2
			c0.5-5.8,0.9-4.4-2.7-9.2c-1.2-1.5-2.5-3.1-4-4.2c-1.3-1-3-1.6-4.6-2c-4.4-1.1-8.9-1.6-13.5-1.3c-1.8,0.1-3.6,0.5-5.3,0.9
			c-2.3,0.7-4.6,1.6-6.9,2.3c-2.2,0.7-3.8,2.1-5.1,3.9c-0.7,1-1.4,2.1-2.1,3.2c-0.9,1.4-0.8,2.9,0.2,4.2c0.3,0.4,0.5,0.8,0.7,1.2
			c-1.4,0.1-2.2-0.8-2.7-1.9c-0.4-1-0.9-2.1,0.1-3.2c0.8-0.9,1.4-2,1.8-3.1c1.2-2.8,3.4-4.5,6.3-5.4c2.6-0.8,5.2-1.9,7.9-2.7
			c3.1-0.9,6.3-1.5,9.6-1.1c3.4,0.5,6.8,1,10.1,1.6c3.1,0.5,5.5,2.2,7.5,4.5c1.6,1.8,3.2,3.7,4.6,5.6c0.4,0.5,0.7,1.4,0.7,2.1
			c-0.3,2.6-0.7,5.1-1.2,7.6c-0.1,0.4-0.2,0.8-0.5,1c-1.5,1.3-3,2.7-4.7,3.7c-1.1,0.6-2.6,0.6-3.8,0.6c-1.8-0.1-3.6-0.4-5.3-0.7
			C485.5,1940.7,485.2,1940.4,484.9,1940.2z"/>
		<path class="st27" d="M367.1,1956.1c-0.2,0-0.5,0.1-0.7,0.1c-0.3,0-0.7,0-1,0c-1.7,0.4-3.4,0.9-5.1,1.3c-0.3,0.1-0.6,0.3-0.9,0.4
			c-0.2,0-0.3,0.1-0.5,0.1c-0.1,0.2-0.3,0.4-0.4,0.6c-0.2,0-0.5,0.1-0.7,0.1c-0.3,0.1-0.6,0.1-0.9,0.2c-0.2,0-0.3,0.1-0.5,0.1
			c-0.1,0.2-0.3,0.4-0.4,0.6c-0.2,0-0.5,0.1-0.7,0.1c-1.7,1.1-3.5,2.1-5,3.4c-2.3,1.9-3.9,4.4-4.2,7.5c-0.5,4.7-0.8,9.4-1.4,14.1
			c-0.6,4.3-1.2,8.7-2.3,12.9c-1.2,4.8-2.7,9.4-4.2,14.1c-1,3.1-2.2,6.2-3.3,9.2c-0.3,0.8-0.6,0.9-1.5,0.6c-2.2-0.6-4.4-1-6.6-1.4
			c-0.9-0.2-2.1,0-2.6-0.5c-1-1-2-2.4-2.2-3.7c-0.4-2.4-0.4-5-0.2-7.5c0.3-6.4,0.8-12.8,1.3-19.2c0.3-3.7,0.4-7.3-0.4-10.9
			c-0.1-0.7-0.4-1.4-0.4-2.1c-0.1-1.6-0.1-3.2-0.2-4.8c-0.1-3.8-0.3-7.6,1.4-11.2c0.6-1.3,1-2.8,1.9-3.8c1.8-2.2,3.9-4.2,6-6.2
			c0.9-0.9,1.8-1.8,2.9-2.3c6.9-3.4,14.2-5.9,21.8-7.4c3.7-0.7,7.6-0.6,10.2,3.1c0.1,0.2,0.3,0.2,0.5,0.4c1.6,1.7,3.6,3.1,4.4,5.4
			c0.4,1.1,0.6,2.4,1.1,3.5s0,1.5-0.8,1.8C370,1955.4,368.5,1955.8,367.1,1956.1z M365.3,1955.9c1.4-0.4,2.8-0.7,4.2-1.3
			c0.4-0.1,1-0.9,0.9-1.2c-0.7-1.9-1.2-4-2.3-5.7c-1.6-2.3-3.7-4.1-6.6-4.8c-0.9-0.2-1.9-0.7-2.7-0.5c-2.9,0.7-5.8,1.5-8.6,2.4
			c-3.6,1.2-7.2,2.5-10.7,3.9c-1.9,0.8-3.8,1.7-5.4,3c-2.1,1.8-4,3.9-5.9,5.9c-1.7,1.8-3.4,3.5-3.4,6.2c0,2-0.1,4-0.1,6.1
			c0,1.5-0.4,3.2,0,4.6c1.3,5,0.9,10,0.8,15.1c-0.1,6.1-0.4,12.3-0.6,18.4c0,1.6,0.1,3.2,0.2,4.9c0,0.7,0.5,1.1,1.3,1.1
			c1.9,0,3.9-0.1,5.8,0.1c2.9,0.2,3,0.3,3.9-2.5c2.3-7,5.2-13.9,6.4-21.2c0.9-5.5,1.6-10.9,2.3-16.4c0.4-3.1,0.7-6.2,2.6-8.8
			c1.7-2.2,3.9-3.9,6.3-5.2C357.3,1957.9,361.2,1956.5,365.3,1955.9z"/>
		<path class="st28" d="M367.1,1956.1c1.4-0.4,2.9-0.7,4.3-1.1c0.8-0.3,1.3-0.7,0.8-1.8c-0.5-1.1-0.7-2.4-1.1-3.5
			c-0.9-2.3-2.8-3.7-4.4-5.4c-0.1-0.1-0.3-0.2-0.5-0.4c-2.6-3.7-6.4-3.8-10.2-3.1c-7.6,1.4-14.9,3.9-21.8,7.4
			c-1.1,0.5-2,1.5-2.9,2.3c-2,2-4.1,4-6,6.2c-0.9,1-1.2,2.5-1.9,3.8c-1.7,3.6-1.6,7.4-1.4,11.2c0.1,1.6,0.1,3.2,0.2,4.8
			c0.1,0.7,0.3,1.4,0.4,2.1c0.8,3.6,0.6,7.3,0.4,10.9c-0.4,6.4-0.9,12.8-1.3,19.2c-0.1,2.5-0.2,5,0.2,7.5c0.2,1.3,1.2,2.7,2.2,3.7
			c0.5,0.5,1.7,0.3,2.6,0.5c2.2,0.4,4.5,0.8,6.6,1.4c0.9,0.3,1.2,0.2,1.5-0.6c1.1-3.1,2.3-6.1,3.3-9.2c1.5-4.7,3.1-9.3,4.2-14.1
			c1-4.2,1.7-8.6,2.3-12.9c0.6-4.7,0.9-9.4,1.4-14.1c0.3-3.1,1.9-5.6,4.2-7.5c1.5-1.3,3.3-2.3,5-3.4c-0.3,0.3-0.5,0.7-0.8,0.9
			c-2.7,1.4-4.8,3.6-6.5,6.1c-1.2,1.7-1.1,3.9-1.4,6c-0.8,7.3-1.5,14.6-2.6,21.8c-0.7,4.8-1.9,9.6-3.2,14.3
			c-1.3,4.7-3.1,9.3-4.7,13.9c-0.5,1.4-1,2.8-1.6,4.1c-0.6,1.4-0.8,1.4-2.2,1c-2.2-0.7-4.5-1.4-6.7-2c-1-0.3-1.7-0.8-2.3-1.6
			c-1.1-1.7-2.5-3.2-3.4-5c-0.6-1.2-0.8-2.7-0.7-4c0.4-5.5,1-10.9,1.5-16.4c0.4-4.7,0.8-9.4,1-14.1c0.1-1.8-0.6-3.6-0.9-5.4
			c-0.3-2.3-0.6-4.6-0.8-7c-0.1-1,0-2-0.1-3c-0.4-3.5,0.9-6.6,2-9.7c0.3-0.9,0.7-1.8,1-2.7c0.9-3,3.5-4.6,5.4-6.7
			c3.6-4,8.5-5.8,13.5-7.3c4.5-1.4,9-2.5,13.6-3.7c2.1-0.6,4.1,0.4,6.1,0.5c2.5,0.2,3.8,2,5.4,3.4c1.5,1.3,2.9,2.7,4.1,4.2
			c0.9,1.2,1.4,2.7,2.1,4.1c0.3,0.6,0.2,1.3,0.5,1.8c0.5,1,0.3,1.7-0.7,2c-1.7,0.5-3.5,0.8-5.3,1.2
			C367.4,1956.5,367.3,1956.3,367.1,1956.1z"/>
		<path class="st28" d="M365.4,1956.2c0.3,0,0.7,0,1,0C366.1,1956.3,365.8,1956.2,365.4,1956.2z"/>
		<path class="st28" d="M356.9,1958.9c0.3-0.1,0.6-0.1,0.9-0.2C357.5,1958.8,357.2,1958.9,356.9,1958.9z"/>
		<path class="st28" d="M359.4,1957.9c0.3-0.1,0.6-0.3,0.9-0.4C360,1957.6,359.7,1957.8,359.4,1957.9z"/>
		<path class="st28" d="M356.1,1959.6c0.1-0.2,0.3-0.4,0.4-0.6C356.3,1959.2,356.2,1959.4,356.1,1959.6z"/>
		<path class="st28" d="M358.6,1958.6c0.1-0.2,0.3-0.4,0.4-0.6C358.8,1958.2,358.7,1958.4,358.6,1958.6z"/>
		<path class="st29" d="M470.2,1918.1c2.9,0,5.8-0.2,8.7,0.1c3.1,0.3,6.3,1,9.4,1.7c0.9,0.2,1.9,0.9,2.5,1.7
			c1.9,2.2,3.7,4.4,5.4,6.7c1.5,2.1,0.7,6.1-1.4,7.6c-1.1,0.8-2.2,1.5-3.2,2.2c-0.2,0.2-0.5,0.3-0.8,0.3c-3.4,0.7-6.8,0.7-10.1-0.3
			c-5.5-1.5-10.9-3.2-16.4-4.8c-1.5-0.4-3.1-0.7-4.6-1.3c-1.2-0.5-2.4-1.2-3.5-1.9c-0.7-0.5-0.7-1.7-0.1-2.5c1.3-1.6,2.7-3.1,4-4.8
			c1.5-1.9,3.6-2.9,5.8-3.5c1.5-0.4,3-0.8,4.5-1.2C470.2,1918.3,470.2,1918.2,470.2,1918.1z M483.7,1937c3.6-0.7,5.8-2.5,8-4.2
			c0.9-0.6,0.8-1.4,0.2-2.2c-1.4-1.9-2.9-3.7-4.1-5.7c-1-1.5-2.3-2.1-3.9-2.5c-3.9-1-7.8-0.8-11.7-1.1c-3.4-0.2-5.8,1.1-7.9,3.5
			c-0.8,1-1.6,1.9-2.6,2.8c-1.3,1.2-1.2,2.7,0.4,3.5c1.2,0.6,2.3,1.2,3.6,1.6c3.6,1.1,6.9,3.1,10.7,3.6
			C479,1936.7,481.7,1937.6,483.7,1937z"/>
		<path class="st30" d="M365.3,1955.9c-4.1,0.6-8,2.1-11.6,4.1c-2.4,1.4-4.6,3-6.3,5.2c-1.9,2.6-2.3,5.7-2.6,8.8
			c-0.7,5.5-1.4,11-2.3,16.4c-1.2,7.3-4.1,14.2-6.4,21.2c-0.9,2.8-1,2.7-3.9,2.5c-1.9-0.1-3.9-0.1-5.8-0.1c-0.8,0-1.2-0.3-1.3-1.1
			c-0.1-1.6-0.2-3.2-0.2-4.9c0.2-6.1,0.5-12.3,0.6-18.4c0.1-5,0.5-10.1-0.8-15.1c-0.4-1.4,0-3.1,0-4.6c0-2,0.1-4,0.1-6.1
			c0-2.7,1.8-4.4,3.4-6.2c1.9-2,3.8-4.1,5.9-5.9c1.6-1.3,3.5-2.2,5.4-3c3.5-1.4,7.1-2.7,10.7-3.9c2.8-0.9,5.7-1.8,8.6-2.4
			c0.8-0.2,1.8,0.3,2.7,0.5c2.9,0.7,5,2.5,6.6,4.8c1.1,1.7,1.7,3.7,2.3,5.7c0.1,0.3-0.5,1-0.9,1.2
			C368.2,1955.1,366.8,1955.5,365.3,1955.9z M368.6,1952.3c-0.4-0.9-0.8-2.3-1.5-3.5c-0.3-0.6-0.9-1.1-1.5-1.4
			c-1.6-0.8-3.3-1.5-5.1-2.1c-0.7-0.3-1.7-0.3-2.4-0.1c-1.5,0.3-2.9,0.8-4.3,1.3c-3.4,1.2-6.8,2.2-10.1,3.6
			c-4.2,1.8-8.4,3.7-11.6,7.3c-2.2,2.6-4,5.3-4.6,8.6c-0.6,3.1-0.6,6.2,0.2,9.3c0.3,1.1,0.4,2.4,0.4,3.5c0,5,0,10.1,0,15.1
			c0,1.5-0.2,3.2,0.4,4.5c1.3,3,3.1,5.7,4.7,8.6c0.2,0.4,0.9,0.8,1.3,0.8c0.5-0.1,1.1-0.5,1.3-1c1.3-3.8,2.8-7.6,3.8-11.5
			c1.1-4.8,1.7-9.7,2.7-14.6c0.7-3.8,0.6-7.7,2.2-11.4c1.2-2.7,2.5-5.2,4.9-7c2.9-2.2,6-4.1,9.4-5.3c2.8-0.9,5.5-2.3,8.6-2.4
			C368.5,1954.5,368.9,1953.9,368.6,1952.3z"/>
		<path class="st26" d="M483.7,1937c-2,0.6-4.7-0.4-7.4-0.7c-3.8-0.5-7.1-2.4-10.7-3.6c-1.2-0.4-2.4-1-3.6-1.6
			c-1.6-0.8-1.7-2.3-0.4-3.5c0.9-0.8,1.7-1.8,2.6-2.8c2.1-2.4,4.6-3.7,7.9-3.5c3.9,0.2,7.9,0,11.7,1.1c1.6,0.4,2.9,1.1,3.9,2.5
			c1.3,2,2.7,3.8,4.1,5.7c0.6,0.8,0.7,1.5-0.2,2.2C489.4,1934.5,487.3,1936.3,483.7,1937z M473.9,1924.2c-2.5,1.2-5.8,2.9-9,4.6
			c-0.3,0.1-0.5,0.9-0.3,1.2c0.3,0.6,0.9,1.1,1.4,1.5c0.8,0.5,1.8,0.7,2.6,1.1c3.7,1.9,7.5,3,11.6,3.2c1.7,0.1,3.2-0.3,4-1.9
			c0.5-1,1.1-2,1.6-3.1c0.7-1.7-0.6-4.7-2.2-5.5C480.8,1924.1,477.9,1923.6,473.9,1924.2z"/>
		<path class="st31" d="M368.6,1952.3c0.3,1.6-0.1,2.2-1.3,2.3c-3.1,0.1-5.8,1.4-8.6,2.4c-3.4,1.2-6.5,3.1-9.4,5.3
			c-2.4,1.8-3.8,4.2-4.9,7c-1.6,3.7-1.4,7.6-2.2,11.4c-0.9,4.8-1.5,9.8-2.7,14.6c-0.9,3.9-2.4,7.7-3.8,11.5c-0.2,0.4-0.8,0.9-1.3,1
			c-0.4,0.1-1.1-0.4-1.3-0.8c-1.6-2.8-3.4-5.6-4.7-8.6c-0.6-1.3-0.4-3-0.4-4.5c0-5,0-10.1,0-15.1c0-1.2-0.1-2.4-0.4-3.5
			c-0.8-3.1-0.8-6.3-0.2-9.3c0.7-3.2,2.4-6,4.6-8.6c3.2-3.6,7.3-5.5,11.6-7.3c3.3-1.4,6.7-2.4,10.1-3.6c1.4-0.5,2.9-1,4.3-1.3
			c0.8-0.2,1.7-0.1,2.4,0.1c1.7,0.6,3.4,1.3,5.1,2.1c0.6,0.3,1.2,0.8,1.5,1.4C367.7,1950,368.2,1951.4,368.6,1952.3z M337.9,1994.8
			c0.1-0.3,0.3-0.7,0.4-1c0.3-1.1,0.5-2.2,0.7-3.4c0.8-4.9,1.5-9.7,2.3-14.6c0.6-4.2,1.5-8.2,4.6-11.5c4.2-4.5,9.3-7.1,15-8.8
			c1.6-0.5,3.2-1,4.8-1.5c0.8-0.3,1.2-0.8,0.5-1.6c-0.6-0.6-1.1-1.3-1.6-2c-1.6-2.1-3.4-3.5-6.2-2.5c-0.5,0.2-1,0.4-1.6,0.6
			c-2.3,0.8-4.7,1.4-7,2.4c-3.7,1.5-7.2,3.2-10.8,5c-1.1,0.5-2.4,1.2-2.9,2.1c-1.9,3.4-3.5,6.9-5.2,10.3c-0.7,1.4-0.9,2.8-0.6,4.5
			c0.4,2.4,0.3,5,0.6,7.5c0.1,1,0.3,2.1,0.7,3.1c0.6,1.4,1.5,2.6,2.2,4C335.1,1989.7,336.4,1992.2,337.9,1994.8z"/>
		<path class="st32" d="M473.9,1924.2c4-0.5,6.9-0.1,9.7,1.1c1.7,0.7,2.9,3.8,2.2,5.5c-0.4,1.1-1,2.1-1.6,3.1c-0.9,1.6-2.4,2-4,1.9
			c-4.1-0.2-8-1.3-11.6-3.2c-0.8-0.4-1.8-0.7-2.6-1.1c-0.6-0.3-1.1-0.9-1.4-1.5c-0.2-0.3,0.1-1,0.3-1.2
			C468.1,1927,471.4,1925.4,473.9,1924.2z"/>
		<path class="st33" d="M337.9,1994.8c-1.4-2.6-2.8-5.1-4.1-7.6c-0.7-1.3-1.6-2.6-2.2-4c-0.4-0.9-0.6-2-0.7-3.1
			c-0.2-2.5-0.1-5-0.6-7.5c-0.3-1.7-0.1-3,0.6-4.5c1.7-3.5,3.3-7,5.2-10.3c0.5-1,1.8-1.6,2.9-2.1c3.6-1.7,7.2-3.4,10.8-5
			c2.3-0.9,4.7-1.6,7-2.4c0.5-0.2,1-0.4,1.6-0.6c2.8-1,4.6,0.4,6.2,2.5c0.5,0.7,1,1.3,1.6,2c0.7,0.8,0.4,1.3-0.5,1.6
			c-1.6,0.5-3.2,1-4.8,1.5c-5.7,1.8-10.8,4.4-15,8.8c-3.1,3.3-4,7.3-4.6,11.5c-0.7,4.9-1.5,9.7-2.3,14.6c-0.2,1.1-0.5,2.3-0.7,3.4
			C338.1,1994.1,338,1994.4,337.9,1994.8z"/>
	</g>
	<g>
		<g>
			<polygon class="st34" points="314.8,1761.8 404.5,1990.3 193.7,1958.9 104.1,1730.4 			"/>
		</g>
	</g>
	<g>
		<g>
			<g>
				<polygon class="st35" points="336.6,1551.7 469,1570.6 302.6,1780.1 				"/>
			</g>
			<g>
				<polygon class="st36" points="302.6,1780.1 89.4,1747.7 123.4,1519.3 336.6,1551.7 				"/>
			</g>
		</g>
	</g>
	<g>
		<polygon class="st37" points="446.3,1595.4 536.5,1825.4 405.1,1991.9 314.8,1761.8 		"/>
	</g>
	<g>
		
			<radialGradient id="SVGID_5_" cx="415.5709" cy="676.0223" r="42.9902" gradientTransform="matrix(1 0 0 -1 0 2436)" gradientUnits="userSpaceOnUse">
			<stop  offset="2.066799e-05" style="stop-color:#F9F1E5"/>
			<stop  offset="1" style="stop-color:#CCBDA8"/>
		</radialGradient>
		<path class="st38" d="M382.6,1784.4c0,0,19.8,36,49,3.7c29.3-32.3,11.7-69.7,11.7-69.7"/>
		
			<radialGradient id="SVGID_6_" cx="408.8871" cy="717.55" r="12.7485" gradientTransform="matrix(1 0 0 -1 0 2436)" gradientUnits="userSpaceOnUse">
			<stop  offset="2.066799e-05" style="stop-color:#F9F1E5"/>
			<stop  offset="1" style="stop-color:#CCBDA8"/>
		</radialGradient>
		<path class="st39" d="M404.1,1704c5.2-1.1,11.6,4.4,14.3,12.4c2.6,8,0.6,15.3-4.7,16.5c-5.2,1.1-11.6-4.4-14.3-12.4
			S398.9,1705.1,404.1,1704z"/>
		
			<radialGradient id="SVGID_7_" cx="393.2" cy="697.7208" r="12.7432" gradientTransform="matrix(1 0 0 -1 0 2436)" gradientUnits="userSpaceOnUse">
			<stop  offset="2.066799e-05" style="stop-color:#F9F1E5"/>
			<stop  offset="1" style="stop-color:#CCBDA8"/>
		</radialGradient>
		<path class="st40" d="M388.4,1723.9c5.2-1.1,11.6,4.4,14.3,12.4c2.6,8,0.5,15.4-4.7,16.5s-11.6-4.4-14.3-12.4
			C381.1,1732.3,383.2,1725,388.4,1723.9z"/>
	</g>
</g>
<g>
	
		<radialGradient id="SVGID_8_" cx="322.3889" cy="553.4053" r="85.8322" gradientTransform="matrix(1 0 0 -1 0 2436)" gradientUnits="userSpaceOnUse">
		<stop  offset="2.066799e-05" style="stop-color:#F9F1E5"/>
		<stop  offset="1" style="stop-color:#CCBDA8"/>
	</radialGradient>
	<path class="st41" d="M219,1838c0,0-5,166,196,86c0,0,18-7,8-30s-32-15-32-15s-46,42-88,14s-46-46-44-63S215,1817,219,1838z"/>
	
		<radialGradient id="SVGID_9_" cx="416" cy="542" r="34" gradientTransform="matrix(1 0 0 -1 0 2436)" gradientUnits="userSpaceOnUse">
		<stop  offset="2.066799e-05" style="stop-color:#F9F1E5"/>
		<stop  offset="1" style="stop-color:#CCBDA8"/>
	</radialGradient>
	<circle class="st42" cx="416" cy="1894" r="34"/>
	
		<radialGradient id="SVGID_10_" cx="409" cy="580" r="12" gradientTransform="matrix(1 0 0 -1 0 2436)" gradientUnits="userSpaceOnUse">
		<stop  offset="2.066799e-05" style="stop-color:#F9F1E5"/>
		<stop  offset="1" style="stop-color:#CCBDA8"/>
	</radialGradient>
	<circle class="st43" cx="409" cy="1856" r="12"/>
</g>
</svg>
