<?xml version="1.0" encoding="utf-8"?>
<!-- Generator: Adobe Illustrator 24.2.1, SVG Export Plug-In . SVG Version: 6.00 Build 0)  -->
<svg version="1.1" id="Layer_1" xmlns="http://www.w3.org/2000/svg" xmlns:xlink="http://www.w3.org/1999/xlink" x="0px" y="0px"
	 viewBox="0 0 1125 2436" style="enable-background:new 0 0 1125 2436;" xml:space="preserve">
<style type="text/css">
	.st0{opacity:0.24;}
	.st1{clip-path:url(#XMLID_7_);fill:url(#SVGID_1_);}
	.st2{clip-path:url(#XMLID_7_);}
	.st3{clip-path:url(#SVGID_3_);fill:url(#SVGID_4_);}
	.st4{clip-path:url(#XMLID_9_);fill:url(#SVGID_5_);}
	.st5{clip-path:url(#XMLID_9_);}
	.st6{clip-path:url(#SVGID_7_);fill:url(#SVGID_8_);}
	.st7{opacity:0.42;}
	.st8{clip-path:url(#XMLID_11_);fill:url(#SVGID_9_);}
	.st9{clip-path:url(#XMLID_11_);}
	.st10{clip-path:url(#SVGID_11_);fill:url(#SVGID_12_);}
	.st11{clip-path:url(#XMLID_13_);fill:url(#SVGID_13_);}
	.st12{clip-path:url(#XMLID_13_);}
	.st13{clip-path:url(#SVGID_15_);fill:url(#SVGID_16_);}
	.st14{fill:url(#SVGID_17_);}
	.st15{fill:none;}
	.st16{fill:url(#SVGID_18_);}
	.st17{fill:url(#SVGID_19_);}
</style>
<g class="st0">
	<defs>
		<path id="XMLID_2_" class="st0" d="M853.7,611.4c0,0,49.7-136.8,249.4-18.6s281.1,119.6,376.4,135
			c95.3,15.3,305.4,165.2,294.5,308.3c-21.9,36.5-43.8,73.1-65.7,109.6c-397.9,144-761.7,31-868.8-189.2
			C823.1,922.7,754.5,797.7,853.7,611.4z"/>
	</defs>
	
		<linearGradient id="XMLID_6_" gradientUnits="userSpaceOnUse" x1="971.5013" y1="1421.0188" x2="971.5013" y2="823.5414" gradientTransform="matrix(0.8626 0.5058 -0.5058 0.8626 983.6797 -534.722)">
		<stop  offset="0" style="stop-color:#ECCBAB"/>
		<stop  offset="0.5843" style="stop-color:#C69C6D"/>
	</linearGradient>
	<use xlink:href="#XMLID_2_"  style="overflow:visible;fill:url(#XMLID_6_);"/>
	<clipPath id="XMLID_7_">
		<use xlink:href="#XMLID_2_"  style="overflow:visible;"/>
	</clipPath>
	
		<linearGradient id="SVGID_1_" gradientUnits="userSpaceOnUse" x1="933.2429" y1="3254.615" x2="933.2429" y2="2074.615" gradientTransform="matrix(0.8626 0.5058 0.5058 -0.8626 -1060.5129 2951.4727)">
		<stop  offset="0" style="stop-color:#ECCBAB"/>
		<stop  offset="0.5843" style="stop-color:#C69C6D"/>
	</linearGradient>
	<polygon class="st1" points="860.3,304.9 1921.3,927.1 1324.4,1945 263.4,1322.8 	"/>
	<g class="st2">
		<g>
			<defs>
				
					<rect id="SVGID_2_" x="-446.5" y="1112.8" transform="matrix(0.5058 -0.8626 0.8626 0.5058 -1062.9552 1498.0997)" width="2445.1" height="1128"/>
			</defs>
			<clipPath id="SVGID_3_">
				<use xlink:href="#SVGID_2_"  style="overflow:visible;"/>
			</clipPath>
			
				<linearGradient id="SVGID_4_" gradientUnits="userSpaceOnUse" x1="406.0719" y1="3540.6248" x2="1922.5718" y2="3540.6248" gradientTransform="matrix(0.8626 0.5058 0.5058 -0.8626 -1060.5129 2951.4727)">
				<stop  offset="0" style="stop-color:#ECCBAB"/>
				<stop  offset="0.5843" style="stop-color:#C69C6D"/>
			</linearGradient>
			<path class="st3" d="M1654.2,1652.6c-228.7-73.4-328.5-183.5-377.7-266.5c-110.5-186.5-85.6-277.2-187-518.9
				c-68.9-164-182.1-272.1-260.8-334.7c303.9-393.9,662.3-858.6,966-1252.5L2845.7,90.7C2845.7,90.7,1643.1,1644.2,1654.2,1652.6z"
				/>
		</g>
	</g>
</g>
<g class="st0">
	<defs>
		<path id="XMLID_4_" class="st0" d="M0.4-526.6c0,0,75.7-208.3,379.7-28.3s428,182.1,573.2,205.5S1418.3-98,1401.7,120
			c-33.3,55.6-66.7,111.2-100,166.9C695.8,506,141.8,334-21.1-1.2C-46.1-52.6-150.5-243,0.4-526.6z"/>
	</defs>
	
		<linearGradient id="XMLID_8_" gradientUnits="userSpaceOnUse" x1="-76.8667" y1="1062.4852" x2="-76.8667" y2="152.7899" gradientTransform="matrix(0.8626 0.5058 -0.5058 0.8626 983.6797 -534.722)">
		<stop  offset="0" style="stop-color:#ECCBAB"/>
		<stop  offset="0.5843" style="stop-color:#C69C6D"/>
	</linearGradient>
	<use xlink:href="#XMLID_4_"  style="overflow:visible;fill:url(#XMLID_8_);"/>
	<clipPath id="XMLID_9_">
		<use xlink:href="#XMLID_4_"  style="overflow:visible;"/>
	</clipPath>
	
		<linearGradient id="SVGID_5_" gradientUnits="userSpaceOnUse" x1="-135.1174" y1="3944.615" x2="-135.1174" y2="2147.9939" gradientTransform="matrix(0.8626 0.5058 0.5058 -0.8626 -1060.5129 2951.4727)">
		<stop  offset="0" style="stop-color:#ECCBAB"/>
		<stop  offset="0.5843" style="stop-color:#C69C6D"/>
	</linearGradient>
	<polygon class="st4" points="10.5,-993.3 1626,-46 717.2,1503.8 -898.3,556.5 	"/>
	<g class="st5">
		<g>
			<defs>
				
					<rect id="SVGID_6_" x="-1979.2" y="236.8" transform="matrix(0.5058 -0.8626 0.8626 0.5058 -1003.231 439.8009)" width="3722.8" height="1717.4"/>
			</defs>
			<clipPath id="SVGID_7_">
				<use xlink:href="#SVGID_6_"  style="overflow:visible;"/>
			</clipPath>
			
				<linearGradient id="SVGID_8_" gradientUnits="userSpaceOnUse" x1="-937.7671" y1="4380.0825" x2="1371.1956" y2="4380.0825" gradientTransform="matrix(0.8626 0.5058 0.5058 -0.8626 -1060.5129 2951.4727)">
				<stop  offset="0" style="stop-color:#ECCBAB"/>
				<stop  offset="0.5843" style="stop-color:#C69C6D"/>
			</linearGradient>
			<path class="st6" d="M1219.2,1058.7C871,947,719,779.3,644.1,653C475.8,369,513.8,231,359.3-137
				C254.4-386.7,82.1-551.3-37.8-646.6c462.7-599.7,1008.4-1307.3,1470.9-1907l1600.3,1234.2
				C3033.4-1319.5,1202.4,1045.8,1219.2,1058.7z"/>
		</g>
	</g>
</g>
<g class="st7">
	<defs>
		<path id="XMLID_3_" class="st7" d="M1477.1,2630.4c0,0-54.8,277.7-473.6,110.1c-418.8-167.6-575.8-146-763.6-147.1
			s-636.1-226.3-657.8-504.6c31.2-76.7,62.4-153.5,93.6-230.2c721.7-395.3,1454.4-286.7,1725.7,104.5
			C1443,2023,1612.1,2242.8,1477.1,2630.4z"/>
	</defs>
	
		<linearGradient id="XMLID_10_" gradientUnits="userSpaceOnUse" x1="-399.8214" y1="2335.5713" x2="-399.8214" y2="1173.7847" gradientTransform="matrix(-0.93 -0.3676 0.3676 -0.93 -402.4495 3632.3726)">
		<stop  offset="0" style="stop-color:#ECCBAB"/>
		<stop  offset="0.5843" style="stop-color:#C69C6D"/>
	</linearGradient>
	<use xlink:href="#XMLID_3_"  style="overflow:visible;fill:url(#XMLID_10_);"/>
	<clipPath id="XMLID_11_">
		<use xlink:href="#XMLID_3_"  style="overflow:visible;"/>
	</clipPath>
	
		<linearGradient id="SVGID_9_" gradientUnits="userSpaceOnUse" x1="-474.2141" y1="2939.1619" x2="-474.2141" y2="644.668" gradientTransform="matrix(-0.93 -0.3676 -0.3676 0.93 1083.0792 -126.0156)">
		<stop  offset="0" style="stop-color:#ECCBAB"/>
		<stop  offset="0.5843" style="stop-color:#C69C6D"/>
	</linearGradient>
	<polygon class="st8" points="1555.8,3221.3 -668.4,2342.1 175,208.3 2399.3,1087.4 	"/>
	<g class="st9">
		<g>
			<defs>
				
					<rect id="SVGID_10_" x="-1068.6" y="-536.6" transform="matrix(0.3676 -0.93 0.93 0.3676 306.7612 1571.2148)" width="4754.5" height="2193.4"/>
			</defs>
			<clipPath id="SVGID_11_">
				<use xlink:href="#SVGID_10_"  style="overflow:visible;"/>
			</clipPath>
			
				<linearGradient id="SVGID_12_" gradientUnits="userSpaceOnUse" x1="-1499.2911" y1="3495.3044" x2="1449.5223" y2="3495.3044" gradientTransform="matrix(-0.93 -0.3676 -0.3676 0.93 1083.0792 -126.0156)">
				<stop  offset="0" style="stop-color:#ECCBAB"/>
				<stop  offset="0.5843" style="stop-color:#C69C6D"/>
			</linearGradient>
			<path class="st10" d="M-371.4,868.3c461.3,72.8,685.9,254.6,805.2,399.4c268,325.5,247,507,514.1,941.3
				c181.3,294.6,431,468.5,601,565.4C1082.4,3621.8,532.2,4621.7,66,5469l-2261.3-1244.2C-2195.3,4224.8-347.6,881.3-371.4,868.3z"
				/>
		</g>
	</g>
</g>
<g class="st7">
	<defs>
		<path id="XMLID_5_" class="st7" d="M163.6,1282.7c0,0-31,156.9-267.6,62.2c-236.7-94.7-325.4-82.5-431.5-83.1
			c-106.1-0.6-359.4-127.9-371.7-285.1c17.6-43.4,35.2-86.7,52.9-130.1c407.8-223.3,821.8-162,975.1,59
			C144.3,939.5,239.9,1063.7,163.6,1282.7z"/>
	</defs>
	
		<linearGradient id="XMLID_12_" gradientUnits="userSpaceOnUse" x1="890.9682" y1="2796.0737" x2="890.9682" y2="2139.5908" gradientTransform="matrix(-0.93 -0.3676 0.3676 -0.93 -402.4495 3632.3726)">
		<stop  offset="0" style="stop-color:#ECCBAB"/>
		<stop  offset="0.5843" style="stop-color:#C69C6D"/>
	</linearGradient>
	<use xlink:href="#XMLID_5_"  style="overflow:visible;fill:url(#XMLID_12_);"/>
	<clipPath id="XMLID_13_">
		<use xlink:href="#XMLID_5_"  style="overflow:visible;"/>
	</clipPath>
	
		<linearGradient id="SVGID_13_" gradientUnits="userSpaceOnUse" x1="848.9315" y1="1942.2032" x2="848.9315" y2="645.6689" gradientTransform="matrix(-0.93 -0.3676 -0.3676 0.93 1083.0792 -126.0156)">
		<stop  offset="0" style="stop-color:#ECCBAB"/>
		<stop  offset="0.5843" style="stop-color:#C69C6D"/>
	</linearGradient>
	<polygon class="st11" points="208.1,1616.5 -1048.8,1119.8 -572.2,-86 684.7,410.8 	"/>
	<g class="st12">
		<g>
			<defs>
				
					<rect id="SVGID_14_" x="-1274.9" y="-506.9" transform="matrix(0.3676 -0.93 0.93 0.3676 -61.6388 134.9493)" width="2686.6" height="1239.4"/>
			</defs>
			<clipPath id="SVGID_15_">
				<use xlink:href="#SVGID_14_"  style="overflow:visible;"/>
			</clipPath>
			
				<linearGradient id="SVGID_16_" gradientUnits="userSpaceOnUse" x1="269.6982" y1="2256.459" x2="1935.9645" y2="2256.459" gradientTransform="matrix(-0.93 -0.3676 -0.3676 0.93 1083.0792 -126.0156)">
				<stop  offset="0" style="stop-color:#ECCBAB"/>
				<stop  offset="0.5843" style="stop-color:#C69C6D"/>
			</linearGradient>
			<path class="st13" d="M-880.9,287c260.7,41.1,387.6,143.9,455,225.7c151.4,183.9,139.6,286.5,290.5,531.9
				C-33,1211,108.1,1309.3,204.1,1364c-263.6,478.9-574.5,1043.9-837.9,1522.7l-1277.8-703.1C-1911.5,2183.6-867.5,294.3-880.9,287z
				"/>
		</g>
	</g>
</g>
<g>
	<g>
		
			<linearGradient id="SVGID_17_" gradientUnits="userSpaceOnUse" x1="425.6" y1="4148.1655" x2="425.6" y2="4145.1655" gradientTransform="matrix(1 0 0 -1 0 4041.3213)">
			<stop  offset="0" style="stop-color:#486975"/>
			<stop  offset="0.584" style="stop-color:#213540"/>
		</linearGradient>
		<path class="st14" d="M425.6-103.8c1.9,0,1.9-3,0-3S423.7-103.8,425.6-103.8L425.6-103.8z"/>
	</g>
</g>
<g>
	<line class="st15" x1="-1176.2" y1="1570.5" x2="-1120" y2="1601.2"/>
	<g>
		<line class="st15" x1="-1087.1" y1="1473.2" x2="-1030.9" y2="1503.9"/>
		<line class="st15" x1="-1035.7" y1="1392.1" x2="-979.5" y2="1422.8"/>
		<line class="st15" x1="-807.3" y1="1291" x2="-864.7" y2="1259.5"/>
	</g>
</g>
<linearGradient id="SVGID_18_" gradientUnits="userSpaceOnUse" x1="915.2441" y1="410.5547" x2="968.6441" y2="410.5547" gradientTransform="matrix(1 0 0 -1 0 1705.3212)">
	<stop  offset="0" style="stop-color:#ECCBAB"/>
	<stop  offset="0.5843" style="stop-color:#C69C6D"/>
</linearGradient>
<circle class="st16" cx="941.9" cy="1294.8" r="26.7"/>
<linearGradient id="SVGID_19_" gradientUnits="userSpaceOnUse" x1="407.4207" y1="495.5553" x2="530.5638" y2="495.5553" gradientTransform="matrix(1 0 0 -1 0 1705.3212)">
	<stop  offset="0" style="stop-color:#ECCBAB"/>
	<stop  offset="0.5843" style="stop-color:#C69C6D"/>
</linearGradient>
<circle class="st17" cx="469" cy="1209.8" r="61.6"/>
</svg>
