<?xml version="1.0" encoding="utf-8"?>
<!-- Generator: Adobe Illustrator 24.2.1, SVG Export Plug-In . SVG Version: 6.00 Build 0)  -->
<svg version="1.1" id="Layer_1" xmlns="http://www.w3.org/2000/svg" xmlns:xlink="http://www.w3.org/1999/xlink" x="0px" y="0px"
	 viewBox="0 0 1125 2436" style="enable-background:new 0 0 1125 2436;" xml:space="preserve">
<style type="text/css">
	.st0{fill:#F1E4CF;}
</style>
<path class="st0" d="M267.3,2081.5c-63.8,56.8-240.2,6.2-314.5-99c-78.5-111.3,9.6-209.5-35-398.2
	c-33.9-143.6-144.4-338.5-328.3-389.6c-196.7-54.6-412.9,73.3-515.2,222.2c-194.9,283.9-60.2,767.7,248.5,984.1
	c363.1,254.5,979.6,272.5,1209.1,103.4c34.8-25.7,492.3-284,447.4-704.6c-42-394-625.3-762.4-649.7-1167.1
	c-13.1-217.1,92.2-488.3,282.8-584.7c297.8-150.6,801.9,126.8,1239.4,367.5c31,17,49.4,28.2,54,23.1
	c29.5-32.6-431.2-826.4-1100.7-867.3C456.3-450.1,47.4-267.2-114.4,49.6C-271,356.2-157.6,712.6,3,1217.3
	C164.7,1725.8,360.9,1998.2,267.3,2081.5z"/>
<ellipse transform="matrix(0.6777 -0.7354 0.7354 0.6777 -172.665 1025.0704)" class="st0" cx="1083" cy="709.5" rx="512.5" ry="563"/>
<image style="overflow:visible;" width="1494" height="960" xlink:href="../../../../Desktop/Screen Shot 2020-07-11 at 12.46.30.png"  transform="matrix(1.0963 0 0 1.0963 2590 1134.8263)">
</image>
<g id="_x31_SuDPV_1_">
	
		<image style="overflow:visible;" width="1444" height="1090" id="_x31_SuDPV" xlink:href="F9171619FC6E25B4.png"  transform="matrix(0.5 0 0 0.5 2030.8209 100.8488)">
	</image>
</g>
</svg>
