<?xml version="1.0" encoding="utf-8"?>
<!-- Generator: Adobe Illustrator 24.2.1, SVG Export Plug-In . SVG Version: 6.00 Build 0)  -->
<svg version="1.1" id="Layer_1" xmlns="http://www.w3.org/2000/svg" xmlns:xlink="http://www.w3.org/1999/xlink" x="0px" y="0px"
	 viewBox="0 0 1125 1200.9" style="enable-background:new 0 0 1125 1200.9;" xml:space="preserve">
<style type="text/css">
	.st0{fill:url(#SVGID_1_);}
	.st1{fill:none;}
	.st2{opacity:0.29;fill:url(#SVGID_2_);enable-background:new    ;}
	.st3{opacity:0.29;fill:url(#SVGID_3_);enable-background:new    ;}
</style>
<g>
	<g>
		
			<linearGradient id="SVGID_1_" gradientUnits="userSpaceOnUse" x1="425.6" y1="8785.0947" x2="425.6" y2="8782.0947" gradientTransform="matrix(1 0 0 -1 0 8678.25)">
			<stop  offset="0" style="stop-color:#486975"/>
			<stop  offset="0.584" style="stop-color:#213540"/>
		</linearGradient>
		<path class="st0" d="M425.6-103.8c1.9,0,1.9-3,0-3S423.7-103.8,425.6-103.8L425.6-103.8z"/>
	</g>
</g>
<g>
	<line class="st1" x1="-1176.2" y1="1570.5" x2="-1120" y2="1601.2"/>
	<g>
		<line class="st1" x1="-1087.1" y1="1473.2" x2="-1030.9" y2="1503.9"/>
		<line class="st1" x1="-1035.7" y1="1392.1" x2="-979.5" y2="1422.8"/>
		<line class="st1" x1="-807.3" y1="1291" x2="-864.7" y2="1259.5"/>
	</g>
</g>
<linearGradient id="SVGID_2_" gradientUnits="userSpaceOnUse" x1="2219.5916" y1="2272.675" x2="3098.3225" y2="2272.675" gradientTransform="matrix(0.9769 0.2136 0.2136 -0.9769 -76.4546 2050.043)">
	<stop  offset="0" style="stop-color:#ECCBAB"/>
	<stop  offset="0.5843" style="stop-color:#C69C6D"/>
</linearGradient>
<path class="st2" d="M3495.5,181c17.3-123.2-65.7-239.2-189.2-261.6c-33.9-6.2-67.5-4.6-98.8,3.3
	c-114.7,22.9-227.3,86.6-271.8,155.6c-16.2,25-31,49.4-47.9,74.7c-13.8,17.9-27.4,36.7-40.6,56.4
	c-42.5,54.6-102.7,117.9-206.9,202.9c-85.8,70-116.7,129.4-124.5,173.9c-1.5,5.7-2.8,11.5-3.8,17.4c-23,126.7,61,248.1,187.7,271.1
	c17.2,3.1,34.4,4.3,51.2,3.6c120,8.9,298.9-127.7,350.4-207.5c16.2-25,31-49.4,47.9-74.7c13.8-17.9,27.4-36.7,40.6-56.4
	c42.5-54.5,102.8-117.8,207-202.8C3503.4,249.8,3497.7,227.1,3495.5,181z"/>
<linearGradient id="SVGID_3_" gradientUnits="userSpaceOnUse" x1="-529.0057" y1="662.6768" x2="266.4065" y2="662.6768" gradientTransform="matrix(-0.286 0.9582 0.9582 0.286 2514.1284 1382.8885)">
	<stop  offset="0" style="stop-color:#ECCBAB"/>
	<stop  offset="0.5843" style="stop-color:#C69C6D"/>
</linearGradient>
<path class="st3" d="M3349.4,1902.7c110.1,23.9,220.3-43.2,248.9-153.2c7.9-30.2,8.7-60.6,3.7-89.4c-13-105.1-62.8-211-122.1-255.9
	c-21.5-16.3-42.5-31.3-64.2-48.3c-15.2-13.7-31.3-27.2-48.2-40.4c-46.3-42.1-99.4-100.7-169.1-200.5
	c-57.4-82.2-108.9-114.1-148.6-124.1c-5.1-1.7-10.2-3.3-15.5-4.7c-112.8-29.3-228.1,38.3-257.4,151.2c-4,15.4-6.2,30.8-6.7,46
	c-16.1,107.7,95.1,278.5,163.6,330.3c21.5,16.3,42.5,31.3,64.2,48.3c15.2,13.7,31.3,27.2,48.2,40.4
	c46.3,42.1,99.4,100.7,169.1,200.5C3286.8,1905.2,3307.6,1901.5,3349.4,1902.7z"/>
</svg>
