<?xml version="1.0" encoding="utf-8"?>
<!-- Generator: Adobe Illustrator 24.2.1, SVG Export Plug-In . SVG Version: 6.00 Build 0)  -->
<svg version="1.1" id="Layer_1" xmlns="http://www.w3.org/2000/svg" xmlns:xlink="http://www.w3.org/1999/xlink" x="0px" y="0px"
	 viewBox="0 0 1125 1200.9" style="enable-background:new 0 0 1125 1200.9;" xml:space="preserve">
<style type="text/css">
	.st0{fill:url(#SVGID_1_);}
	.st1{fill:none;}
	.st2{opacity:0.29;fill:url(#SVGID_2_);enable-background:new    ;}
	.st3{opacity:0.29;fill:url(#SVGID_3_);enable-background:new    ;}
	.st4{opacity:0.21;}
	.st5{opacity:0.21;fill:url(#SVGID_4_);enable-background:new    ;}
	.st6{clip-path:url(#SVGID_7_);fill:url(#SVGID_8_);}
	.st7{clip-path:url(#SVGID_11_);fill:url(#SVGID_12_);}
	.st8{opacity:0.2;}
	.st9{opacity:0.2;fill:url(#SVGID_13_);enable-background:new    ;}
	.st10{clip-path:url(#SVGID_15_);fill:url(#SVGID_16_);}
	.st11{clip-path:url(#SVGID_18_);fill:url(#SVGID_19_);}
	.st12{fill:none;stroke:#91BCC6;stroke-miterlimit:10;}
	.st13{opacity:0.5;fill:none;stroke:#91BCC6;stroke-miterlimit:10;}
	.st14{opacity:0.5;fill:none;stroke:#EC6338;stroke-miterlimit:10;}
	.st15{fill:none;stroke:#EC6338;stroke-miterlimit:10;}
</style>
<g>
	<g>
		
			<linearGradient id="SVGID_1_" gradientUnits="userSpaceOnUse" x1="425.6" y1="-7584.1655" x2="425.6" y2="-7581.1655" gradientTransform="matrix(1 0 0 1 0 7477.3213)">
			<stop  offset="0" style="stop-color:#486975"/>
			<stop  offset="0.584" style="stop-color:#213540"/>
		</linearGradient>
		<path class="st0" d="M425.6-103.8c1.9,0,1.9-3,0-3S423.7-103.8,425.6-103.8L425.6-103.8z"/>
	</g>
</g>
<g>
	<line class="st1" x1="-1176.2" y1="1570.5" x2="-1120" y2="1601.2"/>
	<g>
		<line class="st1" x1="-1087.1" y1="1473.2" x2="-1030.9" y2="1503.9"/>
		<line class="st1" x1="-1035.7" y1="1392.1" x2="-979.5" y2="1422.8"/>
		<line class="st1" x1="-807.3" y1="1291" x2="-864.7" y2="1259.5"/>
	</g>
</g>
<linearGradient id="SVGID_2_" gradientUnits="userSpaceOnUse" x1="2280.8718" y1="-1138.6527" x2="3159.6028" y2="-1138.6527" gradientTransform="matrix(0.9769 0.2136 -0.2136 0.9769 105.9078 929.127)">
	<stop  offset="0" style="stop-color:#ECCBAB"/>
	<stop  offset="0.5843" style="stop-color:#C69C6D"/>
</linearGradient>
<path class="st2" d="M3495.5,181c17.3-123.2-65.7-239.2-189.2-261.6c-33.9-6.2-67.5-4.6-98.8,3.3
	c-114.7,22.9-227.3,86.6-271.8,155.6c-16.2,25-31,49.4-47.9,74.7c-13.8,17.9-27.4,36.7-40.6,56.4
	c-42.5,54.6-102.7,117.9-206.9,202.9c-85.8,70-116.7,129.4-124.5,173.9c-1.5,5.7-2.8,11.5-3.8,17.4c-23,126.7,61,248.1,187.7,271.1
	c17.2,3.1,34.4,4.3,51.2,3.6c120,8.9,298.9-127.7,350.4-207.5c16.2-25,31-49.4,47.9-74.7c13.8-17.9,27.4-36.7,40.6-56.4
	c42.5-54.5,102.8-117.8,207-202.8C3503.4,249.8,3497.7,227.1,3495.5,181z"/>
<linearGradient id="SVGID_3_" gradientUnits="userSpaceOnUse" x1="-584.0376" y1="-136.7678" x2="211.3746" y2="-136.7678" gradientTransform="matrix(-0.286 0.9582 -0.9582 -0.286 3002.3152 1586.0302)">
	<stop  offset="0" style="stop-color:#ECCBAB"/>
	<stop  offset="0.5843" style="stop-color:#C69C6D"/>
</linearGradient>
<path class="st3" d="M3349.4,1902.7c110.1,23.9,220.3-43.2,248.9-153.2c7.9-30.2,8.7-60.6,3.7-89.4c-13-105.1-62.8-211-122.1-255.9
	c-21.5-16.3-42.5-31.3-64.2-48.3c-15.2-13.7-31.3-27.2-48.2-40.4c-46.3-42.1-99.4-100.7-169.1-200.5
	c-57.4-82.2-108.9-114.1-148.6-124.1c-5.1-1.7-10.2-3.3-15.5-4.7c-112.8-29.3-228.1,38.3-257.4,151.2c-4,15.4-6.2,30.8-6.7,46
	c-16.1,107.7,95.1,278.5,163.6,330.3c21.5,16.3,42.5,31.3,64.2,48.3c15.2,13.7,31.3,27.2,48.2,40.4
	c46.3,42.1,99.4,100.7,169.1,200.5C3286.8,1905.2,3307.6,1901.5,3349.4,1902.7z"/>
<g class="st4">
	<g>
		
			<linearGradient id="SVGID_4_" gradientUnits="userSpaceOnUse" x1="1239.2402" y1="711.0203" x2="1566.9309" y2="711.0203" gradientTransform="matrix(0.817 0.5767 0.5767 -0.817 -547.0707 240.485)">
			<stop  offset="0" style="stop-color:#A5D9E6"/>
			<stop  offset="1" style="stop-color:#247581"/>
		</linearGradient>
		<path id="SVGID_5_" class="st5" d="M947.9,670.9c-48.3,2.7-58-34.2-47.4-58.1c15-33.8,35.2-33-4.2-75.3
			c-13.4-14.4-21.6-34.6-17.8-54.3c2.7-14.2,11.8-27.2,24.5-34c7.1-3.8,15.1-5.6,22.5-8.7c7.4-3.1,14.7-7.9,17.9-15.2
			c3.1-7.1,1.7-15.4-0.9-22.7c-6.2-17.5-19.5-32-24.2-50.2c-3.9-15.3-2.5-34.1,6.1-47.6c11.2-17.7,32.8-25.4,52.1-30.6
			c22.6-6,46.4-7.4,69.7-4.8c29.8,3.4,58.7,13,85.3,26.6c23.7,12.1,46.2,27.4,63.9,47.4c28.1,31.5,52.1,87.4,15.3,121.7
			c-44.3,41.3-88-5.4-79.9,47.7c4.9,31.8-7.5,85.6-74.1,73.9S1017.4,667.1,947.9,670.9z"/>
	</g>
	<g>
		<defs>
			<path id="SVGID_6_" d="M947.9,670.9c-48.3,2.7-58-34.2-47.4-58.1c15-33.8,35.2-33-4.2-75.3c-13.4-14.4-21.6-34.6-17.8-54.3
				c2.7-14.2,11.8-27.2,24.5-34c7.1-3.8,15.1-5.6,22.5-8.7c7.4-3.1,14.7-7.9,17.9-15.2c3.1-7.1,1.7-15.4-0.9-22.7
				c-6.2-17.5-19.5-32-24.2-50.2c-3.9-15.3-2.5-34.1,6.1-47.6c11.2-17.7,32.8-25.4,52.1-30.6c22.6-6,46.4-7.4,69.7-4.8
				c29.8,3.4,58.7,13,85.3,26.6c23.7,12.1,46.2,27.4,63.9,47.4c28.1,31.5,52.1,87.4,15.3,121.7c-44.3,41.3-88-5.4-79.9,47.7
				c4.9,31.8-7.5,85.6-74.1,73.9S1017.4,667.1,947.9,670.9z"/>
		</defs>
		<clipPath id="SVGID_7_">
			<use xlink:href="#SVGID_6_"  style="overflow:visible;"/>
		</clipPath>
		
			<linearGradient id="SVGID_8_" gradientUnits="userSpaceOnUse" x1="-289.573" y1="-913.944" x2="-367.1325" y2="-1057.8372" gradientTransform="matrix(0.4985 0.8669 0.8669 -0.4985 2004.9496 249.9312)">
			<stop  offset="0" style="stop-color:#A5D9E6"/>
			<stop  offset="1" style="stop-color:#247581"/>
		</linearGradient>
		<path class="st6" d="M1003.4,660.8c-47.4,9.4-62.1-25.9-55-50.9c10.2-35.5,30.3-37.5-14.6-74.1c-15.3-12.4-26.1-31.3-25.1-51.4
			c0.7-14.4,7.9-28.6,19.6-37.1c6.5-4.7,14.2-7.6,21.1-11.7c6.9-4.1,13.5-9.8,15.6-17.6c2.1-7.5-0.4-15.5-4-22.3
			c-8.6-16.5-23.7-29-30.9-46.4c-6-14.6-7.2-33.4-0.6-48c8.7-19.1,29-29.7,47.4-37.5c21.6-9.2,44.9-13.8,68.3-14.4
			c29.9-0.8,59.9,4.8,88.2,14.5c25.2,8.7,49.6,20.8,69.9,38.1c32.2,27.3,63.6,79.4,32,118.4c-38.1,47-87.9,6.9-72.5,58.3
			c9.2,30.9,4.4,85.9-63.1,83.4C1032.2,559.8,1071.7,647.3,1003.4,660.8z"/>
	</g>
	<g>
		<defs>
			<path id="SVGID_9_" d="M947.9,670.9c-48.3,2.7-58-34.2-47.4-58.1c15-33.8,35.2-33-4.2-75.3c-13.4-14.4-21.6-34.6-17.8-54.3
				c2.7-14.2,11.8-27.2,24.5-34c7.1-3.8,15.1-5.6,22.5-8.7c7.4-3.1,14.7-7.9,17.9-15.2c3.1-7.1,1.7-15.4-0.9-22.7
				c-6.2-17.5-19.5-32-24.2-50.2c-3.9-15.3-2.5-34.1,6.1-47.6c11.2-17.7,32.8-25.4,52.1-30.6c22.6-6,46.4-7.4,69.7-4.8
				c29.8,3.4,58.7,13,85.3,26.6c23.7,12.1,46.2,27.4,63.9,47.4c28.1,31.5,52.1,87.4,15.3,121.7c-44.3,41.3-88-5.4-79.9,47.7
				c4.9,31.8-7.5,85.6-74.1,73.9S1017.4,667.1,947.9,670.9z"/>
		</defs>
		<clipPath id="SVGID_11_">
			<use xlink:href="#SVGID_9_"  style="overflow:visible;"/>
		</clipPath>
		
			<linearGradient id="SVGID_12_" gradientUnits="userSpaceOnUse" x1="-426.2583" y1="-769.4518" x2="-503.8224" y2="-913.3536" gradientTransform="matrix(0.5865 0.8099 0.8099 -0.5865 1961.2009 339.1939)">
			<stop  offset="0" style="stop-color:#A5D9E6"/>
			<stop  offset="1" style="stop-color:#247581"/>
		</linearGradient>
		<path class="st7" d="M1045.1,657.1c-46.2,14.3-78.7-16.1-74.2-41.8c6.4-36.4,40.4-43.6-8.1-75.2c-16.5-10.7-29.3-28.4-30.4-48.4
			c-0.7-14.4,4.9-29.2,15.6-38.9c6-5.4,13.3-9,19.8-13.8c6.5-4.7,12.4-11.2,13.7-19.1c1.2-7.7-2.1-15.3-6.3-21.8
			c-10.3-15.5-26.7-26.4-35.6-42.9c-7.5-13.9-10.7-32.5-5.5-47.7c6.7-19.9,25.7-32.6,43.1-42.3c20.5-11.3,43.3-18.4,66.4-21.4
			c29.7-3.9,60-1.5,89.3,5.2c26,6,51.4,15.5,73.5,30.5c34.8,23.8,71.6,72.2,44.2,114.4c-33,50.7-86.7,16-66,65.6
			c12.4,29.7,13.4,85-54,89.6C1063.1,553.7,1111.6,636.5,1045.1,657.1z"/>
	</g>
</g>
<g class="st8">
	<g>
		
			<linearGradient id="SVGID_13_" gradientUnits="userSpaceOnUse" x1="2365.584" y1="-2457.9751" x2="2762.2295" y2="-2457.9751" gradientTransform="matrix(-0.9592 -0.2827 -0.2827 0.9592 1702.677 3582.467)">
			<stop  offset="0" style="stop-color:#A5D9E6"/>
			<stop  offset="1" style="stop-color:#247581"/>
		</linearGradient>
		<path id="SVGID_10_" class="st9" d="M-70.2,244.4c54.3-21.9,79.8,16.6,76.9,48.1c-4,44.5-27.5,51.5,34.1,84.7
			c21,11.2,38.2,31.2,41.5,55.3c2.4,17.3-2.8,35.8-14.8,48.5c-6.6,7.1-15.1,12.3-22.4,18.7s-13.8,14.7-14.6,24.4
			c-0.7,9.3,4,18.3,9.8,25.6c14,17.7,34.9,29.1,47.3,48.1c10.5,16,16.1,38.1,11.6,56.9c-6,24.7-27.7,41.9-47.8,55.4
			C28,725.9,1.2,736.7-26.4,742.7c-35.4,7.8-72.3,8-108.2,2.8c-32-4.6-63.6-13.5-91.7-29.4c-44.4-25.2-93.7-79.8-64.9-133.5
			c34.7-64.6,103-28.1,72.9-85.9c-18-34.5-24.8-101.1,56.1-113.5C-81.4,370.9-148.3,276-70.2,244.4z"/>
	</g>
	<g>
		<defs>
			<path id="SVGID_14_" d="M-70.2,244.4c54.3-21.9,79.8,16.6,76.9,48.1c-4,44.5-27.5,51.5,34.1,84.7c21,11.2,38.2,31.2,41.5,55.3
				c2.4,17.3-2.8,35.8-14.8,48.5c-6.6,7.1-15.1,12.3-22.4,18.7s-13.8,14.7-14.6,24.4c-0.7,9.3,4,18.3,9.8,25.6
				c14,17.7,34.9,29.1,47.3,48.1c10.5,16,16.1,38.1,11.6,56.9c-6,24.7-27.7,41.9-47.8,55.4C28,725.9,1.2,736.7-26.4,742.7
				c-35.4,7.8-72.3,8-108.2,2.8c-32-4.6-63.6-13.5-91.7-29.4c-44.4-25.2-93.7-79.8-64.9-133.5c34.7-64.6,103-28.1,72.9-85.9
				c-18-34.5-24.8-101.1,56.1-113.5C-81.4,370.9-148.3,276-70.2,244.4z"/>
		</defs>
		<clipPath id="SVGID_15_">
			<use xlink:href="#SVGID_14_"  style="overflow:visible;"/>
		</clipPath>
		
			<linearGradient id="SVGID_16_" gradientUnits="userSpaceOnUse" x1="2100.4429" y1="-3287.8501" x2="2006.5637" y2="-3462.0205" gradientTransform="matrix(-0.7512 -0.6601 -0.6601 0.7512 -716.2446 4395.6611)">
			<stop  offset="0" style="stop-color:#A5D9E6"/>
			<stop  offset="1" style="stop-color:#247581"/>
		</linearGradient>
		<path class="st10" d="M-129.8,277.7c50.7-29.2,81.3,5.5,82.9,37c2.2,44.7-20.1,54.8,45.6,79.1c22.3,8.2,42.2,25.7,48.8,49
			c4.8,16.8,2.1,35.8-8,50.1c-5.6,8-13.2,14.3-19.6,21.6c-6.4,7.4-11.6,16.5-11.1,26.2c0.6,9.4,6.5,17.6,13.3,24
			c16.3,15.6,38.6,24,53.5,41.1c12.6,14.4,21.3,35.5,19.4,54.8c-2.5,25.2-21.6,45.3-39.7,61.5c-21.1,18.9-46.1,33.3-72.7,43.1
			c-34,12.6-70.5,17.8-106.7,17.7c-32.3-0.1-64.9-4.5-94.9-16.4c-47.5-18.8-103.9-66.1-82.8-123.2c25.4-68.8,98.1-42.2,60.3-95.2
			c-22.6-31.8-38.6-96.7,39.8-120.1C-123.4,404.6-202.9,319.8-129.8,277.7z"/>
	</g>
	<g>
		<defs>
			<path id="SVGID_17_" d="M-70.2,244.4c54.3-21.9,79.8,16.6,76.9,48.1c-4,44.5-27.5,51.5,34.1,84.7c21,11.2,38.2,31.2,41.5,55.3
				c2.4,17.3-2.8,35.8-14.8,48.5c-6.6,7.1-15.1,12.3-22.4,18.7s-13.8,14.7-14.6,24.4c-0.7,9.3,4,18.3,9.8,25.6
				c14,17.7,34.9,29.1,47.3,48.1c10.5,16,16.1,38.1,11.6,56.9c-6,24.7-27.7,41.9-47.8,55.4C28,725.9,1.2,736.7-26.4,742.7
				c-35.4,7.8-72.3,8-108.2,2.8c-32-4.6-63.6-13.5-91.7-29.4c-44.4-25.2-93.7-79.8-64.9-133.5c34.7-64.6,103-28.1,72.9-85.9
				c-18-34.5-24.8-101.1,56.1-113.5C-81.4,370.9-148.3,276-70.2,244.4z"/>
		</defs>
		<clipPath id="SVGID_18_">
			<use xlink:href="#SVGID_17_"  style="overflow:visible;"/>
		</clipPath>
		
			<linearGradient id="SVGID_19_" gradientUnits="userSpaceOnUse" x1="1702.5225" y1="-3376.2087" x2="1608.6378" y2="-3550.3894" gradientTransform="matrix(-0.8162 -0.5777 -0.5777 0.8162 -703.6827 4296.9834)">
			<stop  offset="0" style="stop-color:#A5D9E6"/>
			<stop  offset="1" style="stop-color:#247581"/>
		</linearGradient>
		<path class="st11" d="M-176.2,298.2c47.4-34.4,96.5-12.2,101.3,19c6.9,44.2-29.3,65.7,38.6,83c23.1,5.9,44.6,21.1,53.6,43.7
			c6.5,16.2,5.9,35.4-2.7,50.7c-4.8,8.5-11.6,15.6-17.2,23.5c-5.6,8-9.9,17.6-8.2,27.2c1.5,9.3,8.3,16.8,15.7,22.5
			c17.8,13.7,40.8,19.8,57.5,35.2c14,13,24.9,33.1,25,52.4c0.1,25.3-16.7,47.4-32.9,65.3c-19.1,21-42.4,37.9-67.8,50.5
			c-32.5,16.1-68.2,25.2-104.3,28.8c-32.1,3.3-65,2.3-96.1-6.4c-49.2-13.7-110.2-54.8-95.3-113.8c18.1-71.1,93.1-52.1,50-100.9
			c-25.8-29.2-48.5-92.1,27-123.7C-156.5,423.7-244.5,347.7-176.2,298.2z"/>
	</g>
</g>
<rect x="501.4" y="573.8" transform="matrix(0.1243 0.9922 -0.9922 0.1243 1034.7184 3.3308)" class="st12" width="28.2" height="28.2"/>
<rect x="309.3" y="434" transform="matrix(0.1243 0.9922 -0.9922 0.1243 724.1721 71.714)" class="st13" width="24.2" height="24.2"/>
<rect x="53.2" y="279.7" transform="matrix(0.1243 0.9922 -0.9922 0.1243 336.2002 191.4671)" class="st14" width="12.9" height="12.9"/>
<rect x="414.7" y="262.9" transform="matrix(0.1243 0.9922 -0.9922 0.1243 650.3517 -182.9013)" class="st13" width="28.2" height="28.2"/>
<rect x="222.7" y="123.1" transform="matrix(0.1243 0.9922 -0.9922 0.1243 339.8054 -114.5181)" class="st13" width="24.2" height="24.2"/>
<rect x="179.6" y="95.2" transform="matrix(0.1243 0.9922 -0.9922 0.1243 263.7607 -95.636)" class="st14" width="12.9" height="12.9"/>
<circle class="st13" cx="368.2" cy="717.9" r="13.2"/>
<circle class="st12" cx="632.5" cy="634.6" r="27"/>
<circle class="st12" cx="578" cy="738.6" r="20.9"/>
<circle class="st14" cx="171.4" cy="803" r="27"/>
<circle class="st15" cx="1071.9" cy="106.3" r="27"/>
<rect x="439.7" y="814" transform="matrix(0.1243 0.9922 -0.9922 0.1243 1215.2991 275.1228)" class="st13" width="24.2" height="24.2"/>
<rect x="202.2" y="1052.3" transform="matrix(0.1243 0.9922 -0.9922 0.1243 1233.2653 720.183)" class="st14" width="12.9" height="12.9"/>
</svg>
