<?xml version="1.0" encoding="utf-8"?>
<!-- Generator: Adobe Illustrator 24.2.1, SVG Export Plug-In . SVG Version: 6.00 Build 0)  -->
<svg version="1.1" id="Layer_1" xmlns="http://www.w3.org/2000/svg" xmlns:xlink="http://www.w3.org/1999/xlink" x="0px" y="0px"
	 viewBox="0 0 100 100" style="enable-background:new 0 0 100 100;" xml:space="preserve">
<style type="text/css">
	.st0{fill:none;stroke:#0E232E;stroke-miterlimit:10;}
</style>
<g>
	<path class="st0" d="M34.9,41.3h28.9c0.6,0,1.1-0.5,1.1-1.1s-0.4-1.2-1-1.2h-29c-0.6,0-1.1,0.5-1.1,1.1S34.3,41.3,34.9,41.3z"/>
	<path class="st0" d="M29.9,46.5h38.9c0.6,0,1.1-0.5,1.1-1.1s-0.5-1.1-1.1-1.1H29.9c-0.6,0-1.1,0.5-1.1,1.1S29.3,46.5,29.9,46.5z"/>
	<path class="st0" d="M29.9,52.6h38.9c0.6,0,1.1-0.5,1.1-1.1s-0.5-1.1-1.1-1.1H29.9c-0.6,0-1.1,0.5-1.1,1.1S29.3,52.6,29.9,52.6z"/>
	<path class="st0" d="M27.1,58.1h24.5c0.6,0,1.1-0.5,1.1-1.1s-0.5-1.1-1.1-1.1H27.1c-0.6,0-1.1,0.5-1.1,1.1S26.6,58.1,27.1,58.1z"/>
	<path class="st0" d="M76.1,33.5H22.7c-0.6,0-1.1,0.5-1.1,1.1v31.1c0,0.6,0.5,1.1,1.1,1.1h32.2c0.4,0.9,1,1.6,1.6,2.3
		c-0.1,0.1-0.1,0.1-0.1,0.2l-3.5,8.4c-0.2,0.4-0.1,0.9,0.3,1.2c0.4,0.3,0.9,0.4,1.3,0.2l2.8-1.3l2.6,2.3c0.2,0.2,0.5,0.3,0.8,0.3
		c0.1,0,0.2,0,0.4-0.1c0.4-0.1,0.6-0.4,0.7-0.9l1.3-7.2c0.4,0.1,0.7,0.1,1.1,0.1c0.4,0,0.7,0,1.1-0.1l1.1,7.2
		c0.1,0.4,0.4,0.7,0.7,0.9c0.1,0.1,0.2,0.1,0.4,0.1c0.3,0,0.6-0.1,0.8-0.3l2.6-2.3l2.8,1.3c0.4,0.2,0.9,0.1,1.3-0.2s0.4-0.8,0.3-1.2
		l-3.5-8.4c-0.1-0.1-0.1-0.1-0.1-0.2c0.6-0.7,1.2-1.5,1.6-2.3h3.3c0.6,0,1.1-0.5,1.1-1.1V34.6C77.2,34,76.7,33.5,76.1,33.5z
		 M59.7,77.2L58,75.8c-0.4-0.3-0.9-0.4-1.2-0.2L56,76l2.3-5.3c0.7,0.5,1.6,0.9,2.4,1.2L59.7,77.2z M56.1,62.4c0-4.3,3.5-7.8,7.8-7.8
		s7.8,3.5,7.8,7.8c0,4.3-3.5,7.8-7.8,7.8C59.5,70.2,56.1,66.6,56.1,62.4z M71.7,76l-0.9-0.4c-0.4-0.2-0.9-0.1-1.2,0.2L68,77.2
		l-0.9-5.4c0.9-0.3,1.6-0.7,2.4-1.2L71.7,76z"/>
	<path class="st0" d="M63.9,56.9c-3,0-5.5,2.5-5.5,5.5c0,3,2.5,5.5,5.5,5.5s5.5-2.5,5.5-5.5C69.4,59.3,66.9,56.9,63.9,56.9z
		 M63.9,65.7c-1.8,0-3.3-1.5-3.3-3.3c0-1.8,1.5-3.3,3.3-3.3c1.8,0,3.3,1.5,3.3,3.3C67.2,64.2,65.7,65.7,63.9,65.7z"/>
</g>
</svg>
