<?xml version="1.0" encoding="utf-8"?>
<!-- Generator: Adobe Illustrator 24.2.1, SVG Export Plug-In . SVG Version: 6.00 Build 0)  -->
<svg version="1.1" id="Layer_1" xmlns="http://www.w3.org/2000/svg" xmlns:xlink="http://www.w3.org/1999/xlink" x="0px" y="0px"
	 viewBox="0 0 100 100" style="enable-background:new 0 0 100 100;" xml:space="preserve">
<style type="text/css">
	
		.st0{opacity:0.26;fill:none;stroke:url(#SVGID_1_);stroke-width:2;stroke-linecap:round;stroke-linejoin:round;stroke-miterlimit:10;enable-background:new    ;}
	.st1{opacity:0.28;}
	.st2{fill:#BCA49A;}
	.st3{fill:none;stroke:url(#SVGID_2_);stroke-width:2;stroke-linecap:round;stroke-linejoin:round;stroke-miterlimit:10;}
	.st4{fill:none;stroke:#BCA49A;stroke-miterlimit:10;}
</style>
<linearGradient id="SVGID_1_" gradientUnits="userSpaceOnUse" x1="4.6" y1="-620.6" x2="98.2" y2="-620.6" gradientTransform="matrix(1 0 0 -1 0 -568)">
	<stop  offset="0" style="stop-color:#D1C4B0"/>
	<stop  offset="1" style="stop-color:#F9F2E7"/>
</linearGradient>
<path class="st0" d="M51.4,6.8c25.2,0,45.8,20.6,45.8,45.8S76.6,98.4,51.4,98.4S5.6,77.9,5.6,52.6S26.1,6.8,51.4,6.8z"/>
<g class="st1">
	<path class="st2" d="M49.1,6.4C23.6,6.4,3,27.1,3,52.6s20.7,46.2,46.2,46.2s46.2-20.7,46.2-46.2C95.2,27.1,74.6,6.4,49.1,6.4z"/>
</g>
<linearGradient id="SVGID_2_" gradientUnits="userSpaceOnUse" x1="3.6" y1="-619.6" x2="97.2" y2="-619.6" gradientTransform="matrix(1 0 0 -1 0 -568)">
	<stop  offset="0" style="stop-color:#D1C4B0"/>
	<stop  offset="1" style="stop-color:#F9F2E7"/>
</linearGradient>
<path class="st3" d="M50.4,5.8c25.2,0,45.8,20.6,45.8,45.8S75.6,97.4,50.4,97.4S4.6,76.9,4.6,51.6S25.1,5.8,50.4,5.8z"/>
<g>
	<path class="st4" d="M34.9,41.3h28.9c0.6,0,1.1-0.5,1.1-1.1s-0.4-1.2-1-1.2h-29c-0.6,0-1.1,0.5-1.1,1.1S34.3,41.3,34.9,41.3z"/>
	<path class="st4" d="M29.9,46.5h38.9c0.6,0,1.1-0.5,1.1-1.1s-0.5-1.1-1.1-1.1H29.9c-0.6,0-1.1,0.5-1.1,1.1S29.3,46.5,29.9,46.5z"/>
	<path class="st4" d="M29.9,52.6h38.9c0.6,0,1.1-0.5,1.1-1.1s-0.5-1.1-1.1-1.1H29.9c-0.6,0-1.1,0.5-1.1,1.1S29.3,52.6,29.9,52.6z"/>
	<path class="st4" d="M27.1,58.1h24.5c0.6,0,1.1-0.5,1.1-1.1s-0.5-1.1-1.1-1.1H27.1c-0.6,0-1.1,0.5-1.1,1.1S26.6,58.1,27.1,58.1z"/>
	<path class="st4" d="M76.1,33.5H22.7c-0.6,0-1.1,0.5-1.1,1.1v31.1c0,0.6,0.5,1.1,1.1,1.1h32.2c0.4,0.9,1,1.6,1.6,2.3
		c-0.1,0.1-0.1,0.1-0.1,0.2l-3.5,8.4c-0.2,0.4-0.1,0.9,0.3,1.2c0.4,0.3,0.9,0.4,1.3,0.2l2.8-1.3l2.6,2.3c0.2,0.2,0.5,0.3,0.8,0.3
		c0.1,0,0.2,0,0.4-0.1c0.4-0.1,0.6-0.4,0.7-0.9l1.3-7.2c0.4,0.1,0.7,0.1,1.1,0.1c0.4,0,0.7,0,1.1-0.1l1.1,7.2
		c0.1,0.4,0.4,0.7,0.7,0.9c0.1,0.1,0.2,0.1,0.4,0.1c0.3,0,0.6-0.1,0.8-0.3l2.6-2.3l2.8,1.3c0.4,0.2,0.9,0.1,1.3-0.2s0.4-0.8,0.3-1.2
		l-3.5-8.4c-0.1-0.1-0.1-0.1-0.1-0.2c0.6-0.7,1.2-1.5,1.6-2.3h3.3c0.6,0,1.1-0.5,1.1-1.1V34.6C77.2,34,76.7,33.5,76.1,33.5z
		 M59.7,77.2L58,75.8c-0.4-0.3-0.9-0.4-1.2-0.2L56,76l2.3-5.3c0.7,0.5,1.6,0.9,2.4,1.2L59.7,77.2z M56.1,62.4c0-4.3,3.5-7.8,7.8-7.8
		s7.8,3.5,7.8,7.8s-3.5,7.8-7.8,7.8C59.5,70.2,56.1,66.6,56.1,62.4z M71.7,76l-0.9-0.4c-0.4-0.2-0.9-0.1-1.2,0.2L68,77.2l-0.9-5.4
		c0.9-0.3,1.6-0.7,2.4-1.2L71.7,76z"/>
	<path class="st4" d="M63.9,56.9c-3,0-5.5,2.5-5.5,5.5s2.5,5.5,5.5,5.5s5.5-2.5,5.5-5.5C69.4,59.3,66.9,56.9,63.9,56.9z M63.9,65.7
		c-1.8,0-3.3-1.5-3.3-3.3s1.5-3.3,3.3-3.3c1.8,0,3.3,1.5,3.3,3.3S65.7,65.7,63.9,65.7z"/>
</g>
</svg>
