<?xml version="1.0" encoding="UTF-8"?>
<svg viewBox="0 0 44.416 42.901" xmlns="http://www.w3.org/2000/svg">
<g transform="translate(15 10)" data-name="contactB">
<path transform="translate(-647.66 -1231.1)" d="m647.67 1242.6q0-4.648 0-9.3c0-1.36 0.886-2.157 2.411-2.161q4.8-0.014 9.61-5e-3a2.125 2.125 0 0 1 2.387 2.136q0.011 9.3 0 18.594a2.172 2.172 0 0 1 -2.394 2.157q-4.8 0.024-9.609 0a2.148 2.148 0 0 1 -2.41 -2.188q3e-3 -4.615 5e-3 -9.233zm12.828 6.767v-14.916h-11.23v14.916zm-4.317 2.307a1.193 1.193 0 0 0 -1.3 -1.2 1.181 1.181 0 1 0 -0.058 2.351 1.23 1.23 0 0 0 1.357 -1.15z" fill="#1f2633" data-name="Path 54"/>
</g>
</svg>
