<?xml version="1.0" encoding="utf-8"?>
<!-- Generator: Adobe Illustrator 24.2.1, SVG Export Plug-In . SVG Version: 6.00 Build 0)  -->
<svg version="1.1" id="Layer_1" xmlns="http://www.w3.org/2000/svg" xmlns:xlink="http://www.w3.org/1999/xlink" x="0px" y="0px"
	 viewBox="0 0 2436 1509.3" style="enable-background:new 0 0 2436 1509.3;" xml:space="preserve">
<style type="text/css">
	.st0{opacity:0.33;}
	.st1{fill:#CCBDA8;}
	.st2{fill:url(#SVGID_1_);}
	.st3{fill:url(#SVGID_2_);}
	.st4{fill:#DBD0BE;}
	.st5{fill:#EBDECC;}
	.st6{fill:#EEE3D1;}
	.st7{fill:#ECE1CE;}
	.st8{fill:#FEFEFE;}
	.st9{fill:#E5D8C8;}
	.st10{fill:#E2D6C6;}
	.st11{fill:#EAE5DB;}
	.st12{fill:#EBE3D5;}
	.st13{fill:#EDE4D4;}
	.st14{fill:#DDD0C2;}
	.st15{fill:#E7DDCA;}
	.st16{fill:#E0DED8;}
	.st17{fill:#D9CBBE;}
	.st18{fill:#DFD3C4;}
	.st19{fill:#E8E6E2;}
	.st20{fill:#D4C6BA;}
	.st21{fill:#D0C2B7;}
	.st22{fill:#CFC0B5;}
	.st23{fill:#CCBDB2;}
	.st24{fill:#C5B6AC;}
	.st25{fill:#C1B1A8;}
	.st26{fill:#C8B9AF;}
	.st27{fill:#BCACA4;}
	.st28{fill:#BEAFA6;}
	.st29{fill:#C8BEAF;}
	.st30{fill:#B9A8A1;}
	.st31{fill:#B6A59F;}
	.st32{fill:#C2B8A9;}
	.st33{fill:#B3A39C;}
	.st34{fill:#DDCBB1;}
	.st35{fill:#F4E5D3;}
	.st36{fill:#F9F1E5;}
	.st37{fill:none;stroke:url(#SVGID_3_);stroke-width:11;stroke-linecap:round;stroke-linejoin:round;stroke-miterlimit:10;}
	.st38{fill:url(#SVGID_4_);}
	.st39{fill:url(#SVGID_5_);}
	.st40{fill:url(#SVGID_6_);}
	.st41{fill:url(#SVGID_7_);}
	.st42{fill:url(#SVGID_8_);}
</style>
<g class="st0">
	<path class="st1" d="M458.8,972.6c0.8,0.1,1.7,0.1,2.5,0.1C460.6,973.3,459.2,973.2,458.8,972.6z"/>
	<path class="st1" d="M449.4,975.6c0.4-0.2,0.9-0.5,1.3-0.8C450.7,975.4,449.9,975.9,449.4,975.6z"/>
	<path class="st1" d="M479.9,980.5c-0.2,0-0.3-0.2-0.5-0.2c0.2-0.2,0.2-0.3,0.2-0.5C479.8,980,479.8,980.3,479.9,980.5z"/>
	<path class="st1" d="M336,1121v-13.2l110.3-63.9l-0.2-66.9c2-1,3.9-2,5.9-3c0.2,0.1,0.3,0.2,0.4,0.2c0.1-0.2,0.2-0.3,0.2-0.5
		c1-0.4,2-0.8,3-1.1c0.2,0,0.5,0,0.7,0c-0.2,0-0.2,0-0.4,0c-0.1,0.1-0.2,0.1-0.3,0.1c0.4,0.5,1,0.4,1.2-0.2c-0.2,0-0.2,0-0.4,0
		c0.2,0,0.3,0,0.5,0s0.3,0,0.5,0c0.3,0.5,0.7,0.4,1,0c1.1,0,2.2,0.2,3.2,0h0.1c-0.1,0-0.1,0.1-0.2,0.1c0.2,0.2,0.5,0.5,0.7,0.5
		c1.1,0.2,2.1,0.5,3.1-0.1c-0.5-0.1-0.9-0.2-1.4-0.2c0.8,0.1,1.6,0.2,2.3,0.4c-0.2,0-0.4,0-0.5,0c0.2,0.6,0.6,0.5,1.2,0.3
		c0-0.1-0.1-0.1-0.1-0.2c0.1,0,0.1,0.1,0.2,0.1l0,0c0.2,0.2,0.4,0.3,0.6,0.3c3.2,1.2,9.5,1,11.3,3.7c0.4,2,1,4,2.1,5.6
		c-0.2-0.2-0.3-0.4-0.5-0.5c0,0.2,0,0.5,0.1,0.6c0.7,0.7,1,2.2,2.1,2c0,0,0,0,0.1,0.1c0,0.1,0.1,0.2,0.1,0.2s0,0,0.1,0.1
		c0,0.2-0.1,0.5,0.1,0.5c0.2,0.3,0.5,0.5,0.9,0.3c0.1,0.1,0.2,0.2,0.3,0.3c-0.2,0.8,0.3,1.2,1,1c0,0,0,0,0.1,0.1
		c0,0.1,0.1,0.2,0.1,0.2s0,0,0.1,0.1c0,0.2-0.1,0.5,0,0.5c0.6,0.5,1.4,1.6,2.3,1.1c-0.2-0.2-0.3-0.2-0.5-0.4c0.6,0.4,1.3,0.6,2,0.9
		c-0.3-0.1-0.7-0.2-1-0.2c0.2,0.5,0.4,0.8,1,0.8c0.8-0.2,2.2,0.9,2.7-0.1c0.1,0,0.2,0,0.3-0.1c0.1,0.4,0.3,0.5,0.7,0.5
		c0.6-0.2,1.2-0.5,1.9-0.1c1.1-0.4,2.2-0.8,3.3-1.2c2.1-0.5,4-1.7,6-2.1c0.1-0.1,0.2-0.2,0.4-0.3c1-0.4,2-0.8,3-1.1
		c0.3-0.1,0.6-0.1,0.9-0.2c12.6-6.1,25.4-14.9,29.4-29.2c5.1-14.9-1.8-25.7-18.1-20.3c-3.7,0.9-6.9,3-9.7,5.5
		c-2.6,2.4-6.5,2.3-8.8,4.8c0.2,0.1,0.4,0.2,0.6,0.3c-2.5-1-6.3-3.3-7.7-3.6c-18.4-9.1-31.1-12.1-48.4-10.3v-11.6l0.9-0.5
		l-21.5-12.2c-2-5.1-4.1-10.1-4.8-15.4c4.3-12.5,14.8-21.8,22.3-32.4c1.6-2,9.8-14,9-17.9c0.7-0.7,1-1.8,0.6-3.5
		c-0.9-2.3-3.4-3-5.6-3.7c-14.1-4.1-28.5-7.6-43.1-9.4c-9-1.2-15.1-0.8-17.6,0.7c0-0.2,0.1-0.3,0.1-0.5c-0.4,0.2-0.9,0.3-1.2,0.5
		c-19,11.4-7.1,23.3,8.4,29.2c0-0.1,0-0.2,0-0.2c0,0.1,0,0.1,0,0.2c0.2,0.1,0.2,0.2,0.4,0.2c3,0.9,5.8,2,8.9,2.7
		c-9.1,6.6-13.2,17.5-14.3,28.6l-46.8-26.6l-81.2,47c-0.3-1.4-0.5-2.7-0.6-4.1c-0.2-1.4-0.2-2.8-0.1-4.2c0-3,0.6-5.9,1.2-8.7
		c0.5-2.6,1.6-4.9,2.4-7.4c0.9-2.6,2.3-5,3.6-7.4c0.2-0.2,0.2-0.5,0.3-0.8c0.5-0.4,1.1-0.5,1.6-0.8c5.7-2.6,9.3-6.8,10.6-12.9
		c1.4-6.8,0-12.9-4.5-18.2c-2.9-3.4-6.7-5.2-11.1-5.9c-0.2,0-0.5,0-0.8,0c-1.4,0-2.9,0-4.3,0c1.4,0,2.9,0,4.3,0v-0.1v-0.1
		c-1.4,0-2.9,0-4.3,0c-7.6,0,1.2,3.4-6.3,3.4c-0.5,0-7.9,9-7.9,9.4c0,28.2-9.1,44-9.1,72.2l-14.7,8.5l-17.3-9.9l0.7,76.5v123.3
		L336,1121z M422,861.2c-0.4-0.4-0.5-0.8-0.5-1.2C421.4,860.4,421.6,860.7,422,861.2c2.7,1.3,11.8,5.5,13.5,2c1.3-2.8,4.1-5.4,4-8.6
		l0,0c0.2,3.3-2.7,5.9-4,8.7C433.9,866.8,424.5,862.5,422,861.2z M432.8,847.6c-0.1,0-0.2,0.1-0.3,0.1
		C432.6,847.6,432.7,847.6,432.8,847.6z M418.9,858.1c0.3-1.8,1.7-3.8,3-5.7C420.9,854.3,419.9,856.2,418.9,858.1L418.9,858.1z
		 M424.5,849c1.2-1.7,2.7-3,4.3-4.1C427.2,846,425.7,847.4,424.5,849z M444.8,844.4c0.6,0.4,1.1,0.9,1.3,1.6l0,0
		C445.9,845.3,445.4,844.8,444.8,844.4C444.7,844.4,444.7,844.4,444.8,844.4z M446.1,846.8c-0.1,1.6-0.4,3.2-0.9,4.7
		C445.7,850,446,848.4,446.1,846.8z M438.6,863.1c-0.4,0.5-0.8,1.2-1.2,1.7c-0.2,0.1-0.2,0.2-0.4,0.2
		C437.6,864.4,438,863.8,438.6,863.1z M427.6,864.8c2.3,0.7,4.6,1.2,6.4,1.2C432,866.1,429.8,865.7,427.6,864.8z M419.8,860.7
		c-0.1-0.1-0.2-0.2-0.3-0.2c-0.2-0.3-0.4-0.6-0.5-1C419.1,860,419.4,860.4,419.8,860.7z M416.4,856.7c0-0.1,0-0.1,0-0.2
		s0.1-0.2,0.1-0.2C416.5,856.5,416.5,856.6,416.4,856.7z M418.3,852.3C418.4,852.3,418.4,852.2,418.3,852.3
		C418.4,852.2,418.4,852.3,418.3,852.3z M417.7,853.6c0.1-0.2,0.2-0.4,0.3-0.6C417.9,853.3,417.7,853.4,417.7,853.6z M417.1,855
		c0.2-0.3,0.2-0.6,0.4-0.9C417.4,854.4,417.2,854.7,417.1,855z M416.6,856.3c0.2-0.4,0.3-0.8,0.5-1.2
		C416.9,855.5,416.7,855.9,416.6,856.3z M236.6,921.9c0.1,0.1,0.2,0.2,0.3,0.3C236.7,922.1,236.7,922,236.6,921.9L236.6,921.9z
		 M415.6,883.1c0.2-0.3,0.3-0.6,0.5-0.9c0,0.1-0.1,0.2-0.1,0.2c0.9-0.4,3-2.7,3.4-0.9c0,0.2,0,0.3,0,0.5c-0.2-0.8-0.5-1.2-1.1-0.9
		C417.3,881.7,416.3,882.3,415.6,883.1z M419.9,871.9c0,0.2-0.1,0.3-0.2,0.4c-0.1,0-0.2-0.1-0.2-0.1
		C419.7,872.1,419.9,872,419.9,871.9z M418.6,874.1C418.6,874.1,418.6,874,418.6,874.1c0.5,0.9,0.3,2,0.2,2.9
		c-0.2,0.9-0.8,1.8-1.3,2.6c1.2-2.2,1.9-3.8,0.9-5.8C418.5,873.9,418.6,873.9,418.6,874.1z M416.6,873.1L416.6,873.1
		c-2.7-5.5-8.3-7.3-13.6-9.1c-0.5-0.2-0.8-0.4-1.1-0.5c0.4,0.1,0.7,0.2,1.2,0.5C408.4,865.7,414.1,867.5,416.6,873.1z M399.1,866.5
		c0.6-0.6,1.5-1.6,2.3-2.1c-1.7,1.3-3.3,3.2-4.7,5.3C397.5,868.6,398.2,867.5,399.1,866.5z M416.2,875.8c-0.5-5.7-6.7-8.8-11.7-10.5
		c-0.1-0.1-0.2-0.2-0.3-0.2c0-0.1-0.1-0.1,0-0.1l0,0c5.1,1.6,10.2,4.3,12.1,9.6C416.3,875.1,416.3,875.5,416.2,875.8z M404.2,865.1
		L404.2,865.1c-0.5-0.6-1.2-1-1.7-1C403.1,864,403.6,864.3,404.2,865.1z M404.1,865.1c-7.8,1-12.9,15.4-11.5,25.7h-0.1
		C391.2,880.5,396.3,866,404.1,865.1z M413.9,880c0.7-1.6,1-3,1-4.2c0,1-0.2,2.2-0.7,3.5l0,0C414.1,879.6,414,879.8,413.9,880z
		 M402.8,869.3c1-0.2,2.3-0.2,3.6,0.4c-0.7-0.2-1.5-0.3-2.3-0.3C403.6,869.3,403.2,869.2,402.8,869.3z M404.5,873.6c0.3,0,0.7,0,1,0
		c0.1,0,0.2,0,0.3,0c-0.2,0-0.2,0-0.4,0C405.1,873.6,404.8,873.6,404.5,873.6z M406.8,872.7c1.3,0.3,2.5,1,3.4,2.4
		c0.4,0.6,0.5,1.3,0.6,2C410.4,874.9,408.9,873.3,406.8,872.7z M399.5,891.1c-0.2-1.1-0.4-2.2-0.5-3.2
		C399.2,889,399.3,890,399.5,891.1L399.5,891.1L399.5,891.1L399.5,891.1L399.5,891.1L399.5,891.1L399.5,891.1z M406.3,895.4
		C406.4,895.4,406.4,895.4,406.3,895.4C406.4,895.4,406.4,895.4,406.3,895.4z M406,893.2L406,893.2L406,893.2L406,893.2L406,893.2z
		 M400.7,886c0.2,1.3,0.4,2.7,0.5,3.8l0,0v-0.1C400.9,888.3,400.7,887,400.7,886z M402.4,883c0.3-0.9,1-1.3,1.8-1.6
		c-1,0.5-2,1.6-2.2,3.1C402.1,884,402.2,883.5,402.4,883z M407.4,881.9c0.7,0.5,1.2,1.2,1.2,2c0,0.2,0.1,0.6,0.1,1.1
		C408.5,883.6,408.1,882.6,407.4,881.9z M408.5,888.4c-0.2,1.5-0.5,2.9-1,3.8c0.2-0.5,0.3-1.1,0.4-1.5
		C408.1,889.9,408.3,889.1,408.5,888.4z M406.2,895.4L406.2,895.4C406.1,895.4,406.1,895.4,406.2,895.4z M402.8,893.1
		c-0.6-0.6-1.2-1.2-1.5-2.1C401.7,891.6,402.2,892.4,402.8,893.1z M406,877.8c0.2,0.2,0.4,0.4,0.6,0.5
		C406.4,878.1,406.2,877.9,406,877.8c-1.6-0.8-2.7,2.1-4.1,2.9c0.6-0.9,1.5-1.9,2.8-2.8C405.1,877.4,405.5,877.3,406,877.8z
		 M408.5,880.8c0.7,1.4,1,3,0.9,4.8C409.3,883.8,409.2,882.2,408.5,880.8z M408.7,890.1c-0.2,1.5-0.5,3.1-1.1,4.1
		C408,893,408.4,891.6,408.7,890.1z M406.9,875.3c5.1,1.5,2.5,13.5,1.9,17.9c-0.3,1.6-0.1,5.8-2.5,5.1c0,0-0.1,0-0.1-0.1
		c0.5,0.2,0.9,0.1,1.3-0.3c1.4-6,3.7-14.9,1.5-20.7C408.3,876.4,407.6,875.7,406.9,875.3z M405,897.7c-0.6-0.3-1.2-0.7-1.6-1.1
		C403.9,896.9,404.5,897.3,405,897.7z M399.4,894.6c-0.4-0.7-0.7-1.4-1-2.2C398.7,893.2,399,894,399.4,894.6L399.4,894.6z
		 M396.9,885.6c-0.2-1.6-0.2-3.3,0-4.8C396.8,882.4,396.8,884,396.9,885.6z M400.4,874.2c0.7-0.7,1.5-1.2,2.3-1.7l0,0l0,0
		C402,873,401.2,873.5,400.4,874.2z M410.8,872.3c1.1,0.9,1.6,2.1,1.6,3.4C412.2,874.5,411.6,873.3,410.8,872.3z M410.7,884.1
		c-0.1,0.3-0.1,0.6-0.2,0.9c0.1-1.9,0-3.7-0.2-5.5c-0.2-2.5-1.6-5.5-4.3-5.9c3.3,0.3,4.3,4.4,4.6,7.3c0.1-0.1,0.1-0.2,0.2-0.3
		C410.7,881.8,410.6,883,410.7,884.1z M409.9,891.6c-0.2,2.3-0.5,4.4-1.2,6.6c0.1,0.5-0.2,1.1-0.5,1.5l0,0c0.4-0.4,0.6-0.9,0.5-1.5
		c-0.2,0.2-0.5,0.3-0.7,0.4c0.2-0.1,0.5-0.2,0.7-0.4C409.1,896,409.6,893.8,409.9,891.6z M396.4,892.9c-2.2-5.1-2-11.3,0.2-16.5
		c0.9-1.8,1.8-3.3,2.7-4.4c-0.9,1.5-1.7,3.2-2.7,4.4C394.3,881.7,394.3,887.9,396.4,892.9L396.4,892.9z M410.9,870.6
		c1.7,1.3,3,3,3.3,5.5c-0.2,0.6-0.3,1.2-0.5,1.9C414.2,874.6,413.3,872.5,410.9,870.6z M412.2,882.4c-0.3,1.1-0.6,2.2-0.8,3.4
		c0.1-0.6,0.2-1.3,0.2-2l0,0c0.1-0.1,0.2-0.2,0.2-0.2C411.9,883.2,412,882.8,412.2,882.4z M411,889.6L411,889.6
		c-0.3,3.7-0.6,7.4-1.1,11h-0.1C410.4,897,410.7,893.3,411,889.6z M402.7,866.8c0.9-0.3,1.8-0.3,2.6,0.3
		C404.3,866.7,403.5,866.6,402.7,866.8z M413.4,881.1c-0.3,0.8-0.6,1.6-0.9,2.4c0.1-0.5,0.2-0.9,0.3-1.4
		C413.1,881.7,413.2,881.4,413.4,881.1z M412,901.6c0,0.1,0,0.1,0,0.2l0,0C412,901.7,412,901.7,412,901.6z M413.9,887.7
		c-0.4,2.1-0.7,4.9-0.7,7.6C413,892.3,413.4,889.9,413.9,887.7z M414,903L414,903c0-0.2,0.1-0.2,0.1-0.4l0,0
		C414.1,902.6,414.1,902.8,414,903z M393.4,874.6c0.7-1.7,1.6-3.4,2.7-5.1C395,871.1,394.1,872.8,393.4,874.6z M398.2,866.3
		c0.6-0.9,1.2-1.9,2-2.4c-0.2,0.2-0.4,0.5-0.7,0.7C399.2,865.2,398.7,865.7,398.2,866.3z M417.4,872.1c0.2,0.2,0.3,0.5,0.4,0.6
		C417.7,872.5,417.6,872.4,417.4,872.1L417.4,872.1C417.4,872.3,417.4,872.2,417.4,872.1z M423.4,882.7c-0.8,2.7-2.6,5.1-3.4,7.8
		C420.8,887.8,422.6,885.4,423.4,882.7z M419.9,903.3c1.1-4.2-1.6-9.2-0.9-13.6c0-0.5,0.2-1.9,0.4-3.4c-0.1,1.1-0.2,2.2-0.4,3.3
		C418.2,894,420.9,899.1,419.9,903.3z M236.8,922.2L236.8,922.2L236.8,922.2L236.8,922.2z M391.8,877.1c0.4-1.9,1.1-3.6,2-5.1
		C392.9,873.5,392.2,875.1,391.8,877.1c-0.8,3.4-2,7.7-2.3,11.9l0,0C389.7,884.7,390.9,880.4,391.8,877.1z M400.1,862
		c0.1,0,0.1,0,0.2,0c0,0,0,0.1,0.1,0.1l-0.1,0.1C400.2,862.1,400.2,862,400.1,862z M382,835.9c-3.2,2.7-5.2,6.8-3,10.3
		c3.3,3,7.6,5.2,12.3,6.9c-4.6-1.5-9-3.4-12.4-6.9C376.6,842.8,378.7,838.7,382,835.9z M429.5,866.2c-4.7-1.8-10.4-3.3-13.8-7.1
		c-3.8-0.3-7.5-1.2-11.2-2.3c4,0.9,7.8,1.5,11.2,2.2v-0.1c3.4,3.7,9.1,5.3,13.7,7c2.7,1.2,6.2,3,8.3-0.2c2.4-3.3,9.1-11.2,11.2-17.5
		c-2,6.2-8.8,14.4-11.2,17.7C435.6,869.2,432.3,867.5,429.5,866.2z M419.9,870.7c0-0.1,0-0.1,0-0.2c0.2-0.3,0.2-0.5,0.2-0.8
		C420.1,870,420.1,870.3,419.9,870.7z M420.4,893.8L420.4,893.8c0.2-5.6,5.5-10.2,6.6-15.8c0.1-0.2,0.1-0.3,0.2-0.4
		c0,0.2-0.1,0.4-0.2,0.6C425.9,883.7,420.8,888.2,420.4,893.8z M422.9,908L422.9,908c-0.3-2.1-0.8-4.2-1.2-6.2
		C422.3,904,422.8,906.3,422.9,908z M480.8,975.4c0.2-0.1,0.5-0.2,0.8-0.3c0,0,0,0-0.1,0c0.8-0.2,1.2,0.2,1.5,0.9
		C482.7,975.4,482,975.1,480.8,975.4z M483.8,947c0.5-0.1,1.1-0.2,1.6-0.3c-0.6,0.2-1.2,0.3-1.8,0.5c-12.3,2.3-25.1,0.6-37.6,1.4
		v-0.2c5.9-0.2,11.9-0.2,17.8-0.3C470.4,947.9,477.3,948.7,483.8,947z M500,981.7c1.3-0.9,6.9-1.5,7.7-2.3
		C507.2,980.1,502.3,980.8,500,981.7z M498.9,982.2c-0.1,0-0.2,0-0.3-0.1c0.2,0,0.3,0,0.4-0.1C499,982.2,499,982.2,498.9,982.2z
		 M497.4,981.9c-2-0.7-3.5-2.2-4.4-4.1c0.9,1.6,2.3,3,4.1,3.8C497.2,981.8,497.3,981.8,497.4,981.9z M491.8,972.8
		c0-0.9,0.1-1.7,0.4-2.5c0,0,0-0.1,0.1-0.1C491.9,971.1,491.8,971.9,491.8,972.8z M491.8,973.5c0-0.2,0-0.4,0-0.6
		C491.8,973,491.8,973.3,491.8,973.5z M491.9,974.2L491.9,974.2L491.9,974.2z M496.7,965c0.1-0.1,0.2-0.2,0.3-0.3
		C496.9,964.8,496.8,964.9,496.7,965z M496,965.8c0.1-0.1,0.1-0.2,0.2-0.2C496.1,965.6,496,965.7,496,965.8z M452.7,971.9
		c-1.2,0.1-2.2,0.6-3.1,1.3c0.1,0,0.1,0,0.2,0c-1.2,0.5-2.3,1.1-3.6,1.6v-0.2c0.7-0.3,1.4-0.6,2.1-1c3-2,6.5-2.3,10-2.3
		c0.2,0.2,0.5,0.2,0.8,0.1l0.1,0.1c-0.1,0-0.2,0.1-0.3,0.1s-0.2,0-0.2,0c-0.1,0-0.2-0.1-0.2-0.1c0.1,0,0.1,0.1,0.2,0.1
		c-1.7-0.2-3.4-0.1-4.9,0.4c-0.1,0-0.2,0-0.2,0c0.1,0,0.2,0,0.2,0c-0.5,0.2-1,0.2-1.5,0.5C452.3,972.2,452.5,972.1,452.7,971.9z
		 M492.7,964.4c3.3-4.4,4.4-9.7,0.3-13.8c-5.4-3-12.4,0.2-18.3-0.2c-1.2,0-2.4,0-3.6,0c1.2,0,2.4,0,3.7,0c6,0.5,13-2.7,18.3,0.2
		C497.1,954.8,496.1,960,492.7,964.4z M455.7,970.8c-2.4,0.2-4.8,0.9-7,1.7c0.2-0.1,0.4-0.2,0.5-0.3c1.2-0.6,2.6-1,3.9-1.2
		c3.2-0.4,6.4-0.3,9.6-0.1c3.7,0.4,7.5,0.9,11.1,0.6c1.3-0.9,2.9-1.6,4.3-2.3c-1.5,0.9-3,1.7-4.6,2.5
		C467.8,972.1,461.6,970.7,455.7,970.8z M452.2,970.8c2.2-0.5,4.4-0.8,6.6-0.4l0,0l0,0C456.6,970,454.4,970.2,452.2,970.8z
		 M482.2,953c-1.3,0-2.7,0.1-3.9,0s-2.5-0.1-3.7-0.2C477,952.8,479.6,952.7,482.2,953z M447.2,971.3c-0.4,0.1-0.8,0.2-1.2,0.4v-0.2
		c1.9-0.7,3.7-1.5,5.7-1.7c5.9-0.4,11.9-0.3,17.8-0.2c0.8,0,1.5-0.2,2-0.7c-0.5,0.7-1.2,0.9-2.1,0.9
		C462.1,970.1,454.1,968.5,447.2,971.3z M453.1,969c1.6-0.3,3.4-0.4,5.1-0.3h0.1c-0.1,0-0.2,0-0.2,0
		C456.3,968.6,454.6,968.7,453.1,969z M446.1,959.1c1.5,0,3,0,4.8,0.1C449.1,959.1,447.5,959.2,446.1,959.1L446.1,959.1z
		 M450.4,962.3c-1.3,1.2-2.8,2-4.3,2.5v-0.2c1.6-0.6,3.1-1.5,4.5-2.5C450.5,962.1,450.4,962.2,450.4,962.3z M457.5,958.7
		c-3.9-0.5-7.8-0.4-11.4-0.5v-0.1C449.7,958.1,453.6,958,457.5,958.7z M461.7,960c0.1,0,0.1,0,0.2,0.1c0,0.1-0.1,0.1-0.1,0.2
		C461.7,960.2,461.7,960.1,461.7,960z M460,962.3c-0.6,0.5-1.2,0.9-2,1.3C458.6,963.3,459.3,962.8,460,962.3z M465.9,958
		c-0.9-0.1-1.7-0.2-2.1-0.4c0.1,0,0.1,0,0.2,0C464.6,957.8,465.3,958,465.9,958z M463.6,957.7c-2-0.3-3.8-0.6-5.8-0.9
		C459.8,957,461.7,957.3,463.6,957.7z M451.3,957c0.8,0,1.6,0.1,2.3,0.2c-2.8-0.1-5.3,0.1-7.6,0.2v-0.2
		C447.9,957,449.7,956.9,451.3,957z M463.9,958.8L463.9,958.8c0.4,0,0.6,0.1,0.9,0.2C464.5,959,464.2,958.9,463.9,958.8L463.9,958.8
		z M465.5,959.9c0.2,0.6,0.2,1.5,0.2,2.3c-0.2-0.5-0.2-1-0.2-1.3C465.6,960.5,465.6,960.2,465.5,959.9z M464.9,965.1
		c-1.7,0.7-4.9,0.9-7.7,1.1C459.7,965.8,462.3,965.4,464.9,965.1z M463.5,967.3C463.5,967.3,463.4,967.3,463.5,967.3
		c1.3-0.2,2.7-0.4,4.1-0.8c3-0.9,1.6-4.5,2.2-6.9c0.1-0.5-0.3-0.7-0.9-0.9c1.6,0.5,1,1.5,0.8,6.3C468.2,967,465.7,966.9,463.5,967.3
		z M471.5,965.8c-1.8,2-4.5,2.4-7.4,2.6C467.1,968.2,469.8,967.6,471.5,965.8z M456.8,967.7c-3.6,0.3-7.2,0.8-10.8,1.6l0,0h0.1
		C449.6,968.2,453.2,968,456.8,967.7z M456.1,954.5c-2.2-0.1-4.4-0.2-6.6-0.2C452,954.2,454.3,954.1,456.1,954.5z M463.2,954.9
		c3.5,0.1,7.1,0.2,10.5,0.8c-2.3-0.4-4.6-0.5-6.7-0.6C465.7,955,464.4,955,463.2,954.9z M480.2,958L480.2,958
		c0.3,1.3,0.4,2.5,0.3,3.4C480.5,960.3,480.3,959.1,480.2,958L480.2,958z M473.6,966.7c0.9-0.8,1.9-1.6,2.7-2.4
		C475.7,965.2,474.6,965.9,473.6,966.7z M446.1,953.1c0.9,0,1.8-0.1,2.7-0.1c-0.4,0-0.7,0.1-1.1,0.1
		C447.2,953.1,446.6,953.1,446.1,953.1L446.1,953.1z M452.9,953c1.2,0,2.6,0,3.8,0c-1.1,0-2.3,0-3.4,0.1
		C453.2,953,453.1,953,452.9,953z M483.2,958.6c-0.1-0.2-0.1-0.5-0.2-0.7c-1.1-3.7-16.9-3.3-20.9-3.7c-5.3-0.2-10.5-0.6-15.9-0.3
		c-0.1,0-0.2,0-0.2,0v-0.2c0.1,0,0.1,0,0.2,0c5.3-0.3,10.6,0.2,15.9,0.3c6.6,0.3,13.3,0.2,19.7,2.3c1,0.3,1.1,0.4,1.2,1.4
		C483,958,483.1,958.3,483.2,958.6z M478.6,965.5c-0.2,0.2-0.3,0.4-0.5,0.5c0.1-0.2,0.2-0.2,0.3-0.4
		C478.4,965.5,478.5,965.5,478.6,965.5z M446,952.3c0.5,0,1,0,1.6,0.1c0.7,0,1.5,0,2.2,0c-1.2,0-2.5,0.1-3.7,0.2L446,952.3z
		 M467.1,952.5c0.6,0,1.2,0,1.7,0c0.2,0,0.5,0,0.7,0.1C468.7,952.6,467.8,952.6,467.1,952.5z M465.6,970.6c3.2,0.2,6.1,0.2,8.8-1.4
		l0,0C471.9,971,468.8,970.9,465.6,970.6z M446.8,972.4c-0.2,0.1-0.5,0.2-0.7,0.2l0,0C446.3,972.6,446.5,972.5,446.8,972.4z
		 M465.8,951.6c-4.1,0-8,0-12.1,0C457.8,951.6,461.7,951.6,465.8,951.6c0.1,0,0.1,0,0.2,0C465.9,951.6,465.9,951.6,465.8,951.6z
		 M488.5,953.9c0.2,0.3,0.4,0.6,0.6,1c-0.4-0.5-0.9-0.9-1.5-1.2C488,953.8,488.2,953.8,488.5,953.9z M475.1,972.1
		c-0.1,0-0.2,0.1-0.2,0.1S474.9,972.1,475.1,972.1c3.3-2,7.3-3,9.7-6.5c1.2-2.1,3.5-4.1,3.4-6.7c-0.4-1.2,0-3.3-1.1-4
		c1.2,0.6,0.7,2.8,1.2,4.1c0.1,2.6-2.3,4.6-3.4,6.7C482.5,969.1,478.4,970.1,475.1,972.1z M490.3,958.5c0,0.5-0.1,1.1-0.4,1.6
		C490.1,959.6,490.2,959.1,490.3,958.5z M481.9,966.3c0.5-0.6,1.2-1.3,1.8-2C483.1,965.1,482.5,965.7,481.9,966.3z M491.8,954
		L491.8,954c1.1,1.7,1.3,3.6,0.9,5.5C493,957.6,492.8,955.7,491.8,954L491.8,954z M491.3,962.9L491.3,962.9L491.3,962.9z
		 M491.9,961.8c0,0.1-0.1,0.2-0.1,0.2C491.8,961.9,491.9,961.9,491.9,961.8z M492.3,960.6c-0.1,0.2-0.1,0.3-0.2,0.5
		C492.2,961,492.3,960.9,492.3,960.6z M492.6,959.4c-0.1,0.3-0.2,0.5-0.2,0.9C492.6,960,492.6,959.8,492.6,959.4z M483.8,968.3
		c-2.2,1.7-4.6,3-7.1,4.1C479.1,971.2,481.6,969.9,483.8,968.3z M465.8,971.9c2.3,0.2,4.6,0.5,6.9,0.7c0.1,0,0.2,0,0.2,0
		C470.8,972.8,468.2,972.2,465.8,971.9z M446,950.7c0.1,0,0.2,0,0.2,0c5.6-0.2,11.3-0.2,16.9-0.2c-5.7,0.1-11.5,0.3-17.2,0.5
		L446,950.7L446,950.7z M488.7,966.3L488.7,966.3L488.7,966.3z M487.8,967.2c0.1-0.1,0.1-0.1,0.2-0.2
		C487.9,967,487.9,967.1,487.8,967.2z M486.6,968.3c-3.7,3.1-8.5,5.3-12.2,5.5C478.1,973.5,482.8,971.3,486.6,968.3z M486.9,968
		c0.2-0.2,0.3-0.2,0.4-0.4C487.1,967.8,487,967.9,486.9,968z M473.9,973.3c-0.2,0-0.5-0.1-0.7-0.1c0.5,0,0.9-0.1,1.3-0.2
		C474.3,973.2,474.1,973.2,473.9,973.3z M466.2,972.2c-1.3-0.2-2.6-0.2-3.8-0.2c-0.2,0-0.4,0-0.6-0.1
		C463.1,971.7,464.6,971.9,466.2,972.2z M461.2,971.9c-0.2-0.1-0.2-0.2-0.3-0.3c-0.2,0-0.5,0.1-0.5,0.1c-0.2-0.2-0.3-0.2-0.5-0.2
		c0,0,0,0-0.1,0l0,0c-0.1,0-0.2,0.1-0.3,0.1l-0.1-0.1c0.1,0,0.2-0.1,0.3-0.1c0.5,0,1.1,0.1,1.6,0.1c-0.2,0-0.4,0-0.5,0
		C461,971.6,461.1,971.8,461.2,971.9L461.2,971.9z M472.7,949.4c-1.6,0.1-3,0.1-4.6,0.1c4.6-0.2,9.2-0.5,13.7-0.9
		C478.7,949.1,475.6,949.8,472.7,949.4z M495.3,949.5c-1.8-1.2-3.8-1.8-5.9-1.9C491.9,947.4,493.9,948.1,495.3,949.5z M497.9,957.8
		c-0.2,2-1,4-2.3,5.5C496.7,961.6,497.6,959.7,497.9,957.8z M471.1,973.5c-0.2-0.1-0.4-0.2-0.6-0.2c0.1,0,0.2,0,0.3,0
		c-1.2-0.3-2.3-0.5-3.4-0.7c1.2,0.2,2.3,0.3,3.4,0.6C471,973.3,471,973.4,471.1,973.5z M446.1,975.8v-0.2c4.8-2.3,9.6-4.6,14.5-3.8
		C453.6,971.6,450.4,973.8,446.1,975.8z M450.7,973.9c-1.6,0.7-3.1,1.5-4.7,2.3V976C447.6,975.3,449.2,974.5,450.7,973.9z
		 M486.6,946.4c3-0.5,6-0.9,8.7,0.5c6.9,4.1,5.9,10.3,2,15.8c1.2-1.8,2-3.7,2.7-5.9C501.8,948.4,493.5,945.2,486.6,946.4z
		 M515.2,944.4c1.1-0.1,2.2,0,3.4,0C517.5,944.5,516.3,944.4,515.2,944.4z M521.7,943.8c-0.1,0-0.1,0-0.2,0.1
		C521.6,943.9,521.7,943.8,521.7,943.8L521.7,943.8z M510,946.6c-1.2,0.7-2.5,1.5-3.8,1.9C507,947.8,508.6,947.2,510,946.6z
		 M513,944.9c0.6-0.2,1.2-0.4,2-0.4c-0.8,0.1-1.5,0.3-2.2,0.6C512.9,945,512.9,944.9,513,944.9z M521.9,944.2
		c-0.8,0.8-1.6,1.6-2.4,2.4c-0.5,0.5-1.1,1.1-1.6,1.6C519.6,946.3,521.1,944.7,521.9,944.2z M510.4,955.5c-0.2,0.2-0.5,0.4-0.6,0.6
		c-1.7,0.6-2.7-1.2-3.4-3.3c0.7,1.3,1.6,2.7,2.1,3.2C508.7,956.4,509.4,956.2,510.4,955.5z M505.4,950.1c0-0.2-0.1-0.2-0.1-0.3
		c-0.1-0.3,0.1-0.6,0.4-0.9C505.4,949.1,505.3,949.6,505.4,950.1z M507.9,969.4c0.1,0.3,0.2,0.7,0.3,1
		C508.1,970.1,508,969.7,507.9,969.4z M491.6,983.3c-3.2-2.3-5.5-6.5-5.3-10.1h0.1C486.3,976.9,488.5,981,491.6,983.3z M477.6,975.1
		c-1.7-0.1-3.4-0.5-5.1-0.9c-0.5-0.2-1.1-0.4-1.7-0.5c0.3,0.1,0.7,0.1,1,0.2l-0.1-0.1l0,0l0.1,0.1c0.1,0,0.1,0,0.2-0.1l0,0h-0.1
		c2.4,1.2,5.5,1.3,8.7,0.5C479.5,974.5,478.5,974.8,477.6,975.1z M483,974c-0.8,0.4-1.6,0.7-2.4,0.9
		C481.4,974.6,482.2,974.3,483,974z M469.6,973.3c-0.2,0-0.3-0.1-0.5-0.1c0.4,0,0.9,0.1,1.2,0.1C470,973.3,469.8,973.3,469.6,973.3z
		 M466.4,972.9c-1.2-0.1-2.4-0.2-3.6-0.5C464,972.6,465.3,972.8,466.4,972.9z M452.1,973.3c-0.2,0.1-0.3,0.2-0.5,0.2
		C451.8,973.5,451.8,973.4,452.1,973.3C452,973.4,452,973.4,452.1,973.3z M500.7,947.9c0.2,0.2,0.5,0.2,0.6,0.4
		C501.2,948.2,500.9,948.1,500.7,947.9c-3.9-2.2-8.4-4.8-13.2-4c-13.7,3.3-27.6,2.5-41.5,3.3v-0.1c13.9-0.8,27.9-0.1,41.4-3.3
		C492.3,943.1,496.6,945.6,500.7,947.9z M517.1,940.4c-1.6,0.7-3.1,1.6-4.7,2.4l0.1-0.1C513.9,941.7,515.5,941,517.1,940.4z
		 M504.3,950c-0.3,0.7-1.4,3.4-1.3,4.8C502.8,953.5,504,950.7,504.3,950c1.4,2.3,2.8,9.8,6.3,9c3-2.2,5.8-4.8,8.2-7.6
		c2.9-4.1,7.7-6.6,10.1-11.1c0,0,0.1,0,0.1,0.1c-0.9,1.6-1.8,3.1-3.2,4.2c-5.5,4.4-9.3,10.6-15.1,14.6
		C507.2,960.2,505.7,952.3,504.3,950z M507.7,964.2c0-1-0.1-2-0.4-2.9C507.7,962.3,507.8,963.2,507.7,964.2z M507.3,961.2
		L507.3,961.2L507.3,961.2z M502,986.8c4.4-1.2,8.3-3.3,9.7-5.2c0.2-0.6,0.4-1.2,0.4-1.9c0,0.7-0.1,1.3-0.4,2
		C510.2,984.2,505.6,985.7,502,986.8z M492.9,990.7c0.7-0.2,1.5-0.2,2.2-0.3C494.4,990.5,493.7,990.6,492.9,990.7z M491.7,987.5
		c2.4,0.7,5.9,0.4,9.2-0.4c-0.5,0.2-1.1,0.3-1.6,0.4C496.4,988.4,493.9,988.3,491.7,987.5z M485.2,981.6c-1.2-1.4-1.5-3.1-1.8-4.4
		c0.6,2.1,1.7,5.4,5.5,8.5c0.1,0.1,0.2,0.2,0.3,0.3C487.8,985,486.4,983.5,485.2,981.6z M478.8,976.1c-0.9-0.2-1.7-0.3-2.5-0.5
		c1.2,0.2,2.3,0.3,3.4,0.2c0.2-0.2,0.4-0.5,0.6-0.2l0,0c-0.2-0.2-0.4,0-0.6,0.2l0,0C479.5,975.8,479.1,976,478.8,976.1L478.8,976.1z
		 M474,975c-2.3-0.6-4.6-1.2-6.9-1.3C469.3,973.5,471.7,974.3,474,975z M462.1,972.7c0.2,0,0.3,0,0.4,0h0.1h-0.1c0.1,0,0.1,0,0.2,0
		c0.1-0.1,0.1-0.2,0.2-0.2c0,0-0.1,0.1-0.1,0.2c0.1,0,0.2,0.1,0.2,0.1C462.8,972.7,462.5,972.7,462.1,972.7z"/>
</g>
<g>
	<g>
		
			<radialGradient id="SVGID_1_" cx="7037.2832" cy="9271.6592" r="49.0846" gradientTransform="matrix(-8.254457e-02 -0.9966 -0.9966 8.254457e-02 10322.3486 6880.4463)" gradientUnits="userSpaceOnUse">
			<stop  offset="2.066799e-05" style="stop-color:#F9F1E5"/>
			<stop  offset="1" style="stop-color:#CCBDA8"/>
		</radialGradient>
		<path class="st2" d="M531.5,689.2c0,0-94.3,10.7-58.2-107.6c0,0,3.1-10.6,16.7-5.9c13.6,4.6,10.1,17.6,10.1,17.6
			s-21.7,28.2-3.8,50.8s28.3,24,37.9,22.1C543.8,664.1,543.7,690.4,531.5,689.2z"/>
		
			<radialGradient id="SVGID_2_" cx="7090.8193" cy="9278.2158" r="19.4437" gradientTransform="matrix(-8.254457e-02 -0.9966 -0.9966 8.254457e-02 10322.3486 6880.4463)" gradientUnits="userSpaceOnUse">
			<stop  offset="2.066799e-05" style="stop-color:#F9F1E5"/>
			<stop  offset="1" style="stop-color:#CCBDA8"/>
		</radialGradient>
		<circle class="st3" cx="490.3" cy="579.6" r="19.4"/>
	</g>
	<g>
		<g>
			<path class="st4" d="M449.4,852.2c-1.2-0.5-2.2-1.4-2.6-2.7c-0.4-1-0.8-2-1.1-3c-1.6-5.9-3.3-11.7-4.7-17.6
				c-1-4.1-1.9-8.4-2.7-12.6c-0.8-4.3-1.4-8.5-2-12.9c-0.3-2.2-0.5-4.4-0.6-6.7c-0.1-1.5,0.1-3,0-4.6c0-2.1,0.3-4.2,1.1-6.2
				c0.7-1.8,2.1-2,3.4-0.7c1.2,1.2,2.1,2.7,2.9,4.3c1.7,3.4,3,6.9,4,10.5c0.8,2.7,1.6,5.3,2.2,8c0.6,2.6,1.1,5.2,1.6,7.8
				c0.5,2.4,0.9,4.8,1.2,7.1c0.4,2.3,0.7,4.7,0.9,7c0.3,2.8,0.5,5.6,0.7,8.4c0.1,2.8,0.2,5.5,0.2,8.4c0,1.2-0.2,2.5-0.2,3.7
				c-0.1,0.7-0.5,1.2-1.2,1.4s-1.2,0.4-2,0.5C450.2,852.5,449.8,852.4,449.4,852.2z"/>
		</g>
		<g>
			<path class="st5" d="M599.6,897c-0.2,1-0.5,2-0.8,3c0,0.1-0.1,0.3-0.1,0.4c-0.2,0.5-0.5,1.2-0.8,1.7c-0.2,0.4-0.4,0.8-0.5,1.2
				c-0.1,0.2,0,0.4,0,0.5s-0.1,0.3-0.1,0.4c-0.2,0.1-0.3,0.2-0.4,0.3c-0.4,1-0.8,2-1.1,3c0,0.2,0.1,0.4,0.1,0.6
				c0,0.1-0.1,0.3-0.1,0.4c-0.2,0.2-0.3,0.2-0.4,0.4c-0.2,0.5-0.5,1.2-0.8,1.6c-1.2,2.3-2.3,4.5-3.5,6.6c-2.7,4.6-5.9,8.7-9.8,12.2
				c-4.3,3.9-9.1,6.9-14.7,8.5c-4.4,1.3-8.9,2.2-13.5,1.2c-2.3-0.5-4.3-1.6-5.9-3.5c-1.7-2.3-2.3-4.9-2.3-7.6s0.5-5.4,1.2-8
				c0.6-2.2,1.5-4.2,2.7-6.1c0.9-1.2,2-2.3,2.9-3.6c1.2-1.6,2.1-3.4,2.7-5.3c0.5-1.4,1.1-2.6,2.2-3.5c0.4,0.8,0.9,1.6,1.2,2.4
				c0.1,0.2-0.2,0.5-0.4,0.5c-0.8,0.1-1.1,0.5-1.3,1.2c-0.9,2.6-2.3,4.8-4.1,6.9c-0.5,0.5-0.9,1.2-1.2,2c-0.5,1.2-0.9,2.3-1.2,3.5
				c-0.3,0.9-0.5,1.6-0.8,2.4c-0.7,2-0.4,3.8,0.1,5.8c0.2,0.9,0.5,1.9,0.9,2.8c1.6-0.9,3.1-1.8,4.2-3.2c2-2.6,4.4-4.8,6.9-6.9
				c2-1.7,3.8-3.7,5.6-5.6c0.8-0.8,1.3-1.7,2-2.6c0.4-0.5,0.3-1.3-0.2-1.7c-0.9-0.7-2-1.4-2.9-2c-0.5-0.3-0.9-0.5-1.5-0.8
				c-1.3-0.5-2.6-0.9-3.9-1.5c-0.2,0-0.4-0.2-0.6-0.3c0.2-0.2,0.3-0.3,0.5-0.3c1.2-0.3,2.6-0.7,3.8-0.9c0.6-0.2,1.2-0.2,1.3,0.7
				c0,0.2,0.2,0.3,0.4,0.4c1.6,1,3.2,2,4.7,3c0.7,0.5,1.6,0.5,2.4,0.6c1.6-0.1,3.3-0.2,4.8,0c1.2,0.1,2.4,0.6,3.6,1.2
				c1.7,0.9,3.6,1.7,5.2,2.7c1.6,0.9,3.2,0.8,4.8,0.2c0.9-0.3,1.6-0.9,2-1.9c1-2.4,2.1-4.9,3.1-7.3c0.4-1,0.5-2.2,0.7-3.3
				c0.2-1.3,0.4-2.7,0.6-4c0.5-2.5-0.4-4.6-2.1-6.3c-1.3-1.3-2.8-2.7-4.3-3.8c-0.8-0.6-1.7-1.1-2.7-1.4c-1.1-0.4-2.3-0.5-3.3-0.9
				c-0.1-0.1-0.3-0.3-0.3-0.5c0-0.3,0-0.5,0-0.9c0.1-0.4,0.3-0.8,0.4-1.2c0-0.2,0.1-0.5,0.1-0.7c0.1-0.3,0.2-0.6,0.3-0.9
				c0.5,0.1,1.1,0.2,1.6,0.3c0.7,0.2,1.5,0.3,2.2,0.5c0.2,0.1,0.5,0.2,0.6,0.2c0.7,0.3,1.5,0.5,2.2,0.9c0.9,0.8,1.8,1.5,2.7,2.3
				c0.1,0,0.2,0.1,0.2,0.1c0.3,0.4,0.6,0.7,0.9,1.1c0.2,0.1,0.2,0.2,0.4,0.3c0.4,0.3,0.7,0.8,1,1.1c0.1,0,0.2,0.1,0.2,0.1
				c0.5,0.8,1.1,1.5,1.7,2.2c0.1,0.2,0.2,0.4,0.2,0.5c0.2,1.2,0.5,2.4,0.7,3.7c-0.1,0.1-0.1,0.2-0.1,0.3
				C600,893.9,599.8,895.5,599.6,897z"/>
			<path class="st6" d="M466.2,793.6c0.3,1.6,0.5,3.1,0.9,4.8c0.2,1.2,0.5,2.3,0.8,3.4c0,0.2,0.2,0.5,0.3,0.6c0.8,0.4,0.7,1.2,0.8,2
				c0.2,1.4,0.2,2.9,0.7,4.3c0.6,1.8,1.6,3.5,2.7,5.1c0.7,1.2,1.7,2.3,2.5,3.5c0.5,0.8,1.3,1,2.2,1.1c0.5,0,0.9,0.2,1.1,0.6
				c0.5,0.9,1.2,1.2,2.2,0.8c0.2,0,0.5,0,0.7,0.1c0.5,0.1,0.9,0,0.9-0.5c0.5,0.8,0.3,1.6-0.2,2.3c-0.7,1.2-0.7,1.2,0.3,2
				c0.5,0.4,1,0.6,1.4,0.9c0.3,0.3,0.6,0.5,0.8,0.9c0.7,1.5,2,1.8,3.5,1.5c1.2-0.3,2.3-0.7,3.4-1.2c3.1-1.6,6.2-3.3,9.4-4.8
				c0.8-0.4,1.8-0.5,2.7-0.7c0.1,0,0.2,0.1,0.3,0.2c-2.7,0.5-5,1.8-7.2,3.2c-4.4,2.7-8.3,5.9-12.3,9c-4.4,3.4-8.7,6.8-13,10.1
				c-4,3-8.1,5.7-12.8,7.6c-0.5,0.2-1.1,0.5-1.6,0.7c-1.2,0.3-2.3,0.5-3.5,0.8c-0.6,0.2-1.2-0.3-1.1-0.9c0-0.8,0.1-1.5,0.1-2.3
				c0.2,0.2,0.5,0.5,0.8,0.7c0.5,0.5,1.2,0.7,2,0.5c2.4-0.5,4.5-1.5,6.7-2.5c3.3-1.6,6.2-3.4,9.1-5.5c1.8-1.3,3.4-2.6,5.1-4
				c1-0.9,1.7-2,1.8-3.3c0.1-1-0.1-2-0.7-2.9c-0.5-0.6-0.7-1.4-0.9-2.2c-0.9-2.6-1.7-5.2-3-7.6c-0.6-1.2-1.3-2.3-2-3.5
				c-0.3-0.5-0.5-1.2-0.9-1.7c-0.3-0.4-0.8-0.5-1.2-0.9c0-0.6-0.1-1.2-0.1-2c0-0.5,0-1-0.1-1.5c-0.2-0.6-0.3-1.2-0.6-1.8
				c-0.8-1.8-1.1-3.7-1.4-5.5c-0.5-2.4-1.1-4.8-1.7-7.1c-0.7-2.3-1.4-4.8-2.2-7c-0.9-3-2.1-5.9-3.9-8.5c-0.9-1.2-1.8-2.3-2.8-3.3
				c-1.2-1.2-2.9-1.1-4.5-0.8c-2,0.3-3.5,1.5-4.9,2.9c-1.7,1.8-3.2,3.7-4,6c-0.2,0.4-0.2,0.9-0.2,1.2c-0.5-0.5-0.9-0.9-1.4-1.3
				c-1-1.1-2.2-1.4-3.7-0.9c-0.2,0.1-0.4-0.1-0.5-0.1c0.2-0.4,0.3-0.9,0.5-1.2c0.1,0,0.2,0,0.2-0.1c1-1.5,2-3.1,3.2-4.5
				c1.6-2,3.6-3.7,6-4.6c1.3-0.5,2.8-0.8,4.3-0.6c1.3,0.2,2.5,0.7,3.6,1.3c2.1,1.2,4.1,2.7,5.4,4.8c1.1,1.9,2.4,3.7,3.4,5.7
				c1.1,2.1,2,4.3,3,6.5C465.8,793.2,466,793.6,466.2,793.6z"/>
			<path class="st7" d="M466.4,793.6c0.7,2.1,1.4,4.2,2,6.3c0.3,0.8,0.5,1.6,0.6,2.6c0.3-0.4,0.5-0.7,0.7-1c0.3-0.3,0.5-0.6,0.7-0.9
				c2.9-3.4,6.5-5.9,10.4-7.8c1.7-0.9,3.6-1.6,5.5-2.1c7.2-2.3,14.5-3.2,22-2.7c0.9,0.1,1.7,0.1,2.6,0.2c0.1,0,0.2,0.1,0.3,0.1
				c0.9,2.5,2,4.8,3,7.3c0.6,1.5,1.2,3,2,4.5c1.3,3.1,2.6,6.2,3.8,9.4c0.5,1.2,0.9,2.4,1.4,3.6c-0.2,0.4-0.2,0.6,0.3,0.7
				c0.1,0.3,0.2,0.5,0.3,0.9c-0.2,0.5-0.2,1,0.5,1.2c0.1,0.2,0.2,0.5,0.2,0.7c-0.5-0.5-1.1-0.9-1.4-1.6c-0.3-0.4-0.5-0.8-1-0.9
				c-0.5,0-1-0.3-1.6-0.5c-0.3-0.5-0.5-0.9-0.9-1.3c1.1-0.7,1.2-1.2,0.6-3c-0.5-2-1.2-3.7-2-5.6c-0.3-0.7-0.8-1.4-1.1-2.1
				c-0.9-2-1.8-4.1-2.7-6c-0.9-1.7-1.8-3.3-3.4-4.2c-1.9-1-3.8-1.5-5.9-1.6c-5.7-0.3-11.2,0.5-16.6,2.2c-1.3,0.4-2.8,0.7-4,1.4
				c-2.2,1.2-4.3,2.5-6.4,3.9c-1.2,0.9-2.3,2-3.4,2.9c-0.3,0.2-0.8,0.2-1.2,0.3c-0.1-0.1-0.1-0.1-0.2-0.2c-0.1,0.5-0.2,0.9-0.2,1.3
				c0,0.5,0,1,0.1,1.6c0,0.6,0.2,1.1,0.7,1.5s0.9,1,0.9,1.7c-0.1,2.3,0.9,4,2.4,5.6c1.5,1.7,2.9,3.4,4.8,4.7c0.5,0.5,1.2,0.6,2,1
				c0.5,0.4,1.1,0.8,1.6,1.2c-0.3,0.2-0.5,0.2-0.9,0.3c-0.4,0.2-0.7,0.3-1,0.4c-0.1,0.5-0.5,0.7-0.9,0.5c-0.2-0.1-0.5-0.2-0.7-0.1
				c-1,0.4-1.6,0.2-2.2-0.8c-0.2-0.4-0.5-0.6-1.1-0.6c-0.8-0.1-1.6-0.4-2.2-1.1c-0.9-1.2-1.8-2.3-2.5-3.5c-0.9-1.6-2-3.4-2.7-5.1
				c-0.5-1.3-0.5-2.8-0.7-4.3c-0.2-0.7,0-1.5-0.8-2c-0.2-0.1-0.2-0.4-0.3-0.6c-0.3-1.2-0.5-2.3-0.8-3.4c-0.3-1.6-0.5-3.1-0.9-4.8
				c-0.1-0.2-0.2-0.5,0.2-0.5C466.4,793.3,466.4,793.5,466.4,793.6z"/>
			<path class="st8" d="M600.7,893c-0.2,0.5-0.2,0.9-0.3,1.3c0,0.2,0.2,0.4,0.2,0.5c-0.6,1.7-1.2,3.4-1.9,5.1c0.2-1,0.6-2,0.8-3
				c0.3-1.6,0.5-3.2,0.7-4.8C600.6,892.3,600.8,892.6,600.7,893z"/>
			<path class="st8" d="M595.7,908.1c0-0.2-0.2-0.5-0.1-0.6c0.3-1,0.7-2,1.1-3c0.1-0.2,0.2-0.2,0.4-0.3
				C596.7,905.5,596.2,906.8,595.7,908.1z"/>
			<path class="st8" d="M597.9,902.2c-0.2,0.6-0.4,1.2-0.6,1.7c0-0.2-0.1-0.4,0-0.5C597.4,903,597.6,902.6,597.9,902.2
				C597.8,902.2,597.8,902.3,597.9,902.2z"/>
			<path class="st8" d="M598.5,900.4c-0.2,0.6-0.5,1.2-0.7,1.8c-0.1,0-0.1,0-0.1,0C598,901.6,598.3,901,598.5,900.4z"/>
			<path class="st9" d="M553.5,894.4c-0.7-1.7-1.6-3.4-2.3-5.1c-0.7-1.6-1.3-3.2-2-4.8c-1.2-3-2.4-6-3.7-9.1
				c-0.9-2.3-1.8-4.8-2.1-7.3c-0.5-3.9-0.9-7.7-0.9-11.7c0.1-4.8,0.5-9.7,1.1-14.6c0.5-3.4,1.1-6.6,1.6-9.9c0.1,0,0.1,0,0.1,0.1
				c0.7,1.4,1.6,1.7,3.1,1.5c2.3-0.3,4.4-0.5,6.6-0.2c0.5,0.2,0.9,0.2,1.4,0.4c0.8,0.2,1,0.6,0.9,1.5c-0.3,3-0.7,5.9-0.9,9
				c-0.2,3.4-0.2,6.6-0.4,10c-0.2,3.3-0.2,6.6-0.3,9.8c-0.1,1.9-0.1,3.7-0.2,5.6c-0.2,3.1-0.5,6.2-0.8,9.3c-0.2,1.3-0.6,2.6-0.9,3.8
				c-0.3,1.5-0.6,3-0.8,4.6c-0.1,1-0.2,2.2,0,3.2c0.2,1.5,0.5,3,1.2,4.4c0.8,2,1.9,3.8,3,5.7c0.9,1.6,3,2.6,4.9,2.1
				c1.5-0.4,3-0.9,4.5-1.5c0.6-0.2,1-0.1,1.6,0.2c1.6,0.6,3.2,0.9,4.8,1.6c1.6,0.8,3.4,0.8,5.1,1.2c1.3,0.3,2.5,0.9,3.7,1.8
				s2.7,1.6,4,2.3c0.9,0.5,2,1,3,1.4c0.4,0.2,0.9,0.2,1.2,0.2c0.5,0,0.9-0.3,1.2-0.9c0.6-1.5,1.4-2.9,2-4.4c0.5-1.1,0.8-2.2,1-3.4
				c0.2-1.3,0.3-2.7,0.5-4.1c0.2-1.6-0.2-2.9-1.1-4.1c-1.6-2.3-3.6-4.3-6-5.7c-1.2-0.7-2.7-1.1-4.1-1.1c-0.3,0-0.5,0-1-0.1
				c0.3-0.9,0.6-1.7,0.9-2.5c0.3-0.7,0.6-1.3,0.9-2c0-0.1,0.2-0.2,0.2-0.2c-0.1,0.3-0.1,0.5,0,0.9c0,0.2,0.2,0.5,0.3,0.5
				c1.1,0.3,2.3,0.5,3.3,0.9c0.9,0.4,2,0.8,2.7,1.4c1.5,1.2,3,2.5,4.3,3.8c1.7,1.7,2.5,3.8,2.1,6.3c-0.2,1.3-0.3,2.7-0.6,4
				c-0.2,1.1-0.3,2.2-0.7,3.3c-0.9,2.4-2.1,4.9-3.1,7.3c-0.4,1-1.1,1.5-2,1.9c-1.6,0.5-3.2,0.6-4.8-0.2c-1.7-0.9-3.5-1.7-5.2-2.7
				c-1.1-0.5-2.3-1.1-3.6-1.2c-1.6-0.1-3.3,0-4.8,0c-0.9,0-1.6-0.1-2.4-0.6c-1.5-1-3.1-2-4.7-3c-0.2-0.2-0.4-0.2-0.4-0.4
				c-0.2-0.9-0.8-0.8-1.3-0.7c-1.3,0.3-2.6,0.6-3.8,0.9c-0.2,0.1-0.2,0.2-0.5,0.3c0.3,0.2,0.5,0.2,0.6,0.3c1.3,0.5,2.6,0.9,3.9,1.5
				c0.5,0.2,1,0.5,1.5,0.8c1,0.7,2,1.4,2.9,2c0.5,0.4,0.5,1.2,0.2,1.7c-0.6,0.9-1.2,1.8-2,2.6c-1.8,2-3.6,4-5.6,5.6
				c-2.5,2.1-4.9,4.4-6.9,6.9c-1.2,1.5-2.7,2.3-4.2,3.2c-0.3-0.9-0.5-2-0.9-2.8c-0.5-1.9-0.8-3.8-0.1-5.8c0.3-0.9,0.5-1.6,0.8-2.4
				c0.4-1.2,0.8-2.3,1.2-3.5c0.3-0.7,0.7-1.4,1.2-2c1.8-2.1,3.2-4.3,4.1-6.9c0.2-0.7,0.5-1.1,1.3-1.2c0.2,0,0.5-0.5,0.4-0.5
				c-0.4-0.8-0.8-1.6-1.2-2.4C555.5,899.1,554.6,896.7,553.5,894.4z M556,919.5c1-1,2.1-2,3-3c2.2-2.3,4.4-4.6,6.6-6.9
				c0.5-0.5,0.4-1-0.1-1.4c-0.9-0.9-1.9-1.6-3-2c-1.1-0.3-2.2-0.7-3.3-1c-0.6-0.2-1,0-1.2,0.6c-0.9,2.5-2.3,4.8-3.7,7.1
				c-0.3,0.5-0.4,1.3-0.4,2c-0.1,1.5,0.1,3,0,4.6c0,0.5-0.3,1.1-0.4,1.6c0,0.2-0.1,0.4-0.2,0.6c0.1,0.1,0.2,0.1,0.2,0.2
				C554.4,921.1,555.2,920.4,556,919.5z"/>
			<path class="st7" d="M466,816.5c-1.8,0.8-3.6,1.5-5.3,2.3c-1.9,1-3.7,2.2-5.6,3.3c-0.5,0.4-1.1,0.8-1.6,1.2
				c-0.5,0.3-0.9,0.6-1.4,0.9c-0.5,0.4-0.9,0.9-1.4,1.2c-0.2,0.2-0.5,0.2-0.9,0.2c-0.1-0.8-0.2-1.6-0.2-2.3
				c-0.9-7.9-1.8-15.8-3.5-23.6c-0.7-3.2-1.5-6.4-3-9.4c-0.3-0.6-0.7-1.2-1-1.9c0.1-0.4,0.1-0.9,0.2-1.2c0.9-2.3,2.3-4.3,4-6
				c1.3-1.3,2.9-2.6,4.9-2.9c1.6-0.3,3.3-0.5,4.5,0.8c1.1,1,2,2.2,2.8,3.3c1.8,2.6,3,5.5,3.9,8.5c0.8,2.3,1.6,4.7,2.2,7
				s1.2,4.7,1.7,7.1c0.4,1.9,0.6,3.7,1.4,5.5c0.2,0.6,0.5,1.2,0.6,1.8c0.1,0.5,0.1,1,0.1,1.5c0,0.6,0.1,1.2,0.1,2
				C467.8,816.1,466.8,816.3,466,816.5z"/>
			<path class="st10" d="M545.5,831.6c0.6-3.3,0.9-6.6,2.5-9.7c1.2-2.1,2.7-3.9,4.8-5.1c2.7-1.4,5.8-1.6,8.8-1.3
				c1.8,0.2,3.6,0.6,5.3,1c1.5,0.4,3,0.9,4.4,1.4c1.2,0.4,2.3,1,3.4,1.5c1.6,0.8,3.4,1.4,5,2.3c2.3,1.2,4.7,2.7,6.9,4
				c2.1,1.3,4.2,2.8,6.3,4.1c0.4,0.3,0.6,0.5,0.4,1.1c-0.5,1-0.9,2-1.2,3c-0.4,1-0.9,2.1-1.3,3.1c-0.8,1.7-1.6,3.5-2.3,5.2
				c-0.5,1.1-1,2.2-1.6,3.2c-0.6,1.3-1.2,2.5-1.9,3.7c-0.3,0.4-0.5,0.9-0.8,1.3s-0.5,0.9-0.8,1.3c-0.2,0.2-0.2,0.5-0.4,0.8
				c-0.3,1-0.6,2-0.9,3c0,0.1-0.1,0.2-0.1,0.3c0-0.3-0.1-0.6-0.1-0.9c0-0.2-0.1-0.4-0.1-0.5c0.1-0.2,0.1-0.3,0.2-0.5
				c0.2-0.2,0.6-0.5,0.2-0.9c0.1-0.3,0.2-0.6,0.3-0.9c0.2-0.4,0.5-0.7,0.8-1.2c1.1-2.1,2.3-4.1,3.4-6.2c0.7-1.3,1.2-2.7,1.9-4.1
				c0.4-0.8,0.8-1.6,1-2.4c0.5-1.7,1-3.4,1.5-5.1c0.1-0.3,0.2-0.5,0.3-0.8c0.2-0.6,0.1-1.2-0.2-1.7c-1.5-2.8-4.1-4.4-6.6-6
				c-1.7-1-3.4-2-5.1-3c-0.9-0.5-1.7-0.9-2.6-1.2c-2.7-1.1-5.4-2.3-8.1-3.3c-2.3-0.8-4.8-1.4-7.3-1.6c-1.3-0.1-2.7,0.2-4,0.2
				c-2.8,0.2-5.1,1.2-7,3.4c-1.7,2-2.8,4.1-3.4,6.6c-0.2,0.7-0.2,1.4-0.3,2.1c0,0.1-0.1,0.2-0.1,0.3c0,0.2-0.1,0.4-0.1,0.5
				s-0.1,0.3-0.1,0.4c-0.1,0.3-0.2,0.5-0.2,0.9c-0.4,1.6,0.5,2.7,2.3,2.6c1.7,0,3.4-0.1,5.1-0.1c1.4,0.1,2.8,0.2,4.1,0.9
				c0.9,0.5,1.4,1.4,1.2,2.4c-0.4,3-0.8,6.2-0.9,9.3c-0.2,6.1-0.2,12.2-0.3,18.3c0,4.4,0,8.8-0.1,13.2c0,2.3-0.5,4.5-1,6.8
				c-0.5,2-0.9,4.1-1,6c-0.2,1.9,0.1,3.8,1,5.5c2,3.7,5.1,5.8,9.8,4.8c3-0.6,5.5-2.3,7.9-4.1c2.3-2,4.4-4.2,6-6.8
				c1.2-1.8,2-3.7,3-5.5c0.9-1.6,1.2-3.4,1.7-5.2c0.1-0.3-0.2-0.6-0.2-0.9c-0.2-0.8-0.3-1.6-0.5-2.4c-0.2-0.9-0.4-1.8-0.5-2.7
				c-0.1-0.2-0.3-0.5-0.4-0.6c-0.2-0.9-0.3-1.9-0.5-2.8c-0.1-1.2-0.2-2.4-0.4-3.7c-0.1-0.9-0.2-1.6-0.3-2.5c-0.1,0,0.1-0.1,0.2-0.1
				c0.1,0.6,0.2,1.2,0.3,1.7c0.1,0.4,0.1,0.8,0.2,1.1c0.1,0.2,0.1,0.2,0.2,0.4c0,0.4-0.2,0.9,0.3,1.2c-0.1,0-0.1,0-0.1,0.1
				c0,0.3-0.1,0.6,0,0.9c0.8,3.4,1.6,6.7,2.3,10.1c0,0.2,0.1,0.5,0.2,0.7c-0.1,0.3-0.2,0.6-0.3,0.9c-0.2,0.2-0.5,0.4-0.1,0.7
				c-0.1,0.4-0.3,0.8-0.4,1.2c-0.1,0.1-0.2,0.2-0.2,0.2c-0.3,0.6-0.6,1.3-0.9,2c-0.3,0.9-0.6,1.6-0.9,2.5c0.5,0,0.8,0.1,1,0.1
				c1.5,0.1,2.8,0.4,4.1,1.1c2.4,1.4,4.4,3.4,6,5.7c0.8,1.2,1.2,2.6,1.1,4.1c-0.2,1.3-0.3,2.7-0.5,4.1c-0.2,1.1-0.5,2.3-1,3.4
				c-0.6,1.5-1.4,2.9-2,4.4c-0.2,0.6-0.5,0.9-1.2,0.9c-0.4,0-0.9,0-1.2-0.2c-1-0.5-2-0.9-3-1.4c-1.3-0.7-2.7-1.4-4-2.3
				c-1.2-0.8-2.3-1.4-3.7-1.8c-1.6-0.4-3.4-0.5-5.1-1.2c-1.5-0.7-3.2-1.1-4.8-1.6c-0.5-0.2-1-0.3-1.6-0.2c-1.5,0.5-3,1-4.5,1.5
				c-1.8,0.5-4-0.5-4.9-2.1c-1-1.9-2.1-3.7-3-5.7c-0.5-1.3-0.9-2.9-1.2-4.4c-0.2-1-0.2-2.2,0-3.2c0.2-1.6,0.5-3.1,0.8-4.6
				c0.2-1.3,0.7-2.6,0.9-3.8c0.4-3.1,0.6-6.2,0.8-9.3c0.1-1.9,0.1-3.7,0.2-5.6c0.1-3.3,0.2-6.6,0.3-9.8c0.1-3.4,0.2-6.7,0.4-10
				c0.2-3,0.6-6,0.9-9c0.2-0.9-0.1-1.2-0.9-1.5c-0.5-0.2-0.9-0.3-1.4-0.4c-2.3-0.4-4.4-0.2-6.6,0.2c-1.6,0.2-2.4-0.2-3.1-1.5
				c0-0.1-0.1-0.1-0.1-0.1C545.5,831.8,545.5,831.7,545.5,831.6z M579.8,892.1c-0.7,0.2-1.4,1-2,1.6c-1.4,1.3-2.8,2.6-4.2,3.9
				c-0.2,0.2-0.5,0.4-0.8,0.6c-0.2,0.2-0.2,0.4-0.3,0.6c0.2,0,0.4,0.2,0.5,0.2c2.1,0,4.1,0.7,6.2,1.2c1.6,0.4,2.5,1.6,3.2,2.9
				c0.8,1.5,2,2.6,3.6,3.3c0.9,0.4,1.7,0.9,2.6,1.4c0.5,0.3,0.6,0.2,0.8-0.3c0.3-2.6,1.1-5.1,2-7.5c0.2-0.3,0.2-0.6,0.4-0.9
				c0.3-0.8-0.2-1.3-0.5-1.9c-1.1-2.3-2.8-3.8-5.3-4.8C583.9,891.7,581.8,891.6,579.8,892.1z"/>
			<path class="st11" d="M451.5,836.1c0.2-0.7,0.2-1.6,0.3-2.3c0.2-0.7,0.4-1.4,0.7-2.1c0.4-0.9,0.9-1.6,1.5-2.3
				c1.4-2,3-3.6,4.8-5.1c2.7-2.1,5.5-4,8.7-5.3c1-0.4,1.9-0.4,2.5,0.5c0.7,1,1.5,2,2.1,3.1c1.4,2.4,2,5.1,2.9,7.8
				c0.2,0.5,0.3,1.2,0.5,1.7c0.5,1.6,0.1,3.2-0.5,4.7c-0.1,0.3-0.3,0.5-0.5,0.7c-3,2-6.1,4.1-9.1,6.1c-2,1.2-4.1,1.7-6.3,2.2
				c-1.1,0.2-2.3,0.3-3.4,0.4c-0.6,0.1-1.1-0.2-1.3-0.9c-0.9-2.2-1.8-4.4-2.7-6.6c-0.1-0.2-0.4-0.3-0.5-0.5c0-0.4-0.1-0.8-0.1-1.2
				C451.1,836.6,451.4,836.4,451.5,836.1z M457.1,833c-0.2,0.7-0.2,1.3,0.3,2c1,1.3,2.2,2.4,3.6,3.2c0.9,0.5,2,1,3,1.2
				c0.7,0.2,1.6-0.1,2.3-0.3c1.5-0.8,3-1.6,4.4-2.5c0.6-0.4,1.2-0.9,1.9-1.2c1.3-0.5,1.6-1.9,1.4-3c-0.5-2.4-1.1-4.8-1.8-7.2
				c-0.3-1.2-1-2.3-1.6-3.4c-0.4-0.7-1.6-0.9-2.3-0.5c-2.4,1.7-5,3.4-7.3,5.1c-1.2,0.8-1.9,2-2.4,3.2c-0.4,0.9-0.9,1.9-1.2,2.7
				c-0.1,0,0,0,0,0C457.1,832.7,457.1,832.8,457.1,833z"/>
			<path class="st12" d="M449.7,825.6c0.3-0.1,0.6-0.1,0.9-0.2c0.5-0.4,0.9-0.8,1.4-1.2c0.5-0.3,0.9-0.6,1.4-0.9
				c0.5-0.4,1-0.9,1.6-1.2c1.9-1.1,3.7-2.3,5.6-3.3c1.7-0.9,3.5-1.6,5.3-2.3c0.8-0.3,1.6-0.5,2.5-0.8c0.4,0.3,0.9,0.5,1.2,0.9
				c0.5,0.5,0.6,1.2,0.9,1.7c0.6,1.2,1.3,2.3,2,3.5c1.3,2.4,2.1,5.1,3,7.6c0.2,0.7,0.5,1.5,0.9,2.2c0.7,0.9,0.8,1.9,0.7,2.9
				c0,1.4-0.8,2.5-1.8,3.3c-1.6,1.4-3.4,2.7-5.1,4c-2.9,2.1-5.9,4.1-9.1,5.5c-2.2,1-4.4,2-6.7,2.5c-0.8,0.2-1.5,0-2-0.5
				c-0.2-0.2-0.5-0.5-0.8-0.7c0-0.2-0.1-0.4-0.1-0.6c-0.1-1.7-0.2-3.4-0.3-5.1c-0.1-1.6-0.2-3.3-0.2-4.9c0.2,0.2,0.4,0.4,0.5,0.5
				c0.9,2.2,1.9,4.4,2.7,6.6c0.2,0.6,0.7,0.9,1.3,0.9c1.1-0.2,2.3-0.2,3.4-0.4c2.2-0.5,4.4-1,6.3-2.2c3-2,6.1-4.1,9.1-6.1
				c0.2-0.2,0.5-0.4,0.5-0.7c0.7-1.5,1-3,0.5-4.7c-0.2-0.5-0.3-1.2-0.5-1.7c-0.8-2.6-1.5-5.4-2.9-7.8c-0.6-1.1-1.3-2.1-2.1-3.1
				c-0.7-0.9-1.6-0.9-2.5-0.5c-3.1,1.4-6,3.2-8.7,5.3c-1.9,1.5-3.5,3.1-4.8,5.1c-0.5,0.8-1,1.6-1.5,2.3c-0.3,0.6-0.5,1.4-0.7,2.1
				s-0.2,1.6-0.3,2.3c-0.1,0.3-0.3,0.6-0.5,0.9C450.6,833.1,450.3,829.4,449.7,825.6z"/>
			<path class="st13" d="M523,817.3c0.6,1.4,1.1,2.9,1.7,4.4c0.7,1.7,1.5,3.4,2.2,5.1c0.2,0.5,0.5,1.2,0.7,1.9
				c-0.3-0.1-0.5-0.2-0.7-0.3c-2.1-0.9-4.2-1.7-6.4-2.5c-4.3-1.6-8.6-3.1-13-4.6c-1.4-0.5-2.8-1.1-4.4-0.9c-0.1-0.1-0.2-0.2-0.3-0.2
				c-0.9,0.2-1.9,0.3-2.7,0.7c-3.1,1.6-6.2,3.3-9.4,4.8c-1.1,0.6-2.3,1-3.4,1.2c-1.4,0.3-2.7,0.1-3.5-1.5c-0.2-0.4-0.5-0.6-0.8-0.9
				c-0.5-0.4-0.9-0.6-1.4-0.9c-1-0.9-1-0.9-0.3-2c0.5-0.7,0.7-1.5,0.2-2.3c0.4-0.2,0.7-0.3,1-0.4c0.3-0.2,0.5-0.2,0.9-0.3
				c0.9,0.5,2,0.3,3,0.2c-0.2,0.5-0.5,0.9-0.7,1.5c-0.5,1.1-0.5,1.6,0.5,2.2c1.1,0.5,2.2,1.2,3.6,1.3c1.6,0.2,3-0.5,4.4-1.2
				c2.2-1.1,4.2-2.3,6.6-2.7c1.2-0.2,2.3,0,3.6,0.2c0.9,0.2,2,0.4,2.9,0.6c1.2,0.2,2.3,0.5,3.4,0.8c1.6,0.4,3,0.8,4.6,1
				c1.1,0.2,2.1,0.5,3.2,0.5c1.3,0,1.8-0.5,1.4-1.7c-0.5-1.3-1-2.6-1.4-3.9c-0.3-1.2-1-1.9-2-2.6c0.4-0.3,0.8-0.5,1.2-0.8
				c0.2-0.2,0.4-0.3,0.6-0.5c0.5,0.2,1,0.5,1.6,0.5s0.7,0.5,1,0.9c0.5,0.6,0.9,1,1.4,1.6C522.7,816.7,522.9,817,523,817.3z"/>
			<path class="st8" d="M583.4,867.8c0.5,2,0.9,4,1.3,6c0.4,1.4,0.8,2.8,1.2,4.3c0.1,0.4,0.2,0.5,0.6,0.5c0.2,0,0.5,0.4,0.7,0.5
				c-0.5-0.1-1.1-0.2-1.6-0.3c0-0.2-0.1-0.5-0.2-0.7c-0.8-3.4-1.6-6.7-2.3-10.1c-0.1-0.3,0-0.6,0-0.9
				C583.2,867.4,583.4,867.5,583.4,867.8z"/>
			<path class="st14" d="M582.1,857.2c0,0.2,0,0.4,0,0.5c0,0.3,0,0.7,0,1c0,0.1,0,0.1,0,0.1c0,0.8,0,1.7,0.1,2.5c0,0.1,0,0.3,0,0.4
				s-0.1,0.2-0.1,0.2c-0.1-0.1-0.3-0.1-0.2-0.2c-0.2-2.4-0.4-4.8,0.2-7.2c0,0.2,0.1,0.4,0.1,0.5c0,0.3,0.1,0.6,0.1,0.9
				C582.1,856.4,582.1,856.7,582.1,857.2z"/>
			<path class="st8" d="M582.7,862.5c0.2,0.7,0.2,1.5,0.2,2.2c0,0.3-0.2,0.6-0.3,0.9c-0.1-0.4-0.1-0.8-0.2-1.1
				c-0.1-0.6-0.2-1.2-0.3-1.7c0-0.1,0-0.1,0-0.1c0-0.2,0-0.3,0-0.5c-0.1-0.1-0.1-0.2-0.1-0.2c0-0.1,0.1-0.2,0.1-0.2
				C582.4,862,582.7,862.2,582.7,862.5z"/>
			<path class="st8" d="M600.4,889.4c0,0.5,0.2,1.1,0.2,1.6c0.2,0.5,0.1,0.8-0.3,1c-0.2-1.2-0.5-2.4-0.7-3.7
				C600.1,888.5,600.4,888.8,600.4,889.4z"/>
			<path class="st8" d="M592.8,880.8c0.7,0.5,1.3,0.9,2,1.5c0.2,0.1,0.1,0.5,0.1,0.7c-0.9-0.8-1.8-1.5-2.7-2.3
				C592.4,880.7,592.6,880.7,592.8,880.8z"/>
			<path class="st8" d="M598.2,885.6c0.4,0.3,0.6,0.7,0.9,1.1c0.2,0.4,0.5,0.8,0.2,1.2c-0.5-0.8-1.1-1.5-1.7-2.2
				C597.8,885.6,598.1,885.6,598.2,885.6z"/>
			<path class="st8" d="M582.2,861.3c0-0.8,0-1.7-0.1-2.5C582.7,859.2,582.8,860.6,582.2,861.3z"/>
			<path class="st8" d="M597.4,885.5c-0.4-0.3-0.7-0.8-1-1.1C597.1,884.2,597.7,884.7,597.4,885.5z"/>
			<path class="st8" d="M595.7,883.1c0.3,0.2,0.5,0.5,0.3,1c-0.3-0.4-0.6-0.7-0.9-1.1C595.2,883.1,595.6,883.1,595.7,883.1z"/>
			<path class="st8" d="M584.2,850.8c0.3-0.4,0.5-0.9,0.8-1.3C585.3,849.9,584.9,850.7,584.2,850.8z"/>
			<path class="st8" d="M582.3,855.8c0.5,0.4,0.4,1-0.2,1.2c0-0.3,0-0.6,0-1C582.2,856,582.2,855.9,582.3,855.8z"/>
			<path class="st8" d="M583.2,867.1c-0.5-0.2-0.3-0.8-0.3-1.2C583.5,866.1,583.3,866.6,583.2,867.1z"/>
			<path class="st13" d="M522.3,815.7c-0.7-0.2-0.7-0.6-0.5-1.2C522,815,522.1,815.3,522.3,815.7z"/>
			<path class="st8" d="M583.8,852.5c-0.2,0.1-0.5,0.2-0.6,0.3c0.2-0.2,0.2-0.5,0.4-0.8C583.6,852.2,583.7,852.3,583.8,852.5z"/>
			<path class="st8" d="M582.1,858.6c0-0.3,0-0.7,0-1C582.7,857.9,582.5,858.3,582.1,858.6z"/>
			<path class="st8" d="M589.9,879.4c0,0.2,0.2,0.3,0.2,0.5c-0.2-0.1-0.5-0.2-0.6-0.2C589.5,879.6,589.6,879.6,589.9,879.4z"/>
			<path class="st13" d="M521.6,813.7c-0.4-0.1-0.5-0.3-0.3-0.7C521.4,813.3,521.4,813.5,521.6,813.7z"/>
			<path class="st9" d="M585.1,880.4c-0.4-0.3-0.2-0.5,0.1-0.7C585.2,880,585.1,880.3,585.1,880.4z"/>
			<path class="st15" d="M515,812.1c0.2-0.2,0.4-0.3,0.5-0.3c1.3-0.2,1.9-1,1.7-2.3c-0.2-1.1-0.6-2.1-0.9-3.2
				c-0.2-0.5-0.3-1-0.5-1.6c-0.5-1.1-1.1-2.1-1.6-3.2c-0.9-1.7-1.8-3.4-2.7-5c-0.9-1.7-2.1-3.1-3.7-4.1c-1.9-1.2-3.9-1.6-6.1-1.7
				c-5.9-0.5-11.6,0.5-17.2,2.5c-2.2,0.9-4.3,2.1-6.3,3.4c-1.5,0.9-2.9,2-4.2,3.2c-1.6,1.4-1.6,1.5-0.7,3.4c0.9,1.7,1.4,3.6,1.8,5.5
				c0.2,1.1,0.9,1.9,1.5,2.7c1.2,1.5,2.3,3,3.8,4.1c0.6,0.5,1.3,0.9,2,1.2c-0.2,0.2-0.5,0.5-0.8,0.9c-0.6-0.3-1.4-0.5-2-1
				c-1.8-1.3-3.3-3-4.8-4.7c-1.4-1.6-2.4-3.4-2.4-5.6c0-0.7-0.3-1.2-0.9-1.7c-0.5-0.4-0.7-0.9-0.7-1.5c0-0.5-0.1-1-0.1-1.6
				c0-0.5,0.2-0.9,0.2-1.3c0.1,0.1,0.1,0.1,0.2,0.2c0.4-0.1,0.9-0.1,1.2-0.3c1.2-0.9,2.2-2,3.4-2.9c2-1.3,4.1-2.7,6.4-3.9
				c1.2-0.6,2.7-1,4-1.4c5.4-1.7,11-2.6,16.6-2.2c2.1,0.2,4.1,0.6,5.9,1.6c1.7,0.9,2.7,2.6,3.4,4.2c1,2,1.8,4.1,2.7,6
				c0.4,0.7,0.8,1.3,1.1,2.1c0.7,1.9,1.5,3.7,2,5.6s0.5,2.3-0.6,3C516.8,812.1,515.9,812.1,515,812.1z"/>
			<path class="st16" d="M484.1,816.3c0.5,0,0.9,0.2,1.2,0c1.1-0.5,2.1-1.1,3.1-1.6c0.7-0.2,1.2-0.3,1.9-0.5
				c1.7-0.6,3.5-1.2,5.4-1.3c1.9-0.2,3.7-0.5,5.6-0.6c2.7-0.1,5.4-0.1,8.1-0.1c1,0,2.1-0.1,3.1-0.2c0.1,0,0.2,0.1,0.3,0.1
				c-0.4,0.6-0.5,1.3-0.4,2c-0.2,0.1-0.4,0.1-0.7,0.2c-0.8-0.7-1.8-0.5-2.7-0.6c-2.7-0.2-5.5-0.3-8.3-0.2c-2.1,0.1-4.1,0.5-6.2,1
				c-0.9,0.2-1.8,1-2.8,1.6c-0.2,0-0.4,0-0.5,0.1c-1.2,0.8-2.3,1.5-3.5,2.2c-0.5,0.3-1,0.4-1.6,0.6c-1,0.1-2,0.2-3-0.2
				c-0.5-0.4-1.1-0.8-1.6-1.2c0.2-0.2,0.5-0.5,0.8-0.9C483.1,816.5,483.7,816.4,484.1,816.3z"/>
			<path class="st12" d="M515,811.9c0.9,0.1,1.7,0.2,2.6,0.2c0.3,0.5,0.5,0.9,0.9,1.3c-0.2,0.2-0.4,0.4-0.6,0.5
				c-0.3,0.3-0.8,0.5-1.2,0.8c-0.9-0.2-2-0.3-2.9-0.5c-0.4-0.1-0.9-0.2-1.2-0.4c-0.2-0.7,0-1.4,0.4-2
				C513.7,812,514.3,811.9,515,811.9z"/>
			<path class="st10" d="M553.3,921.8c0-0.2,0.1-0.4,0.2-0.6c0.2-0.5,0.4-1,0.4-1.6c0.1-1.5-0.1-3,0-4.6c0.1-0.7,0.1-1.5,0.4-2
				c1.4-2.3,2.7-4.6,3.7-7.1c0.2-0.6,0.6-0.9,1.2-0.6c1.1,0.3,2.2,0.7,3.3,1c1.2,0.4,2.1,1.2,3,2c0.5,0.4,0.5,0.9,0.1,1.4
				c-2.2,2.3-4.4,4.6-6.6,6.9c-1,1-2,2-3,3c-0.8,0.8-1.6,1.6-2.4,2.3C553.5,921.9,553.4,921.8,553.3,921.8z"/>
			<path class="st17" d="M582,862.9c0.1,0.9,0.2,1.6,0.3,2.5c0.1,1.2,0.2,2.4,0.4,3.7c0,0.6,0.1,1.2,0.1,1.8
				c-0.1-0.5-0.4-0.9-0.4-1.4c-0.3-2.3-0.5-4.8-0.8-7.1c0-0.2-0.2-0.3-0.2-0.5s0-0.3,0-0.5c0-1,0-2-0.1-3c-0.1-2,0.1-4,0.7-5.9
				c0.3-1.2,1.1-2.2,1.6-3.4c0.4-0.9,0.9-1.8,1.3-2.7c0.7-1.6,1.5-3.3,2.1-4.9c0.7-2.2,1.6-4.4,1.3-6.9c-0.2-1.4-0.3-3-0.7-4.3
				c-0.3-0.9-1-1.6-1.6-2.3c-1.7-2-3.9-3.3-6.2-4.5c-2.1-1.2-4.4-2.3-6.6-3.4c-1.9-0.9-3.8-1.6-5.8-2.3c-0.9-0.4-2-0.6-3-0.8
				c-2.6-0.4-5.2-0.3-7.7,0.5c-3,0.9-5.1,2.7-6.7,5.2c-1.2,1.7-1.8,3.7-2.3,5.7s0.2,2.7,2.3,2.7c0.3,0,0.6-0.1,0.9-0.2
				c0.1,0,0.2,0.1,0.3,0.1c0.5-0.1,0.9-0.1,1.3-0.1c0.7,0.1,1.3,0.2,2,0.3c1.1,0.3,2.2,0.7,3.3,1c0.2,0.1,0.2,0.2,0.4,0.3
				c0.1,0,0.3,0.1,0.4,0.1c0.1,0.1,0.2,0.2,0.2,0.2c0.1,0,0.2,0.1,0.3,0.1c0.1,0.2,0.2,0.2,0.2,0.4c0.1,0,0.2,0.1,0.3,0.1
				c0.8,0.5,1.3,1.3,1.6,2.3c0.2,0.5,0.3,1.2,0.2,1.7c-0.2,2.5-0.6,5-0.6,7.5c-0.2,6.9-0.1,13.9-0.1,20.8c0,5.3,0.1,10.6,0,15.8
				c0,1.6-0.2,3.2-0.2,4.8c0,0.9,0.3,1.8,0.4,2.7c0.2,1.4,1,2.1,2.2,2.7c1,0.5,2,1.2,3.2,1.2c1.7,0,3.4-0.5,4.9-1.3
				c2.7-1.5,4.8-3.4,6.6-5.8c1.6-2,2.9-4.1,3.7-6.6c0.4-1.1,0.9-2.2,1.4-3.3c0.2-0.4,0.2-0.9,0.2-1.3c-0.1-0.9-0.2-1.8-0.4-2.8
				c0.2,0.9,0.5,1.7,0.7,2.6c0.2,0.4,0.2,0.6,0.2,1c0.2,0.6,0.1,1.2-0.2,1.9c-0.5,0.9-0.7,2.1-1.1,3.1c-0.9,2.3-2.1,4.5-3.6,6.6
				c-1.6,2.3-3.6,4.4-5.9,6.1c-2.6,1.9-5.4,2.6-8.5,2.3c-1.1-0.1-2-0.5-2.8-1.2c-0.5-0.5-1.2-0.9-1.7-1.3c-0.3-0.3-0.5-0.6-0.7-1
				c-0.9-2.2-0.5-4.4-0.2-6.6c0.2-3.6,0.5-7.2,0.7-10.8c0.1-2.5,0-5.1,0-7.6c0-2.9,0.2-5.7,0.2-8.6c0.1-4.1,0-8.1,0.2-12.2
				c0.2-3.1,0.5-6.2,0.9-9.4c0-0.5,0-1-0.4-1.4c-1.2-1.4-2.5-2.7-4.4-3.1c-1.3-0.2-2.7-0.4-4.1-0.5c-1.3-0.2-2.7-0.2-4.1-0.2
				c-0.6,0-1.1-0.6-1.1-1.3c0-0.6,0.1-1.2,0.2-1.9c0.7-2.2,1.2-4.5,2.6-6.5c1.6-2.3,3.7-4,6.4-4.8c2-0.5,4.1-0.6,6.2-0.8
				c1.1-0.1,2.3,0.2,3.4,0.5c2.4,0.7,4.9,1.6,7.3,2.5c2,0.8,3.9,1.8,5.8,2.8c1.6,0.9,3.2,1.6,4.6,2.6c1.3,0.9,2.6,1.9,3.7,2.9
				c0.8,0.8,1.5,1.7,2.2,2.6c0.2,0.2,0.2,0.4,0.2,0.6c0.3,1.9,0.5,3.8-0.2,5.7c-0.9,2.1-1.5,4.3-2.3,6.4c-0.7,1.7-1.6,3.4-2.3,5.1
				c-0.7,1.4-1.4,2.9-2.1,4.2c-0.1,0.3-0.2,0.6-0.3,0.9s-0.2,0.5-0.2,0.9c-0.1,0.2-0.1,0.3-0.2,0.5c-0.5,2.4-0.3,4.8-0.2,7.2
				c0,0.1,0.2,0.1,0.2,0.2s0.1,0.2,0.1,0.2c0,0.2,0,0.3,0,0.5c0,0.1,0,0.1,0,0.1C582.1,862.8,582,862.8,582,862.9z"/>
			<path class="st14" d="M583.1,872.1c0-0.1,0.1-0.2,0.1-0.3l0,0c0.2,0.2,0.3,0.4,0.4,0.6c0.2,0.9,0.4,1.7,0.5,2.7
				c0.2,0.8,0.3,1.6,0.5,2.4c-0.5,1.5-0.9,3-1.5,4.4c-2.1,5.3-5.3,9.8-9.9,13.3c-2.3,1.7-5,3-8,2.9c-2.3-0.1-4.4-0.7-6.2-2.4
				c-1.9-1.9-2.3-4.1-2-6.6c0.6-5.5,1.7-10.8,1.7-16.3c0-3.1,0.1-6.2,0.2-9.4c0.1-3.9,0-7.7,0.2-11.5c0.2-4.2,0.4-8.3,0.5-12.6
				c0.1-0.9,0.2-1.9,0.4-2.8c0.1-0.7-0.1-1.2-0.5-1.6c-1.9-2.3-4.4-2.7-7.2-2.7c-1.2,0-2.3,0.1-3.4,0c-0.5,0-1.1-0.2-1.6-0.4
				c-0.7-0.3-0.5-0.9-0.5-1.5c-0.1-0.3-0.1-0.6-0.2-0.9c0-0.1,0.1-0.3,0.1-0.4c0-0.2,0.1-0.4,0.1-0.5s0.1-0.2,0.1-0.3
				c0.2-0.6,0.5-1.2,0.6-1.9c0.5-2.3,1.6-4.4,3.1-6.2c1.7-2,3.9-3.1,6.4-3.7c0.2-0.1,0.3-0.2,0.5-0.2c1.2-0.1,2.7-0.3,4-0.2
				c2.5,0.2,4.9,0.7,7.3,1.6c2.7,1,5.4,2.2,8.1,3.3c0.9,0.4,1.7,0.8,2.6,1.2c1.7,0.9,3.4,2,5.1,3c2.6,1.6,5.1,3.1,6.6,6
				c0.3,0.6,0.4,1.1,0.2,1.7c-0.1,0.3-0.2,0.5-0.3,0.8c-0.5,1.7-0.9,3.4-1.5,5.1c-0.2,0.9-0.6,1.6-1,2.4c-0.6,1.3-1.2,2.7-1.9,4.1
				c-1.1,2.2-2.2,4.2-3.4,6.2c-0.2,0.5-0.5,0.8-0.8,1.2c0.7-1.4,1.4-2.9,2.1-4.2c0.8-1.7,1.6-3.4,2.3-5.1c0.9-2.1,1.5-4.3,2.3-6.4
				c0.8-1.9,0.5-3.8,0.2-5.7c0-0.2-0.1-0.4-0.2-0.6c-0.7-0.9-1.4-1.8-2.2-2.6c-1.2-1-2.4-2-3.7-2.9c-1.5-0.9-3-1.8-4.6-2.6
				c-2-1-3.8-2-5.8-2.8c-2.4-0.9-4.8-1.7-7.3-2.5c-1-0.3-2.3-0.6-3.4-0.5c-2,0-4.1,0.2-6.2,0.8c-2.7,0.8-4.8,2.4-6.4,4.8
				c-1.3,2-2,4.2-2.6,6.5c-0.2,0.6-0.2,1.2-0.2,1.9s0.5,1.2,1.1,1.3c1.4,0.1,2.7,0.2,4.1,0.2c1.3,0.2,2.7,0.2,4.1,0.5
				c2,0.3,3.1,1.7,4.4,3.1c0.4,0.4,0.4,0.9,0.4,1.4c-0.3,3.1-0.7,6.2-0.9,9.4c-0.2,4.1-0.2,8.1-0.2,12.2c0,2.9-0.2,5.7-0.2,8.6
				c0,2.6,0.1,5.1,0,7.6c-0.2,3.6-0.5,7.2-0.7,10.8c-0.2,2.3-0.7,4.4,0.2,6.6c0.2,0.4,0.4,0.8,0.7,1c0.5,0.5,1.2,0.9,1.7,1.3
				c0.8,0.7,1.7,1.1,2.8,1.2c3.1,0.3,5.9-0.4,8.5-2.3c2.3-1.7,4.3-3.7,5.9-6.1c1.5-2.1,2.7-4.3,3.6-6.6c0.4-1,0.5-2.2,1.1-3.1
				c0.3-0.6,0.4-1.2,0.2-1.9c-0.1-0.4-0.2-0.7-0.2-1C583.5,873.8,583.2,872.9,583.1,872.1L583.1,872.1z"/>
			<path class="st18" d="M591.1,897.1c0.2,0.5,0.9,1.1,0.5,1.9c-0.2,0.3-0.3,0.6-0.4,0.9c-1,2.4-1.7,4.9-2,7.5
				c0,0.5-0.2,0.6-0.8,0.3c-0.9-0.5-1.7-1-2.6-1.4c-1.6-0.6-2.7-1.8-3.6-3.3c-0.8-1.3-1.6-2.5-3.2-2.9c-2-0.5-4.1-1.2-6.2-1.2
				c-0.2,0-0.4-0.1-0.5-0.2c0.2-0.2,0.2-0.5,0.3-0.6c0.2-0.2,0.5-0.4,0.8-0.6c1.4-1.3,2.8-2.6,4.2-3.9c0.7-0.6,1.2-1.4,2-1.6
				c2-0.5,4.2-0.5,6.1,0.1C588.4,893.3,590.1,894.8,591.1,897.1z"/>
			<path class="st18" d="M585,878.1c-0.5,1.8-0.8,3.6-1.7,5.2c-1,1.9-2,3.7-3,5.5c-1.6,2.6-3.7,4.9-6,6.8s-4.9,3.5-7.9,4.1
				c-4.7,1-7.7-0.9-9.8-4.8c-0.9-1.7-1.2-3.7-1-5.5c0.2-2,0.5-4.1,1-6c0.5-2.3,0.9-4.4,1-6.8c0-4.4,0.1-8.7,0.1-13.2
				c0.1-6.1,0.1-12.2,0.3-18.3c0.2-3.1,0.5-6.2,0.9-9.3c0.1-1-0.3-1.9-1.2-2.4c-1.2-0.6-2.7-0.9-4.1-0.9c-1.6-0.1-3.4,0-5.1,0.1
				c-1.8,0-2.7-1-2.3-2.6c0.1-0.3,0.2-0.5,0.2-0.9c0.1,0.3,0.2,0.6,0.2,0.9c0.1,0.5-0.1,1.2,0.5,1.5c0.5,0.2,1,0.3,1.6,0.4
				c1.2,0.1,2.3,0,3.4,0c2.7-0.1,5.3,0.4,7.2,2.7c0.4,0.5,0.6,0.9,0.5,1.6c-0.2,0.9-0.3,1.9-0.4,2.8c-0.2,4.2-0.4,8.3-0.5,12.6
				c-0.2,3.8-0.1,7.6-0.2,11.5c0,3.1-0.2,6.2-0.2,9.4c0,5.5-1.2,10.8-1.7,16.3c-0.3,2.5,0.2,4.7,2,6.6c1.7,1.8,3.8,2.4,6.2,2.4
				c3,0.1,5.7-1.1,8-2.9c4.6-3.4,7.7-8,9.9-13.3c0.5-1.5,0.9-3,1.5-4.4C584.7,877.7,584.9,878,585,878.1z"/>
			<path class="st18" d="M547.1,826c0.5-2.5,1.6-4.8,3.4-6.6c1.8-2.2,4.2-3.2,7-3.4c-0.2,0.1-0.3,0.2-0.5,0.2
				c-2.5,0.5-4.7,1.6-6.4,3.7c-1.5,1.9-2.6,3.9-3.1,6.2c-0.1,0.6-0.4,1.2-0.6,1.9C547,827.4,547,826.7,547.1,826z"/>
			<path class="st14" d="M583.2,871.8L583.2,871.8c-0.1-0.1-0.2-0.2-0.2-0.2c0-0.1,0-0.2,0-0.3c-0.1-0.2-0.2-0.2-0.2-0.4v-0.1
				c0-0.6-0.1-1.2-0.1-1.8C582.9,869.9,583.1,870.8,583.2,871.8z"/>
			<path class="st14" d="M582.1,854.1c0.1-0.3,0.2-0.5,0.2-0.9C582.7,853.6,582.5,853.9,582.1,854.1z"/>
			<path class="st18" d="M546.8,828.4c0,0.2-0.1,0.4-0.1,0.5C546.7,828.8,546.8,828.5,546.8,828.4z"/>
			<path class="st19" d="M457.2,832.5c0.4-0.9,0.9-1.9,1.2-2.7c0.6-1.2,1.3-2.4,2.4-3.2c2.4-1.8,4.9-3.4,7.3-5.1
				c0.7-0.5,2-0.2,2.3,0.5c0.6,1.1,1.2,2.2,1.6,3.4c0.7,2.3,1.3,4.8,1.8,7.2c0.2,1.1-0.1,2.4-1.4,3c-0.7,0.3-1.2,0.8-1.9,1.2
				c-1.5,0.9-2.9,1.8-4.4,2.5c-0.7,0.3-1.6,0.5-2.3,0.3c-1-0.2-2-0.8-3-1.2c-1.5-0.7-2.6-1.9-3.6-3.2c-0.5-0.7-0.5-1.3-0.3-2
				C457.1,832.8,457.1,832.7,457.2,832.5C457.2,832.5,457.1,832.5,457.2,832.5z"/>
			<path class="st11" d="M518.6,817.4c0.3,1.3,0.9,2.7,1.4,3.9c0.4,1.1-0.1,1.6-1.4,1.7c-1.1,0-2.2-0.2-3.2-0.5
				c-1.6-0.4-3-0.7-4.6-1c-1.2-0.2-2.3-0.5-3.4-0.8c-0.9-0.2-2-0.5-2.9-0.6c-1.2-0.2-2.4-0.4-3.6-0.2c-2.4,0.5-4.4,1.7-6.6,2.7
				c-1.4,0.6-2.7,1.3-4.4,1.2c-1.3-0.2-2.4-0.8-3.6-1.3c-1-0.5-1-1.1-0.5-2.2c0.2-0.5,0.5-0.9,0.7-1.5c0.5-0.2,1-0.4,1.6-0.6
				c1.2-0.7,2.3-1.4,3.5-2.2c0.2-0.1,0.4-0.1,0.5-0.1c-0.5,0.8-1,1.6-1.5,2.3c-0.3,0.5,0,1,0.6,1c1.6,0,3.2,0,4.8,0
				c1-0.1,2.1-0.2,3.2-0.4c1.9-0.3,3.6,0.2,5.5,0.4c2.4,0.2,4.9,0.5,7.3,0.9c1.2,0.2,2-0.8,3-1.3c0.1,0,0.1-0.1,0.1-0.1
				c-0.1-0.9-0.1-2-0.4-2.8c-0.1-0.4-0.8-0.6-1.2-0.9c-0.5-0.2-0.9-0.5-1.4-0.8c0.2-0.1,0.4-0.1,0.7-0.2c0.4,0.1,0.9,0.3,1.2,0.4
				c0.9,0.2,2,0.3,2.9,0.5C517.6,815.3,518.3,816.1,518.6,817.4z"/>
			<path class="st10" d="M582.1,862.6c0-0.2,0-0.3,0-0.5C582.1,862.3,582.1,862.5,582.1,862.6z"/>
			<path class="st9" d="M512.8,811.9c0.2-0.2,0.2-0.5,0.4-0.8c0.9,0,1.7-0.1,2.4-0.6c0.5-0.3,0.6-0.7,0.6-1.2c0-1.2-0.5-2.3-0.9-3.5
				c-0.2-0.5-0.3-1.2-0.5-1.7s-0.5-0.9-0.8-1.5c-0.7-1.2-1.4-2.3-2.1-3.4c-1.1-1.6-2-3.1-3.3-4.6c-0.6-0.7-1.6-1.3-2.6-1.7
				c-3-1.5-6.4-1.5-9.8-1.4c-3.5,0.1-6.8,0.9-10.1,1.8c-2.3,0.5-4.3,1.8-6.3,3c-1.3,0.9-2.7,1.7-3.9,2.7c-0.9,0.7-1.6,1.7-2.3,2.7
				c-0.5,0.6-0.1,1.8,0.9,2.4h0.1c0.2,0.5,0.5,1.2,0.7,1.8c0.5,1.2,0.8,2.3,1.3,3.4c0.5,0.9,1.1,1.7,1.7,2.6c1.6,2,3.6,3.4,5.9,4.3
				c-0.6,0.1-1.1,0.2-1.7,0.2c-0.6-0.5-1.4-0.8-2-1.2c-1.6-1.1-2.7-2.6-3.8-4.1c-0.6-0.9-1.2-1.6-1.5-2.7c-0.4-1.9-1-3.7-1.8-5.5
				c-0.9-2-0.9-2,0.7-3.4c1.3-1.2,2.7-2.3,4.2-3.2c2-1.2,4.1-2.6,6.3-3.4c5.5-2,11.2-3,17.2-2.5c2.2,0.2,4.2,0.6,6.1,1.7
				c1.6,1,2.9,2.4,3.7,4.1c0.9,1.7,1.8,3.4,2.7,5c0.6,1.1,1.1,2.1,1.6,3.2c0.2,0.5,0.4,1,0.5,1.6c0.3,1.1,0.7,2.1,0.9,3.2
				c0.2,1.3-0.4,2-1.7,2.3c-0.2,0.1-0.4,0.2-0.5,0.3c-0.6,0-1.3,0-2,0C512.9,811.9,512.9,811.9,512.8,811.9z"/>
			<path class="st19" d="M494.9,814.3c2-0.5,4.1-0.9,6.2-1c2.7-0.1,5.5,0,8.3,0.2c0.9,0,2-0.1,2.7,0.6c0.5,0.2,0.9,0.5,1.4,0.8
				c0.4,0.3,1.2,0.5,1.2,0.9c0.2,0.9,0.3,1.9,0.4,2.8c0,0,0,0.1-0.1,0.1c-0.9,0.5-1.8,1.5-3,1.3c-2.4-0.2-4.9-0.5-7.3-0.9
				c-1.8-0.2-3.6-0.7-5.5-0.4c-1.1,0.2-2.1,0.4-3.2,0.4c-1.6,0.1-3.3,0.1-4.8,0c-0.6,0-0.9-0.4-0.6-1c0.5-0.8,1-1.6,1.5-2.3
				C493,815.3,493.8,814.6,494.9,814.3z"/>
			<path class="st18" d="M509.6,812.1c-2.7,0.1-5.5,0-8.1,0.1c-1.9,0.1-3.7,0.5-5.6,0.6c-1.9,0.2-3.7,0.6-5.4,1.3
				c-0.6,0.2-1.2,0.4-1.9,0.5c0.1-0.2,0.1-0.3,0.2-0.5c0.9-0.5,1.8-1.1,2.7-1.4c1.5-0.4,2.9-0.7,4.4-0.9c2.3-0.3,4.7-0.6,7-0.8
				s4.7-0.1,7.1-0.2c1,0,2.1,0,3.1-0.1v0.1c-0.2,0.2-0.2,0.5-0.4,0.8C511.7,811.9,510.7,812,509.6,812.1z"/>
			<path class="st10" d="M485.7,816.2c-0.4,0.2-0.9,0.1-1.2,0c-2.3-1-4.4-2.3-5.9-4.3c-0.6-0.8-1.3-1.6-1.7-2.6
				c-0.5-1.1-0.9-2.3-1.3-3.4c-0.2-0.5-0.5-1.2-0.7-1.8c0.5,0.6,1,1.2,1.4,2c0.3,0.5,0.5,1.1,0.8,1.7c0.7,2.1,2,3.7,3.7,5.4
				c1.5,1.5,4.4,2.2,6.4,1.4c0.6-0.2,1.2-0.2,1.9-0.4c-0.1,0.2-0.1,0.3-0.2,0.5C487.7,815.3,486.6,815.8,485.7,816.2z"/>
			<path class="st20" d="M583,871.2c0,0.1,0,0.2,0,0.3s0.1,0.3,0.1,0.5v0.1c0.2,0.9,0.3,1.9,0.4,2.8c0.1,0.4,0,0.9-0.2,1.3
				c-0.4,1.1-1,2.2-1.4,3.3c-0.9,2.4-2.3,4.5-3.7,6.6c-1.8,2.4-4,4.3-6.6,5.8c-1.5,0.9-3.1,1.4-4.9,1.3c-1.2,0-2.1-0.8-3.2-1.2
				c-1.2-0.5-2-1.2-2.2-2.7c-0.1-0.9-0.4-1.8-0.4-2.7c0-1.6,0.2-3.2,0.2-4.8c0-5.3,0-10.6,0-15.8c0-6.9,0-13.9,0.1-20.8
				c0-2.5,0.4-5,0.6-7.5c0-0.5-0.1-1.2-0.2-1.7c-0.2-0.9-0.9-1.7-1.6-2.3v-0.1c0.2,0.2,0.5,0.2,0.8,0.4c0.1,0.1,0.2,0.2,0.2,0.2
				c0.2,0.2,0.5,0.5,0.8,0.7c0.2,0.2,0.2,0.4,0.4,0.5c0.2,0.5,0.5,0.9,0.6,1.4c-0.2,3.6-0.7,7.2-0.8,10.8c-0.1,4.5,0,9.1,0,13.5
				c0,2.6,0,5.1,0.1,7.7c0.1,3.1,0.2,6.3,0.4,9.4c0.1,1.7,0.1,3.4,0,5.1c-0.1,1.9,0.5,3.5,0.9,5.1c0,0.2,0.3,0.4,0.5,0.5
				c1.2,0.5,2.3,0.9,3.6,1.3c0.9,0.3,1.6-0.2,2.3-0.5c4.3-1.9,7.7-4.8,9.9-9c0.7-1.5,1.4-3,2.1-4.4c0.2-0.2,0.2-0.6,0.5-0.7
				c0.6-0.5,0.6-1.1,0.5-1.8c-0.5-3.3-0.9-6.6-1.3-9.9c-0.1-0.6-0.2-1.3-0.2-2c0-0.1,0.1-0.2,0.2-0.3c0,0.2,0.2,0.3,0.2,0.5
				c0.2,2.4,0.5,4.8,0.8,7.1c0.1,0.5,0.2,0.9,0.4,1.4v0.1C582.8,871,582.9,871.1,583,871.2z"/>
			<path class="st21" d="M563,838.3c-0.2,3.1-0.5,6.3-0.5,9.5c-0.1,4.4,0.1,8.8,0.1,13.3c0,2.6,0,5.2,0.2,7.9c0.1,2.3,0.2,4.7,0.4,7
				c0.1,1.6,0.2,3.3,0.3,5c0.2,1.1,0.4,2.3,0.5,3.4c0.2,0.9,0.3,1.7,0.5,2.7c0.1,0.4,0.2,0.6,0.8,0.7c1.1,0.1,2.2,0.4,3.4,0.5
				c0.5,0.1,1.2,0.1,1.6-0.2c1.8-1,3.6-2,5.1-3.3c2.5-1.8,4.1-4.4,5.2-7.3c0.4-0.9,0.6-1.8,1.2-2.4c0.9-0.7,0.5-1.6,0.5-2.3
				c-0.3-3-0.7-6.1-0.9-9.1c-0.1-0.9-0.1-1.8-0.1-2.7c0.1,0.2,0.2,0.3,0.4,0.5c0,0.2,0,0.3,0,0.5c-0.1,0.1-0.2,0.2-0.2,0.3
				c0.1,0.6,0.1,1.2,0.2,2c0.4,3.3,0.9,6.6,1.3,9.9c0.1,0.6,0.1,1.2-0.5,1.8c-0.2,0.2-0.4,0.5-0.5,0.7c-0.7,1.5-1.3,3-2.1,4.4
				c-2.2,4.2-5.6,7-9.9,9c-0.7,0.3-1.4,0.8-2.3,0.5c-1.2-0.4-2.4-0.9-3.6-1.3c-0.2-0.1-0.5-0.3-0.5-0.5c-0.4-1.7-1-3.4-0.9-5.1
				c0-1.7,0-3.4,0-5.1c-0.1-3.1-0.2-6.3-0.4-9.4c-0.1-2.6-0.1-5.1-0.1-7.7c-0.1-4.5-0.2-9,0-13.5c0.1-3.7,0.5-7.2,0.8-10.8
				C563.2,837.2,563,837.8,563,838.3z"/>
			<path class="st20" d="M581.1,860.3c-0.1-0.2-0.2-0.2-0.2-0.4c0-0.1,0.1-0.3,0.1-0.4c-0.1-0.2-0.2-0.2-0.2-0.4
				c0-0.1,0.1-0.3,0.1-0.4c-0.1-0.2-0.2-0.2-0.2-0.4c0-0.5,0.1-1,0.2-1.6c-0.1-0.4-0.1-0.9-0.2-1.2c0.1-0.7,0.2-1.3,0.4-2
				c0-0.1,0-0.2,0-0.3c0-0.2,0.1-0.4,0.1-0.5c0.2-0.2,0.3-0.4,0.4-0.6c0.3-0.7,0.6-1.3,0.9-2c0.1-0.2,0.1-0.4,0.1-0.5
				s0.1-0.2,0.1-0.3c0.3-0.4,0.6-0.9,0.9-1.2c0.7-1.4,1.4-2.7,1.9-4.1s0.9-3,1.2-4.4c0.2-0.6,0.2-1.2,0.3-1.9c0.5-1.8,0-3.7-0.2-5.5
				c-0.1-0.6-0.5-1.2-0.9-1.8c-0.5-0.9-1.2-1.7-1.7-2.7c-0.8-1.2-2.1-1.9-3.3-2.7c-1.2-0.9-2.4-1.6-3.7-2.3
				c-1.1-0.5-2.2-1.1-3.3-1.6c-1.2-0.5-2.4-1.1-3.7-1.6c-0.3-0.2-0.7-0.2-1-0.2c-0.1,0-0.2-0.1-0.3-0.1c-0.1-0.1-0.2-0.2-0.3-0.2
				c-1.4-0.5-2.9-1-4.4-1.3c-3-0.5-6-0.2-8.7,1.1c-2.3,1-3.9,2.8-5.1,4.9c-0.9,1.3-1.3,2.9-2,4.4c-0.1,0.1,0,0.2,0,0.2
				c0,0.1-0.1,0.3-0.1,0.4c0,0.3,0.1,0.6,0.1,0.9v0.1c0.2,0.2,0.2,0.5,0.4,0.6c0.4,0.2,0.9,0.3,1.4,0.5c0.1,0,0.2,0.1,0.3,0.1
				c0.2,0,0.5,0.2,0.6,0.2c-0.3,0.1-0.6,0.2-0.9,0.2c-2.1,0-2.8-0.8-2.3-2.7c0.5-2,1.1-4,2.3-5.7c1.6-2.5,3.7-4.4,6.7-5.2
				c2.6-0.7,5.1-0.9,7.7-0.5c1,0.2,2,0.5,3,0.8c2,0.7,3.9,1.4,5.8,2.3c2.2,1,4.4,2.1,6.6,3.4c2.3,1.2,4.4,2.7,6.2,4.5
				c0.6,0.7,1.4,1.5,1.6,2.3c0.5,1.3,0.5,2.9,0.7,4.3c0.2,2.4-0.5,4.7-1.3,6.9c-0.6,1.6-1.3,3.3-2.1,4.9c-0.4,0.9-0.9,1.9-1.3,2.7
				c-0.5,1.1-1.2,2.2-1.6,3.4c-0.6,1.9-0.8,3.9-0.7,5.9c0,1,0,2,0.1,3c-0.1-0.2-0.2-0.3-0.4-0.5C581,860.7,581.1,860.4,581.1,860.3z
				"/>
			<path class="st21" d="M552.8,830.9c1.1,0.1,2.2,0.2,3.3,0.3c0.2,0.2,0.4,0.5,0.7,0.1c0.2,0,0.5,0.2,0.6,0.2
				c0,0.5,0.3,0.5,0.5,0.4c0.1,0,0.3,0.1,0.4,0.1c0,0.1-0.1,0.3-0.1,0.4l0,0c-1.1-0.3-2.2-0.7-3.3-1c-0.7-0.2-1.3-0.2-2-0.3
				C553,830.9,552.9,830.9,552.8,830.9z"/>
			<path class="st20" d="M551.6,831.1c0.1-0.2,0.2-0.2,0.3-0.4c0.3,0.1,0.6,0,0.9,0.1c0.1,0.1,0.1,0.2,0.1,0.2
				C552.5,831.1,552,831.1,551.6,831.1z"/>
			<path class="st21" d="M551.4,830.9c-0.2,0-0.5-0.2-0.6-0.2c0-0.1,0.1-0.3,0.1-0.4c0.3,0.1,0.7,0.3,1,0.4
				c-0.1,0.2-0.2,0.2-0.3,0.4C551.5,831.1,551.4,831.1,551.4,830.9z"/>
			<path class="st20" d="M559,832.7c0.1,0,0.2,0.1,0.3,0.1c0,0.1-0.1,0.2-0.1,0.3c-0.1-0.1-0.2-0.2-0.2-0.2
				C559,832.7,559,832.7,559,832.7z"/>
			<path class="st21" d="M559.6,833.5c0-0.1,0.1-0.3,0.1-0.4c0.1,0.2,0.2,0.2,0.2,0.4v0.1C559.8,833.6,559.7,833.5,559.6,833.5z"/>
			<path class="st20" d="M559.4,833.1L559.4,833.1c0.1-0.1,0.2,0,0.3,0c0,0.1-0.1,0.3-0.1,0.4C559.5,833.4,559.5,833.3,559.4,833.1z
				"/>
			<path class="st21" d="M558.7,832.7L558.7,832.7v-0.2c0.1,0,0.2,0.1,0.3,0.1c0.1,0.1,0.1,0.2,0.1,0.2v0.1
				C558.9,832.8,558.7,832.7,558.7,832.7z"/>
			<path class="st20" d="M558.3,832.5L558.3,832.5c0.1,0,0.3,0.1,0.4,0.1v0.1C558.5,832.7,558.4,832.5,558.3,832.5z"/>
			<path class="st21" d="M559.2,833.1c0-0.1,0.1-0.2,0.1-0.3c0.1,0.1,0.2,0.2,0.2,0.2v0.1C559.4,833.1,559.3,833.1,559.2,833.1z"/>
			<path class="st17" d="M583.2,871.8c0,0.1-0.1,0.2-0.1,0.3c0-0.2-0.1-0.3-0.1-0.5C583.1,871.6,583.1,871.7,583.2,871.8z"/>
			<path class="st17" d="M582.9,871.2c-0.1-0.2-0.2-0.2-0.2-0.4C582.8,871,582.9,871.1,582.9,871.2z"/>
			<path class="st14" d="M474.5,804.2c-0.5-2.1,0.9-3.4,2.2-4.6c2-1.8,4.4-3.1,6.7-4.4c2.3-1.2,4.8-1.8,7.4-2.3
				c2.9-0.5,5.8-0.8,8.7-0.5c1.5,0.2,3,0.5,4.4,0.8c2.2,0.5,3.7,2,5.1,3.7c1.5,2,3,3.9,4.4,5.9c0.3,0.5,0.4,1,0.5,1.5
				c0.4,1.2,0.8,2.3,1.1,3.4c0.3,1.5,0.1,1.9-1.2,2.6c-0.2,0.1-0.5,0.3-0.6,0.5c-1,0-2.1,0-3.1,0.1c-2.3,0.1-4.8,0-7.1,0.2
				c-2.4,0.2-4.7,0.5-7,0.8c-1.5,0.2-3,0.5-4.4,0.9c-0.9,0.2-1.8,0.9-2.7,1.4c-0.6,0.1-1.3,0.2-1.9,0.4c-2,0.7-4.9,0-6.4-1.4
				c-1.6-1.5-2.9-3.3-3.7-5.4c-0.2-0.6-0.5-1.2-0.8-1.7c-0.4-0.7-0.9-1.3-1.4-2C474.6,804.2,474.6,804.2,474.5,804.2z M499.2,811
				c2.3-0.2,4.6-0.4,6.9-0.6c1.4-0.2,2.7-0.3,4.2-0.5c0.9-0.1,1.9,0,2.7-0.3c1.1-0.4,1.2-1.9,0.7-3c-0.4-1-0.7-2-1.1-3
				c-0.2-0.3-0.3-0.6-0.5-0.9c-1.6-1.7-3-3.4-4.5-5c-1.3-1.4-3-2.7-4.9-3.2c-2.3-0.6-4.8-0.9-7.3-0.8c-3.1,0.1-6.2,0.5-9.2,1.5
				c-1.2,0.3-2.3,1-3.3,1.6c-1.7,1.1-3.4,2.2-5,3.4c-1,0.8-1.5,1.9-1.9,3.1c-0.2,0.8,0.2,1.3,0.5,2c1,1.9,2,3.7,3.3,5.4
				c1.3,1.8,3.1,3.3,5.6,3.4c0.3,0.1,0.5-0.1,0.9-0.2c2.3-0.7,4.5-1.5,6.8-2.1c0.1-0.1,0.2-0.2,0.2-0.2
				C495.3,811.4,497.2,811.2,499.2,811z"/>
			<path class="st10" d="M473.7,801.7c0.7-0.9,1.5-2,2.3-2.7c1.2-1,2.6-2,3.9-2.7c2-1.2,4-2.4,6.3-3c3.3-0.9,6.6-1.6,10.1-1.8
				c3.3-0.1,6.6-0.1,9.8,1.4c0.9,0.4,2,1,2.6,1.7c1.2,1.5,2.3,3,3.3,4.6c0.8,1.1,1.5,2.3,2.1,3.4c0.3,0.5,0.6,0.9,0.8,1.5
				c0.2,0.5,0.3,1.2,0.5,1.7c0.4,1.2,0.9,2.2,0.9,3.5c0,0.5-0.2,0.9-0.6,1.2c-0.7,0.5-1.6,0.6-2.4,0.6V811c0.2-0.2,0.4-0.4,0.6-0.5
				c1.4-0.6,1.6-1.1,1.2-2.6c-0.3-1.2-0.8-2.3-1.1-3.4c-0.2-0.5-0.2-1.1-0.5-1.5c-1.4-2-3-4-4.4-5.9c-1.3-1.8-3-3.2-5.1-3.7
				c-1.5-0.3-2.9-0.6-4.4-0.8c-2.9-0.3-5.9,0-8.7,0.5c-2.5,0.5-5.1,0.9-7.4,2.3c-2.4,1.2-4.8,2.6-6.7,4.4c-1.2,1.2-2.7,2.5-2.2,4.6
				C473.7,803.5,473.3,802.4,473.7,801.7z"/>
			<path class="st22" d="M558.9,832.3c-0.1-0.1-0.1-0.2-0.1-0.2c0.1,0,0.2,0,0.2,0c2.1,1.2,3.7,2.7,4.2,5.1c0.2,0.9-0.2,2-0.2,3.1
				c-0.2,4.3-0.3,8.6-0.4,12.8c0,1.6,0.1,3.4,0.2,5.1c0,0.9,0.2,1.8,0.2,2.7c0,2.4-0.1,4.8,0.1,7.3c0,2,0.2,4.1,0.3,6.1
				c0,0.9,0,1.8,0.1,2.7c0.2,1.1,0.2,2.3,0.5,3.4c0.2,1.4,0.6,2.9,0.9,4.2c0.1,0.2,0.5,0.6,0.7,0.7c0.6,0.2,1.4,0.2,2.1,0.4
				c1.5,0.3,3,0.2,4.2-0.8c1.7-1.3,3.5-2.6,5.1-4.1c0.9-0.9,1.4-2.2,2-3.3c0.8-1.2,1.1-2.8,2.1-4c0.3-0.4,0.2-1.2,0.2-1.8
				c-0.2-2.7-0.5-5.4-0.7-8.1c-0.2-1.8-0.2-3.7-0.2-5.5c-0.1-0.8-0.1-1.6-0.1-2.4c0-2.3,0.5-4.6,1.6-6.8c0.7-1.4,1.2-3,1.9-4.4
				c1.4-3,1.6-6.3,1.9-9.5c0.1-0.6-0.1-1.3-0.3-1.9c-0.6-1.4-1.3-2.9-2.1-4.3c-0.3-0.5-0.8-1.1-1.2-1.6c-1.2-1-2.3-2-3.6-2.9
				c-1.2-0.9-2.6-1.6-4-2.3c-2.2-1-4.3-2-6.5-2.8c-2.1-0.8-4.2-1.6-6.6-1.5c-0.2,0-0.5-0.1-0.8-0.2c0.2-0.1,0.2-0.2,0.4-0.2
				c1,0,2,0.2,3,0.2c1.7-0.1,3.1,1,4.7,1.2c0.2,0,0.3,0,0.5,0c0.1,0,0.2,0.1,0.3,0.1c0.2,0.2,0.3,0.4,0.5,0.5
				c1.4,0.6,2.8,1.1,4.2,1.7c2.7,1.2,5.1,2.8,7.6,4.5c1.8,1.4,2.9,3.2,4,5c1.4,2.3,1.2,4.9,0.8,7.4c-0.3,1.8-0.7,3.6-1.2,5.3
				c-0.5,1.6-1.3,3.1-2,4.7c-0.2,0.3-0.2,0.6-0.4,0.9c0,0.1-0.1,0.2-0.1,0.3c-0.7,0.9-1.2,2-1.3,3.1c0,0.2-0.1,0.4-0.1,0.5
				s0,0.2,0,0.3c-0.1,0.7-0.2,1.3-0.4,2c0.1,0.4,0.1,0.9,0.2,1.2c0,0.5-0.1,1-0.2,1.6c0.1,0.2,0.2,0.2,0.2,0.4
				c0,0.1-0.1,0.3-0.1,0.4c0.1,0.2,0.2,0.2,0.2,0.4c0,0.1-0.1,0.3-0.1,0.4c0.1,0.2,0.2,0.2,0.2,0.4s-0.1,0.5-0.1,0.7
				c0,0.9,0,1.8,0.1,2.7c0.3,3,0.7,6.1,0.9,9.1c0.1,0.8,0.3,1.6-0.5,2.3c-0.6,0.6-0.9,1.6-1.2,2.4c-1.2,2.8-2.7,5.5-5.2,7.3
				c-1.6,1.2-3.4,2.3-5.1,3.3c-0.5,0.2-1,0.2-1.6,0.2c-1.1-0.1-2.2-0.4-3.4-0.5c-0.5-0.1-0.6-0.2-0.8-0.7c-0.2-0.9-0.4-1.7-0.5-2.7
				c-0.2-1.2-0.4-2.2-0.5-3.4c-0.2-1.6-0.2-3.4-0.3-5c-0.1-2.3-0.2-4.7-0.4-7c-0.1-2.6-0.2-5.2-0.2-7.9c0-4.4-0.2-8.9-0.1-13.3
				c0.1-3.2,0.4-6.3,0.5-9.5c0.1-0.5,0.2-1.1-0.3-1.4c-0.2-0.5-0.5-0.9-0.6-1.4c-0.2-0.2-0.2-0.4-0.4-0.5c-0.2-0.2-0.5-0.5-0.8-0.7
				c-0.1-0.1-0.2-0.2-0.2-0.2c-0.2-0.2-0.5-0.2-0.8-0.4c-0.1-0.2-0.2-0.2-0.2-0.4c-0.1,0-0.2-0.1-0.3-0.1c-0.1-0.1-0.2-0.2-0.2-0.2
				C559.3,832.7,559.1,832.7,558.9,832.3z"/>
			<path class="st21" d="M561.6,834.8c0.2,0.2,0.2,0.4,0.4,0.5C561.9,835.2,561.7,835,561.6,834.8z"/>
			<path class="st21" d="M560.7,833.9c0.1,0.1,0.2,0.2,0.2,0.2C560.8,834.1,560.8,834,560.7,833.9z"/>
			<path class="st21" d="M570.4,819.6c1.2,0.5,2.4,1.1,3.7,1.6c1.1,0.5,2.2,0.9,3.3,1.6c1.2,0.7,2.5,1.5,3.7,2.3s2.5,1.4,3.3,2.7
				c0.5,0.9,1.2,1.7,1.7,2.7c0.4,0.5,0.9,1.2,0.9,1.8c0.2,1.8,0.7,3.7,0.2,5.5c-0.2,0.6-0.2,1.2-0.3,1.9c-0.4,1.4-0.7,3-1.2,4.4
				s-1.2,2.8-1.9,4.1c-0.2,0.5-0.6,0.9-0.9,1.2c0.2-0.3,0.2-0.6,0.4-0.9c0.7-1.5,1.5-3,2-4.7s0.9-3.5,1.2-5.3
				c0.5-2.5,0.6-5.1-0.8-7.4c-1.2-1.9-2.2-3.7-4-5c-2.4-1.7-4.8-3.4-7.6-4.5c-1.4-0.7-2.8-1.2-4.2-1.7c-0.2-0.1-0.4-0.3-0.5-0.5
				C569.7,819.4,570,819.4,570.4,819.6z"/>
			<path class="st21" d="M559.8,818.1c-0.2,0.1-0.5,0.1-0.8,0.2h-0.1c-0.1,0-0.2,0-0.3,0c-0.4,0.1-0.8,0.2-1.2,0.3
				c-0.6,0.2-1.3,0.3-1.9,0.6c-2.1,1.2-3.7,2.8-5,4.8c-0.6,1.1-1,2.3-1.6,3.4c-0.1,0.3-0.2,0.5-0.4,0.7c0-0.1,0-0.2,0-0.2
				c0.6-1.5,1.2-3,2-4.4c1.2-2.1,2.9-3.9,5.1-4.9c2.8-1.2,5.8-1.6,8.7-1.1c1.5,0.3,3,0.9,4.4,1.3c0.1,0,0.2,0.2,0.3,0.2
				c-0.2,0-0.3,0-0.5,0c-1.6-0.2-3-1.3-4.7-1.2c-1,0.1-2-0.2-3-0.2c-0.1,0-0.2,0.1-0.4,0.2C560.4,818,560.1,818.1,559.8,818.1z"/>
			<path class="st22" d="M556.8,819c-2.8,1.3-4.8,3.4-6.2,6c-0.5,0.9-0.9,2-1.2,3s0.1,1.7,1.1,2.1c0.2,0.1,0.3,0.1,0.5,0.2
				c0,0.1-0.1,0.3-0.1,0.4c-0.1,0-0.2-0.1-0.3-0.1c-0.2-0.1-0.3-0.2-0.5-0.3c-0.5-0.2-0.9-0.5-1.3-0.8v-0.1c0-0.3-0.1-0.6-0.1-0.9
				c0-0.1,0.1-0.3,0.1-0.4c0.2-0.2,0.3-0.5,0.4-0.7c0.5-1.2,0.9-2.3,1.6-3.4c1.2-2.1,2.9-3.7,5-4.8c0.5-0.3,1.2-0.5,1.9-0.6
				C557.3,818.8,557.1,818.9,556.8,819z"/>
			<path class="st21" d="M582.7,850.1c-0.3,0.7-0.6,1.3-0.9,2c-0.1,0.2-0.2,0.4-0.4,0.6c0.1-1.2,0.6-2.2,1.3-3.1
				C582.7,849.7,582.7,849.9,582.7,850.1z"/>
			<path class="st21" d="M549,830.2c-0.2-0.1-0.3-0.4-0.4-0.6c0.5,0.2,0.9,0.5,1.3,0.8c0.2,0.1,0.3,0.2,0.5,0.3
				C549.9,830.6,549.4,830.5,549,830.2z"/>
			<path class="st21" d="M581,856.8c-0.1-0.4-0.1-0.9-0.2-1.2C581,856,581,856.4,581,856.8z"/>
			<path class="st21" d="M548.6,828.6c0,0.3,0.1,0.6,0.1,0.9C548.7,829.1,548.6,828.9,548.6,828.6z"/>
			<path class="st21" d="M581,858.7c-0.1-0.2-0.2-0.2-0.2-0.4C581,858.5,581,858.6,581,858.7z"/>
			<path class="st21" d="M581.1,859.5c-0.1-0.2-0.2-0.2-0.2-0.4C581,859.3,581,859.3,581.1,859.5z"/>
			<path class="st21" d="M581.4,853.6c0-0.1,0-0.2,0-0.3C581.3,853.3,581.4,853.5,581.4,853.6z"/>
			<path class="st21" d="M581.1,860.2c-0.1-0.2-0.2-0.2-0.2-0.4C581,860,581.1,860,581.1,860.2z"/>
			<path class="st23" d="M558.3,818.3c0.1,0,0.2,0,0.3,0h0.1c0.2-0.1,0.5-0.1,0.8-0.2c0.2-0.1,0.5-0.1,0.8-0.2
				c0.3,0.1,0.5,0.2,0.8,0.2c2.3-0.1,4.4,0.7,6.6,1.5c2.3,0.8,4.4,1.8,6.5,2.8c1.4,0.7,2.7,1.5,4,2.3c1.2,0.9,2.4,1.9,3.6,2.9
				c0.5,0.4,0.9,0.9,1.2,1.6c0.8,1.4,1.5,2.8,2.1,4.3c0.2,0.5,0.4,1.2,0.3,1.9c-0.2,3.3-0.5,6.5-1.9,9.5c-0.7,1.5-1.1,3-1.9,4.4
				c-1.1,2.2-1.6,4.4-1.6,6.8c0,0.8,0.1,1.6,0.1,2.4c0.1,1.9,0.2,3.7,0.2,5.5c0.2,2.7,0.5,5.4,0.7,8.1c0.1,0.6,0.2,1.4-0.2,1.8
				c-1,1.2-1.3,2.7-2.1,4c-0.7,1.1-1.2,2.4-2,3.3c-1.6,1.5-3.4,2.7-5.1,4.1c-1.2,0.9-2.7,1.2-4.2,0.8c-0.7-0.2-1.4-0.2-2.1-0.4
				c-0.3-0.1-0.6-0.4-0.7-0.7c-0.4-1.4-0.7-2.8-0.9-4.2c-0.2-1.2-0.3-2.3-0.5-3.4c-0.1-0.9-0.1-1.8-0.1-2.7c-0.1-2-0.3-4.1-0.3-6.1
				c0-2.4,0-4.8-0.1-7.3c0-0.9-0.2-1.8-0.2-2.7c-0.1-1.7-0.2-3.4-0.2-5.1c0.1-4.3,0.2-8.6,0.4-12.8c0.1-1,0.4-2.1,0.2-3.1
				c-0.5-2.4-2.1-4-4.2-5.1c-0.1-0.1-0.2,0-0.2,0c-0.1,0-0.2-0.1-0.3-0.1c-0.1-0.2-0.2-0.2-0.3-0.4c-0.1,0-0.3-0.1-0.4-0.1
				c-0.2-0.2-0.4-0.2-0.5-0.4c-0.2,0-0.5-0.2-0.6-0.2h-0.1c0-0.1,0.1-0.3,0.1-0.4c0.5,0.2,0.9,0.3,1.3,0.5c0.2,0.1,0.2,0.2,0.4,0.3
				c0.1,0,0.3,0.1,0.4,0.1c0.2,0.1,0.2,0.2,0.4,0.3c0.1,0,0.3,0.1,0.4,0.1c0.1,0.2,0.2,0.2,0.2,0.4c0.1,0,0.2,0,0.3,0
				s0.2,0.1,0.3,0.1c0.2,0.1,0.2,0.2,0.4,0.3c0.1,0.2,0.2,0.2,0.2,0.4c0.2,0,0.5,0.2,0.6,0.2c0.2,0.1,0.2,0.2,0.4,0.3
				c0.1,0.2,0.2,0.2,0.3,0.4c0.2,0.3,0.5,0.6,0.7,0.9c0.1,0.2,0.2,0.2,0.3,0.4c0,0.2,0.1,0.4,0.2,0.5c0.9,1,0.8,2.3,0.7,3.4
				c-0.2,2.3-0.4,4.6-0.5,6.9c-0.3,5.3,0.2,10.6,0.3,15.9c0.2,4,0.5,8.1,0.6,12.1c0.1,2.4,1,4.7,1.6,7c0,0.2,0.1,0.4,0.2,0.6
				c0.3,1,0.4,1.1,1.4,1.2c1.2,0.1,2.3,0.3,3.4,0.3c0.4,0.1,0.9-0.1,1.3-0.3c2.3-1.4,4.3-3,5.9-5.1c0.8-1.2,1.4-2.4,2-3.6
				c0.1-0.1,0.1-0.3,0.2-0.4c1-1,0.8-2.3,0.8-3.4c-0.2-2.6-0.5-5.1-0.5-7.6c-0.1-3.7-0.5-7.3,0.2-10.8c0.2-1.2,0.8-2.3,1.2-3.4
				c0-0.1,0.2-0.2,0.2-0.3c0.5-1.2,0.9-2.4,1.5-3.7c0.9-2,1-4.3,1.2-6.5c0.1-0.6,0.2-1.3,0.2-2c-0.1-0.8-0.1-1.7-0.4-2.4
				c-0.5-1.3-1.2-2.6-1.7-3.8c-0.3-0.7-0.8-1.2-1.4-1.8c-1.2-1-2.3-2.1-3.6-3c-1.1-0.8-2.3-1.4-3.4-2c-3.2-1.6-6.4-3-9.8-4
				c-2.7-0.9-5.5-0.7-8.2,0.9c-2.1,1.2-3.7,2.8-5,4.8c-0.6,1.1-1.1,2.3-1.6,3.6c-0.3,0.9,0.6,1.8,1.7,2c0.7,0.1,1.4,0.2,2.1,0.2
				c0.1-0.1,0.2-0.2,0.2-0.2c0.1,0,0.2,0.1,0.3,0.1c0.2,0,0.4,0.1,0.5,0.1s0.2,0.1,0.3,0.1s0.3,0,0.5,0c0.1,0,0.3,0.1,0.4,0.1
				c0.1,0.2,0.2,0.2,0.3,0.4v0.1c-1.1-0.1-2.2-0.2-3.3-0.3c-0.3-0.1-0.6,0-0.9-0.1s-0.7-0.3-1-0.4c-0.2-0.1-0.3-0.1-0.5-0.2
				c-1-0.4-1.5-1.1-1.1-2.1s0.7-2.1,1.2-3c1.5-2.7,3.4-4.8,6.2-6c0.2-0.2,0.5-0.3,0.6-0.5C557.9,818.5,558.3,818.4,558.3,818.3z"/>
			<path class="st22" d="M557.5,831.6c0.2,0.2,0.4,0.2,0.5,0.4C557.7,832,557.4,832,557.5,831.6z"/>
			<path class="st22" d="M556.7,831.3L556.7,831.3c-0.2,0.4-0.4,0.2-0.6-0.1v-0.1C556.3,831.2,556.5,831.2,556.7,831.3z"/>
			<path class="st22" d="M558.7,832.6c-0.1,0-0.3-0.1-0.4-0.1c0-0.1,0.1-0.3,0.1-0.4C558.4,832.3,558.5,832.3,558.7,832.6
				C558.7,832.5,558.7,832.6,558.7,832.6z"/>
			<path class="st20" d="M489.7,812.1c-1.4,0.2-2.8,0.5-4.3,0.6c-0.3,0-0.7-0.1-1-0.2c-1.2-0.5-2.4-1.2-3.2-2.3
				c-0.2-0.3-0.5-0.6-0.9-1c-0.9-1.1-1.2-2.3-1.5-3.7c-0.1-0.5-0.1-0.9-0.2-1.3c-0.3-1.8,0.1-3.2,1.7-4.2c1.8-1.1,3.5-2.3,5.4-3.4
				s4-1.2,6.1-1.5c1.8-0.2,3.7-0.4,5.5-0.2c1.2,0.1,2.3,0.5,3.4,0.9c1,0.3,1.9,0.9,2.9,1.3c1.9,0.9,3.4,2.2,4.9,3.7
				c0.5,0.5,1,0.9,1.4,1.4c0.3,0.4,0.6,0.9,0.9,1.4c0.4,0.9,0.6,1.8,1,2.7c0.4,1,0.1,2.2-0.9,2.7c-0.3,0.2-1,0.2-0.7,0.9
				c-1.4,0.2-2.8,0.4-4.2,0.5c-2.3,0.2-4.6,0.4-6.9,0.6c-2,0.2-3.9,0.4-5.8,0.5C492.1,811.8,490.9,811.8,489.7,812.1z M493.6,810.7
				c2.8-0.3,5.6-0.7,8.5-1c1.6-0.2,3-0.4,4.5-0.5c0.4-0.1,0.7-0.3,1-0.4c0.8,0.2,1.3-0.2,1.7-0.9c0.3-0.5,0.7-1.1,0.2-1.8
				c-0.3-0.5-0.5-1.2-0.8-1.9c-0.4-1.7-1.6-2.8-3.1-3.6c-1.5-0.7-2.8-1.5-4.2-2.2c-1.7-0.9-3.4-1.5-5.3-1.5s-3.9,0-5.9,0
				c-1.7,0-3.3,0.8-4.6,1.9c-1.1,0.9-2.1,1.8-3,2.7c-0.3,0.3-0.5,0.7-0.5,1.1c-0.1,1.4,0,3,0,4.4c0,0.2,0.1,0.5,0.2,0.6
				c0.7,0.9,1.5,1.8,2.3,2.5c0.5,0.4,1.3,0.5,2.1,0.7c1,0.1,2,0.1,3,0.1c0.2,0,0.5-0.2,0.7-0.2C491.5,810.7,492.6,810.8,493.6,810.7
				z"/>
			<path class="st17" d="M493,811.8c-2.3,0.7-4.5,1.5-6.8,2.1c-0.2,0.1-0.5,0.2-0.9,0.2c-2.5-0.2-4.2-1.6-5.6-3.4
				c-1.2-1.7-2.3-3.6-3.3-5.4c-0.3-0.5-0.7-1.2-0.5-2c0.4-1.2,0.9-2.3,1.9-3.1c1.6-1.2,3.3-2.4,5-3.4c1-0.6,2.1-1.2,3.3-1.6
				c3-1,6.1-1.5,9.2-1.5c2.4-0.1,4.9,0.2,7.3,0.8c2,0.5,3.5,1.7,4.9,3.2c1.6,1.7,3,3.4,4.5,5c0.2,0.2,0.4,0.5,0.5,0.9
				c0.4,1,0.8,2,1.1,3c0.5,1.2,0.5,2.7-0.7,3c-0.9,0.3-1.8,0.2-2.7,0.3c-0.2-0.7,0.4-0.7,0.7-0.9c0.9-0.6,1.3-1.8,0.9-2.7
				c-0.4-0.9-0.6-1.8-1-2.7c-0.2-0.5-0.5-1-0.9-1.4c-0.5-0.5-0.9-0.9-1.4-1.4c-1.5-1.4-3-2.7-4.9-3.7c-0.9-0.4-1.9-1-2.9-1.3
				c-1.1-0.4-2.3-0.8-3.4-0.9c-1.9-0.1-3.7,0.1-5.5,0.2c-2,0.2-4.2,0.4-6.1,1.5c-1.8,1-3.6,2.3-5.4,3.4c-1.6,1-2,2.5-1.7,4.2
				c0.1,0.4,0.1,0.9,0.2,1.3c0.2,1.3,0.6,2.6,1.5,3.7c0.3,0.3,0.6,0.6,0.9,1c0.8,1.2,2,1.9,3.2,2.3c0.3,0.2,0.7,0.3,1,0.2
				c1.4-0.2,2.8-0.5,4.3-0.6c1.2-0.2,2.4-0.2,3.7-0.4C493.3,811.7,493.2,811.8,493,811.8z"/>
			<path class="st22" d="M559.8,818.1c-0.2,0.1-0.5,0.1-0.8,0.2C559.3,818.2,559.6,818.1,559.8,818.1z"/>
			<path class="st22" d="M558.9,818.2c-0.1,0-0.2,0-0.3,0C558.7,818.3,558.8,818.2,558.9,818.2z"/>
			<path class="st24" d="M562.9,834.5L562.9,834.5c1,0.7,1.6,1.7,2,2.8c0.5,1.3,0.2,2.6,0.2,3.9c-0.4,4.8-0.5,9.4-0.2,14.2
				c0.2,3.1,0.3,6.2,0.5,9.3c0.2,3.4,0.8,6.7,1.8,9.9c0.2,0.5,0.4,1.1,0.6,1.6c0.2,0.2,0.5,0.5,0.7,0.5c1.4,0.1,2.8,0.2,4.2,0.3
				c0.5,0.1,0.8-0.1,1.1-0.5c1.3-1.5,2.7-3,4-4.4c0.2-0.1,0.2-0.2,0.4-0.3c1-0.4,1.2-1.3,1.2-2.3c0-2.6-0.2-5.1-0.1-7.7
				c0.1-3.4,0.2-6.7,0.3-10c0.2-1.6,0.5-3,1.3-4.4c0.4-0.8,0.5-1.8,0.9-2.7c0.4-1.2,0.9-2.5,1.2-3.7c0.1-0.3,0.2-0.5,0.1-0.9
				c-0.5-2.7-0.9-5.5-1.5-8.3c-0.1-0.3-0.3-0.6-0.5-0.9c-1.3-1.3-2.7-2.8-4.2-4.1c-1.1-0.9-2.4-1.6-3.7-2.3
				c-1.4-0.8-2.9-1.6-4.4-2.2c-1.2-0.6-2.7-0.9-3.9-1.5c-1.6-0.8-3.3-0.9-5-0.6c-0.7,0.1-1.3,0.5-2,0.9c-1.2,0.7-2.3,1.4-3.4,2.3
				s-2,1.9-2.3,3.3c-0.1,0.3-0.2,0.6-0.4,1c-0.5,1.4-0.3,1.8,1,2.3c-0.5,0.5-1.1,0.1-1.6-0.2c-0.5-0.2-0.9-0.8-0.6-1.4
				c0.9-3,2.5-5.4,5.2-7c0.8-0.4,1.6-0.8,2.3-1.2c1.4-0.9,2.9-0.9,4.4-0.7c0.8,0.1,1.6,0.2,2.3,0.5c2.2,0.9,4.4,1.6,6.5,2.6
				c3.4,1.5,6.5,3.4,9.2,6.1c1.3,1.2,2.3,2.7,2.7,4.3c0.6,2,1,4.1,0.9,6.4c-0.2,3.1-1.2,6-2.6,8.7c-1.7,3.6-1.7,7.3-1.6,11.1
				c0,4,0.2,8,0.4,12c0.1,1.4-0.6,2.5-1.5,3.5c-1.2,1.4-2.3,2.7-3.6,4c-0.7,0.7-1.5,1.2-2.3,1.9c-0.2,0.2-0.5,0.2-0.8,0.2
				c-1.6-0.1-3-0.2-4.6-0.3c-0.5,0-0.5-0.5-0.7-0.8c-0.4-1.4-0.8-2.9-1.2-4.3c-0.9-2.7-0.8-5.5-0.9-8.2c-0.2-3.6-0.3-7.3-0.5-10.8
				c-0.2-4.1-0.2-8.3,0.1-12.3c0.2-1.6,0.3-3.3,0.4-4.9c0-1.3-0.4-2.6-1.4-3.4c-0.1-0.2-0.2-0.2-0.3-0.4
				C562.7,834.8,562.8,834.8,562.9,834.5z"/>
			<path class="st25" d="M561.7,833.8c-0.2-0.1-0.2-0.2-0.4-0.3c-0.2-0.2-0.3-0.4-0.5-0.6c-0.1,0-0.2-0.1-0.3-0.1s-0.3-0.1-0.4-0.1
				s-0.2-0.1-0.3-0.1c-0.1-0.2,0-0.3-0.1-0.3c-1-0.5-1.8-1.4-3-1.5c-0.3-0.1-0.6-0.2-0.9-0.3c-0.2,0-0.3,0-0.5,0
				c-0.1,0-0.3-0.1-0.4-0.1c-0.2,0-0.3,0-0.5,0c-0.1,0-0.3-0.1-0.4-0.1c-0.4-0.1-0.8-0.1-1.2-0.1c-0.2-0.1-0.3-0.1-0.5-0.2
				c-1.3-0.5-1.6-0.9-1-2.3c0.2-0.3,0.2-0.6,0.4-1c0.4-1.4,1.2-2.5,2.3-3.3s2.3-1.6,3.4-2.3c0.6-0.4,1.2-0.7,2-0.9
				c1.7-0.2,3.4-0.2,5,0.6c1.2,0.6,2.6,0.9,3.9,1.5c1.5,0.7,3,1.4,4.4,2.2c1.2,0.7,2.6,1.4,3.7,2.3c1.5,1.2,2.8,2.7,4.2,4.1
				c0.2,0.2,0.5,0.5,0.5,0.9c0.5,2.7,1,5.5,1.5,8.3c0.1,0.2,0,0.5-0.1,0.9c-0.4,1.2-0.8,2.5-1.2,3.7c-0.2,0.9-0.4,1.9-0.9,2.7
				c-0.7,1.4-1.2,2.9-1.3,4.4c-0.2,3.4-0.2,6.6-0.3,10c-0.1,2.6,0.1,5.1,0.1,7.7c0,1-0.2,1.8-1.2,2.3c-0.2,0.1-0.2,0.2-0.4,0.3
				c-1.3,1.5-2.7,3-4,4.4c-0.3,0.3-0.6,0.5-1.1,0.5c-1.4-0.1-2.8-0.2-4.2-0.3c-0.3-0.1-0.6-0.2-0.7-0.5c-0.2-0.5-0.4-1.1-0.6-1.6
				c-1-3.2-1.6-6.6-1.8-9.9c-0.2-3.1-0.2-6.2-0.5-9.3c-0.3-4.8-0.2-9.4,0.2-14.2c0.1-1.3,0.3-2.6-0.2-3.9c-0.5-1.1-1-2.1-2-2.8
				C562.4,834.3,562.1,834,561.7,833.8z M559.8,831.6c0.1,0,0.2,0.1,0.3,0.1c0.1,0.2,0.2,0.2,0.2,0.4c0.1,0,0.3,0.1,0.4,0.1
				c0.2,0.1,0.3,0.1,0.5,0.2c0.1,0,0.2,0.1,0.3,0.1c0.1,0.2,0.2,0.2,0.2,0.4c0.1,0,0.3,0.1,0.4,0.1c0.1,0.2,0.2,0.5,0.4,0.5
				c1.4,1.1,2.4,2.4,3.1,4c0.5,1.1,0.3,2.3,0.3,3.5c-0.2,4.2-0.4,8.3-0.4,12.6c0,2.8,0.2,5.6,0.5,8.3s0.9,5.5,1.5,8.3
				c0.2,0.9,0.3,1.6,0.5,2.4c0.2,0.9,0.3,0.9,1.2,0.8c1.3-0.2,2.6-0.4,4-0.5c0.6-0.1,1-0.3,1.4-0.7c0.8-0.9,1.7-1.6,2.3-2.5
				c0.5-0.6,0.7-1.5,0.7-2.2c0.2-3.1,0.4-6.2,0.5-9.4c0.2-2.7,0.4-5.4,0.6-8c0.2-1,0.6-2,0.9-3c0.4-1.2,0.8-2.6,1.1-3.9
				c0.2-0.5,0.2-1.1,0.3-1.7c0.5-1.9,0.1-3.7-0.3-5.6c-0.1-0.5-0.2-1.1-0.3-1.6c-0.2-1.8-1.6-2.9-2.5-4.2c-1.7-2.6-4.3-4-7-5.3
				c-2.4-1.1-4.9-2.2-7.3-3.3c-1.2-0.5-2.3-0.2-3.5-0.2c-1.4-0.2-2.3,0.8-3.4,1.5c-0.9,0.6-1.9,1.2-2.7,2c-0.6,0.6-1.1,1.4-1.6,2.1
				c-0.2,0.2-0.2,0.6-0.5,0.9c-0.3,0.5-0.3,0.9,0.2,1.2c0.9,0.4,1.9,0.8,2.9,1.2c0.1,0,0.2-0.2,0.2-0.2c0.1,0,0.3,0.1,0.4,0.1
				c0.2,0,0.4,0.1,0.5,0.1c0.9,0.4,1.9,0.8,2.7,1.2C559.4,831.3,559.6,831.4,559.8,831.6z"/>
			<path class="st26" d="M554.1,830.3c-0.1,0.1-0.2,0.2-0.2,0.2c-0.7-0.1-1.4-0.1-2.1-0.2c-1.2-0.1-2-1.1-1.7-2
				c0.4-1.2,0.9-2.5,1.6-3.6c1.2-2,2.9-3.6,5-4.8c2.7-1.5,5.4-1.6,8.2-0.9c3.4,1,6.6,2.4,9.8,4c1.2,0.5,2.3,1.2,3.4,2
				c1.2,0.9,2.4,2,3.6,3c0.6,0.5,1.1,1,1.4,1.8c0.5,1.3,1.2,2.5,1.7,3.8c0.2,0.7,0.3,1.6,0.4,2.4c0,0.6-0.1,1.2-0.2,2
				c-0.2,2.2-0.3,4.4-1.2,6.5c-0.5,1.2-1,2.4-1.5,3.7c0,0.1-0.2,0.2-0.2,0.3c-0.5,1.2-1,2.2-1.2,3.4c-0.7,3.6-0.3,7.3-0.2,10.8
				c0.1,2.6,0.4,5.1,0.5,7.6c0.1,1.2,0.2,2.5-0.8,3.4c-0.2,0.1-0.1,0.3-0.2,0.4c-0.7,1.2-1.2,2.5-2,3.6c-1.6,2.1-3.6,3.8-5.9,5.1
				c-0.3,0.2-0.9,0.3-1.3,0.3c-1.2-0.1-2.3-0.2-3.4-0.3c-1.1-0.1-1.1-0.2-1.4-1.2c0-0.2-0.1-0.4-0.2-0.6c-0.5-2.3-1.5-4.5-1.6-7
				c-0.2-4.1-0.5-8-0.6-12.1c-0.2-5.3-0.6-10.5-0.3-15.9c0.2-2.3,0.4-4.6,0.5-6.9c0.2-1.2,0.2-2.4-0.7-3.4c-0.1-0.2-0.2-0.3-0.2-0.5
				c1.1,0.9,1.5,2.1,1.4,3.4c-0.1,1.6-0.2,3.3-0.4,4.9c-0.3,4.1-0.3,8.2-0.1,12.3c0.2,3.6,0.3,7.3,0.5,10.8c0.2,2.7,0.1,5.5,0.9,8.2
				c0.5,1.4,0.9,2.8,1.2,4.3c0.2,0.3,0.1,0.8,0.7,0.8c1.6,0.1,3,0.2,4.6,0.3c0.3,0,0.6-0.1,0.8-0.2c0.8-0.6,1.6-1.2,2.3-1.9
				c1.2-1.3,2.5-2.7,3.6-4c0.8-1,1.6-2.1,1.5-3.5c-0.2-4-0.3-8-0.4-12c-0.1-3.7-0.1-7.5,1.6-11.1c1.2-2.7,2.3-5.6,2.6-8.7
				c0.2-2.2-0.2-4.3-0.9-6.4c-0.5-1.6-1.5-3-2.7-4.3c-2.7-2.6-5.8-4.6-9.2-6.1c-2.1-0.9-4.3-1.7-6.5-2.6c-0.7-0.2-1.5-0.4-2.3-0.5
				c-1.6-0.2-3-0.2-4.4,0.7c-0.8,0.5-1.5,0.9-2.3,1.2c-2.8,1.6-4.3,4.1-5.2,7c-0.2,0.6,0.1,1.2,0.6,1.4c0.4,0.2,0.9,0.7,1.6,0.2
				c0.2,0.1,0.3,0.1,0.5,0.2C553.4,830.1,553.7,830.2,554.1,830.3z"/>
			<path class="st24" d="M559.8,832.5c-0.1-0.2-0.2-0.2-0.2-0.4c-0.1,0-0.3-0.1-0.4-0.1c-0.2-0.1-0.2-0.2-0.4-0.3
				c-0.1,0-0.3-0.1-0.4-0.1c-0.2-0.1-0.2-0.2-0.4-0.3c-0.5-0.2-0.9-0.3-1.3-0.5v-0.1c1.2,0,2,1,3,1.5
				C559.9,832.3,559.8,832.4,559.8,832.5C559.9,832.5,559.8,832.5,559.8,832.5z"/>
			<path class="st26" d="M556.6,831.3c-0.2-0.1-0.3-0.1-0.5-0.2c-0.1-0.2-0.2-0.2-0.3-0.4c0-0.1,0.1-0.2,0.1-0.3
				c0.3,0.1,0.6,0.2,0.9,0.3v0.1C556.7,831,556.7,831.2,556.6,831.3z"/>
			<path class="st24" d="M562.7,834.7c-0.2-0.2-0.5-0.4-0.7-0.5c-0.1-0.2-0.2-0.2-0.3-0.4C562.1,834.1,562.4,834.3,562.7,834.7
				L562.7,834.7z"/>
			<path class="st24" d="M554.4,830.1c0,0.1-0.1,0.2-0.1,0.3c-0.1,0-0.2-0.1-0.3-0.1c-0.3-0.1-0.5-0.2-0.8-0.3
				C553.5,830,553.9,830.1,554.4,830.1z"/>
			<path class="st26" d="M562.8,835c-0.2-0.3-0.5-0.6-0.7-0.9c0.2,0.2,0.5,0.4,0.7,0.5C562.8,834.8,562.7,834.8,562.8,835z"/>
			<path class="st26" d="M554.7,830.2c0.1,0.1,0.1,0.2,0.1,0.2c-0.2,0-0.4-0.1-0.5-0.1c0-0.1,0.1-0.2,0.1-0.3
				C554.4,830.2,554.5,830.2,554.7,830.2z"/>
			<path class="st24" d="M560.8,833.2c0-0.1,0.1-0.3,0.1-0.4c0.2,0.2,0.3,0.4,0.5,0.6C561.2,833.4,561,833.2,560.8,833.2z"/>
			<path class="st26" d="M555.5,830.6c-0.2,0-0.3,0-0.5,0c0-0.1,0.1-0.2,0.1-0.3c0.1,0,0.3,0.1,0.4,0.1
				C555.5,830.5,555.5,830.5,555.5,830.6z"/>
			<path class="st24" d="M560.6,832.9c-0.2-0.1-0.2-0.2-0.4-0.3c0.1,0,0.3,0.1,0.4,0.1C560.6,832.7,560.6,832.8,560.6,832.9z"/>
			<path class="st26" d="M558.7,831.7c0.2,0.1,0.2,0.2,0.4,0.3C559,831.9,558.9,831.8,558.7,831.7z"/>
			<path class="st24" d="M554.8,830.4c-0.1-0.1-0.1-0.2-0.1-0.2c0.2,0,0.3,0,0.5,0c0,0.1-0.1,0.2-0.1,0.3
				C555,830.5,554.8,830.5,554.8,830.4z"/>
			<path class="st26" d="M558.1,831.3c0.2,0.1,0.2,0.2,0.4,0.3C558.3,831.5,558.2,831.4,558.1,831.3z"/>
			<path class="st24" d="M556,830.3c0,0.1-0.1,0.2-0.1,0.3c-0.1,0-0.3-0.1-0.4-0.1v-0.1C555.7,830.4,555.8,830.4,556,830.3z"/>
			<path class="st26" d="M560.9,832.8c0,0.1-0.1,0.3-0.1,0.4c-0.1-0.2-0.2-0.2-0.2-0.4v-0.1C560.8,832.7,560.8,832.7,560.9,832.8z"
				/>
			<path class="st26" d="M559.5,832.2c0.1,0.2,0.2,0.2,0.2,0.4C559.7,832.4,559.6,832.3,559.5,832.2z"/>
			<path class="st22" d="M489,810.3c-1-0.2-2.1-0.2-3-0.7c-0.7-0.3-1.2-1.1-1.9-1.6c-0.9-0.6-1-1.6-1-2.6c0.2-3.4-0.2-2.6,2.3-5
				c0.8-0.8,1.7-1.6,2.7-2c0.8-0.4,1.8-0.6,2.8-0.7c2.6-0.2,5.2-0.1,7.7,0.4c1,0.2,2,0.5,2.9,0.9c1.2,0.6,2.5,1.3,3.7,1.9
				c1.2,0.5,2,1.5,2.6,2.7c0.3,0.7,0.6,1.3,0.9,2c0.5,0.9,0.2,1.7-0.5,2.3c-0.2,0.2-0.4,0.4-0.5,0.6c-0.4,0.2-0.7,0.4-1,0.4
				c-1.6,0.2-3,0.4-4.5,0.5c-2.8,0.4-5.7,0.8-8.5,1c-1.1,0.2-2.1,0-3.2,0C489.9,810.6,489.4,810.5,489,810.3z M495.8,799
				c-1.9-0.1-3.7,0-5.5,0.2c-0.5,0-1.2,0.4-1.6,0.8c-1.2,1.1-2.5,2.2-3.6,3.4c-1.1,1-0.9,3.4,0.2,4.4c0.5,0.5,1.1,1,1.6,1.5
				c0.2,0.1,0.2,0.2,0.4,0.2c1.9,0.6,3.8,0.9,5.7,0.7c3.3-0.5,6.4-0.9,9.7-1.3c0.9-0.2,1.8-0.2,2.7-0.3c0.7-0.2,1.5-0.5,2.1-0.8
				c0.5-0.2,0.5-0.9,0.2-1.4c-0.6-1-1.2-2-1.9-3c-0.7-1.2-1.7-2-3-2.5c-0.8-0.4-1.6-0.7-2.4-1.1c0-0.1,0-0.1,0-0.2
				C499,799.3,497.3,798.9,495.8,799z"/>
			<path class="st21" d="M489.8,811c-1,0-2,0-3-0.1c-0.7-0.1-1.6-0.2-2.1-0.7c-0.9-0.7-1.6-1.6-2.3-2.5c-0.2-0.2-0.2-0.4-0.2-0.6
				c-0.1-1.5-0.1-2.9,0-4.4c0.1-0.4,0.3-0.9,0.5-1.1c0.9-0.9,2-1.9,3-2.7c1.3-1.1,2.8-1.9,4.6-1.9c2-0.1,3.9-0.1,5.9,0
				c1.9,0.1,3.7,0.7,5.3,1.5c1.5,0.7,2.8,1.6,4.2,2.2c1.6,0.8,2.7,1.9,3.1,3.6c0.2,0.6,0.4,1.3,0.8,1.9c0.5,0.7,0.1,1.2-0.2,1.8
				c-0.4,0.5-0.9,1-1.7,0.9c0.2-0.2,0.3-0.4,0.5-0.6c0.7-0.6,0.9-1.5,0.5-2.3c-0.3-0.7-0.6-1.3-0.9-2c-0.5-1.1-1.3-2-2.6-2.7
				c-1.2-0.6-2.5-1.3-3.7-1.9c-0.9-0.4-1.9-0.8-2.9-0.9c-2.6-0.5-5.1-0.7-7.7-0.4c-0.9,0.1-2,0.3-2.8,0.7c-0.9,0.5-1.8,1.2-2.7,2
				c-2.4,2.4-2.1,1.6-2.3,5c-0.1,1,0.2,1.9,1,2.6c0.6,0.5,1.2,1.2,1.9,1.6c0.9,0.4,2,0.5,3,0.7c0.5,0.2,0.9,0.2,1.5,0.3
				C490.2,810.8,490,811,489.8,811z"/>
			<path class="st27" d="M553.2,828.7c-0.4-0.2-0.7-0.5-0.3-1.1c0.4-0.5,0.6-1.3,0.9-1.9c0.6-1.2,1.9-1.9,3-2.7
				c0.2-0.1,0.2-0.1,0.3-0.2c1.8-1.9,4-1.6,6-0.9c4.1,1.5,8,3.5,11.7,6.1c0.5,0.4,1,0.9,1.4,1.6c1,1.3,2,2.7,2.9,4.1
				c0.4,0.6,0.5,1.6,0.8,2.3c0.6,2.2,0.2,4.3-0.2,6.5c-0.2,0.9-0.3,1.8-0.5,2.7c-0.1,0.4-0.3,0.8-0.4,1.2c-0.8,2-1,4-1.2,6.1
				c-0.2,3.7-0.5,7.3-0.9,10.9c-0.1,1.4-0.3,2.9-0.8,4.2c-0.2,0.7-0.9,1.4-1.6,1.9c-0.3,0.2-1,0-1.5,0.1c-1.2,0-2.6,0.1-3.8,0.2
				c-0.5,0.1-0.7,0-0.8-0.5c-0.4-1.8-0.8-3.7-1.1-5.5c-0.5-2.8-0.9-5.5-1.2-8.3c-0.2-2.5-0.2-5-0.2-7.5c0.1-2.7,0.3-5.4,0.4-8.1
				c0.1-1.8-0.6-3.4-1.7-4.6c-0.7-0.9-1.6-1.6-2.5-2.3c-0.1,0-0.3-0.1-0.4-0.1c-0.1-0.2-0.2-0.2-0.2-0.4c-0.1,0-0.2-0.1-0.3-0.1
				c-0.2-0.1-0.3-0.1-0.5-0.2c-0.1,0-0.3-0.1-0.4-0.1c-0.1-0.2-0.2-0.2-0.2-0.4c-0.1,0-0.2-0.1-0.3-0.1c-0.2-0.1-0.3-0.2-0.5-0.3
				c-0.9-0.4-1.9-0.8-2.7-1.2c-0.2,0-0.4-0.1-0.5-0.1s-0.3-0.1-0.4-0.1C554.8,829.5,554,829.1,553.2,828.7z M562.8,833.2
				c1.2,0.9,2.3,2.1,3.1,3.5c0.9,1.6,0.8,3.4,0.7,5.2c-0.1,3.2-0.2,6.2-0.1,9.4c0.1,4.2,1.1,8.3,1.8,12.6c0.2,1.6,0.3,1.6,2,1.7
				c1.1,0.1,2.2,0.3,3.3,0.5c0.5,0.1,0.8-0.1,0.9-0.5c0.2-0.9,0.4-1.9,0.5-2.7c0.4-3.4,0.8-7,1.2-10.5c0.4-2.9,0.6-5.8,1.7-8.4
				c0.3-0.8,0.2-1.7,0.4-2.6c0.2-1.2,0.3-2.3,0.5-3.4c0.2-1.6-0.5-2.7-1.4-3.8c-0.9-1.3-1.8-2.7-2.8-3.8c-0.8-0.9-1.8-1.6-2.8-2.2
				c-1.9-1.1-3.7-2.1-5.7-3.1c-1.5-0.8-3-1.5-4.7-2.1c-0.5-0.2-1,0-1.6,0.1c-1.7,0.2-3,1-4.1,2.1c-0.8,0.9-1.2,2-1.8,3
				c-0.1,0.2,0.2,0.7,0.4,0.8c0.7,0.5,1.5,0.8,2.3,1.1C558.9,830.6,561,831.6,562.8,833.2z"/>
			<path class="st28" d="M555.3,830.2c-1-0.4-2-0.7-2.9-1.2c-0.5-0.2-0.6-0.7-0.2-1.2c0.2-0.2,0.2-0.6,0.5-0.9
				c0.5-0.7,0.9-1.6,1.6-2.1c0.8-0.8,1.7-1.4,2.7-2s2-1.6,3.4-1.5c1.2,0.1,2.3-0.3,3.5,0.2c2.5,1.1,4.9,2.1,7.3,3.3
				c2.7,1.2,5.3,2.7,7,5.3c0.9,1.3,2.3,2.5,2.5,4.2c0.1,0.5,0.2,1.1,0.3,1.6c0.4,1.9,0.9,3.7,0.3,5.6c-0.2,0.5-0.2,1.1-0.3,1.7
				c-0.3,1.3-0.7,2.6-1.1,3.9c-0.3,1-0.9,2-0.9,3c-0.3,2.7-0.5,5.4-0.6,8c-0.2,3.1-0.3,6.2-0.5,9.4c-0.1,0.8-0.3,1.6-0.7,2.2
				c-0.7,0.9-1.6,1.6-2.3,2.5c-0.4,0.4-0.9,0.6-1.4,0.7c-1.3,0.2-2.7,0.3-4,0.5c-0.9,0.1-0.9,0.1-1.2-0.8c-0.2-0.8-0.4-1.6-0.5-2.4
				c-0.5-2.7-1.1-5.5-1.5-8.3c-0.3-2.7-0.6-5.6-0.5-8.3c0-4.1,0.2-8.3,0.4-12.6c0-1.2,0.2-2.4-0.3-3.5c-0.8-1.6-1.7-3-3.1-4
				c-0.2-0.2-0.2-0.4-0.4-0.5c0.9,0.8,1.8,1.5,2.5,2.3c1.2,1.2,1.8,2.8,1.7,4.6c-0.2,2.7-0.4,5.4-0.4,8.1c0,2.5,0,5,0.2,7.5
				c0.2,2.8,0.7,5.5,1.2,8.3c0.3,1.9,0.7,3.7,1.1,5.5c0.1,0.5,0.2,0.5,0.8,0.5c1.2-0.2,2.6-0.2,3.8-0.2c0.5,0,1.2,0.2,1.5-0.1
				c0.6-0.5,1.3-1.2,1.6-1.9c0.5-1.4,0.6-2.8,0.8-4.2c0.3-3.7,0.6-7.3,0.9-10.9c0.2-2,0.4-4.1,1.2-6.1c0.1-0.4,0.3-0.8,0.4-1.2
				c0.2-0.9,0.3-1.8,0.5-2.7c0.5-2.1,0.9-4.3,0.2-6.5c-0.3-0.8-0.3-1.6-0.8-2.3c-0.9-1.4-1.9-2.7-2.9-4.1c-0.5-0.5-0.9-1.2-1.4-1.6
				c-3.6-2.6-7.5-4.6-11.7-6.1c-2.1-0.7-4.2-1-6,0.9c-0.2,0.1-0.2,0.2-0.3,0.2c-1,0.9-2.3,1.5-3,2.7c-0.3,0.6-0.5,1.3-0.9,1.9
				c-0.4,0.5-0.2,0.9,0.3,1.1c0.8,0.3,1.6,0.6,2.3,1C555.5,829.9,555.4,830,555.3,830.2z"/>
			<path class="st28" d="M556,829.9c0.2,0,0.4,0.1,0.5,0.1C556.3,830,556.2,830,556,829.9z"/>
			<path class="st28" d="M560.6,832.1c0.2,0.1,0.3,0.1,0.5,0.2C560.9,832.3,560.8,832.2,560.6,832.1z"/>
			<path class="st28" d="M559.3,831.2c0.2,0.1,0.3,0.2,0.5,0.3C559.6,831.4,559.4,831.3,559.3,831.2z"/>
			<path class="st28" d="M561.3,832.3c0.1,0.2,0.2,0.2,0.2,0.4C561.5,832.7,561.4,832.5,561.3,832.3z"/>
			<path class="st28" d="M560,831.6c0.1,0.2,0.2,0.2,0.2,0.4C560.1,831.9,560.1,831.7,560,831.6z"/>
			<path class="st29" d="M500.5,799.5c0.8,0.4,1.6,0.7,2.4,1.1c1.2,0.5,2.3,1.2,3,2.5c0.6,1.1,1.2,2,1.9,3c0.2,0.5,0.2,1.2-0.2,1.4
				c-0.7,0.3-1.4,0.6-2.1,0.8c-0.9,0.2-1.8,0.2-2.7,0.3c-3.3,0.5-6.5,0.9-9.7,1.3c-2,0.3-3.9,0-5.7-0.7c-0.2,0-0.3-0.1-0.4-0.2
				c-0.5-0.5-1.1-0.9-1.6-1.5c-1.1-1-1.2-3.4-0.2-4.4c1.2-1.2,2.3-2.3,3.6-3.4c0.4-0.4,1-0.7,1.6-0.8c1.8-0.2,3.7-0.2,5.5-0.2
				c1.6,0.1,3.3,0.5,4.9,0.7C500.6,799.6,500.6,799.6,500.5,799.5z M495.5,809.3c2.2,0.1,4.2-0.8,6.3-1.1c0.8-0.1,1.4-0.4,2.2-0.6
				c0.9-0.3,1.2-1.2,0.5-2c-0.5-0.6-0.9-1.2-1.2-1.8c-1-1.6-2.3-2.5-4.1-2.7c-2.3-0.2-4.4-0.6-6.7-0.4c-0.9,0.1-1.7,0.3-2.4,1.1
				c-0.9,1-1.9,2-2.8,2.9c-0.4,0.4-0.5,0.9-0.1,1.2c1.1,1.2,2.2,2.3,4.1,3C492.4,809.5,494.1,809.3,495.5,809.3z"/>
			<path class="st30" d="M554.4,828.8c-0.2-0.2-0.5-0.6-0.4-0.8c0.5-1.1,1-2.2,1.8-3c1.1-1.2,2.4-2,4.1-2.1c0.5,0,1.2-0.2,1.6-0.1
				c1.6,0.6,3.1,1.3,4.7,2.1c2,1,3.8,2,5.7,3.1c1,0.6,2,1.2,2.8,2.2c1,1.2,2,2.6,2.8,3.8s1.6,2.3,1.4,3.8c-0.2,1.2-0.3,2.3-0.5,3.4
				c-0.2,0.9-0.1,1.9-0.4,2.6c-1.2,2.7-1.4,5.6-1.7,8.4c-0.5,3.4-0.9,7-1.2,10.5c-0.2,0.9-0.3,1.9-0.5,2.7c-0.2,0.5-0.4,0.5-0.9,0.5
				c-1.1-0.2-2.2-0.3-3.3-0.5c-1.6-0.2-1.7-0.1-2-1.7c-0.7-4.1-1.7-8.3-1.8-12.6c-0.1-3.1,0-6.3,0.1-9.4c0.1-1.8,0.2-3.6-0.7-5.2
				c-0.8-1.4-1.9-2.5-3.1-3.5c-1.9-1.4-3.9-2.7-6.2-3.3C555.8,829.5,555.1,829.1,554.4,828.8z M555.5,828.9c1.7,0.3,3.1,1.3,4.7,2.1
				c1.8,0.9,3.4,2.3,4.8,3.8c1.2,1.2,1.7,2.7,2.2,4.4c0.6,2.3,0.2,4.4,0.2,6.6c0.2,2.9,0.1,5.7,0.2,8.5c0.2,2.3,0.8,4.6,1.2,6.8
				c0.1,0.3,0.4,0.5,0.6,0.7c0.2,0,0.6-0.2,0.8-0.3c1.2-1.5,2.4-2.9,3.4-4.4c0.5-0.7,0.5-1.6,0.6-2.5c0.5-2.8,0.9-5.7,1.3-8.5
				c0.1-0.6,0.2-1.3,0.5-2c0.7-1.7,1-3.4,0.9-5.2c-0.1-2-0.9-3.6-1.9-5.2c-1.5-2.3-3.7-3.7-5.9-5.1c-1.7-1.1-3.6-2-5.4-2.9
				c-0.8-0.4-1.5-0.8-2.3-1.1c-0.4-0.2-0.9-0.2-1.3-0.2c-1.1,0.2-2.1,0.5-3,0.8c-0.4,0.2-0.8,0.3-0.9,0.6c-0.5,0.6-0.9,1.4-1.2,1.9
				C554.8,828.4,554.9,828.8,555.5,828.9z"/>
			<path class="st26" d="M487.3,806c-0.5-0.5-0.3-0.9,0.1-1.2c0.9-0.9,1.9-1.9,2.8-2.9c0.7-0.7,1.5-1,2.4-1.1
				c2.3-0.3,4.4,0.2,6.7,0.4c1.9,0.2,3.2,1.1,4.1,2.7c0.4,0.6,0.8,1.2,1.2,1.8c0.6,0.8,0.5,1.6-0.5,2c-0.7,0.2-1.5,0.5-2.2,0.6
				c-2.1,0.4-4.1,1.2-6.3,1.1c-1.6-0.1-3.2,0.2-4.2-0.2C489.4,808.3,488.4,807.1,487.3,806z M492.4,802.4c-0.9,0.3-2,1.9-1.7,2.9
				c0.2,0.7,0.5,1.2,0.6,1.9c0.3,0.9,1.1,1.3,2.1,1.4c2.3,0.2,4.6-0.1,6.9-0.8c0.5-0.2,1.1-0.2,1.6-0.4c0.3-0.2,0.7-0.4,0.9-0.7
				c0.2-0.2,0.1-0.6-0.1-0.7c-1.6-1.2-3.4-2.5-4.7-3.4C495.8,801.9,494.1,802,492.4,802.4z"/>
			<path class="st31" d="M556.2,825.7c0.2-0.3,0.6-0.5,0.9-0.6c1-0.3,2-0.5,3-0.8c0.4-0.1,0.9,0,1.3,0.2c0.8,0.3,1.6,0.7,2.3,1.1
				c1.8,0.9,3.7,1.8,5.4,2.9c2.3,1.4,4.4,2.8,5.9,5.1c1,1.6,1.7,3.4,1.9,5.2c0.1,1.7-0.2,3.6-0.9,5.2c-0.2,0.6-0.4,1.2-0.5,2
				c-0.5,2.8-0.9,5.7-1.3,8.5c-0.2,0.9-0.2,1.8-0.6,2.5c-1,1.6-2.3,3-3.4,4.4c-0.2,0.2-0.6,0.5-0.8,0.3c-0.3-0.1-0.5-0.5-0.6-0.7
				c-0.5-2.3-1-4.5-1.2-6.8c-0.2-2.8-0.2-5.7-0.2-8.5c-0.2-2.2,0.3-4.4-0.2-6.6c-0.4-1.6-0.9-3.1-2.2-4.4c-1.5-1.5-3-2.8-4.8-3.8
				c-1.5-0.8-2.9-1.8-4.7-2.1c-0.7-0.2-0.9-0.5-0.5-1.4C555.4,827,555.8,826.3,556.2,825.7z M571.7,850.4c0.5-0.7,1.1-1.3,1.6-2.1
				c0.3-0.5,0.5-1.2,0.6-1.7c0.4-1.4,0.5-2.9,1-4.2c0.3-0.9,0.3-1.7,0.1-2.6c-0.7-2-1.2-4.2-2-6.2c-0.2-0.5-0.9-1.1-1.5-1.4
				c-1.9-1.3-3.7-2.6-5.7-3.7c-1.2-0.8-2.5-1.3-3.7-2c-0.3-0.2-0.6-0.3-0.9-0.5c-1.5-0.8-2.7-0.2-3.7,0.9c-0.3,0.4-0.7,0.7-1.1,1
				c-0.5,0.4-0.3,0.7,0.2,0.9c0.9,0.4,1.7,0.9,2.6,1.2c3,1.5,5.7,3.4,7.7,6.2c1.5,2.1,1.6,4.4,1.6,6.9c0,2.8,0,5.6,0.1,8.4
				c0,0.7,0,1.3,0.1,2c0,0.2,0.1,0.4,0.2,0.6C569.8,852.9,570.7,851.5,571.7,850.4z"/>
			<path class="st32" d="M502.7,806c0.1,0.2,0.2,0.5,0.1,0.7c-0.2,0.3-0.5,0.6-0.9,0.7c-0.5,0.2-1.1,0.2-1.6,0.4
				c-2.2,0.8-4.5,1-6.9,0.8c-0.9-0.1-1.7-0.5-2.1-1.4c-0.2-0.6-0.5-1.2-0.6-1.9c-0.2-1,0.7-2.7,1.7-2.9c1.7-0.5,3.4-0.4,5.5,0.2
				C499.3,803.5,501,804.7,502.7,806z"/>
			<path class="st33" d="M568.6,853.5c0-0.6-0.1-1.3-0.1-2c0-2.8-0.1-5.6-0.1-8.4c0-2.4-0.2-4.8-1.6-6.9c-2-2.8-4.7-4.8-7.7-6.2
				c-0.9-0.4-1.7-0.9-2.6-1.2c-0.5-0.2-0.6-0.5-0.2-0.9c0.4-0.3,0.7-0.6,1.1-1c1.1-1,2.2-1.7,3.7-0.9c0.3,0.2,0.6,0.3,0.9,0.5
				c1.2,0.6,2.5,1.2,3.7,2c1.9,1.2,3.7,2.5,5.7,3.7c0.5,0.4,1.2,0.9,1.5,1.4c0.8,2,1.4,4.1,2,6.2c0.2,0.9,0.2,1.6-0.1,2.6
				c-0.5,1.4-0.6,2.8-1,4.2c-0.2,0.6-0.4,1.2-0.6,1.7c-0.5,0.7-1.1,1.4-1.6,2.1c-0.9,1.3-2,2.6-3,4
				C568.7,854,568.7,853.8,568.6,853.5z"/>
		</g>
		<g>
			<g>
				<polygon class="st34" points="723.6,724.9 653.3,846.3 531.5,845.9 601.9,724.5 				"/>
			</g>
		</g>
		<g>
			<g>
				<g>
					<polygon class="st35" points="607.2,735.9 531.2,603.3 607.6,604 					"/>
				</g>
				<g>
					<polygon class="st1" points="607.6,604 730.9,604 730.4,736 607.2,735.9 					"/>
				</g>
			</g>
		</g>
		<g>
			<polygon class="st36" points="601.9,724.5 531,846.8 471.1,741.4 541.9,619.2 			"/>
		</g>
		<g>
			
				<radialGradient id="SVGID_3_" cx="9652.1523" cy="-3003.4529" r="173.5676" gradientTransform="matrix(-0.9886 -0.1505 -0.1505 0.9886 9851.4531 5169.6875)" gradientUnits="userSpaceOnUse">
				<stop  offset="2.066799e-05" style="stop-color:#F9F1E5"/>
				<stop  offset="1" style="stop-color:#CCBDA8"/>
			</radialGradient>
			<path class="st37" d="M533,688.9c0,0-13.2,19.6,0.6,40.4c13.7,20.8,28,2.1,28,2.1"/>
			
				<radialGradient id="SVGID_4_" cx="9867.1787" cy="-3027.1677" r="7.2816" gradientTransform="matrix(-0.9886 -0.1505 -0.1505 0.9886 9851.4531 5169.6875)" gradientUnits="userSpaceOnUse">
				<stop  offset="2.066799e-05" style="stop-color:#F9F1E5"/>
				<stop  offset="1" style="stop-color:#CCBDA8"/>
			</radialGradient>
			<path class="st38" d="M557.6,693.9c-2.2,4.3-6.3,6.9-9.1,5.8c-2.9-1.2-3.4-5.5-1.2-9.8s6.3-6.9,9.1-5.8
				C559.2,685.3,559.8,689.6,557.6,693.9z"/>
			
				<radialGradient id="SVGID_5_" cx="9858.2119" cy="-3015.8357" r="7.2811" gradientTransform="matrix(-0.9886 -0.1505 -0.1505 0.9886 9851.4531 5169.6875)" gradientUnits="userSpaceOnUse">
				<stop  offset="2.066799e-05" style="stop-color:#F9F1E5"/>
				<stop  offset="1" style="stop-color:#CCBDA8"/>
			</radialGradient>
			<path class="st39" d="M564.7,706.5c-2.2,4.3-6.3,6.9-9.1,5.8c-2.8-1.1-3.4-5.5-1.2-9.8s6.3-6.9,9.1-5.8S566.9,702.2,564.7,706.5z
				"/>
		</g>
	</g>
	<g>
		
			<radialGradient id="SVGID_6_" cx="9817.6211" cy="-2933.4138" r="49.1145" gradientTransform="matrix(-0.9886 -0.1505 -0.1505 0.9886 9851.4531 5169.6875)" gradientUnits="userSpaceOnUse">
			<stop  offset="2.066799e-05" style="stop-color:#F9F1E5"/>
			<stop  offset="1" style="stop-color:#CCBDA8"/>
		</radialGradient>
		<path class="st40" d="M627.5,767.9c-0.3,9.8-4.1,19.6-30.3,31.8c-26.1,12.2-48.5-15.4-48.5-15.4s-11.7-6.4-19.3,5.7
			c-7.6,12.2,2,17.6,2,17.6c106.7,62.5,118.1-31.8,118.1-31.8C653.5,764.3,627.9,758.1,627.5,767.9z"/>
		
			<radialGradient id="SVGID_7_" cx="9871.2021" cy="-2926.8645" r="19.4615" gradientTransform="matrix(-0.9886 -0.1505 -0.1505 0.9886 9851.4531 5169.6875)" gradientUnits="userSpaceOnUse">
			<stop  offset="2.066799e-05" style="stop-color:#F9F1E5"/>
			<stop  offset="1" style="stop-color:#CCBDA8"/>
		</radialGradient>
		<circle class="st41" cx="533.3" cy="790.5" r="19.4"/>
		
			<radialGradient id="SVGID_8_" cx="9867.2422" cy="-2948.5593" r="6.8531" gradientTransform="matrix(-0.9886 -0.1505 -0.1505 0.9886 9851.4531 5169.6875)" gradientUnits="userSpaceOnUse">
			<stop  offset="2.066799e-05" style="stop-color:#F9F1E5"/>
			<stop  offset="1" style="stop-color:#CCBDA8"/>
		</radialGradient>
		<circle class="st42" cx="540.6" cy="769.7" r="6.9"/>
	</g>
</g>
</svg>
