<?xml version="1.0" encoding="utf-8"?>
<!-- Generator: Adobe Illustrator 24.2.1, SVG Export Plug-In . SVG Version: 6.00 Build 0)  -->
<svg version="1.1" id="Layer_1" xmlns="http://www.w3.org/2000/svg" xmlns:xlink="http://www.w3.org/1999/xlink" x="0px" y="0px"
	 viewBox="0 0 2436 1509.3" style="enable-background:new 0 0 2436 1509.3;" xml:space="preserve">
<style type="text/css">
	.st0{fill:#F9F1E5;}
	.st1{opacity:0.52;fill:#F9F1E5;enable-background:new    ;}
	.st2{opacity:0.33;}
	.st3{fill:#CCBDA8;}
	.st4{fill:url(#SVGID_1_);}
	.st5{fill:url(#SVGID_2_);}
	.st6{fill:#DBD0BE;}
	.st7{fill:#EBDECC;}
	.st8{fill:#EEE3D1;}
	.st9{fill:#ECE1CE;}
	.st10{fill:#FEFEFE;}
	.st11{fill:#E5D8C8;}
	.st12{fill:#E2D6C6;}
	.st13{fill:#EAE5DB;}
	.st14{fill:#EBE3D5;}
	.st15{fill:#EDE4D4;}
	.st16{fill:#DDD0C2;}
	.st17{fill:#E7DDCA;}
	.st18{fill:#E0DED8;}
	.st19{fill:#D9CBBE;}
	.st20{fill:#DFD3C4;}
	.st21{fill:#E8E6E2;}
	.st22{fill:#D4C6BA;}
	.st23{fill:#D0C2B7;}
	.st24{fill:#CFC0B5;}
	.st25{fill:#CCBDB2;}
	.st26{fill:#C5B6AC;}
	.st27{fill:#C1B1A8;}
	.st28{fill:#C8B9AF;}
	.st29{fill:#BCACA4;}
	.st30{fill:#BEAFA6;}
	.st31{fill:#C8BEAF;}
	.st32{fill:#B9A8A1;}
	.st33{fill:#B6A59F;}
	.st34{fill:#C2B8A9;}
	.st35{fill:#B3A39C;}
	.st36{fill:#DDCBB1;}
	.st37{fill:#F4E5D3;}
	.st38{fill:none;stroke:url(#SVGID_3_);stroke-width:11;stroke-linecap:round;stroke-linejoin:round;stroke-miterlimit:10;}
	.st39{fill:url(#SVGID_4_);}
	.st40{fill:url(#SVGID_5_);}
	.st41{fill:url(#SVGID_6_);}
	.st42{fill:url(#SVGID_7_);}
	.st43{fill:url(#SVGID_8_);}
</style>
<circle class="st0" cx="2365.7" cy="638.2" r="561.1"/>
<circle class="st0" cx="-353" cy="454.8" r="561.1"/>
<circle class="st1" cx="587.2" cy="1416.2" r="561.1"/>
<g class="st2">
	<path class="st3" d="M716.1,1009.7c0.8,0.1,1.7,0.1,2.5,0.1C717.9,1010.4,716.5,1010.3,716.1,1009.7z"/>
	<path class="st3" d="M706.7,1012.7c0.4-0.2,0.9-0.5,1.3-0.8C708,1012.5,707.2,1013,706.7,1012.7z"/>
	<path class="st3" d="M737.2,1017.6c-0.2,0-0.3-0.2-0.5-0.2c0.2-0.2,0.2-0.3,0.2-0.5C737.1,1017.1,737.1,1017.4,737.2,1017.6z"/>
	<path class="st3" d="M593.3,1158.1v-13.2l110.3-63.9l-0.2-66.9c2-1,3.9-2,5.9-3c0.2,0.1,0.3,0.2,0.4,0.2c0.1-0.2,0.2-0.3,0.2-0.5
		c1-0.4,2-0.8,3-1.1c0.2,0,0.5,0,0.7,0c-0.2,0-0.2,0-0.4,0c-0.1,0.1-0.2,0.1-0.3,0.1c0.4,0.5,1,0.4,1.2-0.2c-0.2,0-0.2,0-0.4,0
		c0.2,0,0.3,0,0.5,0s0.3,0,0.5,0c0.3,0.5,0.7,0.4,1,0c1.1,0,2.2,0.2,3.2,0h0.1c-0.1,0-0.1,0.1-0.2,0.1c0.2,0.2,0.5,0.5,0.7,0.5
		c1.1,0.2,2.1,0.5,3.1-0.1c-0.5-0.1-0.9-0.2-1.4-0.2c0.8,0.1,1.6,0.2,2.3,0.4c-0.2,0-0.4,0-0.5,0c0.2,0.6,0.6,0.5,1.2,0.3
		c0-0.1-0.1-0.1-0.1-0.2c0.1,0,0.1,0.1,0.2,0.1l0,0c0.2,0.2,0.4,0.3,0.6,0.3c3.2,1.2,9.5,1,11.3,3.7c0.4,2,1,4,2.1,5.6
		c-0.2-0.2-0.3-0.4-0.5-0.5c0,0.2,0,0.5,0.1,0.6c0.7,0.7,1,2.2,2.1,2c0,0,0,0,0.1,0.1c0,0.1,0.1,0.2,0.1,0.2s0,0,0.1,0.1
		c0,0.2-0.1,0.5,0.1,0.5c0.2,0.3,0.5,0.5,0.9,0.3c0.1,0.1,0.2,0.2,0.3,0.3c-0.2,0.8,0.3,1.2,1,1c0,0,0,0,0.1,0.1
		c0,0.1,0.1,0.2,0.1,0.2s0,0,0.1,0.1c0,0.2-0.1,0.5,0,0.5c0.6,0.5,1.4,1.6,2.3,1.1c-0.2-0.2-0.3-0.2-0.5-0.4c0.6,0.4,1.3,0.6,2,0.9
		c-0.3-0.1-0.7-0.2-1-0.2c0.2,0.5,0.4,0.8,1,0.8c0.8-0.2,2.2,0.9,2.7-0.1c0.1,0,0.2,0,0.3-0.1c0.1,0.4,0.3,0.5,0.7,0.5
		c0.6-0.2,1.2-0.5,1.9-0.1c1.1-0.4,2.2-0.8,3.3-1.2c2.1-0.5,4-1.7,6-2.1c0.1-0.1,0.2-0.2,0.4-0.3c1-0.4,2-0.8,3-1.1
		c0.3-0.1,0.6-0.1,0.9-0.2c12.6-6.1,25.4-14.9,29.4-29.2c5.1-14.9-1.8-25.7-18.1-20.3c-3.7,0.9-6.9,3-9.7,5.5
		c-2.6,2.4-6.5,2.3-8.8,4.8c0.2,0.1,0.4,0.2,0.6,0.3c-2.5-1-6.3-3.3-7.7-3.6c-18.4-9.1-31.1-12.1-48.4-10.3v-11.6l0.9-0.5L682.6,946
		c-2-5.1-4.1-10.1-4.8-15.4c4.3-12.5,14.8-21.8,22.3-32.4c1.6-2,9.8-14,9-17.9c0.7-0.7,1-1.8,0.6-3.5c-0.9-2.3-3.4-3-5.6-3.7
		c-14.1-4.1-28.5-7.6-43.1-9.4c-9-1.2-15.1-0.8-17.6,0.7c0-0.2,0.1-0.3,0.1-0.5c-0.4,0.2-0.9,0.3-1.2,0.5
		c-19,11.4-7.1,23.3,8.4,29.2c0-0.1,0-0.2,0-0.2c0,0.1,0,0.1,0,0.2c0.2,0.1,0.2,0.2,0.4,0.2c3,0.9,5.8,2,8.9,2.7
		c-9.1,6.6-13.2,17.5-14.3,28.6l-46.8-26.6l-81.2,47c-0.3-1.4-0.5-2.7-0.6-4.1c-0.2-1.4-0.2-2.8-0.1-4.2c0-3,0.6-5.9,1.2-8.7
		c0.5-2.6,1.6-4.9,2.4-7.4c0.9-2.6,2.3-5,3.6-7.4c0.2-0.2,0.2-0.5,0.3-0.8c0.5-0.4,1.1-0.5,1.6-0.8c5.7-2.6,9.3-6.8,10.6-12.9
		c1.4-6.8,0-12.9-4.5-18.2c-2.9-3.4-6.7-5.2-11.1-5.9c-0.2,0-0.5,0-0.8,0c-1.4,0-2.9,0-4.3,0c1.4,0,2.9,0,4.3,0V875v-0.1
		c-1.4,0-2.9,0-4.3,0c-7.6,0,1.2,3.4-6.3,3.4c-0.5,0-7.9,9-7.9,9.4c0,28.2-9.1,44-9.1,72.2l-14.7,8.5l-17.3-9.9l0.7,76.5v123.3
		L593.3,1158.1z M679.3,898.3c-0.4-0.4-0.5-0.8-0.5-1.2C678.7,897.5,678.9,897.8,679.3,898.3c2.7,1.3,11.8,5.5,13.5,2
		c1.3-2.8,4.1-5.4,4-8.6l0,0c0.2,3.3-2.7,5.9-4,8.7C691.2,903.9,681.8,899.6,679.3,898.3z M690.1,884.7c-0.1,0-0.2,0.1-0.3,0.1
		C689.9,884.7,690,884.7,690.1,884.7z M676.2,895.2c0.3-1.8,1.7-3.8,3-5.7C678.2,891.4,677.2,893.3,676.2,895.2L676.2,895.2z
		 M681.8,886.1c1.2-1.7,2.7-3,4.3-4.1C684.5,883.1,683,884.5,681.8,886.1z M702.1,881.5c0.6,0.4,1.1,0.9,1.3,1.6l0,0
		C703.2,882.4,702.7,881.9,702.1,881.5C702,881.5,702,881.5,702.1,881.5z M703.4,883.9c-0.1,1.6-0.4,3.2-0.9,4.7
		C703,887.1,703.3,885.5,703.4,883.9z M695.9,900.2c-0.4,0.5-0.8,1.2-1.2,1.7c-0.2,0.1-0.2,0.2-0.4,0.2
		C694.9,901.5,695.3,900.9,695.9,900.2z M684.9,901.9c2.3,0.7,4.6,1.2,6.4,1.2C689.3,903.2,687.1,902.8,684.9,901.9z M677.1,897.8
		c-0.1-0.1-0.2-0.2-0.3-0.2c-0.2-0.3-0.4-0.6-0.5-1C676.4,897.1,676.7,897.5,677.1,897.8z M673.7,893.8c0-0.1,0-0.1,0-0.2
		s0.1-0.2,0.1-0.2C673.8,893.6,673.8,893.7,673.7,893.8z M675.6,889.4C675.7,889.4,675.7,889.3,675.6,889.4
		C675.7,889.3,675.7,889.4,675.6,889.4z M675,890.7c0.1-0.2,0.2-0.4,0.3-0.6C675.2,890.4,675,890.5,675,890.7z M674.4,892.1
		c0.2-0.3,0.2-0.6,0.4-0.9C674.7,891.5,674.5,891.8,674.4,892.1z M673.9,893.4c0.2-0.4,0.3-0.8,0.5-1.2
		C674.2,892.6,674,893,673.9,893.4z M493.9,959c0.1,0.1,0.2,0.2,0.3,0.3C494,959.2,494,959.1,493.9,959L493.9,959z M672.9,920.2
		c0.2-0.3,0.3-0.6,0.5-0.9c0,0.1-0.1,0.2-0.1,0.2c0.9-0.4,3-2.7,3.4-0.9c0,0.2,0,0.3,0,0.5c-0.2-0.8-0.5-1.2-1.1-0.9
		C674.6,918.8,673.6,919.4,672.9,920.2z M677.2,909c0,0.2-0.1,0.3-0.2,0.4c-0.1,0-0.2-0.1-0.2-0.1C677,909.2,677.2,909.1,677.2,909z
		 M675.9,911.2C675.9,911.2,675.9,911.1,675.9,911.2c0.5,0.9,0.3,2,0.2,2.9c-0.2,0.9-0.8,1.8-1.3,2.6c1.2-2.2,1.9-3.8,0.9-5.8
		C675.8,911,675.9,911,675.9,911.2z M673.9,910.2L673.9,910.2c-2.7-5.5-8.3-7.3-13.6-9.1c-0.5-0.2-0.8-0.4-1.1-0.5
		c0.4,0.1,0.7,0.2,1.2,0.5C665.7,902.8,671.4,904.6,673.9,910.2z M656.4,903.6c0.6-0.6,1.5-1.6,2.3-2.1c-1.7,1.3-3.3,3.2-4.7,5.3
		C654.8,905.7,655.5,904.6,656.4,903.6z M673.5,912.9c-0.5-5.7-6.7-8.8-11.7-10.5c-0.1-0.1-0.2-0.2-0.3-0.2c0-0.1-0.1-0.1,0-0.1l0,0
		c5.1,1.6,10.2,4.3,12.1,9.6C673.6,912.2,673.6,912.6,673.5,912.9z M661.5,902.2L661.5,902.2c-0.5-0.6-1.2-1-1.7-1
		C660.4,901.1,660.9,901.4,661.5,902.2z M661.4,902.2c-7.8,1-12.9,15.4-11.5,25.7h-0.1C648.5,917.6,653.6,903.1,661.4,902.2z
		 M671.2,917.1c0.7-1.6,1-3,1-4.2c0,1-0.2,2.2-0.7,3.5l0,0C671.4,916.7,671.3,916.9,671.2,917.1z M660.1,906.4
		c1-0.2,2.3-0.2,3.6,0.4c-0.7-0.2-1.5-0.3-2.3-0.3C660.9,906.4,660.5,906.3,660.1,906.4z M661.8,910.7c0.3,0,0.7,0,1,0
		c0.1,0,0.2,0,0.3,0c-0.2,0-0.2,0-0.4,0C662.4,910.7,662.1,910.7,661.8,910.7z M664.1,909.8c1.3,0.3,2.5,1,3.4,2.4
		c0.4,0.6,0.5,1.3,0.6,2C667.7,912,666.2,910.4,664.1,909.8z M656.8,928.2c-0.2-1.1-0.4-2.2-0.5-3.2
		C656.5,926.1,656.6,927.1,656.8,928.2L656.8,928.2L656.8,928.2L656.8,928.2L656.8,928.2L656.8,928.2L656.8,928.2z M663.6,932.5
		C663.7,932.5,663.7,932.5,663.6,932.5C663.7,932.5,663.7,932.5,663.6,932.5z M663.3,930.3L663.3,930.3L663.3,930.3L663.3,930.3
		L663.3,930.3z M658,923.1c0.2,1.3,0.4,2.7,0.5,3.8l0,0v-0.1C658.2,925.4,658,924.1,658,923.1z M659.7,920.1c0.3-0.9,1-1.3,1.8-1.6
		c-1,0.5-2,1.6-2.2,3.1C659.4,921.1,659.5,920.6,659.7,920.1z M664.7,919c0.7,0.5,1.2,1.2,1.2,2c0,0.2,0.1,0.6,0.1,1.1
		C665.8,920.7,665.4,919.7,664.7,919z M665.8,925.5c-0.2,1.5-0.5,2.9-1,3.8c0.2-0.5,0.3-1.1,0.4-1.5
		C665.4,927,665.6,926.2,665.8,925.5z M663.5,932.5L663.5,932.5C663.4,932.5,663.4,932.5,663.5,932.5z M660.1,930.2
		c-0.6-0.6-1.2-1.2-1.5-2.1C659,928.7,659.5,929.5,660.1,930.2z M663.3,914.9c0.2,0.2,0.4,0.4,0.6,0.5
		C663.7,915.2,663.5,915,663.3,914.9c-1.6-0.8-2.7,2.1-4.1,2.9c0.6-0.9,1.5-1.9,2.8-2.8C662.4,914.5,662.8,914.4,663.3,914.9z
		 M665.8,917.9c0.7,1.4,1,3,0.9,4.8C666.6,920.9,666.5,919.3,665.8,917.9z M666,927.2c-0.2,1.5-0.5,3.1-1.1,4.1
		C665.3,930.1,665.7,928.7,666,927.2z M664.2,912.4c5.1,1.5,2.5,13.5,1.9,17.9c-0.3,1.6-0.1,5.8-2.5,5.1c0,0-0.1,0-0.1-0.1
		c0.5,0.2,0.9,0.1,1.3-0.3c1.4-6,3.7-14.9,1.5-20.7C665.6,913.5,664.9,912.8,664.2,912.4z M662.3,934.8c-0.6-0.3-1.2-0.7-1.6-1.1
		C661.2,934,661.8,934.4,662.3,934.8z M656.7,931.7c-0.4-0.7-0.7-1.4-1-2.2C656,930.3,656.3,931.1,656.7,931.7L656.7,931.7z
		 M654.2,922.7c-0.2-1.6-0.2-3.3,0-4.8C654.1,919.5,654.1,921.1,654.2,922.7z M657.7,911.3c0.7-0.7,1.5-1.2,2.3-1.7l0,0l0,0
		C659.3,910.1,658.5,910.6,657.7,911.3z M668.1,909.4c1.1,0.9,1.6,2.1,1.6,3.4C669.5,911.6,668.9,910.4,668.1,909.4z M668,921.2
		c-0.1,0.3-0.1,0.6-0.2,0.9c0.1-1.9,0-3.7-0.2-5.5c-0.2-2.5-1.6-5.5-4.3-5.9c3.3,0.3,4.3,4.4,4.6,7.3c0.1-0.1,0.1-0.2,0.2-0.3
		C668,918.9,667.9,920.1,668,921.2z M667.2,928.7c-0.2,2.3-0.5,4.4-1.2,6.6c0.1,0.5-0.2,1.1-0.5,1.5l0,0c0.4-0.4,0.6-0.9,0.5-1.5
		c-0.2,0.2-0.5,0.3-0.7,0.4c0.2-0.1,0.5-0.2,0.7-0.4C666.4,933.1,666.9,930.9,667.2,928.7z M653.7,930c-2.2-5.1-2-11.3,0.2-16.5
		c0.9-1.8,1.8-3.3,2.7-4.4c-0.9,1.5-1.7,3.2-2.7,4.4C651.6,918.8,651.6,925,653.7,930L653.7,930z M668.2,907.7c1.7,1.3,3,3,3.3,5.5
		c-0.2,0.6-0.3,1.2-0.5,1.9C671.5,911.7,670.6,909.6,668.2,907.7z M669.5,919.5c-0.3,1.1-0.6,2.2-0.8,3.4c0.1-0.6,0.2-1.3,0.2-2l0,0
		c0.1-0.1,0.2-0.2,0.2-0.2C669.2,920.3,669.3,919.9,669.5,919.5z M668.3,926.7L668.3,926.7c-0.3,3.7-0.6,7.4-1.1,11h-0.1
		C667.7,934.1,668,930.4,668.3,926.7z M660,903.9c0.9-0.3,1.8-0.3,2.6,0.3C661.6,903.8,660.8,903.7,660,903.9z M670.7,918.2
		c-0.3,0.8-0.6,1.6-0.9,2.4c0.1-0.5,0.2-0.9,0.3-1.4C670.4,918.8,670.5,918.5,670.7,918.2z M669.3,938.7c0,0.1,0,0.1,0,0.2l0,0
		C669.3,938.8,669.3,938.8,669.3,938.7z M671.2,924.8c-0.4,2.1-0.7,4.9-0.7,7.6C670.3,929.4,670.7,927,671.2,924.8z M671.3,940.1
		L671.3,940.1c0-0.2,0.1-0.2,0.1-0.4l0,0C671.4,939.7,671.4,939.9,671.3,940.1z M650.7,911.7c0.7-1.7,1.6-3.4,2.7-5.1
		C652.3,908.2,651.4,909.9,650.7,911.7z M655.5,903.4c0.6-0.9,1.2-1.9,2-2.4c-0.2,0.2-0.4,0.5-0.7,0.7
		C656.5,902.3,656,902.8,655.5,903.4z M674.7,909.2c0.2,0.2,0.3,0.5,0.4,0.6C675,909.6,674.9,909.5,674.7,909.2L674.7,909.2
		C674.7,909.4,674.7,909.3,674.7,909.2z M680.7,919.8c-0.8,2.7-2.6,5.1-3.4,7.8C678.1,924.9,679.9,922.5,680.7,919.8z M677.2,940.4
		c1.1-4.2-1.6-9.2-0.9-13.6c0-0.5,0.2-1.9,0.4-3.4c-0.1,1.1-0.2,2.2-0.4,3.3C675.5,931.1,678.2,936.2,677.2,940.4z M494.1,959.3
		L494.1,959.3L494.1,959.3L494.1,959.3z M649.1,914.2c0.4-1.9,1.1-3.6,2-5.1C650.2,910.6,649.5,912.2,649.1,914.2
		c-0.8,3.4-2,7.7-2.3,11.9l0,0C647,921.8,648.2,917.5,649.1,914.2z M657.4,899.1c0.1,0,0.1,0,0.2,0c0,0,0,0.1,0.1,0.1l-0.1,0.1
		C657.5,899.2,657.5,899.1,657.4,899.1z M639.3,873c-3.2,2.7-5.2,6.8-3,10.3c3.3,3,7.6,5.2,12.3,6.9c-4.6-1.5-9-3.4-12.4-6.9
		C633.9,879.9,636,875.8,639.3,873z M686.8,903.3c-4.7-1.8-10.4-3.3-13.8-7.1c-3.8-0.3-7.5-1.2-11.2-2.3c4,0.9,7.8,1.5,11.2,2.2V896
		c3.4,3.7,9.1,5.3,13.7,7c2.7,1.2,6.2,3,8.3-0.2c2.4-3.3,9.1-11.2,11.2-17.5c-2,6.2-8.8,14.4-11.2,17.7
		C692.9,906.3,689.6,904.6,686.8,903.3z M677.2,907.8c0-0.1,0-0.1,0-0.2c0.2-0.3,0.2-0.5,0.2-0.8
		C677.4,907.1,677.4,907.4,677.2,907.8z M677.7,930.9L677.7,930.9c0.2-5.6,5.5-10.2,6.6-15.8c0.1-0.2,0.1-0.3,0.2-0.4
		c0,0.2-0.1,0.4-0.2,0.6C683.2,920.8,678.1,925.3,677.7,930.9z M680.2,945.1L680.2,945.1c-0.3-2.1-0.8-4.2-1.2-6.2
		C679.6,941.1,680.1,943.4,680.2,945.1z M738.1,1012.5c0.2-0.1,0.5-0.2,0.8-0.3c0,0,0,0-0.1,0c0.8-0.2,1.2,0.2,1.5,0.9
		C740,1012.5,739.3,1012.2,738.1,1012.5z M741.1,984.1c0.5-0.1,1.1-0.2,1.6-0.3c-0.6,0.2-1.2,0.3-1.8,0.5
		c-12.3,2.3-25.1,0.6-37.6,1.4v-0.2c5.9-0.2,11.9-0.2,17.8-0.3C727.7,985,734.6,985.8,741.1,984.1z M757.3,1018.8
		c1.3-0.9,6.9-1.5,7.7-2.3C764.5,1017.2,759.6,1017.9,757.3,1018.8z M756.2,1019.3c-0.1,0-0.2,0-0.3-0.1c0.2,0,0.3,0,0.4-0.1
		C756.3,1019.3,756.3,1019.3,756.2,1019.3z M754.7,1019c-2-0.7-3.5-2.2-4.4-4.1c0.9,1.6,2.3,3,4.1,3.8
		C754.5,1018.9,754.6,1018.9,754.7,1019z M749.1,1009.9c0-0.9,0.1-1.7,0.4-2.5c0,0,0-0.1,0.1-0.1
		C749.2,1008.2,749.1,1009,749.1,1009.9z M749.1,1010.6c0-0.2,0-0.4,0-0.6C749.1,1010.1,749.1,1010.4,749.1,1010.6z M749.2,1011.3
		L749.2,1011.3L749.2,1011.3z M754,1002.1c0.1-0.1,0.2-0.2,0.3-0.3C754.2,1001.9,754.1,1002,754,1002.1z M753.3,1002.9
		c0.1-0.1,0.1-0.2,0.2-0.2C753.4,1002.7,753.3,1002.8,753.3,1002.9z M710,1009c-1.2,0.1-2.2,0.6-3.1,1.3c0.1,0,0.1,0,0.2,0
		c-1.2,0.5-2.3,1.1-3.6,1.6v-0.2c0.7-0.3,1.4-0.6,2.1-1c3-2,6.5-2.3,10-2.3c0.2,0.2,0.5,0.2,0.8,0.1l0.1,0.1c-0.1,0-0.2,0.1-0.3,0.1
		s-0.2,0-0.2,0c-0.1,0-0.2-0.1-0.2-0.1c0.1,0,0.1,0.1,0.2,0.1c-1.7-0.2-3.4-0.1-4.9,0.4c-0.1,0-0.2,0-0.2,0c0.1,0,0.2,0,0.2,0
		c-0.5,0.2-1,0.2-1.5,0.5C709.6,1009.3,709.8,1009.2,710,1009z M750,1001.5c3.3-4.4,4.4-9.7,0.3-13.8c-5.4-3-12.4,0.2-18.3-0.2
		c-1.2,0-2.4,0-3.6,0c1.2,0,2.4,0,3.7,0c6,0.5,13-2.7,18.3,0.2C754.4,991.9,753.4,997.1,750,1001.5z M713,1007.9
		c-2.4,0.2-4.8,0.9-7,1.7c0.2-0.1,0.4-0.2,0.5-0.3c1.2-0.6,2.6-1,3.9-1.2c3.2-0.4,6.4-0.3,9.6-0.1c3.7,0.4,7.5,0.9,11.1,0.6
		c1.3-0.9,2.9-1.6,4.3-2.3c-1.5,0.9-3,1.7-4.6,2.5C725.1,1009.2,718.9,1007.8,713,1007.9z M709.5,1007.9c2.2-0.5,4.4-0.8,6.6-0.4
		l0,0l0,0C713.9,1007.1,711.7,1007.3,709.5,1007.9z M739.5,990.1c-1.3,0-2.7,0.1-3.9,0c-1.2-0.1-2.5-0.1-3.7-0.2
		C734.3,989.9,736.9,989.8,739.5,990.1z M704.5,1008.4c-0.4,0.1-0.8,0.2-1.2,0.4v-0.2c1.9-0.7,3.7-1.5,5.7-1.7
		c5.9-0.4,11.9-0.3,17.8-0.2c0.8,0,1.5-0.2,2-0.7c-0.5,0.7-1.2,0.9-2.1,0.9C719.4,1007.2,711.4,1005.6,704.5,1008.4z M710.4,1006.1
		c1.6-0.3,3.4-0.4,5.1-0.3h0.1c-0.1,0-0.2,0-0.2,0C713.6,1005.7,711.9,1005.8,710.4,1006.1z M703.4,996.2c1.5,0,3,0,4.8,0.1
		C706.4,996.2,704.8,996.3,703.4,996.2L703.4,996.2z M707.7,999.4c-1.3,1.2-2.8,2-4.3,2.5v-0.2c1.6-0.6,3.1-1.5,4.5-2.5
		C707.8,999.2,707.7,999.3,707.7,999.4z M714.8,995.8c-3.9-0.5-7.8-0.4-11.4-0.5v-0.1C707,995.2,710.9,995.1,714.8,995.8z
		 M719,997.1c0.1,0,0.1,0,0.2,0.1c0,0.1-0.1,0.1-0.1,0.2C719,997.3,719,997.2,719,997.1z M717.3,999.4c-0.6,0.5-1.2,0.9-2,1.3
		C715.9,1000.4,716.6,999.9,717.3,999.4z M723.2,995.1c-0.9-0.1-1.7-0.2-2.1-0.4c0.1,0,0.1,0,0.2,0
		C721.9,994.9,722.6,995.1,723.2,995.1z M720.9,994.8c-2-0.3-3.8-0.6-5.8-0.9C717.1,994.1,719,994.4,720.9,994.8z M708.6,994.1
		c0.8,0,1.6,0.1,2.3,0.2c-2.8-0.1-5.3,0.1-7.6,0.2v-0.2C705.2,994.1,707,994,708.6,994.1z M721.2,995.9L721.2,995.9
		c0.4,0,0.6,0.1,0.9,0.2C721.8,996.1,721.5,996,721.2,995.9L721.2,995.9z M722.8,997c0.2,0.6,0.2,1.5,0.2,2.3
		c-0.2-0.5-0.2-1-0.2-1.3C722.9,997.6,722.9,997.3,722.8,997z M722.2,1002.2c-1.7,0.7-4.9,0.9-7.7,1.1
		C717,1002.9,719.6,1002.5,722.2,1002.2z M720.8,1004.4C720.8,1004.4,720.7,1004.4,720.8,1004.4c1.3-0.2,2.7-0.4,4.1-0.8
		c3-0.9,1.6-4.5,2.2-6.9c0.1-0.5-0.3-0.7-0.9-0.9c1.6,0.5,1,1.5,0.8,6.3C725.5,1004.1,723,1004,720.8,1004.4z M728.8,1002.9
		c-1.8,2-4.5,2.4-7.4,2.6C724.4,1005.3,727.1,1004.7,728.8,1002.9z M714.1,1004.8c-3.6,0.3-7.2,0.8-10.8,1.6l0,0h0.1
		C706.9,1005.3,710.5,1005.1,714.1,1004.8z M713.4,991.6c-2.2-0.1-4.4-0.2-6.6-0.2C709.3,991.3,711.6,991.2,713.4,991.6z M720.5,992
		c3.5,0.1,7.1,0.2,10.5,0.8c-2.3-0.4-4.6-0.5-6.7-0.6C723,992.1,721.7,992.1,720.5,992z M737.5,995.1L737.5,995.1
		c0.3,1.3,0.4,2.5,0.3,3.4C737.8,997.4,737.6,996.2,737.5,995.1L737.5,995.1z M730.9,1003.8c0.9-0.8,1.9-1.6,2.7-2.4
		C733,1002.3,731.9,1003,730.9,1003.8z M703.4,990.2c0.9,0,1.8-0.1,2.7-0.1c-0.4,0-0.7,0.1-1.1,0.1
		C704.5,990.2,703.9,990.2,703.4,990.2L703.4,990.2z M710.2,990.1c1.2,0,2.6,0,3.8,0c-1.1,0-2.3,0-3.4,0.1
		C710.5,990.1,710.4,990.1,710.2,990.1z M740.5,995.7c-0.1-0.2-0.1-0.5-0.2-0.7c-1.1-3.7-16.9-3.3-20.9-3.7
		c-5.3-0.2-10.5-0.6-15.9-0.3c-0.1,0-0.2,0-0.2,0v-0.2c0.1,0,0.1,0,0.2,0c5.3-0.3,10.6,0.2,15.9,0.3c6.6,0.3,13.3,0.2,19.7,2.3
		c1,0.3,1.1,0.4,1.2,1.4C740.3,995.1,740.4,995.4,740.5,995.7z M735.9,1002.6c-0.2,0.2-0.3,0.4-0.5,0.5c0.1-0.2,0.2-0.2,0.3-0.4
		C735.7,1002.6,735.8,1002.6,735.9,1002.6z M703.3,989.4c0.5,0,1,0,1.6,0.1c0.7,0,1.5,0,2.2,0c-1.2,0-2.5,0.1-3.7,0.2L703.3,989.4z
		 M724.4,989.6c0.6,0,1.2,0,1.7,0c0.2,0,0.5,0,0.7,0.1C726,989.7,725.1,989.7,724.4,989.6z M722.9,1007.7c3.2,0.2,6.1,0.2,8.8-1.4
		l0,0C729.2,1008.1,726.1,1008,722.9,1007.7z M704.1,1009.5c-0.2,0.1-0.5,0.2-0.7,0.2l0,0C703.6,1009.7,703.8,1009.6,704.1,1009.5z
		 M723.1,988.7c-4.1,0-8,0-12.1,0C715.1,988.7,719,988.7,723.1,988.7c0.1,0,0.1,0,0.2,0C723.2,988.7,723.2,988.7,723.1,988.7z
		 M745.8,991c0.2,0.3,0.4,0.6,0.6,1c-0.4-0.5-0.9-0.9-1.5-1.2C745.3,990.9,745.5,990.9,745.8,991z M732.4,1009.2
		c-0.1,0-0.2,0.1-0.2,0.1S732.2,1009.2,732.4,1009.2c3.3-2,7.3-3,9.7-6.5c1.2-2.1,3.5-4.1,3.4-6.7c-0.4-1.2,0-3.3-1.1-4
		c1.2,0.6,0.7,2.8,1.2,4.1c0.1,2.6-2.3,4.6-3.4,6.7C739.8,1006.2,735.7,1007.2,732.4,1009.2z M747.6,995.6c0,0.5-0.1,1.1-0.4,1.6
		C747.4,996.7,747.5,996.2,747.6,995.6z M739.2,1003.4c0.5-0.6,1.2-1.3,1.8-2C740.4,1002.2,739.8,1002.8,739.2,1003.4z M749.1,991.1
		L749.1,991.1c1.1,1.7,1.3,3.6,0.9,5.5C750.3,994.7,750.1,992.8,749.1,991.1L749.1,991.1z M748.6,1000L748.6,1000L748.6,1000z
		 M749.2,998.9c0,0.1-0.1,0.2-0.1,0.2C749.1,999,749.2,999,749.2,998.9z M749.6,997.7c-0.1,0.2-0.1,0.3-0.2,0.5
		C749.5,998.1,749.6,998,749.6,997.7z M749.9,996.5c-0.1,0.3-0.2,0.5-0.2,0.9C749.9,997.1,749.9,996.9,749.9,996.5z M741.1,1005.4
		c-2.2,1.7-4.6,3-7.1,4.1C736.4,1008.3,738.9,1007,741.1,1005.4z M723.1,1009c2.3,0.2,4.6,0.5,6.9,0.7c0.1,0,0.2,0,0.2,0
		C728.1,1009.9,725.5,1009.3,723.1,1009z M703.3,987.8c0.1,0,0.2,0,0.2,0c5.6-0.2,11.3-0.2,16.9-0.2c-5.7,0.1-11.5,0.3-17.2,0.5
		L703.3,987.8L703.3,987.8z M746,1003.4L746,1003.4L746,1003.4z M745.1,1004.3c0.1-0.1,0.1-0.1,0.2-0.2
		C745.2,1004.1,745.2,1004.2,745.1,1004.3z M743.9,1005.4c-3.7,3.1-8.5,5.3-12.2,5.5C735.4,1010.6,740.1,1008.4,743.9,1005.4z
		 M744.2,1005.1c0.2-0.2,0.3-0.2,0.4-0.4C744.4,1004.9,744.3,1005,744.2,1005.1z M731.2,1010.4c-0.2,0-0.5-0.1-0.7-0.1
		c0.5,0,0.9-0.1,1.3-0.2C731.6,1010.3,731.4,1010.3,731.2,1010.4z M723.5,1009.3c-1.3-0.2-2.6-0.2-3.8-0.2c-0.2,0-0.4,0-0.6-0.1
		C720.4,1008.8,721.9,1009,723.5,1009.3z M718.5,1009c-0.2-0.1-0.2-0.2-0.3-0.3c-0.2,0-0.5,0.1-0.5,0.1c-0.2-0.2-0.3-0.2-0.5-0.2
		c0,0,0,0-0.1,0l0,0c-0.1,0-0.2,0.1-0.3,0.1l-0.1-0.1c0.1,0,0.2-0.1,0.3-0.1c0.5,0,1.1,0.1,1.6,0.1c-0.2,0-0.4,0-0.5,0
		C718.3,1008.7,718.4,1008.9,718.5,1009L718.5,1009z M730,986.5c-1.6,0.1-3,0.1-4.6,0.1c4.6-0.2,9.2-0.5,13.7-0.9
		C736,986.2,732.9,986.9,730,986.5z M752.6,986.6c-1.8-1.2-3.8-1.8-5.9-1.9C749.2,984.5,751.2,985.2,752.6,986.6z M755.2,994.9
		c-0.2,2-1,4-2.3,5.5C754,998.7,754.9,996.8,755.2,994.9z M728.4,1010.6c-0.2-0.1-0.4-0.2-0.6-0.2c0.1,0,0.2,0,0.3,0
		c-1.2-0.3-2.3-0.5-3.4-0.7c1.2,0.2,2.3,0.3,3.4,0.6C728.3,1010.4,728.3,1010.5,728.4,1010.6z M703.4,1012.9v-0.2
		c4.8-2.3,9.6-4.6,14.5-3.8C710.9,1008.7,707.7,1010.9,703.4,1012.9z M708,1011c-1.6,0.7-3.1,1.5-4.7,2.3v-0.2
		C704.9,1012.4,706.5,1011.6,708,1011z M743.9,983.5c3-0.5,6-0.9,8.7,0.5c6.9,4.1,5.9,10.3,2,15.8c1.2-1.8,2-3.7,2.7-5.9
		C759.1,985.5,750.8,982.3,743.9,983.5z M772.5,981.5c1.1-0.1,2.2,0,3.4,0C774.8,981.6,773.6,981.5,772.5,981.5z M779,980.9
		c-0.1,0-0.1,0-0.2,0.1C778.9,981,779,980.9,779,980.9L779,980.9z M767.3,983.7c-1.2,0.7-2.5,1.5-3.8,1.9
		C764.3,984.9,765.9,984.3,767.3,983.7z M770.3,982c0.6-0.2,1.2-0.4,2-0.4c-0.8,0.1-1.5,0.3-2.2,0.6
		C770.2,982.1,770.2,982,770.3,982z M779.2,981.3c-0.8,0.8-1.6,1.6-2.4,2.4c-0.5,0.5-1.1,1.1-1.6,1.6
		C776.9,983.4,778.4,981.8,779.2,981.3z M767.7,992.6c-0.2,0.2-0.5,0.4-0.6,0.6c-1.7,0.6-2.7-1.2-3.4-3.3c0.7,1.3,1.6,2.7,2.1,3.2
		C766,993.5,766.7,993.3,767.7,992.6z M762.7,987.2c0-0.2-0.1-0.2-0.1-0.3c-0.1-0.3,0.1-0.6,0.4-0.9
		C762.7,986.2,762.6,986.7,762.7,987.2z M765.2,1006.5c0.1,0.3,0.2,0.7,0.3,1C765.4,1007.2,765.3,1006.8,765.2,1006.5z
		 M748.9,1020.4c-3.2-2.3-5.5-6.5-5.3-10.1h0.1C743.6,1014,745.8,1018.1,748.9,1020.4z M734.9,1012.2c-1.7-0.1-3.4-0.5-5.1-0.9
		c-0.5-0.2-1.1-0.4-1.7-0.5c0.3,0.1,0.7,0.1,1,0.2l-0.1-0.1l0,0l0.1,0.1c0.1,0,0.1,0,0.2-0.1l0,0h-0.1c2.4,1.2,5.5,1.3,8.7,0.5
		C736.8,1011.6,735.8,1011.9,734.9,1012.2z M740.3,1011.1c-0.8,0.4-1.6,0.7-2.4,0.9C738.7,1011.7,739.5,1011.4,740.3,1011.1z
		 M726.9,1010.4c-0.2,0-0.3-0.1-0.5-0.1c0.4,0,0.9,0.1,1.2,0.1C727.3,1010.4,727.1,1010.4,726.9,1010.4z M723.7,1010
		c-1.2-0.1-2.4-0.2-3.6-0.5C721.3,1009.7,722.6,1009.9,723.7,1010z M709.4,1010.4c-0.2,0.1-0.3,0.2-0.5,0.2
		C709.1,1010.6,709.1,1010.5,709.4,1010.4C709.3,1010.5,709.3,1010.5,709.4,1010.4z M758,985c0.2,0.2,0.5,0.2,0.6,0.4
		C758.5,985.3,758.2,985.2,758,985c-3.9-2.2-8.4-4.8-13.2-4c-13.7,3.3-27.6,2.5-41.5,3.3v-0.1c13.9-0.8,27.9-0.1,41.4-3.3
		C749.6,980.2,753.9,982.7,758,985z M774.4,977.5c-1.6,0.7-3.1,1.6-4.7,2.4l0.1-0.1C771.2,978.8,772.8,978.1,774.4,977.5z
		 M761.6,987.1c-0.3,0.7-1.4,3.4-1.3,4.8C760.1,990.6,761.3,987.8,761.6,987.1c1.4,2.3,2.8,9.8,6.3,9c3-2.2,5.8-4.8,8.2-7.6
		c2.9-4.1,7.7-6.6,10.1-11.1c0,0,0.1,0,0.1,0.1c-0.9,1.6-1.8,3.1-3.2,4.2c-5.5,4.4-9.3,10.6-15.1,14.6
		C764.5,997.3,763,989.4,761.6,987.1z M765,1001.3c0-1-0.1-2-0.4-2.9C765,999.4,765.1,1000.3,765,1001.3z M764.6,998.3L764.6,998.3
		L764.6,998.3z M759.3,1023.9c4.4-1.2,8.3-3.3,9.7-5.2c0.2-0.6,0.4-1.2,0.4-1.9c0,0.7-0.1,1.3-0.4,2
		C767.5,1021.3,762.9,1022.8,759.3,1023.9z M750.2,1027.8c0.7-0.2,1.5-0.2,2.2-0.3C751.7,1027.6,751,1027.7,750.2,1027.8z
		 M749,1024.6c2.4,0.7,5.9,0.4,9.2-0.4c-0.5,0.2-1.1,0.3-1.6,0.4C753.7,1025.5,751.2,1025.4,749,1024.6z M742.5,1018.7
		c-1.2-1.4-1.5-3.1-1.8-4.4c0.6,2.1,1.7,5.4,5.5,8.5c0.1,0.1,0.2,0.2,0.3,0.3C745.1,1022.1,743.7,1020.6,742.5,1018.7z
		 M736.1,1013.2c-0.9-0.2-1.7-0.3-2.5-0.5c1.2,0.2,2.3,0.3,3.4,0.2c0.2-0.2,0.4-0.5,0.6-0.2l0,0c-0.2-0.2-0.4,0-0.6,0.2l0,0
		C736.8,1012.9,736.4,1013.1,736.1,1013.2L736.1,1013.2z M731.3,1012.1c-2.3-0.6-4.6-1.2-6.9-1.3
		C726.6,1010.6,729,1011.4,731.3,1012.1z M719.4,1009.8c0.2,0,0.3,0,0.4,0h0.1h-0.1c0.1,0,0.1,0,0.2,0c0.1-0.1,0.1-0.2,0.2-0.2
		c0,0-0.1,0.1-0.1,0.2c0.1,0,0.2,0.1,0.2,0.1C720.1,1009.8,719.8,1009.8,719.4,1009.8z"/>
</g>
<g>
	<g>
		
			<radialGradient id="SVGID_1_" cx="5640.1567" cy="-7185.646" r="49.0174" gradientTransform="matrix(-8.254457e-02 -0.9966 0.9966 -8.254457e-02 8385.4141 5697.312)" gradientUnits="userSpaceOnUse">
			<stop  offset="2.066799e-05" style="stop-color:#F9F1E5"/>
			<stop  offset="1" style="stop-color:#CCBDA8"/>
		</radialGradient>
		<path class="st4" d="M788.8,726.3c0,0-94.3,10.7-58.2-107.6c0,0,3.1-10.6,16.7-5.9c13.6,4.6,10.1,17.6,10.1,17.6
			s-21.7,28.2-3.8,50.8c17.9,22.6,28.3,24,37.9,22.1C801.1,701.2,801,727.5,788.8,726.3z"/>
		
			<radialGradient id="SVGID_2_" cx="5693.6465" cy="-7192.2021" r="19.4301" gradientTransform="matrix(-8.254457e-02 -0.9966 0.9966 -8.254457e-02 8385.4141 5697.312)" gradientUnits="userSpaceOnUse">
			<stop  offset="2.066799e-05" style="stop-color:#F9F1E5"/>
			<stop  offset="1" style="stop-color:#CCBDA8"/>
		</radialGradient>
		<circle class="st5" cx="747.6" cy="616.7" r="19.4"/>
	</g>
	<g>
		<g>
			<path class="st6" d="M706.7,889.3c-1.2-0.5-2.2-1.4-2.6-2.7c-0.4-1-0.8-2-1.1-3c-1.6-5.9-3.3-11.7-4.7-17.6
				c-1-4.1-1.9-8.4-2.7-12.6c-0.8-4.3-1.4-8.5-2-12.9c-0.3-2.2-0.5-4.4-0.6-6.7c-0.1-1.5,0.1-3,0-4.6c0-2.1,0.3-4.2,1.1-6.2
				c0.7-1.8,2.1-2,3.4-0.7c1.2,1.2,2.1,2.7,2.9,4.3c1.7,3.4,3,6.9,4,10.5c0.8,2.7,1.6,5.3,2.2,8c0.6,2.6,1.1,5.2,1.6,7.8
				c0.5,2.4,0.9,4.8,1.2,7.1c0.4,2.3,0.7,4.7,0.9,7c0.3,2.8,0.5,5.6,0.7,8.4c0.1,2.8,0.2,5.5,0.2,8.4c0,1.2-0.2,2.5-0.2,3.7
				c-0.1,0.7-0.5,1.2-1.2,1.4c-0.7,0.2-1.2,0.4-2,0.5C707.5,889.6,707.1,889.5,706.7,889.3z"/>
		</g>
		<g>
			<path class="st7" d="M856.9,934.1c-0.2,1-0.5,2-0.8,3c0,0.1-0.1,0.3-0.1,0.4c-0.2,0.5-0.5,1.2-0.8,1.7c-0.2,0.4-0.4,0.8-0.5,1.2
				c-0.1,0.2,0,0.4,0,0.5s-0.1,0.3-0.1,0.4c-0.2,0.1-0.3,0.2-0.4,0.3c-0.4,1-0.8,2-1.1,3c0,0.2,0.1,0.4,0.1,0.6
				c0,0.1-0.1,0.3-0.1,0.4c-0.2,0.2-0.3,0.2-0.4,0.4c-0.2,0.5-0.5,1.2-0.8,1.6c-1.2,2.3-2.3,4.5-3.5,6.6c-2.7,4.6-5.9,8.7-9.8,12.2
				c-4.3,3.9-9.1,6.9-14.7,8.5c-4.4,1.3-8.9,2.2-13.5,1.2c-2.3-0.5-4.3-1.6-5.9-3.5c-1.7-2.3-2.3-4.9-2.3-7.6s0.5-5.4,1.2-8
				c0.6-2.2,1.5-4.2,2.7-6.1c0.9-1.2,2-2.3,2.9-3.6c1.2-1.6,2.1-3.4,2.7-5.3c0.5-1.4,1.1-2.6,2.2-3.5c0.4,0.8,0.9,1.6,1.2,2.4
				c0.1,0.2-0.2,0.5-0.4,0.5c-0.8,0.1-1.1,0.5-1.3,1.2c-0.9,2.6-2.3,4.8-4.1,6.9c-0.5,0.5-0.9,1.2-1.2,2c-0.5,1.2-0.9,2.3-1.2,3.5
				c-0.3,0.9-0.5,1.6-0.8,2.4c-0.7,2-0.4,3.8,0.1,5.8c0.2,0.9,0.5,1.9,0.9,2.8c1.6-0.9,3.1-1.8,4.2-3.2c2-2.6,4.4-4.8,6.9-6.9
				c2-1.7,3.8-3.7,5.6-5.6c0.8-0.8,1.3-1.7,2-2.6c0.4-0.5,0.3-1.3-0.2-1.7c-0.9-0.7-2-1.4-2.9-2c-0.5-0.3-0.9-0.5-1.5-0.8
				c-1.3-0.5-2.6-0.9-3.9-1.5c-0.2,0-0.4-0.2-0.6-0.3c0.2-0.2,0.3-0.3,0.5-0.3c1.2-0.3,2.6-0.7,3.8-0.9c0.6-0.2,1.2-0.2,1.3,0.7
				c0,0.2,0.2,0.3,0.4,0.4c1.6,1,3.2,2,4.7,3c0.7,0.5,1.6,0.5,2.4,0.6c1.6-0.1,3.3-0.2,4.8,0c1.2,0.1,2.4,0.6,3.6,1.2
				c1.7,0.9,3.6,1.7,5.2,2.7c1.6,0.9,3.2,0.8,4.8,0.2c0.9-0.3,1.6-0.9,2-1.9c1-2.4,2.1-4.9,3.1-7.3c0.4-1,0.5-2.2,0.7-3.3
				c0.2-1.3,0.4-2.7,0.6-4c0.5-2.5-0.4-4.6-2.1-6.3c-1.3-1.3-2.8-2.7-4.3-3.8c-0.8-0.6-1.7-1.1-2.7-1.4c-1.1-0.4-2.3-0.5-3.3-0.9
				c-0.1-0.1-0.3-0.3-0.3-0.5c0-0.3,0-0.5,0-0.9c0.1-0.4,0.3-0.8,0.4-1.2c0-0.2,0.1-0.5,0.1-0.7c0.1-0.3,0.2-0.6,0.3-0.9
				c0.5,0.1,1.1,0.2,1.6,0.3c0.7,0.2,1.5,0.3,2.2,0.5c0.2,0.1,0.5,0.2,0.6,0.2c0.7,0.3,1.5,0.5,2.2,0.9c0.9,0.8,1.8,1.5,2.7,2.3
				c0.1,0,0.2,0.1,0.2,0.1c0.3,0.4,0.6,0.7,0.9,1.1c0.2,0.1,0.2,0.2,0.4,0.3c0.4,0.3,0.7,0.8,1,1.1c0.1,0,0.2,0.1,0.2,0.1
				c0.5,0.8,1.1,1.5,1.7,2.2c0.1,0.2,0.2,0.4,0.2,0.5c0.2,1.2,0.5,2.4,0.7,3.7c-0.1,0.1-0.1,0.2-0.1,0.3
				C857.3,931,857.1,932.6,856.9,934.1z"/>
			<path class="st8" d="M723.5,830.7c0.3,1.6,0.5,3.1,0.9,4.8c0.2,1.2,0.5,2.3,0.8,3.4c0,0.2,0.2,0.5,0.3,0.6c0.8,0.4,0.7,1.2,0.8,2
				c0.2,1.4,0.2,2.9,0.7,4.3c0.6,1.8,1.6,3.5,2.7,5.1c0.7,1.2,1.7,2.3,2.5,3.5c0.5,0.8,1.3,1,2.2,1.1c0.5,0,0.9,0.2,1.1,0.6
				c0.5,0.9,1.2,1.2,2.2,0.8c0.2,0,0.5,0,0.7,0.1c0.5,0.1,0.9,0,0.9-0.5c0.5,0.8,0.3,1.6-0.2,2.3c-0.7,1.2-0.7,1.2,0.3,2
				c0.5,0.4,1,0.6,1.4,0.9c0.3,0.3,0.6,0.5,0.8,0.9c0.7,1.5,2,1.8,3.5,1.5c1.2-0.3,2.3-0.7,3.4-1.2c3.1-1.6,6.2-3.3,9.4-4.8
				c0.8-0.4,1.8-0.5,2.7-0.7c0.1,0,0.2,0.1,0.3,0.2c-2.7,0.5-5,1.8-7.2,3.2c-4.4,2.7-8.3,5.9-12.3,9c-4.4,3.4-8.7,6.8-13,10.1
				c-4,3-8.1,5.7-12.8,7.6c-0.5,0.2-1.1,0.5-1.6,0.7c-1.2,0.3-2.3,0.5-3.5,0.8c-0.6,0.2-1.2-0.3-1.1-0.9c0-0.8,0.1-1.5,0.1-2.3
				c0.2,0.2,0.5,0.5,0.8,0.7c0.5,0.5,1.2,0.7,2,0.5c2.4-0.5,4.5-1.5,6.7-2.5c3.3-1.6,6.2-3.4,9.1-5.5c1.8-1.3,3.4-2.6,5.1-4
				c1-0.9,1.7-2,1.8-3.3c0.1-1-0.1-2-0.7-2.9c-0.5-0.6-0.7-1.4-0.9-2.2c-0.9-2.6-1.7-5.2-3-7.6c-0.6-1.2-1.3-2.3-2-3.5
				c-0.3-0.5-0.5-1.2-0.9-1.7c-0.3-0.4-0.8-0.5-1.2-0.9c0-0.6-0.1-1.2-0.1-2c0-0.5,0-1-0.1-1.5c-0.2-0.6-0.3-1.2-0.6-1.8
				c-0.8-1.8-1.1-3.7-1.4-5.5c-0.5-2.4-1.1-4.8-1.7-7.1c-0.7-2.3-1.4-4.8-2.2-7c-0.9-3-2.1-5.9-3.9-8.5c-0.9-1.2-1.8-2.3-2.8-3.3
				c-1.2-1.2-2.9-1.1-4.5-0.8c-2,0.3-3.5,1.5-4.9,2.9c-1.7,1.8-3.2,3.7-4,6c-0.2,0.4-0.2,0.9-0.2,1.2c-0.5-0.5-0.9-0.9-1.4-1.3
				c-1-1.1-2.2-1.4-3.7-0.9c-0.2,0.1-0.4-0.1-0.5-0.1c0.2-0.4,0.3-0.9,0.5-1.2c0.1,0,0.2,0,0.2-0.1c1-1.5,2-3.1,3.2-4.5
				c1.6-2,3.6-3.7,6-4.6c1.3-0.5,2.8-0.8,4.3-0.6c1.3,0.2,2.5,0.7,3.6,1.3c2.1,1.2,4.1,2.7,5.4,4.8c1.1,1.9,2.4,3.7,3.4,5.7
				c1.1,2.1,2,4.3,3,6.5C723.1,830.3,723.3,830.7,723.5,830.7z"/>
			<path class="st9" d="M723.7,830.7c0.7,2.1,1.4,4.2,2,6.3c0.3,0.8,0.5,1.6,0.6,2.6c0.3-0.4,0.5-0.7,0.7-1c0.3-0.3,0.5-0.6,0.7-0.9
				c2.9-3.4,6.5-5.9,10.4-7.8c1.7-0.9,3.6-1.6,5.5-2.1c7.2-2.3,14.5-3.2,22-2.7c0.9,0.1,1.7,0.1,2.6,0.2c0.1,0,0.2,0.1,0.3,0.1
				c0.9,2.5,2,4.8,3,7.3c0.6,1.5,1.2,3,2,4.5c1.3,3.1,2.6,6.2,3.8,9.4c0.5,1.2,0.9,2.4,1.4,3.6c-0.2,0.4-0.2,0.6,0.3,0.7
				c0.1,0.3,0.2,0.5,0.3,0.9c-0.2,0.5-0.2,1,0.5,1.2c0.1,0.2,0.2,0.5,0.2,0.7c-0.5-0.5-1.1-0.9-1.4-1.6c-0.3-0.4-0.5-0.8-1-0.9
				c-0.5,0-1-0.3-1.6-0.5c-0.3-0.5-0.5-0.9-0.9-1.3c1.1-0.7,1.2-1.2,0.6-3c-0.5-2-1.2-3.7-2-5.6c-0.3-0.7-0.8-1.4-1.1-2.1
				c-0.9-2-1.8-4.1-2.7-6c-0.9-1.7-1.8-3.3-3.4-4.2c-1.9-1-3.8-1.5-5.9-1.6c-5.7-0.3-11.2,0.5-16.6,2.2c-1.3,0.4-2.8,0.7-4,1.4
				c-2.2,1.2-4.3,2.5-6.4,3.9c-1.2,0.9-2.3,2-3.4,2.9c-0.3,0.2-0.8,0.2-1.2,0.3c-0.1-0.1-0.1-0.1-0.2-0.2c-0.1,0.5-0.2,0.9-0.2,1.3
				c0,0.5,0,1,0.1,1.6c0,0.6,0.2,1.1,0.7,1.5s0.9,1,0.9,1.7c-0.1,2.3,0.9,4,2.4,5.6c1.5,1.7,2.9,3.4,4.8,4.7c0.5,0.5,1.2,0.6,2,1
				c0.5,0.4,1.1,0.8,1.6,1.2c-0.3,0.2-0.5,0.2-0.9,0.3c-0.4,0.2-0.7,0.3-1,0.4c-0.1,0.5-0.5,0.7-0.9,0.5c-0.2-0.1-0.5-0.2-0.7-0.1
				c-1,0.4-1.6,0.2-2.2-0.8c-0.2-0.4-0.5-0.6-1.1-0.6c-0.8-0.1-1.6-0.4-2.2-1.1c-0.9-1.2-1.8-2.3-2.5-3.5c-0.9-1.6-2-3.4-2.7-5.1
				c-0.5-1.3-0.5-2.8-0.7-4.3c-0.2-0.7,0-1.5-0.8-2c-0.2-0.1-0.2-0.4-0.3-0.6c-0.3-1.2-0.5-2.3-0.8-3.4c-0.3-1.6-0.5-3.1-0.9-4.8
				c-0.1-0.2-0.2-0.5,0.2-0.5C723.7,830.4,723.7,830.6,723.7,830.7z"/>
			<path class="st10" d="M858,930.1c-0.2,0.5-0.2,0.9-0.3,1.3c0,0.2,0.2,0.4,0.2,0.5c-0.6,1.7-1.2,3.4-1.9,5.1c0.2-1,0.6-2,0.8-3
				c0.3-1.6,0.5-3.2,0.7-4.8C857.9,929.4,858.1,929.7,858,930.1z"/>
			<path class="st10" d="M853,945.2c0-0.2-0.2-0.5-0.1-0.6c0.3-1,0.7-2,1.1-3c0.1-0.2,0.2-0.2,0.4-0.3
				C854,942.6,853.5,943.9,853,945.2z"/>
			<path class="st10" d="M855.2,939.3c-0.2,0.6-0.4,1.2-0.6,1.7c0-0.2-0.1-0.4,0-0.5C854.7,940.1,854.9,939.7,855.2,939.3
				C855.1,939.3,855.1,939.4,855.2,939.3z"/>
			<path class="st10" d="M855.8,937.5c-0.2,0.6-0.5,1.2-0.7,1.8c-0.1,0-0.1,0-0.1,0C855.3,938.7,855.6,938.1,855.8,937.5z"/>
			<path class="st11" d="M810.8,931.5c-0.7-1.7-1.6-3.4-2.3-5.1c-0.7-1.6-1.3-3.2-2-4.8c-1.2-3-2.4-6-3.7-9.1
				c-0.9-2.3-1.8-4.8-2.1-7.3c-0.5-3.9-0.9-7.7-0.9-11.7c0.1-4.8,0.5-9.7,1.1-14.6c0.5-3.4,1.1-6.6,1.6-9.9c0.1,0,0.1,0,0.1,0.1
				c0.7,1.4,1.6,1.7,3.1,1.5c2.3-0.3,4.4-0.5,6.6-0.2c0.5,0.2,0.9,0.2,1.4,0.4c0.8,0.2,1,0.6,0.9,1.5c-0.3,3-0.7,5.9-0.9,9
				c-0.2,3.4-0.2,6.6-0.4,10c-0.2,3.3-0.2,6.6-0.3,9.8c-0.1,1.9-0.1,3.7-0.2,5.6c-0.2,3.1-0.5,6.2-0.8,9.3c-0.2,1.3-0.6,2.6-0.9,3.8
				c-0.3,1.5-0.6,3-0.8,4.6c-0.1,1-0.2,2.2,0,3.2c0.2,1.5,0.5,3,1.2,4.4c0.8,2,1.9,3.8,3,5.7c0.9,1.6,3,2.6,4.9,2.1
				c1.5-0.4,3-0.9,4.5-1.5c0.6-0.2,1-0.1,1.6,0.2c1.6,0.6,3.2,0.9,4.8,1.6c1.6,0.8,3.4,0.8,5.1,1.2c1.3,0.3,2.5,0.9,3.7,1.8
				s2.7,1.6,4,2.3c0.9,0.5,2,1,3,1.4c0.4,0.2,0.9,0.2,1.2,0.2c0.5,0,0.9-0.3,1.2-0.9c0.6-1.5,1.4-2.9,2-4.4c0.5-1.1,0.8-2.2,1-3.4
				c0.2-1.3,0.3-2.7,0.5-4.1c0.2-1.6-0.2-2.9-1.1-4.1c-1.6-2.3-3.6-4.3-6-5.7c-1.2-0.7-2.7-1.1-4.1-1.1c-0.3,0-0.5,0-1-0.1
				c0.3-0.9,0.6-1.7,0.9-2.5c0.3-0.7,0.6-1.3,0.9-2c0-0.1,0.2-0.2,0.2-0.2c-0.1,0.3-0.1,0.5,0,0.9c0,0.2,0.2,0.5,0.3,0.5
				c1.1,0.3,2.3,0.5,3.3,0.9c0.9,0.4,2,0.8,2.7,1.4c1.5,1.2,3,2.5,4.3,3.8c1.7,1.7,2.5,3.8,2.1,6.3c-0.2,1.3-0.3,2.7-0.6,4
				c-0.2,1.1-0.3,2.2-0.7,3.3c-0.9,2.4-2.1,4.9-3.1,7.3c-0.4,1-1.1,1.5-2,1.9c-1.6,0.5-3.2,0.6-4.8-0.2c-1.7-0.9-3.5-1.7-5.2-2.7
				c-1.1-0.5-2.3-1.1-3.6-1.2c-1.6-0.1-3.3,0-4.8,0c-0.9,0-1.6-0.1-2.4-0.6c-1.5-1-3.1-2-4.7-3c-0.2-0.2-0.4-0.2-0.4-0.4
				c-0.2-0.9-0.8-0.8-1.3-0.7c-1.3,0.3-2.6,0.6-3.8,0.9c-0.2,0.1-0.2,0.2-0.5,0.3c0.3,0.2,0.5,0.2,0.6,0.3c1.3,0.5,2.6,0.9,3.9,1.5
				c0.5,0.2,1,0.5,1.5,0.8c1,0.7,2,1.4,2.9,2c0.5,0.4,0.5,1.2,0.2,1.7c-0.6,0.9-1.2,1.8-2,2.6c-1.8,2-3.6,4-5.6,5.6
				c-2.5,2.1-4.9,4.4-6.9,6.9c-1.2,1.5-2.7,2.3-4.2,3.2c-0.3-0.9-0.5-2-0.9-2.8c-0.5-1.9-0.8-3.8-0.1-5.8c0.3-0.9,0.5-1.6,0.8-2.4
				c0.4-1.2,0.8-2.3,1.2-3.5c0.3-0.7,0.7-1.4,1.2-2c1.8-2.1,3.2-4.3,4.1-6.9c0.2-0.7,0.5-1.1,1.3-1.2c0.2,0,0.5-0.5,0.4-0.5
				c-0.4-0.8-0.8-1.6-1.2-2.4C812.8,936.2,811.9,933.8,810.8,931.5z M813.3,956.6c1-1,2.1-2,3-3c2.2-2.3,4.4-4.6,6.6-6.9
				c0.5-0.5,0.4-1-0.1-1.4c-0.9-0.9-1.9-1.6-3-2c-1.1-0.3-2.2-0.7-3.3-1c-0.6-0.2-1,0-1.2,0.6c-0.9,2.5-2.3,4.8-3.7,7.1
				c-0.3,0.5-0.4,1.3-0.4,2c-0.1,1.5,0.1,3,0,4.6c0,0.5-0.3,1.1-0.4,1.6c0,0.2-0.1,0.4-0.2,0.6c0.1,0.1,0.2,0.1,0.2,0.2
				C811.7,958.2,812.5,957.5,813.3,956.6z"/>
			<path class="st9" d="M723.3,853.6c-1.8,0.8-3.6,1.5-5.3,2.3c-1.9,1-3.7,2.2-5.6,3.3c-0.5,0.4-1.1,0.8-1.6,1.2
				c-0.5,0.3-0.9,0.6-1.4,0.9c-0.5,0.4-0.9,0.9-1.4,1.2c-0.2,0.2-0.5,0.2-0.9,0.2c-0.1-0.8-0.2-1.6-0.2-2.3
				c-0.9-7.9-1.8-15.8-3.5-23.6c-0.7-3.2-1.5-6.4-3-9.4c-0.3-0.6-0.7-1.2-1-1.9c0.1-0.4,0.1-0.9,0.2-1.2c0.9-2.3,2.3-4.3,4-6
				c1.3-1.3,2.9-2.6,4.9-2.9c1.6-0.3,3.3-0.5,4.5,0.8c1.1,1,2,2.2,2.8,3.3c1.8,2.6,3,5.5,3.9,8.5c0.8,2.3,1.6,4.7,2.2,7
				s1.2,4.7,1.7,7.1c0.4,1.9,0.6,3.7,1.4,5.5c0.2,0.6,0.5,1.2,0.6,1.8c0.1,0.5,0.1,1,0.1,1.5c0,0.6,0.1,1.2,0.1,2
				C725.1,853.2,724.1,853.4,723.3,853.6z"/>
			<path class="st12" d="M802.8,868.7c0.6-3.3,0.9-6.6,2.5-9.7c1.2-2.1,2.7-3.9,4.8-5.1c2.7-1.4,5.8-1.6,8.8-1.3
				c1.8,0.2,3.6,0.6,5.3,1c1.5,0.4,3,0.9,4.4,1.4c1.2,0.4,2.3,1,3.4,1.5c1.6,0.8,3.4,1.4,5,2.3c2.3,1.2,4.7,2.7,6.9,4
				c2.1,1.3,4.2,2.8,6.3,4.1c0.4,0.3,0.6,0.5,0.4,1.1c-0.5,1-0.9,2-1.2,3c-0.4,1-0.9,2.1-1.3,3.1c-0.8,1.7-1.6,3.5-2.3,5.2
				c-0.5,1.1-1,2.2-1.6,3.2c-0.6,1.3-1.2,2.5-1.9,3.7c-0.3,0.4-0.5,0.9-0.8,1.3s-0.5,0.9-0.8,1.3c-0.2,0.2-0.2,0.5-0.4,0.8
				c-0.3,1-0.6,2-0.9,3c0,0.1-0.1,0.2-0.1,0.3c0-0.3-0.1-0.6-0.1-0.9c0-0.2-0.1-0.4-0.1-0.5c0.1-0.2,0.1-0.3,0.2-0.5
				c0.2-0.2,0.6-0.5,0.2-0.9c0.1-0.3,0.2-0.6,0.3-0.9c0.2-0.4,0.5-0.7,0.8-1.2c1.1-2.1,2.3-4.1,3.4-6.2c0.7-1.3,1.2-2.7,1.9-4.1
				c0.4-0.8,0.8-1.6,1-2.4c0.5-1.7,1-3.4,1.5-5.1c0.1-0.3,0.2-0.5,0.3-0.8c0.2-0.6,0.1-1.2-0.2-1.7c-1.5-2.8-4.1-4.4-6.6-6
				c-1.7-1-3.4-2-5.1-3c-0.9-0.5-1.7-0.9-2.6-1.2c-2.7-1.1-5.4-2.3-8.1-3.3c-2.3-0.8-4.8-1.4-7.3-1.6c-1.3-0.1-2.7,0.2-4,0.2
				c-2.8,0.2-5.1,1.2-7,3.4c-1.7,2-2.8,4.1-3.4,6.6c-0.2,0.7-0.2,1.4-0.3,2.1c0,0.1-0.1,0.2-0.1,0.3c0,0.2-0.1,0.4-0.1,0.5
				s-0.1,0.3-0.1,0.4c-0.1,0.3-0.2,0.5-0.2,0.9c-0.4,1.6,0.5,2.7,2.3,2.6c1.7,0,3.4-0.1,5.1-0.1c1.4,0.1,2.8,0.2,4.1,0.9
				c0.9,0.5,1.4,1.4,1.2,2.4c-0.4,3-0.8,6.2-0.9,9.3c-0.2,6.1-0.2,12.2-0.3,18.3c0,4.4,0,8.8-0.1,13.2c0,2.3-0.5,4.5-1,6.8
				c-0.5,2-0.9,4.1-1,6c-0.2,1.9,0.1,3.8,1,5.5c2,3.7,5.1,5.8,9.8,4.8c3-0.6,5.5-2.3,7.9-4.1c2.3-2,4.4-4.2,6-6.8
				c1.2-1.8,2-3.7,3-5.5c0.9-1.6,1.2-3.4,1.7-5.2c0.1-0.3-0.2-0.6-0.2-0.9c-0.2-0.8-0.3-1.6-0.5-2.4c-0.2-0.9-0.4-1.8-0.5-2.7
				c-0.1-0.2-0.3-0.5-0.4-0.6c-0.2-0.9-0.3-1.9-0.5-2.8c-0.1-1.2-0.2-2.4-0.4-3.7c-0.1-0.9-0.2-1.6-0.3-2.5c-0.1,0,0.1-0.1,0.2-0.1
				c0.1,0.6,0.2,1.2,0.3,1.7c0.1,0.4,0.1,0.8,0.2,1.1c0.1,0.2,0.1,0.2,0.2,0.4c0,0.4-0.2,0.9,0.3,1.2c-0.1,0-0.1,0-0.1,0.1
				c0,0.3-0.1,0.6,0,0.9c0.8,3.4,1.6,6.7,2.3,10.1c0,0.2,0.1,0.5,0.2,0.7c-0.1,0.3-0.2,0.6-0.3,0.9c-0.2,0.2-0.5,0.4-0.1,0.7
				c-0.1,0.4-0.3,0.8-0.4,1.2c-0.1,0.1-0.2,0.2-0.2,0.2c-0.3,0.6-0.6,1.3-0.9,2c-0.3,0.9-0.6,1.6-0.9,2.5c0.5,0,0.8,0.1,1,0.1
				c1.5,0.1,2.8,0.4,4.1,1.1c2.4,1.4,4.4,3.4,6,5.7c0.8,1.2,1.2,2.6,1.1,4.1c-0.2,1.3-0.3,2.7-0.5,4.1c-0.2,1.1-0.5,2.3-1,3.4
				c-0.6,1.5-1.4,2.9-2,4.4c-0.2,0.6-0.5,0.9-1.2,0.9c-0.4,0-0.9,0-1.2-0.2c-1-0.5-2-0.9-3-1.4c-1.3-0.7-2.7-1.4-4-2.3
				c-1.2-0.8-2.3-1.4-3.7-1.8c-1.6-0.4-3.4-0.5-5.1-1.2c-1.5-0.7-3.2-1.1-4.8-1.6c-0.5-0.2-1-0.3-1.6-0.2c-1.5,0.5-3,1-4.5,1.5
				c-1.8,0.5-4-0.5-4.9-2.1c-1-1.9-2.1-3.7-3-5.7c-0.5-1.3-0.9-2.9-1.2-4.4c-0.2-1-0.2-2.2,0-3.2c0.2-1.6,0.5-3.1,0.8-4.6
				c0.2-1.3,0.7-2.6,0.9-3.8c0.4-3.1,0.6-6.2,0.8-9.3c0.1-1.9,0.1-3.7,0.2-5.6c0.1-3.3,0.2-6.6,0.3-9.8c0.1-3.4,0.2-6.7,0.4-10
				c0.2-3,0.6-6,0.9-9c0.2-0.9-0.1-1.2-0.9-1.5c-0.5-0.2-0.9-0.3-1.4-0.4c-2.3-0.4-4.4-0.2-6.6,0.2c-1.6,0.2-2.4-0.2-3.1-1.5
				c0-0.1-0.1-0.1-0.1-0.1C802.8,868.9,802.8,868.8,802.8,868.7z M837.1,929.2c-0.7,0.2-1.4,1-2,1.6c-1.4,1.3-2.8,2.6-4.2,3.9
				c-0.2,0.2-0.5,0.4-0.8,0.6c-0.2,0.2-0.2,0.4-0.3,0.6c0.2,0,0.4,0.2,0.5,0.2c2.1,0,4.1,0.7,6.2,1.2c1.6,0.4,2.5,1.6,3.2,2.9
				c0.8,1.5,2,2.6,3.6,3.3c0.9,0.4,1.7,0.9,2.6,1.4c0.5,0.3,0.6,0.2,0.8-0.3c0.3-2.6,1.1-5.1,2-7.5c0.2-0.3,0.2-0.6,0.4-0.9
				c0.3-0.8-0.2-1.3-0.5-1.9c-1.1-2.3-2.8-3.8-5.3-4.8C841.2,928.8,839.1,928.7,837.1,929.2z"/>
			<path class="st13" d="M708.8,873.2c0.2-0.7,0.2-1.6,0.3-2.3c0.2-0.7,0.4-1.4,0.7-2.1c0.4-0.9,0.9-1.6,1.5-2.3
				c1.4-2,3-3.6,4.8-5.1c2.7-2.1,5.5-4,8.7-5.3c1-0.4,1.9-0.4,2.5,0.5c0.7,1,1.5,2,2.1,3.1c1.4,2.4,2,5.1,2.9,7.8
				c0.2,0.5,0.3,1.2,0.5,1.7c0.5,1.6,0.1,3.2-0.5,4.7c-0.1,0.3-0.3,0.5-0.5,0.7c-3,2-6.1,4.1-9.1,6.1c-2,1.2-4.1,1.7-6.3,2.2
				c-1.1,0.2-2.3,0.3-3.4,0.4c-0.6,0.1-1.1-0.2-1.3-0.9c-0.9-2.2-1.8-4.4-2.7-6.6c-0.1-0.2-0.4-0.3-0.5-0.5c0-0.4-0.1-0.8-0.1-1.2
				C708.4,873.7,708.7,873.5,708.8,873.2z M714.4,870.1c-0.2,0.7-0.2,1.3,0.3,2c1,1.3,2.2,2.4,3.6,3.2c0.9,0.5,2,1,3,1.2
				c0.7,0.2,1.6-0.1,2.3-0.3c1.5-0.8,3-1.6,4.4-2.5c0.6-0.4,1.2-0.9,1.9-1.2c1.3-0.5,1.6-1.9,1.4-3c-0.5-2.4-1.1-4.8-1.8-7.2
				c-0.3-1.2-1-2.3-1.6-3.4c-0.4-0.7-1.6-0.9-2.3-0.5c-2.4,1.7-5,3.4-7.3,5.1c-1.2,0.8-1.9,2-2.4,3.2c-0.4,0.9-0.9,1.9-1.2,2.7
				c-0.1,0,0,0,0,0C714.4,869.8,714.4,869.9,714.4,870.1z"/>
			<path class="st14" d="M707,862.7c0.3-0.1,0.6-0.1,0.9-0.2c0.5-0.4,0.9-0.8,1.4-1.2c0.5-0.3,0.9-0.6,1.4-0.9
				c0.5-0.4,1-0.9,1.6-1.2c1.9-1.1,3.7-2.3,5.6-3.3c1.7-0.9,3.5-1.6,5.3-2.3c0.8-0.3,1.6-0.5,2.5-0.8c0.4,0.3,0.9,0.5,1.2,0.9
				c0.5,0.5,0.6,1.2,0.9,1.7c0.6,1.2,1.3,2.3,2,3.5c1.3,2.4,2.1,5.1,3,7.6c0.2,0.7,0.5,1.5,0.9,2.2c0.7,0.9,0.8,1.9,0.7,2.9
				c0,1.4-0.8,2.5-1.8,3.3c-1.6,1.4-3.4,2.7-5.1,4c-2.9,2.1-5.9,4.1-9.1,5.5c-2.2,1-4.4,2-6.7,2.5c-0.8,0.2-1.5,0-2-0.5
				c-0.2-0.2-0.5-0.5-0.8-0.7c0-0.2-0.1-0.4-0.1-0.6c-0.1-1.7-0.2-3.4-0.3-5.1c-0.1-1.6-0.2-3.3-0.2-4.9c0.2,0.2,0.4,0.4,0.5,0.5
				c0.9,2.2,1.9,4.4,2.7,6.6c0.2,0.6,0.7,0.9,1.3,0.9c1.1-0.2,2.3-0.2,3.4-0.4c2.2-0.5,4.4-1,6.3-2.2c3-2,6.1-4.1,9.1-6.1
				c0.2-0.2,0.5-0.4,0.5-0.7c0.7-1.5,1-3,0.5-4.7c-0.2-0.5-0.3-1.2-0.5-1.7c-0.8-2.6-1.5-5.4-2.9-7.8c-0.6-1.1-1.3-2.1-2.1-3.1
				c-0.7-0.9-1.6-0.9-2.5-0.5c-3.1,1.4-6,3.2-8.7,5.3c-1.9,1.5-3.5,3.1-4.8,5.1c-0.5,0.8-1,1.6-1.5,2.3c-0.3,0.6-0.5,1.4-0.7,2.1
				s-0.2,1.6-0.3,2.3c-0.1,0.3-0.3,0.6-0.5,0.9C707.9,870.2,707.6,866.5,707,862.7z"/>
			<path class="st15" d="M780.3,854.4c0.6,1.4,1.1,2.9,1.7,4.4c0.7,1.7,1.5,3.4,2.2,5.1c0.2,0.5,0.5,1.2,0.7,1.9
				c-0.3-0.1-0.5-0.2-0.7-0.3c-2.1-0.9-4.2-1.7-6.4-2.5c-4.3-1.6-8.6-3.1-13-4.6c-1.4-0.5-2.8-1.1-4.4-0.9c-0.1-0.1-0.2-0.2-0.3-0.2
				c-0.9,0.2-1.9,0.3-2.7,0.7c-3.1,1.6-6.2,3.3-9.4,4.8c-1.1,0.6-2.3,1-3.4,1.2c-1.4,0.3-2.7,0.1-3.5-1.5c-0.2-0.4-0.5-0.6-0.8-0.9
				c-0.5-0.4-0.9-0.6-1.4-0.9c-1-0.9-1-0.9-0.3-2c0.5-0.7,0.7-1.5,0.2-2.3c0.4-0.2,0.7-0.3,1-0.4c0.3-0.2,0.5-0.2,0.9-0.3
				c0.9,0.5,2,0.3,3,0.2c-0.2,0.5-0.5,0.9-0.7,1.5c-0.5,1.1-0.5,1.6,0.5,2.2c1.1,0.5,2.2,1.2,3.6,1.3c1.6,0.2,3-0.5,4.4-1.2
				c2.2-1.1,4.2-2.3,6.6-2.7c1.2-0.2,2.3,0,3.6,0.2c0.9,0.2,2,0.4,2.9,0.6c1.2,0.2,2.3,0.5,3.4,0.8c1.6,0.4,3,0.8,4.6,1
				c1.1,0.2,2.1,0.5,3.2,0.5c1.3,0,1.8-0.5,1.4-1.7c-0.5-1.3-1-2.6-1.4-3.9c-0.3-1.2-1-1.9-2-2.6c0.4-0.3,0.8-0.5,1.2-0.8
				c0.2-0.2,0.4-0.3,0.6-0.5c0.5,0.2,1,0.5,1.6,0.5s0.7,0.5,1,0.9c0.5,0.6,0.9,1,1.4,1.6C780,853.8,780.2,854.1,780.3,854.4z"/>
			<path class="st10" d="M840.7,904.9c0.5,2,0.9,4,1.3,6c0.4,1.4,0.8,2.8,1.2,4.3c0.1,0.4,0.2,0.5,0.6,0.5c0.2,0,0.5,0.4,0.7,0.5
				c-0.5-0.1-1.1-0.2-1.6-0.3c0-0.2-0.1-0.5-0.2-0.7c-0.8-3.4-1.6-6.7-2.3-10.1c-0.1-0.3,0-0.6,0-0.9
				C840.5,904.5,840.7,904.6,840.7,904.9z"/>
			<path class="st16" d="M839.4,894.3c0,0.2,0,0.4,0,0.5c0,0.3,0,0.7,0,1c0,0.1,0,0.1,0,0.1c0,0.8,0,1.7,0.1,2.5c0,0.1,0,0.3,0,0.4
				s-0.1,0.2-0.1,0.2c-0.1-0.1-0.3-0.1-0.2-0.2c-0.2-2.4-0.4-4.8,0.2-7.2c0,0.2,0.1,0.4,0.1,0.5c0,0.3,0.1,0.6,0.1,0.9
				C839.4,893.5,839.4,893.8,839.4,894.3z"/>
			<path class="st10" d="M840,899.6c0.2,0.7,0.2,1.5,0.2,2.2c0,0.3-0.2,0.6-0.3,0.9c-0.1-0.4-0.1-0.8-0.2-1.1
				c-0.1-0.6-0.2-1.2-0.3-1.7c0-0.1,0-0.1,0-0.1c0-0.2,0-0.3,0-0.5c-0.1-0.1-0.1-0.2-0.1-0.2c0-0.1,0.1-0.2,0.1-0.2
				C839.7,899.1,840,899.3,840,899.6z"/>
			<path class="st10" d="M857.7,926.5c0,0.5,0.2,1.1,0.2,1.6c0.2,0.5,0.1,0.8-0.3,1c-0.2-1.2-0.5-2.4-0.7-3.7
				C857.4,925.6,857.7,925.9,857.7,926.5z"/>
			<path class="st10" d="M850.1,917.9c0.7,0.5,1.3,0.9,2,1.5c0.2,0.1,0.1,0.5,0.1,0.7c-0.9-0.8-1.8-1.5-2.7-2.3
				C849.7,917.8,849.9,917.8,850.1,917.9z"/>
			<path class="st10" d="M855.5,922.7c0.4,0.3,0.6,0.7,0.9,1.1c0.2,0.4,0.5,0.8,0.2,1.2c-0.5-0.8-1.1-1.5-1.7-2.2
				C855.1,922.7,855.4,922.7,855.5,922.7z"/>
			<path class="st10" d="M839.5,898.4c0-0.8,0-1.7-0.1-2.5C840,896.3,840.1,897.7,839.5,898.4z"/>
			<path class="st10" d="M854.7,922.6c-0.4-0.3-0.7-0.8-1-1.1C854.4,921.3,855,921.8,854.7,922.6z"/>
			<path class="st10" d="M853,920.2c0.3,0.2,0.5,0.5,0.3,1c-0.3-0.4-0.6-0.7-0.9-1.1C852.5,920.2,852.9,920.2,853,920.2z"/>
			<path class="st10" d="M841.5,887.9c0.3-0.4,0.5-0.9,0.8-1.3C842.6,887,842.2,887.8,841.5,887.9z"/>
			<path class="st10" d="M839.6,892.9c0.5,0.4,0.4,1-0.2,1.2c0-0.3,0-0.6,0-1C839.5,893.1,839.5,893,839.6,892.9z"/>
			<path class="st10" d="M840.5,904.2c-0.5-0.2-0.3-0.8-0.3-1.2C840.8,903.2,840.6,903.7,840.5,904.2z"/>
			<path class="st15" d="M779.6,852.8c-0.7-0.2-0.7-0.6-0.5-1.2C779.3,852.1,779.4,852.4,779.6,852.8z"/>
			<path class="st10" d="M841.1,889.6c-0.2,0.1-0.5,0.2-0.6,0.3c0.2-0.2,0.2-0.5,0.4-0.8C840.9,889.3,841,889.4,841.1,889.6z"/>
			<path class="st10" d="M839.4,895.7c0-0.3,0-0.7,0-1C840,895,839.8,895.4,839.4,895.7z"/>
			<path class="st10" d="M847.2,916.5c0,0.2,0.2,0.3,0.2,0.5c-0.2-0.1-0.5-0.2-0.6-0.2C846.8,916.7,846.9,916.7,847.2,916.5z"/>
			<path class="st15" d="M778.9,850.8c-0.4-0.1-0.5-0.3-0.3-0.7C778.7,850.4,778.7,850.6,778.9,850.8z"/>
			<path class="st11" d="M842.4,917.5c-0.4-0.3-0.2-0.5,0.1-0.7C842.5,917.1,842.4,917.4,842.4,917.5z"/>
			<path class="st17" d="M772.3,849.2c0.2-0.2,0.4-0.3,0.5-0.3c1.3-0.2,1.9-1,1.7-2.3c-0.2-1.1-0.6-2.1-0.9-3.2
				c-0.2-0.5-0.3-1-0.5-1.6c-0.5-1.1-1.1-2.1-1.6-3.2c-0.9-1.7-1.8-3.4-2.7-5c-0.9-1.7-2.1-3.1-3.7-4.1c-1.9-1.2-3.9-1.6-6.1-1.7
				c-5.9-0.5-11.6,0.5-17.2,2.5c-2.2,0.9-4.3,2.1-6.3,3.4c-1.5,0.9-2.9,2-4.2,3.2c-1.6,1.4-1.6,1.5-0.7,3.4c0.9,1.7,1.4,3.6,1.8,5.5
				c0.2,1.1,0.9,1.9,1.5,2.7c1.2,1.5,2.3,3,3.8,4.1c0.6,0.5,1.3,0.9,2,1.2c-0.2,0.2-0.5,0.5-0.8,0.9c-0.6-0.3-1.4-0.5-2-1
				c-1.8-1.3-3.3-3-4.8-4.7c-1.4-1.6-2.4-3.4-2.4-5.6c0-0.7-0.3-1.2-0.9-1.7c-0.5-0.4-0.7-0.9-0.7-1.5c0-0.5-0.1-1-0.1-1.6
				c0-0.5,0.2-0.9,0.2-1.3c0.1,0.1,0.1,0.1,0.2,0.2c0.4-0.1,0.9-0.1,1.2-0.3c1.2-0.9,2.2-2,3.4-2.9c2-1.3,4.1-2.7,6.4-3.9
				c1.2-0.6,2.7-1,4-1.4c5.4-1.7,11-2.6,16.6-2.2c2.1,0.2,4.1,0.6,5.9,1.6c1.7,0.9,2.7,2.6,3.4,4.2c1,2,1.8,4.1,2.7,6
				c0.4,0.7,0.8,1.3,1.1,2.1c0.7,1.9,1.5,3.7,2,5.6s0.5,2.3-0.6,3C774.1,849.2,773.2,849.2,772.3,849.2z"/>
			<path class="st18" d="M741.4,853.4c0.5,0,0.9,0.2,1.2,0c1.1-0.5,2.1-1.1,3.1-1.6c0.7-0.2,1.2-0.3,1.9-0.5
				c1.7-0.6,3.5-1.2,5.4-1.3c1.9-0.2,3.7-0.5,5.6-0.6c2.7-0.1,5.4-0.1,8.1-0.1c1,0,2.1-0.1,3.1-0.2c0.1,0,0.2,0.1,0.3,0.1
				c-0.4,0.6-0.5,1.3-0.4,2c-0.2,0.1-0.4,0.1-0.7,0.2c-0.8-0.7-1.8-0.5-2.7-0.6c-2.7-0.2-5.5-0.3-8.3-0.2c-2.1,0.1-4.1,0.5-6.2,1
				c-0.9,0.2-1.8,1-2.8,1.6c-0.2,0-0.4,0-0.5,0.1c-1.2,0.8-2.3,1.5-3.5,2.2c-0.5,0.3-1,0.4-1.6,0.6c-1,0.1-2,0.2-3-0.2
				c-0.5-0.4-1.1-0.8-1.6-1.2c0.2-0.2,0.5-0.5,0.8-0.9C740.4,853.6,741,853.5,741.4,853.4z"/>
			<path class="st14" d="M772.3,849c0.9,0.1,1.7,0.2,2.6,0.2c0.3,0.5,0.5,0.9,0.9,1.3c-0.2,0.2-0.4,0.4-0.6,0.5
				c-0.3,0.3-0.8,0.5-1.2,0.8c-0.9-0.2-2-0.3-2.9-0.5c-0.4-0.1-0.9-0.2-1.2-0.4c-0.2-0.7,0-1.4,0.4-2C771,849.1,771.6,849,772.3,849
				z"/>
			<path class="st12" d="M810.6,958.9c0-0.2,0.1-0.4,0.2-0.6c0.2-0.5,0.4-1,0.4-1.6c0.1-1.5-0.1-3,0-4.6c0.1-0.7,0.1-1.5,0.4-2
				c1.4-2.3,2.7-4.6,3.7-7.1c0.2-0.6,0.6-0.9,1.2-0.6c1.1,0.3,2.2,0.7,3.3,1c1.2,0.4,2.1,1.2,3,2c0.5,0.4,0.5,0.9,0.1,1.4
				c-2.2,2.3-4.4,4.6-6.6,6.9c-1,1-2,2-3,3c-0.8,0.8-1.6,1.6-2.4,2.3C810.8,959,810.7,958.9,810.6,958.9z"/>
			<path class="st19" d="M839.3,900c0.1,0.9,0.2,1.6,0.3,2.5c0.1,1.2,0.2,2.4,0.4,3.7c0,0.6,0.1,1.2,0.1,1.8
				c-0.1-0.5-0.4-0.9-0.4-1.4c-0.3-2.3-0.5-4.8-0.8-7.1c0-0.2-0.2-0.3-0.2-0.5s0-0.3,0-0.5c0-1,0-2-0.1-3c-0.1-2,0.1-4,0.7-5.9
				c0.3-1.2,1.1-2.2,1.6-3.4c0.4-0.9,0.9-1.8,1.3-2.7c0.7-1.6,1.5-3.3,2.1-4.9c0.7-2.2,1.6-4.4,1.3-6.9c-0.2-1.4-0.3-3-0.7-4.3
				c-0.3-0.9-1-1.6-1.6-2.3c-1.7-2-3.9-3.3-6.2-4.5c-2.1-1.2-4.4-2.3-6.6-3.4c-1.9-0.9-3.8-1.6-5.8-2.3c-0.9-0.4-2-0.6-3-0.8
				c-2.6-0.4-5.2-0.3-7.7,0.5c-3,0.9-5.1,2.7-6.7,5.2c-1.2,1.7-1.8,3.7-2.3,5.7s0.2,2.7,2.3,2.7c0.3,0,0.6-0.1,0.9-0.2
				c0.1,0,0.2,0.1,0.3,0.1c0.5-0.1,0.9-0.1,1.3-0.1c0.7,0.1,1.3,0.2,2,0.3c1.1,0.3,2.2,0.7,3.3,1c0.2,0.1,0.2,0.2,0.4,0.3
				c0.1,0,0.3,0.1,0.4,0.1c0.1,0.1,0.2,0.2,0.2,0.2c0.1,0,0.2,0.1,0.3,0.1c0.1,0.2,0.2,0.2,0.2,0.4c0.1,0,0.2,0.1,0.3,0.1
				c0.8,0.5,1.3,1.3,1.6,2.3c0.2,0.5,0.3,1.2,0.2,1.7c-0.2,2.5-0.6,5-0.6,7.5c-0.2,6.9-0.1,13.9-0.1,20.8c0,5.3,0.1,10.6,0,15.8
				c0,1.6-0.2,3.2-0.2,4.8c0,0.9,0.3,1.8,0.4,2.7c0.2,1.4,1,2.1,2.2,2.7c1,0.5,2,1.2,3.2,1.2c1.7,0,3.4-0.5,4.9-1.3
				c2.7-1.5,4.8-3.4,6.6-5.8c1.6-2,2.9-4.1,3.7-6.6c0.4-1.1,0.9-2.2,1.4-3.3c0.2-0.4,0.2-0.9,0.2-1.3c-0.1-0.9-0.2-1.8-0.4-2.8
				c0.2,0.9,0.5,1.7,0.7,2.6c0.2,0.4,0.2,0.6,0.2,1c0.2,0.6,0.1,1.2-0.2,1.9c-0.5,0.9-0.7,2.1-1.1,3.1c-0.9,2.3-2.1,4.5-3.6,6.6
				c-1.6,2.3-3.6,4.4-5.9,6.1c-2.6,1.9-5.4,2.6-8.5,2.3c-1.1-0.1-2-0.5-2.8-1.2c-0.5-0.5-1.2-0.9-1.7-1.3c-0.3-0.3-0.5-0.6-0.7-1
				c-0.9-2.2-0.5-4.4-0.2-6.6c0.2-3.6,0.5-7.2,0.7-10.8c0.1-2.5,0-5.1,0-7.6c0-2.9,0.2-5.7,0.2-8.6c0.1-4.1,0-8.1,0.2-12.2
				c0.2-3.1,0.5-6.2,0.9-9.4c0-0.5,0-1-0.4-1.4c-1.2-1.4-2.5-2.7-4.4-3.1c-1.3-0.2-2.7-0.4-4.1-0.5c-1.3-0.2-2.7-0.2-4.1-0.2
				c-0.6,0-1.1-0.6-1.1-1.3c0-0.6,0.1-1.2,0.2-1.9c0.7-2.2,1.2-4.5,2.6-6.5c1.6-2.3,3.7-4,6.4-4.8c2-0.5,4.1-0.6,6.2-0.8
				c1.1-0.1,2.3,0.2,3.4,0.5c2.4,0.7,4.9,1.6,7.3,2.5c2,0.8,3.9,1.8,5.8,2.8c1.6,0.9,3.2,1.6,4.6,2.6c1.3,0.9,2.6,1.9,3.7,2.9
				c0.8,0.8,1.5,1.7,2.2,2.6c0.2,0.2,0.2,0.4,0.2,0.6c0.3,1.9,0.5,3.8-0.2,5.7c-0.9,2.1-1.5,4.3-2.3,6.4c-0.7,1.7-1.6,3.4-2.3,5.1
				c-0.7,1.4-1.4,2.9-2.1,4.2c-0.1,0.3-0.2,0.6-0.3,0.9s-0.2,0.5-0.2,0.9c-0.1,0.2-0.1,0.3-0.2,0.5c-0.5,2.4-0.3,4.8-0.2,7.2
				c0,0.1,0.2,0.1,0.2,0.2s0.1,0.2,0.1,0.2c0,0.2,0,0.3,0,0.5c0,0.1,0,0.1,0,0.1C839.4,899.9,839.3,899.9,839.3,900z"/>
			<path class="st16" d="M840.4,909.2c0-0.1,0.1-0.2,0.1-0.3l0,0c0.2,0.2,0.3,0.4,0.4,0.6c0.2,0.9,0.4,1.7,0.5,2.7
				c0.2,0.8,0.3,1.6,0.5,2.4c-0.5,1.5-0.9,3-1.5,4.4c-2.1,5.3-5.3,9.8-9.9,13.3c-2.3,1.7-5,3-8,2.9c-2.3-0.1-4.4-0.7-6.2-2.4
				c-1.9-1.9-2.3-4.1-2-6.6c0.6-5.5,1.7-10.8,1.7-16.3c0-3.1,0.1-6.2,0.2-9.4c0.1-3.9,0-7.7,0.2-11.5c0.2-4.2,0.4-8.3,0.5-12.6
				c0.1-0.9,0.2-1.9,0.4-2.8c0.1-0.7-0.1-1.2-0.5-1.6c-1.9-2.3-4.4-2.7-7.2-2.7c-1.2,0-2.3,0.1-3.4,0c-0.5,0-1.1-0.2-1.6-0.4
				c-0.7-0.3-0.5-0.9-0.5-1.5c-0.1-0.3-0.1-0.6-0.2-0.9c0-0.1,0.1-0.3,0.1-0.4c0-0.2,0.1-0.4,0.1-0.5s0.1-0.2,0.1-0.3
				c0.2-0.6,0.5-1.2,0.6-1.9c0.5-2.3,1.6-4.4,3.1-6.2c1.7-2,3.9-3.1,6.4-3.7c0.2-0.1,0.3-0.2,0.5-0.2c1.2-0.1,2.7-0.3,4-0.2
				c2.5,0.2,4.9,0.7,7.3,1.6c2.7,1,5.4,2.2,8.1,3.3c0.9,0.4,1.7,0.8,2.6,1.2c1.7,0.9,3.4,2,5.1,3c2.6,1.6,5.1,3.1,6.6,6
				c0.3,0.6,0.4,1.1,0.2,1.7c-0.1,0.3-0.2,0.5-0.3,0.8c-0.5,1.7-0.9,3.4-1.5,5.1c-0.2,0.9-0.6,1.6-1,2.4c-0.6,1.3-1.2,2.7-1.9,4.1
				c-1.1,2.2-2.2,4.2-3.4,6.2c-0.2,0.5-0.5,0.8-0.8,1.2c0.7-1.4,1.4-2.9,2.1-4.2c0.8-1.7,1.6-3.4,2.3-5.1c0.9-2.1,1.5-4.3,2.3-6.4
				c0.8-1.9,0.5-3.8,0.2-5.7c0-0.2-0.1-0.4-0.2-0.6c-0.7-0.9-1.4-1.8-2.2-2.6c-1.2-1-2.4-2-3.7-2.9c-1.5-0.9-3-1.8-4.6-2.6
				c-2-1-3.8-2-5.8-2.8c-2.4-0.9-4.8-1.7-7.3-2.5c-1-0.3-2.3-0.6-3.4-0.5c-2,0-4.1,0.2-6.2,0.8c-2.7,0.8-4.8,2.4-6.4,4.8
				c-1.3,2-2,4.2-2.6,6.5c-0.2,0.6-0.2,1.2-0.2,1.9c0,0.7,0.5,1.2,1.1,1.3c1.4,0.1,2.7,0.2,4.1,0.2c1.3,0.2,2.7,0.2,4.1,0.5
				c2,0.3,3.1,1.7,4.4,3.1c0.4,0.4,0.4,0.9,0.4,1.4c-0.3,3.1-0.7,6.2-0.9,9.4c-0.2,4.1-0.2,8.1-0.2,12.2c0,2.9-0.2,5.7-0.2,8.6
				c0,2.6,0.1,5.1,0,7.6c-0.2,3.6-0.5,7.2-0.7,10.8c-0.2,2.3-0.7,4.4,0.2,6.6c0.2,0.4,0.4,0.8,0.7,1c0.5,0.5,1.2,0.9,1.7,1.3
				c0.8,0.7,1.7,1.1,2.8,1.2c3.1,0.3,5.9-0.4,8.5-2.3c2.3-1.7,4.3-3.7,5.9-6.1c1.5-2.1,2.7-4.3,3.6-6.6c0.4-1,0.5-2.2,1.1-3.1
				c0.3-0.6,0.4-1.2,0.2-1.9c-0.1-0.4-0.2-0.7-0.2-1C840.8,910.9,840.5,910,840.4,909.2L840.4,909.2z"/>
			<path class="st20" d="M848.4,934.2c0.2,0.5,0.9,1.1,0.5,1.9c-0.2,0.3-0.3,0.6-0.4,0.9c-1,2.4-1.7,4.9-2,7.5
				c0,0.5-0.2,0.6-0.8,0.3c-0.9-0.5-1.7-1-2.6-1.4c-1.6-0.6-2.7-1.8-3.6-3.3c-0.8-1.3-1.6-2.5-3.2-2.9c-2-0.5-4.1-1.2-6.2-1.2
				c-0.2,0-0.4-0.1-0.5-0.2c0.2-0.2,0.2-0.5,0.3-0.6c0.2-0.2,0.5-0.4,0.8-0.6c1.4-1.3,2.8-2.6,4.2-3.9c0.7-0.6,1.2-1.4,2-1.6
				c2-0.5,4.2-0.5,6.1,0.1C845.7,930.4,847.4,931.9,848.4,934.2z"/>
			<path class="st20" d="M842.3,915.2c-0.5,1.8-0.8,3.6-1.7,5.2c-1,1.9-2,3.7-3,5.5c-1.6,2.6-3.7,4.9-6,6.8s-4.9,3.5-7.9,4.1
				c-4.7,1-7.7-0.9-9.8-4.8c-0.9-1.7-1.2-3.7-1-5.5c0.2-2,0.5-4.1,1-6c0.5-2.3,0.9-4.4,1-6.8c0-4.4,0.1-8.7,0.1-13.2
				c0.1-6.1,0.1-12.2,0.3-18.3c0.2-3.1,0.5-6.2,0.9-9.3c0.1-1-0.3-1.9-1.2-2.4c-1.2-0.6-2.7-0.9-4.1-0.9c-1.6-0.1-3.4,0-5.1,0.1
				c-1.8,0-2.7-1-2.3-2.6c0.1-0.3,0.2-0.5,0.2-0.9c0.1,0.3,0.2,0.6,0.2,0.9c0.1,0.5-0.1,1.2,0.5,1.5c0.5,0.2,1,0.3,1.6,0.4
				c1.2,0.1,2.3,0,3.4,0c2.7-0.1,5.3,0.4,7.2,2.7c0.4,0.5,0.6,0.9,0.5,1.6c-0.2,0.9-0.3,1.9-0.4,2.8c-0.2,4.2-0.4,8.3-0.5,12.6
				c-0.2,3.8-0.1,7.6-0.2,11.5c0,3.1-0.2,6.2-0.2,9.4c0,5.5-1.2,10.8-1.7,16.3c-0.3,2.5,0.2,4.7,2,6.6c1.7,1.8,3.8,2.4,6.2,2.4
				c3,0.1,5.7-1.1,8-2.9c4.6-3.4,7.7-8,9.9-13.3c0.5-1.5,0.9-3,1.5-4.4C842,914.8,842.2,915.1,842.3,915.2z"/>
			<path class="st20" d="M804.4,863.1c0.5-2.5,1.6-4.8,3.4-6.6c1.8-2.2,4.2-3.2,7-3.4c-0.2,0.1-0.3,0.2-0.5,0.2
				c-2.5,0.5-4.7,1.6-6.4,3.7c-1.5,1.9-2.6,3.9-3.1,6.2c-0.1,0.6-0.4,1.2-0.6,1.9C804.3,864.5,804.3,863.8,804.4,863.1z"/>
			<path class="st16" d="M840.5,908.9L840.5,908.9c-0.1-0.1-0.2-0.2-0.2-0.2c0-0.1,0-0.2,0-0.3c-0.1-0.2-0.2-0.2-0.2-0.4v-0.1
				c0-0.6-0.1-1.2-0.1-1.8C840.2,907,840.4,907.9,840.5,908.9z"/>
			<path class="st16" d="M839.4,891.2c0.1-0.3,0.2-0.5,0.2-0.9C840,890.7,839.8,891,839.4,891.2z"/>
			<path class="st20" d="M804.1,865.5c0,0.2-0.1,0.4-0.1,0.5C804,865.9,804.1,865.6,804.1,865.5z"/>
			<path class="st21" d="M714.5,869.6c0.4-0.9,0.9-1.9,1.2-2.7c0.6-1.2,1.3-2.4,2.4-3.2c2.4-1.8,4.9-3.4,7.3-5.1
				c0.7-0.5,2-0.2,2.3,0.5c0.6,1.1,1.2,2.2,1.6,3.4c0.7,2.3,1.3,4.8,1.8,7.2c0.2,1.1-0.1,2.4-1.4,3c-0.7,0.3-1.2,0.8-1.9,1.2
				c-1.5,0.9-2.9,1.8-4.4,2.5c-0.7,0.3-1.6,0.5-2.3,0.3c-1-0.2-2-0.8-3-1.2c-1.5-0.7-2.6-1.9-3.6-3.2c-0.5-0.7-0.5-1.3-0.3-2
				C714.4,869.9,714.4,869.8,714.5,869.6C714.5,869.6,714.4,869.6,714.5,869.6z"/>
			<path class="st13" d="M775.9,854.5c0.3,1.3,0.9,2.7,1.4,3.9c0.4,1.1-0.1,1.6-1.4,1.7c-1.1,0-2.2-0.2-3.2-0.5
				c-1.6-0.4-3-0.7-4.6-1c-1.2-0.2-2.3-0.5-3.4-0.8c-0.9-0.2-2-0.5-2.9-0.6c-1.2-0.2-2.4-0.4-3.6-0.2c-2.4,0.5-4.4,1.7-6.6,2.7
				c-1.4,0.6-2.7,1.3-4.4,1.2c-1.3-0.2-2.4-0.8-3.6-1.3c-1-0.5-1-1.1-0.5-2.2c0.2-0.5,0.5-0.9,0.7-1.5c0.5-0.2,1-0.4,1.6-0.6
				c1.2-0.7,2.3-1.4,3.5-2.2c0.2-0.1,0.4-0.1,0.5-0.1c-0.5,0.8-1,1.6-1.5,2.3c-0.3,0.5,0,1,0.6,1c1.6,0,3.2,0,4.8,0
				c1-0.1,2.1-0.2,3.2-0.4c1.9-0.3,3.6,0.2,5.5,0.4c2.4,0.2,4.9,0.5,7.3,0.9c1.2,0.2,2-0.8,3-1.3c0.1,0,0.1-0.1,0.1-0.1
				c-0.1-0.9-0.1-2-0.4-2.8c-0.1-0.4-0.8-0.6-1.2-0.9c-0.5-0.2-0.9-0.5-1.4-0.8c0.2-0.1,0.4-0.1,0.7-0.2c0.4,0.1,0.9,0.3,1.2,0.4
				c0.9,0.2,2,0.3,2.9,0.5C774.9,852.4,775.6,853.2,775.9,854.5z"/>
			<path class="st12" d="M839.4,899.7c0-0.2,0-0.3,0-0.5C839.4,899.4,839.4,899.6,839.4,899.7z"/>
			<path class="st11" d="M770.1,849c0.2-0.2,0.2-0.5,0.4-0.8c0.9,0,1.7-0.1,2.4-0.6c0.5-0.3,0.6-0.7,0.6-1.2c0-1.2-0.5-2.3-0.9-3.5
				c-0.2-0.5-0.3-1.2-0.5-1.7s-0.5-0.9-0.8-1.5c-0.7-1.2-1.4-2.3-2.1-3.4c-1.1-1.6-2-3.1-3.3-4.6c-0.6-0.7-1.6-1.3-2.6-1.7
				c-3-1.5-6.4-1.5-9.8-1.4c-3.5,0.1-6.8,0.9-10.1,1.8c-2.3,0.5-4.3,1.8-6.3,3c-1.3,0.9-2.7,1.7-3.9,2.7c-0.9,0.7-1.6,1.7-2.3,2.7
				c-0.5,0.6-0.1,1.8,0.9,2.4h0.1c0.2,0.5,0.5,1.2,0.7,1.8c0.5,1.2,0.8,2.3,1.3,3.4c0.5,0.9,1.1,1.7,1.7,2.6c1.6,2,3.6,3.4,5.9,4.3
				c-0.6,0.1-1.1,0.2-1.7,0.2c-0.6-0.5-1.4-0.8-2-1.2c-1.6-1.1-2.7-2.6-3.8-4.1c-0.6-0.9-1.2-1.6-1.5-2.7c-0.4-1.9-1-3.7-1.8-5.5
				c-0.9-2-0.9-2,0.7-3.4c1.3-1.2,2.7-2.3,4.2-3.2c2-1.2,4.1-2.6,6.3-3.4c5.5-2,11.2-3,17.2-2.5c2.2,0.2,4.2,0.6,6.1,1.7
				c1.6,1,2.9,2.4,3.7,4.1c0.9,1.7,1.8,3.4,2.7,5c0.6,1.1,1.1,2.1,1.6,3.2c0.2,0.5,0.4,1,0.5,1.6c0.3,1.1,0.7,2.1,0.9,3.2
				c0.2,1.3-0.4,2-1.7,2.3c-0.2,0.1-0.4,0.2-0.5,0.3c-0.6,0-1.3,0-2,0C770.2,849,770.2,849,770.1,849z"/>
			<path class="st21" d="M752.2,851.4c2-0.5,4.1-0.9,6.2-1c2.7-0.1,5.5,0,8.3,0.2c0.9,0,2-0.1,2.7,0.6c0.5,0.2,0.9,0.5,1.4,0.8
				c0.4,0.3,1.2,0.5,1.2,0.9c0.2,0.9,0.3,1.9,0.4,2.8c0,0,0,0.1-0.1,0.1c-0.9,0.5-1.8,1.5-3,1.3c-2.4-0.2-4.9-0.5-7.3-0.9
				c-1.8-0.2-3.6-0.7-5.5-0.4c-1.1,0.2-2.1,0.4-3.2,0.4c-1.6,0.1-3.3,0.1-4.8,0c-0.6,0-0.9-0.4-0.6-1c0.5-0.8,1-1.6,1.5-2.3
				C750.3,852.4,751.1,851.7,752.2,851.4z"/>
			<path class="st20" d="M766.9,849.2c-2.7,0.1-5.5,0-8.1,0.1c-1.9,0.1-3.7,0.5-5.6,0.6c-1.9,0.2-3.7,0.6-5.4,1.3
				c-0.6,0.2-1.2,0.4-1.9,0.5c0.1-0.2,0.1-0.3,0.2-0.5c0.9-0.5,1.8-1.1,2.7-1.4c1.5-0.4,2.9-0.7,4.4-0.9c2.3-0.3,4.7-0.6,7-0.8
				c2.3-0.2,4.7-0.1,7.1-0.2c1,0,2.1,0,3.1-0.1v0.1c-0.2,0.2-0.2,0.5-0.4,0.8C769,849,768,849.1,766.9,849.2z"/>
			<path class="st12" d="M743,853.3c-0.4,0.2-0.9,0.1-1.2,0c-2.3-1-4.4-2.3-5.9-4.3c-0.6-0.8-1.3-1.6-1.7-2.6
				c-0.5-1.1-0.9-2.3-1.3-3.4c-0.2-0.5-0.5-1.2-0.7-1.8c0.5,0.6,1,1.2,1.4,2c0.3,0.5,0.5,1.1,0.8,1.7c0.7,2.1,2,3.7,3.7,5.4
				c1.5,1.5,4.4,2.2,6.4,1.4c0.6-0.2,1.2-0.2,1.9-0.4c-0.1,0.2-0.1,0.3-0.2,0.5C745,852.4,743.9,852.9,743,853.3z"/>
			<path class="st22" d="M840.3,908.3c0,0.1,0,0.2,0,0.3s0.1,0.3,0.1,0.5v0.1c0.2,0.9,0.3,1.9,0.4,2.8c0.1,0.4,0,0.9-0.2,1.3
				c-0.4,1.1-1,2.2-1.4,3.3c-0.9,2.4-2.3,4.5-3.7,6.6c-1.8,2.4-4,4.3-6.6,5.8c-1.5,0.9-3.1,1.4-4.9,1.3c-1.2,0-2.1-0.8-3.2-1.2
				c-1.2-0.5-2-1.2-2.2-2.7c-0.1-0.9-0.4-1.8-0.4-2.7c0-1.6,0.2-3.2,0.2-4.8c0-5.3,0-10.6,0-15.8c0-6.9,0-13.9,0.1-20.8
				c0-2.5,0.4-5,0.6-7.5c0-0.5-0.1-1.2-0.2-1.7c-0.2-0.9-0.9-1.7-1.6-2.3v-0.1c0.2,0.2,0.5,0.2,0.8,0.4c0.1,0.1,0.2,0.2,0.2,0.2
				c0.2,0.2,0.5,0.5,0.8,0.7c0.2,0.2,0.2,0.4,0.4,0.5c0.2,0.5,0.5,0.9,0.6,1.4c-0.2,3.6-0.7,7.2-0.8,10.8c-0.1,4.5,0,9.1,0,13.5
				c0,2.6,0,5.1,0.1,7.7c0.1,3.1,0.2,6.3,0.4,9.4c0.1,1.7,0.1,3.4,0,5.1c-0.1,1.9,0.5,3.5,0.9,5.1c0,0.2,0.3,0.4,0.5,0.5
				c1.2,0.5,2.3,0.9,3.6,1.3c0.9,0.3,1.6-0.2,2.3-0.5c4.3-1.9,7.7-4.8,9.9-9c0.7-1.5,1.4-3,2.1-4.4c0.2-0.2,0.2-0.6,0.5-0.7
				c0.6-0.5,0.6-1.1,0.5-1.8c-0.5-3.3-0.9-6.6-1.3-9.9c-0.1-0.6-0.2-1.3-0.2-2c0-0.1,0.1-0.2,0.2-0.3c0,0.2,0.2,0.3,0.2,0.5
				c0.2,2.4,0.5,4.8,0.8,7.1c0.1,0.5,0.2,0.9,0.4,1.4v0.1C840.1,908.1,840.2,908.2,840.3,908.3z"/>
			<path class="st23" d="M820.3,875.4c-0.2,3.1-0.5,6.3-0.5,9.5c-0.1,4.4,0.1,8.8,0.1,13.3c0,2.6,0,5.2,0.2,7.9
				c0.1,2.3,0.2,4.7,0.4,7c0.1,1.6,0.2,3.3,0.3,5c0.2,1.1,0.4,2.3,0.5,3.4c0.2,0.9,0.3,1.7,0.5,2.7c0.1,0.4,0.2,0.6,0.8,0.7
				c1.1,0.1,2.2,0.4,3.4,0.5c0.5,0.1,1.2,0.1,1.6-0.2c1.8-1,3.6-2,5.1-3.3c2.5-1.8,4.1-4.4,5.2-7.3c0.4-0.9,0.6-1.8,1.2-2.4
				c0.9-0.7,0.5-1.6,0.5-2.3c-0.3-3-0.7-6.1-0.9-9.1c-0.1-0.9-0.1-1.8-0.1-2.7c0.1,0.2,0.2,0.3,0.4,0.5c0,0.2,0,0.3,0,0.5
				c-0.1,0.1-0.2,0.2-0.2,0.3c0.1,0.6,0.1,1.2,0.2,2c0.4,3.3,0.9,6.6,1.3,9.9c0.1,0.6,0.1,1.2-0.5,1.8c-0.2,0.2-0.4,0.5-0.5,0.7
				c-0.7,1.5-1.3,3-2.1,4.4c-2.2,4.2-5.6,7-9.9,9c-0.7,0.3-1.4,0.8-2.3,0.5c-1.2-0.4-2.4-0.9-3.6-1.3c-0.2-0.1-0.5-0.3-0.5-0.5
				c-0.4-1.7-1-3.4-0.9-5.1c0-1.7,0-3.4,0-5.1c-0.1-3.1-0.2-6.3-0.4-9.4c-0.1-2.6-0.1-5.1-0.1-7.7c-0.1-4.5-0.2-9,0-13.5
				c0.1-3.7,0.5-7.2,0.8-10.8C820.5,874.3,820.3,874.9,820.3,875.4z"/>
			<path class="st22" d="M838.4,897.4c-0.1-0.2-0.2-0.2-0.2-0.4c0-0.1,0.1-0.3,0.1-0.4c-0.1-0.2-0.2-0.2-0.2-0.4
				c0-0.1,0.1-0.3,0.1-0.4c-0.1-0.2-0.2-0.2-0.2-0.4c0-0.5,0.1-1,0.2-1.6c-0.1-0.4-0.1-0.9-0.2-1.2c0.1-0.7,0.2-1.3,0.4-2
				c0-0.1,0-0.2,0-0.3c0-0.2,0.1-0.4,0.1-0.5c0.2-0.2,0.3-0.4,0.4-0.6c0.3-0.7,0.6-1.3,0.9-2c0.1-0.2,0.1-0.4,0.1-0.5
				s0.1-0.2,0.1-0.3c0.3-0.4,0.6-0.9,0.9-1.2c0.7-1.4,1.4-2.7,1.9-4.1s0.9-3,1.2-4.4c0.2-0.6,0.2-1.2,0.3-1.9c0.5-1.8,0-3.7-0.2-5.5
				c-0.1-0.6-0.5-1.2-0.9-1.8c-0.5-0.9-1.2-1.7-1.7-2.7c-0.8-1.2-2.1-1.9-3.3-2.7c-1.2-0.9-2.4-1.6-3.7-2.3
				c-1.1-0.5-2.2-1.1-3.3-1.6c-1.2-0.5-2.4-1.1-3.7-1.6c-0.3-0.2-0.7-0.2-1-0.2c-0.1,0-0.2-0.1-0.3-0.1c-0.1-0.1-0.2-0.2-0.3-0.2
				c-1.4-0.5-2.9-1-4.4-1.3c-3-0.5-6-0.2-8.7,1.1c-2.3,1-3.9,2.8-5.1,4.9c-0.9,1.3-1.3,2.9-2,4.4c-0.1,0.1,0,0.2,0,0.2
				c0,0.1-0.1,0.3-0.1,0.4c0,0.3,0.1,0.6,0.1,0.9v0.1c0.2,0.2,0.2,0.5,0.4,0.6c0.4,0.2,0.9,0.3,1.4,0.5c0.1,0,0.2,0.1,0.3,0.1
				c0.2,0,0.5,0.2,0.6,0.2c-0.3,0.1-0.6,0.2-0.9,0.2c-2.1,0-2.8-0.8-2.3-2.7c0.5-2,1.1-4,2.3-5.7c1.6-2.5,3.7-4.4,6.7-5.2
				c2.6-0.7,5.1-0.9,7.7-0.5c1,0.2,2,0.5,3,0.8c2,0.7,3.9,1.4,5.8,2.3c2.2,1,4.4,2.1,6.6,3.4c2.3,1.2,4.4,2.7,6.2,4.5
				c0.6,0.7,1.4,1.5,1.6,2.3c0.5,1.3,0.5,2.9,0.7,4.3c0.2,2.4-0.5,4.7-1.3,6.9c-0.6,1.6-1.3,3.3-2.1,4.9c-0.4,0.9-0.9,1.9-1.3,2.7
				c-0.5,1.1-1.2,2.2-1.6,3.4c-0.6,1.9-0.8,3.9-0.7,5.9c0,1,0,2,0.1,3c-0.1-0.2-0.2-0.3-0.4-0.5
				C838.3,897.8,838.4,897.5,838.4,897.4z"/>
			<path class="st23" d="M810.1,868c1.1,0.1,2.2,0.2,3.3,0.3c0.2,0.2,0.4,0.5,0.7,0.1c0.2,0,0.5,0.2,0.6,0.2c0,0.5,0.3,0.5,0.5,0.4
				c0.1,0,0.3,0.1,0.4,0.1c0,0.1-0.1,0.3-0.1,0.4l0,0c-1.1-0.3-2.2-0.7-3.3-1c-0.7-0.2-1.3-0.2-2-0.3C810.3,868,810.2,868,810.1,868
				z"/>
			<path class="st22" d="M808.9,868.2c0.1-0.2,0.2-0.2,0.3-0.4c0.3,0.1,0.6,0,0.9,0.1c0.1,0.1,0.1,0.2,0.1,0.2
				C809.8,868.2,809.3,868.2,808.9,868.2z"/>
			<path class="st23" d="M808.7,868c-0.2,0-0.5-0.2-0.6-0.2c0-0.1,0.1-0.3,0.1-0.4c0.3,0.1,0.7,0.3,1,0.4c-0.1,0.2-0.2,0.2-0.3,0.4
				C808.8,868.2,808.7,868.2,808.7,868z"/>
			<path class="st22" d="M816.3,869.8c0.1,0,0.2,0.1,0.3,0.1c0,0.1-0.1,0.2-0.1,0.3c-0.1-0.1-0.2-0.2-0.2-0.2
				C816.3,869.8,816.3,869.8,816.3,869.8z"/>
			<path class="st23" d="M816.9,870.6c0-0.1,0.1-0.3,0.1-0.4c0.1,0.2,0.2,0.2,0.2,0.4v0.1C817.1,870.7,817,870.6,816.9,870.6z"/>
			<path class="st22" d="M816.7,870.2L816.7,870.2c0.1-0.1,0.2,0,0.3,0c0,0.1-0.1,0.3-0.1,0.4C816.8,870.5,816.8,870.4,816.7,870.2z
				"/>
			<path class="st23" d="M816,869.8L816,869.8v-0.2c0.1,0,0.2,0.1,0.3,0.1c0.1,0.1,0.1,0.2,0.1,0.2v0.1
				C816.2,869.9,816,869.8,816,869.8z"/>
			<path class="st22" d="M815.6,869.6L815.6,869.6c0.1,0,0.3,0.1,0.4,0.1v0.1C815.8,869.8,815.7,869.6,815.6,869.6z"/>
			<path class="st23" d="M816.5,870.2c0-0.1,0.1-0.2,0.1-0.3c0.1,0.1,0.2,0.2,0.2,0.2v0.1C816.7,870.2,816.6,870.2,816.5,870.2z"/>
			<path class="st19" d="M840.5,908.9c0,0.1-0.1,0.2-0.1,0.3c0-0.2-0.1-0.3-0.1-0.5C840.4,908.7,840.4,908.8,840.5,908.9z"/>
			<path class="st19" d="M840.2,908.3c-0.1-0.2-0.2-0.2-0.2-0.4C840.1,908.1,840.2,908.2,840.2,908.3z"/>
			<path class="st16" d="M731.8,841.3c-0.5-2.1,0.9-3.4,2.2-4.6c2-1.8,4.4-3.1,6.7-4.4c2.3-1.2,4.8-1.8,7.4-2.3
				c2.9-0.5,5.8-0.8,8.7-0.5c1.5,0.2,3,0.5,4.4,0.8c2.2,0.5,3.7,2,5.1,3.7c1.5,2,3,3.9,4.4,5.9c0.3,0.5,0.4,1,0.5,1.5
				c0.4,1.2,0.8,2.3,1.1,3.4c0.3,1.5,0.1,1.9-1.2,2.6c-0.2,0.1-0.5,0.3-0.6,0.5c-1,0-2.1,0-3.1,0.1c-2.3,0.1-4.8,0-7.1,0.2
				c-2.4,0.2-4.7,0.5-7,0.8c-1.5,0.2-3,0.5-4.4,0.9c-0.9,0.2-1.8,0.9-2.7,1.4c-0.6,0.1-1.3,0.2-1.9,0.4c-2,0.7-4.9,0-6.4-1.4
				c-1.6-1.5-2.9-3.3-3.7-5.4c-0.2-0.6-0.5-1.2-0.8-1.7c-0.4-0.7-0.9-1.3-1.4-2C731.9,841.3,731.9,841.3,731.8,841.3z M756.5,848.1
				c2.3-0.2,4.6-0.4,6.9-0.6c1.4-0.2,2.7-0.3,4.2-0.5c0.9-0.1,1.9,0,2.7-0.3c1.1-0.4,1.2-1.9,0.7-3c-0.4-1-0.7-2-1.1-3
				c-0.2-0.3-0.3-0.6-0.5-0.9c-1.6-1.7-3-3.4-4.5-5c-1.3-1.4-3-2.7-4.9-3.2c-2.3-0.6-4.8-0.9-7.3-0.8c-3.1,0.1-6.2,0.5-9.2,1.5
				c-1.2,0.3-2.3,1-3.3,1.6c-1.7,1.1-3.4,2.2-5,3.4c-1,0.8-1.5,1.9-1.9,3.1c-0.2,0.8,0.2,1.3,0.5,2c1,1.9,2,3.7,3.3,5.4
				c1.3,1.8,3.1,3.3,5.6,3.4c0.3,0.1,0.5-0.1,0.9-0.2c2.3-0.7,4.5-1.5,6.8-2.1c0.1-0.1,0.2-0.2,0.2-0.2
				C752.6,848.5,754.5,848.3,756.5,848.1z"/>
			<path class="st12" d="M731,838.8c0.7-0.9,1.5-2,2.3-2.7c1.2-1,2.6-2,3.9-2.7c2-1.2,4-2.4,6.3-3c3.3-0.9,6.6-1.6,10.1-1.8
				c3.3-0.1,6.6-0.1,9.8,1.4c0.9,0.4,2,1,2.6,1.7c1.2,1.5,2.3,3,3.3,4.6c0.8,1.1,1.5,2.3,2.1,3.4c0.3,0.5,0.6,0.9,0.8,1.5
				c0.2,0.5,0.3,1.2,0.5,1.7c0.4,1.2,0.9,2.2,0.9,3.5c0,0.5-0.2,0.9-0.6,1.2c-0.7,0.5-1.6,0.6-2.4,0.6v-0.1c0.2-0.2,0.4-0.4,0.6-0.5
				c1.4-0.6,1.6-1.1,1.2-2.6c-0.3-1.2-0.8-2.3-1.1-3.4c-0.2-0.5-0.2-1.1-0.5-1.5c-1.4-2-3-4-4.4-5.9c-1.3-1.8-3-3.2-5.1-3.7
				c-1.5-0.3-2.9-0.6-4.4-0.8c-2.9-0.3-5.9,0-8.7,0.5c-2.5,0.5-5.1,0.9-7.4,2.3c-2.4,1.2-4.8,2.6-6.7,4.4c-1.2,1.2-2.7,2.5-2.2,4.6
				C731,840.6,730.6,839.5,731,838.8z"/>
			<path class="st24" d="M816.2,869.4c-0.1-0.1-0.1-0.2-0.1-0.2c0.1,0,0.2,0,0.2,0c2.1,1.2,3.7,2.7,4.2,5.1c0.2,0.9-0.2,2-0.2,3.1
				c-0.2,4.3-0.3,8.6-0.4,12.8c0,1.6,0.1,3.4,0.2,5.1c0,0.9,0.2,1.8,0.2,2.7c0,2.4-0.1,4.8,0.1,7.3c0,2,0.2,4.1,0.3,6.1
				c0,0.9,0,1.8,0.1,2.7c0.2,1.1,0.2,2.3,0.5,3.4c0.2,1.4,0.6,2.9,0.9,4.2c0.1,0.2,0.5,0.6,0.7,0.7c0.6,0.2,1.4,0.2,2.1,0.4
				c1.5,0.3,3,0.2,4.2-0.8c1.7-1.3,3.5-2.6,5.1-4.1c0.9-0.9,1.4-2.2,2-3.3c0.8-1.2,1.1-2.8,2.1-4c0.3-0.4,0.2-1.2,0.2-1.8
				c-0.2-2.7-0.5-5.4-0.7-8.1c-0.2-1.8-0.2-3.7-0.2-5.5c-0.1-0.8-0.1-1.6-0.1-2.4c0-2.3,0.5-4.6,1.6-6.8c0.7-1.4,1.2-3,1.9-4.4
				c1.4-3,1.6-6.3,1.9-9.5c0.1-0.6-0.1-1.3-0.3-1.9c-0.6-1.4-1.3-2.9-2.1-4.3c-0.3-0.5-0.8-1.1-1.2-1.6c-1.2-1-2.3-2-3.6-2.9
				c-1.2-0.9-2.6-1.6-4-2.3c-2.2-1-4.3-2-6.5-2.8c-2.1-0.8-4.2-1.6-6.6-1.5c-0.2,0-0.5-0.1-0.8-0.2c0.2-0.1,0.2-0.2,0.4-0.2
				c1,0,2,0.2,3,0.2c1.7-0.1,3.1,1,4.7,1.2c0.2,0,0.3,0,0.5,0c0.1,0,0.2,0.1,0.3,0.1c0.2,0.2,0.3,0.4,0.5,0.5
				c1.4,0.6,2.8,1.1,4.2,1.7c2.7,1.2,5.1,2.8,7.6,4.5c1.8,1.4,2.9,3.2,4,5c1.4,2.3,1.2,4.9,0.8,7.4c-0.3,1.8-0.7,3.6-1.2,5.3
				c-0.5,1.6-1.3,3.1-2,4.7c-0.2,0.3-0.2,0.6-0.4,0.9c0,0.1-0.1,0.2-0.1,0.3c-0.7,0.9-1.2,2-1.3,3.1c0,0.2-0.1,0.4-0.1,0.5
				s0,0.2,0,0.3c-0.1,0.7-0.2,1.3-0.4,2c0.1,0.4,0.1,0.9,0.2,1.2c0,0.5-0.1,1-0.2,1.6c0.1,0.2,0.2,0.2,0.2,0.4
				c0,0.1-0.1,0.3-0.1,0.4c0.1,0.2,0.2,0.2,0.2,0.4c0,0.1-0.1,0.3-0.1,0.4c0.1,0.2,0.2,0.2,0.2,0.4c0,0.2-0.1,0.5-0.1,0.7
				c0,0.9,0,1.8,0.1,2.7c0.3,3,0.7,6.1,0.9,9.1c0.1,0.8,0.3,1.6-0.5,2.3c-0.6,0.6-0.9,1.6-1.2,2.4c-1.2,2.8-2.7,5.5-5.2,7.3
				c-1.6,1.2-3.4,2.3-5.1,3.3c-0.5,0.2-1,0.2-1.6,0.2c-1.1-0.1-2.2-0.4-3.4-0.5c-0.5-0.1-0.6-0.2-0.8-0.7c-0.2-0.9-0.4-1.7-0.5-2.7
				c-0.2-1.2-0.4-2.2-0.5-3.4c-0.2-1.6-0.2-3.4-0.3-5c-0.1-2.3-0.2-4.7-0.4-7c-0.1-2.6-0.2-5.2-0.2-7.9c0-4.4-0.2-8.9-0.1-13.3
				c0.1-3.2,0.4-6.3,0.5-9.5c0.1-0.5,0.2-1.1-0.3-1.4c-0.2-0.5-0.5-0.9-0.6-1.4c-0.2-0.2-0.2-0.4-0.4-0.5c-0.2-0.2-0.5-0.5-0.8-0.7
				c-0.1-0.1-0.2-0.2-0.2-0.2c-0.2-0.2-0.5-0.2-0.8-0.4c-0.1-0.2-0.2-0.2-0.2-0.4c-0.1,0-0.2-0.1-0.3-0.1c-0.1-0.1-0.2-0.2-0.2-0.2
				C816.6,869.8,816.4,869.8,816.2,869.4z"/>
			<path class="st23" d="M818.9,871.9c0.2,0.2,0.2,0.4,0.4,0.5C819.2,872.3,819,872.1,818.9,871.9z"/>
			<path class="st23" d="M818,871c0.1,0.1,0.2,0.2,0.2,0.2C818.1,871.2,818.1,871.1,818,871z"/>
			<path class="st23" d="M827.7,856.7c1.2,0.5,2.4,1.1,3.7,1.6c1.1,0.5,2.2,0.9,3.3,1.6c1.2,0.7,2.5,1.5,3.7,2.3s2.5,1.4,3.3,2.7
				c0.5,0.9,1.2,1.7,1.7,2.7c0.4,0.5,0.9,1.2,0.9,1.8c0.2,1.8,0.7,3.7,0.2,5.5c-0.2,0.6-0.2,1.2-0.3,1.9c-0.4,1.4-0.7,3-1.2,4.4
				s-1.2,2.8-1.9,4.1c-0.2,0.5-0.6,0.9-0.9,1.2c0.2-0.3,0.2-0.6,0.4-0.9c0.7-1.5,1.5-3,2-4.7s0.9-3.5,1.2-5.3
				c0.5-2.5,0.6-5.1-0.8-7.4c-1.2-1.9-2.2-3.7-4-5c-2.4-1.7-4.8-3.4-7.6-4.5c-1.4-0.7-2.8-1.2-4.2-1.7c-0.2-0.1-0.4-0.3-0.5-0.5
				C827,856.5,827.3,856.5,827.7,856.7z"/>
			<path class="st23" d="M817.1,855.2c-0.2,0.1-0.5,0.1-0.8,0.2h-0.1c-0.1,0-0.2,0-0.3,0c-0.4,0.1-0.8,0.2-1.2,0.3
				c-0.6,0.2-1.3,0.3-1.9,0.6c-2.1,1.2-3.7,2.8-5,4.8c-0.6,1.1-1,2.3-1.6,3.4c-0.1,0.3-0.2,0.5-0.4,0.7c0-0.1,0-0.2,0-0.2
				c0.6-1.5,1.2-3,2-4.4c1.2-2.1,2.9-3.9,5.1-4.9c2.8-1.2,5.8-1.6,8.7-1.1c1.5,0.3,3,0.9,4.4,1.3c0.1,0,0.2,0.2,0.3,0.2
				c-0.2,0-0.3,0-0.5,0c-1.6-0.2-3-1.3-4.7-1.2c-1,0.1-2-0.2-3-0.2c-0.1,0-0.2,0.1-0.4,0.2C817.7,855.1,817.4,855.2,817.1,855.2z"/>
			<path class="st24" d="M814.1,856.1c-2.8,1.3-4.8,3.4-6.2,6c-0.5,0.9-0.9,2-1.2,3c-0.3,1,0.1,1.7,1.1,2.1c0.2,0.1,0.3,0.1,0.5,0.2
				c0,0.1-0.1,0.3-0.1,0.4c-0.1,0-0.2-0.1-0.3-0.1c-0.2-0.1-0.3-0.2-0.5-0.3c-0.5-0.2-0.9-0.5-1.3-0.8v-0.1c0-0.3-0.1-0.6-0.1-0.9
				c0-0.1,0.1-0.3,0.1-0.4c0.2-0.2,0.3-0.5,0.4-0.7c0.5-1.2,0.9-2.3,1.6-3.4c1.2-2.1,2.9-3.7,5-4.8c0.5-0.3,1.2-0.5,1.9-0.6
				C814.6,855.9,814.4,856,814.1,856.1z"/>
			<path class="st23" d="M840,887.2c-0.3,0.7-0.6,1.3-0.9,2c-0.1,0.2-0.2,0.4-0.4,0.6c0.1-1.2,0.6-2.2,1.3-3.1
				C840,886.8,840,887,840,887.2z"/>
			<path class="st23" d="M806.3,867.3c-0.2-0.1-0.3-0.4-0.4-0.6c0.5,0.2,0.9,0.5,1.3,0.8c0.2,0.1,0.3,0.2,0.5,0.3
				C807.2,867.7,806.7,867.6,806.3,867.3z"/>
			<path class="st23" d="M838.3,893.9c-0.1-0.4-0.1-0.9-0.2-1.2C838.3,893.1,838.3,893.5,838.3,893.9z"/>
			<path class="st23" d="M805.9,865.7c0,0.3,0.1,0.6,0.1,0.9C806,866.2,805.9,866,805.9,865.7z"/>
			<path class="st23" d="M838.3,895.8c-0.1-0.2-0.2-0.2-0.2-0.4C838.3,895.6,838.3,895.7,838.3,895.8z"/>
			<path class="st23" d="M838.4,896.6c-0.1-0.2-0.2-0.2-0.2-0.4C838.3,896.4,838.3,896.4,838.4,896.6z"/>
			<path class="st23" d="M838.7,890.7c0-0.1,0-0.2,0-0.3C838.6,890.4,838.7,890.6,838.7,890.7z"/>
			<path class="st23" d="M838.4,897.3c-0.1-0.2-0.2-0.2-0.2-0.4C838.3,897.1,838.4,897.1,838.4,897.3z"/>
			<path class="st25" d="M815.6,855.4c0.1,0,0.2,0,0.3,0h0.1c0.2-0.1,0.5-0.1,0.8-0.2c0.2-0.1,0.5-0.1,0.8-0.2
				c0.3,0.1,0.5,0.2,0.8,0.2c2.3-0.1,4.4,0.7,6.6,1.5c2.3,0.8,4.4,1.8,6.5,2.8c1.4,0.7,2.7,1.5,4,2.3c1.2,0.9,2.4,1.9,3.6,2.9
				c0.5,0.4,0.9,0.9,1.2,1.6c0.8,1.4,1.5,2.8,2.1,4.3c0.2,0.5,0.4,1.2,0.3,1.9c-0.2,3.3-0.5,6.5-1.9,9.5c-0.7,1.5-1.1,3-1.9,4.4
				c-1.1,2.2-1.6,4.4-1.6,6.8c0,0.8,0.1,1.6,0.1,2.4c0.1,1.9,0.2,3.7,0.2,5.5c0.2,2.7,0.5,5.4,0.7,8.1c0.1,0.6,0.2,1.4-0.2,1.8
				c-1,1.2-1.3,2.7-2.1,4c-0.7,1.1-1.2,2.4-2,3.3c-1.6,1.5-3.4,2.7-5.1,4.1c-1.2,0.9-2.7,1.2-4.2,0.8c-0.7-0.2-1.4-0.2-2.1-0.4
				c-0.3-0.1-0.6-0.4-0.7-0.7c-0.4-1.4-0.7-2.8-0.9-4.2c-0.2-1.2-0.3-2.3-0.5-3.4c-0.1-0.9-0.1-1.8-0.1-2.7c-0.1-2-0.3-4.1-0.3-6.1
				c0-2.4,0-4.8-0.1-7.3c0-0.9-0.2-1.8-0.2-2.7c-0.1-1.7-0.2-3.4-0.2-5.1c0.1-4.3,0.2-8.6,0.4-12.8c0.1-1,0.4-2.1,0.2-3.1
				c-0.5-2.4-2.1-4-4.2-5.1c-0.1-0.1-0.2,0-0.2,0c-0.1,0-0.2-0.1-0.3-0.1c-0.1-0.2-0.2-0.2-0.3-0.4c-0.1,0-0.3-0.1-0.4-0.1
				c-0.2-0.2-0.4-0.2-0.5-0.4c-0.2,0-0.5-0.2-0.6-0.2h-0.1c0-0.1,0.1-0.3,0.1-0.4c0.5,0.2,0.9,0.3,1.3,0.5c0.2,0.1,0.2,0.2,0.4,0.3
				c0.1,0,0.3,0.1,0.4,0.1c0.2,0.1,0.2,0.2,0.4,0.3c0.1,0,0.3,0.1,0.4,0.1c0.1,0.2,0.2,0.2,0.2,0.4c0.1,0,0.2,0,0.3,0
				c0.1,0,0.2,0.1,0.3,0.1c0.2,0.1,0.2,0.2,0.4,0.3c0.1,0.2,0.2,0.2,0.2,0.4c0.2,0,0.5,0.2,0.6,0.2c0.2,0.1,0.2,0.2,0.4,0.3
				c0.1,0.2,0.2,0.2,0.3,0.4c0.2,0.3,0.5,0.6,0.7,0.9c0.1,0.2,0.2,0.2,0.3,0.4c0,0.2,0.1,0.4,0.2,0.5c0.9,1,0.8,2.3,0.7,3.4
				c-0.2,2.3-0.4,4.6-0.5,6.9c-0.3,5.3,0.2,10.6,0.3,15.9c0.2,4,0.5,8.1,0.6,12.1c0.1,2.4,1,4.7,1.6,7c0,0.2,0.1,0.4,0.2,0.6
				c0.3,1,0.4,1.1,1.4,1.2c1.2,0.1,2.3,0.3,3.4,0.3c0.4,0.1,0.9-0.1,1.3-0.3c2.3-1.4,4.3-3,5.9-5.1c0.8-1.2,1.4-2.4,2-3.6
				c0.1-0.1,0.1-0.3,0.2-0.4c1-1,0.8-2.3,0.8-3.4c-0.2-2.6-0.5-5.1-0.5-7.6c-0.1-3.7-0.5-7.3,0.2-10.8c0.2-1.2,0.8-2.3,1.2-3.4
				c0-0.1,0.2-0.2,0.2-0.3c0.5-1.2,0.9-2.4,1.5-3.7c0.9-2,1-4.3,1.2-6.5c0.1-0.6,0.2-1.3,0.2-2c-0.1-0.8-0.1-1.7-0.4-2.4
				c-0.5-1.3-1.2-2.6-1.7-3.8c-0.3-0.7-0.8-1.2-1.4-1.8c-1.2-1-2.3-2.1-3.6-3c-1.1-0.8-2.3-1.4-3.4-2c-3.2-1.6-6.4-3-9.8-4
				c-2.7-0.9-5.5-0.7-8.2,0.9c-2.1,1.2-3.7,2.8-5,4.8c-0.6,1.1-1.1,2.3-1.6,3.6c-0.3,0.9,0.6,1.8,1.7,2c0.7,0.1,1.4,0.2,2.1,0.2
				c0.1-0.1,0.2-0.2,0.2-0.2c0.1,0,0.2,0.1,0.3,0.1c0.2,0,0.4,0.1,0.5,0.1s0.2,0.1,0.3,0.1s0.3,0,0.5,0c0.1,0,0.3,0.1,0.4,0.1
				c0.1,0.2,0.2,0.2,0.3,0.4v0.1c-1.1-0.1-2.2-0.2-3.3-0.3c-0.3-0.1-0.6,0-0.9-0.1s-0.7-0.3-1-0.4c-0.2-0.1-0.3-0.1-0.5-0.2
				c-1-0.4-1.5-1.1-1.1-2.1s0.7-2.1,1.2-3c1.5-2.7,3.4-4.8,6.2-6c0.2-0.2,0.5-0.3,0.6-0.5C815.2,855.6,815.6,855.5,815.6,855.4z"/>
			<path class="st24" d="M814.8,868.7c0.2,0.2,0.4,0.2,0.5,0.4C815,869.1,814.7,869.1,814.8,868.7z"/>
			<path class="st24" d="M814,868.4L814,868.4c-0.2,0.4-0.4,0.2-0.6-0.1v-0.1C813.6,868.3,813.8,868.3,814,868.4z"/>
			<path class="st24" d="M816,869.7c-0.1,0-0.3-0.1-0.4-0.1c0-0.1,0.1-0.3,0.1-0.4C815.7,869.4,815.8,869.4,816,869.7
				C816,869.6,816,869.7,816,869.7z"/>
			<path class="st22" d="M747,849.2c-1.4,0.2-2.8,0.5-4.3,0.6c-0.3,0-0.7-0.1-1-0.2c-1.2-0.5-2.4-1.2-3.2-2.3
				c-0.2-0.3-0.5-0.6-0.9-1c-0.9-1.1-1.2-2.3-1.5-3.7c-0.1-0.5-0.1-0.9-0.2-1.3c-0.3-1.8,0.1-3.2,1.7-4.2c1.8-1.1,3.5-2.3,5.4-3.4
				s4-1.2,6.1-1.5c1.8-0.2,3.7-0.4,5.5-0.2c1.2,0.1,2.3,0.5,3.4,0.9c1,0.3,1.9,0.9,2.9,1.3c1.9,0.9,3.4,2.2,4.9,3.7
				c0.5,0.5,1,0.9,1.4,1.4c0.3,0.4,0.6,0.9,0.9,1.4c0.4,0.9,0.6,1.8,1,2.7c0.4,1,0.1,2.2-0.9,2.7c-0.3,0.2-1,0.2-0.7,0.9
				c-1.4,0.2-2.8,0.4-4.2,0.5c-2.3,0.2-4.6,0.4-6.9,0.6c-2,0.2-3.9,0.4-5.8,0.5C749.4,848.9,748.2,848.9,747,849.2z M750.9,847.8
				c2.8-0.3,5.6-0.7,8.5-1c1.6-0.2,3-0.4,4.5-0.5c0.4-0.1,0.7-0.3,1-0.4c0.8,0.2,1.3-0.2,1.7-0.9c0.3-0.5,0.7-1.1,0.2-1.8
				c-0.3-0.5-0.5-1.2-0.8-1.9c-0.4-1.7-1.6-2.8-3.1-3.6c-1.5-0.7-2.8-1.5-4.2-2.2c-1.7-0.9-3.4-1.5-5.3-1.5s-3.9,0-5.9,0
				c-1.7,0-3.3,0.8-4.6,1.9c-1.1,0.9-2.1,1.8-3,2.7c-0.3,0.3-0.5,0.7-0.5,1.1c-0.1,1.4,0,3,0,4.4c0,0.2,0.1,0.5,0.2,0.6
				c0.7,0.9,1.5,1.8,2.3,2.5c0.5,0.4,1.3,0.5,2.1,0.7c1,0.1,2,0.1,3,0.1c0.2,0,0.5-0.2,0.7-0.2C748.8,847.8,749.9,847.9,750.9,847.8
				z"/>
			<path class="st19" d="M750.3,848.9c-2.3,0.7-4.5,1.5-6.8,2.1c-0.2,0.1-0.5,0.2-0.9,0.2c-2.5-0.2-4.2-1.6-5.6-3.4
				c-1.2-1.7-2.3-3.6-3.3-5.4c-0.3-0.5-0.7-1.2-0.5-2c0.4-1.2,0.9-2.3,1.9-3.1c1.6-1.2,3.3-2.4,5-3.4c1-0.6,2.1-1.2,3.3-1.6
				c3-1,6.1-1.5,9.2-1.5c2.4-0.1,4.9,0.2,7.3,0.8c2,0.5,3.5,1.7,4.9,3.2c1.6,1.7,3,3.4,4.5,5c0.2,0.2,0.4,0.5,0.5,0.9
				c0.4,1,0.8,2,1.1,3c0.5,1.2,0.5,2.7-0.7,3c-0.9,0.3-1.8,0.2-2.7,0.3c-0.2-0.7,0.4-0.7,0.7-0.9c0.9-0.6,1.3-1.8,0.9-2.7
				c-0.4-0.9-0.6-1.8-1-2.7c-0.2-0.5-0.5-1-0.9-1.4c-0.5-0.5-0.9-0.9-1.4-1.4c-1.5-1.4-3-2.7-4.9-3.7c-0.9-0.4-1.9-1-2.9-1.3
				c-1.1-0.4-2.3-0.8-3.4-0.9c-1.9-0.1-3.7,0.1-5.5,0.2c-2,0.2-4.2,0.4-6.1,1.5c-1.8,1-3.6,2.3-5.4,3.4c-1.6,1-2,2.5-1.7,4.2
				c0.1,0.4,0.1,0.9,0.2,1.3c0.2,1.3,0.6,2.6,1.5,3.7c0.3,0.3,0.6,0.6,0.9,1c0.8,1.2,2,1.9,3.2,2.3c0.3,0.2,0.7,0.3,1,0.2
				c1.4-0.2,2.8-0.5,4.3-0.6c1.2-0.2,2.4-0.2,3.7-0.4C750.6,848.8,750.5,848.9,750.3,848.9z"/>
			<path class="st24" d="M817.1,855.2c-0.2,0.1-0.5,0.1-0.8,0.2C816.6,855.3,816.9,855.2,817.1,855.2z"/>
			<path class="st24" d="M816.2,855.3c-0.1,0-0.2,0-0.3,0C816,855.4,816.1,855.3,816.2,855.3z"/>
			<path class="st26" d="M820.2,871.6L820.2,871.6c1,0.7,1.6,1.7,2,2.8c0.5,1.3,0.2,2.6,0.2,3.9c-0.4,4.8-0.5,9.4-0.2,14.2
				c0.2,3.1,0.3,6.2,0.5,9.3c0.2,3.4,0.8,6.7,1.8,9.9c0.2,0.5,0.4,1.1,0.6,1.6c0.2,0.2,0.5,0.5,0.7,0.5c1.4,0.1,2.8,0.2,4.2,0.3
				c0.5,0.1,0.8-0.1,1.1-0.5c1.3-1.5,2.7-3,4-4.4c0.2-0.1,0.2-0.2,0.4-0.3c1-0.4,1.2-1.3,1.2-2.3c0-2.6-0.2-5.1-0.1-7.7
				c0.1-3.4,0.2-6.7,0.3-10c0.2-1.6,0.5-3,1.3-4.4c0.4-0.8,0.5-1.8,0.9-2.7c0.4-1.2,0.9-2.5,1.2-3.7c0.1-0.3,0.2-0.5,0.1-0.9
				c-0.5-2.7-0.9-5.5-1.5-8.3c-0.1-0.3-0.3-0.6-0.5-0.9c-1.3-1.3-2.7-2.8-4.2-4.1c-1.1-0.9-2.4-1.6-3.7-2.3
				c-1.4-0.8-2.9-1.6-4.4-2.2c-1.2-0.6-2.7-0.9-3.9-1.5c-1.6-0.8-3.3-0.9-5-0.6c-0.7,0.1-1.3,0.5-2,0.9c-1.2,0.7-2.3,1.4-3.4,2.3
				s-2,1.9-2.3,3.3c-0.1,0.3-0.2,0.6-0.4,1c-0.5,1.4-0.3,1.8,1,2.3c-0.5,0.5-1.1,0.1-1.6-0.2c-0.5-0.2-0.9-0.8-0.6-1.4
				c0.9-3,2.5-5.4,5.2-7c0.8-0.4,1.6-0.8,2.3-1.2c1.4-0.9,2.9-0.9,4.4-0.7c0.8,0.1,1.6,0.2,2.3,0.5c2.2,0.9,4.4,1.6,6.5,2.6
				c3.4,1.5,6.5,3.4,9.2,6.1c1.3,1.2,2.3,2.7,2.7,4.3c0.6,2,1,4.1,0.9,6.4c-0.2,3.1-1.2,6-2.6,8.7c-1.7,3.6-1.7,7.3-1.6,11.1
				c0,4,0.2,8,0.4,12c0.1,1.4-0.6,2.5-1.5,3.5c-1.2,1.4-2.3,2.7-3.6,4c-0.7,0.7-1.5,1.2-2.3,1.9c-0.2,0.2-0.5,0.2-0.8,0.2
				c-1.6-0.1-3-0.2-4.6-0.3c-0.5,0-0.5-0.5-0.7-0.8c-0.4-1.4-0.8-2.9-1.2-4.3c-0.9-2.7-0.8-5.5-0.9-8.2c-0.2-3.6-0.3-7.3-0.5-10.8
				c-0.2-4.1-0.2-8.3,0.1-12.3c0.2-1.6,0.3-3.3,0.4-4.9c0-1.3-0.4-2.6-1.4-3.4c-0.1-0.2-0.2-0.2-0.3-0.4
				C820,871.9,820.1,871.9,820.2,871.6z"/>
			<path class="st27" d="M819,870.9c-0.2-0.1-0.2-0.2-0.4-0.3c-0.2-0.2-0.3-0.4-0.5-0.6c-0.1,0-0.2-0.1-0.3-0.1
				c-0.1,0-0.3-0.1-0.4-0.1s-0.2-0.1-0.3-0.1c-0.1-0.2,0-0.3-0.1-0.3c-1-0.5-1.8-1.4-3-1.5c-0.3-0.1-0.6-0.2-0.9-0.3
				c-0.2,0-0.3,0-0.5,0c-0.1,0-0.3-0.1-0.4-0.1c-0.2,0-0.3,0-0.5,0c-0.1,0-0.3-0.1-0.4-0.1c-0.4-0.1-0.8-0.1-1.2-0.1
				c-0.2-0.1-0.3-0.1-0.5-0.2c-1.3-0.5-1.6-0.9-1-2.3c0.2-0.3,0.2-0.6,0.4-1c0.4-1.4,1.2-2.5,2.3-3.3c1.1-0.8,2.3-1.6,3.4-2.3
				c0.6-0.4,1.2-0.7,2-0.9c1.7-0.2,3.4-0.2,5,0.6c1.2,0.6,2.6,0.9,3.9,1.5c1.5,0.7,3,1.4,4.4,2.2c1.2,0.7,2.6,1.4,3.7,2.3
				c1.5,1.2,2.8,2.7,4.2,4.1c0.2,0.2,0.5,0.5,0.5,0.9c0.5,2.7,1,5.5,1.5,8.3c0.1,0.2,0,0.5-0.1,0.9c-0.4,1.2-0.8,2.5-1.2,3.7
				c-0.2,0.9-0.4,1.9-0.9,2.7c-0.7,1.4-1.2,2.9-1.3,4.4c-0.2,3.4-0.2,6.6-0.3,10c-0.1,2.6,0.1,5.1,0.1,7.7c0,1-0.2,1.8-1.2,2.3
				c-0.2,0.1-0.2,0.2-0.4,0.3c-1.3,1.5-2.7,3-4,4.4c-0.3,0.3-0.6,0.5-1.1,0.5c-1.4-0.1-2.8-0.2-4.2-0.3c-0.3-0.1-0.6-0.2-0.7-0.5
				c-0.2-0.5-0.4-1.1-0.6-1.6c-1-3.2-1.6-6.6-1.8-9.9c-0.2-3.1-0.2-6.2-0.5-9.3c-0.3-4.8-0.2-9.4,0.2-14.2c0.1-1.3,0.3-2.6-0.2-3.9
				c-0.5-1.1-1-2.1-2-2.8C819.7,871.4,819.4,871.1,819,870.9z M817.1,868.7c0.1,0,0.2,0.1,0.3,0.1c0.1,0.2,0.2,0.2,0.2,0.4
				c0.1,0,0.3,0.1,0.4,0.1c0.2,0.1,0.3,0.1,0.5,0.2c0.1,0,0.2,0.1,0.3,0.1c0.1,0.2,0.2,0.2,0.2,0.4c0.1,0,0.3,0.1,0.4,0.1
				c0.1,0.2,0.2,0.5,0.4,0.5c1.4,1.1,2.4,2.4,3.1,4c0.5,1.1,0.3,2.3,0.3,3.5c-0.2,4.2-0.4,8.3-0.4,12.6c0,2.8,0.2,5.6,0.5,8.3
				c0.3,2.7,0.9,5.5,1.5,8.3c0.2,0.9,0.3,1.6,0.5,2.4c0.2,0.9,0.3,0.9,1.2,0.8c1.3-0.2,2.6-0.4,4-0.5c0.6-0.1,1-0.3,1.4-0.7
				c0.8-0.9,1.7-1.6,2.3-2.5c0.5-0.6,0.7-1.5,0.7-2.2c0.2-3.1,0.4-6.2,0.5-9.4c0.2-2.7,0.4-5.4,0.6-8c0.2-1,0.6-2,0.9-3
				c0.4-1.2,0.8-2.6,1.1-3.9c0.2-0.5,0.2-1.1,0.3-1.7c0.5-1.9,0.1-3.7-0.3-5.6c-0.1-0.5-0.2-1.1-0.3-1.6c-0.2-1.8-1.6-2.9-2.5-4.2
				c-1.7-2.6-4.3-4-7-5.3c-2.4-1.1-4.9-2.2-7.3-3.3c-1.2-0.5-2.3-0.2-3.5-0.2c-1.4-0.2-2.3,0.8-3.4,1.5c-0.9,0.6-1.9,1.2-2.7,2
				c-0.6,0.6-1.1,1.4-1.6,2.1c-0.2,0.2-0.2,0.6-0.5,0.9c-0.3,0.5-0.3,0.9,0.2,1.2c0.9,0.4,1.9,0.8,2.9,1.2c0.1,0,0.2-0.2,0.2-0.2
				c0.1,0,0.3,0.1,0.4,0.1c0.2,0,0.4,0.1,0.5,0.1c0.9,0.4,1.9,0.8,2.7,1.2C816.7,868.4,816.9,868.5,817.1,868.7z"/>
			<path class="st28" d="M811.4,867.4c-0.1,0.1-0.2,0.2-0.2,0.2c-0.7-0.1-1.4-0.1-2.1-0.2c-1.2-0.1-2-1.1-1.7-2
				c0.4-1.2,0.9-2.5,1.6-3.6c1.2-2,2.9-3.6,5-4.8c2.7-1.5,5.4-1.6,8.2-0.9c3.4,1,6.6,2.4,9.8,4c1.2,0.5,2.3,1.2,3.4,2
				c1.2,0.9,2.4,2,3.6,3c0.6,0.5,1.1,1,1.4,1.8c0.5,1.3,1.2,2.5,1.7,3.8c0.2,0.7,0.3,1.6,0.4,2.4c0,0.6-0.1,1.2-0.2,2
				c-0.2,2.2-0.3,4.4-1.2,6.5c-0.5,1.2-1,2.4-1.5,3.7c0,0.1-0.2,0.2-0.2,0.3c-0.5,1.2-1,2.2-1.2,3.4c-0.7,3.6-0.3,7.3-0.2,10.8
				c0.1,2.6,0.4,5.1,0.5,7.6c0.1,1.2,0.2,2.5-0.8,3.4c-0.2,0.1-0.1,0.3-0.2,0.4c-0.7,1.2-1.2,2.5-2,3.6c-1.6,2.1-3.6,3.8-5.9,5.1
				c-0.3,0.2-0.9,0.3-1.3,0.3c-1.2-0.1-2.3-0.2-3.4-0.3c-1.1-0.1-1.1-0.2-1.4-1.2c0-0.2-0.1-0.4-0.2-0.6c-0.5-2.3-1.5-4.5-1.6-7
				c-0.2-4.1-0.5-8-0.6-12.1c-0.2-5.3-0.6-10.5-0.3-15.9c0.2-2.3,0.4-4.6,0.5-6.9c0.2-1.2,0.2-2.4-0.7-3.4c-0.1-0.2-0.2-0.3-0.2-0.5
				c1.1,0.9,1.5,2.1,1.4,3.4c-0.1,1.6-0.2,3.3-0.4,4.9c-0.3,4.1-0.3,8.2-0.1,12.3c0.2,3.6,0.3,7.3,0.5,10.8c0.2,2.7,0.1,5.5,0.9,8.2
				c0.5,1.4,0.9,2.8,1.2,4.3c0.2,0.3,0.1,0.8,0.7,0.8c1.6,0.1,3,0.2,4.6,0.3c0.3,0,0.6-0.1,0.8-0.2c0.8-0.6,1.6-1.2,2.3-1.9
				c1.2-1.3,2.5-2.7,3.6-4c0.8-1,1.6-2.1,1.5-3.5c-0.2-4-0.3-8-0.4-12c-0.1-3.7-0.1-7.5,1.6-11.1c1.2-2.7,2.3-5.6,2.6-8.7
				c0.2-2.2-0.2-4.3-0.9-6.4c-0.5-1.6-1.5-3-2.7-4.3c-2.7-2.6-5.8-4.6-9.2-6.1c-2.1-0.9-4.3-1.7-6.5-2.6c-0.7-0.2-1.5-0.4-2.3-0.5
				c-1.6-0.2-3-0.2-4.4,0.7c-0.8,0.5-1.5,0.9-2.3,1.2c-2.8,1.6-4.3,4.1-5.2,7c-0.2,0.6,0.1,1.2,0.6,1.4c0.4,0.2,0.9,0.7,1.6,0.2
				c0.2,0.1,0.3,0.1,0.5,0.2C810.7,867.2,811,867.3,811.4,867.4z"/>
			<path class="st26" d="M817.1,869.6c-0.1-0.2-0.2-0.2-0.2-0.4c-0.1,0-0.3-0.1-0.4-0.1c-0.2-0.1-0.2-0.2-0.4-0.3
				c-0.1,0-0.3-0.1-0.4-0.1c-0.2-0.1-0.2-0.2-0.4-0.3c-0.5-0.2-0.9-0.3-1.3-0.5v-0.1c1.2,0,2,1,3,1.5
				C817.2,869.4,817.1,869.5,817.1,869.6C817.2,869.6,817.1,869.6,817.1,869.6z"/>
			<path class="st28" d="M813.9,868.4c-0.2-0.1-0.3-0.1-0.5-0.2c-0.1-0.2-0.2-0.2-0.3-0.4c0-0.1,0.1-0.2,0.1-0.3
				c0.3,0.1,0.6,0.2,0.9,0.3v0.1C814,868.1,814,868.3,813.9,868.4z"/>
			<path class="st26" d="M820,871.8c-0.2-0.2-0.5-0.4-0.7-0.5c-0.1-0.2-0.2-0.2-0.3-0.4C819.4,871.2,819.7,871.4,820,871.8
				L820,871.8z"/>
			<path class="st26" d="M811.7,867.2c0,0.1-0.1,0.2-0.1,0.3c-0.1,0-0.2-0.1-0.3-0.1c-0.3-0.1-0.5-0.2-0.8-0.3
				C810.8,867.1,811.2,867.2,811.7,867.2z"/>
			<path class="st28" d="M820.1,872.1c-0.2-0.3-0.5-0.6-0.7-0.9c0.2,0.2,0.5,0.4,0.7,0.5C820.1,871.9,820,871.9,820.1,872.1z"/>
			<path class="st28" d="M812,867.3c0.1,0.1,0.1,0.2,0.1,0.2c-0.2,0-0.4-0.1-0.5-0.1c0-0.1,0.1-0.2,0.1-0.3
				C811.7,867.3,811.8,867.3,812,867.3z"/>
			<path class="st26" d="M818.1,870.3c0-0.1,0.1-0.3,0.1-0.4c0.2,0.2,0.3,0.4,0.5,0.6C818.5,870.5,818.3,870.3,818.1,870.3z"/>
			<path class="st28" d="M812.8,867.7c-0.2,0-0.3,0-0.5,0c0-0.1,0.1-0.2,0.1-0.3c0.1,0,0.3,0.1,0.4,0.1
				C812.8,867.6,812.8,867.6,812.8,867.7z"/>
			<path class="st26" d="M817.9,870c-0.2-0.1-0.2-0.2-0.4-0.3c0.1,0,0.3,0.1,0.4,0.1C817.9,869.8,817.9,869.9,817.9,870z"/>
			<path class="st28" d="M816,868.8c0.2,0.1,0.2,0.2,0.4,0.3C816.3,869,816.2,868.9,816,868.8z"/>
			<path class="st26" d="M812.1,867.5c-0.1-0.1-0.1-0.2-0.1-0.2c0.2,0,0.3,0,0.5,0c0,0.1-0.1,0.2-0.1,0.3
				C812.3,867.6,812.1,867.6,812.1,867.5z"/>
			<path class="st28" d="M815.4,868.4c0.2,0.1,0.2,0.2,0.4,0.3C815.6,868.6,815.5,868.5,815.4,868.4z"/>
			<path class="st26" d="M813.3,867.4c0,0.1-0.1,0.2-0.1,0.3c-0.1,0-0.3-0.1-0.4-0.1v-0.1C813,867.5,813.1,867.5,813.3,867.4z"/>
			<path class="st28" d="M818.2,869.9c0,0.1-0.1,0.3-0.1,0.4c-0.1-0.2-0.2-0.2-0.2-0.4v-0.1C818.1,869.8,818.1,869.8,818.2,869.9z"
				/>
			<path class="st28" d="M816.8,869.3c0.1,0.2,0.2,0.2,0.2,0.4C817,869.5,816.9,869.4,816.8,869.3z"/>
			<path class="st24" d="M746.3,847.4c-1-0.2-2.1-0.2-3-0.7c-0.7-0.3-1.2-1.1-1.9-1.6c-0.9-0.6-1-1.6-1-2.6c0.2-3.4-0.2-2.6,2.3-5
				c0.8-0.8,1.7-1.6,2.7-2c0.8-0.4,1.8-0.6,2.8-0.7c2.6-0.2,5.2-0.1,7.7,0.4c1,0.2,2,0.5,2.9,0.9c1.2,0.6,2.5,1.3,3.7,1.9
				c1.2,0.5,2,1.5,2.6,2.7c0.3,0.7,0.6,1.3,0.9,2c0.5,0.9,0.2,1.7-0.5,2.3c-0.2,0.2-0.4,0.4-0.5,0.6c-0.4,0.2-0.7,0.4-1,0.4
				c-1.6,0.2-3,0.4-4.5,0.5c-2.8,0.4-5.7,0.8-8.5,1c-1.1,0.2-2.1,0-3.2,0C747.2,847.7,746.7,847.6,746.3,847.4z M753.1,836.1
				c-1.9-0.1-3.7,0-5.5,0.2c-0.5,0-1.2,0.4-1.6,0.8c-1.2,1.1-2.5,2.2-3.6,3.4c-1.1,1-0.9,3.4,0.2,4.4c0.5,0.5,1.1,1,1.6,1.5
				c0.2,0.1,0.2,0.2,0.4,0.2c1.9,0.6,3.8,0.9,5.7,0.7c3.3-0.5,6.4-0.9,9.7-1.3c0.9-0.2,1.8-0.2,2.7-0.3c0.7-0.2,1.5-0.5,2.1-0.8
				c0.5-0.2,0.5-0.9,0.2-1.4c-0.6-1-1.2-2-1.9-3c-0.7-1.2-1.7-2-3-2.5c-0.8-0.4-1.6-0.7-2.4-1.1c0-0.1,0-0.1,0-0.2
				C756.3,836.4,754.6,836,753.1,836.1z"/>
			<path class="st23" d="M747.1,848.1c-1,0-2,0-3-0.1c-0.7-0.1-1.6-0.2-2.1-0.7c-0.9-0.7-1.6-1.6-2.3-2.5c-0.2-0.2-0.2-0.4-0.2-0.6
				c-0.1-1.5-0.1-2.9,0-4.4c0.1-0.4,0.3-0.9,0.5-1.1c0.9-0.9,2-1.9,3-2.7c1.3-1.1,2.8-1.9,4.6-1.9c2-0.1,3.9-0.1,5.9,0
				c1.9,0.1,3.7,0.7,5.3,1.5c1.5,0.7,2.8,1.6,4.2,2.2c1.6,0.8,2.7,1.9,3.1,3.6c0.2,0.6,0.4,1.3,0.8,1.9c0.5,0.7,0.1,1.2-0.2,1.8
				c-0.4,0.5-0.9,1-1.7,0.9c0.2-0.2,0.3-0.4,0.5-0.6c0.7-0.6,0.9-1.5,0.5-2.3c-0.3-0.7-0.6-1.3-0.9-2c-0.5-1.1-1.3-2-2.6-2.7
				c-1.2-0.6-2.5-1.3-3.7-1.9c-0.9-0.4-1.9-0.8-2.9-0.9c-2.6-0.5-5.1-0.7-7.7-0.4c-0.9,0.1-2,0.3-2.8,0.7c-0.9,0.5-1.8,1.2-2.7,2
				c-2.4,2.4-2.1,1.6-2.3,5c-0.1,1,0.2,1.9,1,2.6c0.6,0.5,1.2,1.2,1.9,1.6c0.9,0.4,2,0.5,3,0.7c0.5,0.2,0.9,0.2,1.5,0.3
				C747.5,847.9,747.3,848.1,747.1,848.1z"/>
			<path class="st29" d="M810.5,865.8c-0.4-0.2-0.7-0.5-0.3-1.1c0.4-0.5,0.6-1.3,0.9-1.9c0.6-1.2,1.9-1.9,3-2.7
				c0.2-0.1,0.2-0.1,0.3-0.2c1.8-1.9,4-1.6,6-0.9c4.1,1.5,8,3.5,11.7,6.1c0.5,0.4,1,0.9,1.4,1.6c1,1.3,2,2.7,2.9,4.1
				c0.4,0.6,0.5,1.6,0.8,2.3c0.6,2.2,0.2,4.3-0.2,6.5c-0.2,0.9-0.3,1.8-0.5,2.7c-0.1,0.4-0.3,0.8-0.4,1.2c-0.8,2-1,4-1.2,6.1
				c-0.2,3.7-0.5,7.3-0.9,10.9c-0.1,1.4-0.3,2.9-0.8,4.2c-0.2,0.7-0.9,1.4-1.6,1.9c-0.3,0.2-1,0-1.5,0.1c-1.2,0-2.6,0.1-3.8,0.2
				c-0.5,0.1-0.7,0-0.8-0.5c-0.4-1.8-0.8-3.7-1.1-5.5c-0.5-2.8-0.9-5.5-1.2-8.3c-0.2-2.5-0.2-5-0.2-7.5c0.1-2.7,0.3-5.4,0.4-8.1
				c0.1-1.8-0.6-3.4-1.7-4.6c-0.7-0.9-1.6-1.6-2.5-2.3c-0.1,0-0.3-0.1-0.4-0.1c-0.1-0.2-0.2-0.2-0.2-0.4c-0.1,0-0.2-0.1-0.3-0.1
				c-0.2-0.1-0.3-0.1-0.5-0.2c-0.1,0-0.3-0.1-0.4-0.1c-0.1-0.2-0.2-0.2-0.2-0.4c-0.1,0-0.2-0.1-0.3-0.1c-0.2-0.1-0.3-0.2-0.5-0.3
				c-0.9-0.4-1.9-0.8-2.7-1.2c-0.2,0-0.4-0.1-0.5-0.1s-0.3-0.1-0.4-0.1C812.1,866.6,811.3,866.2,810.5,865.8z M820.1,870.3
				c1.2,0.9,2.3,2.1,3.1,3.5c0.9,1.6,0.8,3.4,0.7,5.2c-0.1,3.2-0.2,6.2-0.1,9.4c0.1,4.2,1.1,8.3,1.8,12.6c0.2,1.6,0.3,1.6,2,1.7
				c1.1,0.1,2.2,0.3,3.3,0.5c0.5,0.1,0.8-0.1,0.9-0.5c0.2-0.9,0.4-1.9,0.5-2.7c0.4-3.4,0.8-7,1.2-10.5c0.4-2.9,0.6-5.8,1.7-8.4
				c0.3-0.8,0.2-1.7,0.4-2.6c0.2-1.2,0.3-2.3,0.5-3.4c0.2-1.6-0.5-2.7-1.4-3.8c-0.9-1.3-1.8-2.7-2.8-3.8c-0.8-0.9-1.8-1.6-2.8-2.2
				c-1.9-1.1-3.7-2.1-5.7-3.1c-1.5-0.8-3-1.5-4.7-2.1c-0.5-0.2-1,0-1.6,0.1c-1.7,0.2-3,1-4.1,2.1c-0.8,0.9-1.2,2-1.8,3
				c-0.1,0.2,0.2,0.7,0.4,0.8c0.7,0.5,1.5,0.8,2.3,1.1C816.2,867.7,818.3,868.7,820.1,870.3z"/>
			<path class="st30" d="M812.6,867.3c-1-0.4-2-0.7-2.9-1.2c-0.5-0.2-0.6-0.7-0.2-1.2c0.2-0.2,0.2-0.6,0.5-0.9
				c0.5-0.7,0.9-1.6,1.6-2.1c0.8-0.8,1.7-1.4,2.7-2s2-1.6,3.4-1.5c1.2,0.1,2.3-0.3,3.5,0.2c2.5,1.1,4.9,2.1,7.3,3.3
				c2.7,1.2,5.3,2.7,7,5.3c0.9,1.3,2.3,2.5,2.5,4.2c0.1,0.5,0.2,1.1,0.3,1.6c0.4,1.9,0.9,3.7,0.3,5.6c-0.2,0.5-0.2,1.1-0.3,1.7
				c-0.3,1.3-0.7,2.6-1.1,3.9c-0.3,1-0.9,2-0.9,3c-0.3,2.7-0.5,5.4-0.6,8c-0.2,3.1-0.3,6.2-0.5,9.4c-0.1,0.8-0.3,1.6-0.7,2.2
				c-0.7,0.9-1.6,1.6-2.3,2.5c-0.4,0.4-0.9,0.6-1.4,0.7c-1.3,0.2-2.7,0.3-4,0.5c-0.9,0.1-0.9,0.1-1.2-0.8c-0.2-0.8-0.4-1.6-0.5-2.4
				c-0.5-2.7-1.1-5.5-1.5-8.3c-0.3-2.7-0.6-5.6-0.5-8.3c0-4.1,0.2-8.3,0.4-12.6c0-1.2,0.2-2.4-0.3-3.5c-0.8-1.6-1.7-3-3.1-4
				c-0.2-0.2-0.2-0.4-0.4-0.5c0.9,0.8,1.8,1.5,2.5,2.3c1.2,1.2,1.8,2.8,1.7,4.6c-0.2,2.7-0.4,5.4-0.4,8.1c0,2.5,0,5,0.2,7.5
				c0.2,2.8,0.7,5.5,1.2,8.3c0.3,1.9,0.7,3.7,1.1,5.5c0.1,0.5,0.2,0.5,0.8,0.5c1.2-0.2,2.6-0.2,3.8-0.2c0.5,0,1.2,0.2,1.5-0.1
				c0.6-0.5,1.3-1.2,1.6-1.9c0.5-1.4,0.6-2.8,0.8-4.2c0.3-3.7,0.6-7.3,0.9-10.9c0.2-2,0.4-4.1,1.2-6.1c0.1-0.4,0.3-0.8,0.4-1.2
				c0.2-0.9,0.3-1.8,0.5-2.7c0.5-2.1,0.9-4.3,0.2-6.5c-0.3-0.8-0.3-1.6-0.8-2.3c-0.9-1.4-1.9-2.7-2.9-4.1c-0.5-0.5-0.9-1.2-1.4-1.6
				c-3.6-2.6-7.5-4.6-11.7-6.1c-2.1-0.7-4.2-1-6,0.9c-0.2,0.1-0.2,0.2-0.3,0.2c-1,0.9-2.3,1.5-3,2.7c-0.3,0.6-0.5,1.3-0.9,1.9
				c-0.4,0.5-0.2,0.9,0.3,1.1c0.8,0.3,1.6,0.6,2.3,1C812.8,867,812.7,867.1,812.6,867.3z"/>
			<path class="st30" d="M813.3,867c0.2,0,0.4,0.1,0.5,0.1C813.6,867.1,813.5,867.1,813.3,867z"/>
			<path class="st30" d="M817.9,869.2c0.2,0.1,0.3,0.1,0.5,0.2C818.2,869.4,818.1,869.3,817.9,869.2z"/>
			<path class="st30" d="M816.6,868.3c0.2,0.1,0.3,0.2,0.5,0.3C816.9,868.5,816.7,868.4,816.6,868.3z"/>
			<path class="st30" d="M818.6,869.4c0.1,0.2,0.2,0.2,0.2,0.4C818.8,869.8,818.7,869.6,818.6,869.4z"/>
			<path class="st30" d="M817.3,868.7c0.1,0.2,0.2,0.2,0.2,0.4C817.4,869,817.4,868.8,817.3,868.7z"/>
			<path class="st31" d="M757.8,836.6c0.8,0.4,1.6,0.7,2.4,1.1c1.2,0.5,2.3,1.2,3,2.5c0.6,1.1,1.2,2,1.9,3c0.2,0.5,0.2,1.2-0.2,1.4
				c-0.7,0.3-1.4,0.6-2.1,0.8c-0.9,0.2-1.8,0.2-2.7,0.3c-3.3,0.5-6.5,0.9-9.7,1.3c-2,0.3-3.9,0-5.7-0.7c-0.2,0-0.3-0.1-0.4-0.2
				c-0.5-0.5-1.1-0.9-1.6-1.5c-1.1-1-1.2-3.4-0.2-4.4c1.2-1.2,2.3-2.3,3.6-3.4c0.4-0.4,1-0.7,1.6-0.8c1.8-0.2,3.7-0.2,5.5-0.2
				c1.6,0.1,3.3,0.5,4.9,0.7C757.9,836.7,757.9,836.7,757.8,836.6z M752.8,846.4c2.2,0.1,4.2-0.8,6.3-1.1c0.8-0.1,1.4-0.4,2.2-0.6
				c0.9-0.3,1.2-1.2,0.5-2c-0.5-0.6-0.9-1.2-1.2-1.8c-1-1.6-2.3-2.5-4.1-2.7c-2.3-0.2-4.4-0.6-6.7-0.4c-0.9,0.1-1.7,0.3-2.4,1.1
				c-0.9,1-1.9,2-2.8,2.9c-0.4,0.4-0.5,0.9-0.1,1.2c1.1,1.2,2.2,2.3,4.1,3C749.7,846.6,751.4,846.4,752.8,846.4z"/>
			<path class="st32" d="M811.7,865.9c-0.2-0.2-0.5-0.6-0.4-0.8c0.5-1.1,1-2.2,1.8-3c1.1-1.2,2.4-2,4.1-2.1c0.5,0,1.2-0.2,1.6-0.1
				c1.6,0.6,3.1,1.3,4.7,2.1c2,1,3.8,2,5.7,3.1c1,0.6,2,1.2,2.8,2.2c1,1.2,2,2.6,2.8,3.8c0.8,1.2,1.6,2.3,1.4,3.8
				c-0.2,1.2-0.3,2.3-0.5,3.4c-0.2,0.9-0.1,1.9-0.4,2.6c-1.2,2.7-1.4,5.6-1.7,8.4c-0.5,3.4-0.9,7-1.2,10.5c-0.2,0.9-0.3,1.9-0.5,2.7
				c-0.2,0.5-0.4,0.5-0.9,0.5c-1.1-0.2-2.2-0.3-3.3-0.5c-1.6-0.2-1.7-0.1-2-1.7c-0.7-4.1-1.7-8.3-1.8-12.6c-0.1-3.1,0-6.3,0.1-9.4
				c0.1-1.8,0.2-3.6-0.7-5.2c-0.8-1.4-1.9-2.5-3.1-3.5c-1.9-1.4-3.9-2.7-6.2-3.3C813.1,866.6,812.4,866.2,811.7,865.9z M812.8,866
				c1.7,0.3,3.1,1.3,4.7,2.1c1.8,0.9,3.4,2.3,4.8,3.8c1.2,1.2,1.7,2.7,2.2,4.4c0.6,2.3,0.2,4.4,0.2,6.6c0.2,2.9,0.1,5.7,0.2,8.5
				c0.2,2.3,0.8,4.6,1.2,6.8c0.1,0.3,0.4,0.5,0.6,0.7c0.2,0,0.6-0.2,0.8-0.3c1.2-1.5,2.4-2.9,3.4-4.4c0.5-0.7,0.5-1.6,0.6-2.5
				c0.5-2.8,0.9-5.7,1.3-8.5c0.1-0.6,0.2-1.3,0.5-2c0.7-1.7,1-3.4,0.9-5.2c-0.1-2-0.9-3.6-1.9-5.2c-1.5-2.3-3.7-3.7-5.9-5.1
				c-1.7-1.1-3.6-2-5.4-2.9c-0.8-0.4-1.5-0.8-2.3-1.1c-0.4-0.2-0.9-0.2-1.3-0.2c-1.1,0.2-2.1,0.5-3,0.8c-0.4,0.2-0.8,0.3-0.9,0.6
				c-0.5,0.6-0.9,1.4-1.2,1.9C812.1,865.5,812.2,865.9,812.8,866z"/>
			<path class="st28" d="M744.6,843.1c-0.5-0.5-0.3-0.9,0.1-1.2c0.9-0.9,1.9-1.9,2.8-2.9c0.7-0.7,1.5-1,2.4-1.1
				c2.3-0.3,4.4,0.2,6.7,0.4c1.9,0.2,3.2,1.1,4.1,2.7c0.4,0.6,0.8,1.2,1.2,1.8c0.6,0.8,0.5,1.6-0.5,2c-0.7,0.2-1.5,0.5-2.2,0.6
				c-2.1,0.4-4.1,1.2-6.3,1.1c-1.6-0.1-3.2,0.2-4.2-0.2C746.7,845.4,745.7,844.2,744.6,843.1z M749.7,839.5c-0.9,0.3-2,1.9-1.7,2.9
				c0.2,0.7,0.5,1.2,0.6,1.9c0.3,0.9,1.1,1.3,2.1,1.4c2.3,0.2,4.6-0.1,6.9-0.8c0.5-0.2,1.1-0.2,1.6-0.4c0.3-0.2,0.7-0.4,0.9-0.7
				c0.2-0.2,0.1-0.6-0.1-0.7c-1.6-1.2-3.4-2.5-4.7-3.4C753.1,839,751.4,839.1,749.7,839.5z"/>
			<path class="st33" d="M813.5,862.8c0.2-0.3,0.6-0.5,0.9-0.6c1-0.3,2-0.5,3-0.8c0.4-0.1,0.9,0,1.3,0.2c0.8,0.3,1.6,0.7,2.3,1.1
				c1.8,0.9,3.7,1.8,5.4,2.9c2.3,1.4,4.4,2.8,5.9,5.1c1,1.6,1.7,3.4,1.9,5.2c0.1,1.7-0.2,3.6-0.9,5.2c-0.2,0.6-0.4,1.2-0.5,2
				c-0.5,2.8-0.9,5.7-1.3,8.5c-0.2,0.9-0.2,1.8-0.6,2.5c-1,1.6-2.3,3-3.4,4.4c-0.2,0.2-0.6,0.5-0.8,0.3c-0.3-0.1-0.5-0.5-0.6-0.7
				c-0.5-2.3-1-4.5-1.2-6.8c-0.2-2.8-0.2-5.7-0.2-8.5c-0.2-2.2,0.3-4.4-0.2-6.6c-0.4-1.6-0.9-3.1-2.2-4.4c-1.5-1.5-3-2.8-4.8-3.8
				c-1.5-0.8-2.9-1.8-4.7-2.1c-0.7-0.2-0.9-0.5-0.5-1.4C812.7,864.1,813.1,863.4,813.5,862.8z M829,887.5c0.5-0.7,1.1-1.3,1.6-2.1
				c0.3-0.5,0.5-1.2,0.6-1.7c0.4-1.4,0.5-2.9,1-4.2c0.3-0.9,0.3-1.7,0.1-2.6c-0.7-2-1.2-4.2-2-6.2c-0.2-0.5-0.9-1.1-1.5-1.4
				c-1.9-1.3-3.7-2.6-5.7-3.7c-1.2-0.8-2.5-1.3-3.7-2c-0.3-0.2-0.6-0.3-0.9-0.5c-1.5-0.8-2.7-0.2-3.7,0.9c-0.3,0.4-0.7,0.7-1.1,1
				c-0.5,0.4-0.3,0.7,0.2,0.9c0.9,0.4,1.7,0.9,2.6,1.2c3,1.5,5.7,3.4,7.7,6.2c1.5,2.1,1.6,4.4,1.6,6.9c0,2.8,0,5.6,0.1,8.4
				c0,0.7,0,1.3,0.1,2c0,0.2,0.1,0.4,0.2,0.6C827.1,890,828,888.6,829,887.5z"/>
			<path class="st34" d="M760,843.1c0.1,0.2,0.2,0.5,0.1,0.7c-0.2,0.3-0.5,0.6-0.9,0.7c-0.5,0.2-1.1,0.2-1.6,0.4
				c-2.2,0.8-4.5,1-6.9,0.8c-0.9-0.1-1.7-0.5-2.1-1.4c-0.2-0.6-0.5-1.2-0.6-1.9c-0.2-1,0.7-2.7,1.7-2.9c1.7-0.5,3.4-0.4,5.5,0.2
				C756.6,840.6,758.3,841.8,760,843.1z"/>
			<path class="st35" d="M825.9,890.6c0-0.6-0.1-1.3-0.1-2c0-2.8-0.1-5.6-0.1-8.4c0-2.4-0.2-4.8-1.6-6.9c-2-2.8-4.7-4.8-7.7-6.2
				c-0.9-0.4-1.7-0.9-2.6-1.2c-0.5-0.2-0.6-0.5-0.2-0.9c0.4-0.3,0.7-0.6,1.1-1c1.1-1,2.2-1.7,3.7-0.9c0.3,0.2,0.6,0.3,0.9,0.5
				c1.2,0.6,2.5,1.2,3.7,2c1.9,1.2,3.7,2.5,5.7,3.7c0.5,0.4,1.2,0.9,1.5,1.4c0.8,2,1.4,4.1,2,6.2c0.2,0.9,0.2,1.6-0.1,2.6
				c-0.5,1.4-0.6,2.8-1,4.2c-0.2,0.6-0.4,1.2-0.6,1.7c-0.5,0.7-1.1,1.4-1.6,2.1c-0.9,1.3-2,2.6-3,4C826,891.1,826,890.9,825.9,890.6
				z"/>
		</g>
		<g>
			<g>
				<polygon class="st36" points="980.9,762 910.6,883.4 788.8,883 859.2,761.6 				"/>
			</g>
		</g>
		<g>
			<g>
				<g>
					<polygon class="st37" points="864.5,773 788.5,640.4 864.9,641.1 					"/>
				</g>
				<g>
					<polygon class="st3" points="864.9,641.1 988.2,641.1 987.7,773.1 864.5,773 					"/>
				</g>
			</g>
		</g>
		<g>
			<polygon class="st0" points="859.2,761.6 788.3,883.9 728.4,778.5 799.2,656.3 			"/>
		</g>
		<g>
			
				<radialGradient id="SVGID_3_" cx="7915.8408" cy="3733.8008" r="26.9234" gradientTransform="matrix(-0.9886 -0.1505 0.1505 -0.9886 8066.0005 5634.5518)" gradientUnits="userSpaceOnUse">
				<stop  offset="2.066799e-05" style="stop-color:#F9F1E5"/>
				<stop  offset="1" style="stop-color:#CCBDA8"/>
			</radialGradient>
			<path class="st38" d="M790.3,726c0,0-13.2,19.6,0.6,40.4c13.7,20.8,28,2.1,28,2.1"/>
			
				<radialGradient id="SVGID_4_" cx="7912.04" cy="3757.5156" r="7.2816" gradientTransform="matrix(-0.9886 -0.1505 0.1505 -0.9886 8066.0005 5634.5518)" gradientUnits="userSpaceOnUse">
				<stop  offset="2.066799e-05" style="stop-color:#F9F1E5"/>
				<stop  offset="1" style="stop-color:#CCBDA8"/>
			</radialGradient>
			<path class="st39" d="M814.9,731c-2.2,4.3-6.3,6.9-9.1,5.8c-2.9-1.2-3.4-5.5-1.2-9.8c2.2-4.3,6.3-6.9,9.1-5.8
				C816.5,722.4,817.1,726.7,814.9,731z"/>
			
				<radialGradient id="SVGID_5_" cx="7903.0732" cy="3746.1836" r="7.2811" gradientTransform="matrix(-0.9886 -0.1505 0.1505 -0.9886 8066.0005 5634.5518)" gradientUnits="userSpaceOnUse">
				<stop  offset="2.066799e-05" style="stop-color:#F9F1E5"/>
				<stop  offset="1" style="stop-color:#CCBDA8"/>
			</radialGradient>
			<path class="st40" d="M822,743.6c-2.2,4.3-6.3,6.9-9.1,5.8c-2.8-1.1-3.4-5.5-1.2-9.8c2.2-4.3,6.3-6.9,9.1-5.8
				C823.6,734.9,824.2,739.3,822,743.6z"/>
		</g>
	</g>
	<g>
		
			<radialGradient id="SVGID_6_" cx="7862.501" cy="3663.7961" r="49.1164" gradientTransform="matrix(-0.9886 -0.1505 0.1505 -0.9886 8066.0005 5634.5518)" gradientUnits="userSpaceOnUse">
			<stop  offset="2.066799e-05" style="stop-color:#F9F1E5"/>
			<stop  offset="1" style="stop-color:#CCBDA8"/>
		</radialGradient>
		<path class="st41" d="M884.8,805c-0.3,9.8-4.1,19.6-30.3,31.8C828.4,849,806,821.4,806,821.4s-11.7-6.4-19.3,5.7
			c-7.6,12.2,2,17.6,2,17.6c106.7,62.5,118.1-31.8,118.1-31.8C910.8,801.4,885.2,795.2,884.8,805z"/>
		
			<radialGradient id="SVGID_7_" cx="7916.0815" cy="3657.2124" r="19.4525" gradientTransform="matrix(-0.9886 -0.1505 0.1505 -0.9886 8066.0005 5634.5518)" gradientUnits="userSpaceOnUse">
			<stop  offset="2.066799e-05" style="stop-color:#F9F1E5"/>
			<stop  offset="1" style="stop-color:#CCBDA8"/>
		</radialGradient>
		<circle class="st42" cx="790.6" cy="827.6" r="19.4"/>
		
			<radialGradient id="SVGID_8_" cx="7912.104" cy="3678.9072" r="6.8531" gradientTransform="matrix(-0.9886 -0.1505 0.1505 -0.9886 8066.0005 5634.5518)" gradientUnits="userSpaceOnUse">
			<stop  offset="2.066799e-05" style="stop-color:#F9F1E5"/>
			<stop  offset="1" style="stop-color:#CCBDA8"/>
		</radialGradient>
		<circle class="st43" cx="797.9" cy="806.8" r="6.9"/>
	</g>
</g>
</svg>
