<?xml version="1.0" encoding="UTF-8"?>
<svg viewBox="0 0 56.351 51.457" xmlns="http://www.w3.org/2000/svg">
<g transform="translate(15 15)" fill="#1f2633" data-name="educationB">
<path transform="translate(-207.03 -1228.8)" d="M230.981,1237.26c-.141.071-.231.113-.319.16q-5.1,2.783-10.2,5.572a.482.482,0,0,1-.531,0q-6.291-3.442-12.588-6.873c-.089-.049-.178-.1-.312-.175.112-.065.194-.115.278-.162q6.319-3.448,12.637-6.9a.458.458,0,0,1,.507,0q6.34,3.469,12.688,6.923a.4.4,0,0,1,.242.41q-.01,4.49,0,8.979v.316h-2.395Z" data-name="Path 50"/>
<path transform="translate(-211.8 -1240.5)" d="M216.6,1252.2c.116.064.212.115.3.17q3.892,2.335,7.781,4.676a.457.457,0,0,0,.552,0q3.9-2.355,7.805-4.692c.086-.051.175-.1.308-.168v.316c0,1.553,0,3.105.005,4.658a.419.419,0,0,1-.258.432q-3.956,2.134-7.9,4.29a.417.417,0,0,1-.457,0q-3.958-2.161-7.924-4.307c-.137-.074-.242-.136-.241-.328.008-1.627,0-3.255.005-4.882A1.709,1.709,0,0,1,216.6,1252.2Z" data-name="Path 51"/>
</g>
</svg>
