<!--?xml version="1.0" encoding="utf-8"?-->
<!-- Generator: Adobe Illustrator 24.2.1, SVG Export Plug-In . SVG Version: 6.00 Build 0)  -->
<svg version="1.1" id="Layer_1" xmlns="http://www.w3.org/2000/svg" xmlns:xlink="http://www.w3.org/1999/xlink" x="0px" y="0px" viewBox="0 0 1920 1005" style="" xml:space="preserve">
<style type="text/css">
	.st0{fill:none;stroke:#F9E5D9;stroke-width:9;stroke-miterlimit:10;}
	.st1{fill:none;stroke:#F9E5D9;stroke-width:14;stroke-miterlimit:10;}
	.st2{fill:#F9E5D9;}
</style>
<g id="Graphics" transform="translate(0.051)">
</g>
<path class="st0 hMUaOOzL_0" d="M1.2,776.2c0,0,453.4,475.7,940.3,0s1024,0,1024,0"></path>
<path class="st1 hMUaOOzL_1" d="M44.6-129.3c0,0,196.7,626.1,919.1,422.5s1001.8,483,1001.8,483"></path>
<path class="st0 hMUaOOzL_2" d="M213.2-398.6c0,0-148.2,677.8,867.4,597.2c748.2-59.4,864.4,555.3,864.4,555.3"></path>
<path class="st0 hMUaOOzL_3" d="M-38.9,369.1c0,0,362.5,556,950,185.7s1054.4,221.3,1054.4,221.3"></path>
<path class="st0 hMUaOOzL_4" d="M-30.9,74.4c0,0,264.3,606.2,961,341.2s1035.4,360.6,1035.4,360.6"></path>
<path class="st2 hMUaOOzL_5" d="M649.5,337A31.2,31.2 0,1,1 711.9000000000001,337A31.2,31.2 0,1,1 649.5,337"></path>
<path class="st2 hMUaOOzL_6" d="M383.40000000000003,79.8A24.9,24.9 0,1,1 433.2,79.8A24.9,24.9 0,1,1 383.40000000000003,79.8"></path>
<path class="st2 hMUaOOzL_7" d="M1094.8,266.5A22.9,22.9 0,1,1 1140.6000000000001,266.5A22.9,22.9 0,1,1 1094.8,266.5"></path>
<path class="st2 hMUaOOzL_8" d="M1280,351.2A22.9,22.9 0,1,1 1325.8000000000002,351.2A22.9,22.9 0,1,1 1280,351.2"></path>
<path class="st2 hMUaOOzL_9" d="M1091.3999999999999,462.3A22.9,22.9 0,1,1 1137.2,462.3A22.9,22.9 0,1,1 1091.3999999999999,462.3"></path>
<path class="st2 hMUaOOzL_10" d="M1416.6999999999998,562.5A22.9,22.9 0,1,1 1462.5,562.5A22.9,22.9 0,1,1 1416.6999999999998,562.5"></path>
<style data-made-with="vivus-instant">.hMUaOOzL_0{stroke-dasharray:2191 2193;stroke-dashoffset:2192;animation:hMUaOOzL_draw 2000ms linear 0ms forwards;}.hMUaOOzL_1{stroke-dasharray:2349 2351;stroke-dashoffset:2350;animation:hMUaOOzL_draw 2000ms linear 100ms forwards;}.hMUaOOzL_2{stroke-dasharray:2372 2374;stroke-dashoffset:2373;animation:hMUaOOzL_draw 2000ms linear 200ms forwards;}.hMUaOOzL_3{stroke-dasharray:2268 2270;stroke-dashoffset:2269;animation:hMUaOOzL_draw 2000ms linear 300ms forwards;}.hMUaOOzL_4{stroke-dasharray:2333 2335;stroke-dashoffset:2334;animation:hMUaOOzL_draw 2000ms linear 400ms forwards;}.hMUaOOzL_5{stroke-dasharray:197 199;stroke-dashoffset:198;animation:hMUaOOzL_draw 2000ms linear 500ms forwards;}.hMUaOOzL_6{stroke-dasharray:157 159;stroke-dashoffset:158;animation:hMUaOOzL_draw 2000ms linear 600ms forwards;}.hMUaOOzL_7{stroke-dasharray:145 147;stroke-dashoffset:146;animation:hMUaOOzL_draw 2000ms linear 700ms forwards;}.hMUaOOzL_8{stroke-dasharray:144 146;stroke-dashoffset:145;animation:hMUaOOzL_draw 2000ms linear 800ms forwards;}.hMUaOOzL_9{stroke-dasharray:145 147;stroke-dashoffset:146;animation:hMUaOOzL_draw 2000ms linear 900ms forwards;}.hMUaOOzL_10{stroke-dasharray:144 146;stroke-dashoffset:145;animation:hMUaOOzL_draw 2000ms linear 1000ms forwards;}@keyframes hMUaOOzL_draw{100%{stroke-dashoffset:0;}}@keyframes hMUaOOzL_fade{0%{stroke-opacity:1;}94.44444444444444%{stroke-opacity:1;}100%{stroke-opacity:0;}}</style></svg>
