<?xml version="1.0" encoding="utf-8"?>
<!-- Generator: Adobe Illustrator 24.2.1, SVG Export Plug-In . SVG Version: 6.00 Build 0)  -->
<svg version="1.1" id="Layer_1" xmlns="http://www.w3.org/2000/svg" xmlns:xlink="http://www.w3.org/1999/xlink" x="0px" y="0px"
	 viewBox="0 0 1920 1005" style="enable-background:new 0 0 1920 1005;" xml:space="preserve">
<style type="text/css">
	.st0{opacity:0.22;fill:url(#SVGID_1_);stroke:url(#SVGID_2_);stroke-miterlimit:10;enable-background:new    ;}
	.st1{fill:#FFFFFF;stroke:#000000;stroke-miterlimit:10;}
	.st2{fill:none;stroke:#D1A250;stroke-miterlimit:10;stroke-dasharray:6;}
	.st3{fill:#C69C6D;stroke:#FFFFFF;stroke-miterlimit:10;}
	.st4{fill:none;stroke:url(#SVGID_3_);stroke-width:2;stroke-miterlimit:10;stroke-dasharray:6;}
	.st5{fill:none;stroke:url(#SVGID_4_);stroke-width:2;stroke-miterlimit:10;stroke-dasharray:6;}
	.st6{fill:none;stroke:url(#SVGID_5_);stroke-width:2;stroke-miterlimit:10;stroke-dasharray:6;}
	.st7{fill:none;stroke:url(#SVGID_6_);stroke-width:2;stroke-miterlimit:10;stroke-dasharray:6;}
</style>
<linearGradient id="SVGID_1_" gradientUnits="userSpaceOnUse" x1="964.6364" y1="810.5065" x2="951.866" y2="31.5147">
	<stop  offset="0" style="stop-color:#FFFFFF;stop-opacity:0"/>
	<stop  offset="1" style="stop-color:#C69C6D;stop-opacity:0.5"/>
</linearGradient>
<linearGradient id="SVGID_2_" gradientUnits="userSpaceOnUse" x1="0.5" y1="524.9993" x2="1921.0652" y2="524.9993">
	<stop  offset="0" style="stop-color:#FFFFFF;stop-opacity:0"/>
	<stop  offset="0" style="stop-color:#FDFBFA;stop-opacity:3.606564e-02"/>
	<stop  offset="1" style="stop-color:#C69C6D;stop-opacity:0.5"/>
</linearGradient>
<path class="st0" d="M1,1002.4l0.1-856.9h134.8l136.6-31.2l115-26.3l747-41.4l786,98l0.1,859L1,1002.4z"/>
<g id="Graphics" transform="translate(0.051)">
</g>
<path class="st1" d="M575.5,163.5"/>
<path class="st2" d="M1.1,145.5h132.6l138-31l116.8-27l746-41l785.8,98.5"/>
<path id="Group_84" transform="translate(0.073)" class="st3" d="M135,117.9c10.8,0,19.5,8.7,19.5,19.5s-8.7,19.5-19.5,19.5
	s-19.5-8.7-19.5-19.5S124.3,117.9,135,117.9z"/>
<circle id="Ellipse_3" class="st3" cx="388.6" cy="90.4" r="22.4"/>
<linearGradient id="SVGID_3_" gradientUnits="userSpaceOnUse" x1="136.5507" y1="365.9372" x2="136.5507" y2="156.5">
	<stop  offset="0" style="stop-color:#FFFFFF;stop-opacity:0"/>
	<stop  offset="1" style="stop-color:#C69C6D;stop-opacity:0.5"/>
</linearGradient>
<line class="st4" x1="136.6" y1="365.9" x2="136.6" y2="156.5"/>
<linearGradient id="SVGID_4_" gradientUnits="userSpaceOnUse" x1="392.5507" y1="365.9372" x2="392.5507" y2="104">
	<stop  offset="0" style="stop-color:#FFFFFF;stop-opacity:0"/>
	<stop  offset="1" style="stop-color:#C69C6D;stop-opacity:0.5"/>
</linearGradient>
<line class="st5" x1="392.6" y1="365.9" x2="392.6" y2="104"/>
<circle id="Ellipse_3_1_" class="st3" cx="1135.6" cy="35.4" r="28.4"/>
<circle id="Ellipse_3_2_" class="st3" cx="1882.6" cy="141.4" r="28.4"/>
<linearGradient id="SVGID_5_" gradientUnits="userSpaceOnUse" x1="1139.5507" y1="365.9372" x2="1139.5507" y2="78">
	<stop  offset="0" style="stop-color:#FFFFFF;stop-opacity:0"/>
	<stop  offset="1" style="stop-color:#C69C6D;stop-opacity:0.5"/>
</linearGradient>
<line class="st6" x1="1139.6" y1="365.9" x2="1139.6" y2="78"/>
<linearGradient id="SVGID_6_" gradientUnits="userSpaceOnUse" x1="1886.5507" y1="365" x2="1886.5507" y2="159">
	<stop  offset="0" style="stop-color:#FFFFFF;stop-opacity:0"/>
	<stop  offset="1" style="stop-color:#C69C6D;stop-opacity:0.5"/>
</linearGradient>
<line class="st7" x1="1886.6" y1="365" x2="1886.6" y2="159"/>
</svg>
