<?xml version="1.0" encoding="utf-8"?>
<!-- Generator: Adobe Illustrator 24.2.1, SVG Export Plug-In . SVG Version: 6.00 Build 0)  -->
<svg version="1.1" id="Layer_1" xmlns="http://www.w3.org/2000/svg" xmlns:xlink="http://www.w3.org/1999/xlink" x="0px" y="0px"
	 viewBox="0 0 1125 2436" style="enable-background:new 0 0 1125 2436;" xml:space="preserve">
<style type="text/css">
	.st0{fill:url(#SVGID_1_);}
	.st1{fill:#446B77;}
	.st2{fill:#5C93A0;}
	.st3{fill:#5F9CAA;}
	.st4{fill:url(#SVGID_2_);}
	.st5{fill:url(#SVGID_3_);}
	.st6{fill:#A6DAE8;}
	.st7{fill:url(#SVGID_4_);}
	.st8{fill:none;stroke:url(#SVGID_5_);stroke-width:5;stroke-linecap:round;stroke-linejoin:round;stroke-miterlimit:10;}
	.st9{fill:url(#SVGID_6_);}
	.st10{fill:url(#SVGID_7_);}
	.st11{fill:none;stroke:#CFCAB6;stroke-width:1.1548;stroke-linecap:round;stroke-linejoin:round;stroke-miterlimit:10;}
	.st12{opacity:0.19;fill:#634194;enable-background:new    ;}
	.st13{fill:#4A306E;}
	.st14{fill:#FFC2B0;}
	.st15{fill:#346E78;}
	.st16{fill:#FFFFFF;}
	.st17{fill:#654296;}
	.st18{fill:#EDE8D8;}
	.st19{fill:#C6D2F2;}
	.st20{fill:#5981EB;}
	.st21{fill:none;stroke:#4A306E;stroke-width:1.1548;stroke-linecap:round;stroke-linejoin:round;stroke-miterlimit:10;}
	.st22{fill:#91BCC6;}
	.st23{fill:#F9F1E5;}
	.st24{fill:none;stroke:#FFFFFF;stroke-width:1.1548;stroke-linecap:round;stroke-linejoin:round;stroke-miterlimit:10;}
</style>
<g>
	<g>
		
			<linearGradient id="SVGID_1_" gradientUnits="userSpaceOnUse" x1="2417.3999" y1="-3911.6357" x2="2417.3999" y2="-3908.6357" gradientTransform="matrix(1 0 0 1 0 4172)">
			<stop  offset="0" style="stop-color:#486975"/>
			<stop  offset="0.584" style="stop-color:#213540"/>
		</linearGradient>
		<path class="st0" d="M2417.4,263.4c1.9,0,1.9-3,0-3S2415.5,263.4,2417.4,263.4L2417.4,263.4z"/>
	</g>
</g>
<path class="st1" d="M1027.8,2323.1c128.3-67.8,181.3-225.2,118.3-357.3c-17.3-36.3-41.6-67-70.5-91.2
	c-99.9-92.8-236.9-155.9-332.6-150.9c-34.7,1.7-67.7,4.4-103.3,5.7c-26.4-0.9-53.4-0.9-81,0.1c-80.5-3-181.5-16.9-332.9-57.4
	c-124.6-33.3-201.8-22.1-249.2,1c-6.4,2.5-12.8,5.3-19.1,8.2c-135.5,64.6-192.9,226.9-128.3,362.4c8.8,18.5,19.4,35.4,31.5,50.9
	c73.4,119.5,324.6,195.7,435.1,189.8c34.7-1.7,67.7-4.4,103.3-5.7c26.4,0.9,53.4,0.9,81-0.1c80.5,3,181.5,16.9,332.9,57.4
	C968.2,2377.6,985.7,2356.6,1027.8,2323.1z"/>
<g>
	<g>
		<g>
			<g>
				<g>
					<polygon class="st2" points="975.9,613 975.6,733.8 886.5,681.3 886.7,560.7 					"/>
				</g>
			</g>
		</g>
		<g>
			<g>
				<g>
					<g>
						<polygon class="st3" points="1022.9,520.8 1079,553.4 967.1,619.1 						"/>
					</g>
					<g>
						
							<linearGradient id="SVGID_2_" gradientUnits="userSpaceOnUse" x1="932.8361" y1="7265.5259" x2="1079.0333" y2="7265.5259" gradientTransform="matrix(1 0 0 -1 0 7776)">
							<stop  offset="0" style="stop-color:#486975"/>
							<stop  offset="0.584" style="stop-color:#213540"/>
						</linearGradient>
						<polygon class="st4" points="1022.9,520.8 932.8,467.6 988.9,500.1 1079,553.4 						"/>
					</g>
					<g>
						
							<linearGradient id="SVGID_3_" gradientUnits="userSpaceOnUse" x1="877.0125" y1="7232.6484" x2="1022.9483" y2="7232.6484" gradientTransform="matrix(1 0 0 -1 0 7776)">
							<stop  offset="0" style="stop-color:#486975"/>
							<stop  offset="0.584" style="stop-color:#213540"/>
						</linearGradient>
						<polygon class="st5" points="967.1,619.1 877,565.8 932.8,467.6 1022.9,520.8 						"/>
					</g>
				</g>
			</g>
		</g>
		<g>
			<g>
				<polygon class="st6" points="1064.5,560.7 1064.2,682.1 975.6,734.5 975.9,613 				"/>
			</g>
		</g>
		<g>
			
				<linearGradient id="SVGID_4_" gradientUnits="userSpaceOnUse" x1="910.3602" y1="5830.7402" x2="944.5444" y2="5830.7402" gradientTransform="matrix(1 1.1719 0 -1 0 5435.4307)">
				<stop  offset="0" style="stop-color:#486975"/>
				<stop  offset="0.584" style="stop-color:#213540"/>
			</linearGradient>
			<path class="st7" d="M944.5,715.5l-34.2-20.4v-18c0-9.3,7.4-12.4,16.5-7l0.6,0.4c9.4,5.6,17.1,17.9,17.1,27.6V715.5L944.5,715.5z
				"/>
		</g>
		<g>
			
				<linearGradient id="SVGID_5_" gradientUnits="userSpaceOnUse" x1="907.7034" y1="6789.9897" x2="953.8917" y2="6789.9897" gradientTransform="matrix(1 0.3378 0 -1 0 7113.103)">
				<stop  offset="0" style="stop-color:#486975"/>
				<stop  offset="0.584" style="stop-color:#213540"/>
			</linearGradient>
			<path class="st8" d="M910.2,620.7c0,0,1.4,20.3,21.4,27.2c20,6.8,19.8-13.4,19.8-13.4"/>
		</g>
	</g>
	<g>
		
			<linearGradient id="SVGID_6_" gradientUnits="userSpaceOnUse" x1="2247.1167" y1="5835.2676" x2="2258.8245" y2="5835.2676" gradientTransform="matrix(0.7668 -0.2332 -0.2332 -1.2332 557.9609 8333.96)">
			<stop  offset="0" style="stop-color:#486975"/>
			<stop  offset="0.584" style="stop-color:#213540"/>
		</linearGradient>
		<path class="st9" d="M929.2,611.1c0.8,4-0.6,8-3.1,8.8c-2.5,0.8-5-1.9-5.9-6c-0.8-4,0.6-8,3.1-8.8
			C925.8,604.3,928.5,607,929.2,611.1z"/>
	</g>
	<g>
		
			<linearGradient id="SVGID_7_" gradientUnits="userSpaceOnUse" x1="2259.9065" y1="5828.9878" x2="2271.6143" y2="5828.9878" gradientTransform="matrix(0.7668 -0.2332 -0.2332 -1.2332 557.9609 8333.96)">
			<stop  offset="0" style="stop-color:#486975"/>
			<stop  offset="0.584" style="stop-color:#213540"/>
		</linearGradient>
		<path class="st10" d="M940.5,615.8c0.8,4-0.6,8-3.1,8.8c-2.5,0.8-5-1.9-5.9-6c-0.8-4,0.6-8,3.1-8.8
			C937.1,609.1,939.7,611.9,940.5,615.8z"/>
	</g>
</g>
<g>
	<line class="st11" x1="137.2" y1="1962.6" x2="141.8" y2="1953.7"/>
	<g>
		<g>
			<g>
				<path class="st12" d="M104.6,2148.9c0.6-12.9,22.1-23.7,45.2-22.4c20.1,1.1,43.6,10,47.2,20.8c15.6-1.4,31.9,1.2,43.3,7.7
					c18.3,10.3,16.8,26.9-3.2,36.9c-20.1,10-51.2,9.7-69.4-0.7c-8.7-4.9-12.9-11.3-12.7-17.7c-0.1,0-0.1,0-0.2,0
					C131.5,2172.1,104,2161.8,104.6,2148.9z"/>
				<path class="st13" d="M167.5,2144.6l8.2,2.2c6.1-0.4,9.2-1.3,11,1.1l0.6,0.7c1.9,2.4,0.6,4.8-2.7,5.3l-14.9,5.1
					c-3.2,0.6-6.6-1.4-8.2-4.3c0,0-0.9-1.8,1.9-6.6C165,2145.2,164.9,2145.1,167.5,2144.6z"/>
				<path class="st14" d="M126.5,2075l-19.9,52c-2.3,6.4,5.4,7.2,7.6,3.7l27.2-65.9L126.5,2075z"/>
				<path class="st14" d="M163.3,2032.2l0.4,116.4c-0.1,7.3,7.2,5.2,8.2,0.8l7.1-108.1L163.3,2032.2z"/>
				<path class="st13" d="M187.7,1999.4l-14,140c0,0-5.6,8.3-12.1-0.7l0.6-116.4l-1.4-24.5L187.7,1999.4z"/>
				<path class="st13" d="M155.6,1999.1l-8.5,62.8c-0.3,1.8-0.7,3.5-1.4,5.1l-22.5,49.2c0,0-9.8,5.7-13.8-6.1l21.6-51.2
					c0.4-1,0.6-1.9,0.7-3l5.9-65.8L155.6,1999.1z"/>
				<polygon class="st13" points="149,1997.1 177.7,2014.7 167.3,2034.2 138.5,2016.7 				"/>
				<path class="st14" d="M176.1,1922.2c-0.3,9.1-6.3,10.3-12.6,6.2c-6.3-4.1-10.3-12.1-10.2-21.2c0.3-9.1,5.6-13,11.8-8.9
					S176.3,1913.3,176.1,1922.2z"/>
				<path class="st14" d="M183.8,1917.3c-0.3,9.1-7.9,14.4-14.2,10.2c-6.3-4.1-11.2-14.8-11-23.9c0.3-9.1,5.6-13,11.8-8.9
					C176.7,1899,184,1908.2,183.8,1917.3z"/>
				<path class="st14" d="M161,1947.9l-0.7-0.3c-2.4-0.9-2.1-4.4-1-7.8l5.2-18.6c1.1-3.3,4-5.2,6.3-4.3l0.7,0.3
					c2.4,0.9,3.3,4.4,2.2,7.7l-4.3,18.8C168.5,1946.8,163.5,1948.8,161,1947.9z"/>
				<path class="st13" d="M156.6,1922.9c0,0,1.6,4.5,10,3.2c8-1.3,4-13.8,11.3-17.2c7.9-3.8,6.3-13.5,1.9-16.9
					c-4.3-3.3-14-3-19.8,1.9C154.3,1899,147.4,1903.3,156.6,1922.9z"/>
				<path class="st14" d="M178.6,1915.1c-0.1,2.2-1.7,4-3.9,3.8c-2-0.1-3.7-1.9-3.6-4.1c0.1-2.2,1.7-4,3.9-3.8
					C177,1911,178.6,1912.9,178.6,1915.1z"/>
				<path class="st15" d="M147.3,1934.1c-5.8,3.8-9.5,10.5-10,17.8l-3.1,45.9c0,0-0.7,7.9,21.7,16.4c18.1,6.9,31.7,5.2,33,3
					l-1.1-49.6l16.1,11.8c0,0-2.9-24.2-24.2-38.6c-3.9-2.7-9.7-5.9-14.4-8.4c-7-3.8-10.3-2.7-17.2,1.4
					C147.7,1933.8,147.4,1933.9,147.3,1934.1z"/>
				<path class="st15" d="M164.8,1905.7c0.7,5.4-2.2,10.2-6.6,10.8c-4.3,0.6-8.4-3.2-9.2-8.6c-0.7-5.4,2.2-10.2,6.6-10.8
					C160,1896.5,164.1,1900.4,164.8,1905.7z"/>
				<path class="st16" d="M171.6,1935.9c0,0-6.6-6.1-11.7-5.4C159.9,1930.5,159.8,1937.7,171.6,1935.9z"/>
				<path class="st14" d="M139.3,1952.5L139.3,1952.5c2.5,1.2,3.7,4.3,2.6,7l-0.9,2.2c-1.1,2.7-4,4-6.6,2.7l0,0
					c-2.5-1.2-3.7-4.3-2.6-7l0.9-2.2C133.8,1952.5,136.8,1951.3,139.3,1952.5z"/>
				<polygon class="st17" points="186.8,2027.9 218.1,2039.5 211.2,2060.7 179.9,2049.1 				"/>
				<path class="st18" d="M205.3,1942.6l-23.1,37.5c-3.3,6.3-14.8,8.4-20.6,3.8l-23.4-19.7l4.2-7.9l22.5,11.5
					c0,0,9.4-26.2,15.9-29.7C187.5,1934.7,205.3,1942.6,205.3,1942.6z"/>
				<path class="st13" d="M176.8,2156.1l8.4-1.6c5.6-3,8.2-5.2,10.7-3.8l0.7,0.4c2.6,1.4,2.4,4.3-0.4,6.1l-12,11.1
					c-2.9,1.9-6.9,1.6-9.2-0.5c0,0-1.4-1.3-0.6-7C174.8,2157.8,174.5,2157.6,176.8,2156.1z"/>
				<path class="st13" d="M214.9,2176.6l8.4,1.7c6.2-0.8,9.3-1.9,11.3,0.5l0.6,0.7c1.9,2.2,0.9,4.8-2.4,5.6l-14.9,6
					c-3.3,0.8-6.9-1.1-8.5-4c0,0-0.9-1.8,1.7-6.8C212.4,2177.4,212.3,2177.2,214.9,2176.6z"/>
				<path class="st19" d="M220.8,2178.8c0,4.5-10.3,4.5-10.3,0v-14.7h10.3V2178.8z"/>
				<path class="st17" d="M222.1,2169.5c-1.3,5.7-12,5.3-14.1,1.6c0.6-49.6-5.8-153.7-5.8-153.7l26.4,0.4
					C228.7,2068.5,226.8,2119.1,222.1,2169.5z"/>
				<path class="st19" d="M184.8,2157.6c-0.1,4.1-10.3,4.6-10.3,0.5l0.2-13.4l10.3-0.5L184.8,2157.6z"/>
				<path class="st17" d="M186.7,2151.6c-4,4.8-12.1,3.2-13.9,0l0.1-133l26.1,2.9L186.7,2151.6z"/>
				
					<ellipse transform="matrix(0.9673 -0.2537 0.2537 0.9673 -480.2094 113.4891)" class="st14" cx="199.9" cy="1918.6" rx="10.1" ry="18.8"/>
				<path class="st14" d="M218.6,1922.9c-1,8.9-9.2,13.6-15,8.9s-9.9-15.9-8.9-24.8s6.6-12.4,12.6-7.7
					C213.1,1903.9,219.7,1913.9,218.6,1922.9z"/>
				<path class="st14" d="M200.5,1951.8l-0.9-0.2c-3.2-0.8-3.8-4.3-3-7.8l2.5-19.3c0.7-3.5,4-5.6,7.2-4.8l0.9,0.2
					c3.2,0.8,5.3,4.3,4.5,7.7l-1.3,19.3C209.6,1950.2,203.7,1952.5,200.5,1951.8z"/>
				<path class="st13" d="M191.1,1925.8c0,0,1.2,4.6,9.8,4.1c8.2-0.5,5.3-13.3,12.7-15.9c8.3-3,7.4-12.8,3.4-16.5
					c-4-3.8-13.6-4.3-19.9,0S183.7,1905.3,191.1,1925.8z"/>
				<ellipse class="st14" cx="209.9" cy="1919.7" rx="3.7" ry="4"/>
				<path class="st18" d="M169.5,2018.1c1.6-17.6,1.3-30.4,1.6-49.5c-1.6-48,34.3-29.4,36.4-28.3c22.2,12.2,23.7,14.4,23.1,28.4
					c0.1,23.4,1,51.4,0.6,63C226.4,2048,174.5,2029.8,169.5,2018.1z"/>
				<path class="st20" d="M255.8,1909.8"/>
				<path class="st13" d="M140.3,1914.3c-2.9,9.1-0.9,18,4.3,19.8c5.3,1.9,11.8-4,14.6-12.9c2.9-9.1,0.9-18-4.3-19.8
					S143.1,1905.3,140.3,1914.3z"/>
				<path class="st13" d="M116.5,2127l-2.4,7.5c-0.2,5.7,0.3,8.8-1.9,10.2l-0.6,0.4c-2.1,1.4-4,0.2-4.2-3l-2.9-14.4
					c-0.2-3.2,1.7-6.1,4.3-7.2c0,0,1.4-0.6,5.3,2.4C116.2,2124.7,116.3,2124.6,116.5,2127z"/>
				<path class="st16" d="M210.6,1942.3c0,0-9.2-6.7-14.4-6C196.2,1936.2,198.9,1944.2,210.6,1942.3z"/>
				<path class="st14" d="M252.5,2063.3L252.5,2063.3c2-0.9,3-3.3,2.1-5.5l-2.4-6.3c-0.9-2.2-3.1-3.2-5.2-2.2l0,0
					c-2,0.9-3,3.3-2.1,5.5l2.4,6.3C248.3,2063.2,250.6,2064.3,252.5,2063.3z"/>
				<polygon class="st18" points="234.5,1979.7 240.2,2014.9 253.1,2050.4 244.3,2054.1 228.3,2017.3 224.1,1988.6 				"/>
				<path class="st18" d="M228.5,1955.1c0,0,6.3,9.4,6.9,36.9l-15.7,4.6l-2.3-29.4L228.5,1955.1z"/>
			</g>
			<path class="st11" d="M169.5,2009.7c0,0,5.9,10,24.8,15.8c18.3,5.6,28.8,4.8,36.9,0"/>
			<line class="st11" x1="220.8" y1="1981.6" x2="226.4" y2="2014.2"/>
			<path class="st11" d="M177.5,1941.5c0,0-6.3,13.6-6.7,47.8"/>
			<line class="st11" x1="240.8" y1="2046.9" x2="250" y2="2043.1"/>
		</g>
		<path class="st21" d="M172.5,2142.5c0,0,4.3,5.4,14.6,1.2"/>
		<path class="st21" d="M208.2,2162.9c0,0,4.3,5.4,14.6,1.2"/>
	</g>
	<g>
		<polygon class="st12" points="336,2231.9 281.7,2220 251,2202.7 303.9,2159.2 352.1,2189 352.1,2222.1 		"/>
		<path class="st13" d="M313.5,2198.8l0.6-0.3c1.4-0.9,2.9-3.3,2.9-5.5v-3c0-2.1-1.3-3-2.7-2.2l-0.7,0.3c-1.4,0.9-3,3.3-3,5.5v3
			C310.7,2198.8,312.1,2199.8,313.5,2198.8z"/>
		<path class="st13" d="M253.5,2203l0.6-0.3c1.4-0.9,2.9-3.3,2.9-5.5v-3c0-2.1-1.3-3-2.7-2.2l-0.7,0.3c-1.4,0.9-3,3.3-3,5.5v3
			C250.5,2203,252,2203.9,253.5,2203z"/>
		<path class="st13" d="M281.7,2220l0.6-0.3c1.4-0.9,2.9-3.3,2.9-5.5v-3c0-2.1-1.3-3-2.7-2.2l-0.7,0.3c-1.4,0.9-3,3.3-3,5.5v3
			C278.7,2219.8,280.1,2220.8,281.7,2220z"/>
		<path class="st22" d="M259.3,2097.5l23.8-15.4c2.6-1.6,4.8-1.8,6.6-0.9l26,9.2l0,0c3.9,1.1,5.2,5.2,5.2,11.3v67.9
			c0,9.9-5.3,21.2-12.2,25.4l-26.8,16.7c-3.7,2.2-6.9,1.9-9.2-0.2h-0.1l-17.9-11.3l0,0c-2.6-1.1-5.2-5.2-5.2-11.3V2121
			C249.5,2111.2,252.5,2101.7,259.3,2097.5z"/>
		<path class="st23" d="M289,2207.6l23.1-14.7c6.9-4.3,8.9-8.3,8.9-18.1v-73c0-9.9-5.3-14.3-12.2-10l-23.2,14.5
			c-6.9,4.3-8.7,13.6-8.7,23.4v67.9C276.8,2207.3,282.1,2211.9,289,2207.6z"/>
		<path class="st24" d="M313.5,2090.2c-1.4,0-3.1,0.5-4.8,1.6l-23.2,14.5c-6.9,4.3-8.7,13.6-8.7,23.4v67.9"/>
		<path class="st21" d="M300,2084.8l-27.4,17.2c-6.9,4.3-8.7,13.6-8.7,23.4v78.9"/>
		<path class="st16" d="M304.5,2109.3l6.3-3.8c0.7-0.5,1.4-1.8,1.4-2.9l0,0c0-1.1-0.6-1.7-1.4-1.2l-6.3,3.8
			c-0.7,0.5-1.4,1.8-1.4,2.9l0,0C303.1,2109.3,303.7,2109.8,304.5,2109.3z"/>
		<path class="st13" d="M271.5,2073l15.9-10c1.4-0.9,2.5-0.2,2.5,1.7v1.4v1.8c0,0.2,0,0.3,0,0.5c0,0.1,0,0.3,0,0.4v7.5v9.2v0.8
			c0,1.2-0.9,2.1-1.9,2.1c-1.1,0-1.9-1-1.9-2.1v-10l0,0v-7.4l-13,7.5v3.5v1.3v15.6c0,1.1-0.9,1.9-1.9,1.9H271c-1,0-1.9-0.9-1.9-1.9
			v-15.4v-1.4v-0.4v-1.4C269.1,2076.3,270,2074,271.5,2073z"/>
		<path class="st21" d="M312.1,2112.5c-0.2,3,0,62.4,0,62.4"/>
		<path class="st21" d="M300.5,2121.3c-0.2,3,0,62.4,0,62.4"/>
		<path class="st21" d="M288.7,2130.1c-0.2,3,0,62.4,0,62.4"/>
	</g>
</g>
<path class="st1" d="M1512-196.6"/>
</svg>
