<?xml version="1.0" encoding="utf-8"?>
<!-- Generator: Adobe Illustrator 24.2.1, SVG Export Plug-In . SVG Version: 6.00 Build 0)  -->
<svg version="1.1" id="Layer_1" xmlns="http://www.w3.org/2000/svg" xmlns:xlink="http://www.w3.org/1999/xlink" x="0px" y="0px"
	 viewBox="0 0 1125 2436" style="enable-background:new 0 0 1125 2436;" xml:space="preserve">
<style type="text/css">
	.st0{fill:url(#SVGID_2_);}
	.st1{fill:#446B77;}
	.st2{clip-path:url(#SVGID_4_);}
	.st3{fill:#91BCC6;}
	.st4{fill:#A6DAE8;}
	.st5{fill:#5F9CAA;}
	.st6{clip-path:url(#SVGID_4_);fill:#DEEBEF;}
	.st7{fill:url(#SVGID_5_);}
	.st8{clip-path:url(#SVGID_7_);fill:url(#SVGID_8_);}
	.st9{clip-path:url(#SVGID_10_);fill:url(#SVGID_11_);}
	.st10{fill:#5C93A0;}
	.st11{fill:url(#SVGID_12_);}
	.st12{fill:url(#SVGID_13_);}
	.st13{fill:url(#SVGID_14_);}
	.st14{fill:none;stroke:url(#SVGID_15_);stroke-width:5;stroke-linecap:round;stroke-linejoin:round;stroke-miterlimit:10;}
	.st15{fill:url(#SVGID_16_);}
	.st16{fill:url(#SVGID_17_);}
	.st17{fill:none;stroke:#CFCAB6;stroke-width:1.1548;stroke-linecap:round;stroke-linejoin:round;stroke-miterlimit:10;}
	.st18{opacity:0.19;fill:#634194;enable-background:new    ;}
	.st19{fill:#4A306E;}
	.st20{fill:#FFC2B0;}
	.st21{fill:#346E78;}
	.st22{fill:#FFFFFF;}
	.st23{fill:#654296;}
	.st24{fill:#EDE8D8;}
	.st25{fill:#C6D2F2;}
	.st26{fill:#5981EB;}
	.st27{fill:none;stroke:#4A306E;stroke-width:1.1548;stroke-linecap:round;stroke-linejoin:round;stroke-miterlimit:10;}
	.st28{fill:#F9F1E5;}
	.st29{fill:none;stroke:#FFFFFF;stroke-width:1.1548;stroke-linecap:round;stroke-linejoin:round;stroke-miterlimit:10;}
	.st30{enable-background:new    ;}
	.st31{fill:#A4A4A4;}
	.st32{fill:#C5C5C5;}
	.st33{clip-path:url(#SVGID_19_);enable-background:new    ;}
	.st34{fill:#B8B8B8;}
	.st35{fill:#B3B3B3;}
	.st36{fill:#ADADAD;}
	.st37{fill:#A8A8A8;}
	.st38{fill:#A3A3A3;}
	.st39{fill:#9E9E9E;}
	.st40{fill:#999999;}
	.st41{fill:#949494;}
	.st42{fill:#8F8F8F;}
	.st43{fill:#8A8A8A;}
	.st44{fill:#858585;}
	.st45{clip-path:url(#SVGID_21_);enable-background:new    ;}
	.st46{fill:#808080;}
	.st47{fill:#818181;}
	.st48{fill:#DCDCDC;}
</style>
<g>
	<g>
		
			<linearGradient id="SVGID_2_" gradientUnits="userSpaceOnUse" x1="2417.3999" y1="6347.6357" x2="2417.3999" y2="6344.6357" gradientTransform="matrix(1 0 0 -1 0 6608)">
			<stop  offset="0" style="stop-color:#486975"/>
			<stop  offset="0.584" style="stop-color:#213540"/>
		</linearGradient>
		<path class="st0" d="M2417.4,263.4c1.9,0,1.9-3,0-3S2415.5,263.4,2417.4,263.4L2417.4,263.4z"/>
	</g>
</g>
<path class="st1" d="M1512-196.6"/>
<g>
	<defs>
		<rect id="SVGID_3_" x="-3" y="-5.8" width="1126.2" height="2445.1"/>
	</defs>
	<clipPath id="SVGID_4_">
		<use xlink:href="#SVGID_3_"  style="overflow:visible;"/>
	</clipPath>
	<g class="st2">
		<g>
			<g>
				<polygon class="st3" points="1040.1,1869 560.2,2153.4 77,1869 557,1585.6 				"/>
			</g>
			<g>
				<polygon class="st4" points="1040.1,1869 1038.8,1955.3 558.9,2238.7 560.2,2153.4 				"/>
			</g>
			<g>
				<polygon class="st5" points="560.2,2153.4 558.9,2237.4 75.7,1952.9 77,1869 				"/>
			</g>
		</g>
	</g>
	<rect x="-3" y="-5.8" class="st6" width="1178.1" height="2452.7"/>
	<g class="st2">
		<g>
			
				<linearGradient id="SVGID_5_" gradientUnits="userSpaceOnUse" x1="-6.5571" y1="688.1987" x2="1733.2407" y2="688.1987" gradientTransform="matrix(0.7071 0.7071 0.7071 -0.7071 286.6861 1404.9838)">
				<stop  offset="0" style="stop-color:#A5D9E6"/>
				<stop  offset="1" style="stop-color:#247581"/>
			</linearGradient>
			<path id="SVGID_1_" class="st7" d="M879.9,2531.1c-255.1-29.5-272.4-231.4-195.5-346.6c108.9-163.2,214-140.6,46.1-397.9
				c-57-87.3-81.6-200.5-43.9-300.2c27.1-71.8,86.1-131.8,159-155.8c40.5-13.3,83.8-15.6,125.5-24.9s84.2-27.7,107.4-63.5
				c22.4-34.4,22.9-78.8,15.9-119.3c-16.8-97.4-73.3-185.3-81.3-284.5c-6.8-83.6,17.7-180.7,74.9-243.6
				c74.8-82.3,194.5-103.5,300.1-113.1c123.9-11.3,249.6,3.2,368.8,37.8c152.8,44.3,295.1,121.1,422.6,216.2
				c113.5,84.7,216.9,185.2,291.7,305.5c118.3,190.2,193.6,504.1-29.9,650.4c-269,176.1-455.7-107.6-461.2,177.8
				c-3.3,170.8-116.6,441.4-454,319.6C1188.7,2067.1,1247.2,2573.5,879.9,2531.1z"/>
		</g>
		<g>
			<defs>
				<path id="SVGID_6_" d="M879.9,2531.1c-255.1-29.5-272.4-231.4-195.5-346.6c108.9-163.2,214-140.6,46.1-397.9
					c-57-87.3-81.6-200.5-43.9-300.2c27.1-71.8,86.1-131.8,159-155.8c40.5-13.3,83.8-15.6,125.5-24.9s84.2-27.7,107.4-63.5
					c22.4-34.4,22.9-78.8,15.9-119.3c-16.8-97.4-73.3-185.3-81.3-284.5c-6.8-83.6,17.7-180.7,74.9-243.6
					c74.8-82.3,194.5-103.5,300.1-113.1c123.9-11.3,249.6,3.2,368.8,37.8c152.8,44.3,295.1,121.1,422.6,216.2
					c113.5,84.7,216.9,185.2,291.7,305.5c118.3,190.2,193.6,504.1-29.9,650.4c-269,176.1-455.7-107.6-461.2,177.8
					c-3.3,170.8-116.6,441.4-454,319.6C1188.7,2067.1,1247.2,2573.5,879.9,2531.1z"/>
			</defs>
			<clipPath id="SVGID_7_">
				<use xlink:href="#SVGID_6_"  style="overflow:visible;"/>
			</clipPath>
			
				<linearGradient id="SVGID_8_" gradientUnits="userSpaceOnUse" x1="-696.2751" y1="-910.8593" x2="-1108.0573" y2="-1674.8229" gradientTransform="matrix(0.3439 0.939 0.939 -0.3439 2799.9412 1847.9261)">
				<stop  offset="0" style="stop-color:#A5D9E6"/>
				<stop  offset="1" style="stop-color:#247581"/>
			</linearGradient>
			<path class="st8" d="M1179.6,2527.9c-256.7,6.1-301.8-191.5-241.6-316.2c85.3-176.7,192.5-168.9-9.4-400.4
				C860,1732.6,820,1624,843.5,1520c16.9-74.8,67-142.5,135.9-176.3c38.3-18.8,80.8-27.1,120.8-42.1s79.5-39.1,97.6-77.7
				c17.4-37.2,11.8-81.2-0.7-120.4c-30.1-94.2-98.2-173.3-119.9-270.5c-18.3-81.9-7.5-181.4,40.4-251.6
				c62.7-91.9,178.3-129.4,281.6-153.6c121.1-28.3,247.6-31.4,370.5-13.7c157.4,22.8,309,79.1,448.4,155.7
				c124.1,68.2,240.4,153.4,331.2,262.2c143.5,172,261.5,472.5,60.4,648.3c-242,211.6-466.2-43.5-432.1,239.9
				c20.4,169.6-54.4,453.3-405.4,379.4C1421.2,2025.6,1549.3,2519.1,1179.6,2527.9z"/>
		</g>
		<g>
			<defs>
				<path id="SVGID_9_" d="M879.9,2531.1c-255.1-29.5-272.4-231.4-195.5-346.6c108.9-163.2,214-140.6,46.1-397.9
					c-57-87.3-81.6-200.5-43.9-300.2c27.1-71.8,86.1-131.8,159-155.8c40.5-13.3,83.8-15.6,125.5-24.9s84.2-27.7,107.4-63.5
					c22.4-34.4,22.9-78.8,15.9-119.3c-16.8-97.4-73.3-185.3-81.3-284.5c-6.8-83.6,17.7-180.7,74.9-243.6
					c74.8-82.3,194.5-103.5,300.1-113.1c123.9-11.3,249.6,3.2,368.8,37.8c152.8,44.3,295.1,121.1,422.6,216.2
					c113.5,84.7,216.9,185.2,291.7,305.5c118.3,190.2,193.6,504.1-29.9,650.4c-269,176.1-455.7-107.6-461.2,177.8
					c-3.3,170.8-116.6,441.4-454,319.6C1188.7,2067.1,1247.2,2573.5,879.9,2531.1z"/>
			</defs>
			<clipPath id="SVGID_10_">
				<use xlink:href="#SVGID_9_"  style="overflow:visible;"/>
			</clipPath>
			
				<linearGradient id="SVGID_11_" gradientUnits="userSpaceOnUse" x1="-813.1885" y1="-630.9914" x2="-1224.9954" y2="-1395.0012" gradientTransform="matrix(0.4404 0.8978 0.8978 -0.4404 2741.6091 1928.5739)">
				<stop  offset="0" style="stop-color:#A5D9E6"/>
				<stop  offset="1" style="stop-color:#247581"/>
			</linearGradient>
			<path class="st9" d="M1401.3,2546.3c-254.6,32.9-397.1-155.5-350.3-285.8c66.3-184.6,250.7-191.5,25.6-400.6
				c-76.4-71-127.6-174.8-115-280.8c9-76.2,51.8-148.7,116.7-189.6c36.1-22.7,77.6-35.4,115.7-54.5c38.2-19.1,75-47.2,89-87.5
				c13.4-38.8,3.2-82-13.3-119.7c-39.8-90.5-115.8-162.1-147.6-256.4c-26.8-79.5-26.4-179.7,13.8-254.5
				c52.7-97.9,163.8-147.4,264-182.2c117.5-40.9,242.9-57.2,367-52.4c159,6.1,315.6,46.3,462.3,107.8
				c130.6,54.8,255.2,127.4,356.8,226c160.7,156,309.5,442.5,128,638.4c-218.5,235.8-468.2,5.6-404.6,283.9
				c38,166.5-6.6,456.5-363.5,419.8C1588.9,2021.5,1768,2498.8,1401.3,2546.3z"/>
		</g>
	</g>
	<g class="st2">
		<g>
			<g>
				<g>
					<g>
						<polygon class="st10" points="482.5,1734.6 482,1925.8 340.8,1842.7 341.2,1651.7 						"/>
					</g>
				</g>
			</g>
			<g>
				<g>
					<g>
						<g>
							<polygon class="st5" points="556.9,1588.6 645.8,1640.2 468.5,1744.3 							"/>
						</g>
						<g>
							
								<linearGradient id="SVGID_12_" gradientUnits="userSpaceOnUse" x1="414.3" y1="-5603.75" x2="645.8" y2="-5603.75" gradientTransform="matrix(1 0 0 1 0 7176)">
								<stop  offset="0" style="stop-color:#486975"/>
								<stop  offset="0.584" style="stop-color:#213540"/>
							</linearGradient>
							<polygon class="st11" points="556.9,1588.6 414.3,1504.3 503.1,1555.8 645.8,1640.2 							"/>
						</g>
						<g>
							
								<linearGradient id="SVGID_13_" gradientUnits="userSpaceOnUse" x1="325.9" y1="-5551.7002" x2="556.9" y2="-5551.7002" gradientTransform="matrix(1 0 0 1 0 7176)">
								<stop  offset="0" style="stop-color:#486975"/>
								<stop  offset="0.584" style="stop-color:#213540"/>
							</linearGradient>
							<polygon class="st12" points="468.5,1744.3 325.9,1659.9 414.3,1504.3 556.9,1588.6 							"/>
						</g>
					</g>
				</g>
			</g>
			<g>
				<g>
					<polygon class="st4" points="622.7,1651.7 622.2,1844 482,1926.9 482.5,1734.6 					"/>
				</g>
			</g>
			<g>
				
					<linearGradient id="SVGID_14_" gradientUnits="userSpaceOnUse" x1="378.7" y1="-3260.9946" x2="432.8287" y2="-3260.9946" gradientTransform="matrix(1 1.1719 0 1 0 4644.4111)">
					<stop  offset="0" style="stop-color:#486975"/>
					<stop  offset="0.584" style="stop-color:#213540"/>
				</linearGradient>
				<path class="st13" d="M432.8,1896.9l-54.1-32.3v-28.5c0-14.7,11.7-19.6,26.1-11l1,0.6c14.9,8.9,27.1,28.4,27.1,43.7v27.5H432.8z
					"/>
			</g>
			<g>
				
					<linearGradient id="SVGID_15_" gradientUnits="userSpaceOnUse" x1="375.9" y1="-4823.52" x2="446.1194" y2="-4823.52" gradientTransform="matrix(1 0.3378 0 1 0 6458.0415)">
					<stop  offset="0" style="stop-color:#486975"/>
					<stop  offset="0.584" style="stop-color:#213540"/>
				</linearGradient>
				<path class="st14" d="M378.4,1746.7c0,0,2.2,32.1,33.9,43c31.6,10.8,31.4-21.2,31.4-21.2"/>
			</g>
		</g>
		<g>
			
				<linearGradient id="SVGID_16_" gradientUnits="userSpaceOnUse" x1="1512.9587" y1="-4321.4702" x2="1531.4976" y2="-4321.4702" gradientTransform="matrix(0.7668 -0.2332 0.2332 1.2332 241.9749 7417.9741)">
				<stop  offset="0" style="stop-color:#486975"/>
				<stop  offset="0.584" style="stop-color:#213540"/>
			</linearGradient>
			<path class="st15" d="M408.5,1731.5c1.2,6.3-1,12.7-5,14c-3.9,1.2-7.9-3-9.4-9.4c-1.2-6.3,1-12.7,5-14
				C403.2,1720.9,407.4,1725.1,408.5,1731.5z"/>
		</g>
		<g>
			
				<linearGradient id="SVGID_17_" gradientUnits="userSpaceOnUse" x1="1533.2107" y1="-4311.4697" x2="1551.7495" y2="-4311.4697" gradientTransform="matrix(0.7668 -0.2332 0.2332 1.2332 241.9749 7417.9741)">
				<stop  offset="0" style="stop-color:#486975"/>
				<stop  offset="0.584" style="stop-color:#213540"/>
			</linearGradient>
			<path class="st16" d="M426.4,1739.1c1.2,6.3-1,12.7-5,14c-4,1.2-7.9-3-9.4-9.4c-1.2-6.3,1-12.7,5-14
				C421,1728.3,425.2,1732.8,426.4,1739.1z"/>
		</g>
	</g>
	<g class="st2">
		<line class="st17" x1="145.5" y1="1894.6" x2="151.2" y2="1883.4"/>
		<g>
			<g>
				<g>
					<path class="st18" d="M104.6,2127.9c0.8-16.2,27.7-29.7,56.6-28.1c25.2,1.4,54.6,12.5,59.1,26.1c19.5-1.8,40,1.5,54.2,9.6
						c22.9,12.9,21,33.7-4,46.2c-25.2,12.5-64.1,12.2-86.9-0.9c-10.9-6.1-16.2-14.2-15.9-22.2c-0.1,0-0.1,0-0.3,0
						C138.3,2157,103.9,2144.1,104.6,2127.9z"/>
					<path class="st19" d="M183.4,2122.5l10.3,2.8c7.6-0.5,11.5-1.6,13.8,1.4l0.8,0.9c2.4,3,0.8,6-3.4,6.6l-18.7,6.4
						c-4,0.8-8.3-1.8-10.3-5.4c0,0-1.1-2.3,2.4-8.3C180.3,2123.3,180.2,2123.2,183.4,2122.5z"/>
					<path class="st20" d="M132.1,2035.4l-24.9,65.1c-2.9,8,6.8,9,9.5,4.6l34.1-82.5L132.1,2035.4z"/>
					<path class="st20" d="M178.2,1981.8l0.5,145.8c-0.1,9.1,9,6.5,10.3,1l8.9-135.4L178.2,1981.8z"/>
					<path class="st19" d="M208.7,1940.7L191.2,2116c0,0-7,10.4-15.2-0.9l0.8-145.8l-1.8-30.7L208.7,1940.7z"/>
					<path class="st19" d="M168.5,1940.3l-10.6,78.7c-0.4,2.3-0.9,4.4-1.8,6.4l-28.2,61.6c0,0-12.3,7.1-17.3-7.6l27.1-64.1
						c0.5-1.3,0.8-2.4,0.9-3.8l7.4-82.4L168.5,1940.3z"/>
					<polygon class="st19" points="160.2,1937.8 196.2,1959.8 183.2,1984.3 147.1,1962.3 					"/>
					<path class="st20" d="M194.2,1844c-0.4,11.4-7.9,12.9-15.8,7.8c-7.9-5.1-12.9-15.2-12.8-26.6c0.4-11.4,7-16.3,14.8-11.1
						C188.2,1819.2,194.4,1832.8,194.2,1844z"/>
					<path class="st20" d="M203.8,1837.8c-0.4,11.4-9.9,18-17.8,12.8c-7.9-5.1-14-18.5-13.8-29.9c0.4-11.4,7-16.3,14.8-11.1
						C194.9,1814.9,204.1,1826.4,203.8,1837.8z"/>
					<path class="st20" d="M175.3,1876.2l-0.9-0.4c-3-1.1-2.6-5.5-1.3-9.8l6.5-23.3c1.4-4.1,5-6.5,7.9-5.4l0.9,0.4
						c3,1.1,4.1,5.5,2.8,9.6l-5.4,23.5C184.7,1874.8,178.4,1877.3,175.3,1876.2z"/>
					<path class="st19" d="M169.8,1844.8c0,0,2,5.6,12.5,4c10-1.6,5-17.3,14.2-21.5c9.9-4.8,7.9-16.9,2.4-21.2
						c-5.4-4.1-17.5-3.8-24.8,2.4C166.9,1814.9,158.2,1820.3,169.8,1844.8z"/>
					<path class="st20" d="M197.3,1835.1c-0.1,2.8-2.1,5-4.9,4.8c-2.5-0.1-4.6-2.4-4.5-5.1c0.1-2.8,2.1-5,4.9-4.8
						C195.3,1829.9,197.3,1832.3,197.3,1835.1z"/>
					<path class="st21" d="M158.1,1858.9c-7.3,4.8-11.9,13.2-12.5,22.3l-3.9,57.5c0,0-0.9,9.9,27.2,20.5c22.7,8.6,39.7,6.5,41.3,3.8
						l-1.4-62.1l20.2,14.8c0,0-3.6-30.3-30.3-48.4c-4.9-3.4-12.2-7.4-18-10.5c-8.8-4.8-12.9-3.4-21.5,1.8
						C158.6,1858.5,158.2,1858.6,158.1,1858.9z"/>
					<path class="st21" d="M180,1823.3c0.9,6.8-2.8,12.8-8.3,13.5c-5.4,0.8-10.5-4-11.5-10.8c-0.9-6.8,2.8-12.8,8.3-13.5
						S179.2,1816.7,180,1823.3z"/>
					<path class="st22" d="M188.6,1861.1c0,0-8.3-7.6-14.7-6.8C173.9,1854.4,173.8,1863.4,188.6,1861.1z"/>
					<path class="st20" d="M148.1,1881.9L148.1,1881.9c3.1,1.5,4.6,5.4,3.3,8.8l-1.1,2.8c-1.4,3.4-5,5-8.3,3.4l0,0
						c-3.1-1.5-4.6-5.4-3.3-8.8l1.1-2.8C141.2,1881.9,145,1880.4,148.1,1881.9z"/>
					<polygon class="st23" points="207.6,1976.4 246.8,1990.9 238.2,2017.5 199,2002.9 					"/>
					<path class="st24" d="M230.8,1869.5l-28.9,47c-4.1,7.9-18.5,10.5-25.8,4.8l-29.3-24.7l5.3-9.9l28.2,14.4
						c0,0,11.8-32.8,19.9-37.2C208.5,1859.6,230.8,1869.5,230.8,1869.5z"/>
					<path class="st19" d="M195.1,2137l10.5-2c7-3.8,10.3-6.5,13.4-4.8l0.9,0.5c3.3,1.8,3,5.4-0.5,7.6l-15,13.9
						c-3.6,2.4-8.6,2-11.5-0.6c0,0-1.8-1.6-0.8-8.8C192.6,2139.1,192.2,2138.8,195.1,2137z"/>
					<path class="st19" d="M242.8,2162.6l10.5,2.1c7.8-1,11.6-2.4,14.2,0.6l0.8,0.9c2.4,2.8,1.1,6-3,7l-18.7,7.5
						c-4.1,1-8.6-1.4-10.6-5c0,0-1.1-2.3,2.1-8.5C239.7,2163.6,239.5,2163.4,242.8,2162.6z"/>
					<path class="st25" d="M250.2,2165.4c0,5.6-12.9,5.6-12.9,0V2147h12.9V2165.4z"/>
					<path class="st23" d="M251.8,2153.7c-1.6,7.1-15,6.6-17.7,2c0.8-62.1-7.3-192.5-7.3-192.5l33.1,0.5
						C260.1,2027.2,257.7,2090.6,251.8,2153.7z"/>
					<path class="st25" d="M205.1,2138.8c-0.1,5.1-12.9,5.8-12.9,0.6l0.3-16.8l12.9-0.6L205.1,2138.8z"/>
					<path class="st23" d="M207.5,2131.3c-5,6-15.2,4-17.4,0l0.1-166.6l32.7,3.6L207.5,2131.3z"/>
					
						<ellipse transform="matrix(0.9673 -0.2537 0.2537 0.9673 -459.3538 117.0132)" class="st20" cx="224" cy="1839.5" rx="12.7" ry="23.5"/>
					<path class="st20" d="M247.4,1844.8c-1.3,11.1-11.5,17-18.8,11.1s-12.4-19.9-11.1-31.1c1.3-11.1,8.3-15.5,15.8-9.6
						C240.5,1821,248.8,1833.6,247.4,1844.8z"/>
					<path class="st20" d="M224.8,1881l-1.1-0.3c-4-1-4.8-5.4-3.8-9.8l3.1-24.2c0.9-4.4,5-7,9-6l1.1,0.3c4,1,6.6,5.4,5.6,9.6
						l-1.6,24.2C236.2,1879,228.8,1881.9,224.8,1881z"/>
					<path class="st19" d="M213,1848.5c0,0,1.5,5.8,12.3,5.1c10.3-0.6,6.6-16.7,15.9-19.9c10.4-3.8,9.3-16,4.3-20.7
						c-5-4.8-17-5.4-24.9,0C212.6,1818.4,203.7,1822.8,213,1848.5z"/>
					<ellipse class="st20" cx="236.5" cy="1840.8" rx="4.6" ry="5"/>
					<path class="st24" d="M185.9,1964.1c2-22,1.6-38.1,2-62c-2-60.1,43-36.8,45.6-35.4c27.8,15.3,29.7,18,28.9,35.6
						c0.1,29.3,1.3,64.4,0.8,78.9C257.2,2001.5,192.2,1978.7,185.9,1964.1z"/>
					<path class="st26" d="M294,1828.4"/>
					<path class="st19" d="M149.3,1834.1c-3.6,11.4-1.1,22.5,5.4,24.8c6.6,2.4,14.8-5,18.3-16.2c3.6-11.4,1.1-22.5-5.4-24.8
						C161.1,1815.7,152.9,1822.8,149.3,1834.1z"/>
					<path class="st19" d="M119.5,2100.5l-3,9.4c-0.3,7.1,0.4,11-2.4,12.8l-0.8,0.5c-2.6,1.8-5,0.3-5.3-3.8l-3.6-18
						c-0.3-4,2.1-7.6,5.4-9c0,0,1.8-0.8,6.6,3C119.2,2097.6,119.3,2097.5,119.5,2100.5z"/>
					<path class="st22" d="M237.4,1869.1c0,0-11.5-8.4-18-7.5C219.4,1861.5,222.8,1871.5,237.4,1869.1z"/>
					<path class="st20" d="M289.9,2020.7L289.9,2020.7c2.5-1.1,3.8-4.1,2.6-6.9l-3-7.9c-1.1-2.8-3.9-4-6.5-2.8l0,0
						c-2.5,1.1-3.8,4.1-2.6,6.9l3,7.9C284.6,2020.6,287.5,2022,289.9,2020.7z"/>
					<polygon class="st24" points="267.3,1916 274.5,1960.1 290.6,2004.5 279.6,2009.2 259.6,1963.1 254.3,1927.1 					"/>
					<path class="st24" d="M259.8,1885.2c0,0,7.9,11.8,8.6,46.2l-19.7,5.8l-2.9-36.8L259.8,1885.2z"/>
				</g>
				<path class="st17" d="M185.9,1953.6c0,0,7.4,12.5,31.1,19.8c22.9,7,36.1,6,46.2,0"/>
				<line class="st17" x1="250.2" y1="1918.4" x2="257.2" y2="1959.2"/>
				<path class="st17" d="M195.9,1868.1c0,0-7.9,17-8.4,59.9"/>
				<line class="st17" x1="275.2" y1="2000.2" x2="286.8" y2="1995.4"/>
			</g>
			<path class="st27" d="M189.7,2119.9c0,0,5.4,6.8,18.3,1.5"/>
			<path class="st27" d="M234.4,2145.5c0,0,5.4,6.8,18.3,1.5"/>
		</g>
		<g>
			<polygon class="st18" points="394.5,2231.9 326.5,2217 288,2195.3 354.3,2140.8 414.7,2178.2 414.7,2219.6 			"/>
			<path class="st19" d="M366.3,2190.4l0.8-0.4c1.8-1.1,3.6-4.1,3.6-6.9v-3.8c0-2.6-1.6-3.8-3.4-2.8l-0.9,0.4
				c-1.8,1.1-3.8,4.1-3.8,6.9v3.8C362.8,2190.4,364.5,2191.7,366.3,2190.4z"/>
			<path class="st19" d="M291.1,2195.7l0.8-0.4c1.8-1.1,3.6-4.1,3.6-6.9v-3.8c0-2.6-1.6-3.8-3.4-2.8l-0.9,0.4
				c-1.8,1.1-3.8,4.1-3.8,6.9v3.8C287.4,2195.7,289.3,2196.8,291.1,2195.7z"/>
			<path class="st19" d="M326.5,2217l0.8-0.4c1.8-1.1,3.6-4.1,3.6-6.9v-3.8c0-2.6-1.6-3.8-3.4-2.8l-0.9,0.4
				c-1.8,1.1-3.8,4.1-3.8,6.9v3.8C322.7,2216.7,324.5,2218,326.5,2217z"/>
			<path class="st3" d="M298.4,2063.5l29.8-19.3c3.3-2,6-2.3,8.3-1.1l32.6,11.5l0,0c4.9,1.4,6.5,6.5,6.5,14.2v85.1
				c0,12.4-6.6,26.6-15.3,31.8l-33.6,20.9c-4.6,2.8-8.6,2.4-11.5-0.3h-0.1l-22.4-14.2l0,0c-3.3-1.4-6.5-6.5-6.5-14.2V2093
				C286.1,2080.7,289.9,2068.8,298.4,2063.5z"/>
			<path class="st28" d="M335.6,2201.5l28.9-18.4c8.6-5.4,11.1-10.4,11.1-22.7V2069c0-12.4-6.6-17.9-15.3-12.5l-29.1,18.2
				c-8.6,5.4-10.9,17-10.9,29.3v85.1C320.3,2201.1,327,2206.8,335.6,2201.5z"/>
			<path class="st29" d="M366.3,2054.4c-1.8,0-3.9,0.6-6,2l-29.1,18.2c-8.6,5.4-10.9,17-10.9,29.3v85.1"/>
			<path class="st27" d="M349.4,2047.6l-34.3,21.5c-8.6,5.4-10.9,17-10.9,29.3v98.8"/>
			<path class="st22" d="M355,2078.3l7.9-4.8c0.9-0.6,1.8-2.3,1.8-3.6l0,0c0-1.4-0.8-2.1-1.8-1.5l-7.9,4.8c-0.9,0.6-1.8,2.3-1.8,3.6
				l0,0C353.3,2078.3,354,2079,355,2078.3z"/>
			<path class="st19" d="M313.7,2032.9l19.9-12.5c1.8-1.1,3.1-0.3,3.1,2.1v1.8v2.3c0,0.3,0,0.4,0,0.6c0,0.1,0,0.4,0,0.5v9.4v11.5v1
				c0,1.5-1.1,2.6-2.4,2.6c-1.4,0-2.4-1.3-2.4-2.6V2037l0,0v-9.3l-16.3,9.4v4.4v1.6v19.5c0,1.4-1.1,2.4-2.4,2.4h-0.3
				c-1.3,0-2.4-1.1-2.4-2.4v-19.3v-1.8v-0.5v-1.8C310.7,2037,311.8,2034.1,313.7,2032.9z"/>
			<path class="st27" d="M364.5,2082.3c-0.3,3.8,0,78.2,0,78.2"/>
			<path class="st27" d="M350,2093.4c-0.3,3.8,0,78.2,0,78.2"/>
			<path class="st27" d="M335.2,2104.4c-0.3,3.8,0,78.2,0,78.2"/>
		</g>
	</g>
	<g class="st2">
		<g>
			<g class="st30">
				<g>
					<polygon class="st31" points="718.7,1875.2 718.4,1932.5 650.9,1921.5 651.3,1864.2 					"/>
				</g>
				<g>
					<polygon class="st32" points="746.8,1871.2 746.5,1928.2 693.7,1959.1 694,1901.7 					"/>
				</g>
				<g class="st30">
					<g>
						<g>
							<g>
								<defs>
									<path id="SVGID_18_" d="M681.2,1956l0.3-57.1c0,1.2,0.6,2.1,2.1,3.1c2.7,1.5,7.6,1.5,10.4,0l-0.3,57.1
										c-2.7,1.5-7.6,1.5-10.4,0C681.8,1958.1,681.2,1956.9,681.2,1956z"/>
								</defs>
								<clipPath id="SVGID_19_">
									<use xlink:href="#SVGID_18_"  style="overflow:visible;"/>
								</clipPath>
								<g class="st33">
									<path class="st34" d="M694,1901.7l-0.3,57.1c-0.6,0.3-0.9,0.6-1.5,0.6l0.3-57.1C692.8,1902.3,693.4,1902,694,1901.7"/>
									<path class="st35" d="M692.1,1902.6l-0.3,57.1c-0.3,0-0.9,0.3-1.5,0.3l0.3-57.1C691.2,1902.6,691.8,1902.6,692.1,1902.6"/>
									<path class="st36" d="M690.9,1902.9l-0.3,57.1c-0.3,0-0.6,0-0.9,0l0.3-57.1C690.3,1902.9,690.6,1902.9,690.9,1902.9"/>
									<path class="st37" d="M690,1902.9l-0.3,57.1c-0.3,0-0.6,0-0.9,0l0.3-57.1C689.4,1902.9,689.7,1902.9,690,1902.9"/>
									<path class="st38" d="M689.1,1902.9l-0.3,57.1c-0.3,0-0.6,0-0.6,0l0.3-57.1C688.5,1902.9,688.8,1902.9,689.1,1902.9"/>
									<path class="st39" d="M688.2,1902.9l-0.3,57.1c-0.3,0-0.6,0-0.6,0l0.3-57.1C687.9,1902.9,688.2,1902.9,688.2,1902.9"/>
									<path class="st40" d="M687.6,1902.9l-0.3,57.1c-0.3,0-0.6,0-0.6,0l0.3-57.1C687,1902.9,687.3,1902.9,687.6,1902.9"/>
									<path class="st41" d="M687,1902.9l-0.3,57.1c-0.3,0-0.6,0-0.6,0l0.3-57.1C686.3,1902.9,686.6,1902.9,687,1902.9"/>
									<path class="st42" d="M686,1902.9l-0.3,57.1c-0.3,0-0.6,0-0.9-0.3l0.3-57.1C685.7,1902.6,685.7,1902.6,686,1902.9"/>
									<path class="st43" d="M685.4,1902.6l-0.3,57.1c-0.3,0-0.6-0.3-0.9-0.3l0.3-57.1C684.8,1902.3,685.1,1902.6,685.4,1902.6"/>
									<path class="st44" d="M684.5,1902.3l-0.3,57.1c-0.3,0-0.6-0.3-0.9-0.6c-1.5-0.9-2.1-1.8-2.1-3.1l0.3-57.1
										c0,1.2,0.6,2.1,2.1,3.1C683.9,1902,684.2,1902,684.5,1902.3"/>
								</g>
							</g>
						</g>
					</g>
				</g>
				<g>
					<polygon class="st32" points="651.3,1864.2 650.9,1921.5 564.6,1971.6 564.6,1914.5 					"/>
				</g>
				<g>
					<polygon class="st38" points="663.5,1913.6 663.2,1970.7 631.4,1965.2 631.7,1907.8 					"/>
				</g>
				<g>
					<polygon class="st32" points="631.7,1907.8 631.4,1965.2 614.3,1974.9 614.6,1917.6 					"/>
				</g>
				<g class="st30">
					<g>
						<g>
							<g>
								<defs>
									<path id="SVGID_20_" d="M655.5,1922.4l-0.3,57.1c0,1.2-0.6,2.1-2.1,3.1l0.3-57.1C654.6,1924.6,655.5,1923.4,655.5,1922.4z"
										/>
								</defs>
								<clipPath id="SVGID_21_">
									<use xlink:href="#SVGID_20_"  style="overflow:visible;"/>
								</clipPath>
								<g class="st45">
									<path class="st41" d="M655.5,1922.4l-0.3,57.1l0,0L655.5,1922.4L655.5,1922.4"/>
									<path class="st40" d="M655.5,1922.4l-0.3,57.1v0.3l0.3-57.1C655.5,1922.8,655.5,1922.4,655.5,1922.4"/>
									<path class="st39" d="M655.5,1922.8l-0.3,57.1v0.3l0.3-57.1C655.2,1923.1,655.2,1923.1,655.5,1922.8"/>
									<path class="st38" d="M655.2,1923.4l-0.3,57.1c0,0,0,0.3-0.3,0.3l0.3-57.1C655.2,1923.7,655.2,1923.4,655.2,1923.4"/>
									<path class="st37" d="M655.2,1923.7l-0.3,57.1l-0.3,0.3l0.3-57.1C654.9,1924,654.9,1923.7,655.2,1923.7"/>
									<path class="st36" d="M654.9,1924l-0.3,57.1c0,0.3-0.3,0.3-0.6,0.6l0.3-57.1C654.6,1924.6,654.6,1924.3,654.9,1924"/>
									<path class="st35" d="M654.3,1924.6l-0.3,57.1c-0.3,0.3-0.6,0.6-0.9,0.6l0.3-57.1C653.7,1925.2,654,1924.9,654.3,1924.6"/>
									<path class="st34" d="M653.4,1925.2l-0.3,57.1l0,0L653.4,1925.2L653.4,1925.2"/>
								</g>
							</g>
						</g>
					</g>
				</g>
				<g>
					<polygon class="st46" points="674.1,1932.8 674.1,1990.2 663.2,1970.7 663.5,1913.6 					"/>
				</g>
				<g>
					<polygon class="st32" points="653.4,1925.2 653.1,1982.6 622.9,2000 623.2,1942.9 					"/>
				</g>
				<g>
					<polygon class="st46" points="623.2,1942.9 622.9,2000 595.7,1973.4 596,1916 					"/>
				</g>
				<g>
					<polygon class="st47" points="615.2,1979.2 614.9,2036.6 546,1970.4 546,1913 					"/>
				</g>
				<g>
					<polygon class="st32" points="690.9,1935.3 690.9,1992.3 614.9,2036.6 615.2,1979.2 					"/>
				</g>
				<g>
					<path class="st48" d="M746.8,1871.2l-52.8,30.5c-2.7,1.5-7.6,1.5-10.4,0c-3.1-1.5-2.7-4.3,0-6.1l35.1-20.4l-67.4-11l-86.4,50.3
						l53.4,51l56.1-32.6l-10.7-19.2l-31.7-5.8l-17.1,9.8l11.6,11.3l16.8-9.8c2.7-1.5,7.6-1.5,10.4,0c2.7,1.5,2.7,4.3,0,6.1
						l-30.2,17.4l-27.2-26.5l31.4-18l47.6,8.5l15.9,28.7l-76,43.9l-69-66.2l100.7-58.6L746.8,1871.2z"/>
				</g>
			</g>
		</g>
	</g>
</g>
</svg>
