<?xml version="1.0" encoding="utf-8"?>
<!-- Generator: Adobe Illustrator 24.2.1, SVG Export Plug-In . SVG Version: 6.00 Build 0)  -->
<svg version="1.1" id="Layer_1" xmlns="http://www.w3.org/2000/svg" xmlns:xlink="http://www.w3.org/1999/xlink" x="0px" y="0px"
	 viewBox="0 0 2436 1509.3" style="enable-background:new 0 0 2436 1509.3;" xml:space="preserve">
<style type="text/css">
	.st0{fill:#F9F1E5;}
	.st1{opacity:0.52;fill:#F9F1E5;enable-background:new    ;}
	.st2{opacity:0.33;}
	.st3{fill:#CCBDA8;}
	.st4{fill:url(#SVGID_1_);}
	.st5{fill:url(#SVGID_2_);}
	.st6{fill:#DBD0BE;}
	.st7{fill:#EBDECC;}
	.st8{fill:#EEE3D1;}
	.st9{fill:#ECE1CE;}
	.st10{fill:#FEFEFE;}
	.st11{fill:#E5D8C8;}
	.st12{fill:#E2D6C6;}
	.st13{fill:#EAE5DB;}
	.st14{fill:#EBE3D5;}
	.st15{fill:#EDE4D4;}
	.st16{fill:#DDD0C2;}
	.st17{fill:#E7DDCA;}
	.st18{fill:#E0DED8;}
	.st19{fill:#D9CBBE;}
	.st20{fill:#DFD3C4;}
	.st21{fill:#E8E6E2;}
	.st22{fill:#D4C6BA;}
	.st23{fill:#D0C2B7;}
	.st24{fill:#CFC0B5;}
	.st25{fill:#CCBDB2;}
	.st26{fill:#C5B6AC;}
	.st27{fill:#C1B1A8;}
	.st28{fill:#C8B9AF;}
	.st29{fill:#BCACA4;}
	.st30{fill:#BEAFA6;}
	.st31{fill:#C8BEAF;}
	.st32{fill:#B9A8A1;}
	.st33{fill:#B6A59F;}
	.st34{fill:#C2B8A9;}
	.st35{fill:#B3A39C;}
	.st36{fill:#DDCBB1;}
	.st37{fill:#F4E5D3;}
	.st38{fill:none;stroke:url(#SVGID_3_);stroke-width:11;stroke-linecap:round;stroke-linejoin:round;stroke-miterlimit:10;}
	.st39{fill:url(#SVGID_4_);}
	.st40{fill:url(#SVGID_5_);}
	.st41{fill:url(#SVGID_6_);}
	.st42{fill:url(#SVGID_7_);}
	.st43{fill:url(#SVGID_8_);}
</style>
<circle class="st0" cx="-166.1" cy="832.1" r="561.1"/>
<circle class="st1" cx="2293.1" cy="593.2" r="561.1"/>
<g class="st2">
	<path class="st3" d="M1885.8,1184.6c0.8,0.1,1.7,0.1,2.5,0.1C1887.6,1185.2,1886.2,1185.2,1885.8,1184.6z"/>
	<path class="st3" d="M1876.5,1187.6c0.4-0.2,0.9-0.5,1.3-0.8C1877.7,1187.4,1876.9,1187.9,1876.5,1187.6z"/>
	<path class="st3" d="M1906.9,1192.5c-0.2,0-0.3-0.2-0.5-0.2c0.2-0.2,0.2-0.3,0.2-0.5C1906.8,1192,1906.8,1192.3,1906.9,1192.5z"/>
	<path class="st3" d="M1763,1332.9v-13.2l110.3-63.9l-0.2-66.9c2-1,3.9-2,5.9-3c0.2,0.1,0.3,0.2,0.4,0.2c0.1-0.2,0.2-0.3,0.2-0.5
		c1-0.4,2-0.8,3-1.1c0.2,0,0.5,0,0.7,0c-0.2,0-0.2,0-0.4,0c-0.1,0.1-0.2,0.1-0.3,0.1c0.4,0.5,1,0.4,1.2-0.2c-0.2,0-0.2,0-0.4,0
		c0.2,0,0.3,0,0.5,0s0.3,0,0.5,0c0.3,0.5,0.7,0.4,1,0c1.1,0,2.2,0.2,3.2,0h0.1c-0.1,0-0.1,0.1-0.2,0.1c0.2,0.2,0.5,0.5,0.7,0.5
		c1.1,0.2,2.1,0.5,3.1-0.1c-0.5-0.1-0.9-0.2-1.4-0.2c0.8,0.1,1.6,0.2,2.3,0.4c-0.2,0-0.4,0-0.5,0c0.2,0.6,0.6,0.5,1.2,0.3
		c0-0.1-0.1-0.1-0.1-0.2c0.1,0,0.1,0.1,0.2,0.1l0,0c0.2,0.2,0.4,0.3,0.6,0.3c3.2,1.2,9.5,1,11.3,3.7c0.4,2,1,4,2.1,5.6
		c-0.2-0.2-0.3-0.4-0.5-0.5c0,0.2,0,0.5,0.1,0.6c0.7,0.7,1,2.2,2.1,2c0,0,0,0,0.1,0.1c0,0.1,0.1,0.2,0.1,0.2c0,0,0,0,0.1,0.1
		c0,0.2-0.1,0.5,0.1,0.5c0.2,0.3,0.5,0.5,0.9,0.3c0.1,0.1,0.2,0.2,0.3,0.3c-0.2,0.8,0.3,1.2,1,1c0,0,0,0,0.1,0.1
		c0,0.1,0.1,0.2,0.1,0.2c0,0,0,0,0.1,0.1c0,0.2-0.1,0.5,0,0.5c0.6,0.5,1.4,1.6,2.3,1.1c-0.2-0.2-0.3-0.2-0.5-0.4
		c0.6,0.4,1.3,0.6,2,0.9c-0.3-0.1-0.7-0.2-1-0.2c0.2,0.5,0.4,0.8,1,0.8c0.8-0.2,2.2,0.9,2.7-0.1c0.1,0,0.2,0,0.3-0.1
		c0.1,0.4,0.3,0.5,0.7,0.5c0.6-0.2,1.2-0.5,1.9-0.1c1.1-0.4,2.2-0.8,3.3-1.2c2.1-0.5,4-1.7,6-2.1c0.1-0.1,0.2-0.2,0.4-0.3
		c1-0.4,2-0.8,3-1.1c0.3-0.1,0.6-0.1,0.9-0.2c12.6-6.1,25.4-14.9,29.4-29.2c5.1-14.9-1.8-25.7-18.1-20.3c-3.7,0.9-6.9,3-9.7,5.5
		c-2.6,2.4-6.5,2.3-8.8,4.8c0.2,0.1,0.4,0.2,0.6,0.3c-2.5-1-6.3-3.3-7.7-3.6c-18.4-9.1-31.1-12.1-48.4-10.3V1134l0.9-0.5l-21.5-12.2
		c-2-5.1-4.1-10.1-4.8-15.4c4.3-12.5,14.8-21.8,22.3-32.4c1.6-2,9.8-14,9-17.9c0.7-0.7,1-1.8,0.6-3.5c-0.9-2.3-3.4-3-5.6-3.7
		c-14.1-4.1-28.5-7.6-43.1-9.4c-9-1.2-15.1-0.8-17.6,0.7c0-0.2,0.1-0.3,0.1-0.5c-0.4,0.2-0.9,0.3-1.2,0.5
		c-19,11.4-7.1,23.3,8.4,29.2c0-0.1,0-0.2,0-0.2c0,0.1,0,0.1,0,0.2c0.2,0.1,0.2,0.2,0.4,0.2c3,0.9,5.8,2,8.9,2.7
		c-9.1,6.6-13.2,17.5-14.3,28.6l-46.8-26.6l-81.2,47c-0.3-1.4-0.5-2.7-0.6-4.1c-0.2-1.4-0.2-2.8-0.1-4.2c0-3,0.6-5.9,1.2-8.7
		c0.5-2.6,1.6-4.9,2.4-7.4c0.9-2.6,2.3-5,3.6-7.4c0.2-0.2,0.2-0.5,0.3-0.8c0.5-0.4,1.1-0.5,1.6-0.8c5.7-2.6,9.3-6.8,10.6-12.9
		c1.4-6.8,0-12.9-4.5-18.2c-2.9-3.4-6.7-5.2-11.1-5.9c-0.2,0-0.5,0-0.8,0c-1.4,0-2.9,0-4.3,0c1.4,0,2.9,0,4.3,0v-0.1v-0.1
		c-1.4,0-2.9,0-4.3,0c-7.6,0,1.2,3.4-6.3,3.4c-0.5,0-7.9,9-7.9,9.4c0,28.2-9.1,44-9.1,72.2l-14.7,8.5l-17.3-9.9l0.7,76.5v123.3
		L1763,1332.9z M1849,1073.2c-0.4-0.4-0.5-0.8-0.5-1.2C1848.5,1072.3,1848.6,1072.7,1849,1073.2c2.7,1.3,11.8,5.5,13.5,2
		c1.3-2.8,4.1-5.4,4-8.6l0,0c0.2,3.3-2.7,5.9-4,8.7C1861,1078.7,1851.5,1074.5,1849,1073.2z M1859.9,1059.6c-0.1,0-0.2,0.1-0.3,0.1
		C1859.6,1059.6,1859.8,1059.6,1859.9,1059.6z M1846,1070.1c0.3-1.8,1.7-3.8,3-5.7C1847.9,1066.2,1846.9,1068.2,1846,1070.1
		L1846,1070.1z M1851.5,1061c1.2-1.7,2.7-3,4.3-4.1C1854.2,1058,1852.8,1059.4,1851.5,1061z M1871.9,1056.4c0.6,0.4,1.1,0.9,1.3,1.6
		l0,0C1873,1057.3,1872.4,1056.7,1871.9,1056.4C1871.8,1056.4,1871.8,1056.4,1871.9,1056.4z M1873.1,1058.8
		c-0.1,1.6-0.4,3.2-0.9,4.7C1872.7,1062,1873,1060.4,1873.1,1058.8z M1865.6,1075.1c-0.4,0.5-0.8,1.2-1.2,1.7
		c-0.2,0.1-0.2,0.2-0.4,0.2C1864.6,1076.4,1865.1,1075.8,1865.6,1075.1z M1854.6,1076.8c2.3,0.7,4.6,1.2,6.4,1.2
		C1859.1,1078.1,1856.8,1077.6,1854.6,1076.8z M1846.8,1072.7c-0.1-0.1-0.2-0.2-0.3-0.2c-0.2-0.3-0.4-0.6-0.5-1
		C1846.2,1071.9,1846.4,1072.3,1846.8,1072.7z M1843.5,1068.7c0-0.1,0-0.1,0-0.2s0.1-0.2,0.1-0.2
		C1843.6,1068.4,1843.6,1068.6,1843.5,1068.7z M1845.3,1064.3C1845.4,1064.3,1845.4,1064.2,1845.3,1064.3
		C1845.4,1064.2,1845.4,1064.3,1845.3,1064.3z M1844.7,1065.6c0.1-0.2,0.2-0.4,0.3-0.6C1845,1065.2,1844.8,1065.4,1844.7,1065.6z
		 M1844.2,1067c0.2-0.3,0.2-0.6,0.4-0.9C1844.4,1066.3,1844.3,1066.6,1844.2,1067z M1843.6,1068.3c0.2-0.4,0.3-0.8,0.5-1.2
		C1843.9,1067.5,1843.8,1067.9,1843.6,1068.3z M1663.6,1133.9c0.1,0.1,0.2,0.2,0.3,0.3C1663.8,1134.1,1663.7,1134,1663.6,1133.9
		L1663.6,1133.9z M1842.7,1095.1c0.2-0.3,0.3-0.6,0.5-0.9c0,0.1-0.1,0.2-0.1,0.2c0.9-0.4,3-2.7,3.4-0.9c0,0.2,0,0.3,0,0.5
		c-0.2-0.8-0.5-1.2-1.1-0.9C1844.3,1093.6,1843.4,1094.3,1842.7,1095.1z M1846.9,1083.9c0,0.2-0.1,0.3-0.2,0.4
		c-0.1,0-0.2-0.1-0.2-0.1C1846.8,1084,1846.9,1084,1846.9,1083.9z M1845.7,1086.1C1845.7,1086.1,1845.7,1086,1845.7,1086.1
		c0.5,0.9,0.3,2,0.2,2.9c-0.2,0.9-0.8,1.8-1.3,2.6c1.2-2.2,1.9-3.8,0.9-5.8C1845.6,1085.8,1845.7,1085.9,1845.7,1086.1z
		 M1843.6,1085.1L1843.6,1085.1c-2.7-5.5-8.3-7.3-13.6-9.1c-0.5-0.2-0.8-0.4-1.1-0.5c0.4,0.1,0.7,0.2,1.2,0.5
		C1835.4,1077.7,1841.1,1079.5,1843.6,1085.1z M1826.2,1078.5c0.6-0.6,1.5-1.6,2.3-2.1c-1.7,1.3-3.3,3.2-4.7,5.3
		C1824.5,1080.6,1825.3,1079.5,1826.2,1078.5z M1843.2,1087.8c-0.5-5.7-6.7-8.8-11.7-10.5c-0.1-0.1-0.2-0.2-0.3-0.2
		c0-0.1-0.1-0.1,0-0.1l0,0c5.1,1.6,10.2,4.3,12.1,9.6C1843.4,1087.1,1843.3,1087.5,1843.2,1087.8z M1831.2,1077.1L1831.2,1077.1
		c-0.5-0.6-1.2-1-1.7-1C1830.1,1076,1830.7,1076.2,1831.2,1077.1z M1831.1,1077.1c-7.8,1-12.9,15.4-11.5,25.7h-0.1
		C1818.3,1092.5,1823.3,1078,1831.1,1077.1z M1841,1092c0.7-1.6,1-3,1-4.2c0,1-0.2,2.2-0.7,3.5l0,0
		C1841.1,1091.5,1841.1,1091.8,1841,1092z M1829.8,1081.2c1-0.2,2.3-0.2,3.6,0.4c-0.7-0.2-1.5-0.3-2.3-0.3
		C1830.7,1081.2,1830.3,1081.2,1829.8,1081.2z M1831.5,1085.6c0.3,0,0.7,0,1,0c0.1,0,0.2,0,0.3,0c-0.2,0-0.2,0-0.4,0
		C1832.2,1085.6,1831.8,1085.6,1831.5,1085.6z M1833.9,1084.7c1.3,0.3,2.5,1,3.4,2.4c0.4,0.6,0.5,1.3,0.6,2
		C1837.5,1086.8,1836,1085.3,1833.9,1084.7z M1826.5,1103.1c-0.2-1.1-0.4-2.2-0.5-3.2C1826.2,1101,1826.4,1102,1826.5,1103.1
		L1826.5,1103.1L1826.5,1103.1C1826.5,1103.1,1826.5,1103.1,1826.5,1103.1L1826.5,1103.1L1826.5,1103.1L1826.5,1103.1z
		 M1833.3,1107.4C1833.4,1107.4,1833.4,1107.4,1833.3,1107.4C1833.4,1107.4,1833.4,1107.4,1833.3,1107.4z M1833,1105.2L1833,1105.2
		L1833,1105.2L1833,1105.2L1833,1105.2z M1827.7,1097.9c0.2,1.3,0.4,2.7,0.5,3.8l0,0v-0.1C1827.9,1100.3,1827.8,1099,1827.7,1097.9z
		 M1829.4,1095c0.3-0.9,1-1.3,1.8-1.6c-1,0.5-2,1.6-2.2,3.1C1829.2,1096,1829.3,1095.4,1829.4,1095z M1834.4,1093.9
		c0.7,0.5,1.2,1.2,1.2,2c0,0.2,0.1,0.6,0.1,1.1C1835.6,1095.6,1835.1,1094.6,1834.4,1093.9z M1835.5,1100.4c-0.2,1.5-0.5,2.9-1,3.8
		c0.2-0.5,0.3-1.1,0.4-1.5C1835.1,1101.9,1835.4,1101.1,1835.5,1100.4z M1833.3,1107.4L1833.3,1107.4
		C1833.2,1107.4,1833.2,1107.4,1833.3,1107.4z M1829.9,1105.1c-0.6-0.6-1.2-1.2-1.5-2.1C1828.7,1103.6,1829.3,1104.4,1829.9,1105.1z
		 M1833,1089.7c0.2,0.2,0.4,0.4,0.6,0.5C1833.4,1090,1833.3,1089.9,1833,1089.7c-1.6-0.8-2.7,2.1-4.1,2.9c0.6-0.9,1.5-1.9,2.8-2.8
		C1832.2,1089.3,1832.6,1089.3,1833,1089.7z M1835.5,1092.8c0.7,1.4,1,3,0.9,4.8C1836.4,1095.8,1836.2,1094.2,1835.5,1092.8z
		 M1835.7,1102.1c-0.2,1.5-0.5,3.1-1.1,4.1C1835,1104.9,1835.4,1103.5,1835.7,1102.1z M1834,1087.3c5.1,1.5,2.5,13.5,1.9,17.9
		c-0.3,1.6-0.1,5.8-2.5,5.1c0,0-0.1,0-0.1-0.1c0.5,0.2,0.9,0.1,1.3-0.3c1.4-6,3.7-14.9,1.5-20.7
		C1835.4,1088.3,1834.7,1087.6,1834,1087.3z M1832.1,1109.7c-0.6-0.3-1.2-0.7-1.6-1.1C1831,1108.9,1831.5,1109.3,1832.1,1109.7z
		 M1826.5,1106.6c-0.4-0.7-0.7-1.4-1-2.2C1825.8,1105.2,1826.1,1106,1826.5,1106.6L1826.5,1106.6z M1824,1097.5
		c-0.2-1.6-0.2-3.3,0-4.8C1823.9,1094.3,1823.9,1096,1824,1097.5z M1827.5,1086.2c0.7-0.7,1.5-1.2,2.3-1.7l0,0l0,0
		C1829,1085,1828.3,1085.5,1827.5,1086.2z M1837.9,1084.3c1.1,0.9,1.6,2.1,1.6,3.4C1839.3,1086.5,1838.6,1085.3,1837.9,1084.3z
		 M1837.8,1096.1c-0.1,0.3-0.1,0.6-0.2,0.9c0.1-1.9,0-3.7-0.2-5.5c-0.2-2.5-1.6-5.5-4.3-5.9c3.3,0.3,4.3,4.4,4.6,7.3
		c0.1-0.1,0.1-0.2,0.2-0.3C1837.8,1093.8,1837.7,1095,1837.8,1096.1z M1836.9,1103.5c-0.2,2.3-0.5,4.4-1.2,6.6
		c0.1,0.5-0.2,1.1-0.5,1.5l0,0c0.4-0.4,0.6-0.9,0.5-1.5c-0.2,0.2-0.5,0.3-0.7,0.4c0.2-0.1,0.5-0.2,0.7-0.4
		C1836.1,1108,1836.6,1105.8,1836.9,1103.5z M1823.4,1104.9c-2.2-5.1-2-11.3,0.2-16.5c0.9-1.8,1.8-3.3,2.7-4.4
		c-0.9,1.5-1.7,3.2-2.7,4.4c-2.3,5.3-2.3,11.5-0.1,16.6L1823.4,1104.9z M1837.9,1082.6c1.7,1.3,3,3,3.3,5.5
		c-0.2,0.6-0.3,1.2-0.5,1.9C1841.2,1086.6,1840.4,1084.5,1837.9,1082.6z M1839.3,1094.4c-0.3,1.1-0.6,2.2-0.8,3.4
		c0.1-0.6,0.2-1.3,0.2-2l0,0c0.1-0.1,0.2-0.2,0.2-0.2C1838.9,1095.2,1839.1,1094.8,1839.3,1094.4z M1838.1,1101.6L1838.1,1101.6
		c-0.3,3.7-0.6,7.4-1.1,11h-0.1C1837.5,1108.9,1837.8,1105.3,1838.1,1101.6z M1829.7,1078.8c0.9-0.3,1.8-0.3,2.6,0.3
		C1831.4,1078.7,1830.5,1078.6,1829.7,1078.8z M1840.4,1093.1c-0.3,0.8-0.6,1.6-0.9,2.4c0.1-0.5,0.2-0.9,0.3-1.4
		C1840.1,1093.7,1840.3,1093.4,1840.4,1093.1z M1839,1113.6c0,0.1,0,0.1,0,0.2l0,0C1839,1113.7,1839,1113.7,1839,1113.6z
		 M1841,1099.7c-0.4,2.1-0.7,4.9-0.7,7.6C1840,1104.3,1840.4,1101.8,1841,1099.7z M1841.1,1114.9L1841.1,1114.9
		c0-0.2,0.1-0.2,0.1-0.4l0,0C1841.1,1114.6,1841.1,1114.8,1841.1,1114.9z M1820.5,1086.6c0.7-1.7,1.6-3.4,2.7-5.1
		C1822.1,1083.1,1821.2,1084.8,1820.5,1086.6z M1825.3,1078.3c0.6-0.9,1.2-1.9,2-2.4c-0.2,0.2-0.4,0.5-0.7,0.7
		C1826.2,1077.2,1825.8,1077.7,1825.3,1078.3z M1844.5,1084.1c0.2,0.2,0.3,0.5,0.4,0.6c-0.1-0.2-0.2-0.3-0.4-0.5l0,0
		C1844.5,1084.3,1844.5,1084.2,1844.5,1084.1z M1850.5,1094.7c-0.8,2.7-2.6,5.1-3.4,7.8C1847.8,1099.8,1849.6,1097.4,1850.5,1094.7z
		 M1846.9,1115.2c1.1-4.2-1.6-9.2-0.9-13.6c0-0.5,0.2-1.9,0.4-3.4c-0.1,1.1-0.2,2.2-0.4,3.3C1845.3,1106,1848,1111,1846.9,1115.2z
		 M1663.9,1134.2L1663.9,1134.2L1663.9,1134.2L1663.9,1134.2z M1818.8,1089c0.4-1.9,1.1-3.6,2-5.1
		C1820,1085.4,1819.3,1087.1,1818.8,1089c-0.8,3.4-2,7.7-2.3,11.9l0,0C1816.8,1096.7,1818,1092.4,1818.8,1089z M1827.2,1074
		c0.1,0,0.1,0,0.2,0c0,0,0,0.1,0.1,0.1l-0.1,0.1C1827.2,1074.1,1827.2,1074,1827.2,1074z M1809.1,1047.9c-3.2,2.7-5.2,6.8-3,10.3
		c3.3,3,7.6,5.2,12.3,6.9c-4.6-1.5-9-3.4-12.4-6.9C1803.7,1054.8,1805.8,1050.6,1809.1,1047.9z M1856.6,1078.2
		c-4.7-1.8-10.4-3.3-13.8-7.1c-3.8-0.3-7.5-1.2-11.2-2.3c4,0.9,7.8,1.5,11.2,2.2v-0.1c3.4,3.7,9.1,5.3,13.7,7c2.7,1.2,6.2,3,8.3-0.2
		c2.4-3.3,9.1-11.2,11.2-17.5c-2,6.2-8.8,14.4-11.2,17.7C1862.7,1081.2,1859.3,1079.5,1856.6,1078.2z M1846.9,1082.6
		c0-0.1,0-0.1,0-0.2c0.2-0.3,0.2-0.5,0.2-0.8C1847.1,1082,1847.1,1082.2,1846.9,1082.6z M1847.5,1105.7L1847.5,1105.7
		c0.2-5.6,5.5-10.2,6.6-15.8c0.1-0.2,0.1-0.3,0.2-0.4c0,0.2-0.1,0.4-0.2,0.6C1852.9,1095.7,1847.8,1100.2,1847.5,1105.7z
		 M1849.9,1119.9L1849.9,1119.9c-0.3-2.1-0.8-4.2-1.2-6.2C1849.3,1116,1849.9,1118.3,1849.9,1119.9z M1907.8,1187.4
		c0.2-0.1,0.5-0.2,0.8-0.3c0,0,0,0-0.1,0c0.8-0.2,1.2,0.2,1.5,0.9C1909.7,1187.4,1909.1,1187.1,1907.8,1187.4z M1910.8,1158.9
		c0.5-0.1,1.1-0.2,1.6-0.3c-0.6,0.2-1.2,0.3-1.8,0.5c-12.3,2.3-25.1,0.6-37.6,1.4v-0.2c5.9-0.2,11.9-0.2,17.8-0.3
		C1897.5,1159.9,1904.3,1160.7,1910.8,1158.9z M1927,1193.7c1.3-0.9,6.9-1.5,7.7-2.3C1934.2,1192.1,1929.4,1192.8,1927,1193.7z
		 M1925.9,1194.2c-0.1,0-0.2,0-0.3-0.1c0.2,0,0.3,0,0.4-0.1C1926,1194.1,1926,1194.2,1925.9,1194.2z M1924.5,1193.9
		c-2-0.7-3.5-2.2-4.4-4.1c0.9,1.6,2.3,3,4.1,3.8C1924.2,1193.7,1924.4,1193.8,1924.5,1193.9z M1918.8,1184.8c0-0.9,0.1-1.7,0.4-2.5
		c0,0,0-0.1,0.1-0.1C1919,1183.1,1918.8,1183.9,1918.8,1184.8z M1918.8,1185.5c0-0.2,0-0.4,0-0.6
		C1918.8,1185,1918.8,1185.2,1918.8,1185.5z M1918.9,1186.2L1918.9,1186.2L1918.9,1186.2z M1923.8,1177c0.1-0.1,0.2-0.2,0.3-0.3
		C1924,1176.7,1923.8,1176.9,1923.8,1177z M1923.1,1177.7c0.1-0.1,0.1-0.2,0.2-0.2C1923.1,1177.6,1923.1,1177.7,1923.1,1177.7z
		 M1879.8,1183.9c-1.2,0.1-2.2,0.6-3.1,1.3c0.1,0,0.1,0,0.2,0c-1.2,0.5-2.3,1.1-3.6,1.6v-0.2c0.7-0.3,1.4-0.6,2.1-1
		c3-2,6.5-2.3,10-2.3c0.2,0.2,0.5,0.2,0.8,0.1l0.1,0.1c-0.1,0-0.2,0.1-0.3,0.1s-0.2,0-0.2,0c-0.1,0-0.2-0.1-0.2-0.1
		c0.1,0,0.1,0.1,0.2,0.1c-1.7-0.2-3.4-0.1-4.9,0.4c-0.1,0-0.2,0-0.2,0c0.1,0,0.2,0,0.2,0c-0.5,0.2-1,0.2-1.5,0.5
		C1879.4,1184.1,1879.5,1184.1,1879.8,1183.9z M1919.8,1176.4c3.3-4.4,4.4-9.7,0.3-13.8c-5.4-3-12.4,0.2-18.3-0.2
		c-1.2,0-2.4,0-3.6,0c1.2,0,2.4,0,3.7,0c6,0.5,13-2.7,18.3,0.2C1924.2,1166.7,1923.1,1172,1919.8,1176.4z M1882.8,1182.8
		c-2.4,0.2-4.8,0.9-7,1.7c0.2-0.1,0.4-0.2,0.5-0.3c1.2-0.6,2.6-1,3.9-1.2c3.2-0.4,6.4-0.3,9.6-0.1c3.7,0.4,7.5,0.9,11.1,0.6
		c1.3-0.9,2.9-1.6,4.3-2.3c-1.5,0.9-3,1.7-4.6,2.5C1894.9,1184.1,1888.6,1182.7,1882.8,1182.8z M1879.3,1182.7
		c2.2-0.5,4.4-0.8,6.6-0.4l0,0l0,0C1883.7,1182,1881.5,1182.2,1879.3,1182.7z M1909.2,1164.9c-1.3,0-2.7,0.1-3.9,0
		c-1.2-0.1-2.5-0.1-3.7-0.2C1904.1,1164.8,1906.7,1164.7,1909.2,1164.9z M1874.3,1183.3c-0.4,0.1-0.8,0.2-1.2,0.4v-0.2
		c1.9-0.7,3.7-1.5,5.7-1.7c5.9-0.4,11.9-0.3,17.8-0.2c0.8,0,1.5-0.2,2-0.7c-0.5,0.7-1.2,0.9-2.1,0.9
		C1889.2,1182,1881.2,1180.5,1874.3,1183.3z M1880.1,1180.9c1.6-0.3,3.4-0.4,5.1-0.3h0.1c-0.1,0-0.2,0-0.2,0
		C1883.3,1180.6,1881.7,1180.6,1880.1,1180.9z M1873.1,1171c1.5,0,3,0,4.8,0.1C1876.2,1171.1,1874.6,1171.2,1873.1,1171L1873.1,1171
		z M1877.4,1174.2c-1.3,1.2-2.8,2-4.3,2.5v-0.2c1.6-0.6,3.1-1.5,4.5-2.5C1877.6,1174.1,1877.5,1174.2,1877.4,1174.2z M1884.5,1170.6
		c-3.9-0.5-7.8-0.4-11.4-0.5v-0.1C1876.8,1170.1,1880.7,1169.9,1884.5,1170.6z M1888.7,1172c0.1,0,0.1,0,0.2,0.1
		c0,0.1-0.1,0.1-0.1,0.2C1888.8,1172.1,1888.8,1172,1888.7,1172z M1887,1174.3c-0.6,0.5-1.2,0.9-2,1.3
		C1885.6,1175.2,1886.4,1174.8,1887,1174.3z M1892.9,1170c-0.9-0.1-1.7-0.2-2.1-0.4c0.1,0,0.1,0,0.2,0
		C1891.7,1169.8,1892.3,1169.9,1892.9,1170z M1890.7,1169.6c-2-0.3-3.8-0.6-5.8-0.9C1886.9,1169,1888.8,1169.2,1890.7,1169.6z
		 M1878.4,1169c0.8,0,1.6,0.1,2.3,0.2c-2.8-0.1-5.3,0.1-7.6,0.2v-0.2C1874.9,1169,1876.7,1168.9,1878.4,1169z M1890.9,1170.8
		L1890.9,1170.8c0.4,0,0.6,0.1,0.9,0.2C1891.5,1171,1891.3,1170.9,1890.9,1170.8L1890.9,1170.8z M1892.6,1171.9
		c0.2,0.6,0.2,1.5,0.2,2.3c-0.2-0.5-0.2-1-0.2-1.3C1892.6,1172.4,1892.6,1172.1,1892.6,1171.9z M1891.9,1177
		c-1.7,0.7-4.9,0.9-7.7,1.1C1886.8,1177.7,1889.4,1177.4,1891.9,1177z M1890.5,1179.2C1890.5,1179.2,1890.4,1179.2,1890.5,1179.2
		c1.3-0.2,2.7-0.4,4.1-0.8c3-0.9,1.6-4.5,2.2-6.9c0.1-0.5-0.3-0.7-0.9-0.9c1.6,0.5,1,1.5,0.8,6.3
		C1895.3,1179,1892.7,1178.9,1890.5,1179.2z M1898.6,1177.8c-1.8,2-4.5,2.4-7.4,2.6C1894.1,1180.2,1896.8,1179.6,1898.6,1177.8z
		 M1883.9,1179.7c-3.6,0.3-7.2,0.8-10.8,1.6l0,0h0.1C1876.6,1180.2,1880.3,1179.9,1883.9,1179.7z M1883.1,1166.5
		c-2.2-0.1-4.4-0.2-6.6-0.2C1879.1,1166.2,1881.4,1166.1,1883.1,1166.5z M1890.2,1166.9c3.5,0.1,7.1,0.2,10.5,0.8
		c-2.3-0.4-4.6-0.5-6.7-0.6C1892.7,1167,1891.5,1167,1890.2,1166.9z M1907.2,1169.9L1907.2,1169.9c0.3,1.3,0.4,2.5,0.3,3.4
		C1907.5,1172.3,1907.4,1171.1,1907.2,1169.9L1907.2,1169.9z M1900.7,1178.7c0.9-0.8,1.9-1.6,2.7-2.4
		C1902.8,1177.2,1901.7,1177.9,1900.7,1178.7z M1873.1,1165.1c0.9,0,1.8-0.1,2.7-0.1c-0.4,0-0.7,0.1-1.1,0.1
		C1874.2,1165.1,1873.7,1165.1,1873.1,1165.1L1873.1,1165.1z M1879.9,1164.9c1.2,0,2.6,0,3.8,0c-1.1,0-2.3,0-3.4,0.1
		C1880.3,1164.9,1880.1,1164.9,1879.9,1164.9z M1910.3,1170.6c-0.1-0.2-0.1-0.5-0.2-0.7c-1.1-3.7-16.9-3.3-20.9-3.7
		c-5.3-0.2-10.5-0.6-15.9-0.3c-0.1,0-0.2,0-0.2,0v-0.2c0.1,0,0.1,0,0.2,0c5.3-0.3,10.6,0.2,15.9,0.3c6.6,0.3,13.3,0.2,19.7,2.3
		c1,0.3,1.1,0.4,1.2,1.4C1910.1,1169.9,1910.2,1170.3,1910.3,1170.6z M1905.7,1177.4c-0.2,0.2-0.3,0.4-0.5,0.5
		c0.1-0.2,0.2-0.2,0.3-0.4C1905.5,1177.5,1905.6,1177.5,1905.7,1177.4z M1873,1164.3c0.5,0,1,0,1.6,0.1c0.7,0,1.5,0,2.2,0
		c-1.2,0-2.5,0.1-3.7,0.2L1873,1164.3z M1894.1,1164.5c0.6,0,1.2,0,1.7,0c0.2,0,0.5,0,0.7,0.1
		C1895.7,1164.6,1894.9,1164.6,1894.1,1164.5z M1892.6,1182.6c3.2,0.2,6.1,0.2,8.8-1.4l0,0C1898.9,1183,1895.8,1182.9,1892.6,1182.6
		z M1873.9,1184.4c-0.2,0.1-0.5,0.2-0.7,0.2l0,0C1873.4,1184.5,1873.6,1184.5,1873.9,1184.4z M1892.9,1163.6c-4.1,0-8,0-12.1,0
		C1884.8,1163.6,1888.8,1163.6,1892.9,1163.6c0.1,0,0.1,0,0.2,0C1892.9,1163.6,1892.9,1163.6,1892.9,1163.6z M1915.6,1165.9
		c0.2,0.3,0.4,0.6,0.6,1c-0.4-0.5-0.9-0.9-1.5-1.2C1915,1165.7,1915.3,1165.8,1915.6,1165.9z M1902.1,1184.1c-0.1,0-0.2,0.1-0.2,0.1
		C1902,1184.1,1902,1184.1,1902.1,1184.1c3.3-2,7.3-3,9.7-6.5c1.2-2.1,3.5-4.1,3.4-6.7c-0.4-1.2,0-3.3-1.1-4
		c1.2,0.6,0.7,2.8,1.2,4.1c0.1,2.6-2.3,4.6-3.4,6.7C1909.6,1181.1,1905.4,1182.1,1902.1,1184.1z M1917.4,1170.5
		c0,0.5-0.1,1.1-0.4,1.6C1917.1,1171.6,1917.3,1171,1917.4,1170.5z M1908.9,1178.3c0.5-0.6,1.2-1.3,1.8-2
		C1910.2,1177,1909.6,1177.7,1908.9,1178.3z M1918.8,1166L1918.8,1166c1.1,1.7,1.3,3.6,0.9,5.5
		C1920.1,1169.6,1919.9,1167.7,1918.8,1166L1918.8,1166z M1918.4,1174.9L1918.4,1174.9L1918.4,1174.9z M1918.9,1173.8
		c0,0.1-0.1,0.2-0.1,0.2C1918.8,1173.9,1918.9,1173.8,1918.9,1173.8z M1919.4,1172.6c-0.1,0.2-0.1,0.3-0.2,0.5
		C1919.2,1173,1919.3,1172.8,1919.4,1172.6z M1919.7,1171.4c-0.1,0.3-0.2,0.5-0.2,0.9C1919.6,1172,1919.7,1171.7,1919.7,1171.4z
		 M1910.8,1180.2c-2.2,1.7-4.6,3-7.1,4.1C1906.1,1183.2,1908.6,1181.9,1910.8,1180.2z M1892.9,1183.9c2.3,0.2,4.6,0.5,6.9,0.7
		c0.1,0,0.2,0,0.2,0C1897.9,1184.8,1895.3,1184.2,1892.9,1183.9z M1873,1162.7c0.1,0,0.2,0,0.2,0c5.6-0.2,11.3-0.2,16.9-0.2
		c-5.7,0.1-11.5,0.3-17.2,0.5V1162.7z M1915.7,1178.3L1915.7,1178.3L1915.7,1178.3z M1914.9,1179.1c0.1-0.1,0.1-0.1,0.2-0.2
		C1914.9,1179,1914.9,1179.1,1914.9,1179.1z M1913.6,1180.2c-3.7,3.1-8.5,5.3-12.2,5.5C1905.2,1185.5,1909.9,1183.3,1913.6,1180.2z
		 M1913.9,1180c0.2-0.2,0.3-0.2,0.4-0.4C1914.2,1179.8,1914.1,1179.9,1913.9,1180z M1901,1185.2c-0.2,0-0.5-0.1-0.7-0.1
		c0.5,0,0.9-0.1,1.3-0.2C1901.4,1185.2,1901.1,1185.2,1901,1185.2z M1893.3,1184.1c-1.3-0.2-2.6-0.2-3.8-0.2c-0.2,0-0.4,0-0.6-0.1
		C1890.1,1183.7,1891.7,1183.8,1893.3,1184.1z M1888.3,1183.8c-0.2-0.1-0.2-0.2-0.3-0.3c-0.2,0-0.5,0.1-0.5,0.1
		c-0.2-0.2-0.3-0.2-0.5-0.2c0,0,0,0-0.1,0l0,0c-0.1,0-0.2,0.1-0.3,0.1l-0.1-0.1c0.1,0,0.2-0.1,0.3-0.1c0.5,0,1.1,0.1,1.6,0.1
		c-0.2,0-0.4,0-0.5,0C1888.1,1183.6,1888.2,1183.8,1888.3,1183.8L1888.3,1183.8z M1899.7,1161.4c-1.6,0.1-3,0.1-4.6,0.1
		c4.6-0.2,9.2-0.5,13.7-0.9C1905.7,1161.1,1902.6,1161.8,1899.7,1161.4z M1922.4,1161.4c-1.8-1.2-3.8-1.8-5.9-1.9
		C1919,1159.3,1921,1160.1,1922.4,1161.4z M1924.9,1169.8c-0.2,2-1,4-2.3,5.5C1923.8,1173.5,1924.6,1171.7,1924.9,1169.8z
		 M1898.2,1185.5c-0.2-0.1-0.4-0.2-0.6-0.2c0.1,0,0.2,0,0.3,0c-1.2-0.3-2.3-0.5-3.4-0.7c1.2,0.2,2.3,0.3,3.4,0.6
		C1898,1185.3,1898.1,1185.4,1898.2,1185.5z M1873.1,1187.8v-0.2c4.8-2.3,9.6-4.6,14.5-3.8
		C1880.6,1183.6,1877.5,1185.8,1873.1,1187.8z M1877.8,1185.9c-1.6,0.7-3.1,1.5-4.7,2.3v-0.2
		C1874.7,1187.3,1876.2,1186.5,1877.8,1185.9z M1913.6,1158.4c3-0.5,6-0.9,8.7,0.5c6.9,4.1,5.9,10.3,2,15.8c1.2-1.8,2-3.7,2.7-5.9
		C1928.8,1160.3,1920.6,1157.2,1913.6,1158.4z M1942.3,1156.4c1.1-0.1,2.2,0,3.4,0C1944.5,1156.4,1943.3,1156.4,1942.3,1156.4z
		 M1948.8,1155.8c-0.1,0-0.1,0-0.2,0.1C1948.6,1155.9,1948.7,1155.8,1948.8,1155.8L1948.8,1155.8z M1937,1158.6
		c-1.2,0.7-2.5,1.5-3.8,1.9C1934.1,1159.8,1935.6,1159.2,1937,1158.6z M1940.1,1156.8c0.6-0.2,1.2-0.4,2-0.4
		c-0.8,0.1-1.5,0.3-2.2,0.6C1939.9,1157,1940,1156.9,1940.1,1156.8z M1949,1156.1c-0.8,0.8-1.6,1.6-2.4,2.4
		c-0.5,0.5-1.1,1.1-1.6,1.6C1946.7,1158.3,1948.2,1156.7,1949,1156.1z M1937.4,1167.5c-0.2,0.2-0.5,0.4-0.6,0.6
		c-1.7,0.6-2.7-1.2-3.4-3.3c0.7,1.3,1.6,2.7,2.1,3.2C1935.8,1168.4,1936.5,1168.1,1937.4,1167.5z M1932.4,1162.1
		c0-0.2-0.1-0.2-0.1-0.3c-0.1-0.3,0.1-0.6,0.4-0.9C1932.4,1161.1,1932.3,1161.6,1932.4,1162.1z M1935,1181.4c0.1,0.3,0.2,0.7,0.3,1
		C1935.2,1182,1935.1,1181.7,1935,1181.4z M1918.7,1195.3c-3.2-2.3-5.5-6.5-5.3-10.1h0.1C1913.4,1188.9,1915.6,1193,1918.7,1195.3z
		 M1904.6,1187.1c-1.7-0.1-3.4-0.5-5.1-0.9c-0.5-0.2-1.1-0.4-1.7-0.5c0.3,0.1,0.7,0.1,1,0.2l-0.1-0.1l0,0l0.1,0.1
		c0.1,0,0.1,0,0.2-0.1l0,0h-0.1c2.4,1.2,5.5,1.3,8.7,0.5C1906.5,1186.5,1905.6,1186.8,1904.6,1187.1z M1910,1185.9
		c-0.8,0.4-1.6,0.7-2.4,0.9C1908.5,1186.6,1909.2,1186.2,1910,1185.9z M1896.6,1185.3c-0.2,0-0.3-0.1-0.5-0.1c0.4,0,0.9,0.1,1.2,0.1
		C1897.1,1185.3,1896.8,1185.3,1896.6,1185.3z M1893.5,1184.9c-1.2-0.1-2.4-0.2-3.6-0.5C1891.1,1184.6,1892.3,1184.8,1893.5,1184.9z
		 M1879.1,1185.3c-0.2,0.1-0.3,0.2-0.5,0.2C1878.8,1185.5,1878.9,1185.4,1879.1,1185.3C1879.1,1185.4,1879.1,1185.4,1879.1,1185.3z
		 M1927.7,1159.9c0.2,0.2,0.5,0.2,0.6,0.4C1928.2,1160.2,1928,1160,1927.7,1159.9c-3.9-2.2-8.4-4.8-13.2-4
		c-13.7,3.3-27.6,2.5-41.5,3.3v-0.1c13.9-0.8,27.9-0.1,41.4-3.3C1919.3,1155.1,1923.7,1157.6,1927.7,1159.9z M1944.1,1152.4
		c-1.6,0.7-3.1,1.6-4.7,2.4l0.1-0.1C1941,1153.7,1942.6,1152.9,1944.1,1152.4z M1931.3,1162c-0.3,0.7-1.4,3.4-1.3,4.8
		c-0.2-1.3,1-4.1,1.3-4.9c1.4,2.4,2.8,9.9,6.3,9.1c3-2.2,5.8-4.8,8.2-7.6c2.9-4.1,7.7-6.6,10.1-11.1c0,0,0.1,0,0.1,0.1
		c-0.9,1.6-1.8,3.1-3.2,4.2c-5.5,4.4-9.3,10.6-15.1,14.6C1934.3,1172.1,1932.7,1164.3,1931.3,1162z M1934.8,1176.2
		c0-1-0.1-2-0.4-2.9C1934.8,1174.2,1934.8,1175.2,1934.8,1176.2z M1934.4,1173.2L1934.4,1173.2L1934.4,1173.2z M1929.1,1198.7
		c4.4-1.2,8.3-3.3,9.7-5.2c0.2-0.6,0.4-1.2,0.4-1.9c0,0.7-0.1,1.3-0.4,2C1937.3,1196.2,1932.7,1197.7,1929.1,1198.7z M1919.9,1202.6
		c0.7-0.2,1.5-0.2,2.2-0.3C1921.4,1202.5,1920.7,1202.6,1919.9,1202.6z M1918.8,1199.4c2.4,0.7,5.9,0.4,9.2-0.4
		c-0.5,0.2-1.1,0.3-1.6,0.4C1923.4,1200.4,1921,1200.3,1918.8,1199.4z M1912.2,1193.6c-1.2-1.4-1.5-3.1-1.8-4.4
		c0.6,2.1,1.7,5.4,5.5,8.5c0.1,0.1,0.2,0.2,0.3,0.3C1914.9,1196.9,1913.5,1195.5,1912.2,1193.6z M1905.9,1188
		c-0.9-0.2-1.7-0.3-2.5-0.5c1.2,0.2,2.3,0.3,3.4,0.2c0.2-0.2,0.4-0.5,0.6-0.2l0,0c-0.2-0.2-0.4,0-0.6,0.2l0,0
		C1906.5,1187.8,1906.2,1188,1905.9,1188L1905.9,1188z M1901.1,1187c-2.3-0.6-4.6-1.2-6.9-1.3
		C1896.4,1185.5,1898.7,1186.2,1901.1,1187z M1889.2,1184.7c0.2,0,0.3,0,0.4,0h0.1h-0.1c0.1,0,0.1,0,0.2,0c0.1-0.1,0.1-0.2,0.2-0.2
		c0,0-0.1,0.1-0.1,0.2c0.1,0,0.2,0.1,0.2,0.1C1889.8,1184.7,1889.5,1184.7,1889.2,1184.7z"/>
</g>
<g>
	<g>
		
			<radialGradient id="SVGID_1_" cx="4030.3545" cy="6311.6802" r="49.011" gradientTransform="matrix(-8.254457e-02 -0.9966 -0.9966 8.254457e-02 8551.3057 4340.0088)" gradientUnits="userSpaceOnUse">
			<stop  offset="2.066799e-05" style="stop-color:#F9F1E5"/>
			<stop  offset="1" style="stop-color:#CCBDA8"/>
		</radialGradient>
		<path class="st4" d="M1958.6,901.2c0,0-94.3,10.7-58.2-107.6c0,0,3.1-10.6,16.7-5.9c13.6,4.6,10.1,17.6,10.1,17.6
			s-21.7,28.2-3.8,50.8c17.9,22.6,28.3,24,37.9,22.1C1970.8,876,1970.7,902.4,1958.6,901.2z"/>
		
			<radialGradient id="SVGID_2_" cx="4083.8157" cy="6318.2363" r="19.4301" gradientTransform="matrix(-8.254457e-02 -0.9966 -0.9966 8.254457e-02 8551.3057 4340.0088)" gradientUnits="userSpaceOnUse">
			<stop  offset="2.066799e-05" style="stop-color:#F9F1E5"/>
			<stop  offset="1" style="stop-color:#CCBDA8"/>
		</radialGradient>
		<circle class="st5" cx="1917.4" cy="791.5" r="19.4"/>
	</g>
	<g>
		<g>
			<path class="st6" d="M1876.5,1064.2c-1.2-0.5-2.2-1.4-2.6-2.7c-0.4-1-0.8-2-1.1-3c-1.6-5.9-3.3-11.7-4.7-17.6
				c-1-4.1-1.9-8.4-2.7-12.6c-0.8-4.3-1.4-8.5-2-12.9c-0.3-2.2-0.5-4.4-0.6-6.7c-0.1-1.5,0.1-3,0-4.6c0-2.1,0.3-4.2,1.1-6.2
				c0.7-1.8,2.1-2,3.4-0.7c1.2,1.2,2.1,2.7,2.9,4.3c1.7,3.4,3,6.9,4,10.5c0.8,2.7,1.6,5.3,2.2,8c0.6,2.6,1.1,5.2,1.6,7.8
				c0.5,2.4,0.9,4.8,1.2,7.1s0.7,4.7,0.9,7c0.3,2.8,0.5,5.6,0.7,8.4c0.1,2.8,0.2,5.5,0.2,8.4c0,1.2-0.2,2.5-0.2,3.7
				c-0.1,0.7-0.5,1.2-1.2,1.4c-0.7,0.2-1.2,0.4-2,0.5C1877.3,1064.5,1876.9,1064.4,1876.5,1064.2z"/>
		</g>
		<g>
			<path class="st7" d="M2026.7,1109c-0.2,1-0.5,2-0.8,3c0,0.1-0.1,0.3-0.1,0.4c-0.2,0.5-0.5,1.2-0.8,1.7c-0.2,0.4-0.4,0.8-0.5,1.2
				c-0.1,0.2,0,0.4,0,0.5c0,0.1-0.1,0.3-0.1,0.4c-0.2,0.1-0.3,0.2-0.4,0.3c-0.4,1-0.8,2-1.1,3c0,0.2,0.1,0.4,0.1,0.6
				c0,0.1-0.1,0.3-0.1,0.4c-0.2,0.2-0.3,0.2-0.4,0.4c-0.2,0.5-0.5,1.2-0.8,1.6c-1.2,2.3-2.3,4.5-3.5,6.6c-2.7,4.6-5.9,8.7-9.8,12.2
				c-4.3,3.9-9.1,6.9-14.7,8.5c-4.4,1.3-8.9,2.2-13.5,1.2c-2.3-0.5-4.3-1.6-5.9-3.5c-1.7-2.3-2.3-4.9-2.3-7.6s0.5-5.4,1.2-8
				c0.6-2.2,1.5-4.2,2.7-6.1c0.9-1.2,2-2.3,2.9-3.6c1.2-1.6,2.1-3.4,2.7-5.3c0.5-1.4,1.1-2.6,2.2-3.5c0.4,0.8,0.9,1.6,1.2,2.4
				c0.1,0.2-0.2,0.5-0.4,0.5c-0.8,0.1-1.1,0.5-1.3,1.2c-0.9,2.6-2.3,4.8-4.1,6.9c-0.5,0.5-0.9,1.2-1.2,2c-0.5,1.2-0.9,2.3-1.2,3.5
				c-0.3,0.9-0.5,1.6-0.8,2.4c-0.7,2-0.4,3.8,0.1,5.8c0.2,0.9,0.5,1.9,0.9,2.8c1.6-0.9,3.1-1.8,4.2-3.2c2-2.6,4.4-4.8,6.9-6.9
				c2-1.7,3.8-3.7,5.6-5.6c0.8-0.8,1.3-1.7,2-2.6c0.4-0.5,0.3-1.3-0.2-1.7c-0.9-0.7-2-1.4-2.9-2c-0.5-0.3-0.9-0.5-1.5-0.8
				c-1.3-0.5-2.6-0.9-3.9-1.5c-0.2,0-0.4-0.2-0.6-0.3c0.2-0.2,0.3-0.3,0.5-0.3c1.2-0.3,2.6-0.7,3.8-0.9c0.6-0.2,1.2-0.2,1.3,0.7
				c0,0.2,0.2,0.3,0.4,0.4c1.6,1,3.2,2,4.7,3c0.7,0.5,1.6,0.5,2.4,0.6c1.6-0.1,3.3-0.2,4.8,0c1.2,0.1,2.4,0.6,3.6,1.2
				c1.7,0.9,3.6,1.7,5.2,2.7c1.6,0.9,3.2,0.8,4.8,0.2c0.9-0.3,1.6-0.9,2-1.9c1-2.4,2.1-4.9,3.1-7.3c0.4-1,0.5-2.2,0.7-3.3
				c0.2-1.3,0.4-2.7,0.6-4c0.5-2.5-0.4-4.6-2.1-6.3c-1.3-1.3-2.8-2.7-4.3-3.8c-0.8-0.6-1.7-1.1-2.7-1.4c-1.1-0.4-2.3-0.5-3.3-0.9
				c-0.1-0.1-0.3-0.3-0.3-0.5c0-0.3,0-0.5,0-0.9c0.1-0.4,0.3-0.8,0.4-1.2c0-0.2,0.1-0.5,0.1-0.7c0.1-0.3,0.2-0.6,0.3-0.9
				c0.5,0.1,1.1,0.2,1.6,0.3c0.7,0.2,1.5,0.3,2.2,0.5c0.2,0.1,0.5,0.2,0.6,0.2c0.7,0.3,1.5,0.5,2.2,0.9c0.9,0.8,1.8,1.5,2.7,2.3
				c0.1,0,0.2,0.1,0.2,0.1c0.3,0.4,0.6,0.7,0.9,1.1c0.2,0.1,0.2,0.2,0.4,0.3c0.4,0.3,0.7,0.8,1,1.1c0.1,0,0.2,0.1,0.2,0.1
				c0.5,0.8,1.1,1.5,1.7,2.2c0.1,0.2,0.2,0.4,0.2,0.5c0.2,1.2,0.5,2.4,0.7,3.7c-0.1,0.1-0.1,0.2-0.1,0.3
				C2027.1,1105.9,2026.8,1107.4,2026.7,1109z"/>
			<path class="st8" d="M1893.3,1005.6c0.3,1.6,0.5,3.1,0.9,4.8c0.2,1.2,0.5,2.3,0.8,3.4c0,0.2,0.2,0.5,0.3,0.6
				c0.8,0.4,0.7,1.2,0.8,2c0.2,1.4,0.2,2.9,0.7,4.3c0.6,1.8,1.6,3.5,2.7,5.1c0.7,1.2,1.7,2.3,2.5,3.5c0.5,0.8,1.3,1,2.2,1.1
				c0.5,0,0.9,0.2,1.1,0.6c0.5,0.9,1.2,1.2,2.2,0.8c0.2,0,0.5,0,0.7,0.1c0.5,0.1,0.9,0,0.9-0.5c0.5,0.8,0.3,1.6-0.2,2.3
				c-0.7,1.2-0.7,1.2,0.3,2c0.5,0.4,1,0.6,1.4,0.9c0.3,0.3,0.6,0.5,0.8,0.9c0.7,1.5,2,1.8,3.5,1.5c1.2-0.3,2.3-0.7,3.4-1.2
				c3.1-1.6,6.2-3.3,9.4-4.8c0.8-0.4,1.8-0.5,2.7-0.7c0.1,0,0.2,0.1,0.3,0.2c-2.7,0.5-5,1.8-7.2,3.2c-4.4,2.7-8.3,5.9-12.3,9
				c-4.4,3.4-8.7,6.8-13,10.1c-4,3-8.1,5.7-12.8,7.6c-0.5,0.2-1.1,0.5-1.6,0.7c-1.2,0.3-2.3,0.5-3.5,0.8c-0.6,0.2-1.2-0.3-1.1-0.9
				c0-0.8,0.1-1.5,0.1-2.3c0.2,0.2,0.5,0.5,0.8,0.7c0.5,0.5,1.2,0.7,2,0.5c2.4-0.5,4.5-1.5,6.7-2.5c3.3-1.6,6.2-3.4,9.1-5.5
				c1.8-1.3,3.4-2.6,5.1-4c1-0.9,1.7-2,1.8-3.3c0.1-1-0.1-2-0.7-2.9c-0.5-0.6-0.7-1.4-0.9-2.2c-0.9-2.6-1.7-5.2-3-7.6
				c-0.6-1.2-1.3-2.3-2-3.5c-0.3-0.5-0.5-1.2-0.9-1.7c-0.3-0.4-0.8-0.5-1.2-0.9c0-0.6-0.1-1.2-0.1-2c0-0.5,0-1-0.1-1.5
				c-0.2-0.6-0.3-1.2-0.6-1.8c-0.8-1.8-1.1-3.7-1.4-5.5c-0.5-2.4-1.1-4.8-1.7-7.1c-0.7-2.3-1.4-4.8-2.2-7c-0.9-3-2.1-5.9-3.9-8.5
				c-0.9-1.2-1.8-2.3-2.8-3.3c-1.2-1.2-2.9-1.1-4.5-0.8c-2,0.3-3.5,1.5-4.9,2.9c-1.7,1.8-3.2,3.7-4,6c-0.2,0.4-0.2,0.9-0.2,1.2
				c-0.5-0.5-0.9-0.9-1.4-1.3c-1-1.1-2.2-1.4-3.7-0.9c-0.2,0.1-0.4-0.1-0.5-0.1c0.2-0.4,0.3-0.9,0.5-1.2c0.1,0,0.2,0,0.2-0.1
				c1-1.5,2-3.1,3.2-4.5c1.6-2,3.6-3.7,6-4.6c1.3-0.5,2.8-0.8,4.3-0.6c1.3,0.2,2.5,0.7,3.6,1.3c2.1,1.2,4.1,2.7,5.4,4.8
				c1.1,1.9,2.4,3.7,3.4,5.7c1.1,2.1,2,4.3,3,6.5C1892.9,1005.2,1893.1,1005.5,1893.3,1005.6z"/>
			<path class="st9" d="M1893.5,1005.5c0.7,2.1,1.4,4.2,2,6.3c0.3,0.8,0.5,1.6,0.6,2.6c0.3-0.4,0.5-0.7,0.7-1
				c0.3-0.3,0.5-0.6,0.7-0.9c2.9-3.4,6.5-5.9,10.4-7.8c1.7-0.9,3.6-1.6,5.5-2.1c7.2-2.3,14.5-3.2,22-2.7c0.9,0.1,1.7,0.1,2.6,0.2
				c0.1,0,0.2,0.1,0.3,0.1c0.9,2.5,2,4.8,3,7.3c0.6,1.5,1.2,3,2,4.5c1.3,3.1,2.6,6.2,3.8,9.4c0.5,1.2,0.9,2.4,1.4,3.6
				c-0.2,0.4-0.2,0.6,0.3,0.7c0.1,0.3,0.2,0.5,0.3,0.9c-0.2,0.5-0.2,1,0.5,1.2c0.1,0.2,0.2,0.5,0.2,0.7c-0.5-0.5-1.1-0.9-1.4-1.6
				c-0.3-0.4-0.5-0.8-1-0.9c-0.5,0-1-0.3-1.6-0.5c-0.3-0.5-0.5-0.9-0.9-1.3c1.1-0.7,1.2-1.2,0.6-3c-0.5-2-1.2-3.7-2-5.6
				c-0.3-0.7-0.8-1.4-1.1-2.1c-0.9-2-1.8-4.1-2.7-6c-0.9-1.7-1.8-3.3-3.4-4.2c-1.9-1-3.8-1.5-5.9-1.6c-5.7-0.3-11.2,0.5-16.6,2.2
				c-1.3,0.4-2.8,0.7-4,1.4c-2.2,1.2-4.3,2.5-6.4,3.9c-1.2,0.9-2.3,2-3.4,2.9c-0.3,0.2-0.8,0.2-1.2,0.3c-0.1-0.1-0.1-0.1-0.2-0.2
				c-0.1,0.5-0.2,0.9-0.2,1.3c0,0.5,0,1,0.1,1.6c0,0.6,0.2,1.1,0.7,1.5c0.5,0.4,0.9,1,0.9,1.7c-0.1,2.3,0.9,4,2.4,5.6
				c1.5,1.7,2.9,3.4,4.8,4.7c0.5,0.5,1.2,0.6,2,1c0.5,0.4,1.1,0.8,1.6,1.2c-0.3,0.2-0.5,0.2-0.9,0.3c-0.4,0.2-0.7,0.3-1,0.4
				c-0.1,0.5-0.5,0.7-0.9,0.5c-0.2-0.1-0.5-0.2-0.7-0.1c-1,0.4-1.6,0.2-2.2-0.8c-0.2-0.4-0.5-0.6-1.1-0.6c-0.8-0.1-1.6-0.4-2.2-1.1
				c-0.9-1.2-1.8-2.3-2.5-3.5c-0.9-1.6-2-3.4-2.7-5.1c-0.5-1.3-0.5-2.8-0.7-4.3c-0.2-0.7,0-1.5-0.8-2c-0.2-0.1-0.2-0.4-0.3-0.6
				c-0.3-1.2-0.5-2.3-0.8-3.4c-0.3-1.6-0.5-3.1-0.9-4.8c-0.1-0.2-0.2-0.5,0.2-0.5C1893.4,1005.3,1893.5,1005.5,1893.5,1005.5z"/>
			<path class="st10" d="M2027.8,1104.9c-0.2,0.5-0.2,0.9-0.3,1.3c0,0.2,0.2,0.4,0.2,0.5c-0.6,1.7-1.2,3.4-1.9,5.1
				c0.2-1,0.6-2,0.8-3c0.3-1.6,0.5-3.2,0.7-4.8C2027.7,1104.3,2027.8,1104.6,2027.8,1104.9z"/>
			<path class="st10" d="M2022.8,1120.1c0-0.2-0.2-0.5-0.1-0.6c0.3-1,0.7-2,1.1-3c0.1-0.2,0.2-0.2,0.4-0.3
				C2023.7,1117.5,2023.2,1118.8,2022.8,1120.1z"/>
			<path class="st10" d="M2025,1114.2c-0.2,0.6-0.4,1.2-0.6,1.7c0-0.2-0.1-0.4,0-0.5C2024.4,1114.9,2024.6,1114.5,2025,1114.2
				C2024.9,1114.2,2024.9,1114.2,2025,1114.2z"/>
			<path class="st10" d="M2025.6,1112.4c-0.2,0.6-0.5,1.2-0.7,1.8c-0.1,0-0.1,0-0.1,0C2025,1113.5,2025.3,1113,2025.6,1112.4z"/>
			<path class="st11" d="M1980.6,1106.4c-0.7-1.7-1.6-3.4-2.3-5.1c-0.7-1.6-1.3-3.2-2-4.8c-1.2-3-2.4-6-3.7-9.1
				c-0.9-2.3-1.8-4.8-2.1-7.3c-0.5-3.9-0.9-7.7-0.9-11.7c0.1-4.8,0.5-9.7,1.1-14.6c0.5-3.4,1.1-6.6,1.6-9.9c0.1,0,0.1,0,0.1,0.1
				c0.7,1.4,1.6,1.7,3.1,1.5c2.3-0.3,4.4-0.5,6.6-0.2c0.5,0.2,0.9,0.2,1.4,0.4c0.8,0.2,1,0.6,0.9,1.5c-0.3,3-0.7,5.9-0.9,9
				c-0.2,3.4-0.2,6.6-0.4,10c-0.2,3.3-0.2,6.6-0.3,9.8c-0.1,1.9-0.1,3.7-0.2,5.6c-0.2,3.1-0.5,6.2-0.8,9.3c-0.2,1.3-0.6,2.6-0.9,3.8
				c-0.3,1.5-0.6,3-0.8,4.6c-0.1,1-0.2,2.2,0,3.2c0.2,1.5,0.5,3,1.2,4.4c0.8,2,1.9,3.8,3,5.7c0.9,1.6,3,2.6,4.9,2.1
				c1.5-0.4,3-0.9,4.5-1.5c0.6-0.2,1-0.1,1.6,0.2c1.6,0.6,3.2,0.9,4.8,1.6c1.6,0.8,3.4,0.8,5.1,1.2c1.3,0.3,2.5,0.9,3.7,1.8
				c1.2,0.9,2.7,1.6,4,2.3c0.9,0.5,2,1,3,1.4c0.4,0.2,0.9,0.2,1.2,0.2c0.5,0,0.9-0.3,1.2-0.9c0.6-1.5,1.4-2.9,2-4.4
				c0.5-1.1,0.8-2.2,1-3.4c0.2-1.3,0.3-2.7,0.5-4.1c0.2-1.6-0.2-2.9-1.1-4.1c-1.6-2.3-3.6-4.3-6-5.7c-1.2-0.7-2.7-1.1-4.1-1.1
				c-0.3,0-0.5,0-1-0.1c0.3-0.9,0.6-1.7,0.9-2.5c0.3-0.7,0.6-1.3,0.9-2c0-0.1,0.2-0.2,0.2-0.2c-0.1,0.3-0.1,0.5,0,0.9
				c0,0.2,0.2,0.5,0.3,0.5c1.1,0.3,2.3,0.5,3.3,0.9c0.9,0.4,2,0.8,2.7,1.4c1.5,1.2,3,2.5,4.3,3.8c1.7,1.7,2.5,3.8,2.1,6.3
				c-0.2,1.3-0.3,2.7-0.6,4c-0.2,1.1-0.3,2.2-0.7,3.3c-0.9,2.4-2.1,4.9-3.1,7.3c-0.4,1-1.1,1.5-2,1.9c-1.6,0.5-3.2,0.6-4.8-0.2
				c-1.7-0.9-3.5-1.7-5.2-2.7c-1.1-0.5-2.3-1.1-3.6-1.2c-1.6-0.1-3.3,0-4.8,0c-0.9,0-1.6-0.1-2.4-0.6c-1.5-1-3.1-2-4.7-3
				c-0.2-0.2-0.4-0.2-0.4-0.4c-0.2-0.9-0.8-0.8-1.3-0.7c-1.3,0.3-2.6,0.6-3.8,0.9c-0.2,0.1-0.2,0.2-0.5,0.3c0.3,0.2,0.5,0.2,0.6,0.3
				c1.3,0.5,2.6,0.9,3.9,1.5c0.5,0.2,1,0.5,1.5,0.8c1,0.7,2,1.4,2.9,2c0.5,0.4,0.5,1.2,0.2,1.7c-0.6,0.9-1.2,1.8-2,2.6
				c-1.8,2-3.6,4-5.6,5.6c-2.5,2.1-4.9,4.4-6.9,6.9c-1.2,1.5-2.7,2.3-4.2,3.2c-0.3-0.9-0.5-2-0.9-2.8c-0.5-1.9-0.8-3.8-0.1-5.8
				c0.3-0.9,0.5-1.6,0.8-2.4c0.4-1.2,0.8-2.3,1.2-3.5c0.3-0.7,0.7-1.4,1.2-2c1.8-2.1,3.2-4.3,4.1-6.9c0.2-0.7,0.5-1.1,1.3-1.2
				c0.2,0,0.5-0.5,0.4-0.5c-0.4-0.8-0.8-1.6-1.2-2.4C1982.6,1111,1981.7,1108.7,1980.6,1106.4z M1983.1,1131.5c1-1,2.1-2,3-3
				c2.2-2.3,4.4-4.6,6.6-6.9c0.5-0.5,0.4-1-0.1-1.4c-0.9-0.9-1.9-1.6-3-2c-1.1-0.3-2.2-0.7-3.3-1c-0.6-0.2-1,0-1.2,0.6
				c-0.9,2.5-2.3,4.8-3.7,7.1c-0.3,0.5-0.4,1.3-0.4,2c-0.1,1.5,0.1,3,0,4.6c0,0.5-0.3,1.1-0.4,1.6c0,0.2-0.1,0.4-0.2,0.6
				c0.1,0.1,0.2,0.1,0.2,0.2C1981.4,1133.1,1982.3,1132.3,1983.1,1131.5z"/>
			<path class="st9" d="M1893.1,1028.5c-1.8,0.8-3.6,1.5-5.3,2.3c-1.9,1-3.7,2.2-5.6,3.3c-0.5,0.4-1.1,0.8-1.6,1.2
				c-0.5,0.3-0.9,0.6-1.4,0.9c-0.5,0.4-0.9,0.9-1.4,1.2c-0.2,0.2-0.5,0.2-0.9,0.2c-0.1-0.8-0.2-1.6-0.2-2.3
				c-0.9-7.9-1.8-15.8-3.5-23.6c-0.7-3.2-1.5-6.4-3-9.4c-0.3-0.6-0.7-1.2-1-1.9c0.1-0.4,0.1-0.9,0.2-1.2c0.9-2.3,2.3-4.3,4-6
				c1.3-1.3,2.9-2.6,4.9-2.9c1.6-0.3,3.3-0.5,4.5,0.8c1.1,1,2,2.2,2.8,3.3c1.8,2.6,3,5.5,3.9,8.5c0.8,2.3,1.6,4.7,2.2,7
				s1.2,4.7,1.7,7.1c0.4,1.9,0.6,3.7,1.4,5.5c0.2,0.6,0.5,1.2,0.6,1.8c0.1,0.5,0.1,1,0.1,1.5c0,0.6,0.1,1.2,0.1,2
				C1894.8,1028.1,1893.9,1028.3,1893.1,1028.5z"/>
			<path class="st12" d="M1972.5,1043.5c0.6-3.3,0.9-6.6,2.5-9.7c1.2-2.1,2.7-3.9,4.8-5.1c2.7-1.4,5.8-1.6,8.8-1.3
				c1.8,0.2,3.6,0.6,5.3,1c1.5,0.4,3,0.9,4.4,1.4c1.2,0.4,2.3,1,3.4,1.5c1.6,0.8,3.4,1.4,5,2.3c2.3,1.2,4.7,2.7,6.9,4
				c2.1,1.3,4.2,2.8,6.3,4.1c0.4,0.3,0.6,0.5,0.4,1.1c-0.5,1-0.9,2-1.2,3c-0.4,1-0.9,2.1-1.3,3.1c-0.8,1.7-1.6,3.5-2.3,5.2
				c-0.5,1.1-1,2.2-1.6,3.2c-0.6,1.3-1.2,2.5-1.9,3.7c-0.3,0.4-0.5,0.9-0.8,1.3c-0.2,0.4-0.5,0.9-0.8,1.3c-0.2,0.2-0.2,0.5-0.4,0.8
				c-0.3,1-0.6,2-0.9,3c0,0.1-0.1,0.2-0.1,0.3c0-0.3-0.1-0.6-0.1-0.9c0-0.2-0.1-0.4-0.1-0.5c0.1-0.2,0.1-0.3,0.2-0.5
				c0.2-0.2,0.6-0.5,0.2-0.9c0.1-0.3,0.2-0.6,0.3-0.9c0.2-0.4,0.5-0.7,0.8-1.2c1.1-2.1,2.3-4.1,3.4-6.2c0.7-1.3,1.2-2.7,1.9-4.1
				c0.4-0.8,0.8-1.6,1-2.4c0.5-1.7,1-3.4,1.5-5.1c0.1-0.3,0.2-0.5,0.3-0.8c0.2-0.6,0.1-1.2-0.2-1.7c-1.5-2.8-4.1-4.4-6.6-6
				c-1.7-1-3.4-2-5.1-3c-0.9-0.5-1.7-0.9-2.6-1.2c-2.7-1.1-5.4-2.3-8.1-3.3c-2.3-0.8-4.8-1.4-7.3-1.6c-1.3-0.1-2.7,0.2-4,0.2
				c-2.8,0.2-5.1,1.2-7,3.4c-1.7,2-2.8,4.1-3.4,6.6c-0.2,0.7-0.2,1.4-0.3,2.1c0,0.1-0.1,0.2-0.1,0.3c0,0.2-0.1,0.4-0.1,0.5
				c0,0.1-0.1,0.3-0.1,0.4c-0.1,0.3-0.2,0.5-0.2,0.9c-0.4,1.6,0.5,2.7,2.3,2.6c1.7,0,3.4-0.1,5.1-0.1c1.4,0.1,2.8,0.2,4.1,0.9
				c0.9,0.5,1.4,1.4,1.2,2.4c-0.4,3-0.8,6.2-0.9,9.3c-0.2,6.1-0.2,12.2-0.3,18.3c0,4.4,0,8.8-0.1,13.2c0,2.3-0.5,4.5-1,6.8
				c-0.5,2-0.9,4.1-1,6c-0.2,1.9,0.1,3.8,1,5.5c2,3.7,5.1,5.8,9.8,4.8c3-0.6,5.5-2.3,7.9-4.1c2.3-2,4.4-4.2,6-6.8
				c1.2-1.8,2-3.7,3-5.5c0.9-1.6,1.2-3.4,1.7-5.2c0.1-0.3-0.2-0.6-0.2-0.9c-0.2-0.8-0.3-1.6-0.5-2.4c-0.2-0.9-0.4-1.8-0.5-2.7
				c-0.1-0.2-0.3-0.5-0.4-0.6c-0.2-0.9-0.3-1.9-0.5-2.8c-0.1-1.2-0.2-2.4-0.4-3.7c-0.1-0.9-0.2-1.6-0.3-2.5c-0.1,0,0.1-0.1,0.2-0.1
				c0.1,0.6,0.2,1.2,0.3,1.7c0.1,0.4,0.1,0.8,0.2,1.1c0.1,0.2,0.1,0.2,0.2,0.4c0,0.4-0.2,0.9,0.3,1.2c-0.1,0-0.1,0-0.1,0.1
				c0,0.3-0.1,0.6,0,0.9c0.8,3.4,1.6,6.7,2.3,10.1c0,0.2,0.1,0.5,0.2,0.7c-0.1,0.3-0.2,0.6-0.3,0.9c-0.2,0.2-0.5,0.4-0.1,0.7
				c-0.1,0.4-0.3,0.8-0.4,1.2c-0.1,0.1-0.2,0.2-0.2,0.2c-0.3,0.6-0.6,1.3-0.9,2c-0.3,0.9-0.6,1.6-0.9,2.5c0.5,0,0.8,0.1,1,0.1
				c1.5,0.1,2.8,0.4,4.1,1.1c2.4,1.4,4.4,3.4,6,5.7c0.8,1.2,1.2,2.6,1.1,4.1c-0.2,1.3-0.3,2.7-0.5,4.1c-0.2,1.1-0.5,2.3-1,3.4
				c-0.6,1.5-1.4,2.9-2,4.4c-0.2,0.6-0.5,0.9-1.2,0.9c-0.4,0-0.9,0-1.2-0.2c-1-0.5-2-0.9-3-1.4c-1.3-0.7-2.7-1.4-4-2.3
				c-1.2-0.8-2.3-1.4-3.7-1.8c-1.6-0.4-3.4-0.5-5.1-1.2c-1.5-0.7-3.2-1.1-4.8-1.6c-0.5-0.2-1-0.3-1.6-0.2c-1.5,0.5-3,1-4.5,1.5
				c-1.8,0.5-4-0.5-4.9-2.1c-1-1.9-2.1-3.7-3-5.7c-0.5-1.3-0.9-2.9-1.2-4.4c-0.2-1-0.2-2.2,0-3.2c0.2-1.6,0.5-3.1,0.8-4.6
				c0.2-1.3,0.7-2.6,0.9-3.8c0.4-3.1,0.6-6.2,0.8-9.3c0.1-1.9,0.1-3.7,0.2-5.6c0.1-3.3,0.2-6.6,0.3-9.8c0.1-3.4,0.2-6.7,0.4-10
				c0.2-3,0.6-6,0.9-9c0.2-0.9-0.1-1.2-0.9-1.5c-0.5-0.2-0.9-0.3-1.4-0.4c-2.3-0.4-4.4-0.2-6.6,0.2c-1.6,0.2-2.4-0.2-3.1-1.5
				c0-0.1-0.1-0.1-0.1-0.1C1972.6,1043.8,1972.6,1043.7,1972.5,1043.5z M2006.9,1104.1c-0.7,0.2-1.4,1-2,1.6
				c-1.4,1.3-2.8,2.6-4.2,3.9c-0.2,0.2-0.5,0.4-0.8,0.6c-0.2,0.2-0.2,0.4-0.3,0.6c0.2,0,0.4,0.2,0.5,0.2c2.1,0,4.1,0.7,6.2,1.2
				c1.6,0.4,2.5,1.6,3.2,2.9c0.8,1.5,2,2.6,3.6,3.3c0.9,0.4,1.7,0.9,2.6,1.4c0.5,0.3,0.6,0.2,0.8-0.3c0.3-2.6,1.1-5.1,2-7.5
				c0.2-0.3,0.2-0.6,0.4-0.9c0.3-0.8-0.2-1.3-0.5-1.9c-1.1-2.3-2.8-3.8-5.3-4.8C2011,1103.7,2008.9,1103.6,2006.9,1104.1z"/>
			<path class="st13" d="M1878.6,1048.1c0.2-0.7,0.2-1.6,0.3-2.3c0.2-0.7,0.4-1.4,0.7-2.1c0.4-0.9,0.9-1.6,1.5-2.3
				c1.4-2,3-3.6,4.8-5.1c2.7-2.1,5.5-4,8.7-5.3c1-0.4,1.9-0.4,2.5,0.5c0.7,1,1.5,2,2.1,3.1c1.4,2.4,2,5.1,2.9,7.8
				c0.2,0.5,0.3,1.2,0.5,1.7c0.5,1.6,0.1,3.2-0.5,4.7c-0.1,0.3-0.3,0.5-0.5,0.7c-3,2-6.1,4.1-9.1,6.1c-2,1.2-4.1,1.7-6.3,2.2
				c-1.1,0.2-2.3,0.3-3.4,0.4c-0.6,0.1-1.1-0.2-1.3-0.9c-0.9-2.2-1.8-4.4-2.7-6.6c-0.1-0.2-0.4-0.3-0.5-0.5c0-0.4-0.1-0.8-0.1-1.2
				C1878.1,1048.6,1878.4,1048.4,1878.6,1048.1z M1884.1,1044.9c-0.2,0.7-0.2,1.3,0.3,2c1,1.3,2.2,2.4,3.6,3.2c0.9,0.5,2,1,3,1.2
				c0.7,0.2,1.6-0.1,2.3-0.3c1.5-0.8,3-1.6,4.4-2.5c0.6-0.4,1.2-0.9,1.9-1.2c1.3-0.5,1.6-1.9,1.4-3c-0.5-2.4-1.1-4.8-1.8-7.2
				c-0.3-1.2-1-2.3-1.6-3.4c-0.4-0.7-1.6-0.9-2.3-0.5c-2.4,1.7-5,3.4-7.3,5.1c-1.2,0.8-1.9,2-2.4,3.2c-0.4,0.9-0.9,1.9-1.2,2.7
				c-0.1,0,0,0,0,0C1884.2,1044.6,1884.1,1044.8,1884.1,1044.9z"/>
			<path class="st14" d="M1876.8,1037.6c0.3-0.1,0.6-0.1,0.9-0.2c0.5-0.4,0.9-0.8,1.4-1.2c0.5-0.3,0.9-0.6,1.4-0.9
				c0.5-0.4,1-0.9,1.6-1.2c1.9-1.1,3.7-2.3,5.6-3.3c1.7-0.9,3.5-1.6,5.3-2.3c0.8-0.3,1.6-0.5,2.5-0.8c0.4,0.3,0.9,0.5,1.2,0.9
				c0.5,0.5,0.6,1.2,0.9,1.7c0.6,1.2,1.3,2.3,2,3.5c1.3,2.4,2.1,5.1,3,7.6c0.2,0.7,0.5,1.5,0.9,2.2c0.7,0.9,0.8,1.9,0.7,2.9
				c0,1.4-0.8,2.5-1.8,3.3c-1.6,1.4-3.4,2.7-5.1,4c-2.9,2.1-5.9,4.1-9.1,5.5c-2.2,1-4.4,2-6.7,2.5c-0.8,0.2-1.5,0-2-0.5
				c-0.2-0.2-0.5-0.5-0.8-0.7c0-0.2-0.1-0.4-0.1-0.6c-0.1-1.7-0.2-3.4-0.3-5.1c-0.1-1.6-0.2-3.3-0.2-4.9c0.2,0.2,0.4,0.4,0.5,0.5
				c0.9,2.2,1.9,4.4,2.7,6.6c0.2,0.6,0.7,0.9,1.3,0.9c1.1-0.2,2.3-0.2,3.4-0.4c2.2-0.5,4.4-1,6.3-2.2c3-2,6.1-4.1,9.1-6.1
				c0.2-0.2,0.5-0.4,0.5-0.7c0.7-1.5,1-3,0.5-4.7c-0.2-0.5-0.3-1.2-0.5-1.7c-0.8-2.6-1.5-5.4-2.9-7.8c-0.6-1.1-1.3-2.1-2.1-3.1
				c-0.7-0.9-1.6-0.9-2.5-0.5c-3.1,1.4-6,3.2-8.7,5.3c-1.9,1.5-3.5,3.1-4.8,5.1c-0.5,0.8-1,1.6-1.5,2.3c-0.3,0.6-0.5,1.4-0.7,2.1
				c-0.2,0.7-0.2,1.6-0.3,2.3c-0.1,0.3-0.3,0.6-0.5,0.9C1877.6,1045.1,1877.3,1041.4,1876.8,1037.6z"/>
			<path class="st15" d="M1950.1,1029.3c0.6,1.4,1.1,2.9,1.7,4.4c0.7,1.7,1.5,3.4,2.2,5.1c0.2,0.5,0.5,1.2,0.7,1.9
				c-0.3-0.1-0.5-0.2-0.7-0.3c-2.1-0.9-4.2-1.7-6.4-2.5c-4.3-1.6-8.6-3.1-13-4.6c-1.4-0.5-2.8-1.1-4.4-0.9c-0.1-0.1-0.2-0.2-0.3-0.2
				c-0.9,0.2-1.9,0.3-2.7,0.7c-3.1,1.6-6.2,3.3-9.4,4.8c-1.1,0.6-2.3,1-3.4,1.2c-1.4,0.3-2.7,0.1-3.5-1.5c-0.2-0.4-0.5-0.6-0.8-0.9
				c-0.5-0.4-0.9-0.6-1.4-0.9c-1-0.9-1-0.9-0.3-2c0.5-0.7,0.7-1.5,0.2-2.3c0.4-0.2,0.7-0.3,1-0.4c0.3-0.2,0.5-0.2,0.9-0.3
				c0.9,0.5,2,0.3,3,0.2c-0.2,0.5-0.5,0.9-0.7,1.5c-0.5,1.1-0.5,1.6,0.5,2.2c1.1,0.5,2.2,1.2,3.6,1.3c1.6,0.2,3-0.5,4.4-1.2
				c2.2-1.1,4.2-2.3,6.6-2.7c1.2-0.2,2.3,0,3.6,0.2c0.9,0.2,2,0.4,2.9,0.6c1.2,0.2,2.3,0.5,3.4,0.8c1.6,0.4,3,0.8,4.6,1
				c1.1,0.2,2.1,0.5,3.2,0.5c1.3,0,1.8-0.5,1.4-1.7c-0.5-1.3-1-2.6-1.4-3.9c-0.3-1.2-1-1.9-2-2.6c0.4-0.3,0.8-0.5,1.2-0.8
				c0.2-0.2,0.4-0.3,0.6-0.5c0.5,0.2,1,0.5,1.6,0.5s0.7,0.5,1,0.9c0.5,0.6,0.9,1,1.4,1.6C1949.7,1028.7,1950,1029,1950.1,1029.3z"/>
			<path class="st10" d="M2010.4,1079.7c0.5,2,0.9,4,1.3,6c0.4,1.4,0.8,2.8,1.2,4.3c0.1,0.4,0.2,0.5,0.6,0.5c0.2,0,0.5,0.4,0.7,0.5
				c-0.5-0.1-1.1-0.2-1.6-0.3c0-0.2-0.1-0.5-0.2-0.7c-0.8-3.4-1.6-6.7-2.3-10.1c-0.1-0.3,0-0.6,0-0.9
				C2010.3,1079.4,2010.4,1079.5,2010.4,1079.7z"/>
			<path class="st16" d="M2009.2,1069.1c0,0.2,0,0.4,0,0.5c0,0.3,0,0.7,0,1c0,0.1,0,0.1,0,0.1c0,0.8,0,1.7,0.1,2.5
				c0,0.1,0,0.3,0,0.4s-0.1,0.2-0.1,0.2c-0.1-0.1-0.3-0.1-0.2-0.2c-0.2-2.4-0.4-4.8,0.2-7.2c0,0.2,0.1,0.4,0.1,0.5
				c0,0.3,0.1,0.6,0.1,0.9C2009.2,1068.4,2009.2,1068.7,2009.2,1069.1z"/>
			<path class="st10" d="M2009.7,1074.4c0.2,0.7,0.2,1.5,0.2,2.2c0,0.3-0.2,0.6-0.3,0.9c-0.1-0.4-0.1-0.8-0.2-1.1
				c-0.1-0.6-0.2-1.2-0.3-1.7c0-0.1,0-0.1,0-0.1c0-0.2,0-0.3,0-0.5c-0.1-0.1-0.1-0.2-0.1-0.2c0-0.1,0.1-0.2,0.1-0.2
				C2009.4,1074,2009.7,1074.2,2009.7,1074.4z"/>
			<path class="st10" d="M2027.5,1101.4c0,0.5,0.2,1.1,0.2,1.6c0.2,0.5,0.1,0.8-0.3,1c-0.2-1.2-0.5-2.4-0.7-3.7
				C2027.1,1100.5,2027.5,1100.7,2027.5,1101.4z"/>
			<path class="st10" d="M2019.9,1092.8c0.7,0.5,1.3,0.9,2,1.5c0.2,0.1,0.1,0.5,0.1,0.7c-0.9-0.8-1.8-1.5-2.7-2.3
				C2019.4,1092.7,2019.7,1092.7,2019.9,1092.8z"/>
			<path class="st10" d="M2025.3,1097.6c0.4,0.3,0.6,0.7,0.9,1.1c0.2,0.4,0.5,0.8,0.2,1.2c-0.5-0.8-1.1-1.5-1.7-2.2
				C2024.9,1097.6,2025.2,1097.5,2025.3,1097.6z"/>
			<path class="st10" d="M2009.3,1073.3c0-0.8,0-1.7-0.1-2.5C2009.7,1071.2,2009.8,1072.6,2009.3,1073.3z"/>
			<path class="st10" d="M2024.5,1097.5c-0.4-0.3-0.7-0.8-1-1.1C2024.2,1096.2,2024.7,1096.7,2024.5,1097.5z"/>
			<path class="st10" d="M2022.8,1095.1c0.3,0.2,0.5,0.5,0.3,1c-0.3-0.4-0.6-0.7-0.9-1.1C2022.3,1095,2022.6,1095,2022.8,1095.1z"/>
			<path class="st10" d="M2011.3,1062.7c0.3-0.4,0.5-0.9,0.8-1.3C2012.4,1061.9,2011.9,1062.7,2011.3,1062.7z"/>
			<path class="st10" d="M2009.4,1067.8c0.5,0.4,0.4,1-0.2,1.2c0-0.3,0-0.6,0-1C2009.3,1068,2009.3,1067.9,2009.4,1067.8z"/>
			<path class="st10" d="M2010.2,1079c-0.5-0.2-0.3-0.8-0.3-1.2C2010.5,1078.1,2010.4,1078.6,2010.2,1079z"/>
			<path class="st15" d="M1949.4,1027.7c-0.7-0.2-0.7-0.6-0.5-1.2C1949,1027,1949.2,1027.3,1949.4,1027.7z"/>
			<path class="st10" d="M2010.8,1064.5c-0.2,0.1-0.5,0.2-0.6,0.3c0.2-0.2,0.2-0.5,0.4-0.8
				C2010.7,1064.1,2010.8,1064.3,2010.8,1064.5z"/>
			<path class="st10" d="M2009.1,1070.6c0-0.3,0-0.7,0-1C2009.7,1069.9,2009.5,1070.3,2009.1,1070.6z"/>
			<path class="st10" d="M2016.9,1091.4c0,0.2,0.2,0.3,0.2,0.5c-0.2-0.1-0.5-0.2-0.6-0.2C2016.5,1091.6,2016.7,1091.5,2016.9,1091.4
				z"/>
			<path class="st15" d="M1948.6,1025.7c-0.4-0.1-0.5-0.3-0.3-0.7C1948.4,1025.3,1948.5,1025.5,1948.6,1025.7z"/>
			<path class="st11" d="M2012.2,1092.4c-0.4-0.3-0.2-0.5,0.1-0.7C2012.2,1092,2012.2,1092.2,2012.2,1092.4z"/>
			<path class="st17" d="M1942.1,1024c0.2-0.2,0.4-0.3,0.5-0.3c1.3-0.2,1.9-1,1.7-2.3c-0.2-1.1-0.6-2.1-0.9-3.2
				c-0.2-0.5-0.3-1-0.5-1.6c-0.5-1.1-1.1-2.1-1.6-3.2c-0.9-1.7-1.8-3.4-2.7-5c-0.9-1.7-2.1-3.1-3.7-4.1c-1.9-1.2-3.9-1.6-6.1-1.7
				c-5.9-0.5-11.6,0.5-17.2,2.5c-2.2,0.9-4.3,2.1-6.3,3.4c-1.5,0.9-2.9,2-4.2,3.2c-1.6,1.4-1.6,1.5-0.7,3.4c0.9,1.7,1.4,3.6,1.8,5.5
				c0.2,1.1,0.9,1.9,1.5,2.7c1.2,1.5,2.3,3,3.8,4.1c0.6,0.5,1.3,0.9,2,1.2c-0.2,0.2-0.5,0.5-0.8,0.9c-0.6-0.3-1.4-0.5-2-1
				c-1.8-1.3-3.3-3-4.8-4.7c-1.4-1.6-2.4-3.4-2.4-5.6c0-0.7-0.3-1.2-0.9-1.7c-0.5-0.4-0.7-0.9-0.7-1.5c0-0.5-0.1-1-0.1-1.6
				c0-0.5,0.2-0.9,0.2-1.3c0.1,0.1,0.1,0.1,0.2,0.2c0.4-0.1,0.9-0.1,1.2-0.3c1.2-0.9,2.2-2,3.4-2.9c2-1.3,4.1-2.7,6.4-3.9
				c1.2-0.6,2.7-1,4-1.4c5.4-1.7,11-2.6,16.6-2.2c2.1,0.2,4.1,0.6,5.9,1.6c1.7,0.9,2.7,2.6,3.4,4.2c1,2,1.8,4.1,2.7,6
				c0.4,0.7,0.8,1.3,1.1,2.1c0.7,1.9,1.5,3.7,2,5.6c0.5,1.9,0.5,2.3-0.6,3C1943.8,1024.1,1943,1024,1942.1,1024z"/>
			<path class="st18" d="M1911.2,1028.3c0.5,0,0.9,0.2,1.2,0c1.1-0.5,2.1-1.1,3.1-1.6c0.7-0.2,1.2-0.3,1.9-0.5
				c1.7-0.6,3.5-1.2,5.4-1.3s3.7-0.5,5.6-0.6c2.7-0.1,5.4-0.1,8.1-0.1c1,0,2.1-0.1,3.1-0.2c0.1,0,0.2,0.1,0.3,0.1
				c-0.4,0.6-0.5,1.3-0.4,2c-0.2,0.1-0.4,0.1-0.7,0.2c-0.8-0.7-1.8-0.5-2.7-0.6c-2.7-0.2-5.5-0.3-8.3-0.2c-2.1,0.1-4.1,0.5-6.2,1
				c-0.9,0.2-1.8,1-2.8,1.6c-0.2,0-0.4,0-0.5,0.1c-1.2,0.8-2.3,1.5-3.5,2.2c-0.5,0.3-1,0.4-1.6,0.6c-1,0.1-2,0.2-3-0.2
				c-0.5-0.4-1.1-0.8-1.6-1.2c0.2-0.2,0.5-0.5,0.8-0.9C1910.2,1028.5,1910.7,1028.4,1911.2,1028.3z"/>
			<path class="st14" d="M1942.1,1023.9c0.9,0.1,1.7,0.2,2.6,0.2c0.3,0.5,0.5,0.9,0.9,1.3c-0.2,0.2-0.4,0.4-0.6,0.5
				c-0.3,0.3-0.8,0.5-1.2,0.8c-0.9-0.2-2-0.3-2.9-0.5c-0.4-0.1-0.9-0.2-1.2-0.4c-0.2-0.7,0-1.4,0.4-2
				C1940.8,1024,1941.4,1023.9,1942.1,1023.9z"/>
			<path class="st12" d="M1980.4,1133.7c0-0.2,0.1-0.4,0.2-0.6c0.2-0.5,0.4-1,0.4-1.6c0.1-1.5-0.1-3,0-4.6c0.1-0.7,0.1-1.5,0.4-2
				c1.4-2.3,2.7-4.6,3.7-7.1c0.2-0.6,0.6-0.9,1.2-0.6c1.1,0.3,2.2,0.7,3.3,1c1.2,0.4,2.1,1.2,3,2c0.5,0.4,0.5,0.9,0.1,1.4
				c-2.2,2.3-4.4,4.6-6.6,6.9c-1,1-2,2-3,3c-0.8,0.8-1.6,1.6-2.4,2.3C1980.6,1133.9,1980.5,1133.8,1980.4,1133.7z"/>
			<path class="st19" d="M2009,1074.8c0.1,0.9,0.2,1.6,0.3,2.5c0.1,1.2,0.2,2.4,0.4,3.7c0,0.6,0.1,1.2,0.1,1.8
				c-0.1-0.5-0.4-0.9-0.4-1.4c-0.3-2.3-0.5-4.8-0.8-7.1c0-0.2-0.2-0.3-0.2-0.5s0-0.3,0-0.5c0-1,0-2-0.1-3c-0.1-2,0.1-4,0.7-5.9
				c0.3-1.2,1.1-2.2,1.6-3.4c0.4-0.9,0.9-1.8,1.3-2.7c0.7-1.6,1.5-3.3,2.1-4.9c0.7-2.2,1.6-4.4,1.3-6.9c-0.2-1.4-0.3-3-0.7-4.3
				c-0.3-0.9-1-1.6-1.6-2.3c-1.7-2-3.9-3.3-6.2-4.5c-2.1-1.2-4.4-2.3-6.6-3.4c-1.9-0.9-3.8-1.6-5.8-2.3c-0.9-0.4-2-0.6-3-0.8
				c-2.6-0.4-5.2-0.3-7.7,0.5c-3,0.9-5.1,2.7-6.7,5.2c-1.2,1.7-1.8,3.7-2.3,5.7s0.2,2.7,2.3,2.7c0.3,0,0.6-0.1,0.9-0.2
				c0.1,0,0.2,0.1,0.3,0.1c0.5-0.1,0.9-0.1,1.3-0.1c0.7,0.1,1.3,0.2,2,0.3c1.1,0.3,2.2,0.7,3.3,1c0.2,0.1,0.2,0.2,0.4,0.3
				c0.1,0,0.3,0.1,0.4,0.1c0.1,0.1,0.2,0.2,0.2,0.2c0.1,0,0.2,0.1,0.3,0.1c0.1,0.2,0.2,0.2,0.2,0.4c0.1,0,0.2,0.1,0.3,0.1
				c0.8,0.5,1.3,1.3,1.6,2.3c0.2,0.5,0.3,1.2,0.2,1.7c-0.2,2.5-0.6,5-0.6,7.5c-0.2,6.9-0.1,13.9-0.1,20.8c0,5.3,0.1,10.6,0,15.8
				c0,1.6-0.2,3.2-0.2,4.8c0,0.9,0.3,1.8,0.4,2.7c0.2,1.4,1,2.1,2.2,2.7c1,0.5,2,1.2,3.2,1.2c1.7,0,3.4-0.5,4.9-1.3
				c2.7-1.5,4.8-3.4,6.6-5.8c1.6-2,2.9-4.1,3.7-6.6c0.4-1.1,0.9-2.2,1.4-3.3c0.2-0.4,0.2-0.9,0.2-1.3c-0.1-0.9-0.2-1.8-0.4-2.8
				c0.2,0.9,0.5,1.7,0.7,2.6c0.2,0.4,0.2,0.6,0.2,1c0.2,0.6,0.1,1.2-0.2,1.9c-0.5,0.9-0.7,2.1-1.1,3.1c-0.9,2.3-2.1,4.5-3.6,6.6
				c-1.6,2.3-3.6,4.4-5.9,6.1c-2.6,1.9-5.4,2.6-8.5,2.3c-1.1-0.1-2-0.5-2.8-1.2c-0.5-0.5-1.2-0.9-1.7-1.3c-0.3-0.3-0.5-0.6-0.7-1
				c-0.9-2.2-0.5-4.4-0.2-6.6c0.2-3.6,0.5-7.2,0.7-10.8c0.1-2.5,0-5.1,0-7.6c0-2.9,0.2-5.7,0.2-8.6c0.1-4.1,0-8.1,0.2-12.2
				c0.2-3.1,0.5-6.2,0.9-9.4c0-0.5,0-1-0.4-1.4c-1.2-1.4-2.5-2.7-4.4-3.1c-1.3-0.2-2.7-0.4-4.1-0.5c-1.3-0.2-2.7-0.2-4.1-0.2
				c-0.6,0-1.1-0.6-1.1-1.3c0-0.6,0.1-1.2,0.2-1.9c0.7-2.2,1.2-4.5,2.6-6.5c1.6-2.3,3.7-4,6.4-4.8c2-0.5,4.1-0.6,6.2-0.8
				c1.1-0.1,2.3,0.2,3.4,0.5c2.4,0.7,4.9,1.6,7.3,2.5c2,0.8,3.9,1.8,5.8,2.8c1.6,0.9,3.2,1.6,4.6,2.6c1.3,0.9,2.6,1.9,3.7,2.9
				c0.8,0.8,1.5,1.7,2.2,2.6c0.2,0.2,0.2,0.4,0.2,0.6c0.3,1.9,0.5,3.8-0.2,5.7c-0.9,2.1-1.5,4.3-2.3,6.4c-0.7,1.7-1.6,3.4-2.3,5.1
				c-0.7,1.4-1.4,2.9-2.1,4.2c-0.1,0.3-0.2,0.6-0.3,0.9s-0.2,0.5-0.2,0.9c-0.1,0.2-0.1,0.3-0.2,0.5c-0.5,2.4-0.3,4.8-0.2,7.2
				c0,0.1,0.2,0.1,0.2,0.2c0.1,0.1,0.1,0.2,0.1,0.2c0,0.2,0,0.3,0,0.5c0,0.1,0,0.1,0,0.1C2009.1,1074.8,2009,1074.8,2009,1074.8z"/>
			<path class="st16" d="M2010.1,1084c0-0.1,0.1-0.2,0.1-0.3l0,0c0.2,0.2,0.3,0.4,0.4,0.6c0.2,0.9,0.4,1.7,0.5,2.7
				c0.2,0.8,0.3,1.6,0.5,2.4c-0.5,1.5-0.9,3-1.5,4.4c-2.1,5.3-5.3,9.8-9.9,13.3c-2.3,1.7-5,3-8,2.9c-2.3-0.1-4.4-0.7-6.2-2.4
				c-1.9-1.9-2.3-4.1-2-6.6c0.6-5.5,1.7-10.8,1.7-16.3c0-3.1,0.1-6.2,0.2-9.4c0.1-3.9,0-7.7,0.2-11.5c0.2-4.2,0.4-8.3,0.5-12.6
				c0.1-0.9,0.2-1.9,0.4-2.8c0.1-0.7-0.1-1.2-0.5-1.6c-1.9-2.3-4.4-2.7-7.2-2.7c-1.2,0-2.3,0.1-3.4,0c-0.5,0-1.1-0.2-1.6-0.4
				c-0.7-0.3-0.5-0.9-0.5-1.5c-0.1-0.3-0.1-0.6-0.2-0.9c0-0.1,0.1-0.3,0.1-0.4c0-0.2,0.1-0.4,0.1-0.5c0-0.1,0.1-0.2,0.1-0.3
				c0.2-0.6,0.5-1.2,0.6-1.9c0.5-2.3,1.6-4.4,3.1-6.2c1.7-2,3.9-3.1,6.4-3.7c0.2-0.1,0.3-0.2,0.5-0.2c1.2-0.1,2.7-0.3,4-0.2
				c2.5,0.2,4.9,0.7,7.3,1.6c2.7,1,5.4,2.2,8.1,3.3c0.9,0.4,1.7,0.8,2.6,1.2c1.7,0.9,3.4,2,5.1,3c2.6,1.6,5.1,3.1,6.6,6
				c0.3,0.6,0.4,1.1,0.2,1.7c-0.1,0.3-0.2,0.5-0.3,0.8c-0.5,1.7-0.9,3.4-1.5,5.1c-0.2,0.9-0.6,1.6-1,2.4c-0.6,1.3-1.2,2.7-1.9,4.1
				c-1.1,2.2-2.2,4.2-3.4,6.2c-0.2,0.5-0.5,0.8-0.8,1.2c0.7-1.4,1.4-2.9,2.1-4.2c0.8-1.7,1.6-3.4,2.3-5.1c0.9-2.1,1.5-4.3,2.3-6.4
				c0.8-1.9,0.5-3.8,0.2-5.7c0-0.2-0.1-0.4-0.2-0.6c-0.7-0.9-1.4-1.8-2.2-2.6c-1.2-1-2.4-2-3.7-2.9c-1.5-0.9-3-1.8-4.6-2.6
				c-2-1-3.8-2-5.8-2.8c-2.4-0.9-4.8-1.7-7.3-2.5c-1-0.3-2.3-0.6-3.4-0.5c-2,0-4.1,0.2-6.2,0.8c-2.7,0.8-4.8,2.4-6.4,4.8
				c-1.3,2-2,4.2-2.6,6.5c-0.2,0.6-0.2,1.2-0.2,1.9c0,0.7,0.5,1.2,1.1,1.3c1.4,0.1,2.7,0.2,4.1,0.2c1.3,0.2,2.7,0.2,4.1,0.5
				c2,0.3,3.1,1.7,4.4,3.1c0.4,0.4,0.4,0.9,0.4,1.4c-0.3,3.1-0.7,6.2-0.9,9.4c-0.2,4.1-0.2,8.1-0.2,12.2c0,2.9-0.2,5.7-0.2,8.6
				c0,2.6,0.1,5.1,0,7.6c-0.2,3.6-0.5,7.2-0.7,10.8c-0.2,2.3-0.7,4.4,0.2,6.6c0.2,0.4,0.4,0.8,0.7,1c0.5,0.5,1.2,0.9,1.7,1.3
				c0.8,0.7,1.7,1.1,2.8,1.2c3.1,0.3,5.9-0.4,8.5-2.3c2.3-1.7,4.3-3.7,5.9-6.1c1.5-2.1,2.7-4.3,3.6-6.6c0.4-1,0.5-2.2,1.1-3.1
				c0.3-0.6,0.4-1.2,0.2-1.9c-0.1-0.4-0.2-0.7-0.2-1C2010.6,1085.8,2010.3,1084.9,2010.1,1084
				C2010.1,1084.1,2010.1,1084,2010.1,1084z"/>
			<path class="st20" d="M2018.2,1109.1c0.2,0.5,0.9,1.1,0.5,1.9c-0.2,0.3-0.3,0.6-0.4,0.9c-1,2.4-1.7,4.9-2,7.5
				c0,0.5-0.2,0.6-0.8,0.3c-0.9-0.5-1.7-1-2.6-1.4c-1.6-0.6-2.7-1.8-3.6-3.3c-0.8-1.3-1.6-2.5-3.2-2.9c-2-0.5-4.1-1.2-6.2-1.2
				c-0.2,0-0.4-0.1-0.5-0.2c0.2-0.2,0.2-0.5,0.3-0.6c0.2-0.2,0.5-0.4,0.8-0.6c1.4-1.3,2.8-2.6,4.2-3.9c0.7-0.6,1.2-1.4,2-1.6
				c2-0.5,4.2-0.5,6.1,0.1C2015.4,1105.3,2017.2,1106.8,2018.2,1109.1z"/>
			<path class="st20" d="M2012.1,1090.1c-0.5,1.8-0.8,3.6-1.7,5.2c-1,1.9-2,3.7-3,5.5c-1.6,2.6-3.7,4.9-6,6.8
				c-2.3,1.9-4.9,3.5-7.9,4.1c-4.7,1-7.7-0.9-9.8-4.8c-0.9-1.7-1.2-3.7-1-5.5c0.2-2,0.5-4.1,1-6c0.5-2.3,0.9-4.4,1-6.8
				c0-4.4,0.1-8.7,0.1-13.2c0.1-6.1,0.1-12.2,0.3-18.3c0.2-3.1,0.5-6.2,0.9-9.3c0.1-1-0.3-1.9-1.2-2.4c-1.2-0.6-2.7-0.9-4.1-0.9
				c-1.6-0.1-3.4,0-5.1,0.1c-1.8,0-2.7-1-2.3-2.6c0.1-0.3,0.2-0.5,0.2-0.9c0.1,0.3,0.2,0.6,0.2,0.9c0.1,0.5-0.1,1.2,0.5,1.5
				c0.5,0.2,1,0.3,1.6,0.4c1.2,0.1,2.3,0,3.4,0c2.7-0.1,5.3,0.4,7.2,2.7c0.4,0.5,0.6,0.9,0.5,1.6c-0.2,0.9-0.3,1.9-0.4,2.8
				c-0.2,4.2-0.4,8.3-0.5,12.6c-0.2,3.8-0.1,7.6-0.2,11.5c0,3.1-0.2,6.2-0.2,9.4c0,5.5-1.2,10.8-1.7,16.3c-0.3,2.5,0.2,4.7,2,6.6
				c1.7,1.8,3.8,2.4,6.2,2.4c3,0.1,5.7-1.1,8-2.9c4.6-3.4,7.7-8,9.9-13.3c0.5-1.5,0.9-3,1.5-4.4
				C2011.8,1089.7,2012,1090,2012.1,1090.1z"/>
			<path class="st20" d="M1974.2,1037.9c0.5-2.5,1.6-4.8,3.4-6.6c1.8-2.2,4.2-3.2,7-3.4c-0.2,0.1-0.3,0.2-0.5,0.2
				c-2.5,0.5-4.7,1.6-6.4,3.7c-1.5,1.9-2.6,3.9-3.1,6.2c-0.1,0.6-0.4,1.2-0.6,1.9C1974,1039.4,1974.1,1038.7,1974.2,1037.9z"/>
			<path class="st16" d="M2010.3,1083.7L2010.3,1083.7c-0.1-0.1-0.2-0.2-0.2-0.2c0-0.1,0-0.2,0-0.3c-0.1-0.2-0.2-0.2-0.2-0.4v-0.1
				c0-0.6-0.1-1.2-0.1-1.8C2010,1081.9,2010.1,1082.8,2010.3,1083.7z"/>
			<path class="st16" d="M2009.2,1066.1c0.1-0.3,0.2-0.5,0.2-0.9C2009.7,1065.6,2009.5,1065.9,2009.2,1066.1z"/>
			<path class="st20" d="M1973.9,1040.3c0,0.2-0.1,0.4-0.1,0.5C1973.8,1040.7,1973.9,1040.5,1973.9,1040.3z"/>
			<path class="st21" d="M1884.3,1044.5c0.4-0.9,0.9-1.9,1.2-2.7c0.6-1.2,1.3-2.4,2.4-3.2c2.4-1.8,4.9-3.4,7.3-5.1
				c0.7-0.5,2-0.2,2.3,0.5c0.6,1.1,1.2,2.2,1.6,3.4c0.7,2.3,1.3,4.8,1.8,7.2c0.2,1.1-0.1,2.4-1.4,3c-0.7,0.3-1.2,0.8-1.9,1.2
				c-1.5,0.9-2.9,1.8-4.4,2.5c-0.7,0.3-1.6,0.5-2.3,0.3c-1-0.2-2-0.8-3-1.2c-1.5-0.7-2.6-1.9-3.6-3.2c-0.5-0.7-0.5-1.3-0.3-2
				C1884.1,1044.8,1884.2,1044.6,1884.3,1044.5C1884.3,1044.5,1884.2,1044.5,1884.3,1044.5z"/>
			<path class="st13" d="M1945.6,1029.3c0.3,1.3,0.9,2.7,1.4,3.9c0.4,1.1-0.1,1.6-1.4,1.7c-1.1,0-2.2-0.2-3.2-0.5
				c-1.6-0.4-3-0.7-4.6-1c-1.2-0.2-2.3-0.5-3.4-0.8c-0.9-0.2-2-0.5-2.9-0.6c-1.2-0.2-2.4-0.4-3.6-0.2c-2.4,0.5-4.4,1.7-6.6,2.7
				c-1.4,0.6-2.7,1.3-4.4,1.2c-1.3-0.2-2.4-0.8-3.6-1.3c-1-0.5-1-1.1-0.5-2.2c0.2-0.5,0.5-0.9,0.7-1.5c0.5-0.2,1-0.4,1.6-0.6
				c1.2-0.7,2.3-1.4,3.5-2.2c0.2-0.1,0.4-0.1,0.5-0.1c-0.5,0.8-1,1.6-1.5,2.3c-0.3,0.5,0,1,0.6,1c1.6,0,3.2,0,4.8,0
				c1-0.1,2.1-0.2,3.2-0.4c1.9-0.3,3.6,0.2,5.5,0.4c2.4,0.2,4.9,0.5,7.3,0.9c1.2,0.2,2-0.8,3-1.3c0.1,0,0.1-0.1,0.1-0.1
				c-0.1-0.9-0.1-2-0.4-2.8c-0.1-0.4-0.8-0.6-1.2-0.9c-0.5-0.2-0.9-0.5-1.4-0.8c0.2-0.1,0.4-0.1,0.7-0.2c0.4,0.1,0.9,0.3,1.2,0.4
				c0.9,0.2,2,0.3,2.9,0.5C1944.7,1027.3,1945.4,1028.1,1945.6,1029.3z"/>
			<path class="st12" d="M2009.2,1074.6c0-0.2,0-0.3,0-0.5C2009.2,1074.3,2009.2,1074.4,2009.2,1074.6z"/>
			<path class="st11" d="M1939.8,1023.9c0.2-0.2,0.2-0.5,0.4-0.8c0.9,0,1.7-0.1,2.4-0.6c0.5-0.3,0.6-0.7,0.6-1.2
				c0-1.2-0.5-2.3-0.9-3.5c-0.2-0.5-0.3-1.2-0.5-1.7c-0.2-0.5-0.5-0.9-0.8-1.5c-0.7-1.2-1.4-2.3-2.1-3.4c-1.1-1.6-2-3.1-3.3-4.6
				c-0.6-0.7-1.6-1.3-2.6-1.7c-3-1.5-6.4-1.5-9.8-1.4c-3.5,0.1-6.8,0.9-10.1,1.8c-2.3,0.5-4.3,1.8-6.3,3c-1.3,0.9-2.7,1.7-3.9,2.7
				c-0.9,0.7-1.6,1.7-2.3,2.7c-0.5,0.6-0.1,1.8,0.9,2.4h0.1c0.2,0.5,0.5,1.2,0.7,1.8c0.5,1.2,0.8,2.3,1.3,3.4
				c0.5,0.9,1.1,1.7,1.7,2.6c1.6,2,3.6,3.4,5.9,4.3c-0.6,0.1-1.1,0.2-1.7,0.2c-0.6-0.5-1.4-0.8-2-1.2c-1.6-1.1-2.7-2.6-3.8-4.1
				c-0.6-0.9-1.2-1.6-1.5-2.7c-0.4-1.9-1-3.7-1.8-5.5c-0.9-2-0.9-2,0.7-3.4c1.3-1.2,2.7-2.3,4.2-3.2c2-1.2,4.1-2.6,6.3-3.4
				c5.5-2,11.2-3,17.2-2.5c2.2,0.2,4.2,0.6,6.1,1.7c1.6,1,2.9,2.4,3.7,4.1c0.9,1.7,1.8,3.4,2.7,5c0.6,1.1,1.1,2.1,1.6,3.2
				c0.2,0.5,0.4,1,0.5,1.6c0.3,1.1,0.7,2.1,0.9,3.2c0.2,1.3-0.4,2-1.7,2.3c-0.2,0.1-0.4,0.2-0.5,0.3c-0.6,0-1.3,0-2,0
				C1940,1023.9,1939.9,1023.9,1939.8,1023.9z"/>
			<path class="st21" d="M1922,1026.3c2-0.5,4.1-0.9,6.2-1c2.7-0.1,5.5,0,8.3,0.2c0.9,0,2-0.1,2.7,0.6c0.5,0.2,0.9,0.5,1.4,0.8
				c0.4,0.3,1.2,0.5,1.2,0.9c0.2,0.9,0.3,1.9,0.4,2.8c0,0,0,0.1-0.1,0.1c-0.9,0.5-1.8,1.5-3,1.3c-2.4-0.2-4.9-0.5-7.3-0.9
				c-1.8-0.2-3.6-0.7-5.5-0.4c-1.1,0.2-2.1,0.4-3.2,0.4c-1.6,0.1-3.3,0.1-4.8,0c-0.6,0-0.9-0.4-0.6-1c0.5-0.8,1-1.6,1.5-2.3
				C1920,1027.3,1920.9,1026.6,1922,1026.3z"/>
			<path class="st20" d="M1936.6,1024c-2.7,0.1-5.5,0-8.1,0.1c-1.9,0.1-3.7,0.5-5.6,0.6c-1.9,0.2-3.7,0.6-5.4,1.3
				c-0.6,0.2-1.2,0.4-1.9,0.5c0.1-0.2,0.1-0.3,0.2-0.5c0.9-0.5,1.8-1.1,2.7-1.4c1.5-0.4,2.9-0.7,4.4-0.9c2.3-0.3,4.7-0.6,7-0.8
				c2.3-0.2,4.7-0.1,7.1-0.2c1,0,2.1,0,3.1-0.1v0.1c-0.2,0.2-0.2,0.5-0.4,0.8C1938.7,1023.9,1937.8,1024,1936.6,1024z"/>
			<path class="st12" d="M1912.8,1028.2c-0.4,0.2-0.9,0.1-1.2,0c-2.3-1-4.4-2.3-5.9-4.3c-0.6-0.8-1.3-1.6-1.7-2.6
				c-0.5-1.1-0.9-2.3-1.3-3.4c-0.2-0.5-0.5-1.2-0.7-1.8c0.5,0.6,1,1.2,1.4,2c0.3,0.5,0.5,1.1,0.8,1.7c0.7,2.1,2,3.7,3.7,5.4
				c1.5,1.5,4.4,2.2,6.4,1.4c0.6-0.2,1.2-0.2,1.9-0.4c-0.1,0.2-0.1,0.3-0.2,0.5C1914.7,1027.2,1913.7,1027.8,1912.8,1028.2z"/>
			<path class="st22" d="M2010.1,1083.2c0,0.1,0,0.2,0,0.3c0,0.2,0.1,0.3,0.1,0.5v0.1c0.2,0.9,0.3,1.9,0.4,2.8
				c0.1,0.4,0,0.9-0.2,1.3c-0.4,1.1-1,2.2-1.4,3.3c-0.9,2.4-2.3,4.5-3.7,6.6c-1.8,2.4-4,4.3-6.6,5.8c-1.5,0.9-3.1,1.4-4.9,1.3
				c-1.2,0-2.1-0.8-3.2-1.2c-1.2-0.5-2-1.2-2.2-2.7c-0.1-0.9-0.4-1.8-0.4-2.7c0-1.6,0.2-3.2,0.2-4.8c0-5.3,0-10.6,0-15.8
				c0-6.9,0-13.9,0.1-20.8c0-2.5,0.4-5,0.6-7.5c0-0.5-0.1-1.2-0.2-1.7c-0.2-0.9-0.9-1.7-1.6-2.3v-0.1c0.2,0.2,0.5,0.2,0.8,0.4
				c0.1,0.1,0.2,0.2,0.2,0.2c0.2,0.2,0.5,0.5,0.8,0.7c0.2,0.2,0.2,0.4,0.4,0.5c0.2,0.5,0.5,0.9,0.6,1.4c-0.2,3.6-0.7,7.2-0.8,10.8
				c-0.1,4.5,0,9.1,0,13.5c0,2.6,0,5.1,0.1,7.7c0.1,3.1,0.2,6.3,0.4,9.4c0.1,1.7,0.1,3.4,0,5.1c-0.1,1.9,0.5,3.5,0.9,5.1
				c0,0.2,0.3,0.4,0.5,0.5c1.2,0.5,2.3,0.9,3.6,1.3c0.9,0.3,1.6-0.2,2.3-0.5c4.3-1.9,7.7-4.8,9.9-9c0.7-1.5,1.4-3,2.1-4.4
				c0.2-0.2,0.2-0.6,0.5-0.7c0.6-0.5,0.6-1.1,0.5-1.8c-0.5-3.3-0.9-6.6-1.3-9.9c-0.1-0.6-0.2-1.3-0.2-2c0-0.1,0.1-0.2,0.2-0.3
				c0,0.2,0.2,0.3,0.2,0.5c0.2,2.4,0.5,4.8,0.8,7.1c0.1,0.5,0.2,0.9,0.4,1.4v0.1C2009.9,1082.9,2010,1083.1,2010.1,1083.2z"/>
			<path class="st23" d="M1990.1,1050.3c-0.2,3.1-0.5,6.3-0.5,9.5c-0.1,4.4,0.1,8.8,0.1,13.3c0,2.6,0,5.2,0.2,7.9
				c0.1,2.3,0.2,4.7,0.4,7c0.1,1.6,0.2,3.3,0.3,5c0.2,1.1,0.4,2.3,0.5,3.4c0.2,0.9,0.3,1.7,0.5,2.7c0.1,0.4,0.2,0.6,0.8,0.7
				c1.1,0.1,2.2,0.4,3.4,0.5c0.5,0.1,1.2,0.1,1.6-0.2c1.8-1,3.6-2,5.1-3.3c2.5-1.8,4.1-4.4,5.2-7.3c0.4-0.9,0.6-1.8,1.2-2.4
				c0.9-0.7,0.5-1.6,0.5-2.3c-0.3-3-0.7-6.1-0.9-9.1c-0.1-0.9-0.1-1.8-0.1-2.7c0.1,0.2,0.2,0.3,0.4,0.5c0,0.2,0,0.3,0,0.5
				c-0.1,0.1-0.2,0.2-0.2,0.3c0.1,0.6,0.1,1.2,0.2,2c0.4,3.3,0.9,6.6,1.3,9.9c0.1,0.6,0.1,1.2-0.5,1.8c-0.2,0.2-0.4,0.5-0.5,0.7
				c-0.7,1.5-1.3,3-2.1,4.4c-2.2,4.2-5.6,7-9.9,9c-0.7,0.3-1.4,0.8-2.3,0.5c-1.2-0.4-2.4-0.9-3.6-1.3c-0.2-0.1-0.5-0.3-0.5-0.5
				c-0.4-1.7-1-3.4-0.9-5.1c0-1.7,0-3.4,0-5.1c-0.1-3.1-0.2-6.3-0.4-9.4c-0.1-2.6-0.1-5.1-0.1-7.7c-0.1-4.5-0.2-9,0-13.5
				c0.1-3.7,0.5-7.2,0.8-10.8C1990.2,1049.2,1990.1,1049.8,1990.1,1050.3z"/>
			<path class="st22" d="M2008.2,1072.3c-0.1-0.2-0.2-0.2-0.2-0.4c0-0.1,0.1-0.3,0.1-0.4c-0.1-0.2-0.2-0.2-0.2-0.4
				c0-0.1,0.1-0.3,0.1-0.4c-0.1-0.2-0.2-0.2-0.2-0.4c0-0.5,0.1-1,0.2-1.6c-0.1-0.4-0.1-0.9-0.2-1.2c0.1-0.7,0.2-1.3,0.4-2
				c0-0.1,0-0.2,0-0.3c0-0.2,0.1-0.4,0.1-0.5c0.2-0.2,0.3-0.4,0.4-0.6c0.3-0.7,0.6-1.3,0.9-2c0.1-0.2,0.1-0.4,0.1-0.5
				c0-0.1,0.1-0.2,0.1-0.3c0.3-0.4,0.6-0.9,0.9-1.2c0.7-1.4,1.4-2.7,1.9-4.1c0.5-1.4,0.9-3,1.2-4.4c0.2-0.6,0.2-1.2,0.3-1.9
				c0.5-1.8,0-3.7-0.2-5.5c-0.1-0.6-0.5-1.2-0.9-1.8c-0.5-0.9-1.2-1.7-1.7-2.7c-0.8-1.2-2.1-1.9-3.3-2.7c-1.2-0.9-2.4-1.6-3.7-2.3
				c-1.1-0.5-2.2-1.1-3.3-1.6c-1.2-0.5-2.4-1.1-3.7-1.6c-0.3-0.2-0.7-0.2-1-0.2c-0.1,0-0.2-0.1-0.3-0.1c-0.1-0.1-0.2-0.2-0.3-0.2
				c-1.4-0.5-2.9-1-4.4-1.3c-3-0.5-6-0.2-8.7,1.1c-2.3,1-3.9,2.8-5.1,4.9c-0.9,1.3-1.3,2.9-2,4.4c-0.1,0.1,0,0.2,0,0.2
				s-0.1,0.3-0.1,0.4c0,0.3,0.1,0.6,0.1,0.9v0.1c0.2,0.2,0.2,0.5,0.4,0.6c0.4,0.2,0.9,0.3,1.4,0.5c0.1,0,0.2,0.1,0.3,0.1
				c0.2,0,0.5,0.2,0.6,0.2c-0.3,0.1-0.6,0.2-0.9,0.2c-2.1,0-2.8-0.8-2.3-2.7c0.5-2,1.1-4,2.3-5.7c1.6-2.5,3.7-4.4,6.7-5.2
				c2.6-0.7,5.1-0.9,7.7-0.5c1,0.2,2,0.5,3,0.8c2,0.7,3.9,1.4,5.8,2.3c2.2,1,4.4,2.1,6.6,3.4c2.3,1.2,4.4,2.7,6.2,4.5
				c0.6,0.7,1.4,1.5,1.6,2.3c0.5,1.3,0.5,2.9,0.7,4.3c0.2,2.4-0.5,4.7-1.3,6.9c-0.6,1.6-1.3,3.3-2.1,4.9c-0.4,0.9-0.9,1.9-1.3,2.7
				c-0.5,1.1-1.2,2.2-1.6,3.4c-0.6,1.9-0.8,3.9-0.7,5.9c0,1,0,2,0.1,3c-0.1-0.2-0.2-0.3-0.4-0.5
				C2008.1,1072.6,2008.2,1072.4,2008.2,1072.3z"/>
			<path class="st23" d="M1979.9,1042.8c1.1,0.1,2.2,0.2,3.3,0.3c0.2,0.2,0.4,0.5,0.7,0.1c0.2,0,0.5,0.2,0.6,0.2
				c0,0.5,0.3,0.5,0.5,0.4c0.1,0,0.3,0.1,0.4,0.1c0,0.1-0.1,0.3-0.1,0.4l0,0c-1.1-0.3-2.2-0.7-3.3-1c-0.7-0.2-1.3-0.2-2-0.3
				C1980,1042.9,1979.9,1042.9,1979.9,1042.8z"/>
			<path class="st22" d="M1978.6,1043.1c0.1-0.2,0.2-0.2,0.3-0.4c0.3,0.1,0.6,0,0.9,0.1c0.1,0.1,0.1,0.2,0.1,0.2
				C1979.5,1043.1,1979.1,1043.1,1978.6,1043.1z"/>
			<path class="st23" d="M1978.5,1042.9c-0.2,0-0.5-0.2-0.6-0.2c0-0.1,0.1-0.3,0.1-0.4c0.3,0.1,0.7,0.3,1,0.4
				c-0.1,0.2-0.2,0.2-0.3,0.4C1978.5,1043.1,1978.5,1043.1,1978.5,1042.9z"/>
			<path class="st22" d="M1986.1,1044.6c0.1,0,0.2,0.1,0.3,0.1c0,0.1-0.1,0.2-0.1,0.3c-0.1-0.1-0.2-0.2-0.2-0.2
				C1986.1,1044.7,1986.1,1044.7,1986.1,1044.6z"/>
			<path class="st23" d="M1986.6,1045.5c0-0.1,0.1-0.3,0.1-0.4c0.1,0.2,0.2,0.2,0.2,0.4v0.1
				C1986.9,1045.6,1986.7,1045.5,1986.6,1045.5z"/>
			<path class="st22" d="M1986.5,1045.1L1986.5,1045.1c0.1-0.1,0.2,0,0.3,0c0,0.1-0.1,0.3-0.1,0.4
				C1986.6,1045.3,1986.6,1045.3,1986.5,1045.1z"/>
			<path class="st23" d="M1985.7,1044.6L1985.7,1044.6v-0.2c0.1,0,0.2,0.1,0.3,0.1c0.1,0.1,0.1,0.2,0.1,0.2v0.1
				C1985.9,1044.8,1985.8,1044.7,1985.7,1044.6z"/>
			<path class="st22" d="M1985.3,1044.5L1985.3,1044.5c0.1,0,0.3,0.1,0.4,0.1v0.1C1985.6,1044.6,1985.5,1044.5,1985.3,1044.5z"/>
			<path class="st23" d="M1986.3,1045.1c0-0.1,0.1-0.2,0.1-0.3c0.1,0.1,0.2,0.2,0.2,0.2v0.1
				C1986.4,1045.1,1986.3,1045.1,1986.3,1045.1z"/>
			<path class="st19" d="M2010.3,1083.7c0,0.1-0.1,0.2-0.1,0.3c0-0.2-0.1-0.3-0.1-0.5C2010.1,1083.6,2010.1,1083.6,2010.3,1083.7z"
				/>
			<path class="st19" d="M2010,1083.2c-0.1-0.2-0.2-0.2-0.2-0.4C2009.9,1082.9,2010,1083.1,2010,1083.2z"/>
			<path class="st16" d="M1901.6,1016.2c-0.5-2.1,0.9-3.4,2.2-4.6c2-1.8,4.4-3.1,6.7-4.4c2.3-1.2,4.8-1.8,7.4-2.3
				c2.9-0.5,5.8-0.8,8.7-0.5c1.5,0.2,3,0.5,4.4,0.8c2.2,0.5,3.7,2,5.1,3.7c1.5,2,3,3.9,4.4,5.9c0.3,0.5,0.4,1,0.5,1.5
				c0.4,1.2,0.8,2.3,1.1,3.4c0.3,1.5,0.1,1.9-1.2,2.6c-0.2,0.1-0.5,0.3-0.6,0.5c-1,0-2.1,0-3.1,0.1c-2.3,0.1-4.8,0-7.1,0.2
				c-2.4,0.2-4.7,0.5-7,0.8c-1.5,0.2-3,0.5-4.4,0.9c-0.9,0.2-1.8,0.9-2.7,1.4c-0.6,0.1-1.3,0.2-1.9,0.4c-2,0.7-4.9,0-6.4-1.4
				c-1.6-1.5-2.9-3.3-3.7-5.4c-0.2-0.6-0.5-1.2-0.8-1.7c-0.4-0.7-0.9-1.3-1.4-2C1901.7,1016.2,1901.7,1016.2,1901.6,1016.2z
				 M1926.3,1023c2.3-0.2,4.6-0.4,6.9-0.6c1.4-0.2,2.7-0.3,4.2-0.5c0.9-0.1,1.9,0,2.7-0.3c1.1-0.4,1.2-1.9,0.7-3c-0.4-1-0.7-2-1.1-3
				c-0.2-0.3-0.3-0.6-0.5-0.9c-1.6-1.7-3-3.4-4.5-5c-1.3-1.4-3-2.7-4.9-3.2c-2.3-0.6-4.8-0.9-7.3-0.8c-3.1,0.1-6.2,0.5-9.2,1.5
				c-1.2,0.3-2.3,1-3.3,1.6c-1.7,1.1-3.4,2.2-5,3.4c-1,0.8-1.5,1.9-1.9,3.1c-0.2,0.8,0.2,1.3,0.5,2c1,1.9,2,3.7,3.3,5.4
				c1.3,1.8,3.1,3.3,5.6,3.4c0.3,0.1,0.5-0.1,0.9-0.2c2.3-0.7,4.5-1.5,6.8-2.1c0.1-0.1,0.2-0.2,0.2-0.2
				C1922.4,1023.3,1924.2,1023.2,1926.3,1023z"/>
			<path class="st12" d="M1900.7,1013.7c0.7-0.9,1.5-2,2.3-2.7c1.2-1,2.6-2,3.9-2.7c2-1.2,4-2.4,6.3-3c3.3-0.9,6.6-1.6,10.1-1.8
				c3.3-0.1,6.6-0.1,9.8,1.4c0.9,0.4,2,1,2.6,1.7c1.2,1.5,2.3,3,3.3,4.6c0.8,1.1,1.5,2.3,2.1,3.4c0.3,0.5,0.6,0.9,0.8,1.5
				c0.2,0.5,0.3,1.2,0.5,1.7c0.4,1.2,0.9,2.2,0.9,3.5c0,0.5-0.2,0.9-0.6,1.2c-0.7,0.5-1.6,0.6-2.4,0.6v-0.1c0.2-0.2,0.4-0.4,0.6-0.5
				c1.4-0.6,1.6-1.1,1.2-2.6c-0.3-1.2-0.8-2.3-1.1-3.4c-0.2-0.5-0.2-1.1-0.5-1.5c-1.4-2-3-4-4.4-5.9c-1.3-1.8-3-3.2-5.1-3.7
				c-1.5-0.3-2.9-0.6-4.4-0.8c-2.9-0.3-5.9,0-8.7,0.5c-2.5,0.5-5.1,0.9-7.4,2.3c-2.4,1.2-4.8,2.6-6.7,4.4c-1.2,1.2-2.7,2.5-2.2,4.6
				C1900.7,1015.5,1900.4,1014.4,1900.7,1013.7z"/>
			<path class="st24" d="M1985.9,1044.2c-0.1-0.1-0.1-0.2-0.1-0.2c0.1,0,0.2,0,0.2,0c2.1,1.2,3.7,2.7,4.2,5.1c0.2,0.9-0.2,2-0.2,3.1
				c-0.2,4.3-0.3,8.6-0.4,12.8c0,1.6,0.1,3.4,0.2,5.1c0,0.9,0.2,1.8,0.2,2.7c0,2.4-0.1,4.8,0.1,7.3c0,2,0.2,4.1,0.3,6.1
				c0,0.9,0,1.8,0.1,2.7c0.2,1.1,0.2,2.3,0.5,3.4c0.2,1.4,0.6,2.9,0.9,4.2c0.1,0.2,0.5,0.6,0.7,0.7c0.6,0.2,1.4,0.2,2.1,0.4
				c1.5,0.3,3,0.2,4.2-0.8c1.7-1.3,3.5-2.6,5.1-4.1c0.9-0.9,1.4-2.2,2-3.3c0.8-1.2,1.1-2.8,2.1-4c0.3-0.4,0.2-1.2,0.2-1.8
				c-0.2-2.7-0.5-5.4-0.7-8.1c-0.2-1.8-0.2-3.7-0.2-5.5c-0.1-0.8-0.1-1.6-0.1-2.4c0-2.3,0.5-4.6,1.6-6.8c0.7-1.4,1.2-3,1.9-4.4
				c1.4-3,1.6-6.3,1.9-9.5c0.1-0.6-0.1-1.3-0.3-1.9c-0.6-1.4-1.3-2.9-2.1-4.3c-0.3-0.5-0.8-1.1-1.2-1.6c-1.2-1-2.3-2-3.6-2.9
				c-1.2-0.9-2.6-1.6-4-2.3c-2.2-1-4.3-2-6.5-2.8c-2.1-0.8-4.2-1.6-6.6-1.5c-0.2,0-0.5-0.1-0.8-0.2c0.2-0.1,0.2-0.2,0.4-0.2
				c1,0,2,0.2,3,0.2c1.7-0.1,3.1,1,4.7,1.2c0.2,0,0.3,0,0.5,0c0.1,0,0.2,0.1,0.3,0.1c0.2,0.2,0.3,0.4,0.5,0.5
				c1.4,0.6,2.8,1.1,4.2,1.7c2.7,1.2,5.1,2.8,7.6,4.5c1.8,1.4,2.9,3.2,4,5c1.4,2.3,1.2,4.9,0.8,7.4c-0.3,1.8-0.7,3.6-1.2,5.3
				c-0.5,1.6-1.3,3.1-2,4.7c-0.2,0.3-0.2,0.6-0.4,0.9c0,0.1-0.1,0.2-0.1,0.3c-0.7,0.9-1.2,2-1.3,3.1c0,0.2-0.1,0.4-0.1,0.5
				c0,0.1,0,0.2,0,0.3c-0.1,0.7-0.2,1.3-0.4,2c0.1,0.4,0.1,0.9,0.2,1.2c0,0.5-0.1,1-0.2,1.6c0.1,0.2,0.2,0.2,0.2,0.4
				c0,0.1-0.1,0.3-0.1,0.4c0.1,0.2,0.2,0.2,0.2,0.4c0,0.1-0.1,0.3-0.1,0.4c0.1,0.2,0.2,0.2,0.2,0.4c0,0.2-0.1,0.5-0.1,0.7
				c0,0.9,0,1.8,0.1,2.7c0.3,3,0.7,6.1,0.9,9.1c0.1,0.8,0.3,1.6-0.5,2.3c-0.6,0.6-0.9,1.6-1.2,2.4c-1.2,2.8-2.7,5.5-5.2,7.3
				c-1.6,1.2-3.4,2.3-5.1,3.3c-0.5,0.2-1,0.2-1.6,0.2c-1.1-0.1-2.2-0.4-3.4-0.5c-0.5-0.1-0.6-0.2-0.8-0.7c-0.2-0.9-0.4-1.7-0.5-2.7
				c-0.2-1.2-0.4-2.2-0.5-3.4c-0.2-1.6-0.2-3.4-0.3-5c-0.1-2.3-0.2-4.7-0.4-7c-0.1-2.6-0.2-5.2-0.2-7.9c0-4.4-0.2-8.9-0.1-13.3
				c0.1-3.2,0.4-6.3,0.5-9.5c0.1-0.5,0.2-1.1-0.3-1.4c-0.2-0.5-0.5-0.9-0.6-1.4c-0.2-0.2-0.2-0.4-0.4-0.5c-0.2-0.2-0.5-0.5-0.8-0.7
				c-0.1-0.1-0.2-0.2-0.2-0.2c-0.2-0.2-0.5-0.2-0.8-0.4c-0.1-0.2-0.2-0.2-0.2-0.4c-0.1,0-0.2-0.1-0.3-0.1c-0.1-0.1-0.2-0.2-0.2-0.2
				C1986.3,1044.7,1986.2,1044.7,1985.9,1044.2z"/>
			<path class="st23" d="M1988.7,1046.8c0.2,0.2,0.2,0.4,0.4,0.5C1988.9,1047.2,1988.8,1047,1988.7,1046.8z"/>
			<path class="st23" d="M1987.7,1045.9c0.1,0.1,0.2,0.2,0.2,0.2C1987.8,1046,1987.8,1046,1987.7,1045.9z"/>
			<path class="st23" d="M1997.4,1031.5c1.2,0.5,2.4,1.1,3.7,1.6c1.1,0.5,2.2,0.9,3.3,1.6c1.2,0.7,2.5,1.5,3.7,2.3
				c1.2,0.8,2.5,1.4,3.3,2.7c0.5,0.9,1.2,1.7,1.7,2.7c0.4,0.5,0.9,1.2,0.9,1.8c0.2,1.8,0.7,3.7,0.2,5.5c-0.2,0.6-0.2,1.2-0.3,1.9
				c-0.4,1.4-0.7,3-1.2,4.4c-0.5,1.4-1.2,2.8-1.9,4.1c-0.2,0.5-0.6,0.9-0.9,1.2c0.2-0.3,0.2-0.6,0.4-0.9c0.7-1.5,1.5-3,2-4.7
				c0.5-1.7,0.9-3.5,1.2-5.3c0.5-2.5,0.6-5.1-0.8-7.4c-1.2-1.9-2.2-3.7-4-5c-2.4-1.7-4.8-3.4-7.6-4.5c-1.4-0.7-2.8-1.2-4.2-1.7
				c-0.2-0.1-0.4-0.3-0.5-0.5C1996.7,1031.4,1997.1,1031.4,1997.4,1031.5z"/>
			<path class="st23" d="M1986.9,1030.1c-0.2,0.1-0.5,0.1-0.8,0.2h-0.1c-0.1,0-0.2,0-0.3,0c-0.4,0.1-0.8,0.2-1.2,0.3
				c-0.6,0.2-1.3,0.3-1.9,0.6c-2.1,1.2-3.7,2.8-5,4.8c-0.6,1.1-1,2.3-1.6,3.4c-0.1,0.3-0.2,0.5-0.4,0.7c0-0.1,0-0.2,0-0.2
				c0.6-1.5,1.2-3,2-4.4c1.2-2.1,2.9-3.9,5.1-4.9c2.8-1.2,5.8-1.6,8.7-1.1c1.5,0.3,3,0.9,4.4,1.3c0.1,0,0.2,0.2,0.3,0.2
				c-0.2,0-0.3,0-0.5,0c-1.6-0.2-3-1.3-4.7-1.2c-1,0.1-2-0.2-3-0.2c-0.1,0-0.2,0.1-0.4,0.2C1987.4,1030,1987.1,1030,1986.9,1030.1z"
				/>
			<path class="st24" d="M1983.8,1031c-2.8,1.3-4.8,3.4-6.2,6c-0.5,0.9-0.9,2-1.2,3c-0.3,1,0.1,1.7,1.1,2.1c0.2,0.1,0.3,0.1,0.5,0.2
				c0,0.1-0.1,0.3-0.1,0.4c-0.1,0-0.2-0.1-0.3-0.1c-0.2-0.1-0.3-0.2-0.5-0.3c-0.5-0.2-0.9-0.5-1.3-0.8v-0.1c0-0.3-0.1-0.6-0.1-0.9
				c0-0.1,0.1-0.3,0.1-0.4c0.2-0.2,0.3-0.5,0.4-0.7c0.5-1.2,0.9-2.3,1.6-3.4c1.2-2.1,2.9-3.7,5-4.8c0.5-0.3,1.2-0.5,1.9-0.6
				C1984.3,1030.7,1984.2,1030.9,1983.8,1031z"/>
			<path class="st23" d="M2009.7,1062c-0.3,0.7-0.6,1.3-0.9,2c-0.1,0.2-0.2,0.4-0.4,0.6c0.1-1.2,0.6-2.2,1.3-3.1
				C2009.7,1061.7,2009.7,1061.9,2009.7,1062z"/>
			<path class="st23" d="M1976,1042.2c-0.2-0.1-0.3-0.4-0.4-0.6c0.5,0.2,0.9,0.5,1.3,0.8c0.2,0.1,0.3,0.2,0.5,0.3
				C1977,1042.5,1976.5,1042.5,1976,1042.2z"/>
			<path class="st23" d="M2008.1,1068.8c-0.1-0.4-0.1-0.9-0.2-1.2C2008,1068,2008.1,1068.4,2008.1,1068.8z"/>
			<path class="st23" d="M1975.6,1040.6c0,0.3,0.1,0.6,0.1,0.9C1975.7,1041.1,1975.6,1040.9,1975.6,1040.6z"/>
			<path class="st23" d="M2008.1,1070.7c-0.1-0.2-0.2-0.2-0.2-0.4C2008,1070.5,2008.1,1070.6,2008.1,1070.7z"/>
			<path class="st23" d="M2008.2,1071.5c-0.1-0.2-0.2-0.2-0.2-0.4C2008,1071.2,2008.1,1071.3,2008.2,1071.5z"/>
			<path class="st23" d="M2008.4,1065.5c0-0.1,0-0.2,0-0.3C2008.3,1065.3,2008.4,1065.5,2008.4,1065.5z"/>
			<path class="st23" d="M2008.2,1072.2c-0.1-0.2-0.2-0.2-0.2-0.4C2008,1071.9,2008.2,1072,2008.2,1072.2z"/>
			<path class="st25" d="M1985.3,1030.3c0.1,0,0.2,0,0.3,0h0.1c0.2-0.1,0.5-0.1,0.8-0.2s0.5-0.1,0.8-0.2c0.3,0.1,0.5,0.2,0.8,0.2
				c2.3-0.1,4.4,0.7,6.6,1.5c2.3,0.8,4.4,1.8,6.5,2.8c1.4,0.7,2.7,1.5,4,2.3c1.2,0.9,2.4,1.9,3.6,2.9c0.5,0.4,0.9,0.9,1.2,1.6
				c0.8,1.4,1.5,2.8,2.1,4.3c0.2,0.5,0.4,1.2,0.3,1.9c-0.2,3.3-0.5,6.5-1.9,9.5c-0.7,1.5-1.1,3-1.9,4.4c-1.1,2.2-1.6,4.4-1.6,6.8
				c0,0.8,0.1,1.6,0.1,2.4c0.1,1.9,0.2,3.7,0.2,5.5c0.2,2.7,0.5,5.4,0.7,8.1c0.1,0.6,0.2,1.4-0.2,1.8c-1,1.2-1.3,2.7-2.1,4
				c-0.7,1.1-1.2,2.4-2,3.3c-1.6,1.5-3.4,2.7-5.1,4.1c-1.2,0.9-2.7,1.2-4.2,0.8c-0.7-0.2-1.4-0.2-2.1-0.4c-0.3-0.1-0.6-0.4-0.7-0.7
				c-0.4-1.4-0.7-2.8-0.9-4.2c-0.2-1.2-0.3-2.3-0.5-3.4c-0.1-0.9-0.1-1.8-0.1-2.7c-0.1-2-0.3-4.1-0.3-6.1c0-2.4,0-4.8-0.1-7.3
				c0-0.9-0.2-1.8-0.2-2.7c-0.1-1.7-0.2-3.4-0.2-5.1c0.1-4.3,0.2-8.6,0.4-12.8c0.1-1,0.4-2.1,0.2-3.1c-0.5-2.4-2.1-4-4.2-5.1
				c-0.1-0.1-0.2,0-0.2,0c-0.1,0-0.2-0.1-0.3-0.1c-0.1-0.2-0.2-0.2-0.3-0.4c-0.1,0-0.3-0.1-0.4-0.1c-0.2-0.2-0.4-0.2-0.5-0.4
				c-0.2,0-0.5-0.2-0.6-0.2h-0.1c0-0.1,0.1-0.3,0.1-0.4c0.5,0.2,0.9,0.3,1.3,0.5c0.2,0.1,0.2,0.2,0.4,0.3c0.1,0,0.3,0.1,0.4,0.1
				c0.2,0.1,0.2,0.2,0.4,0.3c0.1,0,0.3,0.1,0.4,0.1c0.1,0.2,0.2,0.2,0.2,0.4c0.1,0,0.2,0,0.3,0c0.1,0,0.2,0.1,0.3,0.1
				c0.2,0.1,0.2,0.2,0.4,0.3c0.1,0.2,0.2,0.2,0.2,0.4c0.2,0,0.5,0.2,0.6,0.2c0.2,0.1,0.2,0.2,0.4,0.3c0.1,0.2,0.2,0.2,0.3,0.4
				c0.2,0.3,0.5,0.6,0.7,0.9c0.1,0.2,0.2,0.2,0.3,0.4c0,0.2,0.1,0.4,0.2,0.5c0.9,1,0.8,2.3,0.7,3.4c-0.2,2.3-0.4,4.6-0.5,6.9
				c-0.3,5.3,0.2,10.6,0.3,15.9c0.2,4,0.5,8.1,0.6,12.1c0.1,2.4,1,4.7,1.6,7c0,0.2,0.1,0.4,0.2,0.6c0.3,1,0.4,1.1,1.4,1.2
				c1.2,0.1,2.3,0.3,3.4,0.3c0.4,0.1,0.9-0.1,1.3-0.3c2.3-1.4,4.3-3,5.9-5.1c0.8-1.2,1.4-2.4,2-3.6c0.1-0.1,0.1-0.3,0.2-0.4
				c1-1,0.8-2.3,0.8-3.4c-0.2-2.6-0.5-5.1-0.5-7.6c-0.1-3.7-0.5-7.3,0.2-10.8c0.2-1.2,0.8-2.3,1.2-3.4c0-0.1,0.2-0.2,0.2-0.3
				c0.5-1.2,0.9-2.4,1.5-3.7c0.9-2,1-4.3,1.2-6.5c0.1-0.6,0.2-1.3,0.2-2c-0.1-0.8-0.1-1.7-0.4-2.4c-0.5-1.3-1.2-2.6-1.7-3.8
				c-0.3-0.7-0.8-1.2-1.4-1.8c-1.2-1-2.3-2.1-3.6-3c-1.1-0.8-2.3-1.4-3.4-2c-3.2-1.6-6.4-3-9.8-4c-2.7-0.9-5.5-0.7-8.2,0.9
				c-2.1,1.2-3.7,2.8-5,4.8c-0.6,1.1-1.1,2.3-1.6,3.6c-0.3,0.9,0.6,1.8,1.7,2c0.7,0.1,1.4,0.2,2.1,0.2c0.1-0.1,0.2-0.2,0.2-0.2
				c0.1,0,0.2,0.1,0.3,0.1c0.2,0,0.4,0.1,0.5,0.1c0.1,0,0.2,0.1,0.3,0.1c0.2,0,0.3,0,0.5,0c0.1,0,0.3,0.1,0.4,0.1
				c0.1,0.2,0.2,0.2,0.3,0.4v0.1c-1.1-0.1-2.2-0.2-3.3-0.3c-0.3-0.1-0.6,0-0.9-0.1c-0.3-0.1-0.7-0.3-1-0.4c-0.2-0.1-0.3-0.1-0.5-0.2
				c-1-0.4-1.5-1.1-1.1-2.1s0.7-2.1,1.2-3c1.5-2.7,3.4-4.8,6.2-6c0.2-0.2,0.5-0.3,0.6-0.5
				C1984.9,1030.4,1985.3,1030.4,1985.3,1030.3z"/>
			<path class="st24" d="M1984.5,1043.5c0.2,0.2,0.4,0.2,0.5,0.4C1984.8,1043.9,1984.5,1044,1984.5,1043.5z"/>
			<path class="st24" d="M1983.8,1043.2L1983.8,1043.2c-0.2,0.4-0.4,0.2-0.6-0.1v-0.1C1983.4,1043.2,1983.5,1043.2,1983.8,1043.2z"
				/>
			<path class="st24" d="M1985.7,1044.6c-0.1,0-0.3-0.1-0.4-0.1c0-0.1,0.1-0.3,0.1-0.4C1985.5,1044.2,1985.6,1044.3,1985.7,1044.6
				C1985.8,1044.5,1985.7,1044.6,1985.7,1044.6z"/>
			<path class="st22" d="M1916.7,1024c-1.4,0.2-2.8,0.5-4.3,0.6c-0.3,0-0.7-0.1-1-0.2c-1.2-0.5-2.4-1.2-3.2-2.3
				c-0.2-0.3-0.5-0.6-0.9-1c-0.9-1.1-1.2-2.3-1.5-3.7c-0.1-0.5-0.1-0.9-0.2-1.3c-0.3-1.8,0.1-3.2,1.7-4.2c1.8-1.1,3.5-2.3,5.4-3.4
				s4-1.2,6.1-1.5c1.8-0.2,3.7-0.4,5.5-0.2c1.2,0.1,2.3,0.5,3.4,0.9c1,0.3,1.9,0.9,2.9,1.3c1.9,0.9,3.4,2.2,4.9,3.7
				c0.5,0.5,1,0.9,1.4,1.4c0.3,0.4,0.6,0.9,0.9,1.4c0.4,0.9,0.6,1.8,1,2.7c0.4,1,0.1,2.2-0.9,2.7c-0.3,0.2-1,0.2-0.7,0.9
				c-1.4,0.2-2.8,0.4-4.2,0.5c-2.3,0.2-4.6,0.4-6.9,0.6c-2,0.2-3.9,0.4-5.8,0.5C1919.2,1023.7,1917.9,1023.8,1916.7,1024z
				 M1920.6,1022.7c2.8-0.3,5.6-0.7,8.5-1c1.6-0.2,3-0.4,4.5-0.5c0.4-0.1,0.7-0.3,1-0.4c0.8,0.2,1.3-0.2,1.7-0.9
				c0.3-0.5,0.7-1.1,0.2-1.8c-0.3-0.5-0.5-1.2-0.8-1.9c-0.4-1.7-1.6-2.8-3.1-3.6c-1.5-0.7-2.8-1.5-4.2-2.2c-1.7-0.9-3.4-1.5-5.3-1.5
				s-3.9,0-5.9,0c-1.7,0-3.3,0.8-4.6,1.9c-1.1,0.9-2.1,1.8-3,2.7c-0.3,0.3-0.5,0.7-0.5,1.1c-0.1,1.4,0,3,0,4.4
				c0,0.2,0.1,0.5,0.2,0.6c0.7,0.9,1.5,1.8,2.3,2.5c0.5,0.4,1.3,0.5,2.1,0.7c1,0.1,2,0.1,3,0.1c0.2,0,0.5-0.2,0.7-0.2
				C1918.5,1022.7,1919.6,1022.8,1920.6,1022.7z"/>
			<path class="st19" d="M1920.1,1023.7c-2.3,0.7-4.5,1.5-6.8,2.1c-0.2,0.1-0.5,0.2-0.9,0.2c-2.5-0.2-4.2-1.6-5.6-3.4
				c-1.2-1.7-2.3-3.6-3.3-5.4c-0.3-0.5-0.7-1.2-0.5-2c0.4-1.2,0.9-2.3,1.9-3.1c1.6-1.2,3.3-2.4,5-3.4c1-0.6,2.1-1.2,3.3-1.6
				c3-1,6.1-1.5,9.2-1.5c2.4-0.1,4.9,0.2,7.3,0.8c2,0.5,3.5,1.7,4.9,3.2c1.6,1.7,3,3.4,4.5,5c0.2,0.2,0.4,0.5,0.5,0.9
				c0.4,1,0.8,2,1.1,3c0.5,1.2,0.5,2.7-0.7,3c-0.9,0.3-1.8,0.2-2.7,0.3c-0.2-0.7,0.4-0.7,0.7-0.9c0.9-0.6,1.3-1.8,0.9-2.7
				c-0.4-0.9-0.6-1.8-1-2.7c-0.2-0.5-0.5-1-0.9-1.4c-0.5-0.5-0.9-0.9-1.4-1.4c-1.5-1.4-3-2.7-4.9-3.7c-0.9-0.4-1.9-1-2.9-1.3
				c-1.1-0.4-2.3-0.8-3.4-0.9c-1.9-0.1-3.7,0.1-5.5,0.2c-2,0.2-4.2,0.4-6.1,1.5c-1.8,1-3.6,2.3-5.4,3.4c-1.6,1-2,2.5-1.7,4.2
				c0.1,0.4,0.1,0.9,0.2,1.3c0.2,1.3,0.6,2.6,1.5,3.7c0.3,0.3,0.6,0.6,0.9,1c0.8,1.2,2,1.9,3.2,2.3c0.3,0.2,0.7,0.3,1,0.2
				c1.4-0.2,2.8-0.5,4.3-0.6c1.2-0.2,2.4-0.2,3.7-0.4C1920.3,1023.6,1920.2,1023.7,1920.1,1023.7z"/>
			<path class="st24" d="M1986.9,1030c-0.2,0.1-0.5,0.1-0.8,0.2C1986.3,1030.2,1986.6,1030.1,1986.9,1030z"/>
			<path class="st24" d="M1985.9,1030.2c-0.1,0-0.2,0-0.3,0C1985.8,1030.3,1985.9,1030.2,1985.9,1030.2z"/>
			<path class="st26" d="M1989.9,1046.5L1989.9,1046.5c1,0.7,1.6,1.7,2,2.8c0.5,1.3,0.2,2.6,0.2,3.9c-0.4,4.8-0.5,9.4-0.2,14.2
				c0.2,3.1,0.3,6.2,0.5,9.3c0.2,3.4,0.8,6.7,1.8,9.9c0.2,0.5,0.4,1.1,0.6,1.6c0.2,0.2,0.5,0.5,0.7,0.5c1.4,0.1,2.8,0.2,4.2,0.3
				c0.5,0.1,0.8-0.1,1.1-0.5c1.3-1.5,2.7-3,4-4.4c0.2-0.1,0.2-0.2,0.4-0.3c1-0.4,1.2-1.3,1.2-2.3c0-2.6-0.2-5.1-0.1-7.7
				c0.1-3.4,0.2-6.7,0.3-10c0.2-1.6,0.5-3,1.3-4.4c0.4-0.8,0.5-1.8,0.9-2.7c0.4-1.2,0.9-2.5,1.2-3.7c0.1-0.3,0.2-0.5,0.1-0.9
				c-0.5-2.7-0.9-5.5-1.5-8.3c-0.1-0.3-0.3-0.6-0.5-0.9c-1.3-1.3-2.7-2.8-4.2-4.1c-1.1-0.9-2.4-1.6-3.7-2.3
				c-1.4-0.8-2.9-1.6-4.4-2.2c-1.2-0.6-2.7-0.9-3.9-1.5c-1.6-0.8-3.3-0.9-5-0.6c-0.7,0.1-1.3,0.5-2,0.9c-1.2,0.7-2.3,1.4-3.4,2.3
				c-1.1,0.9-2,1.9-2.3,3.3c-0.1,0.3-0.2,0.6-0.4,1c-0.5,1.4-0.3,1.8,1,2.3c-0.5,0.5-1.1,0.1-1.6-0.2c-0.5-0.2-0.9-0.8-0.6-1.4
				c0.9-3,2.5-5.4,5.2-7c0.8-0.4,1.6-0.8,2.3-1.2c1.4-0.9,2.9-0.9,4.4-0.7c0.8,0.1,1.6,0.2,2.3,0.5c2.2,0.9,4.4,1.6,6.5,2.6
				c3.4,1.5,6.5,3.4,9.2,6.1c1.3,1.2,2.3,2.7,2.7,4.3c0.6,2,1,4.1,0.9,6.4c-0.2,3.1-1.2,6-2.6,8.7c-1.7,3.6-1.7,7.3-1.6,11.1
				c0,4,0.2,8,0.4,12c0.1,1.4-0.6,2.5-1.5,3.5c-1.2,1.4-2.3,2.7-3.6,4c-0.7,0.7-1.5,1.2-2.3,1.9c-0.2,0.2-0.5,0.2-0.8,0.2
				c-1.6-0.1-3-0.2-4.6-0.3c-0.5,0-0.5-0.5-0.7-0.8c-0.4-1.4-0.8-2.9-1.2-4.3c-0.9-2.7-0.8-5.5-0.9-8.2c-0.2-3.6-0.3-7.3-0.5-10.8
				c-0.2-4.1-0.2-8.3,0.1-12.3c0.2-1.6,0.3-3.3,0.4-4.9c0-1.3-0.4-2.6-1.4-3.4c-0.1-0.2-0.2-0.2-0.3-0.4
				C1989.8,1046.8,1989.8,1046.7,1989.9,1046.5z"/>
			<path class="st27" d="M1988.8,1045.7c-0.2-0.1-0.2-0.2-0.4-0.3c-0.2-0.2-0.3-0.4-0.5-0.6c-0.1,0-0.2-0.1-0.3-0.1
				c-0.1,0-0.3-0.1-0.4-0.1s-0.2-0.1-0.3-0.1c-0.1-0.2,0-0.3-0.1-0.3c-1-0.5-1.8-1.4-3-1.5c-0.3-0.1-0.6-0.2-0.9-0.3
				c-0.2,0-0.3,0-0.5,0c-0.1,0-0.3-0.1-0.4-0.1c-0.2,0-0.3,0-0.5,0c-0.1,0-0.3-0.1-0.4-0.1c-0.4-0.1-0.8-0.1-1.2-0.1
				c-0.2-0.1-0.3-0.1-0.5-0.2c-1.3-0.5-1.6-0.9-1-2.3c0.2-0.3,0.2-0.6,0.4-1c0.4-1.4,1.2-2.5,2.3-3.3c1.1-0.8,2.3-1.6,3.4-2.3
				c0.6-0.4,1.2-0.7,2-0.9c1.7-0.2,3.4-0.2,5,0.6c1.2,0.6,2.6,0.9,3.9,1.5c1.5,0.7,3,1.4,4.4,2.2c1.2,0.7,2.6,1.4,3.7,2.3
				c1.5,1.2,2.8,2.7,4.2,4.1c0.2,0.2,0.5,0.5,0.5,0.9c0.5,2.7,1,5.5,1.5,8.3c0.1,0.2,0,0.5-0.1,0.9c-0.4,1.2-0.8,2.5-1.2,3.7
				c-0.2,0.9-0.4,1.9-0.9,2.7c-0.7,1.4-1.2,2.9-1.3,4.4c-0.2,3.4-0.2,6.6-0.3,10c-0.1,2.6,0.1,5.1,0.1,7.7c0,1-0.2,1.8-1.2,2.3
				c-0.2,0.1-0.2,0.2-0.4,0.3c-1.3,1.5-2.7,3-4,4.4c-0.3,0.3-0.6,0.5-1.1,0.5c-1.4-0.1-2.8-0.2-4.2-0.3c-0.3-0.1-0.6-0.2-0.7-0.5
				c-0.2-0.5-0.4-1.1-0.6-1.6c-1-3.2-1.6-6.6-1.8-9.9c-0.2-3.1-0.2-6.2-0.5-9.3c-0.3-4.8-0.2-9.4,0.2-14.2c0.1-1.3,0.3-2.6-0.2-3.9
				c-0.5-1.1-1-2.1-2-2.8C1989.5,1046.3,1989.1,1046,1988.8,1045.7z M1986.9,1043.5c0.1,0,0.2,0.1,0.3,0.1c0.1,0.2,0.2,0.2,0.2,0.4
				c0.1,0,0.3,0.1,0.4,0.1c0.2,0.1,0.3,0.1,0.5,0.2c0.1,0,0.2,0.1,0.3,0.1c0.1,0.2,0.2,0.2,0.2,0.4c0.1,0,0.3,0.1,0.4,0.1
				c0.1,0.2,0.2,0.5,0.4,0.5c1.4,1.1,2.4,2.4,3.1,4c0.5,1.1,0.3,2.3,0.3,3.5c-0.2,4.2-0.4,8.3-0.4,12.6c0,2.8,0.2,5.6,0.5,8.3
				s0.9,5.5,1.5,8.3c0.2,0.9,0.3,1.6,0.5,2.4c0.2,0.9,0.3,0.9,1.2,0.8c1.3-0.2,2.6-0.4,4-0.5c0.6-0.1,1-0.3,1.4-0.7
				c0.8-0.9,1.7-1.6,2.3-2.5c0.5-0.6,0.7-1.5,0.7-2.2c0.2-3.1,0.4-6.2,0.5-9.4c0.2-2.7,0.4-5.4,0.6-8c0.2-1,0.6-2,0.9-3
				c0.4-1.2,0.8-2.6,1.1-3.9c0.2-0.5,0.2-1.1,0.3-1.7c0.5-1.9,0.1-3.7-0.3-5.6c-0.1-0.5-0.2-1.1-0.3-1.6c-0.2-1.8-1.6-2.9-2.5-4.2
				c-1.7-2.6-4.3-4-7-5.3c-2.4-1.1-4.9-2.2-7.3-3.3c-1.2-0.5-2.3-0.2-3.5-0.2c-1.4-0.2-2.3,0.8-3.4,1.5c-0.9,0.6-1.9,1.2-2.7,2
				c-0.6,0.6-1.1,1.4-1.6,2.1c-0.2,0.2-0.2,0.6-0.5,0.9c-0.3,0.5-0.3,0.9,0.2,1.2c0.9,0.4,1.9,0.8,2.9,1.2c0.1,0,0.2-0.2,0.2-0.2
				c0.1,0,0.3,0.1,0.4,0.1c0.2,0,0.4,0.1,0.5,0.1c0.9,0.4,1.9,0.8,2.7,1.2C1986.5,1043.2,1986.6,1043.4,1986.9,1043.5z"/>
			<path class="st28" d="M1981.1,1042.3c-0.1,0.1-0.2,0.2-0.2,0.2c-0.7-0.1-1.4-0.1-2.1-0.2c-1.2-0.1-2-1.1-1.7-2
				c0.4-1.2,0.9-2.5,1.6-3.6c1.2-2,2.9-3.6,5-4.8c2.7-1.5,5.4-1.6,8.2-0.9c3.4,1,6.6,2.4,9.8,4c1.2,0.5,2.3,1.2,3.4,2
				c1.2,0.9,2.4,2,3.6,3c0.6,0.5,1.1,1,1.4,1.8c0.5,1.3,1.2,2.5,1.7,3.8c0.2,0.7,0.3,1.6,0.4,2.4c0,0.6-0.1,1.2-0.2,2
				c-0.2,2.2-0.3,4.4-1.2,6.5c-0.5,1.2-1,2.4-1.5,3.7c0,0.1-0.2,0.2-0.2,0.3c-0.5,1.2-1,2.2-1.2,3.4c-0.7,3.6-0.3,7.3-0.2,10.8
				c0.1,2.6,0.4,5.1,0.5,7.6c0.1,1.2,0.2,2.5-0.8,3.4c-0.2,0.1-0.1,0.3-0.2,0.4c-0.7,1.2-1.2,2.5-2,3.6c-1.6,2.1-3.6,3.8-5.9,5.1
				c-0.3,0.2-0.9,0.3-1.3,0.3c-1.2-0.1-2.3-0.2-3.4-0.3c-1.1-0.1-1.1-0.2-1.4-1.2c0-0.2-0.1-0.4-0.2-0.6c-0.5-2.3-1.5-4.5-1.6-7
				c-0.2-4.1-0.5-8-0.6-12.1c-0.2-5.3-0.6-10.5-0.3-15.9c0.2-2.3,0.4-4.6,0.5-6.9c0.2-1.2,0.2-2.4-0.7-3.4c-0.1-0.2-0.2-0.3-0.2-0.5
				c1.1,0.9,1.5,2.1,1.4,3.4c-0.1,1.6-0.2,3.3-0.4,4.9c-0.3,4.1-0.3,8.2-0.1,12.3c0.2,3.6,0.3,7.3,0.5,10.8c0.2,2.7,0.1,5.5,0.9,8.2
				c0.5,1.4,0.9,2.8,1.2,4.3c0.2,0.3,0.1,0.8,0.7,0.8c1.6,0.1,3,0.2,4.6,0.3c0.3,0,0.6-0.1,0.8-0.2c0.8-0.6,1.6-1.2,2.3-1.9
				c1.2-1.3,2.5-2.7,3.6-4c0.8-1,1.6-2.1,1.5-3.5c-0.2-4-0.3-8-0.4-12c-0.1-3.7-0.1-7.5,1.6-11.1c1.2-2.7,2.3-5.6,2.6-8.7
				c0.2-2.2-0.2-4.3-0.9-6.4c-0.5-1.6-1.5-3-2.7-4.3c-2.7-2.6-5.8-4.6-9.2-6.1c-2.1-0.9-4.3-1.7-6.5-2.6c-0.7-0.2-1.5-0.4-2.3-0.5
				c-1.6-0.2-3-0.2-4.4,0.7c-0.8,0.5-1.5,0.9-2.3,1.2c-2.8,1.6-4.3,4.1-5.2,7c-0.2,0.6,0.1,1.2,0.6,1.4c0.4,0.2,0.9,0.7,1.6,0.2
				c0.2,0.1,0.3,0.1,0.5,0.2C1980.5,1042.1,1980.7,1042.1,1981.1,1042.3z"/>
			<path class="st26" d="M1986.9,1044.5c-0.1-0.2-0.2-0.2-0.2-0.4c-0.1,0-0.3-0.1-0.4-0.1c-0.2-0.1-0.2-0.2-0.4-0.3
				c-0.1,0-0.3-0.1-0.4-0.1c-0.2-0.1-0.2-0.2-0.4-0.3c-0.5-0.2-0.9-0.3-1.3-0.5v-0.1c1.2,0,2,1,3,1.5
				C1987,1044.2,1986.9,1044.4,1986.9,1044.5C1987,1044.5,1986.9,1044.5,1986.9,1044.5z"/>
			<path class="st28" d="M1983.7,1043.3c-0.2-0.1-0.3-0.1-0.5-0.2c-0.1-0.2-0.2-0.2-0.3-0.4c0-0.1,0.1-0.2,0.1-0.3
				c0.3,0.1,0.6,0.2,0.9,0.3v0.1C1983.8,1043,1983.8,1043.2,1983.7,1043.3z"/>
			<path class="st26" d="M1989.8,1046.7c-0.2-0.2-0.5-0.4-0.7-0.5c-0.1-0.2-0.2-0.2-0.3-0.4
				C1989.1,1046,1989.5,1046.3,1989.8,1046.7L1989.8,1046.7z"/>
			<path class="st26" d="M1981.4,1042.1c0,0.1-0.1,0.2-0.1,0.3c-0.1,0-0.2-0.1-0.3-0.1c-0.3-0.1-0.5-0.2-0.8-0.3
				C1980.6,1042,1981,1042.1,1981.4,1042.1z"/>
			<path class="st28" d="M1989.8,1047c-0.2-0.3-0.5-0.6-0.7-0.9c0.2,0.2,0.5,0.4,0.7,0.5C1989.8,1046.7,1989.8,1046.8,1989.8,1047z"
				/>
			<path class="st28" d="M1981.7,1042.2c0.1,0.1,0.1,0.2,0.1,0.2c-0.2,0-0.4-0.1-0.5-0.1c0-0.1,0.1-0.2,0.1-0.3
				C1981.5,1042.1,1981.6,1042.1,1981.7,1042.2z"/>
			<path class="st26" d="M1987.8,1045.2c0-0.1,0.1-0.3,0.1-0.4c0.2,0.2,0.3,0.4,0.5,0.6C1988.2,1045.3,1988.1,1045.2,1987.8,1045.2z
				"/>
			<path class="st28" d="M1982.5,1042.5c-0.2,0-0.3,0-0.5,0c0-0.1,0.1-0.2,0.1-0.3c0.1,0,0.3,0.1,0.4,0.1
				C1982.5,1042.5,1982.5,1042.5,1982.5,1042.5z"/>
			<path class="st26" d="M1987.7,1044.9c-0.2-0.1-0.2-0.2-0.4-0.3c0.1,0,0.3,0.1,0.4,0.1C1987.7,1044.7,1987.7,1044.8,1987.7,1044.9
				z"/>
			<path class="st28" d="M1985.8,1043.7c0.2,0.1,0.2,0.2,0.4,0.3C1986.1,1043.9,1985.9,1043.8,1985.8,1043.7z"/>
			<path class="st26" d="M1981.8,1042.4c-0.1-0.1-0.1-0.2-0.1-0.2c0.2,0,0.3,0,0.5,0c0,0.1-0.1,0.2-0.1,0.3
				C1982,1042.5,1981.9,1042.5,1981.8,1042.4z"/>
			<path class="st28" d="M1985.2,1043.3c0.2,0.1,0.2,0.2,0.4,0.3C1985.4,1043.5,1985.2,1043.4,1985.2,1043.3z"/>
			<path class="st26" d="M1983.1,1042.3c0,0.1-0.1,0.2-0.1,0.3c-0.1,0-0.3-0.1-0.4-0.1v-0.1
				C1982.7,1042.4,1982.8,1042.4,1983.1,1042.3z"/>
			<path class="st28" d="M1988,1044.8c0,0.1-0.1,0.3-0.1,0.4c-0.1-0.2-0.2-0.2-0.2-0.4v-0.1
				C1987.8,1044.7,1987.9,1044.7,1988,1044.8z"/>
			<path class="st28" d="M1986.6,1044.2c0.1,0.2,0.2,0.2,0.2,0.4C1986.7,1044.4,1986.6,1044.2,1986.6,1044.2z"/>
			<path class="st24" d="M1916,1022.3c-1-0.2-2.1-0.2-3-0.7c-0.7-0.3-1.2-1.1-1.9-1.6c-0.9-0.6-1-1.6-1-2.6c0.2-3.4-0.2-2.6,2.3-5
				c0.8-0.8,1.7-1.6,2.7-2c0.8-0.4,1.8-0.6,2.8-0.7c2.6-0.2,5.2-0.1,7.7,0.4c1,0.2,2,0.5,2.9,0.9c1.2,0.6,2.5,1.3,3.7,1.9
				c1.2,0.5,2,1.5,2.6,2.7c0.3,0.7,0.6,1.3,0.9,2c0.5,0.9,0.2,1.7-0.5,2.3c-0.2,0.2-0.4,0.4-0.5,0.6c-0.4,0.2-0.7,0.4-1,0.4
				c-1.6,0.2-3,0.4-4.5,0.5c-2.8,0.4-5.7,0.8-8.5,1c-1.1,0.2-2.1,0-3.2,0C1917,1022.6,1916.5,1022.5,1916,1022.3z M1922.8,1010.9
				c-1.9-0.1-3.7,0-5.5,0.2c-0.5,0-1.2,0.4-1.6,0.8c-1.2,1.1-2.5,2.2-3.6,3.4c-1.1,1-0.9,3.4,0.2,4.4c0.5,0.5,1.1,1,1.6,1.5
				c0.2,0.1,0.2,0.2,0.4,0.2c1.9,0.6,3.8,0.9,5.7,0.7c3.3-0.5,6.4-0.9,9.7-1.3c0.9-0.2,1.8-0.2,2.7-0.3c0.7-0.2,1.5-0.5,2.1-0.8
				c0.5-0.2,0.5-0.9,0.2-1.4c-0.6-1-1.2-2-1.9-3c-0.7-1.2-1.7-2-3-2.5c-0.8-0.4-1.6-0.7-2.4-1.1c0-0.1,0-0.1,0-0.2
				C1926,1011.2,1924.4,1010.9,1922.8,1010.9z"/>
			<path class="st23" d="M1916.8,1022.9c-1,0-2,0-3-0.1c-0.7-0.1-1.6-0.2-2.1-0.7c-0.9-0.7-1.6-1.6-2.3-2.5
				c-0.2-0.2-0.2-0.4-0.2-0.6c-0.1-1.5-0.1-2.9,0-4.4c0.1-0.4,0.3-0.9,0.5-1.1c0.9-0.9,2-1.9,3-2.7c1.3-1.1,2.8-1.9,4.6-1.9
				c2-0.1,3.9-0.1,5.9,0c1.9,0.1,3.7,0.7,5.3,1.5c1.5,0.7,2.8,1.6,4.2,2.2c1.6,0.8,2.7,1.9,3.1,3.6c0.2,0.6,0.4,1.3,0.8,1.9
				c0.5,0.7,0.1,1.2-0.2,1.8c-0.4,0.5-0.9,1-1.7,0.9c0.2-0.2,0.3-0.4,0.5-0.6c0.7-0.6,0.9-1.5,0.5-2.3c-0.3-0.7-0.6-1.3-0.9-2
				c-0.5-1.1-1.3-2-2.6-2.7c-1.2-0.6-2.5-1.3-3.7-1.9c-0.9-0.4-1.9-0.8-2.9-0.9c-2.6-0.5-5.1-0.7-7.7-0.4c-0.9,0.1-2,0.3-2.8,0.7
				c-0.9,0.5-1.8,1.2-2.7,2c-2.4,2.4-2.1,1.6-2.3,5c-0.1,1,0.2,1.9,1,2.6c0.6,0.5,1.2,1.2,1.9,1.6c0.9,0.4,2,0.5,3,0.7
				c0.5,0.2,0.9,0.2,1.5,0.3C1917.3,1022.8,1917,1022.9,1916.8,1022.9z"/>
			<path class="st29" d="M1980.2,1040.7c-0.4-0.2-0.7-0.5-0.3-1.1c0.4-0.5,0.6-1.3,0.9-1.9c0.6-1.2,1.9-1.9,3-2.7
				c0.2-0.1,0.2-0.1,0.3-0.2c1.8-1.9,4-1.6,6-0.9c4.1,1.5,8,3.5,11.7,6.1c0.5,0.4,1,0.9,1.4,1.6c1,1.3,2,2.7,2.9,4.1
				c0.4,0.6,0.5,1.6,0.8,2.3c0.6,2.2,0.2,4.3-0.2,6.5c-0.2,0.9-0.3,1.8-0.5,2.7c-0.1,0.4-0.3,0.8-0.4,1.2c-0.8,2-1,4-1.2,6.1
				c-0.2,3.7-0.5,7.3-0.9,10.9c-0.1,1.4-0.3,2.9-0.8,4.2c-0.2,0.7-0.9,1.4-1.6,1.9c-0.3,0.2-1,0-1.5,0.1c-1.2,0-2.6,0.1-3.8,0.2
				c-0.5,0.1-0.7,0-0.8-0.5c-0.4-1.8-0.8-3.7-1.1-5.5c-0.5-2.8-0.9-5.5-1.2-8.3c-0.2-2.5-0.2-5-0.2-7.5c0.1-2.7,0.3-5.4,0.4-8.1
				c0.1-1.8-0.6-3.4-1.7-4.6c-0.7-0.9-1.6-1.6-2.5-2.3c-0.1,0-0.3-0.1-0.4-0.1c-0.1-0.2-0.2-0.2-0.2-0.4c-0.1,0-0.2-0.1-0.3-0.1
				c-0.2-0.1-0.3-0.1-0.5-0.2c-0.1,0-0.3-0.1-0.4-0.1c-0.1-0.2-0.2-0.2-0.2-0.4c-0.1,0-0.2-0.1-0.3-0.1c-0.2-0.1-0.3-0.2-0.5-0.3
				c-0.9-0.4-1.9-0.8-2.7-1.2c-0.2,0-0.4-0.1-0.5-0.1c-0.1,0-0.3-0.1-0.4-0.1C1981.9,1041.5,1981,1041.1,1980.2,1040.7z
				 M1989.8,1045.2c1.2,0.9,2.3,2.1,3.1,3.5c0.9,1.6,0.8,3.4,0.7,5.2c-0.1,3.2-0.2,6.2-0.1,9.4c0.1,4.2,1.1,8.3,1.8,12.6
				c0.2,1.6,0.3,1.6,2,1.7c1.1,0.1,2.2,0.3,3.3,0.5c0.5,0.1,0.8-0.1,0.9-0.5c0.2-0.9,0.4-1.9,0.5-2.7c0.4-3.4,0.8-7,1.2-10.5
				c0.4-2.9,0.6-5.8,1.7-8.4c0.3-0.8,0.2-1.7,0.4-2.6c0.2-1.2,0.3-2.3,0.5-3.4c0.2-1.6-0.5-2.7-1.4-3.8c-0.9-1.3-1.8-2.7-2.8-3.8
				c-0.8-0.9-1.8-1.6-2.8-2.2c-1.9-1.1-3.7-2.1-5.7-3.1c-1.5-0.8-3-1.5-4.7-2.1c-0.5-0.2-1,0-1.6,0.1c-1.7,0.2-3,1-4.1,2.1
				c-0.8,0.9-1.2,2-1.8,3c-0.1,0.2,0.2,0.7,0.4,0.8c0.7,0.5,1.5,0.8,2.3,1.1C1985.9,1042.5,1988.1,1043.6,1989.8,1045.2z"/>
			<path class="st30" d="M1982.4,1042.1c-1-0.4-2-0.7-2.9-1.2c-0.5-0.2-0.6-0.7-0.2-1.2c0.2-0.2,0.2-0.6,0.5-0.9
				c0.5-0.7,0.9-1.6,1.6-2.1c0.8-0.8,1.7-1.4,2.7-2c1-0.6,2-1.6,3.4-1.5c1.2,0.1,2.3-0.3,3.5,0.2c2.5,1.1,4.9,2.1,7.3,3.3
				c2.7,1.2,5.3,2.7,7,5.3c0.9,1.3,2.3,2.5,2.5,4.2c0.1,0.5,0.2,1.1,0.3,1.6c0.4,1.9,0.9,3.7,0.3,5.6c-0.2,0.5-0.2,1.1-0.3,1.7
				c-0.3,1.3-0.7,2.6-1.1,3.9c-0.3,1-0.9,2-0.9,3c-0.3,2.7-0.5,5.4-0.6,8c-0.2,3.1-0.3,6.2-0.5,9.4c-0.1,0.8-0.3,1.6-0.7,2.2
				c-0.7,0.9-1.6,1.6-2.3,2.5c-0.4,0.4-0.9,0.6-1.4,0.7c-1.3,0.2-2.7,0.3-4,0.5c-0.9,0.1-0.9,0.1-1.2-0.8c-0.2-0.8-0.4-1.6-0.5-2.4
				c-0.5-2.7-1.1-5.5-1.5-8.3c-0.3-2.7-0.6-5.6-0.5-8.3c0-4.1,0.2-8.3,0.4-12.6c0-1.2,0.2-2.4-0.3-3.5c-0.8-1.6-1.7-3-3.1-4
				c-0.2-0.2-0.2-0.4-0.4-0.5c0.9,0.8,1.8,1.5,2.5,2.3c1.2,1.2,1.8,2.8,1.7,4.6c-0.2,2.7-0.4,5.4-0.4,8.1c0,2.5,0,5,0.2,7.5
				c0.2,2.8,0.7,5.5,1.2,8.3c0.3,1.9,0.7,3.7,1.1,5.5c0.1,0.5,0.2,0.5,0.8,0.5c1.2-0.2,2.6-0.2,3.8-0.2c0.5,0,1.2,0.2,1.5-0.1
				c0.6-0.5,1.3-1.2,1.6-1.9c0.5-1.4,0.6-2.8,0.8-4.2c0.3-3.7,0.6-7.3,0.9-10.9c0.2-2,0.4-4.1,1.2-6.1c0.1-0.4,0.3-0.8,0.4-1.2
				c0.2-0.9,0.3-1.8,0.5-2.7c0.5-2.1,0.9-4.3,0.2-6.5c-0.3-0.8-0.3-1.6-0.8-2.3c-0.9-1.4-1.9-2.7-2.9-4.1c-0.5-0.5-0.9-1.2-1.4-1.6
				c-3.6-2.6-7.5-4.6-11.7-6.1c-2.1-0.7-4.2-1-6,0.9c-0.2,0.1-0.2,0.2-0.3,0.2c-1,0.9-2.3,1.5-3,2.7c-0.3,0.6-0.5,1.3-0.9,1.9
				c-0.4,0.5-0.2,0.9,0.3,1.1c0.8,0.3,1.6,0.6,2.3,1C1982.5,1041.9,1982.4,1042,1982.4,1042.1z"/>
			<path class="st30" d="M1983.1,1041.9c0.2,0,0.4,0.1,0.5,0.1C1983.4,1042,1983.2,1042,1983.1,1041.9z"/>
			<path class="st30" d="M1987.7,1044.1c0.2,0.1,0.3,0.1,0.5,0.2C1988,1044.2,1987.8,1044.2,1987.7,1044.1z"/>
			<path class="st30" d="M1986.3,1043.2c0.2,0.1,0.3,0.2,0.5,0.3C1986.6,1043.4,1986.5,1043.2,1986.3,1043.2z"/>
			<path class="st30" d="M1988.4,1044.3c0.1,0.2,0.2,0.2,0.2,0.4C1988.5,1044.6,1988.4,1044.5,1988.4,1044.3z"/>
			<path class="st30" d="M1987,1043.5c0.1,0.2,0.2,0.2,0.2,0.4C1987.2,1043.9,1987.1,1043.7,1987,1043.5z"/>
			<path class="st31" d="M1927.6,1011.5c0.8,0.4,1.6,0.7,2.4,1.1c1.2,0.5,2.3,1.2,3,2.5c0.6,1.1,1.2,2,1.9,3
				c0.2,0.5,0.2,1.2-0.2,1.4c-0.7,0.3-1.4,0.6-2.1,0.8c-0.9,0.2-1.8,0.2-2.7,0.3c-3.3,0.5-6.5,0.9-9.7,1.3c-2,0.3-3.9,0-5.7-0.7
				c-0.2,0-0.3-0.1-0.4-0.2c-0.5-0.5-1.1-0.9-1.6-1.5c-1.1-1-1.2-3.4-0.2-4.4c1.2-1.2,2.3-2.3,3.6-3.4c0.4-0.4,1-0.7,1.6-0.8
				c1.8-0.2,3.7-0.2,5.5-0.2c1.6,0.1,3.3,0.5,4.9,0.7C1927.7,1011.6,1927.7,1011.6,1927.6,1011.5z M1922.6,1021.2
				c2.2,0.1,4.2-0.8,6.3-1.1c0.8-0.1,1.4-0.4,2.2-0.6c0.9-0.3,1.2-1.2,0.5-2c-0.5-0.6-0.9-1.2-1.2-1.8c-1-1.6-2.3-2.5-4.1-2.7
				c-2.3-0.2-4.4-0.6-6.7-0.4c-0.9,0.1-1.7,0.3-2.4,1.1c-0.9,1-1.9,2-2.8,2.9c-0.4,0.4-0.5,0.9-0.1,1.2c1.1,1.2,2.2,2.3,4.1,3
				C1919.5,1021.5,1921.1,1021.2,1922.6,1021.2z"/>
			<path class="st32" d="M1981.4,1040.7c-0.2-0.2-0.5-0.6-0.4-0.8c0.5-1.1,1-2.2,1.8-3c1.1-1.2,2.4-2,4.1-2.1c0.5,0,1.2-0.2,1.6-0.1
				c1.6,0.6,3.1,1.3,4.7,2.1c2,1,3.8,2,5.7,3.1c1,0.6,2,1.2,2.8,2.2c1,1.2,2,2.6,2.8,3.8c0.8,1.2,1.6,2.3,1.4,3.8
				c-0.2,1.2-0.3,2.3-0.5,3.4c-0.2,0.9-0.1,1.9-0.4,2.6c-1.2,2.7-1.4,5.6-1.7,8.4c-0.5,3.4-0.9,7-1.2,10.5c-0.2,0.9-0.3,1.9-0.5,2.7
				c-0.2,0.5-0.4,0.5-0.9,0.5c-1.1-0.2-2.2-0.3-3.3-0.5c-1.6-0.2-1.7-0.1-2-1.7c-0.7-4.1-1.7-8.3-1.8-12.6c-0.1-3.1,0-6.3,0.1-9.4
				c0.1-1.8,0.2-3.6-0.7-5.2c-0.8-1.4-1.9-2.5-3.1-3.5c-1.9-1.4-3.9-2.7-6.2-3.3C1982.8,1041.5,1982.1,1041.1,1981.4,1040.7z
				 M1982.6,1040.9c1.7,0.3,3.1,1.3,4.7,2.1c1.8,0.9,3.4,2.3,4.8,3.8c1.2,1.2,1.7,2.7,2.2,4.4c0.6,2.3,0.2,4.4,0.2,6.6
				c0.2,2.9,0.1,5.7,0.2,8.5c0.2,2.3,0.8,4.6,1.2,6.8c0.1,0.3,0.4,0.5,0.6,0.7c0.2,0,0.6-0.2,0.8-0.3c1.2-1.5,2.4-2.9,3.4-4.4
				c0.5-0.7,0.5-1.6,0.6-2.5c0.5-2.8,0.9-5.7,1.3-8.5c0.1-0.6,0.2-1.3,0.5-2c0.7-1.7,1-3.4,0.9-5.2c-0.1-2-0.9-3.6-1.9-5.2
				c-1.5-2.3-3.7-3.7-5.9-5.1c-1.7-1.1-3.6-2-5.4-2.9c-0.8-0.4-1.5-0.8-2.3-1.1c-0.4-0.2-0.9-0.2-1.3-0.2c-1.1,0.2-2.1,0.5-3,0.8
				c-0.4,0.2-0.8,0.3-0.9,0.6c-0.5,0.6-0.9,1.4-1.2,1.9C1981.8,1040.4,1982,1040.8,1982.6,1040.9z"/>
			<path class="st28" d="M1914.3,1018c-0.5-0.5-0.3-0.9,0.1-1.2c0.9-0.9,1.9-1.9,2.8-2.9c0.7-0.7,1.5-1,2.4-1.1
				c2.3-0.3,4.4,0.2,6.7,0.4c1.9,0.2,3.2,1.1,4.1,2.7c0.4,0.6,0.8,1.2,1.2,1.8c0.6,0.8,0.5,1.6-0.5,2c-0.7,0.2-1.5,0.5-2.2,0.6
				c-2.1,0.4-4.1,1.2-6.3,1.1c-1.6-0.1-3.2,0.2-4.2-0.2C1916.4,1020.3,1915.4,1019,1914.3,1018z M1919.5,1014.4
				c-0.9,0.3-2,1.9-1.7,2.9c0.2,0.7,0.5,1.2,0.6,1.9c0.3,0.9,1.1,1.3,2.1,1.4c2.3,0.2,4.6-0.1,6.9-0.8c0.5-0.2,1.1-0.2,1.6-0.4
				c0.3-0.2,0.7-0.4,0.9-0.7c0.2-0.2,0.1-0.6-0.1-0.7c-1.6-1.2-3.4-2.5-4.7-3.4C1922.8,1013.9,1921.2,1014,1919.5,1014.4z"/>
			<path class="st33" d="M1983.3,1037.7c0.2-0.3,0.6-0.5,0.9-0.6c1-0.3,2-0.5,3-0.8c0.4-0.1,0.9,0,1.3,0.2c0.8,0.3,1.6,0.7,2.3,1.1
				c1.8,0.9,3.7,1.8,5.4,2.9c2.3,1.4,4.4,2.8,5.9,5.1c1,1.6,1.7,3.4,1.9,5.2c0.1,1.7-0.2,3.6-0.9,5.2c-0.2,0.6-0.4,1.2-0.5,2
				c-0.5,2.8-0.9,5.7-1.3,8.5c-0.2,0.9-0.2,1.8-0.6,2.5c-1,1.6-2.3,3-3.4,4.4c-0.2,0.2-0.6,0.5-0.8,0.3c-0.3-0.1-0.5-0.5-0.6-0.7
				c-0.5-2.3-1-4.5-1.2-6.8c-0.2-2.8-0.2-5.7-0.2-8.5c-0.2-2.2,0.3-4.4-0.2-6.6c-0.4-1.6-0.9-3.1-2.2-4.4c-1.5-1.5-3-2.8-4.8-3.8
				c-1.5-0.8-2.9-1.8-4.7-2.1c-0.7-0.2-0.9-0.5-0.5-1.4C1982.4,1039,1982.8,1038.3,1983.3,1037.7z M1998.7,1062.3
				c0.5-0.7,1.1-1.3,1.6-2.1c0.3-0.5,0.5-1.2,0.6-1.7c0.4-1.4,0.5-2.9,1-4.2c0.3-0.9,0.3-1.7,0.1-2.6c-0.7-2-1.2-4.2-2-6.2
				c-0.2-0.5-0.9-1.1-1.5-1.4c-1.9-1.3-3.7-2.6-5.7-3.7c-1.2-0.8-2.5-1.3-3.7-2c-0.3-0.2-0.6-0.3-0.9-0.5c-1.5-0.8-2.7-0.2-3.7,0.9
				c-0.3,0.4-0.7,0.7-1.1,1c-0.5,0.4-0.3,0.7,0.2,0.9c0.9,0.4,1.7,0.9,2.6,1.2c3,1.5,5.7,3.4,7.7,6.2c1.5,2.1,1.6,4.4,1.6,6.9
				c0,2.8,0,5.6,0.1,8.4c0,0.7,0,1.3,0.1,2c0,0.2,0.1,0.4,0.2,0.6C1996.9,1064.8,1997.8,1063.5,1998.7,1062.3z"/>
			<path class="st34" d="M1929.8,1018c0.1,0.2,0.2,0.5,0.1,0.7c-0.2,0.3-0.5,0.6-0.9,0.7c-0.5,0.2-1.1,0.2-1.6,0.4
				c-2.2,0.8-4.5,1-6.9,0.8c-0.9-0.1-1.7-0.5-2.1-1.4c-0.2-0.6-0.5-1.2-0.6-1.9c-0.2-1,0.7-2.7,1.7-2.9c1.7-0.5,3.4-0.4,5.5,0.2
				C1926.3,1015.5,1928.1,1016.7,1929.8,1018z"/>
			<path class="st35" d="M1995.7,1065.5c0-0.6-0.1-1.3-0.1-2c0-2.8-0.1-5.6-0.1-8.4c0-2.4-0.2-4.8-1.6-6.9c-2-2.8-4.7-4.8-7.7-6.2
				c-0.9-0.4-1.7-0.9-2.6-1.2c-0.5-0.2-0.6-0.5-0.2-0.9c0.4-0.3,0.7-0.6,1.1-1c1.1-1,2.2-1.7,3.7-0.9c0.3,0.2,0.6,0.3,0.9,0.5
				c1.2,0.6,2.5,1.2,3.7,2c1.9,1.2,3.7,2.5,5.7,3.7c0.5,0.4,1.2,0.9,1.5,1.4c0.8,2,1.4,4.1,2,6.2c0.2,0.9,0.2,1.6-0.1,2.6
				c-0.5,1.4-0.6,2.8-1,4.2c-0.2,0.6-0.4,1.2-0.6,1.7c-0.5,0.7-1.1,1.4-1.6,2.1c-0.9,1.3-2,2.6-3,4
				C1995.8,1065.9,1995.8,1065.8,1995.7,1065.5z"/>
		</g>
		<g>
			<g>
				<polygon class="st36" points="2150.7,936.9 2080.4,1058.3 1958.6,1057.9 2028.9,936.5 				"/>
			</g>
		</g>
		<g>
			<g>
				<g>
					<polygon class="st37" points="2034.2,947.9 1958.2,815.2 2034.6,815.9 					"/>
				</g>
				<g>
					<polygon class="st3" points="2034.6,815.9 2157.9,815.9 2157.4,948 2034.2,947.9 					"/>
				</g>
			</g>
		</g>
		<g>
			<polygon class="st0" points="2028.9,936.5 1958.1,1058.8 1898.2,953.3 1968.9,831.2 			"/>
		</g>
		<g>
			
				<radialGradient id="SVGID_3_" cx="5037.8755" cy="-2355.2214" r="26.93" gradientTransform="matrix(-0.9886 -0.1505 -0.1505 0.9886 6598.103 4013.4697)" gradientUnits="userSpaceOnUse">
				<stop  offset="2.066799e-05" style="stop-color:#F9F1E5"/>
				<stop  offset="1" style="stop-color:#CCBDA8"/>
			</radialGradient>
			<path class="st38" d="M1960,900.9c0,0-13.2,19.6,0.6,40.4c13.7,20.8,28,2.1,28,2.1"/>
			
				<radialGradient id="SVGID_4_" cx="5034.0894" cy="-2378.9363" r="7.2816" gradientTransform="matrix(-0.9886 -0.1505 -0.1505 0.9886 6598.103 4013.4697)" gradientUnits="userSpaceOnUse">
				<stop  offset="2.066799e-05" style="stop-color:#F9F1E5"/>
				<stop  offset="1" style="stop-color:#CCBDA8"/>
			</radialGradient>
			<path class="st39" d="M1984.6,905.9c-2.2,4.3-6.3,6.9-9.1,5.8c-2.9-1.2-3.4-5.5-1.2-9.8c2.2-4.3,6.3-6.9,9.1-5.8
				C1986.3,897.3,1986.9,901.6,1984.6,905.9z"/>
			
				<radialGradient id="SVGID_5_" cx="5025.124" cy="-2367.6042" r="7.2805" gradientTransform="matrix(-0.9886 -0.1505 -0.1505 0.9886 6598.103 4013.4697)" gradientUnits="userSpaceOnUse">
				<stop  offset="2.066799e-05" style="stop-color:#F9F1E5"/>
				<stop  offset="1" style="stop-color:#CCBDA8"/>
			</radialGradient>
			<path class="st40" d="M1991.8,918.5c-2.2,4.3-6.3,6.9-9.1,5.8c-2.8-1.1-3.4-5.5-1.2-9.8c2.2-4.3,6.3-6.9,9.1-5.8
				C1993.4,909.8,1994,914.2,1991.8,918.5z"/>
		</g>
	</g>
	<g>
		
			<radialGradient id="SVGID_6_" cx="4984.6489" cy="-2285.1958" r="49.0647" gradientTransform="matrix(-0.9886 -0.1505 -0.1505 0.9886 6598.103 4013.4697)" gradientUnits="userSpaceOnUse">
			<stop  offset="2.066799e-05" style="stop-color:#F9F1E5"/>
			<stop  offset="1" style="stop-color:#CCBDA8"/>
		</radialGradient>
		<path class="st41" d="M2054.5,979.9c-0.3,9.8-4.1,19.6-30.3,31.8c-26.1,12.2-48.5-15.4-48.5-15.4s-11.7-6.4-19.3,5.7
			c-7.6,12.2,2,17.6,2,17.6c106.7,62.5,118.1-31.8,118.1-31.8C2080.5,976.3,2054.9,970,2054.5,979.9z"/>
		
			<radialGradient id="SVGID_7_" cx="5038.1294" cy="-2278.6331" r="19.4431" gradientTransform="matrix(-0.9886 -0.1505 -0.1505 0.9886 6598.103 4013.4697)" gradientUnits="userSpaceOnUse">
			<stop  offset="2.066799e-05" style="stop-color:#F9F1E5"/>
			<stop  offset="1" style="stop-color:#CCBDA8"/>
		</radialGradient>
		<circle class="st42" cx="1960.4" cy="1002.5" r="19.4"/>
		
			<radialGradient id="SVGID_8_" cx="5034.1538" cy="-2300.3279" r="6.8531" gradientTransform="matrix(-0.9886 -0.1505 -0.1505 0.9886 6598.103 4013.4697)" gradientUnits="userSpaceOnUse">
			<stop  offset="2.066799e-05" style="stop-color:#F9F1E5"/>
			<stop  offset="1" style="stop-color:#CCBDA8"/>
		</radialGradient>
		<circle class="st43" cx="1967.6" cy="981.7" r="6.9"/>
	</g>
</g>
</svg>
