<?xml version="1.0" encoding="utf-8"?>
<!-- Generator: Adobe Illustrator 24.2.1, SVG Export Plug-In . SVG Version: 6.00 Build 0)  -->
<svg version="1.1" id="Layer_1" xmlns="http://www.w3.org/2000/svg" xmlns:xlink="http://www.w3.org/1999/xlink" x="0px" y="0px"
	 viewBox="0 0 2436 1509.3" style="enable-background:new 0 0 2436 1509.3;" xml:space="preserve">
<style type="text/css">
	.st0{fill:#F9F1E5;}
	.st1{opacity:0.52;fill:#F9F1E5;enable-background:new    ;}
	.st2{opacity:0.33;}
	.st3{fill:#CCBDA8;}
	.st4{fill:url(#SVGID_1_);}
	.st5{fill:url(#SVGID_2_);}
	.st6{fill:#DBD0BE;}
	.st7{fill:#EBDECC;}
	.st8{fill:#EEE3D1;}
	.st9{fill:#ECE1CE;}
	.st10{fill:#FEFEFE;}
	.st11{fill:#E5D8C8;}
	.st12{fill:#E2D6C6;}
	.st13{fill:#EAE5DB;}
	.st14{fill:#EBE3D5;}
	.st15{fill:#EDE4D4;}
	.st16{fill:#DDD0C2;}
	.st17{fill:#E7DDCA;}
	.st18{fill:#E0DED8;}
	.st19{fill:#D9CBBE;}
	.st20{fill:#DFD3C4;}
	.st21{fill:#E8E6E2;}
	.st22{fill:#D4C6BA;}
	.st23{fill:#D0C2B7;}
	.st24{fill:#CFC0B5;}
	.st25{fill:#CCBDB2;}
	.st26{fill:#C5B6AC;}
	.st27{fill:#C1B1A8;}
	.st28{fill:#C8B9AF;}
	.st29{fill:#BCACA4;}
	.st30{fill:#BEAFA6;}
	.st31{fill:#C8BEAF;}
	.st32{fill:#B9A8A1;}
	.st33{fill:#B6A59F;}
	.st34{fill:#C2B8A9;}
	.st35{fill:#B3A39C;}
	.st36{fill:#DDCBB1;}
	.st37{fill:#F4E5D3;}
	.st38{fill:none;stroke:url(#SVGID_3_);stroke-width:11;stroke-linecap:round;stroke-linejoin:round;stroke-miterlimit:10;}
	.st39{fill:url(#SVGID_4_);}
	.st40{fill:url(#SVGID_5_);}
	.st41{fill:url(#SVGID_6_);}
	.st42{fill:url(#SVGID_7_);}
	.st43{fill:url(#SVGID_8_);}
</style>
<circle class="st0" cx="-166.1" cy="832.1" r="561.1"/>
<circle class="st1" cx="2293.1" cy="593.2" r="561.1"/>
<g class="st2">
	<path class="st3" d="M1604.7,1256.5c0.8,0.1,1.7,0.1,2.5,0.1C1606.5,1257.2,1605.1,1257.1,1604.7,1256.5z"/>
	<path class="st3" d="M1595.3,1259.5c0.4-0.2,0.9-0.5,1.3-0.8C1596.6,1259.3,1595.8,1259.8,1595.3,1259.5z"/>
	<path class="st3" d="M1625.8,1264.4c-0.2,0-0.3-0.2-0.5-0.2c0.2-0.2,0.2-0.3,0.2-0.5C1625.7,1263.9,1625.7,1264.2,1625.8,1264.4z"
		/>
	<path class="st3" d="M1481.9,1404.9v-13.2l110.3-63.9l-0.2-66.9c2-1,3.9-2,5.9-3c0.2,0.1,0.3,0.2,0.4,0.2c0.1-0.2,0.2-0.3,0.2-0.5
		c1-0.4,2-0.8,3-1.1c0.2,0,0.5,0,0.7,0c-0.2,0-0.2,0-0.4,0c-0.1,0.1-0.2,0.1-0.3,0.1c0.4,0.5,1,0.4,1.2-0.2c-0.2,0-0.2,0-0.4,0
		c0.2,0,0.3,0,0.5,0s0.3,0,0.5,0c0.3,0.5,0.7,0.4,1,0c1.1,0,2.2,0.2,3.2,0h0.1c-0.1,0-0.1,0.1-0.2,0.1c0.2,0.2,0.5,0.5,0.7,0.5
		c1.1,0.2,2.1,0.5,3.1-0.1c-0.5-0.1-0.9-0.2-1.4-0.2c0.8,0.1,1.6,0.2,2.3,0.4c-0.2,0-0.4,0-0.5,0c0.2,0.6,0.6,0.5,1.2,0.3
		c0-0.1-0.1-0.1-0.1-0.2c0.1,0,0.1,0.1,0.2,0.1l0,0c0.2,0.2,0.4,0.3,0.6,0.3c3.2,1.2,9.5,1,11.3,3.7c0.4,2,1,4,2.1,5.6
		c-0.2-0.2-0.3-0.4-0.5-0.5c0,0.2,0,0.5,0.1,0.6c0.7,0.7,1,2.2,2.1,2c0,0,0,0,0.1,0.1c0,0.1,0.1,0.2,0.1,0.2c0,0,0,0,0.1,0.1
		c0,0.2-0.1,0.5,0.1,0.5c0.2,0.3,0.5,0.5,0.9,0.3c0.1,0.1,0.2,0.2,0.3,0.3c-0.2,0.8,0.3,1.2,1,1c0,0,0,0,0.1,0.1
		c0,0.1,0.1,0.2,0.1,0.2c0,0,0,0,0.1,0.1c0,0.2-0.1,0.5,0,0.5c0.6,0.5,1.4,1.6,2.3,1.1c-0.2-0.2-0.3-0.2-0.5-0.4
		c0.6,0.4,1.3,0.6,2,0.9c-0.3-0.1-0.7-0.2-1-0.2c0.2,0.5,0.4,0.8,1,0.8c0.8-0.2,2.2,0.9,2.7-0.1c0.1,0,0.2,0,0.3-0.1
		c0.1,0.4,0.3,0.5,0.7,0.5c0.6-0.2,1.2-0.5,1.9-0.1c1.1-0.4,2.2-0.8,3.3-1.2c2.1-0.5,4-1.7,6-2.1c0.1-0.1,0.2-0.2,0.4-0.3
		c1-0.4,2-0.8,3-1.1c0.3-0.1,0.6-0.1,0.9-0.2c12.6-6.1,25.4-14.9,29.4-29.2c5.1-14.9-1.8-25.7-18.1-20.3c-3.7,0.9-6.9,3-9.7,5.5
		c-2.6,2.4-6.5,2.3-8.8,4.8c0.2,0.1,0.4,0.2,0.6,0.3c-2.5-1-6.3-3.3-7.7-3.6c-18.4-9.1-31.1-12.1-48.4-10.3v-11.6l0.9-0.5
		l-21.5-12.2c-2-5.1-4.1-10.1-4.8-15.4c4.3-12.5,14.8-21.8,22.3-32.4c1.6-2,9.8-14,9-17.9c0.7-0.7,1-1.8,0.6-3.5
		c-0.9-2.3-3.4-3-5.6-3.7c-14.1-4.1-28.5-7.6-43.1-9.4c-9-1.2-15.1-0.8-17.6,0.7c0-0.2,0.1-0.3,0.1-0.5c-0.4,0.2-0.9,0.3-1.2,0.5
		c-19,11.4-7.1,23.3,8.4,29.2c0-0.1,0-0.2,0-0.2c0,0.1,0,0.1,0,0.2c0.2,0.1,0.2,0.2,0.4,0.2c3,0.9,5.8,2,8.9,2.7
		c-9.1,6.6-13.2,17.5-14.3,28.6l-46.8-26.6l-81.2,47c-0.3-1.4-0.5-2.7-0.6-4.1c-0.2-1.4-0.2-2.8-0.1-4.2c0-3,0.6-5.9,1.2-8.7
		c0.5-2.6,1.6-4.9,2.4-7.4c0.9-2.6,2.3-5,3.6-7.4c0.2-0.2,0.2-0.5,0.3-0.8c0.5-0.4,1.1-0.5,1.6-0.8c5.7-2.6,9.3-6.8,10.6-12.9
		c1.4-6.8,0-12.9-4.5-18.2c-2.9-3.4-6.7-5.2-11.1-5.9c-0.2,0-0.5,0-0.8,0c-1.4,0-2.9,0-4.3,0c1.4,0,2.9,0,4.3,0v-0.1v-0.1
		c-1.4,0-2.9,0-4.3,0c-7.6,0,1.2,3.4-6.3,3.4c-0.5,0-7.9,9-7.9,9.4c0,28.2-9.1,44-9.1,72.2l-14.7,8.5l-17.3-9.9l0.7,76.5v123.3
		L1481.9,1404.9z M1567.9,1145.1c-0.4-0.4-0.5-0.8-0.5-1.2C1567.3,1144.3,1567.5,1144.6,1567.9,1145.1c2.7,1.3,11.8,5.5,13.5,2
		c1.3-2.8,4.1-5.4,4-8.6l0,0c0.2,3.3-2.7,5.9-4,8.7C1579.8,1150.7,1570.4,1146.4,1567.9,1145.1z M1578.7,1131.5
		c-0.1,0-0.2,0.1-0.3,0.1C1578.5,1131.5,1578.6,1131.5,1578.7,1131.5z M1564.8,1142c0.3-1.8,1.7-3.8,3-5.7
		C1566.8,1138.2,1565.8,1140.1,1564.8,1142L1564.8,1142z M1570.4,1132.9c1.2-1.7,2.7-3,4.3-4.1
		C1573.1,1129.9,1571.6,1131.3,1570.4,1132.9z M1590.7,1128.3c0.6,0.4,1.1,0.9,1.3,1.6l0,0
		C1591.8,1129.2,1591.3,1128.7,1590.7,1128.3C1590.6,1128.3,1590.6,1128.3,1590.7,1128.3z M1592,1130.7c-0.1,1.6-0.4,3.2-0.9,4.7
		C1591.6,1133.9,1591.9,1132.3,1592,1130.7z M1584.5,1147c-0.4,0.5-0.8,1.2-1.2,1.7c-0.2,0.1-0.2,0.2-0.4,0.2
		C1583.5,1148.3,1583.9,1147.7,1584.5,1147z M1573.5,1148.7c2.3,0.7,4.6,1.2,6.4,1.2C1577.9,1150,1575.7,1149.6,1573.5,1148.7z
		 M1565.7,1144.6c-0.1-0.1-0.2-0.2-0.3-0.2c-0.2-0.3-0.4-0.6-0.5-1C1565,1143.9,1565.3,1144.3,1565.7,1144.6z M1562.3,1140.6
		c0-0.1,0-0.1,0-0.2s0.1-0.2,0.1-0.2C1562.4,1140.4,1562.4,1140.5,1562.3,1140.6z M1564.2,1136.2
		C1564.3,1136.2,1564.3,1136.1,1564.2,1136.2C1564.3,1136.1,1564.3,1136.2,1564.2,1136.2z M1563.6,1137.5c0.1-0.2,0.2-0.4,0.3-0.6
		C1563.8,1137.2,1563.6,1137.3,1563.6,1137.5z M1563,1138.9c0.2-0.3,0.2-0.6,0.4-0.9C1563.3,1138.3,1563.1,1138.6,1563,1138.9z
		 M1562.5,1140.2c0.2-0.4,0.3-0.8,0.5-1.2C1562.8,1139.4,1562.6,1139.8,1562.5,1140.2z M1382.5,1205.8c0.1,0.1,0.2,0.2,0.3,0.3
		C1382.6,1206,1382.6,1205.9,1382.5,1205.8L1382.5,1205.8z M1561.5,1167c0.2-0.3,0.3-0.6,0.5-0.9c0,0.1-0.1,0.2-0.1,0.2
		c0.9-0.4,3-2.7,3.4-0.9c0,0.2,0,0.3,0,0.5c-0.2-0.8-0.5-1.2-1.1-0.9C1563.2,1165.6,1562.2,1166.2,1561.5,1167z M1565.8,1155.8
		c0,0.2-0.1,0.3-0.2,0.4c-0.1,0-0.2-0.1-0.2-0.1C1565.6,1156,1565.8,1155.9,1565.8,1155.8z M1564.5,1158
		C1564.5,1158,1564.5,1157.9,1564.5,1158c0.5,0.9,0.3,2,0.2,2.9c-0.2,0.9-0.8,1.8-1.3,2.6c1.2-2.2,1.9-3.8,0.9-5.8
		C1564.4,1157.8,1564.5,1157.8,1564.5,1158z M1562.5,1157L1562.5,1157c-2.7-5.5-8.3-7.3-13.6-9.1c-0.5-0.2-0.8-0.4-1.1-0.5
		c0.4,0.1,0.7,0.2,1.2,0.5C1554.3,1149.6,1560,1151.4,1562.5,1157z M1545,1150.4c0.6-0.6,1.5-1.6,2.3-2.1c-1.7,1.3-3.3,3.2-4.7,5.3
		C1543.4,1152.5,1544.1,1151.4,1545,1150.4z M1562.1,1159.7c-0.5-5.7-6.7-8.8-11.7-10.5c-0.1-0.1-0.2-0.2-0.3-0.2
		c0-0.1-0.1-0.1,0-0.1l0,0c5.1,1.6,10.2,4.3,12.1,9.6C1562.2,1159,1562.2,1159.4,1562.1,1159.7z M1550.1,1149L1550.1,1149
		c-0.5-0.6-1.2-1-1.7-1C1549,1147.9,1549.5,1148.2,1550.1,1149z M1550,1149c-7.8,1-12.9,15.4-11.5,25.7h-0.1
		C1537.1,1164.4,1542.2,1149.9,1550,1149z M1559.8,1163.9c0.7-1.6,1-3,1-4.2c0,1-0.2,2.2-0.7,3.5l0,0
		C1560,1163.5,1559.9,1163.7,1559.8,1163.9z M1548.7,1153.2c1-0.2,2.3-0.2,3.6,0.4c-0.7-0.2-1.5-0.3-2.3-0.3
		C1549.5,1153.2,1549.1,1153.1,1548.7,1153.2z M1550.4,1157.5c0.3,0,0.7,0,1,0c0.1,0,0.2,0,0.3,0c-0.2,0-0.2,0-0.4,0
		C1551,1157.5,1550.7,1157.5,1550.4,1157.5z M1552.7,1156.6c1.3,0.3,2.5,1,3.4,2.4c0.4,0.6,0.5,1.3,0.6,2
		C1556.3,1158.8,1554.8,1157.2,1552.7,1156.6z M1545.4,1175c-0.2-1.1-0.4-2.2-0.5-3.2C1545.1,1172.9,1545.2,1173.9,1545.4,1175
		L1545.4,1175L1545.4,1175C1545.4,1175,1545.4,1175,1545.4,1175L1545.4,1175L1545.4,1175L1545.4,1175z M1552.2,1179.3
		C1552.3,1179.3,1552.3,1179.3,1552.2,1179.3C1552.3,1179.3,1552.3,1179.3,1552.2,1179.3z M1551.9,1177.1L1551.9,1177.1
		L1551.9,1177.1L1551.9,1177.1L1551.9,1177.1z M1546.6,1169.9c0.2,1.3,0.4,2.7,0.5,3.8l0,0v-0.1
		C1546.8,1172.2,1546.6,1170.9,1546.6,1169.9z M1548.3,1166.9c0.3-0.9,1-1.3,1.8-1.6c-1,0.5-2,1.6-2.2,3.1
		C1548,1167.9,1548.1,1167.4,1548.3,1166.9z M1553.3,1165.8c0.7,0.5,1.2,1.2,1.2,2c0,0.2,0.1,0.6,0.1,1.1
		C1554.4,1167.5,1554,1166.5,1553.3,1165.8z M1554.4,1172.3c-0.2,1.5-0.5,2.9-1,3.8c0.2-0.5,0.3-1.1,0.4-1.5
		C1554,1173.8,1554.2,1173,1554.4,1172.3z M1552.1,1179.3L1552.1,1179.3C1552,1179.3,1552,1179.3,1552.1,1179.3z M1548.7,1177
		c-0.6-0.6-1.2-1.2-1.5-2.1C1547.6,1175.5,1548.1,1176.3,1548.7,1177z M1551.9,1161.7c0.2,0.2,0.4,0.4,0.6,0.5
		C1552.3,1162,1552.1,1161.8,1551.9,1161.7c-1.6-0.8-2.7,2.1-4.1,2.9c0.6-0.9,1.5-1.9,2.8-2.8
		C1551,1161.3,1551.4,1161.2,1551.9,1161.7z M1554.4,1164.7c0.7,1.4,1,3,0.9,4.8C1555.2,1167.7,1555.1,1166.1,1554.4,1164.7z
		 M1554.6,1174c-0.2,1.5-0.5,3.1-1.1,4.1C1553.9,1176.9,1554.3,1175.5,1554.6,1174z M1552.8,1159.2c5.1,1.5,2.5,13.5,1.9,17.9
		c-0.3,1.6-0.1,5.8-2.5,5.1c0,0-0.1,0-0.1-0.1c0.5,0.2,0.9,0.1,1.3-0.3c1.4-6,3.7-14.9,1.5-20.7
		C1554.2,1160.3,1553.5,1159.6,1552.8,1159.2z M1550.9,1181.6c-0.6-0.3-1.2-0.7-1.6-1.1C1549.8,1180.8,1550.4,1181.2,1550.9,1181.6z
		 M1545.3,1178.5c-0.4-0.7-0.7-1.4-1-2.2C1544.6,1177.1,1544.9,1177.9,1545.3,1178.5L1545.3,1178.5z M1542.8,1169.5
		c-0.2-1.6-0.2-3.3,0-4.8C1542.7,1166.3,1542.7,1167.9,1542.8,1169.5z M1546.3,1158.1c0.7-0.7,1.5-1.2,2.3-1.7l0,0l0,0
		C1547.9,1156.9,1547.1,1157.4,1546.3,1158.1z M1556.7,1156.2c1.1,0.9,1.6,2.1,1.6,3.4C1558.1,1158.4,1557.5,1157.2,1556.7,1156.2z
		 M1556.6,1168c-0.1,0.3-0.1,0.6-0.2,0.9c0.1-1.9,0-3.7-0.2-5.5c-0.2-2.5-1.6-5.5-4.3-5.9c3.3,0.3,4.3,4.4,4.6,7.3
		c0.1-0.1,0.1-0.2,0.2-0.3C1556.6,1165.7,1556.5,1166.9,1556.6,1168z M1555.8,1175.5c-0.2,2.3-0.5,4.4-1.2,6.6
		c0.1,0.5-0.2,1.1-0.5,1.5l0,0c0.4-0.4,0.6-0.9,0.5-1.5c-0.2,0.2-0.5,0.3-0.7,0.4c0.2-0.1,0.5-0.2,0.7-0.4
		C1555,1179.9,1555.5,1177.7,1555.8,1175.5z M1542.3,1176.8c-2.2-5.1-2-11.3,0.2-16.5c0.9-1.8,1.8-3.3,2.7-4.4
		c-0.9,1.5-1.7,3.2-2.7,4.4c-2.3,5.3-2.3,11.5-0.1,16.6L1542.3,1176.8z M1556.8,1154.5c1.7,1.3,3,3,3.3,5.5
		c-0.2,0.6-0.3,1.2-0.5,1.9C1560.1,1158.5,1559.2,1156.4,1556.8,1154.5z M1558.1,1166.3c-0.3,1.1-0.6,2.2-0.8,3.4
		c0.1-0.6,0.2-1.3,0.2-2l0,0c0.1-0.1,0.2-0.2,0.2-0.2C1557.8,1167.1,1557.9,1166.7,1558.1,1166.3z M1556.9,1173.5L1556.9,1173.5
		c-0.3,3.7-0.6,7.4-1.1,11h-0.1C1556.3,1180.9,1556.6,1177.2,1556.9,1173.5z M1548.6,1150.7c0.9-0.3,1.8-0.3,2.6,0.3
		C1550.2,1150.6,1549.4,1150.5,1548.6,1150.7z M1559.3,1165c-0.3,0.8-0.6,1.6-0.9,2.4c0.1-0.5,0.2-0.9,0.3-1.4
		C1559,1165.6,1559.1,1165.3,1559.3,1165z M1557.9,1185.5c0,0.1,0,0.1,0,0.2l0,0C1557.9,1185.6,1557.9,1185.6,1557.9,1185.5z
		 M1559.8,1171.6c-0.4,2.1-0.7,4.9-0.7,7.6C1558.9,1176.2,1559.3,1173.8,1559.8,1171.6z M1559.9,1186.9L1559.9,1186.9
		c0-0.2,0.1-0.2,0.1-0.4l0,0C1560,1186.5,1560,1186.7,1559.9,1186.9z M1539.3,1158.5c0.7-1.7,1.6-3.4,2.7-5.1
		C1540.9,1155,1540,1156.7,1539.3,1158.5z M1544.1,1150.2c0.6-0.9,1.2-1.9,2-2.4c-0.2,0.2-0.4,0.5-0.7,0.7
		C1545.1,1149.1,1544.6,1149.6,1544.1,1150.2z M1563.3,1156c0.2,0.2,0.3,0.5,0.4,0.6c-0.1-0.2-0.2-0.3-0.4-0.5l0,0
		C1563.3,1156.2,1563.3,1156.1,1563.3,1156z M1569.3,1166.6c-0.8,2.7-2.6,5.1-3.4,7.8C1566.7,1171.7,1568.5,1169.3,1569.3,1166.6z
		 M1565.8,1187.2c1.1-4.2-1.6-9.2-0.9-13.6c0-0.5,0.2-1.9,0.4-3.4c-0.1,1.1-0.2,2.2-0.4,3.3
		C1564.1,1177.9,1566.8,1183,1565.8,1187.2z M1382.7,1206.1L1382.7,1206.1L1382.7,1206.1L1382.7,1206.1z M1537.7,1161
		c0.4-1.9,1.1-3.6,2-5.1C1538.8,1157.4,1538.1,1159,1537.7,1161c-0.8,3.4-2,7.7-2.3,11.9l0,0
		C1535.6,1168.6,1536.8,1164.3,1537.7,1161z M1546,1145.9c0.1,0,0.1,0,0.2,0c0,0,0,0.1,0.1,0.1l-0.1,0.1
		C1546.1,1146,1546.1,1145.9,1546,1145.9z M1527.9,1119.8c-3.2,2.7-5.2,6.8-3,10.3c3.3,3,7.6,5.2,12.3,6.9c-4.6-1.5-9-3.4-12.4-6.9
		C1522.5,1126.7,1524.6,1122.6,1527.9,1119.8z M1575.4,1150.1c-4.7-1.8-10.4-3.3-13.8-7.1c-3.8-0.3-7.5-1.2-11.2-2.3
		c4,0.9,7.8,1.5,11.2,2.2v-0.1c3.4,3.7,9.1,5.3,13.7,7c2.7,1.2,6.2,3,8.3-0.2c2.4-3.3,9.1-11.2,11.2-17.5c-2,6.2-8.8,14.4-11.2,17.7
		C1581.5,1153.1,1578.2,1151.4,1575.4,1150.1z M1565.8,1154.6c0-0.1,0-0.1,0-0.2c0.2-0.3,0.2-0.5,0.2-0.8
		C1566,1153.9,1566,1154.2,1565.8,1154.6z M1566.3,1177.7L1566.3,1177.7c0.2-5.6,5.5-10.2,6.6-15.8c0.1-0.2,0.1-0.3,0.2-0.4
		c0,0.2-0.1,0.4-0.2,0.6C1571.8,1167.6,1566.7,1172.1,1566.3,1177.7z M1568.8,1191.9L1568.8,1191.9c-0.3-2.1-0.8-4.2-1.2-6.2
		C1568.2,1187.9,1568.7,1190.2,1568.8,1191.9z M1626.7,1259.3c0.2-0.1,0.5-0.2,0.8-0.3c0,0,0,0-0.1,0c0.8-0.2,1.2,0.2,1.5,0.9
		C1628.6,1259.3,1627.9,1259,1626.7,1259.3z M1629.7,1230.9c0.5-0.1,1.1-0.2,1.6-0.3c-0.6,0.2-1.2,0.3-1.8,0.5
		c-12.3,2.3-25.1,0.6-37.6,1.4v-0.2c5.9-0.2,11.9-0.2,17.8-0.3C1616.3,1231.8,1623.2,1232.6,1629.7,1230.9z M1645.9,1265.6
		c1.3-0.9,6.9-1.5,7.7-2.3C1653.1,1264,1648.2,1264.7,1645.9,1265.6z M1644.8,1266.1c-0.1,0-0.2,0-0.3-0.1c0.2,0,0.3,0,0.4-0.1
		C1644.9,1266.1,1644.9,1266.1,1644.8,1266.1z M1643.3,1265.8c-2-0.7-3.5-2.2-4.4-4.1c0.9,1.6,2.3,3,4.1,3.8
		C1643.1,1265.7,1643.2,1265.7,1643.3,1265.8z M1637.7,1256.7c0-0.9,0.1-1.7,0.4-2.5c0,0,0-0.1,0.1-0.1
		C1637.8,1255,1637.7,1255.8,1637.7,1256.7z M1637.7,1257.4c0-0.2,0-0.4,0-0.6C1637.7,1256.9,1637.7,1257.2,1637.7,1257.4z
		 M1637.8,1258.1L1637.8,1258.1L1637.8,1258.1z M1642.6,1248.9c0.1-0.1,0.2-0.2,0.3-0.3C1642.8,1248.7,1642.7,1248.8,1642.6,1248.9z
		 M1641.9,1249.7c0.1-0.1,0.1-0.2,0.2-0.2C1642,1249.5,1641.9,1249.6,1641.9,1249.7z M1598.6,1255.8c-1.2,0.1-2.2,0.6-3.1,1.3
		c0.1,0,0.1,0,0.2,0c-1.2,0.5-2.3,1.1-3.6,1.6v-0.2c0.7-0.3,1.4-0.6,2.1-1c3-2,6.5-2.3,10-2.3c0.2,0.2,0.5,0.2,0.8,0.1l0.1,0.1
		c-0.1,0-0.2,0.1-0.3,0.1s-0.2,0-0.2,0c-0.1,0-0.2-0.1-0.2-0.1c0.1,0,0.1,0.1,0.2,0.1c-1.7-0.2-3.4-0.1-4.9,0.4c-0.1,0-0.2,0-0.2,0
		c0.1,0,0.2,0,0.2,0c-0.5,0.2-1,0.2-1.5,0.5C1598.2,1256.1,1598.4,1256,1598.6,1255.8z M1638.6,1248.3c3.3-4.4,4.4-9.7,0.3-13.8
		c-5.4-3-12.4,0.2-18.3-0.2c-1.2,0-2.4,0-3.6,0c1.2,0,2.4,0,3.7,0c6,0.5,13-2.7,18.3,0.2C1643,1238.7,1642,1243.9,1638.6,1248.3z
		 M1601.6,1254.7c-2.4,0.2-4.8,0.9-7,1.7c0.2-0.1,0.4-0.2,0.5-0.3c1.2-0.6,2.6-1,3.9-1.2c3.2-0.4,6.4-0.3,9.6-0.1
		c3.7,0.4,7.5,0.9,11.1,0.6c1.3-0.9,2.9-1.6,4.3-2.3c-1.5,0.9-3,1.7-4.6,2.5C1613.7,1256,1607.5,1254.6,1601.6,1254.7z
		 M1598.1,1254.7c2.2-0.5,4.4-0.8,6.6-0.4l0,0l0,0C1602.5,1253.9,1600.3,1254.1,1598.1,1254.7z M1628.1,1236.9c-1.3,0-2.7,0.1-3.9,0
		c-1.2-0.1-2.5-0.1-3.7-0.2C1622.9,1236.7,1625.5,1236.6,1628.1,1236.9z M1593.1,1255.2c-0.4,0.1-0.8,0.2-1.2,0.4v-0.2
		c1.9-0.7,3.7-1.5,5.7-1.7c5.9-0.4,11.9-0.3,17.8-0.2c0.8,0,1.5-0.2,2-0.7c-0.5,0.7-1.2,0.9-2.1,0.9
		C1608,1254,1600,1252.4,1593.1,1255.2z M1599,1252.9c1.6-0.3,3.4-0.4,5.1-0.3h0.1c-0.1,0-0.2,0-0.2,0
		C1602.2,1252.5,1600.5,1252.6,1599,1252.9z M1592,1243c1.5,0,3,0,4.8,0.1C1595,1243,1593.4,1243.1,1592,1243L1592,1243z
		 M1596.3,1246.2c-1.3,1.2-2.8,2-4.3,2.5v-0.2c1.6-0.6,3.1-1.5,4.5-2.5C1596.4,1246,1596.3,1246.1,1596.3,1246.2z M1603.4,1242.6
		c-3.9-0.5-7.8-0.4-11.4-0.5v-0.1C1595.6,1242,1599.5,1241.9,1603.4,1242.6z M1607.6,1243.9c0.1,0,0.1,0,0.2,0.1
		c0,0.1-0.1,0.1-0.1,0.2C1607.6,1244.1,1607.6,1244,1607.6,1243.9z M1605.9,1246.2c-0.6,0.5-1.2,0.9-2,1.3
		C1604.5,1247.2,1605.2,1246.7,1605.9,1246.2z M1611.8,1241.9c-0.9-0.1-1.7-0.2-2.1-0.4c0.1,0,0.1,0,0.2,0
		C1610.5,1241.7,1611.2,1241.9,1611.8,1241.9z M1609.5,1241.6c-2-0.3-3.8-0.6-5.8-0.9C1605.7,1240.9,1607.6,1241.2,1609.5,1241.6z
		 M1597.2,1240.9c0.8,0,1.6,0.1,2.3,0.2c-2.8-0.1-5.3,0.1-7.6,0.2v-0.2C1593.8,1240.9,1595.6,1240.8,1597.2,1240.9z M1609.8,1242.7
		L1609.8,1242.7c0.4,0,0.6,0.1,0.9,0.2C1610.4,1242.9,1610.1,1242.8,1609.8,1242.7L1609.8,1242.7z M1611.4,1243.8
		c0.2,0.6,0.2,1.5,0.2,2.3c-0.2-0.5-0.2-1-0.2-1.3C1611.5,1244.4,1611.5,1244.1,1611.4,1243.8z M1610.8,1249
		c-1.7,0.7-4.9,0.9-7.7,1.1C1605.6,1249.7,1608.2,1249.3,1610.8,1249z M1609.4,1251.2C1609.4,1251.2,1609.3,1251.2,1609.4,1251.2
		c1.3-0.2,2.7-0.4,4.1-0.8c3-0.9,1.6-4.5,2.2-6.9c0.1-0.5-0.3-0.7-0.9-0.9c1.6,0.5,1,1.5,0.8,6.3
		C1614.1,1250.9,1611.6,1250.8,1609.4,1251.2z M1617.4,1249.7c-1.8,2-4.5,2.4-7.4,2.6C1613,1252.1,1615.7,1251.5,1617.4,1249.7z
		 M1602.7,1251.6c-3.6,0.3-7.2,0.8-10.8,1.6l0,0h0.1C1595.5,1252.1,1599.1,1251.9,1602.7,1251.6z M1602,1238.4
		c-2.2-0.1-4.4-0.2-6.6-0.2C1597.9,1238.1,1600.2,1238,1602,1238.4z M1609.1,1238.8c3.5,0.1,7.1,0.2,10.5,0.8
		c-2.3-0.4-4.6-0.5-6.7-0.6C1611.6,1238.9,1610.3,1238.9,1609.1,1238.8z M1626.1,1241.9L1626.1,1241.9c0.3,1.3,0.4,2.5,0.3,3.4
		C1626.4,1244.2,1626.2,1243,1626.1,1241.9L1626.1,1241.9z M1619.5,1250.6c0.9-0.8,1.9-1.6,2.7-2.4
		C1621.6,1249.1,1620.5,1249.8,1619.5,1250.6z M1592,1237c0.9,0,1.8-0.1,2.7-0.1c-0.4,0-0.7,0.1-1.1,0.1
		C1593.1,1237,1592.5,1237,1592,1237L1592,1237z M1598.8,1236.9c1.2,0,2.6,0,3.8,0c-1.1,0-2.3,0-3.4,0.1
		C1599.1,1236.9,1599,1236.9,1598.8,1236.9z M1629.1,1242.5c-0.1-0.2-0.1-0.5-0.2-0.7c-1.1-3.7-16.9-3.3-20.9-3.7
		c-5.3-0.2-10.5-0.6-15.9-0.3c-0.1,0-0.2,0-0.2,0v-0.2c0.1,0,0.1,0,0.2,0c5.3-0.3,10.6,0.2,15.9,0.3c6.6,0.3,13.3,0.2,19.7,2.3
		c1,0.3,1.1,0.4,1.2,1.4C1628.9,1241.9,1629,1242.2,1629.1,1242.5z M1624.5,1249.4c-0.2,0.2-0.3,0.4-0.5,0.5
		c0.1-0.2,0.2-0.2,0.3-0.4C1624.3,1249.4,1624.4,1249.4,1624.5,1249.4z M1591.9,1236.2c0.5,0,1,0,1.6,0.1c0.7,0,1.5,0,2.2,0
		c-1.2,0-2.5,0.1-3.7,0.2L1591.9,1236.2z M1613,1236.4c0.6,0,1.2,0,1.7,0c0.2,0,0.5,0,0.7,0.1
		C1614.6,1236.5,1613.7,1236.5,1613,1236.4z M1611.5,1254.5c3.2,0.2,6.1,0.2,8.8-1.4l0,0C1617.8,1254.9,1614.7,1254.8,1611.5,1254.5
		z M1592.7,1256.3c-0.2,0.1-0.5,0.2-0.7,0.2l0,0C1592.2,1256.5,1592.4,1256.4,1592.7,1256.3z M1611.7,1235.5c-4.1,0-8,0-12.1,0
		C1603.7,1235.5,1607.6,1235.5,1611.7,1235.5c0.1,0,0.1,0,0.2,0C1611.8,1235.5,1611.8,1235.5,1611.7,1235.5z M1634.4,1237.8
		c0.2,0.3,0.4,0.6,0.6,1c-0.4-0.5-0.9-0.9-1.5-1.2C1633.9,1237.7,1634.1,1237.7,1634.4,1237.8z M1621,1256c-0.1,0-0.2,0.1-0.2,0.1
		C1620.8,1256.1,1620.8,1256,1621,1256c3.3-2,7.3-3,9.7-6.5c1.2-2.1,3.5-4.1,3.4-6.7c-0.4-1.2,0-3.3-1.1-4c1.2,0.6,0.7,2.8,1.2,4.1
		c0.1,2.6-2.3,4.6-3.4,6.7C1628.4,1253,1624.3,1254,1621,1256z M1636.2,1242.4c0,0.5-0.1,1.1-0.4,1.6
		C1636,1243.5,1636.1,1243,1636.2,1242.4z M1627.8,1250.2c0.5-0.6,1.2-1.3,1.8-2C1629,1249,1628.4,1249.6,1627.8,1250.2z
		 M1637.7,1237.9L1637.7,1237.9c1.1,1.7,1.3,3.6,0.9,5.5C1638.9,1241.5,1638.7,1239.6,1637.7,1237.9L1637.7,1237.9z M1637.2,1246.8
		L1637.2,1246.8L1637.2,1246.8z M1637.8,1245.7c0,0.1-0.1,0.2-0.1,0.2C1637.7,1245.8,1637.8,1245.8,1637.8,1245.7z M1638.2,1244.5
		c-0.1,0.2-0.1,0.3-0.2,0.5C1638.1,1244.9,1638.2,1244.8,1638.2,1244.5z M1638.5,1243.3c-0.1,0.3-0.2,0.5-0.2,0.9
		C1638.5,1243.9,1638.5,1243.7,1638.5,1243.3z M1629.7,1252.2c-2.2,1.7-4.6,3-7.1,4.1C1625,1255.1,1627.5,1253.8,1629.7,1252.2z
		 M1611.7,1255.8c2.3,0.2,4.6,0.5,6.9,0.7c0.1,0,0.2,0,0.2,0C1616.7,1256.7,1614.1,1256.1,1611.7,1255.8z M1591.9,1234.6
		c0.1,0,0.2,0,0.2,0c5.6-0.2,11.3-0.2,16.9-0.2c-5.7,0.1-11.5,0.3-17.2,0.5V1234.6z M1634.6,1250.2L1634.6,1250.2L1634.6,1250.2z
		 M1633.7,1251.1c0.1-0.1,0.1-0.1,0.2-0.2C1633.8,1250.9,1633.8,1251,1633.7,1251.1z M1632.5,1252.2c-3.7,3.1-8.5,5.3-12.2,5.5
		C1624,1257.4,1628.7,1255.2,1632.5,1252.2z M1632.8,1251.9c0.2-0.2,0.3-0.2,0.4-0.4C1633,1251.7,1632.9,1251.8,1632.8,1251.9z
		 M1619.8,1257.2c-0.2,0-0.5-0.1-0.7-0.1c0.5,0,0.9-0.1,1.3-0.2C1620.2,1257.1,1620,1257.1,1619.8,1257.2z M1612.1,1256.1
		c-1.3-0.2-2.6-0.2-3.8-0.2c-0.2,0-0.4,0-0.6-0.1C1609,1255.6,1610.5,1255.8,1612.1,1256.1z M1607.1,1255.8
		c-0.2-0.1-0.2-0.2-0.3-0.3c-0.2,0-0.5,0.1-0.5,0.1c-0.2-0.2-0.3-0.2-0.5-0.2c0,0,0,0-0.1,0l0,0c-0.1,0-0.2,0.1-0.3,0.1l-0.1-0.1
		c0.1,0,0.2-0.1,0.3-0.1c0.5,0,1.1,0.1,1.6,0.1c-0.2,0-0.4,0-0.5,0C1606.9,1255.5,1607,1255.7,1607.1,1255.8L1607.1,1255.8z
		 M1618.6,1233.3c-1.6,0.1-3,0.1-4.6,0.1c4.6-0.2,9.2-0.5,13.7-0.9C1624.6,1233,1621.5,1233.7,1618.6,1233.3z M1641.2,1233.4
		c-1.8-1.2-3.8-1.8-5.9-1.9C1637.8,1231.3,1639.8,1232,1641.2,1233.4z M1643.8,1241.7c-0.2,2-1,4-2.3,5.5
		C1642.6,1245.5,1643.5,1243.6,1643.8,1241.7z M1617,1257.4c-0.2-0.1-0.4-0.2-0.6-0.2c0.1,0,0.2,0,0.3,0c-1.2-0.3-2.3-0.5-3.4-0.7
		c1.2,0.2,2.3,0.3,3.4,0.6C1616.9,1257.2,1616.9,1257.3,1617,1257.4z M1592,1259.7v-0.2c4.8-2.3,9.6-4.6,14.5-3.8
		C1599.5,1255.5,1596.3,1257.7,1592,1259.7z M1596.6,1257.8c-1.6,0.7-3.1,1.5-4.7,2.3v-0.2
		C1593.5,1259.2,1595.1,1258.4,1596.6,1257.8z M1632.5,1230.3c3-0.5,6-0.9,8.7,0.5c6.9,4.1,5.9,10.3,2,15.8c1.2-1.8,2-3.7,2.7-5.9
		C1647.7,1232.3,1639.4,1229.1,1632.5,1230.3z M1661.1,1228.3c1.1-0.1,2.2,0,3.4,0C1663.4,1228.4,1662.2,1228.3,1661.1,1228.3z
		 M1667.6,1227.7c-0.1,0-0.1,0-0.2,0.1C1667.5,1227.8,1667.6,1227.7,1667.6,1227.7L1667.6,1227.7z M1655.9,1230.5
		c-1.2,0.7-2.5,1.5-3.8,1.9C1652.9,1231.7,1654.5,1231.1,1655.9,1230.5z M1658.9,1228.8c0.6-0.2,1.2-0.4,2-0.4
		c-0.8,0.1-1.5,0.3-2.2,0.6C1658.8,1228.9,1658.8,1228.8,1658.9,1228.8z M1667.8,1228.1c-0.8,0.8-1.6,1.6-2.4,2.4
		c-0.5,0.5-1.1,1.1-1.6,1.6C1665.5,1230.2,1667,1228.6,1667.8,1228.1z M1656.3,1239.4c-0.2,0.2-0.5,0.4-0.6,0.6
		c-1.7,0.6-2.7-1.2-3.4-3.3c0.7,1.3,1.6,2.7,2.1,3.2C1654.6,1240.3,1655.3,1240.1,1656.3,1239.4z M1651.3,1234
		c0-0.2-0.1-0.2-0.1-0.3c-0.1-0.3,0.1-0.6,0.4-0.9C1651.3,1233,1651.2,1233.5,1651.3,1234z M1653.8,1253.3c0.1,0.3,0.2,0.7,0.3,1
		C1654,1254,1653.9,1253.6,1653.8,1253.3z M1637.5,1267.2c-3.2-2.3-5.5-6.5-5.3-10.1h0.1C1632.2,1260.8,1634.4,1264.9,1637.5,1267.2
		z M1623.5,1259c-1.7-0.1-3.4-0.5-5.1-0.9c-0.5-0.2-1.1-0.4-1.7-0.5c0.3,0.1,0.7,0.1,1,0.2l-0.1-0.1l0,0l0.1,0.1
		c0.1,0,0.1,0,0.2-0.1l0,0h-0.1c2.4,1.2,5.5,1.3,8.7,0.5C1625.4,1258.4,1624.4,1258.7,1623.5,1259z M1628.9,1257.9
		c-0.8,0.4-1.6,0.7-2.4,0.9C1627.3,1258.5,1628.1,1258.2,1628.9,1257.9z M1615.5,1257.2c-0.2,0-0.3-0.1-0.5-0.1
		c0.4,0,0.9,0.1,1.2,0.1C1615.9,1257.2,1615.7,1257.2,1615.5,1257.2z M1612.3,1256.8c-1.2-0.1-2.4-0.2-3.6-0.5
		C1609.9,1256.5,1611.2,1256.7,1612.3,1256.8z M1598,1257.2c-0.2,0.1-0.3,0.2-0.5,0.2C1597.7,1257.4,1597.7,1257.3,1598,1257.2
		C1597.9,1257.3,1597.9,1257.3,1598,1257.2z M1646.6,1231.8c0.2,0.2,0.5,0.2,0.6,0.4C1647.1,1232.1,1646.8,1232,1646.6,1231.8
		c-3.9-2.2-8.4-4.8-13.2-4c-13.7,3.3-27.6,2.5-41.5,3.3v-0.1c13.9-0.8,27.9-0.1,41.4-3.3C1638.2,1227,1642.5,1229.5,1646.6,1231.8z
		 M1663,1224.3c-1.6,0.7-3.1,1.6-4.7,2.4l0.1-0.1C1659.8,1225.6,1661.4,1224.9,1663,1224.3z M1650.2,1233.9
		c-0.3,0.7-1.4,3.4-1.3,4.8c-0.2-1.3,1-4.1,1.3-4.9c1.4,2.4,2.8,9.9,6.3,9.1c3-2.2,5.8-4.8,8.2-7.6c2.9-4.1,7.7-6.6,10.1-11.1
		c0,0,0.1,0,0.1,0.1c-0.9,1.6-1.8,3.1-3.2,4.2c-5.5,4.4-9.3,10.6-15.1,14.6C1653.1,1244.1,1651.6,1236.2,1650.2,1233.9z
		 M1653.6,1248.1c0-1-0.1-2-0.4-2.9C1653.6,1246.2,1653.7,1247.1,1653.6,1248.1z M1653.2,1245.1L1653.2,1245.1L1653.2,1245.1z
		 M1647.9,1270.7c4.4-1.2,8.3-3.3,9.7-5.2c0.2-0.6,0.4-1.2,0.4-1.9c0,0.7-0.1,1.3-0.4,2C1656.1,1268.1,1651.5,1269.6,1647.9,1270.7z
		 M1638.8,1274.6c0.7-0.2,1.5-0.2,2.2-0.3C1640.3,1274.4,1639.6,1274.5,1638.8,1274.6z M1637.6,1271.4c2.4,0.7,5.9,0.4,9.2-0.4
		c-0.5,0.2-1.1,0.3-1.6,0.4C1642.3,1272.3,1639.8,1272.2,1637.6,1271.4z M1631.1,1265.5c-1.2-1.4-1.5-3.1-1.8-4.4
		c0.6,2.1,1.7,5.4,5.5,8.5c0.1,0.1,0.2,0.2,0.3,0.3C1633.7,1268.9,1632.3,1267.4,1631.1,1265.5z M1624.7,1260
		c-0.9-0.2-1.7-0.3-2.5-0.5c1.2,0.2,2.3,0.3,3.4,0.2c0.2-0.2,0.4-0.5,0.6-0.2l0,0c-0.2-0.2-0.4,0-0.6,0.2l0,0
		C1625.4,1259.7,1625,1259.9,1624.7,1260L1624.7,1260z M1619.9,1258.9c-2.3-0.6-4.6-1.2-6.9-1.3
		C1615.2,1257.4,1617.6,1258.2,1619.9,1258.9z M1608,1256.6c0.2,0,0.3,0,0.4,0h0.1h-0.1c0.1,0,0.1,0,0.2,0c0.1-0.1,0.1-0.2,0.2-0.2
		c0,0-0.1,0.1-0.1,0.2c0.1,0,0.2,0.1,0.2,0.1C1608.7,1256.6,1608.4,1256.6,1608,1256.6z"/>
</g>
<g>
	<g>
		
			<radialGradient id="SVGID_1_" cx="3981.8845" cy="6597.8101" r="49.011" gradientTransform="matrix(-8.254457e-02 -0.9966 -0.9966 8.254457e-02 8551.3057 4340.0088)" gradientUnits="userSpaceOnUse">
			<stop  offset="2.066799e-05" style="stop-color:#F9F1E5"/>
			<stop  offset="1" style="stop-color:#CCBDA8"/>
		</radialGradient>
		<path class="st4" d="M1677.4,973.1c0,0-94.3,10.7-58.2-107.6c0,0,3.1-10.6,16.7-5.9c13.6,4.6,10.1,17.6,10.1,17.6
			s-21.7,28.2-3.8,50.8c17.9,22.6,28.3,24,37.9,22.1C1689.7,948,1689.6,974.3,1677.4,973.1z"/>
		
			<radialGradient id="SVGID_2_" cx="4035.3457" cy="6604.3662" r="19.4301" gradientTransform="matrix(-8.254457e-02 -0.9966 -0.9966 8.254457e-02 8551.3057 4340.0088)" gradientUnits="userSpaceOnUse">
			<stop  offset="2.066799e-05" style="stop-color:#F9F1E5"/>
			<stop  offset="1" style="stop-color:#CCBDA8"/>
		</radialGradient>
		<circle class="st5" cx="1636.2" cy="863.5" r="19.4"/>
	</g>
	<g>
		<g>
			<path class="st6" d="M1595.3,1136.1c-1.2-0.5-2.2-1.4-2.6-2.7c-0.4-1-0.8-2-1.1-3c-1.6-5.9-3.3-11.7-4.7-17.6
				c-1-4.1-1.9-8.4-2.7-12.6c-0.8-4.3-1.4-8.5-2-12.9c-0.3-2.2-0.5-4.4-0.6-6.7c-0.1-1.5,0.1-3,0-4.6c0-2.1,0.3-4.2,1.1-6.2
				c0.7-1.8,2.1-2,3.4-0.7c1.2,1.2,2.1,2.7,2.9,4.3c1.7,3.4,3,6.9,4,10.5c0.8,2.7,1.6,5.3,2.2,8c0.6,2.6,1.1,5.2,1.6,7.8
				c0.5,2.4,0.9,4.8,1.2,7.1c0.4,2.3,0.7,4.7,0.9,7c0.3,2.8,0.5,5.6,0.7,8.4c0.1,2.8,0.2,5.5,0.2,8.4c0,1.2-0.2,2.5-0.2,3.7
				c-0.1,0.7-0.5,1.2-1.2,1.4c-0.7,0.2-1.2,0.4-2,0.5C1596.1,1136.4,1595.7,1136.3,1595.3,1136.1z"/>
		</g>
		<g>
			<path class="st7" d="M1745.5,1180.9c-0.2,1-0.5,2-0.8,3c0,0.1-0.1,0.3-0.1,0.4c-0.2,0.5-0.5,1.2-0.8,1.7
				c-0.2,0.4-0.4,0.8-0.5,1.2c-0.1,0.2,0,0.4,0,0.5c0,0.1-0.1,0.3-0.1,0.4c-0.2,0.1-0.3,0.2-0.4,0.3c-0.4,1-0.8,2-1.1,3
				c0,0.2,0.1,0.4,0.1,0.6c0,0.1-0.1,0.3-0.1,0.4c-0.2,0.2-0.3,0.2-0.4,0.4c-0.2,0.5-0.5,1.2-0.8,1.6c-1.2,2.3-2.3,4.5-3.5,6.6
				c-2.7,4.6-5.9,8.7-9.8,12.2c-4.3,3.9-9.1,6.9-14.7,8.5c-4.4,1.3-8.9,2.2-13.5,1.2c-2.3-0.5-4.3-1.6-5.9-3.5
				c-1.7-2.3-2.3-4.9-2.3-7.6s0.5-5.4,1.2-8c0.6-2.2,1.5-4.2,2.7-6.1c0.9-1.2,2-2.3,2.9-3.6c1.2-1.6,2.1-3.4,2.7-5.3
				c0.5-1.4,1.1-2.6,2.2-3.5c0.4,0.8,0.9,1.6,1.2,2.4c0.1,0.2-0.2,0.5-0.4,0.5c-0.8,0.1-1.1,0.5-1.3,1.2c-0.9,2.6-2.3,4.8-4.1,6.9
				c-0.5,0.5-0.9,1.2-1.2,2c-0.5,1.2-0.9,2.3-1.2,3.5c-0.3,0.9-0.5,1.6-0.8,2.4c-0.7,2-0.4,3.8,0.1,5.8c0.2,0.9,0.5,1.9,0.9,2.8
				c1.6-0.9,3.1-1.8,4.2-3.2c2-2.6,4.4-4.8,6.9-6.9c2-1.7,3.8-3.7,5.6-5.6c0.8-0.8,1.3-1.7,2-2.6c0.4-0.5,0.3-1.3-0.2-1.7
				c-0.9-0.7-2-1.4-2.9-2c-0.5-0.3-0.9-0.5-1.5-0.8c-1.3-0.5-2.6-0.9-3.9-1.5c-0.2,0-0.4-0.2-0.6-0.3c0.2-0.2,0.3-0.3,0.5-0.3
				c1.2-0.3,2.6-0.7,3.8-0.9c0.6-0.2,1.2-0.2,1.3,0.7c0,0.2,0.2,0.3,0.4,0.4c1.6,1,3.2,2,4.7,3c0.7,0.5,1.6,0.5,2.4,0.6
				c1.6-0.1,3.3-0.2,4.8,0c1.2,0.1,2.4,0.6,3.6,1.2c1.7,0.9,3.6,1.7,5.2,2.7c1.6,0.9,3.2,0.8,4.8,0.2c0.9-0.3,1.6-0.9,2-1.9
				c1-2.4,2.1-4.9,3.1-7.3c0.4-1,0.5-2.2,0.7-3.3c0.2-1.3,0.4-2.7,0.6-4c0.5-2.5-0.4-4.6-2.1-6.3c-1.3-1.3-2.8-2.7-4.3-3.8
				c-0.8-0.6-1.7-1.1-2.7-1.4c-1.1-0.4-2.3-0.5-3.3-0.9c-0.1-0.1-0.3-0.3-0.3-0.5c0-0.3,0-0.5,0-0.9c0.1-0.4,0.3-0.8,0.4-1.2
				c0-0.2,0.1-0.5,0.1-0.7c0.1-0.3,0.2-0.6,0.3-0.9c0.5,0.1,1.1,0.2,1.6,0.3c0.7,0.2,1.5,0.3,2.2,0.5c0.2,0.1,0.5,0.2,0.6,0.2
				c0.7,0.3,1.5,0.5,2.2,0.9c0.9,0.8,1.8,1.5,2.7,2.3c0.1,0,0.2,0.1,0.2,0.1c0.3,0.4,0.6,0.7,0.9,1.1c0.2,0.1,0.2,0.2,0.4,0.3
				c0.4,0.3,0.7,0.8,1,1.1c0.1,0,0.2,0.1,0.2,0.1c0.5,0.8,1.1,1.5,1.7,2.2c0.1,0.2,0.2,0.4,0.2,0.5c0.2,1.2,0.5,2.4,0.7,3.7
				c-0.1,0.1-0.1,0.2-0.1,0.3C1745.9,1177.8,1745.7,1179.4,1745.5,1180.9z"/>
			<path class="st8" d="M1612.1,1077.5c0.3,1.6,0.5,3.1,0.9,4.8c0.2,1.2,0.5,2.3,0.8,3.4c0,0.2,0.2,0.5,0.3,0.6
				c0.8,0.4,0.7,1.2,0.8,2c0.2,1.4,0.2,2.9,0.7,4.3c0.6,1.8,1.6,3.5,2.7,5.1c0.7,1.2,1.7,2.3,2.5,3.5c0.5,0.8,1.3,1,2.2,1.1
				c0.5,0,0.9,0.2,1.1,0.6c0.5,0.9,1.2,1.2,2.2,0.8c0.2,0,0.5,0,0.7,0.1c0.5,0.1,0.9,0,0.9-0.5c0.5,0.8,0.3,1.6-0.2,2.3
				c-0.7,1.2-0.7,1.2,0.3,2c0.5,0.4,1,0.6,1.4,0.9c0.3,0.3,0.6,0.5,0.8,0.9c0.7,1.5,2,1.8,3.5,1.5c1.2-0.3,2.3-0.7,3.4-1.2
				c3.1-1.6,6.2-3.3,9.4-4.8c0.8-0.4,1.8-0.5,2.7-0.7c0.1,0,0.2,0.1,0.3,0.2c-2.7,0.5-5,1.8-7.2,3.2c-4.4,2.7-8.3,5.9-12.3,9
				c-4.4,3.4-8.7,6.8-13,10.1c-4,3-8.1,5.7-12.8,7.6c-0.5,0.2-1.1,0.5-1.6,0.7c-1.2,0.3-2.3,0.5-3.5,0.8c-0.6,0.2-1.2-0.3-1.1-0.9
				c0-0.8,0.1-1.5,0.1-2.3c0.2,0.2,0.5,0.5,0.8,0.7c0.5,0.5,1.2,0.7,2,0.5c2.4-0.5,4.5-1.5,6.7-2.5c3.3-1.6,6.2-3.4,9.1-5.5
				c1.8-1.3,3.4-2.6,5.1-4c1-0.9,1.7-2,1.8-3.3c0.1-1-0.1-2-0.7-2.9c-0.5-0.6-0.7-1.4-0.9-2.2c-0.9-2.6-1.7-5.2-3-7.6
				c-0.6-1.2-1.3-2.3-2-3.5c-0.3-0.5-0.5-1.2-0.9-1.7c-0.3-0.4-0.8-0.5-1.2-0.9c0-0.6-0.1-1.2-0.1-2c0-0.5,0-1-0.1-1.5
				c-0.2-0.6-0.3-1.2-0.6-1.8c-0.8-1.8-1.1-3.7-1.4-5.5c-0.5-2.4-1.1-4.8-1.7-7.1c-0.7-2.3-1.4-4.8-2.2-7c-0.9-3-2.1-5.9-3.9-8.5
				c-0.9-1.2-1.8-2.3-2.8-3.3c-1.2-1.2-2.9-1.1-4.5-0.8c-2,0.3-3.5,1.5-4.9,2.9c-1.7,1.8-3.2,3.7-4,6c-0.2,0.4-0.2,0.9-0.2,1.2
				c-0.5-0.5-0.9-0.9-1.4-1.3c-1-1.1-2.2-1.4-3.7-0.9c-0.2,0.1-0.4-0.1-0.5-0.1c0.2-0.4,0.3-0.9,0.5-1.2c0.1,0,0.2,0,0.2-0.1
				c1-1.5,2-3.1,3.2-4.5c1.6-2,3.6-3.7,6-4.6c1.3-0.5,2.8-0.8,4.3-0.6c1.3,0.2,2.5,0.7,3.6,1.3c2.1,1.2,4.1,2.7,5.4,4.8
				c1.1,1.9,2.4,3.7,3.4,5.7c1.1,2.1,2,4.3,3,6.5C1611.7,1077.1,1611.9,1077.5,1612.1,1077.5z"/>
			<path class="st9" d="M1612.3,1077.5c0.7,2.1,1.4,4.2,2,6.3c0.3,0.8,0.5,1.6,0.6,2.6c0.3-0.4,0.5-0.7,0.7-1
				c0.3-0.3,0.5-0.6,0.7-0.9c2.9-3.4,6.5-5.9,10.4-7.8c1.7-0.9,3.6-1.6,5.5-2.1c7.2-2.3,14.5-3.2,22-2.7c0.9,0.1,1.7,0.1,2.6,0.2
				c0.1,0,0.2,0.1,0.3,0.1c0.9,2.5,2,4.8,3,7.3c0.6,1.5,1.2,3,2,4.5c1.3,3.1,2.6,6.2,3.8,9.4c0.5,1.2,0.9,2.4,1.4,3.6
				c-0.2,0.4-0.2,0.6,0.3,0.7c0.1,0.3,0.2,0.5,0.3,0.9c-0.2,0.5-0.2,1,0.5,1.2c0.1,0.2,0.2,0.5,0.2,0.7c-0.5-0.5-1.1-0.9-1.4-1.6
				c-0.3-0.4-0.5-0.8-1-0.9c-0.5,0-1-0.3-1.6-0.5c-0.3-0.5-0.5-0.9-0.9-1.3c1.1-0.7,1.2-1.2,0.6-3c-0.5-2-1.2-3.7-2-5.6
				c-0.3-0.7-0.8-1.4-1.1-2.1c-0.9-2-1.8-4.1-2.7-6c-0.9-1.7-1.8-3.3-3.4-4.2c-1.9-1-3.8-1.5-5.9-1.6c-5.7-0.3-11.2,0.5-16.6,2.2
				c-1.3,0.4-2.8,0.7-4,1.4c-2.2,1.2-4.3,2.5-6.4,3.9c-1.2,0.9-2.3,2-3.4,2.9c-0.3,0.2-0.8,0.2-1.2,0.3c-0.1-0.1-0.1-0.1-0.2-0.2
				c-0.1,0.5-0.2,0.9-0.2,1.3c0,0.5,0,1,0.1,1.6c0,0.6,0.2,1.1,0.7,1.5c0.5,0.4,0.9,1,0.9,1.7c-0.1,2.3,0.9,4,2.4,5.6
				c1.5,1.7,2.9,3.4,4.8,4.7c0.5,0.5,1.2,0.6,2,1c0.5,0.4,1.1,0.8,1.6,1.2c-0.3,0.2-0.5,0.2-0.9,0.3c-0.4,0.2-0.7,0.3-1,0.4
				c-0.1,0.5-0.5,0.7-0.9,0.5c-0.2-0.1-0.5-0.2-0.7-0.1c-1,0.4-1.6,0.2-2.2-0.8c-0.2-0.4-0.5-0.6-1.1-0.6c-0.8-0.1-1.6-0.4-2.2-1.1
				c-0.9-1.2-1.8-2.3-2.5-3.5c-0.9-1.6-2-3.4-2.7-5.1c-0.5-1.3-0.5-2.8-0.7-4.3c-0.2-0.7,0-1.5-0.8-2c-0.2-0.1-0.2-0.4-0.3-0.6
				c-0.3-1.2-0.5-2.3-0.8-3.4c-0.3-1.6-0.5-3.1-0.9-4.8c-0.1-0.2-0.2-0.5,0.2-0.5C1612.3,1077.2,1612.3,1077.4,1612.3,1077.5z"/>
			<path class="st10" d="M1746.6,1176.9c-0.2,0.5-0.2,0.9-0.3,1.3c0,0.2,0.2,0.4,0.2,0.5c-0.6,1.7-1.2,3.4-1.9,5.1
				c0.2-1,0.6-2,0.8-3c0.3-1.6,0.5-3.2,0.7-4.8C1746.5,1176.2,1746.7,1176.5,1746.6,1176.9z"/>
			<path class="st10" d="M1741.6,1192c0-0.2-0.2-0.5-0.1-0.6c0.3-1,0.7-2,1.1-3c0.1-0.2,0.2-0.2,0.4-0.3
				C1742.6,1189.4,1742.1,1190.7,1741.6,1192z"/>
			<path class="st10" d="M1743.8,1186.1c-0.2,0.6-0.4,1.2-0.6,1.7c0-0.2-0.1-0.4,0-0.5C1743.3,1186.9,1743.5,1186.5,1743.8,1186.1
				C1743.7,1186.1,1743.7,1186.2,1743.8,1186.1z"/>
			<path class="st10" d="M1744.4,1184.3c-0.2,0.6-0.5,1.2-0.7,1.8c-0.1,0-0.1,0-0.1,0C1743.9,1185.5,1744.2,1184.9,1744.4,1184.3z"
				/>
			<path class="st11" d="M1699.4,1178.3c-0.7-1.7-1.6-3.4-2.3-5.1c-0.7-1.6-1.3-3.2-2-4.8c-1.2-3-2.4-6-3.7-9.1
				c-0.9-2.3-1.8-4.8-2.1-7.3c-0.5-3.9-0.9-7.7-0.9-11.7c0.1-4.8,0.5-9.7,1.1-14.6c0.5-3.4,1.1-6.6,1.6-9.9c0.1,0,0.1,0,0.1,0.1
				c0.7,1.4,1.6,1.7,3.1,1.5c2.3-0.3,4.4-0.5,6.6-0.2c0.5,0.2,0.9,0.2,1.4,0.4c0.8,0.2,1,0.6,0.9,1.5c-0.3,3-0.7,5.9-0.9,9
				c-0.2,3.4-0.2,6.6-0.4,10c-0.2,3.3-0.2,6.6-0.3,9.8c-0.1,1.9-0.1,3.7-0.2,5.6c-0.2,3.1-0.5,6.2-0.8,9.3c-0.2,1.3-0.6,2.6-0.9,3.8
				c-0.3,1.5-0.6,3-0.8,4.6c-0.1,1-0.2,2.2,0,3.2c0.2,1.5,0.5,3,1.2,4.4c0.8,2,1.9,3.8,3,5.7c0.9,1.6,3,2.6,4.9,2.1
				c1.5-0.4,3-0.9,4.5-1.5c0.6-0.2,1-0.1,1.6,0.2c1.6,0.6,3.2,0.9,4.8,1.6c1.6,0.8,3.4,0.8,5.1,1.2c1.3,0.3,2.5,0.9,3.7,1.8
				c1.2,0.9,2.7,1.6,4,2.3c0.9,0.5,2,1,3,1.4c0.4,0.2,0.9,0.2,1.2,0.2c0.5,0,0.9-0.3,1.2-0.9c0.6-1.5,1.4-2.9,2-4.4
				c0.5-1.1,0.8-2.2,1-3.4c0.2-1.3,0.3-2.7,0.5-4.1c0.2-1.6-0.2-2.9-1.1-4.1c-1.6-2.3-3.6-4.3-6-5.7c-1.2-0.7-2.7-1.1-4.1-1.1
				c-0.3,0-0.5,0-1-0.1c0.3-0.9,0.6-1.7,0.9-2.5c0.3-0.7,0.6-1.3,0.9-2c0-0.1,0.2-0.2,0.2-0.2c-0.1,0.3-0.1,0.5,0,0.9
				c0,0.2,0.2,0.5,0.3,0.5c1.1,0.3,2.3,0.5,3.3,0.9c0.9,0.4,2,0.8,2.7,1.4c1.5,1.2,3,2.5,4.3,3.8c1.7,1.7,2.5,3.8,2.1,6.3
				c-0.2,1.3-0.3,2.7-0.6,4c-0.2,1.1-0.3,2.2-0.7,3.3c-0.9,2.4-2.1,4.9-3.1,7.3c-0.4,1-1.1,1.5-2,1.9c-1.6,0.5-3.2,0.6-4.8-0.2
				c-1.7-0.9-3.5-1.7-5.2-2.7c-1.1-0.5-2.3-1.1-3.6-1.2c-1.6-0.1-3.3,0-4.8,0c-0.9,0-1.6-0.1-2.4-0.6c-1.5-1-3.1-2-4.7-3
				c-0.2-0.2-0.4-0.2-0.4-0.4c-0.2-0.9-0.8-0.8-1.3-0.7c-1.3,0.3-2.6,0.6-3.8,0.9c-0.2,0.1-0.2,0.2-0.5,0.3c0.3,0.2,0.5,0.2,0.6,0.3
				c1.3,0.5,2.6,0.9,3.9,1.5c0.5,0.2,1,0.5,1.5,0.8c1,0.7,2,1.4,2.9,2c0.5,0.4,0.5,1.2,0.2,1.7c-0.6,0.9-1.2,1.8-2,2.6
				c-1.8,2-3.6,4-5.6,5.6c-2.5,2.1-4.9,4.4-6.9,6.9c-1.2,1.5-2.7,2.3-4.2,3.2c-0.3-0.9-0.5-2-0.9-2.8c-0.5-1.9-0.8-3.8-0.1-5.8
				c0.3-0.9,0.5-1.6,0.8-2.4c0.4-1.2,0.8-2.3,1.2-3.5c0.3-0.7,0.7-1.4,1.2-2c1.8-2.1,3.2-4.3,4.1-6.9c0.2-0.7,0.5-1.1,1.3-1.2
				c0.2,0,0.5-0.5,0.4-0.5c-0.4-0.8-0.8-1.6-1.2-2.4C1701.4,1183,1700.5,1180.6,1699.4,1178.3z M1701.9,1203.4c1-1,2.1-2,3-3
				c2.2-2.3,4.4-4.6,6.6-6.9c0.5-0.5,0.4-1-0.1-1.4c-0.9-0.9-1.9-1.6-3-2c-1.1-0.3-2.2-0.7-3.3-1c-0.6-0.2-1,0-1.2,0.6
				c-0.9,2.5-2.3,4.8-3.7,7.1c-0.3,0.5-0.4,1.3-0.4,2c-0.1,1.5,0.1,3,0,4.6c0,0.5-0.3,1.1-0.4,1.6c0,0.2-0.1,0.4-0.2,0.6
				c0.1,0.1,0.2,0.1,0.2,0.2C1700.3,1205,1701.1,1204.3,1701.9,1203.4z"/>
			<path class="st9" d="M1611.9,1100.4c-1.8,0.8-3.6,1.5-5.3,2.3c-1.9,1-3.7,2.2-5.6,3.3c-0.5,0.4-1.1,0.8-1.6,1.2
				c-0.5,0.3-0.9,0.6-1.4,0.9c-0.5,0.4-0.9,0.9-1.4,1.2c-0.2,0.2-0.5,0.2-0.9,0.2c-0.1-0.8-0.2-1.6-0.2-2.3
				c-0.9-7.9-1.8-15.8-3.5-23.6c-0.7-3.2-1.5-6.4-3-9.4c-0.3-0.6-0.7-1.2-1-1.9c0.1-0.4,0.1-0.9,0.2-1.2c0.9-2.3,2.3-4.3,4-6
				c1.3-1.3,2.9-2.6,4.9-2.9c1.6-0.3,3.3-0.5,4.5,0.8c1.1,1,2,2.2,2.8,3.3c1.8,2.6,3,5.5,3.9,8.5c0.8,2.3,1.6,4.7,2.2,7
				c0.6,2.3,1.2,4.7,1.7,7.1c0.4,1.9,0.6,3.7,1.4,5.5c0.2,0.6,0.5,1.2,0.6,1.8c0.1,0.5,0.1,1,0.1,1.5c0,0.6,0.1,1.2,0.1,2
				C1613.7,1100,1612.7,1100.2,1611.9,1100.4z"/>
			<path class="st12" d="M1691.4,1115.5c0.6-3.3,0.9-6.6,2.5-9.7c1.2-2.1,2.7-3.9,4.8-5.1c2.7-1.4,5.8-1.6,8.8-1.3
				c1.8,0.2,3.6,0.6,5.3,1c1.5,0.4,3,0.9,4.4,1.4c1.2,0.4,2.3,1,3.4,1.5c1.6,0.8,3.4,1.4,5,2.3c2.3,1.2,4.7,2.7,6.9,4
				c2.1,1.3,4.2,2.8,6.3,4.1c0.4,0.3,0.6,0.5,0.4,1.1c-0.5,1-0.9,2-1.2,3c-0.4,1-0.9,2.1-1.3,3.1c-0.8,1.7-1.6,3.5-2.3,5.2
				c-0.5,1.1-1,2.2-1.6,3.2c-0.6,1.3-1.2,2.5-1.9,3.7c-0.3,0.4-0.5,0.9-0.8,1.3s-0.5,0.9-0.8,1.3c-0.2,0.2-0.2,0.5-0.4,0.8
				c-0.3,1-0.6,2-0.9,3c0,0.1-0.1,0.2-0.1,0.3c0-0.3-0.1-0.6-0.1-0.9c0-0.2-0.1-0.4-0.1-0.5c0.1-0.2,0.1-0.3,0.2-0.5
				c0.2-0.2,0.6-0.5,0.2-0.9c0.1-0.3,0.2-0.6,0.3-0.9c0.2-0.4,0.5-0.7,0.8-1.2c1.1-2.1,2.3-4.1,3.4-6.2c0.7-1.3,1.2-2.7,1.9-4.1
				c0.4-0.8,0.8-1.6,1-2.4c0.5-1.7,1-3.4,1.5-5.1c0.1-0.3,0.2-0.5,0.3-0.8c0.2-0.6,0.1-1.2-0.2-1.7c-1.5-2.8-4.1-4.4-6.6-6
				c-1.7-1-3.4-2-5.1-3c-0.9-0.5-1.7-0.9-2.6-1.2c-2.7-1.1-5.4-2.3-8.1-3.3c-2.3-0.8-4.8-1.4-7.3-1.6c-1.3-0.1-2.7,0.2-4,0.2
				c-2.8,0.2-5.1,1.2-7,3.4c-1.7,2-2.8,4.1-3.4,6.6c-0.2,0.7-0.2,1.4-0.3,2.1c0,0.1-0.1,0.2-0.1,0.3c0,0.2-0.1,0.4-0.1,0.5
				c0,0.1-0.1,0.3-0.1,0.4c-0.1,0.3-0.2,0.5-0.2,0.9c-0.4,1.6,0.5,2.7,2.3,2.6c1.7,0,3.4-0.1,5.1-0.1c1.4,0.1,2.8,0.2,4.1,0.9
				c0.9,0.5,1.4,1.4,1.2,2.4c-0.4,3-0.8,6.2-0.9,9.3c-0.2,6.1-0.2,12.2-0.3,18.3c0,4.4,0,8.8-0.1,13.2c0,2.3-0.5,4.5-1,6.8
				c-0.5,2-0.9,4.1-1,6c-0.2,1.9,0.1,3.8,1,5.5c2,3.7,5.1,5.8,9.8,4.8c3-0.6,5.5-2.3,7.9-4.1c2.3-2,4.4-4.2,6-6.8
				c1.2-1.8,2-3.7,3-5.5c0.9-1.6,1.2-3.4,1.7-5.2c0.1-0.3-0.2-0.6-0.2-0.9c-0.2-0.8-0.3-1.6-0.5-2.4c-0.2-0.9-0.4-1.8-0.5-2.7
				c-0.1-0.2-0.3-0.5-0.4-0.6c-0.2-0.9-0.3-1.9-0.5-2.8c-0.1-1.2-0.2-2.4-0.4-3.7c-0.1-0.9-0.2-1.6-0.3-2.5c-0.1,0,0.1-0.1,0.2-0.1
				c0.1,0.6,0.2,1.2,0.3,1.7c0.1,0.4,0.1,0.8,0.2,1.1c0.1,0.2,0.1,0.2,0.2,0.4c0,0.4-0.2,0.9,0.3,1.2c-0.1,0-0.1,0-0.1,0.1
				c0,0.3-0.1,0.6,0,0.9c0.8,3.4,1.6,6.7,2.3,10.1c0,0.2,0.1,0.5,0.2,0.7c-0.1,0.3-0.2,0.6-0.3,0.9c-0.2,0.2-0.5,0.4-0.1,0.7
				c-0.1,0.4-0.3,0.8-0.4,1.2c-0.1,0.1-0.2,0.2-0.2,0.2c-0.3,0.6-0.6,1.3-0.9,2c-0.3,0.9-0.6,1.6-0.9,2.5c0.5,0,0.8,0.1,1,0.1
				c1.5,0.1,2.8,0.4,4.1,1.1c2.4,1.4,4.4,3.4,6,5.7c0.8,1.2,1.2,2.6,1.1,4.1c-0.2,1.3-0.3,2.7-0.5,4.1c-0.2,1.1-0.5,2.3-1,3.4
				c-0.6,1.5-1.4,2.9-2,4.4c-0.2,0.6-0.5,0.9-1.2,0.9c-0.4,0-0.9,0-1.2-0.2c-1-0.5-2-0.9-3-1.4c-1.3-0.7-2.7-1.4-4-2.3
				c-1.2-0.8-2.3-1.4-3.7-1.8c-1.6-0.4-3.4-0.5-5.1-1.2c-1.5-0.7-3.2-1.1-4.8-1.6c-0.5-0.2-1-0.3-1.6-0.2c-1.5,0.5-3,1-4.5,1.5
				c-1.8,0.5-4-0.5-4.9-2.1c-1-1.9-2.1-3.7-3-5.7c-0.5-1.3-0.9-2.9-1.2-4.4c-0.2-1-0.2-2.2,0-3.2c0.2-1.6,0.5-3.1,0.8-4.6
				c0.2-1.3,0.7-2.6,0.9-3.8c0.4-3.1,0.6-6.2,0.8-9.3c0.1-1.9,0.1-3.7,0.2-5.6c0.1-3.3,0.2-6.6,0.3-9.8c0.1-3.4,0.2-6.7,0.4-10
				c0.2-3,0.6-6,0.9-9c0.2-0.9-0.1-1.2-0.9-1.5c-0.5-0.2-0.9-0.3-1.4-0.4c-2.3-0.4-4.4-0.2-6.6,0.2c-1.6,0.2-2.4-0.2-3.1-1.5
				c0-0.1-0.1-0.1-0.1-0.1C1691.4,1115.7,1691.4,1115.6,1691.4,1115.5z M1725.7,1176c-0.7,0.2-1.4,1-2,1.6c-1.4,1.3-2.8,2.6-4.2,3.9
				c-0.2,0.2-0.5,0.4-0.8,0.6c-0.2,0.2-0.2,0.4-0.3,0.6c0.2,0,0.4,0.2,0.5,0.2c2.1,0,4.1,0.7,6.2,1.2c1.6,0.4,2.5,1.6,3.2,2.9
				c0.8,1.5,2,2.6,3.6,3.3c0.9,0.4,1.7,0.9,2.6,1.4c0.5,0.3,0.6,0.2,0.8-0.3c0.3-2.6,1.1-5.1,2-7.5c0.2-0.3,0.2-0.6,0.4-0.9
				c0.3-0.8-0.2-1.3-0.5-1.9c-1.1-2.3-2.8-3.8-5.3-4.8C1729.8,1175.6,1727.7,1175.5,1725.7,1176z"/>
			<path class="st13" d="M1597.4,1120c0.2-0.7,0.2-1.6,0.3-2.3c0.2-0.7,0.4-1.4,0.7-2.1c0.4-0.9,0.9-1.6,1.5-2.3
				c1.4-2,3-3.6,4.8-5.1c2.7-2.1,5.5-4,8.7-5.3c1-0.4,1.9-0.4,2.5,0.5c0.7,1,1.5,2,2.1,3.1c1.4,2.4,2,5.1,2.9,7.8
				c0.2,0.5,0.3,1.2,0.5,1.7c0.5,1.6,0.1,3.2-0.5,4.7c-0.1,0.3-0.3,0.5-0.5,0.7c-3,2-6.1,4.1-9.1,6.1c-2,1.2-4.1,1.7-6.3,2.2
				c-1.1,0.2-2.3,0.3-3.4,0.4c-0.6,0.1-1.1-0.2-1.3-0.9c-0.9-2.2-1.8-4.4-2.7-6.6c-0.1-0.2-0.4-0.3-0.5-0.5c0-0.4-0.1-0.8-0.1-1.2
				C1597,1120.5,1597.3,1120.3,1597.4,1120z M1603,1116.9c-0.2,0.7-0.2,1.3,0.3,2c1,1.3,2.2,2.4,3.6,3.2c0.9,0.5,2,1,3,1.2
				c0.7,0.2,1.6-0.1,2.3-0.3c1.5-0.8,3-1.6,4.4-2.5c0.6-0.4,1.2-0.9,1.9-1.2c1.3-0.5,1.6-1.9,1.4-3c-0.5-2.4-1.1-4.8-1.8-7.2
				c-0.3-1.2-1-2.3-1.6-3.4c-0.4-0.7-1.6-0.9-2.3-0.5c-2.4,1.7-5,3.4-7.3,5.1c-1.2,0.8-1.9,2-2.4,3.2c-0.4,0.9-0.9,1.9-1.2,2.7
				c-0.1,0,0,0,0,0C1603,1116.6,1603,1116.7,1603,1116.9z"/>
			<path class="st14" d="M1595.6,1109.5c0.3-0.1,0.6-0.1,0.9-0.2c0.5-0.4,0.9-0.8,1.4-1.2c0.5-0.3,0.9-0.6,1.4-0.9
				c0.5-0.4,1-0.9,1.6-1.2c1.9-1.1,3.7-2.3,5.6-3.3c1.7-0.9,3.5-1.6,5.3-2.3c0.8-0.3,1.6-0.5,2.5-0.8c0.4,0.3,0.9,0.5,1.2,0.9
				c0.5,0.5,0.6,1.2,0.9,1.7c0.6,1.2,1.3,2.3,2,3.5c1.3,2.4,2.1,5.1,3,7.6c0.2,0.7,0.5,1.5,0.9,2.2c0.7,0.9,0.8,1.9,0.7,2.9
				c0,1.4-0.8,2.5-1.8,3.3c-1.6,1.4-3.4,2.7-5.1,4c-2.9,2.1-5.9,4.1-9.1,5.5c-2.2,1-4.4,2-6.7,2.5c-0.8,0.2-1.5,0-2-0.5
				c-0.2-0.2-0.5-0.5-0.8-0.7c0-0.2-0.1-0.4-0.1-0.6c-0.1-1.7-0.2-3.4-0.3-5.1c-0.1-1.6-0.2-3.3-0.2-4.9c0.2,0.2,0.4,0.4,0.5,0.5
				c0.9,2.2,1.9,4.4,2.7,6.6c0.2,0.6,0.7,0.9,1.3,0.9c1.1-0.2,2.3-0.2,3.4-0.4c2.2-0.5,4.4-1,6.3-2.2c3-2,6.1-4.1,9.1-6.1
				c0.2-0.2,0.5-0.4,0.5-0.7c0.7-1.5,1-3,0.5-4.7c-0.2-0.5-0.3-1.2-0.5-1.7c-0.8-2.6-1.5-5.4-2.9-7.8c-0.6-1.1-1.3-2.1-2.1-3.1
				c-0.7-0.9-1.6-0.9-2.5-0.5c-3.1,1.4-6,3.2-8.7,5.3c-1.9,1.5-3.5,3.1-4.8,5.1c-0.5,0.8-1,1.6-1.5,2.3c-0.3,0.6-0.5,1.4-0.7,2.1
				c-0.2,0.7-0.2,1.6-0.3,2.3c-0.1,0.3-0.3,0.6-0.5,0.9C1596.5,1117,1596.2,1113.3,1595.6,1109.5z"/>
			<path class="st15" d="M1668.9,1101.2c0.6,1.4,1.1,2.9,1.7,4.4c0.7,1.7,1.5,3.4,2.2,5.1c0.2,0.5,0.5,1.2,0.7,1.9
				c-0.3-0.1-0.5-0.2-0.7-0.3c-2.1-0.9-4.2-1.7-6.4-2.5c-4.3-1.6-8.6-3.1-13-4.6c-1.4-0.5-2.8-1.1-4.4-0.9c-0.1-0.1-0.2-0.2-0.3-0.2
				c-0.9,0.2-1.9,0.3-2.7,0.7c-3.1,1.6-6.2,3.3-9.4,4.8c-1.1,0.6-2.3,1-3.4,1.2c-1.4,0.3-2.7,0.1-3.5-1.5c-0.2-0.4-0.5-0.6-0.8-0.9
				c-0.5-0.4-0.9-0.6-1.4-0.9c-1-0.9-1-0.9-0.3-2c0.5-0.7,0.7-1.5,0.2-2.3c0.4-0.2,0.7-0.3,1-0.4c0.3-0.2,0.5-0.2,0.9-0.3
				c0.9,0.5,2,0.3,3,0.2c-0.2,0.5-0.5,0.9-0.7,1.5c-0.5,1.1-0.5,1.6,0.5,2.2c1.1,0.5,2.2,1.2,3.6,1.3c1.6,0.2,3-0.5,4.4-1.2
				c2.2-1.1,4.2-2.3,6.6-2.7c1.2-0.2,2.3,0,3.6,0.2c0.9,0.2,2,0.4,2.9,0.6c1.2,0.2,2.3,0.5,3.4,0.8c1.6,0.4,3,0.8,4.6,1
				c1.1,0.2,2.1,0.5,3.2,0.5c1.3,0,1.8-0.5,1.4-1.7c-0.5-1.3-1-2.6-1.4-3.9c-0.3-1.2-1-1.9-2-2.6c0.4-0.3,0.8-0.5,1.2-0.8
				c0.2-0.2,0.4-0.3,0.6-0.5c0.5,0.2,1,0.5,1.6,0.5s0.7,0.5,1,0.9c0.5,0.6,0.9,1,1.4,1.6C1668.6,1100.6,1668.8,1100.9,1668.9,1101.2
				z"/>
			<path class="st10" d="M1729.3,1151.7c0.5,2,0.9,4,1.3,6c0.4,1.4,0.8,2.8,1.2,4.3c0.1,0.4,0.2,0.5,0.6,0.5c0.2,0,0.5,0.4,0.7,0.5
				c-0.5-0.1-1.1-0.2-1.6-0.3c0-0.2-0.1-0.5-0.2-0.7c-0.8-3.4-1.6-6.7-2.3-10.1c-0.1-0.3,0-0.6,0-0.9
				C1729.1,1151.3,1729.3,1151.4,1729.3,1151.7z"/>
			<path class="st16" d="M1728,1141.1c0,0.2,0,0.4,0,0.5c0,0.3,0,0.7,0,1c0,0.1,0,0.1,0,0.1c0,0.8,0,1.7,0.1,2.5c0,0.1,0,0.3,0,0.4
				s-0.1,0.2-0.1,0.2c-0.1-0.1-0.3-0.1-0.2-0.2c-0.2-2.4-0.4-4.8,0.2-7.2c0,0.2,0.1,0.4,0.1,0.5c0,0.3,0.1,0.6,0.1,0.9
				C1728,1140.3,1728,1140.6,1728,1141.1z"/>
			<path class="st10" d="M1728.6,1146.4c0.2,0.7,0.2,1.5,0.2,2.2c0,0.3-0.2,0.6-0.3,0.9c-0.1-0.4-0.1-0.8-0.2-1.1
				c-0.1-0.6-0.2-1.2-0.3-1.7c0-0.1,0-0.1,0-0.1c0-0.2,0-0.3,0-0.5c-0.1-0.1-0.1-0.2-0.1-0.2c0-0.1,0.1-0.2,0.1-0.2
				C1728.3,1145.9,1728.6,1146.1,1728.6,1146.4z"/>
			<path class="st10" d="M1746.3,1173.3c0,0.5,0.2,1.1,0.2,1.6c0.2,0.5,0.1,0.8-0.3,1c-0.2-1.2-0.5-2.4-0.7-3.7
				C1746,1172.4,1746.3,1172.7,1746.3,1173.3z"/>
			<path class="st10" d="M1738.7,1164.7c0.7,0.5,1.3,0.9,2,1.5c0.2,0.1,0.1,0.5,0.1,0.7c-0.9-0.8-1.8-1.5-2.7-2.3
				C1738.3,1164.6,1738.5,1164.6,1738.7,1164.7z"/>
			<path class="st10" d="M1744.1,1169.5c0.4,0.3,0.6,0.7,0.9,1.1c0.2,0.4,0.5,0.8,0.2,1.2c-0.5-0.8-1.1-1.5-1.7-2.2
				C1743.7,1169.5,1744,1169.5,1744.1,1169.5z"/>
			<path class="st10" d="M1728.1,1145.2c0-0.8,0-1.7-0.1-2.5C1728.6,1143.1,1728.7,1144.5,1728.1,1145.2z"/>
			<path class="st10" d="M1743.3,1169.4c-0.4-0.3-0.7-0.8-1-1.1C1743,1168.1,1743.6,1168.6,1743.3,1169.4z"/>
			<path class="st10" d="M1741.6,1167c0.3,0.2,0.5,0.5,0.3,1c-0.3-0.4-0.6-0.7-0.9-1.1C1741.1,1167,1741.5,1167,1741.6,1167z"/>
			<path class="st10" d="M1730.1,1134.7c0.3-0.4,0.5-0.9,0.8-1.3C1731.2,1133.8,1730.8,1134.6,1730.1,1134.7z"/>
			<path class="st10" d="M1728.2,1139.7c0.5,0.4,0.4,1-0.2,1.2c0-0.3,0-0.6,0-1C1728.1,1139.9,1728.1,1139.8,1728.2,1139.7z"/>
			<path class="st10" d="M1729.1,1151c-0.5-0.2-0.3-0.8-0.3-1.2C1729.4,1150,1729.2,1150.5,1729.1,1151z"/>
			<path class="st15" d="M1668.2,1099.6c-0.7-0.2-0.7-0.6-0.5-1.2C1667.9,1098.9,1668,1099.2,1668.2,1099.6z"/>
			<path class="st10" d="M1729.7,1136.4c-0.2,0.1-0.5,0.2-0.6,0.3c0.2-0.2,0.2-0.5,0.4-0.8
				C1729.5,1136.1,1729.6,1136.2,1729.7,1136.4z"/>
			<path class="st10" d="M1728,1142.5c0-0.3,0-0.7,0-1C1728.6,1141.8,1728.4,1142.2,1728,1142.5z"/>
			<path class="st10" d="M1735.8,1163.3c0,0.2,0.2,0.3,0.2,0.5c-0.2-0.1-0.5-0.2-0.6-0.2C1735.4,1163.5,1735.5,1163.5,1735.8,1163.3
				z"/>
			<path class="st15" d="M1667.5,1097.6c-0.4-0.1-0.5-0.3-0.3-0.7C1667.3,1097.2,1667.3,1097.4,1667.5,1097.6z"/>
			<path class="st11" d="M1731,1164.3c-0.4-0.3-0.2-0.5,0.1-0.7C1731.1,1163.9,1731,1164.2,1731,1164.3z"/>
			<path class="st17" d="M1660.9,1096c0.2-0.2,0.4-0.3,0.5-0.3c1.3-0.2,1.9-1,1.7-2.3c-0.2-1.1-0.6-2.1-0.9-3.2
				c-0.2-0.5-0.3-1-0.5-1.6c-0.5-1.1-1.1-2.1-1.6-3.2c-0.9-1.7-1.8-3.4-2.7-5c-0.9-1.7-2.1-3.1-3.7-4.1c-1.9-1.2-3.9-1.6-6.1-1.7
				c-5.9-0.5-11.6,0.5-17.2,2.5c-2.2,0.9-4.3,2.1-6.3,3.4c-1.5,0.9-2.9,2-4.2,3.2c-1.6,1.4-1.6,1.5-0.7,3.4c0.9,1.7,1.4,3.6,1.8,5.5
				c0.2,1.1,0.9,1.9,1.5,2.7c1.2,1.5,2.3,3,3.8,4.1c0.6,0.5,1.3,0.9,2,1.2c-0.2,0.2-0.5,0.5-0.8,0.9c-0.6-0.3-1.4-0.5-2-1
				c-1.8-1.3-3.3-3-4.8-4.7c-1.4-1.6-2.4-3.4-2.4-5.6c0-0.7-0.3-1.2-0.9-1.7c-0.5-0.4-0.7-0.9-0.7-1.5c0-0.5-0.1-1-0.1-1.6
				c0-0.5,0.2-0.9,0.2-1.3c0.1,0.1,0.1,0.1,0.2,0.2c0.4-0.1,0.9-0.1,1.2-0.3c1.2-0.9,2.2-2,3.4-2.9c2-1.3,4.1-2.7,6.4-3.9
				c1.2-0.6,2.7-1,4-1.4c5.4-1.7,11-2.6,16.6-2.2c2.1,0.2,4.1,0.6,5.9,1.6c1.7,0.9,2.7,2.6,3.4,4.2c1,2,1.8,4.1,2.7,6
				c0.4,0.7,0.8,1.3,1.1,2.1c0.7,1.9,1.5,3.7,2,5.6c0.5,1.9,0.5,2.3-0.6,3C1662.7,1096,1661.8,1096,1660.9,1096z"/>
			<path class="st18" d="M1630,1100.2c0.5,0,0.9,0.2,1.2,0c1.1-0.5,2.1-1.1,3.1-1.6c0.7-0.2,1.2-0.3,1.9-0.5
				c1.7-0.6,3.5-1.2,5.4-1.3c1.9-0.2,3.7-0.5,5.6-0.6c2.7-0.1,5.4-0.1,8.1-0.1c1,0,2.1-0.1,3.1-0.2c0.1,0,0.2,0.1,0.3,0.1
				c-0.4,0.6-0.5,1.3-0.4,2c-0.2,0.1-0.4,0.1-0.7,0.2c-0.8-0.7-1.8-0.5-2.7-0.6c-2.7-0.2-5.5-0.3-8.3-0.2c-2.1,0.1-4.1,0.5-6.2,1
				c-0.9,0.2-1.8,1-2.8,1.6c-0.2,0-0.4,0-0.5,0.1c-1.2,0.8-2.3,1.5-3.5,2.2c-0.5,0.3-1,0.4-1.6,0.6c-1,0.1-2,0.2-3-0.2
				c-0.5-0.4-1.1-0.8-1.6-1.2c0.2-0.2,0.5-0.5,0.8-0.9C1629,1100.4,1629.6,1100.3,1630,1100.2z"/>
			<path class="st14" d="M1660.9,1095.8c0.9,0.1,1.7,0.2,2.6,0.2c0.3,0.5,0.5,0.9,0.9,1.3c-0.2,0.2-0.4,0.4-0.6,0.5
				c-0.3,0.3-0.8,0.5-1.2,0.8c-0.9-0.2-2-0.3-2.9-0.5c-0.4-0.1-0.9-0.2-1.2-0.4c-0.2-0.7,0-1.4,0.4-2
				C1659.6,1095.9,1660.2,1095.8,1660.9,1095.8z"/>
			<path class="st12" d="M1699.2,1205.7c0-0.2,0.1-0.4,0.2-0.6c0.2-0.5,0.4-1,0.4-1.6c0.1-1.5-0.1-3,0-4.6c0.1-0.7,0.1-1.5,0.4-2
				c1.4-2.3,2.7-4.6,3.7-7.1c0.2-0.6,0.6-0.9,1.2-0.6c1.1,0.3,2.2,0.7,3.3,1c1.2,0.4,2.1,1.2,3,2c0.5,0.4,0.5,0.9,0.1,1.4
				c-2.2,2.3-4.4,4.6-6.6,6.9c-1,1-2,2-3,3c-0.8,0.8-1.6,1.6-2.4,2.3C1699.4,1205.8,1699.3,1205.7,1699.2,1205.7z"/>
			<path class="st19" d="M1727.9,1146.8c0.1,0.9,0.2,1.6,0.3,2.5c0.1,1.2,0.2,2.4,0.4,3.7c0,0.6,0.1,1.2,0.1,1.8
				c-0.1-0.5-0.4-0.9-0.4-1.4c-0.3-2.3-0.5-4.8-0.8-7.1c0-0.2-0.2-0.3-0.2-0.5s0-0.3,0-0.5c0-1,0-2-0.1-3c-0.1-2,0.1-4,0.7-5.9
				c0.3-1.2,1.1-2.2,1.6-3.4c0.4-0.9,0.9-1.8,1.3-2.7c0.7-1.6,1.5-3.3,2.1-4.9c0.7-2.2,1.6-4.4,1.3-6.9c-0.2-1.4-0.3-3-0.7-4.3
				c-0.3-0.9-1-1.6-1.6-2.3c-1.7-2-3.9-3.3-6.2-4.5c-2.1-1.2-4.4-2.3-6.6-3.4c-1.9-0.9-3.8-1.6-5.8-2.3c-0.9-0.4-2-0.6-3-0.8
				c-2.6-0.4-5.2-0.3-7.7,0.5c-3,0.9-5.1,2.7-6.7,5.2c-1.2,1.7-1.8,3.7-2.3,5.7c-0.5,2,0.2,2.7,2.3,2.7c0.3,0,0.6-0.1,0.9-0.2
				c0.1,0,0.2,0.1,0.3,0.1c0.5-0.1,0.9-0.1,1.3-0.1c0.7,0.1,1.3,0.2,2,0.3c1.1,0.3,2.2,0.7,3.3,1c0.2,0.1,0.2,0.2,0.4,0.3
				c0.1,0,0.3,0.1,0.4,0.1c0.1,0.1,0.2,0.2,0.2,0.2c0.1,0,0.2,0.1,0.3,0.1c0.1,0.2,0.2,0.2,0.2,0.4c0.1,0,0.2,0.1,0.3,0.1
				c0.8,0.5,1.3,1.3,1.6,2.3c0.2,0.5,0.3,1.2,0.2,1.7c-0.2,2.5-0.6,5-0.6,7.5c-0.2,6.9-0.1,13.9-0.1,20.8c0,5.3,0.1,10.6,0,15.8
				c0,1.6-0.2,3.2-0.2,4.8c0,0.9,0.3,1.8,0.4,2.7c0.2,1.4,1,2.1,2.2,2.7c1,0.5,2,1.2,3.2,1.2c1.7,0,3.4-0.5,4.9-1.3
				c2.7-1.5,4.8-3.4,6.6-5.8c1.6-2,2.9-4.1,3.7-6.6c0.4-1.1,0.9-2.2,1.4-3.3c0.2-0.4,0.2-0.9,0.2-1.3c-0.1-0.9-0.2-1.8-0.4-2.8
				c0.2,0.9,0.5,1.7,0.7,2.6c0.2,0.4,0.2,0.6,0.2,1c0.2,0.6,0.1,1.2-0.2,1.9c-0.5,0.9-0.7,2.1-1.1,3.1c-0.9,2.3-2.1,4.5-3.6,6.6
				c-1.6,2.3-3.6,4.4-5.9,6.1c-2.6,1.9-5.4,2.6-8.5,2.3c-1.1-0.1-2-0.5-2.8-1.2c-0.5-0.5-1.2-0.9-1.7-1.3c-0.3-0.3-0.5-0.6-0.7-1
				c-0.9-2.2-0.5-4.4-0.2-6.6c0.2-3.6,0.5-7.2,0.7-10.8c0.1-2.5,0-5.1,0-7.6c0-2.9,0.2-5.7,0.2-8.6c0.1-4.1,0-8.1,0.2-12.2
				c0.2-3.1,0.5-6.2,0.9-9.4c0-0.5,0-1-0.4-1.4c-1.2-1.4-2.5-2.7-4.4-3.1c-1.3-0.2-2.7-0.4-4.1-0.5c-1.3-0.2-2.7-0.2-4.1-0.2
				c-0.6,0-1.1-0.6-1.1-1.3c0-0.6,0.1-1.2,0.2-1.9c0.7-2.2,1.2-4.5,2.6-6.5c1.6-2.3,3.7-4,6.4-4.8c2-0.5,4.1-0.6,6.2-0.8
				c1.1-0.1,2.3,0.2,3.4,0.5c2.4,0.7,4.9,1.6,7.3,2.5c2,0.8,3.9,1.8,5.8,2.8c1.6,0.9,3.2,1.6,4.6,2.6c1.3,0.9,2.6,1.9,3.7,2.9
				c0.8,0.8,1.5,1.7,2.2,2.6c0.2,0.2,0.2,0.4,0.2,0.6c0.3,1.9,0.5,3.8-0.2,5.7c-0.9,2.1-1.5,4.3-2.3,6.4c-0.7,1.7-1.6,3.4-2.3,5.1
				c-0.7,1.4-1.4,2.9-2.1,4.2c-0.1,0.3-0.2,0.6-0.3,0.9s-0.2,0.5-0.2,0.9c-0.1,0.2-0.1,0.3-0.2,0.5c-0.5,2.4-0.3,4.8-0.2,7.2
				c0,0.1,0.2,0.1,0.2,0.2s0.1,0.2,0.1,0.2c0,0.2,0,0.3,0,0.5c0,0.1,0,0.1,0,0.1C1728,1146.7,1727.9,1146.7,1727.9,1146.8z"/>
			<path class="st16" d="M1729,1156c0-0.1,0.1-0.2,0.1-0.3l0,0c0.2,0.2,0.3,0.4,0.4,0.6c0.2,0.9,0.4,1.7,0.5,2.7
				c0.2,0.8,0.3,1.6,0.5,2.4c-0.5,1.5-0.9,3-1.5,4.4c-2.1,5.3-5.3,9.8-9.9,13.3c-2.3,1.7-5,3-8,2.9c-2.3-0.1-4.4-0.7-6.2-2.4
				c-1.9-1.9-2.3-4.1-2-6.6c0.6-5.5,1.7-10.8,1.7-16.3c0-3.1,0.1-6.2,0.2-9.4c0.1-3.9,0-7.7,0.2-11.5c0.2-4.2,0.4-8.3,0.5-12.6
				c0.1-0.9,0.2-1.9,0.4-2.8c0.1-0.7-0.1-1.2-0.5-1.6c-1.9-2.3-4.4-2.7-7.2-2.7c-1.2,0-2.3,0.1-3.4,0c-0.5,0-1.1-0.2-1.6-0.4
				c-0.7-0.3-0.5-0.9-0.5-1.5c-0.1-0.3-0.1-0.6-0.2-0.9c0-0.1,0.1-0.3,0.1-0.4c0-0.2,0.1-0.4,0.1-0.5c0-0.1,0.1-0.2,0.1-0.3
				c0.2-0.6,0.5-1.2,0.6-1.9c0.5-2.3,1.6-4.4,3.1-6.2c1.7-2,3.9-3.1,6.4-3.7c0.2-0.1,0.3-0.2,0.5-0.2c1.2-0.1,2.7-0.3,4-0.2
				c2.5,0.2,4.9,0.7,7.3,1.6c2.7,1,5.4,2.2,8.1,3.3c0.9,0.4,1.7,0.8,2.6,1.2c1.7,0.9,3.4,2,5.1,3c2.6,1.6,5.1,3.1,6.6,6
				c0.3,0.6,0.4,1.1,0.2,1.7c-0.1,0.3-0.2,0.5-0.3,0.8c-0.5,1.7-0.9,3.4-1.5,5.1c-0.2,0.9-0.6,1.6-1,2.4c-0.6,1.3-1.2,2.7-1.9,4.1
				c-1.1,2.2-2.2,4.2-3.4,6.2c-0.2,0.5-0.5,0.8-0.8,1.2c0.7-1.4,1.4-2.9,2.1-4.2c0.8-1.7,1.6-3.4,2.3-5.1c0.9-2.1,1.5-4.3,2.3-6.4
				c0.8-1.9,0.5-3.8,0.2-5.7c0-0.2-0.1-0.4-0.2-0.6c-0.7-0.9-1.4-1.8-2.2-2.6c-1.2-1-2.4-2-3.7-2.9c-1.5-0.9-3-1.8-4.6-2.6
				c-2-1-3.8-2-5.8-2.8c-2.4-0.9-4.8-1.7-7.3-2.5c-1-0.3-2.3-0.6-3.4-0.5c-2,0-4.1,0.2-6.2,0.8c-2.7,0.8-4.8,2.4-6.4,4.8
				c-1.3,2-2,4.2-2.6,6.5c-0.2,0.6-0.2,1.2-0.2,1.9c0,0.7,0.5,1.2,1.1,1.3c1.4,0.1,2.7,0.2,4.1,0.2c1.3,0.2,2.7,0.2,4.1,0.5
				c2,0.3,3.1,1.7,4.4,3.1c0.4,0.4,0.4,0.9,0.4,1.4c-0.3,3.1-0.7,6.2-0.9,9.4c-0.2,4.1-0.2,8.1-0.2,12.2c0,2.9-0.2,5.7-0.2,8.6
				c0,2.6,0.1,5.1,0,7.6c-0.2,3.6-0.5,7.2-0.7,10.8c-0.2,2.3-0.7,4.4,0.2,6.6c0.2,0.4,0.4,0.8,0.7,1c0.5,0.5,1.2,0.9,1.7,1.3
				c0.8,0.7,1.7,1.1,2.8,1.2c3.1,0.3,5.9-0.4,8.5-2.3c2.3-1.7,4.3-3.7,5.9-6.1c1.5-2.1,2.7-4.3,3.6-6.6c0.4-1,0.5-2.2,1.1-3.1
				c0.3-0.6,0.4-1.2,0.2-1.9c-0.1-0.4-0.2-0.7-0.2-1C1729.4,1157.7,1729.1,1156.8,1729,1156C1729,1156,1729,1156,1729,1156z"/>
			<path class="st20" d="M1737,1181c0.2,0.5,0.9,1.1,0.5,1.9c-0.2,0.3-0.3,0.6-0.4,0.9c-1,2.4-1.7,4.9-2,7.5c0,0.5-0.2,0.6-0.8,0.3
				c-0.9-0.5-1.7-1-2.6-1.4c-1.6-0.6-2.7-1.8-3.6-3.3c-0.8-1.3-1.6-2.5-3.2-2.9c-2-0.5-4.1-1.2-6.2-1.2c-0.2,0-0.4-0.1-0.5-0.2
				c0.2-0.2,0.2-0.5,0.3-0.6c0.2-0.2,0.5-0.4,0.8-0.6c1.4-1.3,2.8-2.6,4.2-3.9c0.7-0.6,1.2-1.4,2-1.6c2-0.5,4.2-0.5,6.1,0.1
				C1734.3,1177.2,1736,1178.7,1737,1181z"/>
			<path class="st20" d="M1730.9,1162c-0.5,1.8-0.8,3.6-1.7,5.2c-1,1.9-2,3.7-3,5.5c-1.6,2.6-3.7,4.9-6,6.8s-4.9,3.5-7.9,4.1
				c-4.7,1-7.7-0.9-9.8-4.8c-0.9-1.7-1.2-3.7-1-5.5c0.2-2,0.5-4.1,1-6c0.5-2.3,0.9-4.4,1-6.8c0-4.4,0.1-8.7,0.1-13.2
				c0.1-6.1,0.1-12.2,0.3-18.3c0.2-3.1,0.5-6.2,0.9-9.3c0.1-1-0.3-1.9-1.2-2.4c-1.2-0.6-2.7-0.9-4.1-0.9c-1.6-0.1-3.4,0-5.1,0.1
				c-1.8,0-2.7-1-2.3-2.6c0.1-0.3,0.2-0.5,0.2-0.9c0.1,0.3,0.2,0.6,0.2,0.9c0.1,0.5-0.1,1.2,0.5,1.5c0.5,0.2,1,0.3,1.6,0.4
				c1.2,0.1,2.3,0,3.4,0c2.7-0.1,5.3,0.4,7.2,2.7c0.4,0.5,0.6,0.9,0.5,1.6c-0.2,0.9-0.3,1.9-0.4,2.8c-0.2,4.2-0.4,8.3-0.5,12.6
				c-0.2,3.8-0.1,7.6-0.2,11.5c0,3.1-0.2,6.2-0.2,9.4c0,5.5-1.2,10.8-1.7,16.3c-0.3,2.5,0.2,4.7,2,6.6c1.7,1.8,3.8,2.4,6.2,2.4
				c3,0.1,5.7-1.1,8-2.9c4.6-3.4,7.7-8,9.9-13.3c0.5-1.5,0.9-3,1.5-4.4C1730.6,1161.6,1730.8,1161.9,1730.9,1162z"/>
			<path class="st20" d="M1693,1109.9c0.5-2.5,1.6-4.8,3.4-6.6c1.8-2.2,4.2-3.2,7-3.4c-0.2,0.1-0.3,0.2-0.5,0.2
				c-2.5,0.5-4.7,1.6-6.4,3.7c-1.5,1.9-2.6,3.9-3.1,6.2c-0.1,0.6-0.4,1.2-0.6,1.9C1692.9,1111.3,1692.9,1110.6,1693,1109.9z"/>
			<path class="st16" d="M1729.1,1155.7L1729.1,1155.7c-0.1-0.1-0.2-0.2-0.2-0.2c0-0.1,0-0.2,0-0.3c-0.1-0.2-0.2-0.2-0.2-0.4v-0.1
				c0-0.6-0.1-1.2-0.1-1.8C1728.8,1153.8,1729,1154.7,1729.1,1155.7z"/>
			<path class="st16" d="M1728,1138c0.1-0.3,0.2-0.5,0.2-0.9C1728.6,1137.5,1728.4,1137.8,1728,1138z"/>
			<path class="st20" d="M1692.7,1112.3c0,0.2-0.1,0.4-0.1,0.5C1692.6,1112.7,1692.7,1112.4,1692.7,1112.3z"/>
			<path class="st21" d="M1603.1,1116.4c0.4-0.9,0.9-1.9,1.2-2.7c0.6-1.2,1.3-2.4,2.4-3.2c2.4-1.8,4.9-3.4,7.3-5.1
				c0.7-0.5,2-0.2,2.3,0.5c0.6,1.1,1.2,2.2,1.6,3.4c0.7,2.3,1.3,4.8,1.8,7.2c0.2,1.1-0.1,2.4-1.4,3c-0.7,0.3-1.2,0.8-1.9,1.2
				c-1.5,0.9-2.9,1.8-4.4,2.5c-0.7,0.3-1.6,0.5-2.3,0.3c-1-0.2-2-0.8-3-1.2c-1.5-0.7-2.6-1.9-3.6-3.2c-0.5-0.7-0.5-1.3-0.3-2
				C1603,1116.7,1603,1116.6,1603.1,1116.4C1603.1,1116.4,1603,1116.4,1603.1,1116.4z"/>
			<path class="st13" d="M1664.5,1101.3c0.3,1.3,0.9,2.7,1.4,3.9c0.4,1.1-0.1,1.6-1.4,1.7c-1.1,0-2.2-0.2-3.2-0.5
				c-1.6-0.4-3-0.7-4.6-1c-1.2-0.2-2.3-0.5-3.4-0.8c-0.9-0.2-2-0.5-2.9-0.6c-1.2-0.2-2.4-0.4-3.6-0.2c-2.4,0.5-4.4,1.7-6.6,2.7
				c-1.4,0.6-2.7,1.3-4.4,1.2c-1.3-0.2-2.4-0.8-3.6-1.3c-1-0.5-1-1.1-0.5-2.2c0.2-0.5,0.5-0.9,0.7-1.5c0.5-0.2,1-0.4,1.6-0.6
				c1.2-0.7,2.3-1.4,3.5-2.2c0.2-0.1,0.4-0.1,0.5-0.1c-0.5,0.8-1,1.6-1.5,2.3c-0.3,0.5,0,1,0.6,1c1.6,0,3.2,0,4.8,0
				c1-0.1,2.1-0.2,3.2-0.4c1.9-0.3,3.6,0.2,5.5,0.4c2.4,0.2,4.9,0.5,7.3,0.9c1.2,0.2,2-0.8,3-1.3c0.1,0,0.1-0.1,0.1-0.1
				c-0.1-0.9-0.1-2-0.4-2.8c-0.1-0.4-0.8-0.6-1.2-0.9c-0.5-0.2-0.9-0.5-1.4-0.8c0.2-0.1,0.4-0.1,0.7-0.2c0.4,0.1,0.9,0.3,1.2,0.4
				c0.9,0.2,2,0.3,2.9,0.5C1663.5,1099.2,1664.2,1100,1664.5,1101.3z"/>
			<path class="st12" d="M1728,1146.5c0-0.2,0-0.3,0-0.5C1728,1146.2,1728,1146.4,1728,1146.5z"/>
			<path class="st11" d="M1658.7,1095.8c0.2-0.2,0.2-0.5,0.4-0.8c0.9,0,1.7-0.1,2.4-0.6c0.5-0.3,0.6-0.7,0.6-1.2
				c0-1.2-0.5-2.3-0.9-3.5c-0.2-0.5-0.3-1.2-0.5-1.7c-0.2-0.5-0.5-0.9-0.8-1.5c-0.7-1.2-1.4-2.3-2.1-3.4c-1.1-1.6-2-3.1-3.3-4.6
				c-0.6-0.7-1.6-1.3-2.6-1.7c-3-1.5-6.4-1.5-9.8-1.4c-3.5,0.1-6.8,0.9-10.1,1.8c-2.3,0.5-4.3,1.8-6.3,3c-1.3,0.9-2.7,1.7-3.9,2.7
				c-0.9,0.7-1.6,1.7-2.3,2.7c-0.5,0.6-0.1,1.8,0.9,2.4h0.1c0.2,0.5,0.5,1.2,0.7,1.8c0.5,1.2,0.8,2.3,1.3,3.4
				c0.5,0.9,1.1,1.7,1.7,2.6c1.6,2,3.6,3.4,5.9,4.3c-0.6,0.1-1.1,0.2-1.7,0.2c-0.6-0.5-1.4-0.8-2-1.2c-1.6-1.1-2.7-2.6-3.8-4.1
				c-0.6-0.9-1.2-1.6-1.5-2.7c-0.4-1.9-1-3.7-1.8-5.5c-0.9-2-0.9-2,0.7-3.4c1.3-1.2,2.7-2.3,4.2-3.2c2-1.2,4.1-2.6,6.3-3.4
				c5.5-2,11.2-3,17.2-2.5c2.2,0.2,4.2,0.6,6.1,1.7c1.6,1,2.9,2.4,3.7,4.1c0.9,1.7,1.8,3.4,2.7,5c0.6,1.1,1.1,2.1,1.6,3.2
				c0.2,0.5,0.4,1,0.5,1.6c0.3,1.1,0.7,2.1,0.9,3.2c0.2,1.3-0.4,2-1.7,2.3c-0.2,0.1-0.4,0.2-0.5,0.3c-0.6,0-1.3,0-2,0
				C1658.8,1095.8,1658.8,1095.8,1658.7,1095.8z"/>
			<path class="st21" d="M1640.8,1098.2c2-0.5,4.1-0.9,6.2-1c2.7-0.1,5.5,0,8.3,0.2c0.9,0,2-0.1,2.7,0.6c0.5,0.2,0.9,0.5,1.4,0.8
				c0.4,0.3,1.2,0.5,1.2,0.9c0.2,0.9,0.3,1.9,0.4,2.8c0,0,0,0.1-0.1,0.1c-0.9,0.5-1.8,1.5-3,1.3c-2.4-0.2-4.9-0.5-7.3-0.9
				c-1.8-0.2-3.6-0.7-5.5-0.4c-1.1,0.2-2.1,0.4-3.2,0.4c-1.6,0.1-3.3,0.1-4.8,0c-0.6,0-0.9-0.4-0.6-1c0.5-0.8,1-1.6,1.5-2.3
				C1638.9,1099.2,1639.7,1098.5,1640.8,1098.2z"/>
			<path class="st20" d="M1655.5,1096c-2.7,0.1-5.5,0-8.1,0.1c-1.9,0.1-3.7,0.5-5.6,0.6c-1.9,0.2-3.7,0.6-5.4,1.3
				c-0.6,0.2-1.2,0.4-1.9,0.5c0.1-0.2,0.1-0.3,0.2-0.5c0.9-0.5,1.8-1.1,2.7-1.4c1.5-0.4,2.9-0.7,4.4-0.9c2.3-0.3,4.7-0.6,7-0.8
				c2.3-0.2,4.7-0.1,7.1-0.2c1,0,2.1,0,3.1-0.1v0.1c-0.2,0.2-0.2,0.5-0.4,0.8C1657.6,1095.8,1656.6,1095.9,1655.5,1096z"/>
			<path class="st12" d="M1631.6,1100.1c-0.4,0.2-0.9,0.1-1.2,0c-2.3-1-4.4-2.3-5.9-4.3c-0.6-0.8-1.3-1.6-1.7-2.6
				c-0.5-1.1-0.9-2.3-1.3-3.4c-0.2-0.5-0.5-1.2-0.7-1.8c0.5,0.6,1,1.2,1.4,2c0.3,0.5,0.5,1.1,0.8,1.7c0.7,2.1,2,3.7,3.7,5.4
				c1.5,1.5,4.4,2.2,6.4,1.4c0.6-0.2,1.2-0.2,1.9-0.4c-0.1,0.2-0.1,0.3-0.2,0.5C1633.6,1099.2,1632.5,1099.7,1631.6,1100.1z"/>
			<path class="st22" d="M1728.9,1155.1c0,0.1,0,0.2,0,0.3s0.1,0.3,0.1,0.5v0.1c0.2,0.9,0.3,1.9,0.4,2.8c0.1,0.4,0,0.9-0.2,1.3
				c-0.4,1.1-1,2.2-1.4,3.3c-0.9,2.4-2.3,4.5-3.7,6.6c-1.8,2.4-4,4.3-6.6,5.8c-1.5,0.9-3.1,1.4-4.9,1.3c-1.2,0-2.1-0.8-3.2-1.2
				c-1.2-0.5-2-1.2-2.2-2.7c-0.1-0.9-0.4-1.8-0.4-2.7c0-1.6,0.2-3.2,0.2-4.8c0-5.3,0-10.6,0-15.8c0-6.9,0-13.9,0.1-20.8
				c0-2.5,0.4-5,0.6-7.5c0-0.5-0.1-1.2-0.2-1.7c-0.2-0.9-0.9-1.7-1.6-2.3v-0.1c0.2,0.2,0.5,0.2,0.8,0.4c0.1,0.1,0.2,0.2,0.2,0.2
				c0.2,0.2,0.5,0.5,0.8,0.7c0.2,0.2,0.2,0.4,0.4,0.5c0.2,0.5,0.5,0.9,0.6,1.4c-0.2,3.6-0.7,7.2-0.8,10.8c-0.1,4.5,0,9.1,0,13.5
				c0,2.6,0,5.1,0.1,7.7c0.1,3.1,0.2,6.3,0.4,9.4c0.1,1.7,0.1,3.4,0,5.1c-0.1,1.9,0.5,3.5,0.9,5.1c0,0.2,0.3,0.4,0.5,0.5
				c1.2,0.5,2.3,0.9,3.6,1.3c0.9,0.3,1.6-0.2,2.3-0.5c4.3-1.9,7.7-4.8,9.9-9c0.7-1.5,1.4-3,2.1-4.4c0.2-0.2,0.2-0.6,0.5-0.7
				c0.6-0.5,0.6-1.1,0.5-1.8c-0.5-3.3-0.9-6.6-1.3-9.9c-0.1-0.6-0.2-1.3-0.2-2c0-0.1,0.1-0.2,0.2-0.3c0,0.2,0.2,0.3,0.2,0.5
				c0.2,2.4,0.5,4.8,0.8,7.1c0.1,0.5,0.2,0.9,0.4,1.4v0.1C1728.7,1154.9,1728.8,1155,1728.9,1155.1z"/>
			<path class="st23" d="M1708.9,1122.2c-0.2,3.1-0.5,6.3-0.5,9.5c-0.1,4.4,0.1,8.8,0.1,13.3c0,2.6,0,5.2,0.2,7.9
				c0.1,2.3,0.2,4.7,0.4,7c0.1,1.6,0.2,3.3,0.3,5c0.2,1.1,0.4,2.3,0.5,3.4c0.2,0.9,0.3,1.7,0.5,2.7c0.1,0.4,0.2,0.6,0.8,0.7
				c1.1,0.1,2.2,0.4,3.4,0.5c0.5,0.1,1.2,0.1,1.6-0.2c1.8-1,3.6-2,5.1-3.3c2.5-1.8,4.1-4.4,5.2-7.3c0.4-0.9,0.6-1.8,1.2-2.4
				c0.9-0.7,0.5-1.6,0.5-2.3c-0.3-3-0.7-6.1-0.9-9.1c-0.1-0.9-0.1-1.8-0.1-2.7c0.1,0.2,0.2,0.3,0.4,0.5c0,0.2,0,0.3,0,0.5
				c-0.1,0.1-0.2,0.2-0.2,0.3c0.1,0.6,0.1,1.2,0.2,2c0.4,3.3,0.9,6.6,1.3,9.9c0.1,0.6,0.1,1.2-0.5,1.8c-0.2,0.2-0.4,0.5-0.5,0.7
				c-0.7,1.5-1.3,3-2.1,4.4c-2.2,4.2-5.6,7-9.9,9c-0.7,0.3-1.4,0.8-2.3,0.5c-1.2-0.4-2.4-0.9-3.6-1.3c-0.2-0.1-0.5-0.3-0.5-0.5
				c-0.4-1.7-1-3.4-0.9-5.1c0-1.7,0-3.4,0-5.1c-0.1-3.1-0.2-6.3-0.4-9.4c-0.1-2.6-0.1-5.1-0.1-7.7c-0.1-4.5-0.2-9,0-13.5
				c0.1-3.7,0.5-7.2,0.8-10.8C1709.1,1121.1,1708.9,1121.7,1708.9,1122.2z"/>
			<path class="st22" d="M1727,1144.2c-0.1-0.2-0.2-0.2-0.2-0.4c0-0.1,0.1-0.3,0.1-0.4c-0.1-0.2-0.2-0.2-0.2-0.4
				c0-0.1,0.1-0.3,0.1-0.4c-0.1-0.2-0.2-0.2-0.2-0.4c0-0.5,0.1-1,0.2-1.6c-0.1-0.4-0.1-0.9-0.2-1.2c0.1-0.7,0.2-1.3,0.4-2
				c0-0.1,0-0.2,0-0.3c0-0.2,0.1-0.4,0.1-0.5c0.2-0.2,0.3-0.4,0.4-0.6c0.3-0.7,0.6-1.3,0.9-2c0.1-0.2,0.1-0.4,0.1-0.5
				c0-0.1,0.1-0.2,0.1-0.3c0.3-0.4,0.6-0.9,0.9-1.2c0.7-1.4,1.4-2.7,1.9-4.1c0.5-1.4,0.9-3,1.2-4.4c0.2-0.6,0.2-1.2,0.3-1.9
				c0.5-1.8,0-3.7-0.2-5.5c-0.1-0.6-0.5-1.2-0.9-1.8c-0.5-0.9-1.2-1.7-1.7-2.7c-0.8-1.2-2.1-1.9-3.3-2.7c-1.2-0.9-2.4-1.6-3.7-2.3
				c-1.1-0.5-2.2-1.1-3.3-1.6c-1.2-0.5-2.4-1.1-3.7-1.6c-0.3-0.2-0.7-0.2-1-0.2c-0.1,0-0.2-0.1-0.3-0.1c-0.1-0.1-0.2-0.2-0.3-0.2
				c-1.4-0.5-2.9-1-4.4-1.3c-3-0.5-6-0.2-8.7,1.1c-2.3,1-3.9,2.8-5.1,4.9c-0.9,1.3-1.3,2.9-2,4.4c-0.1,0.1,0,0.2,0,0.2
				c0,0.1-0.1,0.3-0.1,0.4c0,0.3,0.1,0.6,0.1,0.9v0.1c0.2,0.2,0.2,0.5,0.4,0.6c0.4,0.2,0.9,0.3,1.4,0.5c0.1,0,0.2,0.1,0.3,0.1
				c0.2,0,0.5,0.2,0.6,0.2c-0.3,0.1-0.6,0.2-0.9,0.2c-2.1,0-2.8-0.8-2.3-2.7c0.5-2,1.1-4,2.3-5.7c1.6-2.5,3.7-4.4,6.7-5.2
				c2.6-0.7,5.1-0.9,7.7-0.5c1,0.2,2,0.5,3,0.8c2,0.7,3.9,1.4,5.8,2.3c2.2,1,4.4,2.1,6.6,3.4c2.3,1.2,4.4,2.7,6.2,4.5
				c0.6,0.7,1.4,1.5,1.6,2.3c0.5,1.3,0.5,2.9,0.7,4.3c0.2,2.4-0.5,4.7-1.3,6.9c-0.6,1.6-1.3,3.3-2.1,4.9c-0.4,0.9-0.9,1.9-1.3,2.7
				c-0.5,1.1-1.2,2.2-1.6,3.4c-0.6,1.9-0.8,3.9-0.7,5.9c0,1,0,2,0.1,3c-0.1-0.2-0.2-0.3-0.4-0.5
				C1726.9,1144.6,1727,1144.3,1727,1144.2z"/>
			<path class="st23" d="M1698.7,1114.8c1.1,0.1,2.2,0.2,3.3,0.3c0.2,0.2,0.4,0.5,0.7,0.1c0.2,0,0.5,0.2,0.6,0.2
				c0,0.5,0.3,0.5,0.5,0.4c0.1,0,0.3,0.1,0.4,0.1c0,0.1-0.1,0.3-0.1,0.4l0,0c-1.1-0.3-2.2-0.7-3.3-1c-0.7-0.2-1.3-0.2-2-0.3
				C1698.9,1114.8,1698.8,1114.8,1698.7,1114.8z"/>
			<path class="st22" d="M1697.5,1115c0.1-0.2,0.2-0.2,0.3-0.4c0.3,0.1,0.6,0,0.9,0.1c0.1,0.1,0.1,0.2,0.1,0.2
				C1698.4,1115,1697.9,1115,1697.5,1115z"/>
			<path class="st23" d="M1697.3,1114.8c-0.2,0-0.5-0.2-0.6-0.2c0-0.1,0.1-0.3,0.1-0.4c0.3,0.1,0.7,0.3,1,0.4
				c-0.1,0.2-0.2,0.2-0.3,0.4C1697.4,1115,1697.3,1115,1697.3,1114.8z"/>
			<path class="st22" d="M1704.9,1116.6c0.1,0,0.2,0.1,0.3,0.1c0,0.1-0.1,0.2-0.1,0.3c-0.1-0.1-0.2-0.2-0.2-0.2
				C1704.9,1116.6,1704.9,1116.6,1704.9,1116.6z"/>
			<path class="st23" d="M1705.5,1117.4c0-0.1,0.1-0.3,0.1-0.4c0.1,0.2,0.2,0.2,0.2,0.4v0.1
				C1705.7,1117.5,1705.6,1117.4,1705.5,1117.4z"/>
			<path class="st22" d="M1705.3,1117L1705.3,1117c0.1-0.1,0.2,0,0.3,0c0,0.1-0.1,0.3-0.1,0.4
				C1705.4,1117.3,1705.4,1117.2,1705.3,1117z"/>
			<path class="st23" d="M1704.6,1116.6L1704.6,1116.6v-0.2c0.1,0,0.2,0.1,0.3,0.1c0.1,0.1,0.1,0.2,0.1,0.2v0.1
				C1704.8,1116.7,1704.6,1116.6,1704.6,1116.6z"/>
			<path class="st22" d="M1704.2,1116.4L1704.2,1116.4c0.1,0,0.3,0.1,0.4,0.1v0.1C1704.4,1116.6,1704.3,1116.4,1704.2,1116.4z"/>
			<path class="st23" d="M1705.1,1117c0-0.1,0.1-0.2,0.1-0.3c0.1,0.1,0.2,0.2,0.2,0.2v0.1C1705.3,1117,1705.2,1117,1705.1,1117z"/>
			<path class="st19" d="M1729.1,1155.7c0,0.1-0.1,0.2-0.1,0.3c0-0.2-0.1-0.3-0.1-0.5C1729,1155.5,1729,1155.6,1729.1,1155.7z"/>
			<path class="st19" d="M1728.8,1155.1c-0.1-0.2-0.2-0.2-0.2-0.4C1728.7,1154.9,1728.8,1155,1728.8,1155.1z"/>
			<path class="st16" d="M1620.4,1088.1c-0.5-2.1,0.9-3.4,2.2-4.6c2-1.8,4.4-3.1,6.7-4.4c2.3-1.2,4.8-1.8,7.4-2.3
				c2.9-0.5,5.8-0.8,8.7-0.5c1.5,0.2,3,0.5,4.4,0.8c2.2,0.5,3.7,2,5.1,3.7c1.5,2,3,3.9,4.4,5.9c0.3,0.5,0.4,1,0.5,1.5
				c0.4,1.2,0.8,2.3,1.1,3.4c0.3,1.5,0.1,1.9-1.2,2.6c-0.2,0.1-0.5,0.3-0.6,0.5c-1,0-2.1,0-3.1,0.1c-2.3,0.1-4.8,0-7.1,0.2
				c-2.4,0.2-4.7,0.5-7,0.8c-1.5,0.2-3,0.5-4.4,0.9c-0.9,0.2-1.8,0.9-2.7,1.4c-0.6,0.1-1.3,0.2-1.9,0.4c-2,0.7-4.9,0-6.4-1.4
				c-1.6-1.5-2.9-3.3-3.7-5.4c-0.2-0.6-0.5-1.2-0.8-1.7c-0.4-0.7-0.9-1.3-1.4-2C1620.5,1088.1,1620.5,1088.1,1620.4,1088.1z
				 M1645.1,1094.9c2.3-0.2,4.6-0.4,6.9-0.6c1.4-0.2,2.7-0.3,4.2-0.5c0.9-0.1,1.9,0,2.7-0.3c1.1-0.4,1.2-1.9,0.7-3
				c-0.4-1-0.7-2-1.1-3c-0.2-0.3-0.3-0.6-0.5-0.9c-1.6-1.7-3-3.4-4.5-5c-1.3-1.4-3-2.7-4.9-3.2c-2.3-0.6-4.8-0.9-7.3-0.8
				c-3.1,0.1-6.2,0.5-9.2,1.5c-1.2,0.3-2.3,1-3.3,1.6c-1.7,1.1-3.4,2.2-5,3.4c-1,0.8-1.5,1.9-1.9,3.1c-0.2,0.8,0.2,1.3,0.5,2
				c1,1.9,2,3.7,3.3,5.4c1.3,1.8,3.1,3.3,5.6,3.4c0.3,0.1,0.5-0.1,0.9-0.2c2.3-0.7,4.5-1.5,6.8-2.1c0.1-0.1,0.2-0.2,0.2-0.2
				C1641.2,1095.3,1643.1,1095.1,1645.1,1094.9z"/>
			<path class="st12" d="M1619.6,1085.6c0.7-0.9,1.5-2,2.3-2.7c1.2-1,2.6-2,3.9-2.7c2-1.2,4-2.4,6.3-3c3.3-0.9,6.6-1.6,10.1-1.8
				c3.3-0.1,6.6-0.1,9.8,1.4c0.9,0.4,2,1,2.6,1.7c1.2,1.5,2.3,3,3.3,4.6c0.8,1.1,1.5,2.3,2.1,3.4c0.3,0.5,0.6,0.9,0.8,1.5
				c0.2,0.5,0.3,1.2,0.5,1.7c0.4,1.2,0.9,2.2,0.9,3.5c0,0.5-0.2,0.9-0.6,1.2c-0.7,0.5-1.6,0.6-2.4,0.6v-0.1c0.2-0.2,0.4-0.4,0.6-0.5
				c1.4-0.6,1.6-1.1,1.2-2.6c-0.3-1.2-0.8-2.3-1.1-3.4c-0.2-0.5-0.2-1.1-0.5-1.5c-1.4-2-3-4-4.4-5.9c-1.3-1.8-3-3.2-5.1-3.7
				c-1.5-0.3-2.9-0.6-4.4-0.8c-2.9-0.3-5.9,0-8.7,0.5c-2.5,0.5-5.1,0.9-7.4,2.3c-2.4,1.2-4.8,2.6-6.7,4.4c-1.2,1.2-2.7,2.5-2.2,4.6
				C1619.6,1087.4,1619.2,1086.3,1619.6,1085.6z"/>
			<path class="st24" d="M1704.8,1116.2c-0.1-0.1-0.1-0.2-0.1-0.2c0.1,0,0.2,0,0.2,0c2.1,1.2,3.7,2.7,4.2,5.1c0.2,0.9-0.2,2-0.2,3.1
				c-0.2,4.3-0.3,8.6-0.4,12.8c0,1.6,0.1,3.4,0.2,5.1c0,0.9,0.2,1.8,0.2,2.7c0,2.4-0.1,4.8,0.1,7.3c0,2,0.2,4.1,0.3,6.1
				c0,0.9,0,1.8,0.1,2.7c0.2,1.1,0.2,2.3,0.5,3.4c0.2,1.4,0.6,2.9,0.9,4.2c0.1,0.2,0.5,0.6,0.7,0.7c0.6,0.2,1.4,0.2,2.1,0.4
				c1.5,0.3,3,0.2,4.2-0.8c1.7-1.3,3.5-2.6,5.1-4.1c0.9-0.9,1.4-2.2,2-3.3c0.8-1.2,1.1-2.8,2.1-4c0.3-0.4,0.2-1.2,0.2-1.8
				c-0.2-2.7-0.5-5.4-0.7-8.1c-0.2-1.8-0.2-3.7-0.2-5.5c-0.1-0.8-0.1-1.6-0.1-2.4c0-2.3,0.5-4.6,1.6-6.8c0.7-1.4,1.2-3,1.9-4.4
				c1.4-3,1.6-6.3,1.9-9.5c0.1-0.6-0.1-1.3-0.3-1.9c-0.6-1.4-1.3-2.9-2.1-4.3c-0.3-0.5-0.8-1.1-1.2-1.6c-1.2-1-2.3-2-3.6-2.9
				c-1.2-0.9-2.6-1.6-4-2.3c-2.2-1-4.3-2-6.5-2.8c-2.1-0.8-4.2-1.6-6.6-1.5c-0.2,0-0.5-0.1-0.8-0.2c0.2-0.1,0.2-0.2,0.4-0.2
				c1,0,2,0.2,3,0.2c1.7-0.1,3.1,1,4.7,1.2c0.2,0,0.3,0,0.5,0c0.1,0,0.2,0.1,0.3,0.1c0.2,0.2,0.3,0.4,0.5,0.5
				c1.4,0.6,2.8,1.1,4.2,1.7c2.7,1.2,5.1,2.8,7.6,4.5c1.8,1.4,2.9,3.2,4,5c1.4,2.3,1.2,4.9,0.8,7.4c-0.3,1.8-0.7,3.6-1.2,5.3
				c-0.5,1.6-1.3,3.1-2,4.7c-0.2,0.3-0.2,0.6-0.4,0.9c0,0.1-0.1,0.2-0.1,0.3c-0.7,0.9-1.2,2-1.3,3.1c0,0.2-0.1,0.4-0.1,0.5
				c0,0.1,0,0.2,0,0.3c-0.1,0.7-0.2,1.3-0.4,2c0.1,0.4,0.1,0.9,0.2,1.2c0,0.5-0.1,1-0.2,1.6c0.1,0.2,0.2,0.2,0.2,0.4
				c0,0.1-0.1,0.3-0.1,0.4c0.1,0.2,0.2,0.2,0.2,0.4c0,0.1-0.1,0.3-0.1,0.4c0.1,0.2,0.2,0.2,0.2,0.4c0,0.2-0.1,0.5-0.1,0.7
				c0,0.9,0,1.8,0.1,2.7c0.3,3,0.7,6.1,0.9,9.1c0.1,0.8,0.3,1.6-0.5,2.3c-0.6,0.6-0.9,1.6-1.2,2.4c-1.2,2.8-2.7,5.5-5.2,7.3
				c-1.6,1.2-3.4,2.3-5.1,3.3c-0.5,0.2-1,0.2-1.6,0.2c-1.1-0.1-2.2-0.4-3.4-0.5c-0.5-0.1-0.6-0.2-0.8-0.7c-0.2-0.9-0.4-1.7-0.5-2.7
				c-0.2-1.2-0.4-2.2-0.5-3.4c-0.2-1.6-0.2-3.4-0.3-5c-0.1-2.3-0.2-4.7-0.4-7c-0.1-2.6-0.2-5.2-0.2-7.9c0-4.4-0.2-8.9-0.1-13.3
				c0.1-3.2,0.4-6.3,0.5-9.5c0.1-0.5,0.2-1.1-0.3-1.4c-0.2-0.5-0.5-0.9-0.6-1.4c-0.2-0.2-0.2-0.4-0.4-0.5c-0.2-0.2-0.5-0.5-0.8-0.7
				c-0.1-0.1-0.2-0.2-0.2-0.2c-0.2-0.2-0.5-0.2-0.8-0.4c-0.1-0.2-0.2-0.2-0.2-0.4c-0.1,0-0.2-0.1-0.3-0.1c-0.1-0.1-0.2-0.2-0.2-0.2
				C1705.2,1116.6,1705,1116.6,1704.8,1116.2z"/>
			<path class="st23" d="M1707.5,1118.7c0.2,0.2,0.2,0.4,0.4,0.5C1707.8,1119.1,1707.6,1118.9,1707.5,1118.7z"/>
			<path class="st23" d="M1706.6,1117.8c0.1,0.1,0.2,0.2,0.2,0.2C1706.7,1118,1706.7,1117.9,1706.6,1117.8z"/>
			<path class="st23" d="M1716.3,1103.5c1.2,0.5,2.4,1.1,3.7,1.6c1.1,0.5,2.2,0.9,3.3,1.6c1.2,0.7,2.5,1.5,3.7,2.3
				c1.2,0.8,2.5,1.4,3.3,2.7c0.5,0.9,1.2,1.7,1.7,2.7c0.4,0.5,0.9,1.2,0.9,1.8c0.2,1.8,0.7,3.7,0.2,5.5c-0.2,0.6-0.2,1.2-0.3,1.9
				c-0.4,1.4-0.7,3-1.2,4.4c-0.5,1.4-1.2,2.8-1.9,4.1c-0.2,0.5-0.6,0.9-0.9,1.2c0.2-0.3,0.2-0.6,0.4-0.9c0.7-1.5,1.5-3,2-4.7
				c0.5-1.7,0.9-3.5,1.2-5.3c0.5-2.5,0.6-5.1-0.8-7.4c-1.2-1.9-2.2-3.7-4-5c-2.4-1.7-4.8-3.4-7.6-4.5c-1.4-0.7-2.8-1.2-4.2-1.7
				c-0.2-0.1-0.4-0.3-0.5-0.5C1715.6,1103.3,1715.9,1103.3,1716.3,1103.5z"/>
			<path class="st23" d="M1705.7,1102c-0.2,0.1-0.5,0.1-0.8,0.2h-0.1c-0.1,0-0.2,0-0.3,0c-0.4,0.1-0.8,0.2-1.2,0.3
				c-0.6,0.2-1.3,0.3-1.9,0.6c-2.1,1.2-3.7,2.8-5,4.8c-0.6,1.1-1,2.3-1.6,3.4c-0.1,0.3-0.2,0.5-0.4,0.7c0-0.1,0-0.2,0-0.2
				c0.6-1.5,1.2-3,2-4.4c1.2-2.1,2.9-3.9,5.1-4.9c2.8-1.2,5.8-1.6,8.7-1.1c1.5,0.3,3,0.9,4.4,1.3c0.1,0,0.2,0.2,0.3,0.2
				c-0.2,0-0.3,0-0.5,0c-1.6-0.2-3-1.3-4.7-1.2c-1,0.1-2-0.2-3-0.2c-0.1,0-0.2,0.1-0.4,0.2C1706.3,1101.9,1706,1102,1705.7,1102z"/>
			<path class="st24" d="M1702.7,1102.9c-2.8,1.3-4.8,3.4-6.2,6c-0.5,0.9-0.9,2-1.2,3c-0.3,1,0.1,1.7,1.1,2.1
				c0.2,0.1,0.3,0.1,0.5,0.2c0,0.1-0.1,0.3-0.1,0.4c-0.1,0-0.2-0.1-0.3-0.1c-0.2-0.1-0.3-0.2-0.5-0.3c-0.5-0.2-0.9-0.5-1.3-0.8v-0.1
				c0-0.3-0.1-0.6-0.1-0.9c0-0.1,0.1-0.3,0.1-0.4c0.2-0.2,0.3-0.5,0.4-0.7c0.5-1.2,0.9-2.3,1.6-3.4c1.2-2.1,2.9-3.7,5-4.8
				c0.5-0.3,1.2-0.5,1.9-0.6C1703.2,1102.7,1703,1102.8,1702.7,1102.9z"/>
			<path class="st23" d="M1728.6,1134c-0.3,0.7-0.6,1.3-0.9,2c-0.1,0.2-0.2,0.4-0.4,0.6c0.1-1.2,0.6-2.2,1.3-3.1
				C1728.6,1133.6,1728.6,1133.8,1728.6,1134z"/>
			<path class="st23" d="M1694.9,1114.1c-0.2-0.1-0.3-0.4-0.4-0.6c0.5,0.2,0.9,0.5,1.3,0.8c0.2,0.1,0.3,0.2,0.5,0.3
				C1695.8,1114.5,1695.3,1114.4,1694.9,1114.1z"/>
			<path class="st23" d="M1726.9,1140.7c-0.1-0.4-0.1-0.9-0.2-1.2C1726.9,1139.9,1726.9,1140.3,1726.9,1140.7z"/>
			<path class="st23" d="M1694.5,1112.5c0,0.3,0.1,0.6,0.1,0.9C1694.6,1113,1694.5,1112.8,1694.5,1112.5z"/>
			<path class="st23" d="M1726.9,1142.6c-0.1-0.2-0.2-0.2-0.2-0.4C1726.9,1142.4,1726.9,1142.5,1726.9,1142.6z"/>
			<path class="st23" d="M1727,1143.4c-0.1-0.2-0.2-0.2-0.2-0.4C1726.9,1143.2,1726.9,1143.2,1727,1143.4z"/>
			<path class="st23" d="M1727.3,1137.5c0-0.1,0-0.2,0-0.3C1727.2,1137.2,1727.3,1137.4,1727.3,1137.5z"/>
			<path class="st23" d="M1727,1144.1c-0.1-0.2-0.2-0.2-0.2-0.4C1726.9,1143.9,1727,1143.9,1727,1144.1z"/>
			<path class="st25" d="M1704.2,1102.2c0.1,0,0.2,0,0.3,0h0.1c0.2-0.1,0.5-0.1,0.8-0.2c0.2-0.1,0.5-0.1,0.8-0.2
				c0.3,0.1,0.5,0.2,0.8,0.2c2.3-0.1,4.4,0.7,6.6,1.5c2.3,0.8,4.4,1.8,6.5,2.8c1.4,0.7,2.7,1.5,4,2.3c1.2,0.9,2.4,1.9,3.6,2.9
				c0.5,0.4,0.9,0.9,1.2,1.6c0.8,1.4,1.5,2.8,2.1,4.3c0.2,0.5,0.4,1.2,0.3,1.9c-0.2,3.3-0.5,6.5-1.9,9.5c-0.7,1.5-1.1,3-1.9,4.4
				c-1.1,2.2-1.6,4.4-1.6,6.8c0,0.8,0.1,1.6,0.1,2.4c0.1,1.9,0.2,3.7,0.2,5.5c0.2,2.7,0.5,5.4,0.7,8.1c0.1,0.6,0.2,1.4-0.2,1.8
				c-1,1.2-1.3,2.7-2.1,4c-0.7,1.1-1.2,2.4-2,3.3c-1.6,1.5-3.4,2.7-5.1,4.1c-1.2,0.9-2.7,1.2-4.2,0.8c-0.7-0.2-1.4-0.2-2.1-0.4
				c-0.3-0.1-0.6-0.4-0.7-0.7c-0.4-1.4-0.7-2.8-0.9-4.2c-0.2-1.2-0.3-2.3-0.5-3.4c-0.1-0.9-0.1-1.8-0.1-2.7c-0.1-2-0.3-4.1-0.3-6.1
				c0-2.4,0-4.8-0.1-7.3c0-0.9-0.2-1.8-0.2-2.7c-0.1-1.7-0.2-3.4-0.2-5.1c0.1-4.3,0.2-8.6,0.4-12.8c0.1-1,0.4-2.1,0.2-3.1
				c-0.5-2.4-2.1-4-4.2-5.1c-0.1-0.1-0.2,0-0.2,0c-0.1,0-0.2-0.1-0.3-0.1c-0.1-0.2-0.2-0.2-0.3-0.4c-0.1,0-0.3-0.1-0.4-0.1
				c-0.2-0.2-0.4-0.2-0.5-0.4c-0.2,0-0.5-0.2-0.6-0.2h-0.1c0-0.1,0.1-0.3,0.1-0.4c0.5,0.2,0.9,0.3,1.3,0.5c0.2,0.1,0.2,0.2,0.4,0.3
				c0.1,0,0.3,0.1,0.4,0.1c0.2,0.1,0.2,0.2,0.4,0.3c0.1,0,0.3,0.1,0.4,0.1c0.1,0.2,0.2,0.2,0.2,0.4c0.1,0,0.2,0,0.3,0
				c0.1,0,0.2,0.1,0.3,0.1c0.2,0.1,0.2,0.2,0.4,0.3c0.1,0.2,0.2,0.2,0.2,0.4c0.2,0,0.5,0.2,0.6,0.2c0.2,0.1,0.2,0.2,0.4,0.3
				c0.1,0.2,0.2,0.2,0.3,0.4c0.2,0.3,0.5,0.6,0.7,0.9c0.1,0.2,0.2,0.2,0.3,0.4c0,0.2,0.1,0.4,0.2,0.5c0.9,1,0.8,2.3,0.7,3.4
				c-0.2,2.3-0.4,4.6-0.5,6.9c-0.3,5.3,0.2,10.6,0.3,15.9c0.2,4,0.5,8.1,0.6,12.1c0.1,2.4,1,4.7,1.6,7c0,0.2,0.1,0.4,0.2,0.6
				c0.3,1,0.4,1.1,1.4,1.2c1.2,0.1,2.3,0.3,3.4,0.3c0.4,0.1,0.9-0.1,1.3-0.3c2.3-1.4,4.3-3,5.9-5.1c0.8-1.2,1.4-2.4,2-3.6
				c0.1-0.1,0.1-0.3,0.2-0.4c1-1,0.8-2.3,0.8-3.4c-0.2-2.6-0.5-5.1-0.5-7.6c-0.1-3.7-0.5-7.3,0.2-10.8c0.2-1.2,0.8-2.3,1.2-3.4
				c0-0.1,0.2-0.2,0.2-0.3c0.5-1.2,0.9-2.4,1.5-3.7c0.9-2,1-4.3,1.2-6.5c0.1-0.6,0.2-1.3,0.2-2c-0.1-0.8-0.1-1.7-0.4-2.4
				c-0.5-1.3-1.2-2.6-1.7-3.8c-0.3-0.7-0.8-1.2-1.4-1.8c-1.2-1-2.3-2.1-3.6-3c-1.1-0.8-2.3-1.4-3.4-2c-3.2-1.6-6.4-3-9.8-4
				c-2.7-0.9-5.5-0.7-8.2,0.9c-2.1,1.2-3.7,2.8-5,4.8c-0.6,1.1-1.1,2.3-1.6,3.6c-0.3,0.9,0.6,1.8,1.7,2c0.7,0.1,1.4,0.2,2.1,0.2
				c0.1-0.1,0.2-0.2,0.2-0.2c0.1,0,0.2,0.1,0.3,0.1c0.2,0,0.4,0.1,0.5,0.1c0.1,0,0.2,0.1,0.3,0.1s0.3,0,0.5,0c0.1,0,0.3,0.1,0.4,0.1
				c0.1,0.2,0.2,0.2,0.3,0.4v0.1c-1.1-0.1-2.2-0.2-3.3-0.3c-0.3-0.1-0.6,0-0.9-0.1c-0.3-0.1-0.7-0.3-1-0.4c-0.2-0.1-0.3-0.1-0.5-0.2
				c-1-0.4-1.5-1.1-1.1-2.1c0.4-1,0.7-2.1,1.2-3c1.5-2.7,3.4-4.8,6.2-6c0.2-0.2,0.5-0.3,0.6-0.5
				C1703.8,1102.4,1704.2,1102.3,1704.2,1102.2z"/>
			<path class="st24" d="M1703.4,1115.5c0.2,0.2,0.4,0.2,0.5,0.4C1703.6,1115.9,1703.3,1115.9,1703.4,1115.5z"/>
			<path class="st24" d="M1702.6,1115.2L1702.6,1115.2c-0.2,0.4-0.4,0.2-0.6-0.1v-0.1C1702.2,1115.1,1702.4,1115.1,1702.6,1115.2z"
				/>
			<path class="st24" d="M1704.6,1116.5c-0.1,0-0.3-0.1-0.4-0.1c0-0.1,0.1-0.3,0.1-0.4C1704.3,1116.2,1704.4,1116.2,1704.6,1116.5
				C1704.6,1116.4,1704.6,1116.5,1704.6,1116.5z"/>
			<path class="st22" d="M1635.6,1096c-1.4,0.2-2.8,0.5-4.3,0.6c-0.3,0-0.7-0.1-1-0.2c-1.2-0.5-2.4-1.2-3.2-2.3
				c-0.2-0.3-0.5-0.6-0.9-1c-0.9-1.1-1.2-2.3-1.5-3.7c-0.1-0.5-0.1-0.9-0.2-1.3c-0.3-1.8,0.1-3.2,1.7-4.2c1.8-1.1,3.5-2.3,5.4-3.4
				c1.9-1.1,4-1.2,6.1-1.5c1.8-0.2,3.7-0.4,5.5-0.2c1.2,0.1,2.3,0.5,3.4,0.9c1,0.3,1.9,0.9,2.9,1.3c1.9,0.9,3.4,2.2,4.9,3.7
				c0.5,0.5,1,0.9,1.4,1.4c0.3,0.4,0.6,0.9,0.9,1.4c0.4,0.9,0.6,1.8,1,2.7c0.4,1,0.1,2.2-0.9,2.7c-0.3,0.2-1,0.2-0.7,0.9
				c-1.4,0.2-2.8,0.4-4.2,0.5c-2.3,0.2-4.6,0.4-6.9,0.6c-2,0.2-3.9,0.4-5.8,0.5C1638,1095.7,1636.8,1095.7,1635.6,1096z
				 M1639.5,1094.6c2.8-0.3,5.6-0.7,8.5-1c1.6-0.2,3-0.4,4.5-0.5c0.4-0.1,0.7-0.3,1-0.4c0.8,0.2,1.3-0.2,1.7-0.9
				c0.3-0.5,0.7-1.1,0.2-1.8c-0.3-0.5-0.5-1.2-0.8-1.9c-0.4-1.7-1.6-2.8-3.1-3.6c-1.5-0.7-2.8-1.5-4.2-2.2c-1.7-0.9-3.4-1.5-5.3-1.5
				c-1.9,0-3.9,0-5.9,0c-1.7,0-3.3,0.8-4.6,1.9c-1.1,0.9-2.1,1.8-3,2.7c-0.3,0.3-0.5,0.7-0.5,1.1c-0.1,1.4,0,3,0,4.4
				c0,0.2,0.1,0.5,0.2,0.6c0.7,0.9,1.5,1.8,2.3,2.5c0.5,0.4,1.3,0.5,2.1,0.7c1,0.1,2,0.1,3,0.1c0.2,0,0.5-0.2,0.7-0.2
				C1637.4,1094.6,1638.5,1094.7,1639.5,1094.6z"/>
			<path class="st19" d="M1638.9,1095.7c-2.3,0.7-4.5,1.5-6.8,2.1c-0.2,0.1-0.5,0.2-0.9,0.2c-2.5-0.2-4.2-1.6-5.6-3.4
				c-1.2-1.7-2.3-3.6-3.3-5.4c-0.3-0.5-0.7-1.2-0.5-2c0.4-1.2,0.9-2.3,1.9-3.1c1.6-1.2,3.3-2.4,5-3.4c1-0.6,2.1-1.2,3.3-1.6
				c3-1,6.1-1.5,9.2-1.5c2.4-0.1,4.9,0.2,7.3,0.8c2,0.5,3.5,1.7,4.9,3.2c1.6,1.7,3,3.4,4.5,5c0.2,0.2,0.4,0.5,0.5,0.9
				c0.4,1,0.8,2,1.1,3c0.5,1.2,0.5,2.7-0.7,3c-0.9,0.3-1.8,0.2-2.7,0.3c-0.2-0.7,0.4-0.7,0.7-0.9c0.9-0.6,1.3-1.8,0.9-2.7
				c-0.4-0.9-0.6-1.8-1-2.7c-0.2-0.5-0.5-1-0.9-1.4c-0.5-0.5-0.9-0.9-1.4-1.4c-1.5-1.4-3-2.7-4.9-3.7c-0.9-0.4-1.9-1-2.9-1.3
				c-1.1-0.4-2.3-0.8-3.4-0.9c-1.9-0.1-3.7,0.1-5.5,0.2c-2,0.2-4.2,0.4-6.1,1.5c-1.8,1-3.6,2.3-5.4,3.4c-1.6,1-2,2.5-1.7,4.2
				c0.1,0.4,0.1,0.9,0.2,1.3c0.2,1.3,0.6,2.6,1.5,3.7c0.3,0.3,0.6,0.6,0.9,1c0.8,1.2,2,1.9,3.2,2.3c0.3,0.2,0.7,0.3,1,0.2
				c1.4-0.2,2.8-0.5,4.3-0.6c1.2-0.2,2.4-0.2,3.7-0.4C1639.2,1095.6,1639.1,1095.7,1638.9,1095.7z"/>
			<path class="st24" d="M1705.7,1102c-0.2,0.1-0.5,0.1-0.8,0.2C1705.2,1102.1,1705.5,1102,1705.7,1102z"/>
			<path class="st24" d="M1704.8,1102.1c-0.1,0-0.2,0-0.3,0C1704.6,1102.2,1704.7,1102.1,1704.8,1102.1z"/>
			<path class="st26" d="M1708.8,1118.4L1708.8,1118.4c1,0.7,1.6,1.7,2,2.8c0.5,1.3,0.2,2.6,0.2,3.9c-0.4,4.8-0.5,9.4-0.2,14.2
				c0.2,3.1,0.3,6.2,0.5,9.3c0.2,3.4,0.8,6.7,1.8,9.9c0.2,0.5,0.4,1.1,0.6,1.6c0.2,0.2,0.5,0.5,0.7,0.5c1.4,0.1,2.8,0.2,4.2,0.3
				c0.5,0.1,0.8-0.1,1.1-0.5c1.3-1.5,2.7-3,4-4.4c0.2-0.1,0.2-0.2,0.4-0.3c1-0.4,1.2-1.3,1.2-2.3c0-2.6-0.2-5.1-0.1-7.7
				c0.1-3.4,0.2-6.7,0.3-10c0.2-1.6,0.5-3,1.3-4.4c0.4-0.8,0.5-1.8,0.9-2.7c0.4-1.2,0.9-2.5,1.2-3.7c0.1-0.3,0.2-0.5,0.1-0.9
				c-0.5-2.7-0.9-5.5-1.5-8.3c-0.1-0.3-0.3-0.6-0.5-0.9c-1.3-1.3-2.7-2.8-4.2-4.1c-1.1-0.9-2.4-1.6-3.7-2.3
				c-1.4-0.8-2.9-1.6-4.4-2.2c-1.2-0.6-2.7-0.9-3.9-1.5c-1.6-0.8-3.3-0.9-5-0.6c-0.7,0.1-1.3,0.5-2,0.9c-1.2,0.7-2.3,1.4-3.4,2.3
				c-1.1,0.9-2,1.9-2.3,3.3c-0.1,0.3-0.2,0.6-0.4,1c-0.5,1.4-0.3,1.8,1,2.3c-0.5,0.5-1.1,0.1-1.6-0.2c-0.5-0.2-0.9-0.8-0.6-1.4
				c0.9-3,2.5-5.4,5.2-7c0.8-0.4,1.6-0.8,2.3-1.2c1.4-0.9,2.9-0.9,4.4-0.7c0.8,0.1,1.6,0.2,2.3,0.5c2.2,0.9,4.4,1.6,6.5,2.6
				c3.4,1.5,6.5,3.4,9.2,6.1c1.3,1.2,2.3,2.7,2.7,4.3c0.6,2,1,4.1,0.9,6.4c-0.2,3.1-1.2,6-2.6,8.7c-1.7,3.6-1.7,7.3-1.6,11.1
				c0,4,0.2,8,0.4,12c0.1,1.4-0.6,2.5-1.5,3.5c-1.2,1.4-2.3,2.7-3.6,4c-0.7,0.7-1.5,1.2-2.3,1.9c-0.2,0.2-0.5,0.2-0.8,0.2
				c-1.6-0.1-3-0.2-4.6-0.3c-0.5,0-0.5-0.5-0.7-0.8c-0.4-1.4-0.8-2.9-1.2-4.3c-0.9-2.7-0.8-5.5-0.9-8.2c-0.2-3.6-0.3-7.3-0.5-10.8
				c-0.2-4.1-0.2-8.3,0.1-12.3c0.2-1.6,0.3-3.3,0.4-4.9c0-1.3-0.4-2.6-1.4-3.4c-0.1-0.2-0.2-0.2-0.3-0.4
				C1708.6,1118.7,1708.7,1118.7,1708.8,1118.4z"/>
			<path class="st27" d="M1707.6,1117.7c-0.2-0.1-0.2-0.2-0.4-0.3c-0.2-0.2-0.3-0.4-0.5-0.6c-0.1,0-0.2-0.1-0.3-0.1
				c-0.1,0-0.3-0.1-0.4-0.1s-0.2-0.1-0.3-0.1c-0.1-0.2,0-0.3-0.1-0.3c-1-0.5-1.8-1.4-3-1.5c-0.3-0.1-0.6-0.2-0.9-0.3
				c-0.2,0-0.3,0-0.5,0c-0.1,0-0.3-0.1-0.4-0.1c-0.2,0-0.3,0-0.5,0c-0.1,0-0.3-0.1-0.4-0.1c-0.4-0.1-0.8-0.1-1.2-0.1
				c-0.2-0.1-0.3-0.1-0.5-0.2c-1.3-0.5-1.6-0.9-1-2.3c0.2-0.3,0.2-0.6,0.4-1c0.4-1.4,1.2-2.5,2.3-3.3c1.1-0.8,2.3-1.6,3.4-2.3
				c0.6-0.4,1.2-0.7,2-0.9c1.7-0.2,3.4-0.2,5,0.6c1.2,0.6,2.6,0.9,3.9,1.5c1.5,0.7,3,1.4,4.4,2.2c1.2,0.7,2.6,1.4,3.7,2.3
				c1.5,1.2,2.8,2.7,4.2,4.1c0.2,0.2,0.5,0.5,0.5,0.9c0.5,2.7,1,5.5,1.5,8.3c0.1,0.2,0,0.5-0.1,0.9c-0.4,1.2-0.8,2.5-1.2,3.7
				c-0.2,0.9-0.4,1.9-0.9,2.7c-0.7,1.4-1.2,2.9-1.3,4.4c-0.2,3.4-0.2,6.6-0.3,10c-0.1,2.6,0.1,5.1,0.1,7.7c0,1-0.2,1.8-1.2,2.3
				c-0.2,0.1-0.2,0.2-0.4,0.3c-1.3,1.5-2.7,3-4,4.4c-0.3,0.3-0.6,0.5-1.1,0.5c-1.4-0.1-2.8-0.2-4.2-0.3c-0.3-0.1-0.6-0.2-0.7-0.5
				c-0.2-0.5-0.4-1.1-0.6-1.6c-1-3.2-1.6-6.6-1.8-9.9c-0.2-3.1-0.2-6.2-0.5-9.3c-0.3-4.8-0.2-9.4,0.2-14.2c0.1-1.3,0.3-2.6-0.2-3.9
				c-0.5-1.1-1-2.1-2-2.8C1708.3,1118.2,1708,1117.9,1707.6,1117.7z M1705.7,1115.5c0.1,0,0.2,0.1,0.3,0.1c0.1,0.2,0.2,0.2,0.2,0.4
				c0.1,0,0.3,0.1,0.4,0.1c0.2,0.1,0.3,0.1,0.5,0.2c0.1,0,0.2,0.1,0.3,0.1c0.1,0.2,0.2,0.2,0.2,0.4c0.1,0,0.3,0.1,0.4,0.1
				c0.1,0.2,0.2,0.5,0.4,0.5c1.4,1.1,2.4,2.4,3.1,4c0.5,1.1,0.3,2.3,0.3,3.5c-0.2,4.2-0.4,8.3-0.4,12.6c0,2.8,0.2,5.6,0.5,8.3
				c0.3,2.7,0.9,5.5,1.5,8.3c0.2,0.9,0.3,1.6,0.5,2.4c0.2,0.9,0.3,0.9,1.2,0.8c1.3-0.2,2.6-0.4,4-0.5c0.6-0.1,1-0.3,1.4-0.7
				c0.8-0.9,1.7-1.6,2.3-2.5c0.5-0.6,0.7-1.5,0.7-2.2c0.2-3.1,0.4-6.2,0.5-9.4c0.2-2.7,0.4-5.4,0.6-8c0.2-1,0.6-2,0.9-3
				c0.4-1.2,0.8-2.6,1.1-3.9c0.2-0.5,0.2-1.1,0.3-1.7c0.5-1.9,0.1-3.7-0.3-5.6c-0.1-0.5-0.2-1.1-0.3-1.6c-0.2-1.8-1.6-2.9-2.5-4.2
				c-1.7-2.6-4.3-4-7-5.3c-2.4-1.1-4.9-2.2-7.3-3.3c-1.2-0.5-2.3-0.2-3.5-0.2c-1.4-0.2-2.3,0.8-3.4,1.5c-0.9,0.6-1.9,1.2-2.7,2
				c-0.6,0.6-1.1,1.4-1.6,2.1c-0.2,0.2-0.2,0.6-0.5,0.9c-0.3,0.5-0.3,0.9,0.2,1.2c0.9,0.4,1.9,0.8,2.9,1.2c0.1,0,0.2-0.2,0.2-0.2
				c0.1,0,0.3,0.1,0.4,0.1c0.2,0,0.4,0.1,0.5,0.1c0.9,0.4,1.9,0.8,2.7,1.2C1705.3,1115.2,1705.5,1115.3,1705.7,1115.5z"/>
			<path class="st28" d="M1700,1114.2c-0.1,0.1-0.2,0.2-0.2,0.2c-0.7-0.1-1.4-0.1-2.1-0.2c-1.2-0.1-2-1.1-1.7-2
				c0.4-1.2,0.9-2.5,1.6-3.6c1.2-2,2.9-3.6,5-4.8c2.7-1.5,5.4-1.6,8.2-0.9c3.4,1,6.6,2.4,9.8,4c1.2,0.5,2.3,1.2,3.4,2
				c1.2,0.9,2.4,2,3.6,3c0.6,0.5,1.1,1,1.4,1.8c0.5,1.3,1.2,2.5,1.7,3.8c0.2,0.7,0.3,1.6,0.4,2.4c0,0.6-0.1,1.2-0.2,2
				c-0.2,2.2-0.3,4.4-1.2,6.5c-0.5,1.2-1,2.4-1.5,3.7c0,0.1-0.2,0.2-0.2,0.3c-0.5,1.2-1,2.2-1.2,3.4c-0.7,3.6-0.3,7.3-0.2,10.8
				c0.1,2.6,0.4,5.1,0.5,7.6c0.1,1.2,0.2,2.5-0.8,3.4c-0.2,0.1-0.1,0.3-0.2,0.4c-0.7,1.2-1.2,2.5-2,3.6c-1.6,2.1-3.6,3.8-5.9,5.1
				c-0.3,0.2-0.9,0.3-1.3,0.3c-1.2-0.1-2.3-0.2-3.4-0.3c-1.1-0.1-1.1-0.2-1.4-1.2c0-0.2-0.1-0.4-0.2-0.6c-0.5-2.3-1.5-4.5-1.6-7
				c-0.2-4.1-0.5-8-0.6-12.1c-0.2-5.3-0.6-10.5-0.3-15.9c0.2-2.3,0.4-4.6,0.5-6.9c0.2-1.2,0.2-2.4-0.7-3.4c-0.1-0.2-0.2-0.3-0.2-0.5
				c1.1,0.9,1.5,2.1,1.4,3.4c-0.1,1.6-0.2,3.3-0.4,4.9c-0.3,4.1-0.3,8.2-0.1,12.3c0.2,3.6,0.3,7.3,0.5,10.8c0.2,2.7,0.1,5.5,0.9,8.2
				c0.5,1.4,0.9,2.8,1.2,4.3c0.2,0.3,0.1,0.8,0.7,0.8c1.6,0.1,3,0.2,4.6,0.3c0.3,0,0.6-0.1,0.8-0.2c0.8-0.6,1.6-1.2,2.3-1.9
				c1.2-1.3,2.5-2.7,3.6-4c0.8-1,1.6-2.1,1.5-3.5c-0.2-4-0.3-8-0.4-12c-0.1-3.7-0.1-7.5,1.6-11.1c1.2-2.7,2.3-5.6,2.6-8.7
				c0.2-2.2-0.2-4.3-0.9-6.4c-0.5-1.6-1.5-3-2.7-4.3c-2.7-2.6-5.8-4.6-9.2-6.1c-2.1-0.9-4.3-1.7-6.5-2.6c-0.7-0.2-1.5-0.4-2.3-0.5
				c-1.6-0.2-3-0.2-4.4,0.7c-0.8,0.5-1.5,0.9-2.3,1.2c-2.8,1.6-4.3,4.1-5.2,7c-0.2,0.6,0.1,1.2,0.6,1.4c0.4,0.2,0.9,0.7,1.6,0.2
				c0.2,0.1,0.3,0.1,0.5,0.2C1699.3,1114,1699.6,1114.1,1700,1114.2z"/>
			<path class="st26" d="M1705.7,1116.4c-0.1-0.2-0.2-0.2-0.2-0.4c-0.1,0-0.3-0.1-0.4-0.1c-0.2-0.1-0.2-0.2-0.4-0.3
				c-0.1,0-0.3-0.1-0.4-0.1c-0.2-0.1-0.2-0.2-0.4-0.3c-0.5-0.2-0.9-0.3-1.3-0.5v-0.1c1.2,0,2,1,3,1.5
				C1705.8,1116.2,1705.7,1116.3,1705.7,1116.4C1705.8,1116.4,1705.7,1116.4,1705.7,1116.4z"/>
			<path class="st28" d="M1702.5,1115.2c-0.2-0.1-0.3-0.1-0.5-0.2c-0.1-0.2-0.2-0.2-0.3-0.4c0-0.1,0.1-0.2,0.1-0.3
				c0.3,0.1,0.6,0.2,0.9,0.3v0.1C1702.6,1114.9,1702.6,1115.1,1702.5,1115.2z"/>
			<path class="st26" d="M1708.6,1118.6c-0.2-0.2-0.5-0.4-0.7-0.5c-0.1-0.2-0.2-0.2-0.3-0.4C1708,1118,1708.3,1118.2,1708.6,1118.6
				L1708.6,1118.6z"/>
			<path class="st26" d="M1700.3,1114c0,0.1-0.1,0.2-0.1,0.3c-0.1,0-0.2-0.1-0.3-0.1c-0.3-0.1-0.5-0.2-0.8-0.3
				C1699.4,1113.9,1699.8,1114,1700.3,1114z"/>
			<path class="st28" d="M1708.7,1118.9c-0.2-0.3-0.5-0.6-0.7-0.9c0.2,0.2,0.5,0.4,0.7,0.5
				C1708.7,1118.7,1708.6,1118.7,1708.7,1118.9z"/>
			<path class="st28" d="M1700.6,1114.1c0.1,0.1,0.1,0.2,0.1,0.2c-0.2,0-0.4-0.1-0.5-0.1c0-0.1,0.1-0.2,0.1-0.3
				C1700.3,1114.1,1700.4,1114.1,1700.6,1114.1z"/>
			<path class="st26" d="M1706.7,1117.1c0-0.1,0.1-0.3,0.1-0.4c0.2,0.2,0.3,0.4,0.5,0.6C1707.1,1117.3,1706.9,1117.1,1706.7,1117.1z
				"/>
			<path class="st28" d="M1701.4,1114.5c-0.2,0-0.3,0-0.5,0c0-0.1,0.1-0.2,0.1-0.3c0.1,0,0.3,0.1,0.4,0.1
				C1701.4,1114.4,1701.4,1114.4,1701.4,1114.5z"/>
			<path class="st26" d="M1706.5,1116.8c-0.2-0.1-0.2-0.2-0.4-0.3c0.1,0,0.3,0.1,0.4,0.1C1706.5,1116.6,1706.5,1116.7,1706.5,1116.8
				z"/>
			<path class="st28" d="M1704.6,1115.6c0.2,0.1,0.2,0.2,0.4,0.3C1704.9,1115.8,1704.8,1115.7,1704.6,1115.6z"/>
			<path class="st26" d="M1700.7,1114.3c-0.1-0.1-0.1-0.2-0.1-0.2c0.2,0,0.3,0,0.5,0c0,0.1-0.1,0.2-0.1,0.3
				C1700.9,1114.4,1700.7,1114.4,1700.7,1114.3z"/>
			<path class="st28" d="M1704,1115.2c0.2,0.1,0.2,0.2,0.4,0.3C1704.2,1115.4,1704.1,1115.3,1704,1115.2z"/>
			<path class="st26" d="M1701.9,1114.2c0,0.1-0.1,0.2-0.1,0.3c-0.1,0-0.3-0.1-0.4-0.1v-0.1
				C1701.6,1114.3,1701.7,1114.3,1701.9,1114.2z"/>
			<path class="st28" d="M1706.8,1116.7c0,0.1-0.1,0.3-0.1,0.4c-0.1-0.2-0.2-0.2-0.2-0.4v-0.1
				C1706.7,1116.6,1706.7,1116.6,1706.8,1116.7z"/>
			<path class="st28" d="M1705.4,1116.1c0.1,0.2,0.2,0.2,0.2,0.4C1705.6,1116.3,1705.5,1116.2,1705.4,1116.1z"/>
			<path class="st24" d="M1634.9,1094.2c-1-0.2-2.1-0.2-3-0.7c-0.7-0.3-1.2-1.1-1.9-1.6c-0.9-0.6-1-1.6-1-2.6c0.2-3.4-0.2-2.6,2.3-5
				c0.8-0.8,1.7-1.6,2.7-2c0.8-0.4,1.8-0.6,2.8-0.7c2.6-0.2,5.2-0.1,7.7,0.4c1,0.2,2,0.5,2.9,0.9c1.2,0.6,2.5,1.3,3.7,1.9
				c1.2,0.5,2,1.5,2.6,2.7c0.3,0.7,0.6,1.3,0.9,2c0.5,0.9,0.2,1.7-0.5,2.3c-0.2,0.2-0.4,0.4-0.5,0.6c-0.4,0.2-0.7,0.4-1,0.4
				c-1.6,0.2-3,0.4-4.5,0.5c-2.8,0.4-5.7,0.8-8.5,1c-1.1,0.2-2.1,0-3.2,0C1635.8,1094.5,1635.3,1094.4,1634.9,1094.2z
				 M1641.7,1082.9c-1.9-0.1-3.7,0-5.5,0.2c-0.5,0-1.2,0.4-1.6,0.8c-1.2,1.1-2.5,2.2-3.6,3.4c-1.1,1-0.9,3.4,0.2,4.4
				c0.5,0.5,1.1,1,1.6,1.5c0.2,0.1,0.2,0.2,0.4,0.2c1.9,0.6,3.8,0.9,5.7,0.7c3.3-0.5,6.4-0.9,9.7-1.3c0.9-0.2,1.8-0.2,2.7-0.3
				c0.7-0.2,1.5-0.5,2.1-0.8c0.5-0.2,0.5-0.9,0.2-1.4c-0.6-1-1.2-2-1.9-3c-0.7-1.2-1.7-2-3-2.5c-0.8-0.4-1.6-0.7-2.4-1.1
				c0-0.1,0-0.1,0-0.2C1644.9,1083.2,1643.2,1082.8,1641.7,1082.9z"/>
			<path class="st23" d="M1635.7,1094.9c-1,0-2,0-3-0.1c-0.7-0.1-1.6-0.2-2.1-0.7c-0.9-0.7-1.6-1.6-2.3-2.5
				c-0.2-0.2-0.2-0.4-0.2-0.6c-0.1-1.5-0.1-2.9,0-4.4c0.1-0.4,0.3-0.9,0.5-1.1c0.9-0.9,2-1.9,3-2.7c1.3-1.1,2.8-1.9,4.6-1.9
				c2-0.1,3.9-0.1,5.9,0c1.9,0.1,3.7,0.7,5.3,1.5c1.5,0.7,2.8,1.6,4.2,2.2c1.6,0.8,2.7,1.9,3.1,3.6c0.2,0.6,0.4,1.3,0.8,1.9
				c0.5,0.7,0.1,1.2-0.2,1.8c-0.4,0.5-0.9,1-1.7,0.9c0.2-0.2,0.3-0.4,0.5-0.6c0.7-0.6,0.9-1.5,0.5-2.3c-0.3-0.7-0.6-1.3-0.9-2
				c-0.5-1.1-1.3-2-2.6-2.7c-1.2-0.6-2.5-1.3-3.7-1.9c-0.9-0.4-1.9-0.8-2.9-0.9c-2.6-0.5-5.1-0.7-7.7-0.4c-0.9,0.1-2,0.3-2.8,0.7
				c-0.9,0.5-1.8,1.2-2.7,2c-2.4,2.4-2.1,1.6-2.3,5c-0.1,1,0.2,1.9,1,2.6c0.6,0.5,1.2,1.2,1.9,1.6c0.9,0.4,2,0.5,3,0.7
				c0.5,0.2,0.9,0.2,1.5,0.3C1636.1,1094.7,1635.9,1094.9,1635.7,1094.9z"/>
			<path class="st29" d="M1699.1,1112.6c-0.4-0.2-0.7-0.5-0.3-1.1c0.4-0.5,0.6-1.3,0.9-1.9c0.6-1.2,1.9-1.9,3-2.7
				c0.2-0.1,0.2-0.1,0.3-0.2c1.8-1.9,4-1.6,6-0.9c4.1,1.5,8,3.5,11.7,6.1c0.5,0.4,1,0.9,1.4,1.6c1,1.3,2,2.7,2.9,4.1
				c0.4,0.6,0.5,1.6,0.8,2.3c0.6,2.2,0.2,4.3-0.2,6.5c-0.2,0.9-0.3,1.8-0.5,2.7c-0.1,0.4-0.3,0.8-0.4,1.2c-0.8,2-1,4-1.2,6.1
				c-0.2,3.7-0.5,7.3-0.9,10.9c-0.1,1.4-0.3,2.9-0.8,4.2c-0.2,0.7-0.9,1.4-1.6,1.9c-0.3,0.2-1,0-1.5,0.1c-1.2,0-2.6,0.1-3.8,0.2
				c-0.5,0.1-0.7,0-0.8-0.5c-0.4-1.8-0.8-3.7-1.1-5.5c-0.5-2.8-0.9-5.5-1.2-8.3c-0.2-2.5-0.2-5-0.2-7.5c0.1-2.7,0.3-5.4,0.4-8.1
				c0.1-1.8-0.6-3.4-1.7-4.6c-0.7-0.9-1.6-1.6-2.5-2.3c-0.1,0-0.3-0.1-0.4-0.1c-0.1-0.2-0.2-0.2-0.2-0.4c-0.1,0-0.2-0.1-0.3-0.1
				c-0.2-0.1-0.3-0.1-0.5-0.2c-0.1,0-0.3-0.1-0.4-0.1c-0.1-0.2-0.2-0.2-0.2-0.4c-0.1,0-0.2-0.1-0.3-0.1c-0.2-0.1-0.3-0.2-0.5-0.3
				c-0.9-0.4-1.9-0.8-2.7-1.2c-0.2,0-0.4-0.1-0.5-0.1c-0.1,0-0.3-0.1-0.4-0.1C1700.7,1113.4,1699.9,1113,1699.1,1112.6z
				 M1708.7,1117.1c1.2,0.9,2.3,2.1,3.1,3.5c0.9,1.6,0.8,3.4,0.7,5.2c-0.1,3.2-0.2,6.2-0.1,9.4c0.1,4.2,1.1,8.3,1.8,12.6
				c0.2,1.6,0.3,1.6,2,1.7c1.1,0.1,2.2,0.3,3.3,0.5c0.5,0.1,0.8-0.1,0.9-0.5c0.2-0.9,0.4-1.9,0.5-2.7c0.4-3.4,0.8-7,1.2-10.5
				c0.4-2.9,0.6-5.8,1.7-8.4c0.3-0.8,0.2-1.7,0.4-2.6c0.2-1.2,0.3-2.3,0.5-3.4c0.2-1.6-0.5-2.7-1.4-3.8c-0.9-1.3-1.8-2.7-2.8-3.8
				c-0.8-0.9-1.8-1.6-2.8-2.2c-1.9-1.1-3.7-2.1-5.7-3.1c-1.5-0.8-3-1.5-4.7-2.1c-0.5-0.2-1,0-1.6,0.1c-1.7,0.2-3,1-4.1,2.1
				c-0.8,0.9-1.2,2-1.8,3c-0.1,0.2,0.2,0.7,0.4,0.8c0.7,0.5,1.5,0.8,2.3,1.1C1704.8,1114.5,1706.9,1115.5,1708.7,1117.1z"/>
			<path class="st30" d="M1701.2,1114.1c-1-0.4-2-0.7-2.9-1.2c-0.5-0.2-0.6-0.7-0.2-1.2c0.2-0.2,0.2-0.6,0.5-0.9
				c0.5-0.7,0.9-1.6,1.6-2.1c0.8-0.8,1.7-1.4,2.7-2c1-0.6,2-1.6,3.4-1.5c1.2,0.1,2.3-0.3,3.5,0.2c2.5,1.1,4.9,2.1,7.3,3.3
				c2.7,1.2,5.3,2.7,7,5.3c0.9,1.3,2.3,2.5,2.5,4.2c0.1,0.5,0.2,1.1,0.3,1.6c0.4,1.9,0.9,3.7,0.3,5.6c-0.2,0.5-0.2,1.1-0.3,1.7
				c-0.3,1.3-0.7,2.6-1.1,3.9c-0.3,1-0.9,2-0.9,3c-0.3,2.7-0.5,5.4-0.6,8c-0.2,3.1-0.3,6.2-0.5,9.4c-0.1,0.8-0.3,1.6-0.7,2.2
				c-0.7,0.9-1.6,1.6-2.3,2.5c-0.4,0.4-0.9,0.6-1.4,0.7c-1.3,0.2-2.7,0.3-4,0.5c-0.9,0.1-0.9,0.1-1.2-0.8c-0.2-0.8-0.4-1.6-0.5-2.4
				c-0.5-2.7-1.1-5.5-1.5-8.3c-0.3-2.7-0.6-5.6-0.5-8.3c0-4.1,0.2-8.3,0.4-12.6c0-1.2,0.2-2.4-0.3-3.5c-0.8-1.6-1.7-3-3.1-4
				c-0.2-0.2-0.2-0.4-0.4-0.5c0.9,0.8,1.8,1.5,2.5,2.3c1.2,1.2,1.8,2.8,1.7,4.6c-0.2,2.7-0.4,5.4-0.4,8.1c0,2.5,0,5,0.2,7.5
				c0.2,2.8,0.7,5.5,1.2,8.3c0.3,1.9,0.7,3.7,1.1,5.5c0.1,0.5,0.2,0.5,0.8,0.5c1.2-0.2,2.6-0.2,3.8-0.2c0.5,0,1.2,0.2,1.5-0.1
				c0.6-0.5,1.3-1.2,1.6-1.9c0.5-1.4,0.6-2.8,0.8-4.2c0.3-3.7,0.6-7.3,0.9-10.9c0.2-2,0.4-4.1,1.2-6.1c0.1-0.4,0.3-0.8,0.4-1.2
				c0.2-0.9,0.3-1.8,0.5-2.7c0.5-2.1,0.9-4.3,0.2-6.5c-0.3-0.8-0.3-1.6-0.8-2.3c-0.9-1.4-1.9-2.7-2.9-4.1c-0.5-0.5-0.9-1.2-1.4-1.6
				c-3.6-2.6-7.5-4.6-11.7-6.1c-2.1-0.7-4.2-1-6,0.9c-0.2,0.1-0.2,0.2-0.3,0.2c-1,0.9-2.3,1.5-3,2.7c-0.3,0.6-0.5,1.3-0.9,1.9
				c-0.4,0.5-0.2,0.9,0.3,1.1c0.8,0.3,1.6,0.6,2.3,1C1701.4,1113.8,1701.3,1113.9,1701.2,1114.1z"/>
			<path class="st30" d="M1701.9,1113.8c0.2,0,0.4,0.1,0.5,0.1C1702.2,1113.9,1702.1,1113.9,1701.9,1113.8z"/>
			<path class="st30" d="M1706.5,1116c0.2,0.1,0.3,0.1,0.5,0.2C1706.8,1116.2,1706.7,1116.1,1706.5,1116z"/>
			<path class="st30" d="M1705.2,1115.1c0.2,0.1,0.3,0.2,0.5,0.3C1705.5,1115.3,1705.3,1115.2,1705.2,1115.1z"/>
			<path class="st30" d="M1707.2,1116.2c0.1,0.2,0.2,0.2,0.2,0.4C1707.4,1116.6,1707.3,1116.4,1707.2,1116.2z"/>
			<path class="st30" d="M1705.9,1115.5c0.1,0.2,0.2,0.2,0.2,0.4C1706,1115.8,1706,1115.6,1705.9,1115.5z"/>
			<path class="st31" d="M1646.4,1083.4c0.8,0.4,1.6,0.7,2.4,1.1c1.2,0.5,2.3,1.2,3,2.5c0.6,1.1,1.2,2,1.9,3
				c0.2,0.5,0.2,1.2-0.2,1.4c-0.7,0.3-1.4,0.6-2.1,0.8c-0.9,0.2-1.8,0.2-2.7,0.3c-3.3,0.5-6.5,0.9-9.7,1.3c-2,0.3-3.9,0-5.7-0.7
				c-0.2,0-0.3-0.1-0.4-0.2c-0.5-0.5-1.1-0.9-1.6-1.5c-1.1-1-1.2-3.4-0.2-4.4c1.2-1.2,2.3-2.3,3.6-3.4c0.4-0.4,1-0.7,1.6-0.8
				c1.8-0.2,3.7-0.2,5.5-0.2c1.6,0.1,3.3,0.5,4.9,0.7C1646.5,1083.5,1646.5,1083.5,1646.4,1083.4z M1641.4,1093.2
				c2.2,0.1,4.2-0.8,6.3-1.1c0.8-0.1,1.4-0.4,2.2-0.6c0.9-0.3,1.2-1.2,0.5-2c-0.5-0.6-0.9-1.2-1.2-1.8c-1-1.6-2.3-2.5-4.1-2.7
				c-2.3-0.2-4.4-0.6-6.7-0.4c-0.9,0.1-1.7,0.3-2.4,1.1c-0.9,1-1.9,2-2.8,2.9c-0.4,0.4-0.5,0.9-0.1,1.2c1.1,1.2,2.2,2.3,4.1,3
				C1638.3,1093.4,1640,1093.2,1641.4,1093.2z"/>
			<path class="st32" d="M1700.3,1112.7c-0.2-0.2-0.5-0.6-0.4-0.8c0.5-1.1,1-2.2,1.8-3c1.1-1.2,2.4-2,4.1-2.1c0.5,0,1.2-0.2,1.6-0.1
				c1.6,0.6,3.1,1.3,4.7,2.1c2,1,3.8,2,5.7,3.1c1,0.6,2,1.2,2.8,2.2c1,1.2,2,2.6,2.8,3.8c0.8,1.2,1.6,2.3,1.4,3.8
				c-0.2,1.2-0.3,2.3-0.5,3.4c-0.2,0.9-0.1,1.9-0.4,2.6c-1.2,2.7-1.4,5.6-1.7,8.4c-0.5,3.4-0.9,7-1.2,10.5c-0.2,0.9-0.3,1.9-0.5,2.7
				c-0.2,0.5-0.4,0.5-0.9,0.5c-1.1-0.2-2.2-0.3-3.3-0.5c-1.6-0.2-1.7-0.1-2-1.7c-0.7-4.1-1.7-8.3-1.8-12.6c-0.1-3.1,0-6.3,0.1-9.4
				c0.1-1.8,0.2-3.6-0.7-5.2c-0.8-1.4-1.9-2.5-3.1-3.5c-1.9-1.4-3.9-2.7-6.2-3.3C1701.7,1113.4,1701,1113,1700.3,1112.7z
				 M1701.4,1112.8c1.7,0.3,3.1,1.3,4.7,2.1c1.8,0.9,3.4,2.3,4.8,3.8c1.2,1.2,1.7,2.7,2.2,4.4c0.6,2.3,0.2,4.4,0.2,6.6
				c0.2,2.9,0.1,5.7,0.2,8.5c0.2,2.3,0.8,4.6,1.2,6.8c0.1,0.3,0.4,0.5,0.6,0.7c0.2,0,0.6-0.2,0.8-0.3c1.2-1.5,2.4-2.9,3.4-4.4
				c0.5-0.7,0.5-1.6,0.6-2.5c0.5-2.8,0.9-5.7,1.3-8.5c0.1-0.6,0.2-1.3,0.5-2c0.7-1.7,1-3.4,0.9-5.2c-0.1-2-0.9-3.6-1.9-5.2
				c-1.5-2.3-3.7-3.7-5.9-5.1c-1.7-1.1-3.6-2-5.4-2.9c-0.8-0.4-1.5-0.8-2.3-1.1c-0.4-0.2-0.9-0.2-1.3-0.2c-1.1,0.2-2.1,0.5-3,0.8
				c-0.4,0.2-0.8,0.3-0.9,0.6c-0.5,0.6-0.9,1.4-1.2,1.9C1700.7,1112.3,1700.8,1112.7,1701.4,1112.8z"/>
			<path class="st28" d="M1633.2,1089.9c-0.5-0.5-0.3-0.9,0.1-1.2c0.9-0.9,1.9-1.9,2.8-2.9c0.7-0.7,1.5-1,2.4-1.1
				c2.3-0.3,4.4,0.2,6.7,0.4c1.9,0.2,3.2,1.1,4.1,2.7c0.4,0.6,0.8,1.2,1.2,1.8c0.6,0.8,0.5,1.6-0.5,2c-0.7,0.2-1.5,0.5-2.2,0.6
				c-2.1,0.4-4.1,1.2-6.3,1.1c-1.6-0.1-3.2,0.2-4.2-0.2C1635.3,1092.2,1634.3,1091,1633.2,1089.9z M1638.3,1086.3
				c-0.9,0.3-2,1.9-1.7,2.9c0.2,0.7,0.5,1.2,0.6,1.9c0.3,0.9,1.1,1.3,2.1,1.4c2.3,0.2,4.6-0.1,6.9-0.8c0.5-0.2,1.1-0.2,1.6-0.4
				c0.3-0.2,0.7-0.4,0.9-0.7c0.2-0.2,0.1-0.6-0.1-0.7c-1.6-1.2-3.4-2.5-4.7-3.4C1641.7,1085.8,1640,1085.9,1638.3,1086.3z"/>
			<path class="st33" d="M1702.1,1109.6c0.2-0.3,0.6-0.5,0.9-0.6c1-0.3,2-0.5,3-0.8c0.4-0.1,0.9,0,1.3,0.2c0.8,0.3,1.6,0.7,2.3,1.1
				c1.8,0.9,3.7,1.8,5.4,2.9c2.3,1.4,4.4,2.8,5.9,5.1c1,1.6,1.7,3.4,1.9,5.2c0.1,1.7-0.2,3.6-0.9,5.2c-0.2,0.6-0.4,1.2-0.5,2
				c-0.5,2.8-0.9,5.7-1.3,8.5c-0.2,0.9-0.2,1.8-0.6,2.5c-1,1.6-2.3,3-3.4,4.4c-0.2,0.2-0.6,0.5-0.8,0.3c-0.3-0.1-0.5-0.5-0.6-0.7
				c-0.5-2.3-1-4.5-1.2-6.8c-0.2-2.8-0.2-5.7-0.2-8.5c-0.2-2.2,0.3-4.4-0.2-6.6c-0.4-1.6-0.9-3.1-2.2-4.4c-1.5-1.5-3-2.8-4.8-3.8
				c-1.5-0.8-2.9-1.8-4.7-2.1c-0.7-0.2-0.9-0.5-0.5-1.4C1701.3,1110.9,1701.7,1110.2,1702.1,1109.6z M1717.6,1134.3
				c0.5-0.7,1.1-1.3,1.6-2.1c0.3-0.5,0.5-1.2,0.6-1.7c0.4-1.4,0.5-2.9,1-4.2c0.3-0.9,0.3-1.7,0.1-2.6c-0.7-2-1.2-4.2-2-6.2
				c-0.2-0.5-0.9-1.1-1.5-1.4c-1.9-1.3-3.7-2.6-5.7-3.7c-1.2-0.8-2.5-1.3-3.7-2c-0.3-0.2-0.6-0.3-0.9-0.5c-1.5-0.8-2.7-0.2-3.7,0.9
				c-0.3,0.4-0.7,0.7-1.1,1c-0.5,0.4-0.3,0.7,0.2,0.9c0.9,0.4,1.7,0.9,2.6,1.2c3,1.5,5.7,3.4,7.7,6.2c1.5,2.1,1.6,4.4,1.6,6.9
				c0,2.8,0,5.6,0.1,8.4c0,0.7,0,1.3,0.1,2c0,0.2,0.1,0.4,0.2,0.6C1715.7,1136.8,1716.6,1135.4,1717.6,1134.3z"/>
			<path class="st34" d="M1648.6,1089.9c0.1,0.2,0.2,0.5,0.1,0.7c-0.2,0.3-0.5,0.6-0.9,0.7c-0.5,0.2-1.1,0.2-1.6,0.4
				c-2.2,0.8-4.5,1-6.9,0.8c-0.9-0.1-1.7-0.5-2.1-1.4c-0.2-0.6-0.5-1.2-0.6-1.9c-0.2-1,0.7-2.7,1.7-2.9c1.7-0.5,3.4-0.4,5.5,0.2
				C1645.2,1087.4,1646.9,1088.6,1648.6,1089.9z"/>
			<path class="st35" d="M1714.5,1137.4c0-0.6-0.1-1.3-0.1-2c0-2.8-0.1-5.6-0.1-8.4c0-2.4-0.2-4.8-1.6-6.9c-2-2.8-4.7-4.8-7.7-6.2
				c-0.9-0.4-1.7-0.9-2.6-1.2c-0.5-0.2-0.6-0.5-0.2-0.9c0.4-0.3,0.7-0.6,1.1-1c1.1-1,2.2-1.7,3.7-0.9c0.3,0.2,0.6,0.3,0.9,0.5
				c1.2,0.6,2.5,1.2,3.7,2c1.9,1.2,3.7,2.5,5.7,3.7c0.5,0.4,1.2,0.9,1.5,1.4c0.8,2,1.4,4.1,2,6.2c0.2,0.9,0.2,1.6-0.1,2.6
				c-0.5,1.4-0.6,2.8-1,4.2c-0.2,0.6-0.4,1.2-0.6,1.7c-0.5,0.7-1.1,1.4-1.6,2.1c-0.9,1.3-2,2.6-3,4
				C1714.6,1137.9,1714.6,1137.7,1714.5,1137.4z"/>
		</g>
		<g>
			<g>
				<polygon class="st36" points="1869.5,1008.8 1799.2,1130.2 1677.4,1129.8 1747.8,1008.4 				"/>
			</g>
		</g>
		<g>
			<g>
				<g>
					<polygon class="st37" points="1753.1,1019.8 1677.1,887.2 1753.5,887.9 					"/>
				</g>
				<g>
					<polygon class="st3" points="1753.5,887.9 1876.8,887.9 1876.3,1019.9 1753.1,1019.8 					"/>
				</g>
			</g>
		</g>
		<g>
			<polygon class="st0" points="1747.8,1008.4 1676.9,1130.7 1617,1025.3 1687.8,903.1 			"/>
		</g>
		<g>
			
				<radialGradient id="SVGID_3_" cx="5305.0073" cy="-2241.8015" r="26.93" gradientTransform="matrix(-0.9886 -0.1505 -0.1505 0.9886 6598.103 4013.4697)" gradientUnits="userSpaceOnUse">
				<stop  offset="2.066799e-05" style="stop-color:#F9F1E5"/>
				<stop  offset="1" style="stop-color:#CCBDA8"/>
			</radialGradient>
			<path class="st38" d="M1678.9,972.8c0,0-13.2,19.6,0.6,40.4c13.7,20.8,28,2.1,28,2.1"/>
			
				<radialGradient id="SVGID_4_" cx="5301.2212" cy="-2265.5164" r="7.2816" gradientTransform="matrix(-0.9886 -0.1505 -0.1505 0.9886 6598.103 4013.4697)" gradientUnits="userSpaceOnUse">
				<stop  offset="2.066799e-05" style="stop-color:#F9F1E5"/>
				<stop  offset="1" style="stop-color:#CCBDA8"/>
			</radialGradient>
			<path class="st39" d="M1703.5,977.8c-2.2,4.3-6.3,6.9-9.1,5.8c-2.9-1.2-3.4-5.5-1.2-9.8c2.2-4.3,6.3-6.9,9.1-5.8
				C1705.1,969.2,1705.7,973.5,1703.5,977.8z"/>
			
				<radialGradient id="SVGID_5_" cx="5292.2559" cy="-2254.1843" r="7.2805" gradientTransform="matrix(-0.9886 -0.1505 -0.1505 0.9886 6598.103 4013.4697)" gradientUnits="userSpaceOnUse">
				<stop  offset="2.066799e-05" style="stop-color:#F9F1E5"/>
				<stop  offset="1" style="stop-color:#CCBDA8"/>
			</radialGradient>
			<path class="st40" d="M1710.6,990.4c-2.2,4.3-6.3,6.9-9.1,5.8c-2.8-1.1-3.4-5.5-1.2-9.8c2.2-4.3,6.3-6.9,9.1-5.8
				C1712.2,981.7,1712.8,986.1,1710.6,990.4z"/>
		</g>
	</g>
	<g>
		
			<radialGradient id="SVGID_6_" cx="5251.7803" cy="-2171.7759" r="49.0647" gradientTransform="matrix(-0.9886 -0.1505 -0.1505 0.9886 6598.103 4013.4697)" gradientUnits="userSpaceOnUse">
			<stop  offset="2.066799e-05" style="stop-color:#F9F1E5"/>
			<stop  offset="1" style="stop-color:#CCBDA8"/>
		</radialGradient>
		<path class="st41" d="M1773.4,1051.8c-0.3,9.8-4.1,19.6-30.3,31.8c-26.1,12.2-48.5-15.4-48.5-15.4s-11.7-6.4-19.3,5.7
			c-7.6,12.2,2,17.6,2,17.6c106.7,62.5,118.1-31.8,118.1-31.8C1799.4,1048.2,1773.8,1042,1773.4,1051.8z"/>
		
			<radialGradient id="SVGID_7_" cx="5305.2612" cy="-2165.2131" r="19.4431" gradientTransform="matrix(-0.9886 -0.1505 -0.1505 0.9886 6598.103 4013.4697)" gradientUnits="userSpaceOnUse">
			<stop  offset="2.066799e-05" style="stop-color:#F9F1E5"/>
			<stop  offset="1" style="stop-color:#CCBDA8"/>
		</radialGradient>
		<circle class="st42" cx="1679.2" cy="1074.4" r="19.4"/>
		
			<radialGradient id="SVGID_8_" cx="5301.2852" cy="-2186.908" r="6.8531" gradientTransform="matrix(-0.9886 -0.1505 -0.1505 0.9886 6598.103 4013.4697)" gradientUnits="userSpaceOnUse">
			<stop  offset="2.066799e-05" style="stop-color:#F9F1E5"/>
			<stop  offset="1" style="stop-color:#CCBDA8"/>
		</radialGradient>
		<circle class="st43" cx="1686.5" cy="1053.6" r="6.9"/>
	</g>
</g>
</svg>
