<svg xmlns="http://www.w3.org/2000/svg" viewBox="0 0 62.7 25.9"><style type="text/css">  
	.st0{fill:#D1A250;}
	.st1{fill-rule:evenodd;clip-rule:evenodd;fill:#D1A250;}
</style><path class="st0" d="M58.5 5.6h0.3c0.1 0 0.2 0 0.2-0.1 0 0 0.1-0.1 0.1-0.1 0 0 0-0.1 0-0.1 0 0-0.1-0.1-0.1-0.1 0 0-0.1 0-0.2 0h-0.2L58.5 5.6zM58.3 6.3V5h0.4c0.1 0 0.3 0 0.3 0 0.1 0 0.1 0.1 0.2 0.1 0 0.1 0.1 0.1 0.1 0.2 0 0.1 0 0.2-0.1 0.2 -0.1 0.1-0.2 0.1-0.3 0.1 0 0 0.1 0 0.1 0.1 0 0 0.1 0.1 0.2 0.3l0.2 0.3h-0.3L59 6.1c-0.1-0.2-0.2-0.3-0.2-0.3 0 0-0.1 0-0.2 0h-0.1v0.5L58.3 6.3 58.3 6.3zM58.8 4.6c-0.2 0-0.3 0-0.5 0.1S58 5 57.9 5.1c-0.1 0.2-0.1 0.3-0.1 0.5 0 0.2 0 0.3 0.1 0.5 0.1 0.2 0.2 0.3 0.4 0.4 0.1 0.1 0.3 0.1 0.5 0.1s0.3 0 0.5-0.1c0.2-0.1 0.3-0.2 0.4-0.4 0.1-0.2 0.1-0.3 0.1-0.5s0-0.3-0.1-0.5c-0.1-0.2-0.2-0.3-0.4-0.4C59.1 4.7 59 4.6 58.8 4.6M58.8 4.4c0.2 0 0.4 0.1 0.6 0.2 0.2 0.1 0.3 0.3 0.4 0.4C59.9 5.2 60 5.4 60 5.6c0 0.2-0.1 0.4-0.2 0.6 -0.1 0.2-0.3 0.3-0.4 0.4 -0.2 0.1-0.4 0.2-0.6 0.2 -0.2 0-0.4-0.1-0.6-0.2 -0.2-0.1-0.3-0.3-0.4-0.4 -0.1-0.2-0.2-0.4-0.2-0.6s0.1-0.4 0.2-0.6c0.1-0.2 0.3-0.3 0.4-0.4C58.4 4.5 58.6 4.4 58.8 4.4"/><path class="st1" d="M9.4 4.9C8.8 5 8.2 5.1 7.7 5.3c-2.2 0.9-3.8 2.9-4.5 5.4C3.1 11.1 3 11.6 2.9 12c0 0 0 0.5 0 0.4C3 12.3 3.1 12.1 3.1 12c0.3-1.1 0.7-2.2 1.4-3.2C6 6.6 8.4 5.2 11 6c0.5 0.2 0.9 0.4 1.3 0.7 0.1 0.1 0.7 0.5 0.5 0.1 -0.1-0.3-0.4-0.6-0.6-0.9C11.4 5.2 10.4 4.9 9.4 4.9L9.4 4.9zM28.2 7.2c-0.3 0-0.6 0.1-0.8 0.4 -0.2 0.2-0.3 0.6-0.3 1v3.3c-0.4-0.5-0.9-0.8-1.3-1 -0.3-0.1-0.6-0.2-1-0.3 -0.2 0-0.4 0-0.7 0 -1.1 0-2 0.4-2.7 1.2 -0.7 0.8-1 1.9-1 3.3 0 0.7 0.1 1.3 0.3 1.9 0.2 0.6 0.4 1.1 0.8 1.5 0.3 0.4 0.7 0.7 1.2 1 0.5 0.2 1 0.3 1.5 0.3 0.2 0 0.5 0 0.7-0.1 0.1 0 0.3-0.1 0.4-0.1 0.3-0.1 0.7-0.3 1-0.5 0.3-0.2 0.6-0.5 0.9-0.9v0.2c0 0.4 0.1 0.7 0.3 1 0.2 0.2 0.5 0.3 0.8 0.3 0.3 0 0.6-0.1 0.8-0.3 0.2-0.2 0.3-0.5 0.3-1v-10c0-0.4-0.1-0.7-0.3-1C28.8 7.3 28.5 7.2 28.2 7.2L28.2 7.2zM55.8 7.2c-0.3 0-0.6 0.1-0.8 0.4 -0.2 0.2-0.3 0.6-0.3 1v3.3c-0.4-0.5-0.9-0.8-1.3-1 -0.3-0.1-0.6-0.2-1-0.3 -0.2 0-0.4 0-0.7 0 -1.1 0-2 0.4-2.7 1.2 -0.7 0.8-1 1.9-1 3.3 0 0.7 0.1 1.3 0.3 1.9 0.2 0.6 0.4 1.1 0.8 1.5 0.3 0.4 0.7 0.7 1.2 1 0.5 0.2 1 0.3 1.5 0.3 0.2 0 0.5 0 0.7-0.1 0.1 0 0.3-0.1 0.4-0.1 0.3-0.1 0.7-0.3 1-0.5 0.3-0.2 0.6-0.5 0.9-0.9v0.2c0 0.4 0.1 0.7 0.3 1 0.2 0.2 0.5 0.3 0.8 0.3 0.3 0 0.6-0.1 0.8-0.3 0.2-0.2 0.3-0.5 0.3-1v-10c0-0.4-0.1-0.7-0.3-1C56.4 7.3 56.2 7.2 55.8 7.2L55.8 7.2zM8.9 7.8C8.5 7.8 8.2 7.8 8 8 7 8.4 6.7 9.6 7.1 10.5c0.5 0.9 1.6 1.3 2.5 0.8 0.9-0.5 1.3-1.6 0.8-2.5C10.2 8.2 9.5 7.8 8.9 7.8L8.9 7.8zM34.4 10.5c-0.7 0-1.2 0.1-1.8 0.3 -0.6 0.2-1 0.5-1.4 0.9 -0.4 0.4-0.7 0.9-0.9 1.5 -0.2 0.6-0.3 1.2-0.3 1.9 0 1.4 0.4 2.5 1.2 3.4 0.8 0.8 1.8 1.2 3.2 1.2 0.1 0 0.2 0 0.2 0 0.6 0 1.2-0.1 1.7-0.2 0.5-0.2 0.9-0.4 1.2-0.6 0.3-0.3 0.6-0.5 0.7-0.8 0.2-0.3 0.2-0.5 0.2-0.7 0-0.2-0.1-0.4-0.2-0.5 -0.1-0.1-0.3-0.2-0.6-0.2 -0.2 0-0.4 0.1-0.5 0.1 -0.2 0.2-0.5 0.4-0.7 0.6 -0.2 0.2-0.4 0.3-0.6 0.4 -0.2 0.1-0.4 0.2-0.7 0.3 -0.2 0.1-0.5 0.1-0.7 0.1 -0.1 0-0.1 0-0.2 0 -0.3 0-0.7-0.1-0.9-0.3 -0.3-0.2-0.6-0.5-0.8-0.9 -0.2-0.4-0.3-0.9-0.3-1.4h4.4c0.6 0 1-0.1 1.4-0.2 0.3-0.2 0.5-0.5 0.5-1.1 0-0.6-0.2-1.2-0.5-1.8 -0.3-0.6-0.8-1.1-1.4-1.4C36.1 10.7 35.4 10.5 34.4 10.5L34.4 10.5 34.4 10.5zM43.5 10.5c-0.7 0-1.3 0.1-1.8 0.3 -0.6 0.2-1 0.5-1.4 0.9 -0.4 0.4-0.7 0.9-0.9 1.5 -0.2 0.6-0.3 1.2-0.3 1.9 0 1.4 0.4 2.5 1.2 3.4 0.8 0.8 1.8 1.2 3.2 1.2 0.1 0 0.2 0 0.2 0 0.6 0 1.2-0.1 1.7-0.2 0.5-0.2 0.9-0.4 1.2-0.6 0.3-0.3 0.6-0.5 0.7-0.8 0.2-0.3 0.2-0.5 0.2-0.7 0-0.2-0.1-0.4-0.2-0.5 -0.1-0.1-0.3-0.2-0.6-0.2 -0.2 0-0.4 0.1-0.5 0.1 -0.3 0.3-0.5 0.5-0.7 0.6 -0.2 0.2-0.4 0.3-0.6 0.4 -0.2 0.1-0.4 0.2-0.6 0.3 -0.2 0.1-0.5 0.1-0.7 0.1 -0.1 0-0.1 0-0.2 0 -0.3 0-0.7-0.1-0.9-0.3 -0.3-0.2-0.6-0.5-0.8-0.9 -0.2-0.4-0.3-0.9-0.3-1.4h4.4c0.6 0 1.1-0.1 1.4-0.2 0.3-0.2 0.5-0.5 0.5-1.1 0-0.6-0.2-1.2-0.5-1.8 -0.3-0.6-0.8-1.1-1.4-1.4C45.2 10.7 44.4 10.5 43.5 10.5L43.5 10.5 43.5 10.5zM12.7 10.5c-0.3 0-0.6 0.1-0.8 0.3 -0.2 0.2-0.3 0.5-0.3 1v6.5c0 0.4 0.1 0.8 0.3 1 0.2 0.2 0.5 0.4 0.8 0.4 0.3 0 0.6-0.1 0.8-0.3 0.2-0.2 0.3-0.6 0.3-1v-2.8c0-0.9 0.1-1.6 0.2-1.9 0.2-0.4 0.4-0.8 0.7-1 0.3-0.2 0.7-0.4 1.1-0.4 0.6 0 1 0.2 1.2 0.6 0.2 0.4 0.3 1 0.3 1.7v3.8c0 0.4 0.1 0.8 0.3 1 0.2 0.2 0.5 0.4 0.8 0.4 0.3 0 0.6-0.1 0.8-0.4 0.2-0.2 0.3-0.6 0.3-1v-4.2c0-0.5 0-0.9-0.1-1.2 0-0.3-0.1-0.6-0.3-0.9 -0.2-0.5-0.6-0.8-1-1.1 -0.5-0.3-1-0.4-1.6-0.4 -0.6 0-1.2 0.1-1.6 0.4 -0.5 0.2-0.9 0.6-1.3 1.2v-0.3c0-0.3 0-0.5-0.1-0.7 -0.1-0.2-0.2-0.3-0.4-0.4C13 10.6 12.9 10.5 12.7 10.5L12.7 10.5zM34.4 12.1L34.4 12.1c0.6 0 1.1 0.2 1.4 0.6 0.4 0.4 0.6 1 0.6 1.7h-4.1c0.1-0.8 0.3-1.3 0.7-1.7C33.4 12.3 33.8 12.1 34.4 12.1L34.4 12.1zM43.5 12.1L43.5 12.1c0.6 0 1.1 0.2 1.4 0.6 0.4 0.4 0.6 1 0.6 1.7h-4.1c0.1-0.8 0.3-1.3 0.7-1.7C42.4 12.3 42.9 12.1 43.5 12.1L43.5 12.1zM24.8 12.2L24.8 12.2c0.4 0 0.8 0.1 1.1 0.3 0.3 0.2 0.6 0.6 0.8 1 0.2 0.4 0.3 1 0.3 1.6 0 0.6-0.1 1.2-0.3 1.6 -0.2 0.4-0.5 0.7-0.8 0.9 -0.3 0.2-0.7 0.3-1.1 0.3h0c-0.4 0-0.8-0.1-1.1-0.3 -0.3-0.2-0.6-0.5-0.8-1 -0.2-0.4-0.3-1-0.3-1.6 0-0.6 0.1-1.1 0.3-1.5 0.2-0.4 0.4-0.8 0.8-1C24 12.3 24.4 12.2 24.8 12.2L24.8 12.2zM52.5 12.2L52.5 12.2c0.4 0 0.8 0.1 1.1 0.3 0.3 0.2 0.6 0.6 0.8 1 0.2 0.4 0.3 1 0.3 1.6 0 0.6-0.1 1.2-0.3 1.6 -0.2 0.4-0.5 0.7-0.8 0.9 -0.3 0.2-0.7 0.3-1.1 0.3h0c-0.4 0-0.8-0.1-1.1-0.3 -0.3-0.2-0.6-0.5-0.8-1 -0.2-0.4-0.3-1-0.3-1.6 0-0.6 0.1-1.1 0.3-1.5 0.2-0.4 0.4-0.8 0.8-1C51.7 12.3 52 12.2 52.5 12.2L52.5 12.2zM10.1 12.3c-0.6 0.4-1.3 0.6-2 0.6 -0.2 0-0.3 0-0.5 0v5.4c0 0.5 0.1 0.9 0.3 1.1 0.2 0.3 0.5 0.4 0.9 0.4 0.4 0 0.7-0.1 0.9-0.4 0.2-0.2 0.3-0.6 0.3-1.1L10.1 12.3 10.1 12.3z"/></svg>
 