<?xml version="1.0" encoding="utf-8"?>
<!-- Generator: Adobe Illustrator 24.2.1, SVG Export Plug-In . SVG Version: 6.00 Build 0)  -->
<svg version="1.1" id="Layer_1" xmlns="http://www.w3.org/2000/svg" xmlns:xlink="http://www.w3.org/1999/xlink" x="0px" y="0px"
	 viewBox="0 0 100 100" style="enable-background:new 0 0 100 100;" xml:space="preserve">
<style type="text/css">
	.st0{fill:#0E232E;}
	.st1{fill:none;stroke:#0E232E;stroke-miterlimit:10;}
</style>
<g>
	<path class="st0" d="M28.7,67.8l-1.5,1.5v2.4h-1.7v-9.2h1.7v4.7l4.6-4.7h1.9l-3.8,4.1l4.1,5.1h-2L28.7,67.8z"/>
	<path class="st0" d="M34.2,67.1c0-2.7,2.1-4.7,4.9-4.7c2.8,0,4.9,2,4.9,4.7c0,2.7-2.1,4.7-4.9,4.7C36.3,71.9,34.2,69.8,34.2,67.1z
		 M42.3,67.1c0-1.9-1.3-3.2-3.2-3.2s-3.2,1.3-3.2,3.2s1.3,3.2,3.2,3.2C41,70.3,42.3,69,42.3,67.1z"/>
	<path class="st0" d="M53.9,62.5l-4,9.2h-1.7l-4-9.2h1.9l3.1,7.1l3.1-7.1H53.9z"/>
	<path class="st0" d="M60.6,69.6H56l-0.9,2.1h-1.7l4.1-9.2h1.7l4.2,9.2h-1.8L60.6,69.6z M60,68.2l-1.7-4l-1.7,4H60z"/>
	<path class="st0" d="M65.9,64h-3v-1.4h7.8V64h-3v7.8H66C65.9,71.8,65.9,64,65.9,64z"/>
	<path class="st0" d="M71,70.7l0.6-1.3c0.7,0.6,1.9,1,3,1c1.4,0,2.1-0.5,2.1-1.2c0-2-5.5-0.7-5.5-4.1c0-1.5,1.2-2.8,3.7-2.8
		c1.1,0,2.2,0.3,3.1,0.8l-0.5,1.3c-0.8-0.5-1.7-0.7-2.5-0.7c-1.4,0-2,0.6-2,1.2c0,1.9,5.5,0.7,5.5,4c0,1.5-1.2,2.7-3.7,2.7
		C73.3,71.8,71.8,71.4,71,70.7z"/>
</g>
<polygon class="st0" points="55.7,46.3 55.7,54.7 59.4,52.6 59.4,44.2 "/>
<polygon class="st1" points="65.6,36.1 51.1,27.6 43,23 34.9,36.9 35,49.9 49.6,58.3 51,57.4 51,45.2 57.5,33.8 64.1,37.6 
	64.2,49.9 65.7,49 "/>
</svg>
