<?xml version="1.0" encoding="utf-8"?>
<!-- Generator: Adobe Illustrator 24.2.1, SVG Export Plug-In . SVG Version: 6.00 Build 0)  -->
<svg version="1.1" id="Layer_1" xmlns="http://www.w3.org/2000/svg" xmlns:xlink="http://www.w3.org/1999/xlink" x="0px" y="0px"
	 viewBox="0 0 100 100" style="enable-background:new 0 0 100 100;" xml:space="preserve">
<style type="text/css">
	.st0{enable-background:new    ;}
	.st1{fill:#D1A250;}
	.st2{fill:none;stroke:#D1A250;stroke-miterlimit:10;}
</style>
<g class="st0">
	<path class="st1" d="M15.4,79.9l-2.3,2.3v3.7h-2.7V71.6h2.7V79l7.1-7.3h3l-6,6.4l6.4,7.9h-3.1L15.4,79.9z"/>
	<path class="st1" d="M23.9,78.8c0-4.2,3.3-7.4,7.7-7.4s7.7,3.1,7.7,7.4c0,4.2-3.3,7.4-7.7,7.4S23.9,83,23.9,78.8z M36.6,78.8
		c0-2.9-2.1-5-5-5s-5,2.1-5,5c0,2.9,2.1,5,5,5S36.6,81.7,36.6,78.8z"/>
	<path class="st1" d="M54.7,71.6l-6.2,14.3h-2.6l-6.3-14.3h2.9l4.8,11l4.8-11H54.7z"/>
	<path class="st1" d="M65.1,82.6h-7.2l-1.4,3.3h-2.7l6.4-14.3h2.6l6.5,14.3h-2.8L65.1,82.6z M64.2,80.5l-2.7-6.3l-2.7,6.3H64.2z"/>
	<path class="st1" d="M73.3,73.9h-4.7v-2.2h12.1v2.2h-4.7v12.1h-2.7V73.9z"/>
	<path class="st1" d="M81.3,84.4l0.9-2.1c1.1,0.9,3,1.6,4.7,1.6c2.2,0,3.2-0.8,3.2-1.9c0-3.1-8.5-1.1-8.5-6.4c0-2.3,1.8-4.3,5.8-4.3
		c1.7,0,3.5,0.5,4.8,1.3l-0.8,2.1c-1.3-0.8-2.7-1.1-3.9-1.1c-2.2,0-3.1,0.9-3.1,1.9c0,3,8.5,1.1,8.5,6.3c0,2.3-1.9,4.2-5.8,4.2
		C84.8,86.1,82.5,85.4,81.3,84.4z"/>
</g>
<polygon class="st1" points="57.5,46.4 57.5,59.4 63.2,56.2 63.2,43.1 "/>
<polygon class="st2" points="72.9,30.4 50.2,17.2 37.6,10 25.1,31.7 25.2,51.9 47.9,65.1 50.1,63.7 50.1,44.6 60.3,26.9 70.6,32.8 
	70.7,51.9 73,50.6 "/>
</svg>
