<?xml version="1.0" encoding="utf-8"?>
<!-- Generator: Adobe Illustrator 24.2.1, SVG Export Plug-In . SVG Version: 6.00 Build 0)  -->
<svg version="1.1" id="Layer_1" xmlns="http://www.w3.org/2000/svg" xmlns:xlink="http://www.w3.org/1999/xlink" x="0px" y="0px"
	 viewBox="0 0 100 100" style="enable-background:new 0 0 100 100;" xml:space="preserve">
<style type="text/css">
	
		.st0{opacity:0.26;fill:none;stroke:url(#SVGID_1_);stroke-width:2;stroke-linecap:round;stroke-linejoin:round;stroke-miterlimit:10;enable-background:new    ;}
	.st1{opacity:0.28;}
	.st2{fill:#BCA49A;}
	.st3{fill:none;stroke:url(#SVGID_2_);stroke-width:2;stroke-linecap:round;stroke-linejoin:round;stroke-miterlimit:10;}
	.st4{fill:none;stroke:#BCA49A;stroke-miterlimit:10;}
</style>
<linearGradient id="SVGID_1_" gradientUnits="userSpaceOnUse" x1="4.6" y1="-620.6" x2="98.2" y2="-620.6" gradientTransform="matrix(1 0 0 -1 0 -568)">
	<stop  offset="0" style="stop-color:#CCBDA8"/>
	<stop  offset="1" style="stop-color:#F9F1E5"/>
</linearGradient>
<path class="st0" d="M51.4,6.8c25.2,0,45.8,20.6,45.8,45.8S76.6,98.4,51.4,98.4S5.6,77.9,5.6,52.6S26.1,6.8,51.4,6.8z"/>
<g class="st1">
	<path class="st2" d="M50,5.2C24.5,5.2,3.8,25.9,3.8,51.4S24.5,97.6,50,97.6s46.2-20.7,46.2-46.2C96,25.9,75.5,5.2,50,5.2z"/>
</g>
<linearGradient id="SVGID_2_" gradientUnits="userSpaceOnUse" x1="3.6" y1="-619.6" x2="97.2" y2="-619.6" gradientTransform="matrix(1 0 0 -1 0 -568)">
	<stop  offset="0" style="stop-color:#CCBDA8"/>
	<stop  offset="1" style="stop-color:#F9F1E5"/>
</linearGradient>
<path class="st3" d="M50.4,5.8c25.2,0,45.8,20.6,45.8,45.8S75.6,97.4,50.4,97.4S4.6,76.9,4.6,51.6S25.1,5.8,50.4,5.8z"/>
<g>
	<path class="st2" d="M28.7,67.8l-1.5,1.5v2.4h-1.7v-9.2h1.7v4.7l4.6-4.7h1.9l-3.8,4.1l4.1,5.1h-2L28.7,67.8z"/>
	<path class="st2" d="M34.2,67.1c0-2.7,2.1-4.7,4.9-4.7c2.8,0,4.9,2,4.9,4.7c0,2.7-2.1,4.7-4.9,4.7C36.3,71.9,34.2,69.8,34.2,67.1z
		 M42.3,67.1c0-1.9-1.3-3.2-3.2-3.2s-3.2,1.3-3.2,3.2s1.3,3.2,3.2,3.2C41,70.3,42.3,69,42.3,67.1z"/>
	<path class="st2" d="M53.9,62.5l-4,9.2h-1.7l-4-9.2h1.9l3.1,7.1l3.1-7.1H53.9z"/>
	<path class="st2" d="M60.6,69.6H56l-0.9,2.1h-1.7l4.1-9.2h1.7l4.2,9.2h-1.8L60.6,69.6z M60,68.2l-1.7-4l-1.7,4H60z"/>
	<path class="st2" d="M65.9,64h-3v-1.4h7.8V64h-3v7.8H66C65.9,71.8,65.9,64,65.9,64z"/>
	<path class="st2" d="M71,70.7l0.6-1.3c0.7,0.6,1.9,1,3,1c1.4,0,2.1-0.5,2.1-1.2c0-2-5.5-0.7-5.5-4.1c0-1.5,1.2-2.8,3.7-2.8
		c1.1,0,2.2,0.3,3.1,0.8l-0.5,1.3c-0.8-0.5-1.7-0.7-2.5-0.7c-1.4,0-2,0.6-2,1.2c0,1.9,5.5,0.7,5.5,4c0,1.5-1.2,2.7-3.7,2.7
		C73.3,71.8,71.8,71.4,71,70.7z"/>
</g>
<polygon class="st2" points="55.7,46.3 55.7,54.7 59.4,52.6 59.4,44.2 "/>
<polygon class="st4" points="65.6,36.1 51.1,27.6 43,23 34.9,36.9 35,49.9 49.6,58.3 51,57.4 51,45.2 57.5,33.8 64.1,37.6 
	64.2,49.9 65.7,49 "/>
</svg>
