<?xml version="1.0" encoding="UTF-8"?>
<svg viewBox="0 0 8.344 7.286" xmlns="http://www.w3.org/2000/svg">
<path transform="translate(1079.6 120.49)" d="M-1073.321-113.7c-.005-.087-.015-.169-.016-.251-.009-.82,0-1.641-.03-2.46-.017-.474-.349-.7-.868-.661a.665.665,0,0,0-.661.628c0,.827,0,1.654,0,2.481v.255h-1.565v-4.537h1.223l.109.891.161-.177a2,2,0,0,1,1.99-.522,1.467,1.467,0,0,1,1.175,1.314c.043,1,.011,2.008.011,3.039Zm-5.771,0v-4.543h1.546v4.543Zm-.036-5.582a.757.757,0,0,1,.81-.7.77.77,0,0,1,.817.7.762.762,0,0,1-.814.677A.749.749,0,0,1-1079.128-119.287Z" fill="#1f2633" stroke="rgba(0,0,0,0)" stroke-miterlimit="10"/>
</svg>
