<?xml version="1.0" encoding="utf-8"?>
<!-- Generator: Adobe Illustrator 28.3.0, SVG Export Plug-In . SVG Version: 6.00 Build 0)  -->
<svg version="1.1" id="Layer_1" xmlns="http://www.w3.org/2000/svg" xmlns:xlink="http://www.w3.org/1999/xlink" x="0px" y="0px"
	 viewBox="0 0 100 100" style="enable-background:new 0 0 100 100;" xml:space="preserve">
<style type="text/css">
	.st0{fill:#EFC8BE;}
	.st1{fill:none;stroke:#EFC8BE;stroke-miterlimit:10;}
</style>
<g>
	<path class="st0" d="M46.2,70.3c0,2.5,0.1,4.9,0,7.3c0,0.9,0.4,1.2,1.1,1.2c2.3,0,4.5-0.1,6.8-0.1c0.7,0,0.9-0.4,0.9-1
		c0-2.1,0-4.2,0-6.2c0-0.4,0.1-0.7,0.1-1.1c0.4,0.2,0.8,0.4,1.1,0.5c2.9,1.2,5.7,2.3,8.7,3.4c0.4,0.1,1.1,0,1.5-0.2
		c2.4-1.6,4.6-3.7,6.4-6c0.1-0.2,0.2-0.4,0.4-0.7c-5.3-1-10.2-2.7-14.8-5.3c2.1-2.2,4-4.3,6-6.5c0.1-0.1,0.7-0.2,0.9-0.1
		c1.1,0.4,2.1,1,3.2,1.2c2.6,0.7,5.4,1.3,8.1,2c0.4,0.1,1,0.3,1.1-0.4c0.7-2.6,1.1-5.3,1-8.1c-1-0.1-2-0.3-2.9-0.5
		c-13-2.6-23.1-13.1-25.2-26.2C50.4,22.2,50,22,49,22c-2.5,0.1-4.9,0.5-7.3,1.3c0.6,4.2,1.8,8,3.5,11.8c0.3,0.7,0.2,1-0.1,1.6
		c-4.4,5.9-10.1,9.8-17.2,11.8c-1.9,0.5-4,0.8-6,1.2c-0.1,3,0.4,5.9,1.2,9c11.2-1.2,20.3-6.1,27.5-14.5c2.2,2.1,4.3,4.2,6.5,6.2
		c-7.9,9.1-17.8,14.7-29.7,17c1.6,1.8,3.2,3.5,5,5.1c2.6,2.3,2.6,2.2,5.9,1C40.8,72.6,43.5,71.5,46.2,70.3z M23.7,40.3
		c9.3-1.5,16.4-9.8,17.6-16.7C33,26.5,27.1,32,23.7,40.3z M59.8,23.7c1.7,8.1,9.2,15.4,17,16.7C73.6,32.5,67.9,27,59.8,23.7z"/>
	<path class="st0" d="M46.2,70.3c-2.8,1.1-5.4,2.2-8,3.2c-3.2,1.2-3.2,1.2-5.9-1c-1.8-1.5-3.4-3.2-5-5.1
		c11.9-2.3,21.7-7.9,29.7-16.9c-2.2-2.1-4.3-4.1-6.5-6.2c-7.2,8.4-16.3,13.3-27.5,14.5c-1-2.9-1.3-5.9-1.2-9c2.1-0.4,4-0.7,6-1.2
		c7.1-2,12.8-5.9,17.2-11.8c0.4-0.5,0.4-1,0.1-1.6c-1.8-3.7-2.9-7.6-3.5-11.8c2.4-0.8,4.8-1.2,7.3-1.3c1-0.1,1.3,0.1,1.5,1.2
		c2.1,13.1,12.2,23.6,25.2,26.2c1,0.2,1.9,0.3,2.9,0.5c0.1,2.8-0.3,5.4-1,8.1c-0.1,0.7-0.7,0.5-1.1,0.4c-2.7-0.7-5.4-1.2-8.1-2
		c-1.1-0.3-2.1-0.9-3.2-1.2c-0.3-0.1-0.7-0.1-0.9,0.1c-2,2.1-4,4.3-6,6.5c4.6,2.6,9.5,4.3,14.8,5.3c-0.1,0.2-0.2,0.4-0.4,0.7
		c-1.8,2.4-4,4.4-6.4,6c-0.4,0.3-1.1,0.4-1.5,0.2c-2.9-1.1-5.8-2.3-8.7-3.4c-0.3-0.1-0.7-0.3-1.1-0.5c0,0.4-0.1,0.8-0.1,1.1
		c0,2.1,0,4.2,0,6.2c0,0.7-0.1,1-0.9,1c-2.3,0-4.5,0.1-6.8,0.1c-0.7,0-1.2-0.3-1.1-1.2C46.2,75.2,46.2,72.8,46.2,70.3z"/>
	<path class="st0" d="M23.7,40.3c3.5-8.2,9.3-13.8,17.6-16.7C40.1,30.5,33,38.7,23.7,40.3z"/>
	<path class="st0" d="M59.8,23.7c8.2,3.2,13.8,8.7,17,16.7C68.9,39.1,61.5,31.9,59.8,23.7z"/>
</g>
<circle class="st1" cx="50.4" cy="50.8" r="43.2"/>
</svg>
