<?xml version="1.0" encoding="utf-8"?>
<!-- Generator: Adobe Illustrator 24.2.1, SVG Export Plug-In . SVG Version: 6.00 Build 0)  -->
<svg version="1.1" id="Layer_1" xmlns="http://www.w3.org/2000/svg" xmlns:xlink="http://www.w3.org/1999/xlink" x="0px" y="0px"
	 viewBox="0 0 100 100" style="enable-background:new 0 0 100 100;" xml:space="preserve">
<style type="text/css">
	.st0{fill:none;stroke:#D1A250;stroke-linecap:round;stroke-linejoin:round;stroke-miterlimit:10;}
</style>
<path class="st0" d="M15,33.7l35.3-19.9l34.5,19.9L50,53.9C50,53.9,15,33.7,15,33.7z M15,43.7l34.7,19.9L85,43.7l-34.7-21
	C50.3,22.7,15,43.7,15,43.7z M50.3,13.7v9 M14.3,43.7v-10 M85.4,33.7v10 M49.7,63.6v-9.8 M50,75.8l34.8-20.2L50.3,35.6L15,55.6
	L50,75.8z M15,65.6l34.7,19.9L85,65.6l-34.7-21C50.3,44.6,15,65.6,15,65.6z M50.3,35.6v9 M14.3,65.6v-10 M85.4,55.6v10 M49.7,85.5
	v-9.8"/>
</svg>
