<?xml version="1.0" encoding="utf-8"?>
<!-- Generator: Adobe Illustrator 24.2.1, SVG Export Plug-In . SVG Version: 6.00 Build 0)  -->
<svg version="1.1" id="Layer_1" xmlns="http://www.w3.org/2000/svg" xmlns:xlink="http://www.w3.org/1999/xlink" x="0px" y="0px"
	 viewBox="0 0 100 100" style="enable-background:new 0 0 100 100;" xml:space="preserve">
<style type="text/css">
	.st0{fill:none;stroke:#D1A250;stroke-miterlimit:10;}
	.st1{fill:#D1A250;}
</style>
<g>
	<path class="st0" d="M31.9,30.4h40.8c0.9,0,1.6-0.7,1.6-1.6s-0.7-1.6-1.6-1.6H31.9c-0.9,0-1.6,0.7-1.6,1.6S31,30.4,31.9,30.4z"/>
	<path class="st0" d="M24.8,37.8h54.9c0.9,0,1.6-0.7,1.6-1.6s-0.7-1.6-1.6-1.6H24.8c-0.9,0-1.6,0.7-1.6,1.6S24,37.8,24.8,37.8z"/>
	<path class="st0" d="M24.8,46.4h54.9c0.9,0,1.6-0.7,1.6-1.6s-0.7-1.6-1.6-1.6H24.8c-0.9,0-1.6,0.7-1.6,1.6S24,46.4,24.8,46.4z"/>
	<path class="st0" d="M20.9,54.2h34.5c0.9,0,1.6-0.7,1.6-1.6S56.3,51,55.4,51H20.9c-0.9,0-1.6,0.7-1.6,1.6S20.1,54.2,20.9,54.2z"/>
	<path class="st0" d="M89.9,19.4H14.7c-0.9,0-1.6,0.7-1.6,1.6v43.9c0,0.9,0.7,1.6,1.6,1.6h45.4c0.6,1.2,1.4,2.3,2.3,3.3
		c-0.1,0.1-0.2,0.2-0.2,0.3l-5,11.9c-0.3,0.6-0.1,1.3,0.4,1.7c0.5,0.4,1.2,0.6,1.8,0.3l4-1.9l3.6,3.3c0.3,0.3,0.7,0.4,1.1,0.4
		c0.2,0,0.3,0,0.5-0.1c0.5-0.2,0.9-0.6,1-1.2l1.8-10.2c0.5,0.1,1,0.1,1.5,0.1s1,0,1.5-0.1L76,84.5c0.1,0.6,0.5,1,1,1.2
		c0.2,0.1,0.3,0.1,0.5,0.1c0.4,0,0.8-0.1,1.1-0.4l3.6-3.3l4,1.9c0.6,0.3,1.3,0.2,1.8-0.3c0.5-0.5,0.6-1.1,0.4-1.7l-5-11.9
		c-0.1-0.1-0.1-0.2-0.2-0.3c0.9-1,1.7-2.1,2.3-3.3h4.6c0.9,0,1.6-0.7,1.6-1.6V21C91.5,20.1,90.8,19.4,89.9,19.4z M66.8,81.1l-2.3-2
		c-0.5-0.4-1.2-0.5-1.7-0.3l-1.2,0.6l3.2-7.5c1,0.7,2.2,1.3,3.4,1.7L66.8,81.1z M61.7,60.2c0-6.1,4.9-11,11-11s11,4.9,11,11
		s-4.9,11-11,11S61.7,66.2,61.7,60.2z M83.8,79.4l-1.2-0.6c-0.6-0.3-1.3-0.2-1.7,0.3l-2.3,2l-1.3-7.6c1.2-0.4,2.3-1,3.4-1.7
		L83.8,79.4z"/>
	<path class="st1" d="M72.7,52.4c-4.3,0-7.8,3.5-7.8,7.8c0,4.3,3.5,7.8,7.8,7.8s7.8-3.5,7.8-7.8C80.5,55.9,77,52.4,72.7,52.4z
		 M72.7,64.9c-2.6,0-4.7-2.1-4.7-4.7c0-2.6,2.1-4.7,4.7-4.7c2.6,0,4.7,2.1,4.7,4.7C77.4,62.8,75.3,64.9,72.7,64.9z"/>
</g>
</svg>
