<?xml version="1.0" encoding="utf-8"?>
<!-- Generator: Adobe Illustrator 24.2.1, SVG Export Plug-In . SVG Version: 6.00 Build 0)  -->
<svg version="1.1" id="Layer_1" xmlns="http://www.w3.org/2000/svg" xmlns:xlink="http://www.w3.org/1999/xlink" x="0px" y="0px"
	 viewBox="0 0 100 100" style="enable-background:new 0 0 100 100;" xml:space="preserve">
<style type="text/css">
	.st0{fill:#7A4A5D;}
</style>
<g id="Group_42">
	<g id="Group_41">
		<path id="Path_39" class="st0" d="M36.4,35.7v22.9L53.5,62V32.7L36.4,35.7L36.4,35.7z"/>
	</g>
	<path id="Path_40" class="st0" d="M45,50.2c-1,0-1.9-1.4-1.9-3.1c0-1.7,0.8-3.1,1.9-3.1c1,0,1.9,1.4,1.9,3.1S46,50.2,45,50.2z
		 M45,41.9c-2.2,0-3.9,2.3-3.9,5.2s1.7,5.2,3.9,5.2s3.9-2.3,3.9-5.2C48.9,44.3,47.2,41.9,45,41.9z"/>
</g>
<path id="Path_41" class="st0" d="M54.6,46.7v7.7h9.7c0,0,1.4-0.2,1.3-2.1V42.2L58.5,47C57.3,48,55.6,47.8,54.6,46.7L54.6,46.7z"/>
<path id="Path_42" class="st0" d="M54.6,38.7h9.8c0.6,0,1.1,0.4,1.1,1c0,0.1,0,0.1,0,0.2l-8.8,5.9l-2.1-1.3L54.6,38.7L54.6,38.7z"/>
</svg>
