<?xml version="1.0" encoding="utf-8"?>
<!-- Generator: Adobe Illustrator 24.2.1, SVG Export Plug-In . SVG Version: 6.00 Build 0)  -->
<svg version="1.1" id="Layer_1" xmlns="http://www.w3.org/2000/svg" xmlns:xlink="http://www.w3.org/1999/xlink" x="0px" y="0px"
	 viewBox="0 0 100 100" style="enable-background:new 0 0 100 100;" xml:space="preserve">
<style type="text/css">
	.st0{fill:none;stroke:#EFC8BE;stroke-miterlimit:10;}
	.st1{fill:#EFC8BE;}
</style>
<path class="st0" d="M69.3,49H33.6v-0.3c0.1-0.1,0.4-0.4,0.5-0.5c4.9-4.2,11.2-8.3,16-12.6c0.3-0.1,0.4-0.3,0.7-0.1
	c6.6,4.2,11.6,8.6,18.2,13c0.1,0.1,0.3,0.1,0.3,0.3V49z M50.3,13.5c21,0,38.1,17.1,38.1,38.1S71.3,89.7,50.3,89.7
	S12.2,72.6,12.2,51.6S29.3,13.5,50.3,13.5z"/>
<g id="weINl1_1_">
</g>
<g>
	<path class="st1" d="M43.5,60.7l0.8-1.8c0.7,0.5,1.8,0.8,2.8,0.8s1.4-0.3,1.4-0.7c0-1.3-4.8-0.4-4.8-3.5c0-1.5,1.2-2.7,3.7-2.7
		c1.1,0,2.2,0.3,3,0.7l-0.7,1.8c-0.8-0.4-1.6-0.6-2.3-0.6c-1,0-1.4,0.3-1.4,0.8c0,1.3,4.8,0.3,4.8,3.4c0,1.5-1.2,2.7-3.7,2.7
		C45.6,61.6,44.2,61.2,43.5,60.7z"/>
</g>
<path class="st1" d="M55.5,59.2h-1.3v2.2h-2.4V53h3.8c2.3,0,3.7,1.2,3.7,3.1c0,1.2-0.6,2.1-1.6,2.7l1.8,2.6H57L55.5,59.2z
	 M55.5,54.9h-1.3v2.5h1.3c1,0,1.5-0.5,1.5-1.2C57,55.3,56.5,54.9,55.5,54.9z"/>
</svg>
