<!--?xml version="1.0" encoding="utf-8"?-->
<!-- Generator: Adobe Illustrator 24.2.1, SVG Export Plug-In . SVG Version: 6.00 Build 0)  -->
<svg version="1.1" id="Layer_1" xmlns="http://www.w3.org/2000/svg" xmlns:xlink="http://www.w3.org/1999/xlink" x="0px" y="0px" viewBox="0 0 100 100" style="" xml:space="preserve">
<style type="text/css">
	.st0{fill:url(#SVGID_1_);}
	.st1{fill:#EEE8E1;}
	.st2{fill:url(#SVGID_2_);}
	.st3{fill:url(#SVGID_3_);}
	.st4{fill:none;stroke:url(#SVGID_4_);stroke-width:2;stroke-linecap:round;stroke-linejoin:round;stroke-miterlimit:10;}
	.st5{fill:url(#SVGID_5_);}
	.st6{fill:url(#SVGID_6_);}
</style>
<radialGradient id="SVGID_1_" cx="51" cy="50.6" r="49.5012" gradientTransform="matrix(1 0 0 -1 0 102)" gradientUnits="userSpaceOnUse">
	<stop offset="0" style="stop-color:#F9F1E5"></stop>
	<stop offset="1" style="stop-color:#FFFFFF;stop-opacity:0"></stop>
</radialGradient>
<path class="st0 IrQDgPux_0" d="M51,1.9C23.7,1.9,1.5,24.1,1.5,51.4s22.2,49.5,49.5,49.5s49.5-22.2,49.5-49.5C100.4,24.1,78.3,1.9,51,1.9z"></path>
<g>
	<path class="st1 IrQDgPux_1" d="M57,56.2h-1.8v3.4H57c1.4,0,2-0.7,2-1.6C59.1,56.9,58.4,56.2,57,56.2z"></path>
	
		<radialGradient id="SVGID_2_" cx="50" cy="50.6" r="38.4" gradientTransform="matrix(1 0 0 -1 0 102)" gradientUnits="userSpaceOnUse">
		<stop offset="0.8924" style="stop-color:#EEE8E1"></stop>
		<stop offset="1" style="stop-color:#F9F1E5"></stop>
	</radialGradient>
	<path class="st2 IrQDgPux_2" d="M50,13c-21.2,0-38.4,17.2-38.4,38.4S28.8,89.8,50,89.8s38.4-17.2,38.4-38.4C88.3,30.2,71.2,13,50,13z"></path>
	
		<radialGradient id="SVGID_3_" cx="51" cy="50.6" r="38.8856" gradientTransform="matrix(1 0 0 -1 0 102)" gradientUnits="userSpaceOnUse">
		<stop offset="0" style="stop-color:#FFFFFF"></stop>
		<stop offset="0.224" style="stop-color:#FFFFFF;stop-opacity:0"></stop>
	</radialGradient>
	<path class="st3 IrQDgPux_3" d="M51,12.5c-21.5,0-38.9,17.4-38.9,38.9S29.5,90.3,51,90.3s38.9-17.4,38.9-38.9C89.8,29.9,72.5,12.5,51,12.5z"></path>
</g>
<linearGradient id="SVGID_4_" gradientUnits="userSpaceOnUse" x1="11.2" y1="50.4" x2="89.4" y2="50.4" gradientTransform="matrix(1 0 0 -1 0 102)">
	<stop offset="0" style="stop-color:#CFBDA8"></stop>
	<stop offset="1" style="stop-color:#F9F1E5"></stop>
</linearGradient>
<path class="st4 IrQDgPux_4" d="M69.3,49H33.6v-0.3c0.1-0.1,0.4-0.4,0.5-0.5c4.9-4.2,11.2-8.3,16-12.6c0.3-0.1,0.4-0.3,0.7-0.1
	c6.6,4.2,11.6,8.6,18.2,13c0.1,0.1,0.3,0.1,0.3,0.3V49z M50.3,13.5c21,0,38.1,17.1,38.1,38.1S71.3,89.7,50.3,89.7
	S12.2,72.6,12.2,51.6S29.3,13.5,50.3,13.5z"></path>
<g id="weINl1_1_">
	
		<image style="overflow:visible;" width="104" height="182" id="weINl1" xlink:href="96758997C60F2A5C.png" transform="matrix(0.5 0 0 0.5 112 14)">
	</image>
</g>
<g>
	<linearGradient id="SVGID_5_" gradientUnits="userSpaceOnUse" x1="43.4561" y1="57.2173" x2="50.7119" y2="57.2173">
		<stop offset="1" style="stop-color:#CCBDA8"></stop>
		<stop offset="1" style="stop-color:#F9F1E5"></stop>
	</linearGradient>
	<path class="st5 IrQDgPux_5" d="M43.5,60.7l0.8-1.8c0.7,0.5,1.8,0.8,2.8,0.8c1,0,1.4-0.3,1.4-0.7c0-1.3-4.8-0.4-4.8-3.5c0-1.5,1.2-2.7,3.7-2.7
		c1.1,0,2.2,0.3,3,0.7l-0.7,1.8c-0.8-0.4-1.6-0.6-2.3-0.6c-1,0-1.4,0.3-1.4,0.8c0,1.3,4.8,0.3,4.8,3.4c0,1.5-1.2,2.7-3.7,2.7
		C45.6,61.6,44.2,61.2,43.5,60.7z"></path>
	<linearGradient id="SVGID_6_" gradientUnits="userSpaceOnUse" x1="51.8086" y1="57.2173" x2="59.5439" y2="57.2173">
		<stop offset="1" style="stop-color:#CCBDA8"></stop>
		<stop offset="1" style="stop-color:#F9F1E5"></stop>
	</linearGradient>
	<path class="st6 IrQDgPux_6" d="M55.5,59.2h-1.3v2.2h-2.4V53h3.8c2.3,0,3.7,1.2,3.7,3.1c0,1.2-0.6,2.1-1.6,2.7l1.8,2.6H57L55.5,59.2z
		 M55.5,54.9h-1.3v2.5h1.3c1,0,1.5-0.5,1.5-1.2C57,55.3,56.5,54.9,55.5,54.9z"></path>
</g>
<style data-made-with="vivus-instant">.IrQDgPux_0{stroke-dasharray:311 313;stroke-dashoffset:312;animation:IrQDgPux_draw 2000ms linear 0ms forwards;}.IrQDgPux_1{stroke-dasharray:14 16;stroke-dashoffset:15;animation:IrQDgPux_draw 2000ms linear 166ms forwards;}.IrQDgPux_2{stroke-dasharray:242 244;stroke-dashoffset:243;animation:IrQDgPux_draw 2000ms linear 333ms forwards;}.IrQDgPux_3{stroke-dasharray:245 247;stroke-dashoffset:246;animation:IrQDgPux_draw 2000ms linear 500ms forwards;}.IrQDgPux_4{stroke-dasharray:321 323;stroke-dashoffset:322;animation:IrQDgPux_draw 2000ms linear 666ms forwards;}.IrQDgPux_5{stroke-dasharray:43 45;stroke-dashoffset:44;animation:IrQDgPux_draw 2000ms linear 833ms forwards;}.IrQDgPux_6{stroke-dasharray:45 47;stroke-dashoffset:46;animation:IrQDgPux_draw 2000ms linear 1000ms forwards;}@keyframes IrQDgPux_draw{100%{stroke-dashoffset:0;}}@keyframes IrQDgPux_fade{0%{stroke-opacity:1;}94.44444444444444%{stroke-opacity:1;}100%{stroke-opacity:0;}}</style></svg>
