<?xml version="1.0" encoding="utf-8"?>
<!-- Generator: Adobe Illustrator 28.3.0, SVG Export Plug-In . SVG Version: 6.00 Build 0)  -->
<svg version="1.1" id="Layer_1" xmlns="http://www.w3.org/2000/svg" xmlns:xlink="http://www.w3.org/1999/xlink" x="0px" y="0px"
	 viewBox="0 0 100 100" style="enable-background:new 0 0 100 100;" xml:space="preserve">
<style type="text/css">
	.st0{fill:#90595B;}
</style>
<path class="st0" d="M49.7,41.4c3.3,0,5.8-2.5,5.8-5.8c0-3.2-2.5-5.6-5.9-5.7c-3.3-0.1-5.7,3-5.6,5.7C44.1,38.9,46.5,41.4,49.7,41.4
	z"/>
<path class="st0" d="M35.2,66.5c3.3,0,5.9-2.6,5.9-5.9c0-3-2.7-5.6-5.8-5.6c-3.4,0-5.7,2.4-5.8,5.5C29.5,63.9,32,66.5,35.2,66.5z"/>
<path class="st0" d="M70.9,60.8c0.1-3.2-2.3-5.7-5.6-5.8c-3.1-0.1-5.8,2.5-5.9,5.6c-0.1,3.1,2.5,5.8,5.5,5.9
	C68,66.6,71.1,64,70.9,60.8z"/>
</svg>
