<?xml version="1.0" encoding="utf-8"?>
<!-- Generator: Adobe Illustrator 28.3.0, SVG Export Plug-In . SVG Version: 6.00 Build 0)  -->
<svg version="1.1" id="Layer_1" xmlns="http://www.w3.org/2000/svg" xmlns:xlink="http://www.w3.org/1999/xlink" x="0px" y="0px"
	 viewBox="0 0 100 100" style="enable-background:new 0 0 100 100;" xml:space="preserve">
<style type="text/css">
	.st0{fill:#EFC8BE;}
</style>
<g>
	<path class="st0" d="M43.4,84.2c0,4.2,0.1,8.3,0,12.4c0,1.5,0.6,2,1.9,2c3.8-0.1,7.6-0.2,11.4-0.2c1.3,0,1.6-0.6,1.5-1.8
		c0-3.5,0-7.1,0-10.6c0-0.6,0.1-1.2,0.1-1.9c0.8,0.4,1.3,0.7,1.9,0.9c4.9,1.9,9.7,3.9,14.7,5.7c0.7,0.3,1.9,0.1,2.6-0.4
		c4.2-2.8,7.8-6.2,10.8-10.2c0.2-0.3,0.4-0.7,0.6-1.1c-9-1.7-17.3-4.6-25.1-8.9c3.5-3.7,6.8-7.4,10.2-10.9c0.3-0.3,1.1-0.4,1.6-0.2
		c1.8,0.6,3.6,1.6,5.4,2.1c4.5,1.2,9.1,2.3,13.7,3.3c0.7,0.2,1.6,0.4,1.9-0.7c1.2-4.5,1.9-9,1.8-13.7c-1.7-0.3-3.4-0.5-5-0.8
		c-22-4.4-39.1-22.1-42.8-44.4c-0.3-1.8-0.9-2.2-2.6-2.1c-4.2,0.2-8.3,0.9-12.3,2.2c0.9,7,2.9,13.6,6,19.9c0.5,1.1,0.4,1.8-0.3,2.7
		c-7.4,10-17.1,16.7-29.1,20.1C8.9,48.3,5.5,48.8,2,49.5C2,54.6,2.6,59.6,4.2,64.7c18.9-2.1,34.4-10.4,46.5-24.5
		c3.7,3.6,7.3,7,11,10.6C48.4,66,31.6,75.5,11.4,79.4c2.7,3,5.4,6,8.4,8.5c4.4,3.8,4.5,3.8,10,1.7C34.3,88,38.7,86.1,43.4,84.2z
		 M5.2,33.2C21,30.6,33,16.6,35.1,4.8C20.9,9.9,11.1,19.3,5.2,33.2z M66.4,5.2c2.9,13.7,15.5,26,28.9,28.4
		C89.8,19.9,80.2,10.6,66.4,5.2z"/>
	<path class="st0" d="M43.4,84.2c-4.7,1.9-9.1,3.8-13.6,5.5c-5.4,2-5.5,2.1-10-1.7c-3-2.6-5.7-5.5-8.4-8.5
		C31.6,75.5,48.4,66,61.7,50.7c-3.7-3.6-7.3-7-11-10.6C38.6,54.3,23.1,62.6,4.2,64.7C2.6,59.6,2,54.6,2,49.5
		c3.5-0.7,6.9-1.2,10.2-2.1c12-3.3,21.7-10.1,29.1-20.1c0.7-0.9,0.8-1.6,0.3-2.7c-3-6.3-5-12.9-6-19.9c4-1.3,8.1-2,12.3-2.2
		c1.7-0.1,2.3,0.3,2.6,2.1c3.6,22.3,20.7,40,42.8,44.4c1.6,0.3,3.2,0.5,5,0.8c0.1,4.7-0.6,9.3-1.8,13.7c-0.3,1.2-1.2,0.9-1.9,0.7
		c-4.6-1.1-9.1-2.1-13.7-3.3c-1.9-0.5-3.6-1.5-5.4-2.1c-0.4-0.2-1.3-0.1-1.6,0.2c-3.4,3.6-6.7,7.2-10.2,10.9
		c7.7,4.4,16.1,7.2,25.1,8.9c-0.2,0.4-0.4,0.8-0.6,1.1c-3.1,4-6.7,7.4-10.8,10.2c-0.7,0.4-1.8,0.7-2.6,0.4
		c-4.9-1.8-9.8-3.8-14.7-5.7c-0.6-0.2-1.1-0.5-1.9-0.9c-0.1,0.8-0.1,1.3-0.1,1.9c0,3.5,0,7.1,0,10.6c0,1.1-0.3,1.7-1.5,1.8
		c-3.8,0-7.6,0.2-11.4,0.2c-1.3,0-1.9-0.5-1.9-2C43.5,92.4,43.4,88.4,43.4,84.2z"/>
	<path class="st0" d="M5.2,33.2c5.9-14,15.7-23.4,29.9-28.4C33,16.6,21,30.6,5.2,33.2z"/>
	<path class="st0" d="M66.4,5.2c13.8,5.4,23.3,14.7,28.9,28.4C81.9,31.2,69.3,18.9,66.4,5.2z"/>
</g>
</svg>
