<?xml version="1.0" encoding="utf-8"?>
<!-- Generator: Adobe Illustrator 24.2.1, SVG Export Plug-In . SVG Version: 6.00 Build 0)  -->
<svg version="1.1" id="Layer_1" xmlns="http://www.w3.org/2000/svg" xmlns:xlink="http://www.w3.org/1999/xlink" x="0px" y="0px"
	 viewBox="0 0 100 100" style="enable-background:new 0 0 100 100;" xml:space="preserve">
<style type="text/css">
	.st0{fill:#1F2633;}
</style>
<path id="Path_10" class="st0" d="M45.3,51.2h-3.1v5.4h-5.7V36.4h9.2c5.5,0,9,2.9,9,7.5c0.1,2.7-1.5,5.3-4,6.4l4.4,6.4H49L45.3,51.2
	z M45.4,40.9h-3.2v5.9h3.2c2.4,0,3.6-1.1,3.6-2.9C48.9,42,47.7,40.9,45.4,40.9L45.4,40.9z"/>
<g id="Group_28" transform="translate(11.599 5.035)">
	<g id="Group_27">
		<path id="Path_11" class="st0" d="M54.3,49.3V52h-9.7V40H54v2.6h-6v2h5.3v2.5H48v2.2H54.3z"/>
	</g>
</g>
</svg>
