<?xml version="1.0" encoding="utf-8"?>
<!-- Generator: Adobe Illustrator 24.2.1, SVG Export Plug-In . SVG Version: 6.00 Build 0)  -->
<svg version="1.1" id="Layer_1" xmlns="http://www.w3.org/2000/svg" xmlns:xlink="http://www.w3.org/1999/xlink" x="0px" y="0px"
	 viewBox="0 0 100 100" style="enable-background:new 0 0 100 100;" xml:space="preserve">
<style type="text/css">
	.st0{fill:none;stroke:#D1A250;stroke-width:0.5;stroke-miterlimit:10;}
	.st1{fill:#D1A250;}
</style>
<path class="st0" d="M73.8,47.7H28.9v-0.3c0.2-0.2,0.5-0.5,0.7-0.7c6.2-5.3,14.1-10.5,20.1-15.8c0.3-0.2,0.5-0.3,0.9-0.2
	C58.8,36,65.2,41.5,73.4,47c0.2,0.2,0.3,0.2,0.3,0.3L73.8,47.7z M49.9,3c26.5,0,47.9,21.5,47.9,47.9S76.4,98.9,49.9,98.9
	S2,77.4,2,50.9S23.4,3,49.9,3z"/>
<g>
	<path class="st1" d="M37.7,66.7l1.4-3.1c1.2,0.9,3.1,1.4,4.8,1.4s2.4-0.5,2.4-1.2c0-2.2-8.2-0.7-8.2-6c0-2.6,2.1-4.6,6.4-4.6
		c1.9,0,3.8,0.5,5.2,1.2l-1.2,3.3c-1.4-0.7-2.7-1-4-1c-1.7,0-2.4,0.5-2.4,1.4c0,2.2,8.2,0.5,8.2,5.8c0,2.6-2.1,4.6-6.4,4.6
		C41.3,68.3,39.1,67.6,37.7,66.7z"/>
	<path class="st1" d="M58.3,64.2h-2.2v3.8H52V53.5h6.7c4,0,6.4,2.1,6.4,5.3c0,2.1-1,3.6-2.7,4.6l3.1,4.5h-4.3L58.3,64.2z M58.3,56.8
		h-2.2v4.3h2.2c1.7,0,2.6-0.9,2.6-2.1C60.9,57.6,60,56.8,58.3,56.8z"/>
</g>
</svg>
