<?xml version="1.0" encoding="utf-8"?>
<!-- Generator: Adobe Illustrator 24.2.1, SVG Export Plug-In . SVG Version: 6.00 Build 0)  -->
<svg version="1.1" id="Layer_1" xmlns="http://www.w3.org/2000/svg" xmlns:xlink="http://www.w3.org/1999/xlink" x="0px" y="0px"
	 viewBox="0 0 100 100" style="enable-background:new 0 0 100 100;" xml:space="preserve">
<style type="text/css">
	.st0{fill:url(#SVGID_1_);}
	.st1{fill:none;stroke:url(#SVGID_2_);stroke-width:2;stroke-linecap:round;stroke-linejoin:round;stroke-miterlimit:10;}
	.st2{fill:url(#SVGID_3_);}
</style>
<g>
	
		<radialGradient id="SVGID_1_" cx="50" cy="48.6" r="38.4" gradientTransform="matrix(1 0 0 -1 0 100)" gradientUnits="userSpaceOnUse">
		<stop  offset="0.8924" style="stop-color:#CCBDA8"/>
		<stop  offset="1" style="stop-color:#F9F1E5"/>
	</radialGradient>
	<path class="st0" d="M50,13c-21.2,0-38.4,17.2-38.4,38.4S28.8,89.8,50,89.8s38.4-17.2,38.4-38.4C88.3,30.2,71.2,13,50,13z"/>
</g>
<linearGradient id="SVGID_2_" gradientUnits="userSpaceOnUse" x1="11.2" y1="48.4" x2="89.4" y2="48.4" gradientTransform="matrix(1 0 0 -1 0 100)">
	<stop  offset="0" style="stop-color:#CCBDA8"/>
	<stop  offset="1" style="stop-color:#F9F1E5"/>
</linearGradient>
<path class="st1" d="M50.3,13.5c21,0,38.1,17.1,38.1,38.1S71.3,89.7,50.3,89.7S12.2,72.6,12.2,51.6S29.3,13.5,50.3,13.5z"/>
<g>
	<radialGradient id="SVGID_3_" cx="49.948" cy="49.6357" r="19.539" gradientUnits="userSpaceOnUse">
		<stop  offset="1" style="stop-color:#F9F1E5"/>
		<stop  offset="1" style="stop-color:#CCBDA8"/>
	</radialGradient>
	<path class="st2" d="M49.8,69.2L30.5,58.2l0,0h0l0-5.4l5.6-3.2l-5.6-3.2l0,0h0l0-5.4L50.1,30l19.2,11.1l-0.1,0v5.2l0.2,0.1
		l-5.6,3.2l5.5,3.2l-0.1,0v5.2l0.2,0.1L49.8,69.2z M50.2,63.9v4.2l17.8-10l-3.8-2.3L50.2,63.9z M32,58.2l17.4,10v-4.4l-13.6-7.9
		L32,58.2z M36.5,55.4L50,63.2l13.4-7.8l-4.7-2.9l-8.9,5l-8.5-4.9L36.5,55.4z M31.2,53.3v4.5l3.8-2.3L31.2,53.3z M64.8,55.4l3.7,2.2
		v-4.4L64.8,55.4z M50.2,52.2v4.2l7.7-4.4l-3.7-2.2L50.2,52.2z M42,52.2l7.4,4.3V52l-3.6-2.1L42,52.2z M32,52.8l3.8,2.2l4.7-2.8
		l-3.7-2.1L32,52.8z M59.4,52.1l4.7,2.9l3.7-2.2l-4.8-2.8L59.4,52.1z M37.6,49.7l3.7,2.1l3.8-2.3l-3.6-2.1L37.6,49.7z M55,49.4
		l3.7,2.2l3.6-2.1l-3.8-2.2L55,49.4z M46.5,49.5l3.4,2l3.5-2.1l-3.4-2L46.5,49.5z M32,46.4l4.8,2.8l3.9-2.2l-4.9-2.8L32,46.4z
		 M59.2,47l3.8,2.2l4.9-2.7l-3.8-2.3L59.2,47z M42.2,47l3.6,2.1l4-2.4v-4L42.2,47z M50.5,46.7l3.7,2.3l3.5-2l-7.2-4.2V46.7z
		 M36.5,43.7l4.9,2.9l8.6-4.9l8.4,4.8l4.9-2.8l-13.3-8L36.5,43.7z M31.2,41.5V46l3.8-2.3L31.2,41.5z M64.8,43.7l3.7,2.2v-4.4
		L64.8,43.7z M32,41.1l3.8,2.2L49.7,35v-3.9L32,41.1z M50.5,35l13.6,8.2l3.7-2.2l-17.3-10V35z"/>
</g>
</svg>
