<?xml version="1.0" encoding="utf-8"?>
<!-- Generator: Adobe Illustrator 24.2.1, SVG Export Plug-In . SVG Version: 6.00 Build 0)  -->
<svg version="1.1" id="Layer_1" xmlns="http://www.w3.org/2000/svg" xmlns:xlink="http://www.w3.org/1999/xlink" x="0px" y="0px"
	 viewBox="0 0 100 100" style="enable-background:new 0 0 100 100;" xml:space="preserve">
<style type="text/css">
	.st0{fill:none;stroke:#EFC8BE;stroke-miterlimit:10;}
</style>
<path class="st0" d="M50.3,13.5c21,0,38.1,17.1,38.1,38.1S71.3,89.7,50.3,89.7S12.2,72.6,12.2,51.6S29.3,13.5,50.3,13.5z"/>
<path class="st0" d="M50.3,13.5c21,0,38.1,17.1,38.1,38.1S71.3,89.7,50.3,89.7S12.2,72.6,12.2,51.6S29.3,13.5,50.3,13.5z"/>
<path class="st0" d="M50.2,29.8V34l-19,11.4v-4.9l19.1-11.1c10,5.7,18.6,10.8,18.6,10.8V45L50.2,34"/>
<path class="st0" d="M50.2,42.6v4.2l-19,11.4v-4.9l19.1-11.1C60.3,47.9,68.9,53,68.9,53v4.8l-18.7-11"/>
<path class="st0" d="M49.9,69v-4.2l19-11.4v4.9l-19.1,11c-10-5.7-18.6-10.8-18.6-10.8v-4.8l18.7,11.1"/>
<path class="st0" d="M49.9,56.2V52l19-11.4v4.9l-19.1,11c-10-5.7-18.6-10.8-18.6-10.8v-4.8L49.9,52"/>
</svg>
