<?xml version="1.0" encoding="utf-8"?>
<!-- Generator: Adobe Illustrator 28.3.0, SVG Export Plug-In . SVG Version: 6.00 Build 0)  -->
<svg version="1.1" id="Layer_1" xmlns="http://www.w3.org/2000/svg" xmlns:xlink="http://www.w3.org/1999/xlink" x="0px" y="0px"
	 viewBox="0 0 100 100" style="enable-background:new 0 0 100 100;" xml:space="preserve">
<style type="text/css">
	.st0{fill:#EFC8BE;}
	.st1{fill:none;stroke:#EFC8BE;stroke-miterlimit:10;}
</style>
<g>
	<path class="st0" d="M44.8,77.5c0,3.4,0.1,6.7,0,9.9c0,1.2,0.5,1.6,1.5,1.6c3.1,0,6.1-0.2,9.2-0.2c1,0,1.2-0.5,1.2-1.4
		c0-2.8,0-5.7,0-8.5c0-0.5,0.1-0.9,0.1-1.5c0.6,0.3,1.1,0.5,1.5,0.7c3.9,1.6,7.8,3.1,11.8,4.6c0.6,0.2,1.5,0,2.1-0.3
		c3.3-2.2,6.2-5,8.7-8.2c0.2-0.3,0.3-0.6,0.5-0.9c-7.2-1.4-13.9-3.7-20.1-7.2c2.8-3,5.4-5.9,8.2-8.8c0.2-0.2,0.9-0.3,1.2-0.2
		c1.5,0.5,2.9,1.3,4.3,1.7c3.6,1,7.3,1.8,11,2.7c0.6,0.1,1.3,0.4,1.5-0.6c1-3.6,1.5-7.2,1.4-11c-1.4-0.2-2.7-0.4-4-0.7
		c-17.7-3.6-31.4-17.8-34.3-35.7c-0.2-1.5-0.7-1.8-2.1-1.7c-3.4,0.2-6.7,0.7-9.9,1.8c0.8,5.7,2.4,10.9,4.8,16
		c0.4,0.9,0.3,1.4-0.2,2.2c-6,8-13.7,13.4-23.4,16.1c-2.6,0.7-5.4,1.1-8.2,1.7c-0.1,4.1,0.5,8.1,1.7,12.2
		c15.2-1.6,27.6-8.3,37.4-19.7c3,2.9,5.9,5.7,8.8,8.5C48.7,63,35.3,70.6,19.1,73.7c2.2,2.4,4.3,4.8,6.8,6.9c3.5,3.1,3.6,3,8,1.4
		C37.4,80.6,41,79.1,44.8,77.5z M14.1,36.7c12.7-2.1,22.3-13.4,24-22.8C26.7,17.9,18.8,25.4,14.1,36.7z M63.2,14.1
		c2.3,11,12.5,20.9,23.2,22.8C82,26,74.3,18.5,63.2,14.1z"/>
	<path class="st0" d="M44.8,77.5c-3.8,1.5-7.3,3-10.9,4.4c-4.3,1.6-4.4,1.7-8-1.4c-2.4-2.1-4.6-4.4-6.8-6.9
		c16.2-3.1,29.6-10.7,40.4-23c-3-2.9-5.8-5.6-8.8-8.5c-9.8,11.4-22.2,18.1-37.4,19.7c-1.3-4-1.8-8.1-1.7-12.2
		c2.8-0.6,5.5-0.9,8.2-1.7c9.6-2.7,17.4-8.1,23.4-16.1c0.5-0.7,0.6-1.3,0.2-2.2c-2.4-5-4-10.3-4.8-16c3.2-1.1,6.5-1.6,9.9-1.8
		c1.3-0.1,1.8,0.2,2.1,1.7c2.9,17.9,16.6,32.1,34.3,35.7c1.3,0.3,2.6,0.4,4,0.7c0.1,3.8-0.4,7.4-1.4,11c-0.2,0.9-0.9,0.7-1.5,0.6
		c-3.7-0.9-7.3-1.7-11-2.7c-1.5-0.4-2.9-1.2-4.3-1.7c-0.4-0.1-1-0.1-1.2,0.2c-2.7,2.9-5.4,5.8-8.2,8.8c6.2,3.5,12.9,5.8,20.1,7.2
		c-0.2,0.3-0.3,0.6-0.5,0.9c-2.5,3.2-5.4,6-8.7,8.2c-0.5,0.4-1.5,0.5-2.1,0.3c-4-1.5-7.9-3.1-11.8-4.6c-0.4-0.2-0.9-0.4-1.5-0.7
		c0,0.6-0.1,1.1-0.1,1.5c0,2.8,0,5.7,0,8.5c0,0.9-0.2,1.4-1.2,1.4c-3.1,0-6.1,0.1-9.2,0.2c-1,0-1.6-0.4-1.5-1.6
		C44.8,84.2,44.8,80.9,44.8,77.5z"/>
	<path class="st0" d="M14.1,36.7c4.7-11.2,12.6-18.8,24-22.8C36.4,23.3,26.8,34.5,14.1,36.7z"/>
	<path class="st0" d="M63.2,14.1C74.3,18.5,82,26,86.4,36.9C75.7,35,65.5,25.2,63.2,14.1z"/>
</g>
<circle class="st1" cx="50.4" cy="50.8" r="43.2"/>
</svg>
