<!--?xml version="1.0" encoding="utf-8"?-->
<!-- Generator: Adobe Illustrator 24.2.1, SVG Export Plug-In . SVG Version: 6.00 Build 0)  -->
<svg version="1.1" id="Layer_1" xmlns="http://www.w3.org/2000/svg" xmlns:xlink="http://www.w3.org/1999/xlink" x="0px" y="0px" viewBox="0 0 100 100" style="" xml:space="preserve">
<style type="text/css">
	.st0{fill:url(#SVGID_1_);}
	.st1{fill:#EFEAE4;}
	.st2{fill:url(#SVGID_2_);}
	.st3{fill:url(#SVGID_3_);}
	.st4{fill:none;stroke:url(#SVGID_4_);stroke-width:2;stroke-linecap:round;stroke-linejoin:round;stroke-miterlimit:10;}
	.st5{fill:none;stroke:url(#SVGID_5_);stroke-width:2;stroke-linecap:round;stroke-linejoin:round;stroke-miterlimit:10;}
	.st6{fill:none;stroke:url(#SVGID_6_);stroke-linecap:round;stroke-linejoin:round;stroke-miterlimit:10;}
	.st7{fill:none;stroke:url(#SVGID_7_);stroke-linecap:round;stroke-linejoin:round;stroke-miterlimit:10;}
	.st8{fill:none;stroke:url(#SVGID_8_);stroke-linecap:round;stroke-linejoin:round;stroke-miterlimit:10;}
	.st9{fill:none;stroke:url(#SVGID_9_);stroke-linecap:round;stroke-linejoin:round;stroke-miterlimit:10;}
</style>
<radialGradient id="SVGID_1_" cx="51" cy="50.6" r="49.5012" gradientTransform="matrix(1 0 0 -1 0 102)" gradientUnits="userSpaceOnUse">
	<stop offset="0" style="stop-color:#F9F2E7"></stop>
	<stop offset="1" style="stop-color:#FFFFFF;stop-opacity:0"></stop>
</radialGradient>
<path class="st0 xKUnsUns_0" d="M51,1.9C23.7,1.9,1.5,24.1,1.5,51.4s22.2,49.5,49.5,49.5s49.5-22.2,49.5-49.5C100.4,24.1,78.3,1.9,51,1.9z"></path>
<g>
	<path class="st1 xKUnsUns_1" d="M57,56.2h-1.8v3.4H57c1.4,0,2-0.7,2-1.6C59.1,56.9,58.4,56.2,57,56.2z"></path>
	
		<radialGradient id="SVGID_2_" cx="50" cy="50.6" r="38.4" gradientTransform="matrix(1 0 0 -1 0 102)" gradientUnits="userSpaceOnUse">
		<stop offset="0.8924" style="stop-color:#EFEAE4"></stop>
		<stop offset="1" style="stop-color:#F9F2E7"></stop>
	</radialGradient>
	<path class="st2 xKUnsUns_2" d="M50,13c-21.2,0-38.4,17.2-38.4,38.4S28.8,89.8,50,89.8s38.4-17.2,38.4-38.4C88.3,30.2,71.2,13,50,13z"></path>
	
		<radialGradient id="SVGID_3_" cx="51" cy="50.6" r="38.8856" gradientTransform="matrix(1 0 0 -1 0 102)" gradientUnits="userSpaceOnUse">
		<stop offset="0" style="stop-color:#FFFFFF"></stop>
		<stop offset="0.224" style="stop-color:#FFFFFF;stop-opacity:0"></stop>
	</radialGradient>
	<path class="st3 xKUnsUns_3" d="M51,12.5c-21.5,0-38.9,17.4-38.9,38.9S29.5,90.3,51,90.3s38.9-17.4,38.9-38.9C89.8,29.9,72.5,12.5,51,12.5z"></path>
</g>
<linearGradient id="SVGID_4_" gradientUnits="userSpaceOnUse" x1="11.2" y1="50.4" x2="89.4" y2="50.4" gradientTransform="matrix(1 0 0 -1 0 102)">
	<stop offset="0" style="stop-color:#D4C4B0"></stop>
	<stop offset="1" style="stop-color:#F9F2E7"></stop>
</linearGradient>
<path class="st4 xKUnsUns_4" d="M50.3,13.5c21,0,38.1,17.1,38.1,38.1S71.3,89.7,50.3,89.7S12.2,72.6,12.2,51.6S29.3,13.5,50.3,13.5z"></path>
<linearGradient id="SVGID_5_" gradientUnits="userSpaceOnUse" x1="11.2" y1="551.6" x2="89.4" y2="551.6" gradientTransform="matrix(1 0 0 1 0 -500)">
	<stop offset="0" style="stop-color:#CCBDA8"></stop>
	<stop offset="1" style="stop-color:#F9F1E5"></stop>
</linearGradient>
<path class="st5 xKUnsUns_5" d="M50.3,13.5c21,0,38.1,17.1,38.1,38.1S71.3,89.7,50.3,89.7S12.2,72.6,12.2,51.6S29.3,13.5,50.3,13.5z"></path>
<linearGradient id="SVGID_6_" gradientUnits="userSpaceOnUse" x1="30.7" y1="37.39" x2="69.352" y2="37.39">
	<stop offset="1" style="stop-color:#D1C4B0"></stop>
	<stop offset="1" style="stop-color:#F9F2E7"></stop>
</linearGradient>
<path class="st6 xKUnsUns_6" d="M50.2,29.8V34l-19,11.4l0-4.9l19.1-11.1c10,5.7,18.6,10.8,18.6,10.8v4.8L50.2,34"></path>
<linearGradient id="SVGID_7_" gradientUnits="userSpaceOnUse" x1="30.7" y1="50.2021" x2="69.352" y2="50.2021">
	<stop offset="1" style="stop-color:#D1C4B0"></stop>
	<stop offset="1" style="stop-color:#F9F2E7"></stop>
</linearGradient>
<path class="st7 xKUnsUns_7" d="M50.2,42.6v4.2l-19,11.4l0-4.9l19.1-11.1C60.3,47.9,68.9,53,68.9,53v4.8L50.2,46.8"></path>
<linearGradient id="SVGID_8_" gradientUnits="userSpaceOnUse" x1="30.7" y1="61.3499" x2="69.352" y2="61.3499">
	<stop offset="1" style="stop-color:#D1C4B0"></stop>
	<stop offset="1" style="stop-color:#F9F2E7"></stop>
</linearGradient>
<path class="st8 xKUnsUns_8" d="M49.9,69v-4.2l19-11.4l0,4.9L49.8,69.3c-10-5.7-18.6-10.8-18.6-10.8v-4.8l18.7,11.1"></path>
<linearGradient id="SVGID_9_" gradientUnits="userSpaceOnUse" x1="30.7" y1="48.5377" x2="69.352" y2="48.5377">
	<stop offset="1" style="stop-color:#D1C4B0"></stop>
	<stop offset="1" style="stop-color:#F9F2E7"></stop>
</linearGradient>
<path class="st9 xKUnsUns_9" d="M49.9,56.2v-4.2l19-11.4l0,4.9L49.8,56.5c-10-5.7-18.6-10.8-18.6-10.8v-4.8l18.7,11.1"></path>
<style data-made-with="vivus-instant">.xKUnsUns_0{stroke-dasharray:311 313;stroke-dashoffset:312;animation:xKUnsUns_draw 2000ms linear 0ms forwards;}.xKUnsUns_1{stroke-dasharray:14 16;stroke-dashoffset:15;animation:xKUnsUns_draw 2000ms linear 111ms forwards;}.xKUnsUns_2{stroke-dasharray:242 244;stroke-dashoffset:243;animation:xKUnsUns_draw 2000ms linear 222ms forwards;}.xKUnsUns_3{stroke-dasharray:245 247;stroke-dashoffset:246;animation:xKUnsUns_draw 2000ms linear 333ms forwards;}.xKUnsUns_4{stroke-dasharray:240 242;stroke-dashoffset:241;animation:xKUnsUns_draw 2000ms linear 444ms forwards;}.xKUnsUns_5{stroke-dasharray:240 242;stroke-dashoffset:241;animation:xKUnsUns_draw 2000ms linear 555ms forwards;}.xKUnsUns_6{stroke-dasharray:102 104;stroke-dashoffset:103;animation:xKUnsUns_draw 2000ms linear 666ms forwards;}.xKUnsUns_7{stroke-dasharray:102 104;stroke-dashoffset:103;animation:xKUnsUns_draw 2000ms linear 777ms forwards;}.xKUnsUns_8{stroke-dasharray:102 104;stroke-dashoffset:103;animation:xKUnsUns_draw 2000ms linear 888ms forwards;}.xKUnsUns_9{stroke-dasharray:102 104;stroke-dashoffset:103;animation:xKUnsUns_draw 2000ms linear 1000ms forwards;}@keyframes xKUnsUns_draw{100%{stroke-dashoffset:0;}}@keyframes xKUnsUns_fade{0%{stroke-opacity:1;}94.44444444444444%{stroke-opacity:1;}100%{stroke-opacity:0;}}</style></svg>
