<!--?xml version="1.0" encoding="utf-8"?-->
<!-- Generator: Adobe Illustrator 24.2.1, SVG Export Plug-In . SVG Version: 6.00 Build 0)  -->
<svg version="1.1" id="Layer_1" xmlns="http://www.w3.org/2000/svg" xmlns:xlink="http://www.w3.org/1999/xlink" x="0px" y="0px" viewBox="0 0 100 100" style="" xml:space="preserve">
<style type="text/css">
	.st0{fill:#D1A250;}
	.st1{fill:none;stroke:#D1A250;stroke-linecap:round;stroke-linejoin:round;stroke-miterlimit:10;}
</style>
<g id="Group_141" transform="translate(0 0)">
	<path id="Path_105" class="st0 XIQGypCe_0" d="M45.9,71.5c0.3-0.1,0.7-0.2,1-0.2c0.5,0,1,0.2,1.3,0.6c0-0.1,0.1-0.1,0.1-0.2
		c0.1-0.3,0.2-0.5,0.2-0.8c0-0.1-0.1-0.2-0.2-0.3c0,0,0,0-0.1,0c-0.4-0.1-0.8-0.1-1.3-0.1c-2.4,0-3.9,2.4-4.3,3.9h-0.1v-3.9
		c-0.8,0.6-1.8,0.9-2.8,0.7H37v0.5h2.8v12.6H37v0.5h8.6v-0.5h-3v-6.8C42.7,73.2,45.2,71.7,45.9,71.5"></path>
	<path id="Path_106" class="st0 XIQGypCe_1" d="M10.2,63.8h-3v-0.5h9.5c4.6,0,7.2,2.3,7.2,4.9c0,4.8-4,5.2-6.3,5.4v0.1c3.4,0.3,6.9,1.7,6.9,5.7
		c0,4.2-3.7,5.9-6.7,5.9H7.3v-0.5h3L10.2,63.8 M13.4,73.3h2.1c2.8,0,5.4-0.6,5.4-4.9c0-1.7-1.3-4.7-5.8-4.7h-1.6L13.4,73.3
		L13.4,73.3z M13.4,84.7H16c3.3,0,5-2,5-5.7c0-3.5-2.4-5.2-5.9-5.2h-1.7L13.4,84.7L13.4,84.7z"></path>
	<path id="Path_107" class="st0 XIQGypCe_2" d="M28.7,79.8c0,2.4,0.3,5,3.4,5c2.7,0.1,5-1.9,5.3-4.6H38c-0.4,3-2.9,5.2-5.9,5.1
		c-3.9,0-6.6-3-6.6-7.4c0-3.2,2.6-7.4,6.2-7.4c3.9,0,6,4.4,6,5.8c0,0.1-0.1,0.3-0.2,0.3c0,0,0,0-0.1,0h-8.7L28.7,79.8 M34.5,75.2
		c0-2.1-0.6-4.1-2.8-4.1c-2.3,0-3,2-3,4.1v0.9h5.6c0.1,0,0.2-0.1,0.2-0.2c0,0,0,0,0-0.1L34.5,75.2z"></path>
	<path id="Path_108" class="st0 XIQGypCe_3" d="M63,79.8c0,2.4,0.3,5,3.4,5c2.7,0.1,5-1.9,5.3-4.6h0.5c-0.4,3-2.9,5.2-5.9,5.1
		c-3.9,0-6.6-3-6.6-7.4c0-3.2,2.6-7.4,6.2-7.4c3.9,0,6,4.4,6,5.8c0,0.1-0.1,0.3-0.2,0.3c0,0,0,0-0.1,0H63L63,79.8 M68.8,75.2
		c0-2.1-0.6-4.1-2.8-4.1c-2.3,0-3,2-3,4.1v0.9h5.6c0.1,0,0.2-0.1,0.2-0.2c0,0,0,0,0-0.1V75.2z"></path>
	<path id="Path_109" class="st0 XIQGypCe_4" d="M74.5,71.8h-2.6v-0.5h2.6c1.6,0,2.2,0,2.8-0.7v3.4h0.1c0.9-2,2.8-3.3,5-3.4
		c3.6,0,4.6,1.8,4.6,3.8v10.1h2.6V85h-8.1v-0.5h2.6V73.5c0-1.8-0.9-2.4-2-2.4c-2.8,0-4.2,2.8-4.8,3.9v9.4h2.5v0.5h-8v-0.5h2.6
		L74.5,71.8"></path>
	<path id="Path_110" class="st0 XIQGypCe_5" d="M11.2,89h-0.1c-0.1-0.6-0.6-1.3-1.2-1.3c-0.6,0-0.9,0.5-0.9,1.9c0,1.4,0.2,1.9,0.9,1.9
		c0.6-0.1,1.1-0.5,1.2-1.2l0-0.2h0.1v1.4h-0.1c0-0.1-0.1-0.2-0.2-0.2c-0.2,0-0.4,0.3-1.1,0.3c-1,0-1.8-0.9-1.8-1.9c0,0,0,0,0,0
		c-0.1-1.1,0.8-2,1.8-2.1c0.4,0,0.8,0.3,1,0.3c0.1,0,0.2-0.1,0.2-0.2h0.1L11.2,89"></path>
	<path id="Path_111" class="st0 XIQGypCe_6" d="M13.9,87.5c1.1,0.1,1.8,1,1.8,2c0,0,0,0,0,0c0.1,1-0.6,1.9-1.5,2c-1,0.1-1.9-0.6-2-1.5
		c0-0.2,0-0.3,0-0.5C12,88.6,12.8,87.6,13.9,87.5C13.9,87.6,13.9,87.5,13.9,87.5 M14.7,89.6c0-1.8-0.4-1.9-0.8-1.9
		c-0.4,0-0.8,0.2-0.8,1.9c0,1.4,0.2,1.9,0.8,1.9C14.5,91.5,14.7,91,14.7,89.6L14.7,89.6z"></path>
	<path id="Path_112" class="st0 XIQGypCe_7" d="M16.3,91.4L16.3,91.4c0.4,0,0.5-0.2,0.5-0.5v-3.2h-0.4v-0.1h1.4l0.9,2.7h0l0.9-2.7H21v0.1h-0.4
		v3.7H21v0.1h-1.8v-0.1h0.5v-3.6h0l-1.3,3.7h-0.2l-1.3-3.8h0v3.1c0,0.5,0.1,0.5,0.4,0.5h0.1v0.1L16.3,91.4L16.3,91.4"></path>
	<path id="Path_113" class="st0 XIQGypCe_8" d="M22.1,91.4L22.1,91.4c0.4,0,0.5-0.2,0.5-0.5v-3.2h-0.4v-0.1h1.4l0.9,2.7h0l0.9-2.7h1.3v0.1h-0.4
		v3.7h0.4v0.1H25v-0.1h0.5v-3.6h0l-1.3,3.7H24l-1.3-3.8h0v3.1c0,0.5,0.1,0.5,0.4,0.5h0.1v0.1L22.1,91.4L22.1,91.4"></path>
	<path id="Path_114" class="st0 XIQGypCe_9" d="M27.3,87.6H29v0.1h-0.5v2.4c0,0.7,0.2,1.3,1,1.3c0.5,0,1-0.4,1-1c0,0,0-0.1,0-0.1v-2.1
		c0-0.3-0.1-0.5-0.4-0.5H30v-0.1h1.1v0.1H31c-0.2,0-0.3,0.1-0.3,0.5v2.1c0,0.8-0.5,1.4-1.5,1.4c-0.7,0.1-1.4-0.4-1.5-1.2
		c0-0.1,0-0.1,0-0.2v-2.5h-0.4L27.3,87.6"></path>
	<path id="Path_115" class="st0 XIQGypCe_10" d="M31.6,91.4h0.1c0.2,0,0.3-0.1,0.3-0.4v-3l-0.2-0.3h-0.2v-0.1h1.1l2.1,2.7h0V88
		c0-0.2-0.1-0.3-0.4-0.3h-0.1v-0.1h1v0.1h-0.1c-0.2,0-0.3,0.1-0.3,0.3c0,0,0,0,0,0v3.6h-0.2l-2.6-3.4h0V91c0,0.3,0.1,0.4,0.4,0.4
		h0.1v0.1L31.6,91.4L31.6,91.4"></path>
	<path id="Path_116" class="st0 XIQGypCe_11" d="M36.1,91.4h0.5v-3.7h-0.5v-0.1h1.8v0.1h-0.4v3.7h0.4v0.1h-1.8V91.4"></path>
	<path id="Path_117" class="st0 XIQGypCe_12" d="M39.3,91.4h0.5v-3.7h-0.2c-0.7,0-0.9,0.5-1,1.1h-0.1v-1.2H42v1.2h-0.1c-0.1-0.6-0.3-1.1-1-1.1
		h-0.2v3.7h0.5v0.1h-1.9L39.3,91.4"></path>
	<path id="Path_118" class="st0 XIQGypCe_13" d="M43.5,91.4h0.4v-1.3l-1.1-2.5h-0.4v-0.1h1.7v0.1h-0.4l0.9,2.1l0.7-1.5c0.1-0.1,0.1-0.2,0.1-0.4
		c0-0.1-0.1-0.2-0.3-0.2h-0.1v-0.1h1v0.1h0c-0.2,0-0.3,0.1-0.5,0.5l-0.7,1.7v1.5h0.4v0.1h-1.7L43.5,91.4"></path>
	<path id="Path_119" class="st0 XIQGypCe_14" d="M64.2,88.9h-0.1c-0.1-0.6-0.6-1.3-1.2-1.3c-0.6,0-0.9,0.5-0.9,1.9c0,1.4,0.2,1.9,0.9,1.9
		c0.6-0.1,1.1-0.5,1.2-1.2l0-0.2h0.1v1.4h-0.1c0-0.1-0.1-0.2-0.2-0.2c-0.3,0.2-0.7,0.3-1.1,0.3c-1,0-1.8-0.9-1.8-1.9c0,0,0,0,0,0
		c-0.1-1.1,0.7-2,1.8-2.1c0.4,0,0.8,0.3,1,0.3c0.1,0,0.2,0,0.2-0.1c0,0,0,0,0,0h0.1L64.2,88.9"></path>
	<path id="Path_120" class="st0 XIQGypCe_15" d="M66.8,87.5c1.1,0.1,1.8,1,1.8,2c0,0,0,0,0,0c0.1,1-0.6,1.9-1.5,2c-1,0.1-1.9-0.6-2-1.5
		c0-0.2,0-0.3,0-0.5C65,88.5,65.8,87.6,66.8,87.5C66.8,87.5,66.8,87.5,66.8,87.5 M67.7,89.5c0-1.8-0.4-1.9-0.8-1.9
		c-0.4,0-0.8,0.2-0.8,1.9c0,1.4,0.2,1.9,0.8,1.9C67.5,91.5,67.7,91,67.7,89.5L67.7,89.5z"></path>
	<path id="Path_121" class="st0 XIQGypCe_16" d="M69.3,91.4h0.5v-3.7h-0.5v-0.1h1.8v0.1h-0.5v3.7h0.6c1,0,1.2-0.5,1.2-1.1v-0.1h0.1v1.3h-3.3
		L69.3,91.4"></path>
	<path id="Path_122" class="st0 XIQGypCe_17" d="M73.4,91.4h0.5v-3.7h-0.5v-0.1h1.8v0.1h-0.5v3.7h0.6c1,0,1.2-0.5,1.2-1.1v-0.1h0.1v1.3h-3.3
		L73.4,91.4"></path>
	<path id="Path_123" class="st0 XIQGypCe_18" d="M77.4,91.4h0.5v-3.7h-0.5v-0.1h3.1v1.1h-0.1v-0.1c0-0.5-0.4-0.9-0.9-0.9c0,0-0.1,0-0.1,0h-0.7
		v1.7h0.4c0.4,0,0.6-0.2,0.6-0.7v-0.1h0.1v1.7h-0.1v-0.1c0-0.4-0.2-0.7-0.6-0.7h-0.4v1.9h0.8c0.6,0,1-0.4,1-0.9c0,0,0-0.1,0-0.1
		v-0.1h0.1v1.3h-3.3L77.4,91.4"></path>
	<path id="Path_124" class="st0 XIQGypCe_19" d="M84.9,91.1c-0.4,0.3-0.9,0.5-1.5,0.5c-1.1-0.1-2-1.1-1.9-2.2c0.1-1,0.8-1.7,1.8-1.8
		c0.4,0.1,0.7,0.2,1.1,0.3c0.1,0,0.2-0.1,0.2-0.1c0,0,0,0,0,0h0.1v1.3h-0.1c0-0.7-0.5-1.2-1.2-1.3c-0.7,0-0.9,0.8-0.9,1.9
		c0,1.7,0.4,1.9,0.9,1.9c0.3,0,0.6-0.2,0.6-0.5c0,0,0-0.1,0-0.1v-0.6h-0.4v-0.1h1.6v0.1h-0.3L84.9,91.1"></path>
	<path id="Path_125" class="st0 XIQGypCe_20" d="M85.8,91.4h0.5v-3.7h-0.5v-0.1h3.1v1.1h-0.1v-0.1c0-0.5-0.4-0.9-0.9-0.9c0,0-0.1,0-0.1,0h-0.7
		v1.7h0.4c0.4,0,0.6-0.2,0.6-0.7v-0.1h0.1v1.7H88v-0.1c0-0.4-0.2-0.7-0.6-0.7h-0.4v1.9h0.8c0.6,0,1-0.4,1-0.9c0,0,0-0.1,0-0.1v-0.1
		H89v1.3h-3.3L85.8,91.4"></path>
	<g>
		<path class="st1 XIQGypCe_21" d="M36.4,43.7L57.7,43.7L57.7,42.3L64.7,42.3L64.7,38.4L36.5,38.4Z"></path>
		<path class="st1 XIQGypCe_22" d="M36.4,52L51.5,52L51.5,50.6L56.5,50.6L56.5,46.7L36.4,46.7Z"></path>
		<path class="st1 XIQGypCe_23" d="M36.3,61.9L40.5,62L43.8,58.5L49,58.5L49,54.7L36.3,54.7Z"></path>
	</g>
	<g id="Group_140">
		<path id="Path_127" class="st1 XIQGypCe_24" d="M35.7,36.3h24.1c1.1-2.3,1.2-4.9,0.3-7.3c-1.6-3.7-5.2-6.3-9.3-6.6c-1-0.1-1.9-0.1-2.9,0
			c0,0,6.8,2.7,5.4,8.2c-0.1,0.3-0.2,0.7-0.2,0.7s-0.8-3.4-6.7-7.6c-4.4-2.8-7.3-7.5-7.8-12.7c0-1.4,0.2-2.8,0.7-4.2
			c-2.2,2.8-3.6,6.2-4.1,9.7c-0.2,4.5,1.1,8.9,3.6,12.6c0.6,0.9,1.3,2,1.3,2c-2.2-0.7-3.8-2.4-4.4-4.6L35.7,36.3"></path>
	</g>
	<path id="Path_128" class="st0 XIQGypCe_25" d="M48.4,89.5c-0.1,0.1-0.2,0.2-0.2,0.3c-0.9,2.3,2,3.9,4.6,3.9c3.4,0,6.7-2.2,6.7-5.5
		c0-1.7-1.4-2.2-3.1-2.2h-6.9c-1.8,0-2.7-1.3-2.7-3.1c-0.2-1.6,0.8-3.1,2.4-3.3c0.3,0,0.6,0,0.9,0v-0.1c-1.5-0.7-2.4-2.2-2.5-3.8
		c0.3-3.1,3-5.4,6.1-5.2c1.2,0.1,2.4,0.6,3.3,1.4l0,0l0,0c0.7-0.9,1.8-1.4,2.9-1.5c0.4,0,0.8,0,1.3,0.1c0.1,0,0.2,0.1,0.2,0.2
		c0,0,0,0,0,0.1c-0.1,0.3-0.1,0.5-0.2,0.8c0,0.1,0,0.1-0.1,0.2c-0.3-0.4-0.8-0.7-1.3-0.6c-0.3,0-0.7,0.1-1,0.2c-0.5,0.2-1,0.5-1.4,1
		c0.8,0.9,1.2,2,1.2,3.2c0,2.8-2.9,4.9-5.5,4.9c-0.9,0-1.7-0.2-2.5-0.6c-1.8,0-3.3,0.5-3.3,2.1c0,0.8,0.6,1.4,1.4,1.4
		c0,0,0.1,0,0.1,0h7.8c1.8-0.2,3.5,1.1,3.7,2.9c0,0.3,0,0.6,0,0.9c0,4.5-3.7,7-7.7,7c-3.1,0-6.4-1.1-6.4-4.3c0,0,0-0.3,0.2-0.4
		c0.4,0,0.9-0.1,1.3,0L48.4,89.5 M53.1,80c2.7,0,2.7-2.1,2.7-4.5c0-2.7,0-4.5-2.7-4.5s-2.7,2.7-2.7,4.5C50.4,77.7,50.4,80,53.1,80
		L53.1,80z"></path>
</g>
<style data-made-with="vivus-instant">.XIQGypCe_0{stroke-dasharray:67 69;stroke-dashoffset:68;animation:XIQGypCe_draw 2000ms linear 0ms forwards;}.XIQGypCe_1{stroke-dasharray:151 153;stroke-dashoffset:152;animation:XIQGypCe_draw 2000ms linear 40ms forwards;}.XIQGypCe_2{stroke-dasharray:86 88;stroke-dashoffset:87;animation:XIQGypCe_draw 2000ms linear 80ms forwards;}.XIQGypCe_3{stroke-dasharray:86 88;stroke-dashoffset:87;animation:XIQGypCe_draw 2000ms linear 120ms forwards;}.XIQGypCe_4{stroke-dasharray:107 109;stroke-dashoffset:108;animation:XIQGypCe_draw 2000ms linear 160ms forwards;}.XIQGypCe_5{stroke-dasharray:21 23;stroke-dashoffset:22;animation:XIQGypCe_draw 2000ms linear 200ms forwards;}.XIQGypCe_6{stroke-dasharray:22 24;stroke-dashoffset:23;animation:XIQGypCe_draw 2000ms linear 240ms forwards;}.XIQGypCe_7{stroke-dasharray:38 40;stroke-dashoffset:39;animation:XIQGypCe_draw 2000ms linear 280ms forwards;}.XIQGypCe_8{stroke-dasharray:37 39;stroke-dashoffset:38;animation:XIQGypCe_draw 2000ms linear 320ms forwards;}.XIQGypCe_9{stroke-dasharray:24 26;stroke-dashoffset:25;animation:XIQGypCe_draw 2000ms linear 360ms forwards;}.XIQGypCe_10{stroke-dasharray:27 29;stroke-dashoffset:28;animation:XIQGypCe_draw 2000ms linear 400ms forwards;}.XIQGypCe_11{stroke-dasharray:14 16;stroke-dashoffset:15;animation:XIQGypCe_draw 2000ms linear 440ms forwards;}.XIQGypCe_12{stroke-dasharray:21 23;stroke-dashoffset:22;animation:XIQGypCe_draw 2000ms linear 480ms forwards;}.XIQGypCe_13{stroke-dasharray:20 22;stroke-dashoffset:21;animation:XIQGypCe_draw 2000ms linear 520ms forwards;}.XIQGypCe_14{stroke-dasharray:21 23;stroke-dashoffset:22;animation:XIQGypCe_draw 2000ms linear 560ms forwards;}.XIQGypCe_15{stroke-dasharray:22 24;stroke-dashoffset:23;animation:XIQGypCe_draw 2000ms linear 600ms forwards;}.XIQGypCe_16{stroke-dasharray:19 21;stroke-dashoffset:20;animation:XIQGypCe_draw 2000ms linear 640ms forwards;}.XIQGypCe_17{stroke-dasharray:19 21;stroke-dashoffset:20;animation:XIQGypCe_draw 2000ms linear 680ms forwards;}.XIQGypCe_18{stroke-dasharray:28 30;stroke-dashoffset:29;animation:XIQGypCe_draw 2000ms linear 720ms forwards;}.XIQGypCe_19{stroke-dasharray:22 24;stroke-dashoffset:23;animation:XIQGypCe_draw 2000ms linear 760ms forwards;}.XIQGypCe_20{stroke-dasharray:28 30;stroke-dashoffset:29;animation:XIQGypCe_draw 2000ms linear 800ms forwards;}.XIQGypCe_21{stroke-dasharray:68 70;stroke-dashoffset:69;animation:XIQGypCe_draw 2000ms linear 840ms forwards;}.XIQGypCe_22{stroke-dasharray:51 53;stroke-dashoffset:52;animation:XIQGypCe_draw 2000ms linear 880ms forwards;}.XIQGypCe_23{stroke-dasharray:38 40;stroke-dashoffset:39;animation:XIQGypCe_draw 2000ms linear 920ms forwards;}.XIQGypCe_24{stroke-dasharray:131 133;stroke-dashoffset:132;animation:XIQGypCe_draw 2000ms linear 960ms forwards;}.XIQGypCe_25{stroke-dasharray:149 151;stroke-dashoffset:150;animation:XIQGypCe_draw 2000ms linear 1000ms forwards;}@keyframes XIQGypCe_draw{100%{stroke-dashoffset:0;}}@keyframes XIQGypCe_fade{0%{stroke-opacity:1;}94.44444444444444%{stroke-opacity:1;}100%{stroke-opacity:0;}}</style></svg>
