<?xml version="1.0" encoding="UTF-8"?>
<svg viewBox="0 0 51.146 48.251" xmlns="http://www.w3.org/2000/svg">
<g transform="translate(15 15)" fill="#1f2633" data-name="portfolioB">
<path transform="translate(-66.266 -1239.3)" d="M66.266,1248.865h8.656c0,.278-.005.546,0,.813a.874.874,0,0,0,.712.877.649.649,0,0,0,.154.024c.7,0,1.4.01,2.092,0a.858.858,0,0,0,.852-.732c.027-.316.006-.635.006-.972h8.673v.227q0,3.674,0,7.348c0,.72-.391,1.072-1.187,1.072H67.459c-.8,0-1.192-.351-1.193-1.066v-7.59Z" data-name="Path 55"/>
<path transform="translate(-66.266 -1232.6)" d="M66.266,1240.25v-.271q0-1.654,0-3.307c0-.846.39-1.233,1.244-1.232,2.468,0,4.935.011,7.4.011q5.614,0,11.226-.01a2.128,2.128,0,0,1,.469.038.967.967,0,0,1,.8.983c.014,1.238,0,2.475,0,3.712,0,.014-.01.027-.026.063-.069,0-.149.011-.229.011q-4.072,0-8.145,0c-.181,0-.254-.036-.288-.234a.925.925,0,0,0-.909-.731c-.645-.01-1.291-.011-1.935,0a.937.937,0,0,0-.932.812c-.022.11-.063.161-.176.15a1.048,1.048,0,0,0-.113,0H66.266Z" data-name="Path 56"/>
<path transform="translate(-73.956 -1229.7)" d="M87.409,1232.543h-.9v-1.895H82.628v1.6c0,.3,0,.3-.3.3q-.292,0-.585,0a.542.542,0,0,1-.092-.02c0-.488,0-.981,0-1.473a2.687,2.687,0,0,1,.042-.535,1.02,1.02,0,0,1,.9-.821,2.588,2.588,0,0,1,.359-.021q1.574,0,3.149,0c.9,0,1.31.409,1.311,1.3Z" data-name="Path 57"/>
<path transform="translate(-75.886 -1237.6)" d="m87.408 1248.1h-1.9v-2.483h1.9z" data-name="Path 58"/>
</g>
</svg>
