<?xml version="1.0" encoding="UTF-8"?>
<svg enable-background="new 0 0 100 100" version="1.1" viewBox="0 0 100 100" xml:space="preserve" xmlns="http://www.w3.org/2000/svg">
<style type="text/css">
	.st0{fill:#D1A250;}
	.st1{fill:#FFEBCA;}
</style>
		<path class="st0" d="M16.3,49.5L14,48.2v-7.1l2.3,1.4V49.5z M14,59v-7.4l12.9-10.5v7.6L14,59z"/>
		<g transform="translate(9.465 .224)">
			<path class="st1" d="m74.2 41.2h3.4l-2.7 13.1h-3.4l2.7-13.1zm-12.8 10.2h2.3c1.2 0.1 2.4-0.5 3-1.5 0.5-0.8 0.8-1.8 0.8-2.8 0-1.9-0.9-2.9-2.6-2.9h-2l-1.5 7.2zm-1.2-10.2h4.9c3.9 0 5.9 1.8 5.9 5.5 0.1 1.9-0.6 3.9-1.9 5.3-1.5 1.6-3.6 2.4-5.8 2.3h-5.9l2.8-13.1zm-11.4 5.8h2.7c1.5 0 2.3-0.6 2.3-1.8 0-0.9-0.6-1.3-1.9-1.3h-2.5l-0.6 3.1zm-2.2-5.8h6.5c1-0.1 2.1 0.2 3 0.6 0.9 0.6 1.3 1.7 1.2 2.8 0.2 1.8-1 3.4-2.8 3.6h-0.2c0.9 0.2 1.3 0.9 1.3 2.2v1.3 1.1c0 0.5 0 0.9 0.2 1.4h-3.4c-0.1-0.2-0.1-0.5-0.1-0.7v-1.1-1.2c0.1-0.8-0.4-1.6-1.3-1.8h-0.4-2.3l-1 4.8h-3.4l2.7-13zm-10.6 8.3h3l-0.5-4.7-2.5 4.7zm1.5-8.3h3.5l2.2 13.1h-3.5l-0.4-2.3h-4.6l-1.3 2.3h-3.6l7.7-13.1zm-13 8.2l-3-8.2h3.5l1.6 5.5 3.7-5.5h4.1l-6.5 8.2-1 4.9h-3.4l1-4.9z"/>
		</g>
</svg>
